solid OpenSCAD_Model
  facet normal 0 0 1
    outer loop
      vertex 111.5 70 12
      vertex 112.5 70 12
      vertex 112.461 70.6267 12
    endloop
  endfacet
  facet normal 0 0 1
    outer loop
      vertex 112.5 70 12
      vertex 111.5 70 12
      vertex 112.5 -70 12
    endloop
  endfacet
  facet normal 0 0 1
    outer loop
      vertex 111.468 70.5013 12
      vertex 112.461 70.6267 12
      vertex 112.343 71.2434 12
    endloop
  endfacet
  facet normal 0 0 1
    outer loop
      vertex 111.5 -70 12
      vertex 112.5 -70 12
      vertex 111.5 70 12
    endloop
  endfacet
  facet normal 0 0 1
    outer loop
      vertex 111.374 70.9948 12
      vertex 112.343 71.2434 12
      vertex 112.149 71.8406 12
    endloop
  endfacet
  facet normal 0 0 1
    outer loop
      vertex 112.5 -70 12
      vertex 111.5 -70 12
      vertex 112.461 -70.6267 12
    endloop
  endfacet
  facet normal 0 0 1
    outer loop
      vertex 111.219 71.4725 12
      vertex 112.149 71.8406 12
      vertex 111.882 72.4088 12
    endloop
  endfacet
  facet normal -0 0 1
    outer loop
      vertex 111.468 -70.5013 12
      vertex 112.461 -70.6267 12
      vertex 111.5 -70 12
    endloop
  endfacet
  facet normal 0 0 1
    outer loop
      vertex 111.005 71.927 12
      vertex 111.882 72.4088 12
      vertex 111.545 72.9389 12
    endloop
  endfacet
  facet normal 0 0 1
    outer loop
      vertex 112.461 -70.6267 12
      vertex 111.468 -70.5013 12
      vertex 112.343 -71.2434 12
    endloop
  endfacet
  facet normal -0 0 1
    outer loop
      vertex 111.374 -70.9948 12
      vertex 112.343 -71.2434 12
      vertex 111.468 -70.5013 12
    endloop
  endfacet
  facet normal 0 0 1
    outer loop
      vertex 112.461 70.6267 12
      vertex 111.468 70.5013 12
      vertex 111.5 70 12
    endloop
  endfacet
  facet normal 0 0 1
    outer loop
      vertex 112.343 71.2434 12
      vertex 111.374 70.9948 12
      vertex 111.468 70.5013 12
    endloop
  endfacet
  facet normal 0 0 1
    outer loop
      vertex 112.149 71.8406 12
      vertex 111.219 71.4725 12
      vertex 111.374 70.9948 12
    endloop
  endfacet
  facet normal 0 0 1
    outer loop
      vertex 110.736 72.3511 12
      vertex 111.545 72.9389 12
      vertex 111.145 73.4227 12
    endloop
  endfacet
  facet normal 0 0 1
    outer loop
      vertex 111.882 72.4088 12
      vertex 111.005 71.927 12
      vertex 111.219 71.4725 12
    endloop
  endfacet
  facet normal 0 0 1
    outer loop
      vertex 111.545 72.9389 12
      vertex 110.736 72.3511 12
      vertex 111.005 71.927 12
    endloop
  endfacet
  facet normal 0 0 1
    outer loop
      vertex 110.416 72.7382 12
      vertex 111.145 73.4227 12
      vertex 110.687 73.8526 12
    endloop
  endfacet
  facet normal 0 0 1
    outer loop
      vertex 111.145 73.4227 12
      vertex 110.416 72.7382 12
      vertex 110.736 72.3511 12
    endloop
  endfacet
  facet normal 0 0 1
    outer loop
      vertex 110.05 73.0821 12
      vertex 110.687 73.8526 12
      vertex 110.179 74.2216 12
    endloop
  endfacet
  facet normal 0 0 1
    outer loop
      vertex 110.687 73.8526 12
      vertex 110.05 73.0821 12
      vertex 110.416 72.7382 12
    endloop
  endfacet
  facet normal 0 0 1
    outer loop
      vertex 110.179 74.2216 12
      vertex 109.643 73.3773 12
      vertex 110.05 73.0821 12
    endloop
  endfacet
  facet normal 0 0 1
    outer loop
      vertex 109.629 74.5241 12
      vertex 109.643 73.3773 12
      vertex 110.179 74.2216 12
    endloop
  endfacet
  facet normal 0 0 1
    outer loop
      vertex 109.629 74.5241 12
      vertex 109.203 73.6193 12
      vertex 109.643 73.3773 12
    endloop
  endfacet
  facet normal 0 0 1
    outer loop
      vertex 109.045 74.7553 12
      vertex 109.203 73.6193 12
      vertex 109.629 74.5241 12
    endloop
  endfacet
  facet normal 0 0 1
    outer loop
      vertex 109.045 74.7553 12
      vertex 108.736 73.8042 12
      vertex 109.203 73.6193 12
    endloop
  endfacet
  facet normal 0 0 1
    outer loop
      vertex 108.437 74.9114 12
      vertex 108.736 73.8042 12
      vertex 109.045 74.7553 12
    endloop
  endfacet
  facet normal 0 0 1
    outer loop
      vertex 108.437 74.9114 12
      vertex 108.25 73.9291 12
      vertex 108.736 73.8042 12
    endloop
  endfacet
  facet normal 0 0 1
    outer loop
      vertex 107.814 74.9901 12
      vertex 108.25 73.9291 12
      vertex 108.437 74.9114 12
    endloop
  endfacet
  facet normal 0 0 1
    outer loop
      vertex 107.814 74.9901 12
      vertex 107.751 73.9921 12
      vertex 108.25 73.9291 12
    endloop
  endfacet
  facet normal 0 0 1
    outer loop
      vertex 107.814 74.9901 12
      vertex -107.751 73.9921 12
      vertex 107.751 73.9921 12
    endloop
  endfacet
  facet normal -0 0 1
    outer loop
      vertex -107.814 74.9901 12
      vertex -107.751 73.9921 12
      vertex 107.814 74.9901 12
    endloop
  endfacet
  facet normal 0 0 1
    outer loop
      vertex -107.814 74.9901 12
      vertex -108.25 73.9291 12
      vertex -107.751 73.9921 12
    endloop
  endfacet
  facet normal -0 0 1
    outer loop
      vertex -108.437 74.9114 12
      vertex -108.25 73.9291 12
      vertex -107.814 74.9901 12
    endloop
  endfacet
  facet normal 0 0 1
    outer loop
      vertex -108.437 74.9114 12
      vertex -108.736 73.8042 12
      vertex -108.25 73.9291 12
    endloop
  endfacet
  facet normal -0 0 1
    outer loop
      vertex -109.045 74.7553 12
      vertex -108.736 73.8042 12
      vertex -108.437 74.9114 12
    endloop
  endfacet
  facet normal 0 0 1
    outer loop
      vertex -109.045 74.7553 12
      vertex -109.203 73.6193 12
      vertex -108.736 73.8042 12
    endloop
  endfacet
  facet normal -0 0 1
    outer loop
      vertex -109.629 74.5241 12
      vertex -109.203 73.6193 12
      vertex -109.045 74.7553 12
    endloop
  endfacet
  facet normal 0 0 1
    outer loop
      vertex -109.629 74.5241 12
      vertex -109.643 73.3773 12
      vertex -109.203 73.6193 12
    endloop
  endfacet
  facet normal -0 0 1
    outer loop
      vertex -110.179 74.2216 12
      vertex -109.643 73.3773 12
      vertex -109.629 74.5241 12
    endloop
  endfacet
  facet normal 0 0 1
    outer loop
      vertex -109.643 73.3773 12
      vertex -110.179 74.2216 12
      vertex -110.05 73.0821 12
    endloop
  endfacet
  facet normal -0 0 1
    outer loop
      vertex -110.687 73.8526 12
      vertex -110.05 73.0821 12
      vertex -110.179 74.2216 12
    endloop
  endfacet
  facet normal 0 0 1
    outer loop
      vertex -110.05 73.0821 12
      vertex -110.687 73.8526 12
      vertex -110.416 72.7382 12
    endloop
  endfacet
  facet normal -0 0 1
    outer loop
      vertex -111.145 73.4227 12
      vertex -110.416 72.7382 12
      vertex -110.687 73.8526 12
    endloop
  endfacet
  facet normal 0 0 1
    outer loop
      vertex -110.416 72.7382 12
      vertex -111.145 73.4227 12
      vertex -110.736 72.3511 12
    endloop
  endfacet
  facet normal -0 0 1
    outer loop
      vertex -111.545 72.9389 12
      vertex -110.736 72.3511 12
      vertex -111.145 73.4227 12
    endloop
  endfacet
  facet normal 0 0 1
    outer loop
      vertex -110.736 72.3511 12
      vertex -111.545 72.9389 12
      vertex -111.005 71.927 12
    endloop
  endfacet
  facet normal -0 0 1
    outer loop
      vertex -111.882 72.4088 12
      vertex -111.005 71.927 12
      vertex -111.545 72.9389 12
    endloop
  endfacet
  facet normal 0 0 1
    outer loop
      vertex -111.005 71.927 12
      vertex -111.882 72.4088 12
      vertex -111.219 71.4725 12
    endloop
  endfacet
  facet normal -0 0 1
    outer loop
      vertex -112.343 71.2434 12
      vertex -111.374 70.9948 12
      vertex -112.149 71.8406 12
    endloop
  endfacet
  facet normal 0 0 1
    outer loop
      vertex -111.219 71.4725 12
      vertex -112.149 71.8406 12
      vertex -111.374 70.9948 12
    endloop
  endfacet
  facet normal -0 0 1
    outer loop
      vertex -112.149 71.8406 12
      vertex -111.219 71.4725 12
      vertex -111.882 72.4088 12
    endloop
  endfacet
  facet normal 0 0 1
    outer loop
      vertex 112.343 -71.2434 12
      vertex 111.374 -70.9948 12
      vertex 112.149 -71.8406 12
    endloop
  endfacet
  facet normal -0 0 1
    outer loop
      vertex 111.219 -71.4725 12
      vertex 112.149 -71.8406 12
      vertex 111.374 -70.9948 12
    endloop
  endfacet
  facet normal 0 0 1
    outer loop
      vertex 112.149 -71.8406 12
      vertex 111.219 -71.4725 12
      vertex 111.882 -72.4088 12
    endloop
  endfacet
  facet normal -0 0 1
    outer loop
      vertex 111.005 -71.927 12
      vertex 111.882 -72.4088 12
      vertex 111.219 -71.4725 12
    endloop
  endfacet
  facet normal 0 0 1
    outer loop
      vertex 111.882 -72.4088 12
      vertex 111.005 -71.927 12
      vertex 111.545 -72.9389 12
    endloop
  endfacet
  facet normal -0 0 1
    outer loop
      vertex 110.736 -72.3511 12
      vertex 111.545 -72.9389 12
      vertex 111.005 -71.927 12
    endloop
  endfacet
  facet normal 0 0 1
    outer loop
      vertex 111.545 -72.9389 12
      vertex 110.736 -72.3511 12
      vertex 111.145 -73.4227 12
    endloop
  endfacet
  facet normal -0 0 1
    outer loop
      vertex 110.416 -72.7382 12
      vertex 111.145 -73.4227 12
      vertex 110.736 -72.3511 12
    endloop
  endfacet
  facet normal 0 0 1
    outer loop
      vertex 111.145 -73.4227 12
      vertex 110.416 -72.7382 12
      vertex 110.687 -73.8526 12
    endloop
  endfacet
  facet normal -0 0 1
    outer loop
      vertex 110.05 -73.0821 12
      vertex 110.687 -73.8526 12
      vertex 110.416 -72.7382 12
    endloop
  endfacet
  facet normal 0 0 1
    outer loop
      vertex 110.687 -73.8526 12
      vertex 110.05 -73.0821 12
      vertex 110.179 -74.2216 12
    endloop
  endfacet
  facet normal -0 0 1
    outer loop
      vertex 109.643 -73.3773 12
      vertex 110.179 -74.2216 12
      vertex 110.05 -73.0821 12
    endloop
  endfacet
  facet normal 0 0 1
    outer loop
      vertex 109.643 -73.3773 12
      vertex 109.629 -74.5241 12
      vertex 110.179 -74.2216 12
    endloop
  endfacet
  facet normal -0 0 1
    outer loop
      vertex 109.203 -73.6193 12
      vertex 109.629 -74.5241 12
      vertex 109.643 -73.3773 12
    endloop
  endfacet
  facet normal 0 0 1
    outer loop
      vertex 109.203 -73.6193 12
      vertex 109.045 -74.7553 12
      vertex 109.629 -74.5241 12
    endloop
  endfacet
  facet normal -0 0 1
    outer loop
      vertex 108.736 -73.8042 12
      vertex 109.045 -74.7553 12
      vertex 109.203 -73.6193 12
    endloop
  endfacet
  facet normal 0 0 1
    outer loop
      vertex 108.736 -73.8042 12
      vertex 108.437 -74.9114 12
      vertex 109.045 -74.7553 12
    endloop
  endfacet
  facet normal -0 0 1
    outer loop
      vertex 108.25 -73.9291 12
      vertex 108.437 -74.9114 12
      vertex 108.736 -73.8042 12
    endloop
  endfacet
  facet normal 0 0 1
    outer loop
      vertex 108.25 -73.9291 12
      vertex 107.814 -74.9901 12
      vertex 108.437 -74.9114 12
    endloop
  endfacet
  facet normal -0 0 1
    outer loop
      vertex 107.751 -73.9921 12
      vertex 107.814 -74.9901 12
      vertex 108.25 -73.9291 12
    endloop
  endfacet
  facet normal -0 0 1
    outer loop
      vertex -107.751 -73.9921 12
      vertex 107.814 -74.9901 12
      vertex 107.751 -73.9921 12
    endloop
  endfacet
  facet normal 0 0 1
    outer loop
      vertex -107.751 -73.9921 12
      vertex -107.814 -74.9901 12
      vertex 107.814 -74.9901 12
    endloop
  endfacet
  facet normal 0 0 1
    outer loop
      vertex -108.25 -73.9291 12
      vertex -107.814 -74.9901 12
      vertex -107.751 -73.9921 12
    endloop
  endfacet
  facet normal 0 0 1
    outer loop
      vertex -108.25 -73.9291 12
      vertex -108.437 -74.9114 12
      vertex -107.814 -74.9901 12
    endloop
  endfacet
  facet normal 0 0 1
    outer loop
      vertex -108.736 -73.8042 12
      vertex -108.437 -74.9114 12
      vertex -108.25 -73.9291 12
    endloop
  endfacet
  facet normal 0 0 1
    outer loop
      vertex -108.736 -73.8042 12
      vertex -109.045 -74.7553 12
      vertex -108.437 -74.9114 12
    endloop
  endfacet
  facet normal 0 0 1
    outer loop
      vertex -109.203 -73.6193 12
      vertex -109.045 -74.7553 12
      vertex -108.736 -73.8042 12
    endloop
  endfacet
  facet normal 0 0 1
    outer loop
      vertex -109.203 -73.6193 12
      vertex -109.629 -74.5241 12
      vertex -109.045 -74.7553 12
    endloop
  endfacet
  facet normal 0 0 1
    outer loop
      vertex -109.643 -73.3773 12
      vertex -109.629 -74.5241 12
      vertex -109.203 -73.6193 12
    endloop
  endfacet
  facet normal 0 0 1
    outer loop
      vertex -110.179 -74.2216 12
      vertex -109.643 -73.3773 12
      vertex -110.05 -73.0821 12
    endloop
  endfacet
  facet normal 0 0 1
    outer loop
      vertex -109.643 -73.3773 12
      vertex -110.179 -74.2216 12
      vertex -109.629 -74.5241 12
    endloop
  endfacet
  facet normal 0 0 1
    outer loop
      vertex -110.687 -73.8526 12
      vertex -110.05 -73.0821 12
      vertex -110.416 -72.7382 12
    endloop
  endfacet
  facet normal 0 0 1
    outer loop
      vertex -110.05 -73.0821 12
      vertex -110.687 -73.8526 12
      vertex -110.179 -74.2216 12
    endloop
  endfacet
  facet normal 0 0 1
    outer loop
      vertex -111.145 -73.4227 12
      vertex -110.416 -72.7382 12
      vertex -110.736 -72.3511 12
    endloop
  endfacet
  facet normal 0 0 1
    outer loop
      vertex -111.545 -72.9389 12
      vertex -110.736 -72.3511 12
      vertex -111.005 -71.927 12
    endloop
  endfacet
  facet normal 0 0 1
    outer loop
      vertex -110.416 -72.7382 12
      vertex -111.145 -73.4227 12
      vertex -110.687 -73.8526 12
    endloop
  endfacet
  facet normal 0 0 1
    outer loop
      vertex -111.882 -72.4088 12
      vertex -111.005 -71.927 12
      vertex -111.219 -71.4725 12
    endloop
  endfacet
  facet normal 0 0 1
    outer loop
      vertex -112.149 -71.8406 12
      vertex -111.219 -71.4725 12
      vertex -111.374 -70.9948 12
    endloop
  endfacet
  facet normal 0 0 1
    outer loop
      vertex -112.343 -71.2434 12
      vertex -111.374 -70.9948 12
      vertex -111.468 -70.5013 12
    endloop
  endfacet
  facet normal 0 0 1
    outer loop
      vertex -110.736 -72.3511 12
      vertex -111.545 -72.9389 12
      vertex -111.145 -73.4227 12
    endloop
  endfacet
  facet normal 0 0 1
    outer loop
      vertex -112.461 -70.6267 12
      vertex -111.468 -70.5013 12
      vertex -111.5 -70 12
    endloop
  endfacet
  facet normal 0 0 1
    outer loop
      vertex -111.5 70 12
      vertex -112.5 70 12
      vertex -111.5 -70 12
    endloop
  endfacet
  facet normal 0 0 1
    outer loop
      vertex -111.374 70.9948 12
      vertex -112.343 71.2434 12
      vertex -111.468 70.5013 12
    endloop
  endfacet
  facet normal 0 0 1
    outer loop
      vertex -112.5 -70 12
      vertex -111.5 -70 12
      vertex -112.5 70 12
    endloop
  endfacet
  facet normal -0 0 1
    outer loop
      vertex -112.461 70.6267 12
      vertex -111.468 70.5013 12
      vertex -112.343 71.2434 12
    endloop
  endfacet
  facet normal 0 -0 1
    outer loop
      vertex -112.461 -70.6267 12
      vertex -111.5 -70 12
      vertex -112.5 -70 12
    endloop
  endfacet
  facet normal 0 0 1
    outer loop
      vertex -111.468 70.5013 12
      vertex -112.461 70.6267 12
      vertex -111.5 70 12
    endloop
  endfacet
  facet normal 0 0 1
    outer loop
      vertex -111.005 -71.927 12
      vertex -111.882 -72.4088 12
      vertex -111.545 -72.9389 12
    endloop
  endfacet
  facet normal 0 0 1
    outer loop
      vertex -111.5 70 12
      vertex -112.461 70.6267 12
      vertex -112.5 70 12
    endloop
  endfacet
  facet normal 0 0 1
    outer loop
      vertex -111.219 -71.4725 12
      vertex -112.149 -71.8406 12
      vertex -111.882 -72.4088 12
    endloop
  endfacet
  facet normal 0 0 1
    outer loop
      vertex -111.374 -70.9948 12
      vertex -112.343 -71.2434 12
      vertex -112.149 -71.8406 12
    endloop
  endfacet
  facet normal 0 0 1
    outer loop
      vertex -111.468 -70.5013 12
      vertex -112.461 -70.6267 12
      vertex -112.343 -71.2434 12
    endloop
  endfacet
  facet normal 0 1 -0
    outer loop
      vertex 107.814 74.9901 0
      vertex -107.814 74.9901 12
      vertex 107.814 74.9901 12
    endloop
  endfacet
  facet normal 0 1 0
    outer loop
      vertex -107.814 74.9901 12
      vertex 107.814 74.9901 0
      vertex -107.814 74.9901 0
    endloop
  endfacet
  facet normal -0.125328 0.992115 0
    outer loop
      vertex -107.814 74.9901 0
      vertex -108.437 74.9114 12
      vertex -107.814 74.9901 12
    endloop
  endfacet
  facet normal -0.125328 0.992115 0
    outer loop
      vertex -108.437 74.9114 12
      vertex -107.814 74.9901 0
      vertex -108.437 74.9114 0
    endloop
  endfacet
  facet normal 0 -1 0
    outer loop
      vertex -107.814 -74.9901 0
      vertex 107.814 -74.9901 12
      vertex -107.814 -74.9901 12
    endloop
  endfacet
  facet normal 0 -1 -0
    outer loop
      vertex 107.814 -74.9901 12
      vertex -107.814 -74.9901 0
      vertex 107.814 -74.9901 0
    endloop
  endfacet
  facet normal 0.125328 0.992115 -0
    outer loop
      vertex 108.437 74.9114 0
      vertex 107.814 74.9901 12
      vertex 108.437 74.9114 12
    endloop
  endfacet
  facet normal 0.125328 0.992115 0
    outer loop
      vertex 107.814 74.9901 12
      vertex 108.437 74.9114 0
      vertex 107.814 74.9901 0
    endloop
  endfacet
  facet normal 0.998069 0.0621106 0
    outer loop
      vertex 112.5 70 12
      vertex 112.461 70.6267 0
      vertex 112.461 70.6267 12
    endloop
  endfacet
  facet normal 0.998069 0.0621106 0
    outer loop
      vertex 112.461 70.6267 0
      vertex 112.5 70 12
      vertex 112.5 70 0
    endloop
  endfacet
  facet normal 1 -0 0
    outer loop
      vertex 112.5 -70 12
      vertex 112.5 70 0
      vertex 112.5 70 12
    endloop
  endfacet
  facet normal 1 0 0
    outer loop
      vertex 112.5 70 0
      vertex 112.5 -70 12
      vertex 112.5 -70 0
    endloop
  endfacet
  facet normal -0.587698 -0.80908 0
    outer loop
      vertex -110.687 -73.8526 0
      vertex -110.179 -74.2216 12
      vertex -110.687 -73.8526 12
    endloop
  endfacet
  facet normal -0.587698 -0.80908 -0
    outer loop
      vertex -110.179 -74.2216 12
      vertex -110.687 -73.8526 0
      vertex -110.179 -74.2216 0
    endloop
  endfacet
  facet normal -0.481919 -0.876216 0
    outer loop
      vertex -110.179 -74.2216 0
      vertex -109.629 -74.5241 12
      vertex -110.179 -74.2216 12
    endloop
  endfacet
  facet normal -0.481919 -0.876216 -0
    outer loop
      vertex -109.629 -74.5241 12
      vertex -110.179 -74.2216 0
      vertex -109.629 -74.5241 0
    endloop
  endfacet
  facet normal -0.368094 0.929788 0
    outer loop
      vertex -109.045 74.7553 0
      vertex -109.629 74.5241 12
      vertex -109.045 74.7553 12
    endloop
  endfacet
  facet normal -0.368094 0.929788 0
    outer loop
      vertex -109.629 74.5241 12
      vertex -109.045 74.7553 0
      vertex -109.629 74.5241 0
    endloop
  endfacet
  facet normal 0.951076 0.308956 0
    outer loop
      vertex 112.343 71.2434 12
      vertex 112.149 71.8406 0
      vertex 112.149 71.8406 12
    endloop
  endfacet
  facet normal 0.951076 0.308956 0
    outer loop
      vertex 112.149 71.8406 0
      vertex 112.343 71.2434 12
      vertex 112.343 71.2434 0
    endloop
  endfacet
  facet normal -0.684386 0.72912 0
    outer loop
      vertex -110.687 73.8526 0
      vertex -111.145 73.4227 12
      vertex -110.687 73.8526 12
    endloop
  endfacet
  facet normal -0.684386 0.72912 0
    outer loop
      vertex -111.145 73.4227 12
      vertex -110.687 73.8526 0
      vertex -111.145 73.4227 0
    endloop
  endfacet
  facet normal -0.770696 -0.637202 0
    outer loop
      vertex -111.145 -73.4227 0
      vertex -111.545 -72.9389 12
      vertex -111.545 -72.9389 0
    endloop
  endfacet
  facet normal -0.770696 -0.637202 0
    outer loop
      vertex -111.545 -72.9389 12
      vertex -111.145 -73.4227 0
      vertex -111.145 -73.4227 12
    endloop
  endfacet
  facet normal -1 0 0
    outer loop
      vertex -112.5 -70 0
      vertex -112.5 70 12
      vertex -112.5 70 0
    endloop
  endfacet
  facet normal -1 -0 0
    outer loop
      vertex -112.5 70 12
      vertex -112.5 -70 0
      vertex -112.5 -70 12
    endloop
  endfacet
  facet normal -0.998069 0.0621106 0
    outer loop
      vertex -112.5 70 0
      vertex -112.461 70.6267 12
      vertex -112.461 70.6267 0
    endloop
  endfacet
  facet normal -0.998069 0.0621106 0
    outer loop
      vertex -112.461 70.6267 12
      vertex -112.5 70 0
      vertex -112.5 70 12
    endloop
  endfacet
  facet normal -0.951076 0.308956 0
    outer loop
      vertex -112.343 71.2434 0
      vertex -112.149 71.8406 12
      vertex -112.149 71.8406 0
    endloop
  endfacet
  facet normal -0.951076 0.308956 0
    outer loop
      vertex -112.149 71.8406 12
      vertex -112.343 71.2434 0
      vertex -112.343 71.2434 12
    endloop
  endfacet
  facet normal 0.368094 0.929788 -0
    outer loop
      vertex 109.629 74.5241 0
      vertex 109.045 74.7553 12
      vertex 109.629 74.5241 12
    endloop
  endfacet
  facet normal 0.368094 0.929788 0
    outer loop
      vertex 109.045 74.7553 12
      vertex 109.629 74.5241 0
      vertex 109.045 74.7553 0
    endloop
  endfacet
  facet normal 0.770696 0.637202 0
    outer loop
      vertex 111.545 72.9389 12
      vertex 111.145 73.4227 0
      vertex 111.145 73.4227 12
    endloop
  endfacet
  facet normal 0.770696 0.637202 0
    outer loop
      vertex 111.145 73.4227 0
      vertex 111.545 72.9389 12
      vertex 111.545 72.9389 0
    endloop
  endfacet
  facet normal 0.982182 0.187932 0
    outer loop
      vertex 112.461 70.6267 12
      vertex 112.343 71.2434 0
      vertex 112.343 71.2434 12
    endloop
  endfacet
  facet normal 0.982182 0.187932 0
    outer loop
      vertex 112.343 71.2434 0
      vertex 112.461 70.6267 12
      vertex 112.461 70.6267 0
    endloop
  endfacet
  facet normal -0.248678 0.968586 0
    outer loop
      vertex -108.437 74.9114 0
      vertex -109.045 74.7553 12
      vertex -108.437 74.9114 12
    endloop
  endfacet
  facet normal -0.248678 0.968586 0
    outer loop
      vertex -109.045 74.7553 12
      vertex -108.437 74.9114 0
      vertex -109.045 74.7553 0
    endloop
  endfacet
  facet normal 0.951076 -0.308956 0
    outer loop
      vertex 112.149 -71.8406 12
      vertex 112.343 -71.2434 0
      vertex 112.343 -71.2434 12
    endloop
  endfacet
  facet normal 0.951076 -0.308956 0
    outer loop
      vertex 112.343 -71.2434 0
      vertex 112.149 -71.8406 12
      vertex 112.149 -71.8406 0
    endloop
  endfacet
  facet normal -0.125328 -0.992115 0
    outer loop
      vertex -108.437 -74.9114 0
      vertex -107.814 -74.9901 12
      vertex -108.437 -74.9114 12
    endloop
  endfacet
  facet normal -0.125328 -0.992115 -0
    outer loop
      vertex -107.814 -74.9901 12
      vertex -108.437 -74.9114 0
      vertex -107.814 -74.9901 0
    endloop
  endfacet
  facet normal -0.481919 0.876216 0
    outer loop
      vertex -109.629 74.5241 0
      vertex -110.179 74.2216 12
      vertex -109.629 74.5241 12
    endloop
  endfacet
  facet normal -0.481919 0.876216 0
    outer loop
      vertex -110.179 74.2216 12
      vertex -109.629 74.5241 0
      vertex -110.179 74.2216 0
    endloop
  endfacet
  facet normal 0.248678 0.968586 -0
    outer loop
      vertex 109.045 74.7553 0
      vertex 108.437 74.9114 12
      vertex 109.045 74.7553 12
    endloop
  endfacet
  facet normal 0.248678 0.968586 0
    outer loop
      vertex 108.437 74.9114 12
      vertex 109.045 74.7553 0
      vertex 108.437 74.9114 0
    endloop
  endfacet
  facet normal 0.481919 0.876216 -0
    outer loop
      vertex 110.179 74.2216 0
      vertex 109.629 74.5241 12
      vertex 110.179 74.2216 12
    endloop
  endfacet
  facet normal 0.481919 0.876216 0
    outer loop
      vertex 109.629 74.5241 12
      vertex 110.179 74.2216 0
      vertex 109.629 74.5241 0
    endloop
  endfacet
  facet normal 0.905057 0.425291 0
    outer loop
      vertex 112.149 71.8406 12
      vertex 111.882 72.4088 0
      vertex 111.882 72.4088 12
    endloop
  endfacet
  facet normal 0.905057 0.425291 0
    outer loop
      vertex 111.882 72.4088 0
      vertex 112.149 71.8406 12
      vertex 112.149 71.8406 0
    endloop
  endfacet
  facet normal 0.843904 0.536494 0
    outer loop
      vertex 111.882 72.4088 12
      vertex 111.545 72.9389 0
      vertex 111.545 72.9389 12
    endloop
  endfacet
  facet normal 0.843904 0.536494 0
    outer loop
      vertex 111.545 72.9389 0
      vertex 111.882 72.4088 12
      vertex 111.882 72.4088 0
    endloop
  endfacet
  facet normal 0.684386 0.72912 -0
    outer loop
      vertex 111.145 73.4227 0
      vertex 110.687 73.8526 12
      vertex 111.145 73.4227 12
    endloop
  endfacet
  facet normal 0.684386 0.72912 0
    outer loop
      vertex 110.687 73.8526 12
      vertex 111.145 73.4227 0
      vertex 110.687 73.8526 0
    endloop
  endfacet
  facet normal 0.770696 -0.637202 0
    outer loop
      vertex 111.145 -73.4227 12
      vertex 111.545 -72.9389 0
      vertex 111.545 -72.9389 12
    endloop
  endfacet
  facet normal 0.770696 -0.637202 0
    outer loop
      vertex 111.545 -72.9389 0
      vertex 111.145 -73.4227 12
      vertex 111.145 -73.4227 0
    endloop
  endfacet
  facet normal 0.481919 -0.876216 0
    outer loop
      vertex 109.629 -74.5241 0
      vertex 110.179 -74.2216 12
      vertex 109.629 -74.5241 12
    endloop
  endfacet
  facet normal 0.481919 -0.876216 0
    outer loop
      vertex 110.179 -74.2216 12
      vertex 109.629 -74.5241 0
      vertex 110.179 -74.2216 0
    endloop
  endfacet
  facet normal 0.684386 -0.72912 0
    outer loop
      vertex 110.687 -73.8526 0
      vertex 111.145 -73.4227 12
      vertex 110.687 -73.8526 12
    endloop
  endfacet
  facet normal 0.684386 -0.72912 0
    outer loop
      vertex 111.145 -73.4227 12
      vertex 110.687 -73.8526 0
      vertex 111.145 -73.4227 0
    endloop
  endfacet
  facet normal -0.684386 -0.72912 0
    outer loop
      vertex -111.145 -73.4227 0
      vertex -110.687 -73.8526 12
      vertex -111.145 -73.4227 12
    endloop
  endfacet
  facet normal -0.684386 -0.72912 -0
    outer loop
      vertex -110.687 -73.8526 12
      vertex -111.145 -73.4227 0
      vertex -110.687 -73.8526 0
    endloop
  endfacet
  facet normal -0.368094 -0.929788 0
    outer loop
      vertex -109.629 -74.5241 0
      vertex -109.045 -74.7553 12
      vertex -109.629 -74.5241 12
    endloop
  endfacet
  facet normal -0.368094 -0.929788 -0
    outer loop
      vertex -109.045 -74.7553 12
      vertex -109.629 -74.5241 0
      vertex -109.045 -74.7553 0
    endloop
  endfacet
  facet normal -0.248678 -0.968586 0
    outer loop
      vertex -109.045 -74.7553 0
      vertex -108.437 -74.9114 12
      vertex -109.045 -74.7553 12
    endloop
  endfacet
  facet normal -0.248678 -0.968586 -0
    outer loop
      vertex -108.437 -74.9114 12
      vertex -109.045 -74.7553 0
      vertex -108.437 -74.9114 0
    endloop
  endfacet
  facet normal -0.998069 -0.0621106 0
    outer loop
      vertex -112.461 -70.6267 0
      vertex -112.5 -70 12
      vertex -112.5 -70 0
    endloop
  endfacet
  facet normal -0.998069 -0.0621106 0
    outer loop
      vertex -112.5 -70 12
      vertex -112.461 -70.6267 0
      vertex -112.461 -70.6267 12
    endloop
  endfacet
  facet normal -0.843904 0.536494 0
    outer loop
      vertex -111.882 72.4088 0
      vertex -111.545 72.9389 12
      vertex -111.545 72.9389 0
    endloop
  endfacet
  facet normal -0.843904 0.536494 0
    outer loop
      vertex -111.545 72.9389 12
      vertex -111.882 72.4088 0
      vertex -111.882 72.4088 12
    endloop
  endfacet
  facet normal -0.770696 0.637202 0
    outer loop
      vertex -111.545 72.9389 0
      vertex -111.145 73.4227 12
      vertex -111.145 73.4227 0
    endloop
  endfacet
  facet normal -0.770696 0.637202 0
    outer loop
      vertex -111.145 73.4227 12
      vertex -111.545 72.9389 0
      vertex -111.545 72.9389 12
    endloop
  endfacet
  facet normal 0.587698 0.80908 -0
    outer loop
      vertex 110.687 73.8526 0
      vertex 110.179 74.2216 12
      vertex 110.687 73.8526 12
    endloop
  endfacet
  facet normal 0.587698 0.80908 0
    outer loop
      vertex 110.179 74.2216 12
      vertex 110.687 73.8526 0
      vertex 110.179 74.2216 0
    endloop
  endfacet
  facet normal 0.905057 -0.425291 0
    outer loop
      vertex 111.882 -72.4088 12
      vertex 112.149 -71.8406 0
      vertex 112.149 -71.8406 12
    endloop
  endfacet
  facet normal 0.905057 -0.425291 0
    outer loop
      vertex 112.149 -71.8406 0
      vertex 111.882 -72.4088 12
      vertex 111.882 -72.4088 0
    endloop
  endfacet
  facet normal 0.843904 -0.536494 0
    outer loop
      vertex 111.545 -72.9389 12
      vertex 111.882 -72.4088 0
      vertex 111.882 -72.4088 12
    endloop
  endfacet
  facet normal 0.843904 -0.536494 0
    outer loop
      vertex 111.882 -72.4088 0
      vertex 111.545 -72.9389 12
      vertex 111.545 -72.9389 0
    endloop
  endfacet
  facet normal 0.368094 -0.929788 0
    outer loop
      vertex 109.045 -74.7553 0
      vertex 109.629 -74.5241 12
      vertex 109.045 -74.7553 12
    endloop
  endfacet
  facet normal 0.368094 -0.929788 0
    outer loop
      vertex 109.629 -74.5241 12
      vertex 109.045 -74.7553 0
      vertex 109.629 -74.5241 0
    endloop
  endfacet
  facet normal -0.905057 -0.425291 0
    outer loop
      vertex -111.882 -72.4088 0
      vertex -112.149 -71.8406 12
      vertex -112.149 -71.8406 0
    endloop
  endfacet
  facet normal -0.905057 -0.425291 0
    outer loop
      vertex -112.149 -71.8406 12
      vertex -111.882 -72.4088 0
      vertex -111.882 -72.4088 12
    endloop
  endfacet
  facet normal -0.843904 -0.536494 0
    outer loop
      vertex -111.545 -72.9389 0
      vertex -111.882 -72.4088 12
      vertex -111.882 -72.4088 0
    endloop
  endfacet
  facet normal -0.843904 -0.536494 0
    outer loop
      vertex -111.882 -72.4088 12
      vertex -111.545 -72.9389 0
      vertex -111.545 -72.9389 12
    endloop
  endfacet
  facet normal -0.951076 -0.308956 0
    outer loop
      vertex -112.149 -71.8406 0
      vertex -112.343 -71.2434 12
      vertex -112.343 -71.2434 0
    endloop
  endfacet
  facet normal -0.951076 -0.308956 0
    outer loop
      vertex -112.343 -71.2434 12
      vertex -112.149 -71.8406 0
      vertex -112.149 -71.8406 12
    endloop
  endfacet
  facet normal -0.587698 0.80908 0
    outer loop
      vertex -110.179 74.2216 0
      vertex -110.687 73.8526 12
      vertex -110.179 74.2216 12
    endloop
  endfacet
  facet normal -0.587698 0.80908 0
    outer loop
      vertex -110.687 73.8526 12
      vertex -110.179 74.2216 0
      vertex -110.687 73.8526 0
    endloop
  endfacet
  facet normal -0.905057 0.425291 0
    outer loop
      vertex -112.149 71.8406 0
      vertex -111.882 72.4088 12
      vertex -111.882 72.4088 0
    endloop
  endfacet
  facet normal -0.905057 0.425291 0
    outer loop
      vertex -111.882 72.4088 12
      vertex -112.149 71.8406 0
      vertex -112.149 71.8406 12
    endloop
  endfacet
  facet normal 0.998069 -0.0621106 0
    outer loop
      vertex 112.461 -70.6267 12
      vertex 112.5 -70 0
      vertex 112.5 -70 12
    endloop
  endfacet
  facet normal 0.998069 -0.0621106 0
    outer loop
      vertex 112.5 -70 0
      vertex 112.461 -70.6267 12
      vertex 112.461 -70.6267 0
    endloop
  endfacet
  facet normal 0.982182 -0.187932 0
    outer loop
      vertex 112.343 -71.2434 12
      vertex 112.461 -70.6267 0
      vertex 112.461 -70.6267 12
    endloop
  endfacet
  facet normal 0.982182 -0.187932 0
    outer loop
      vertex 112.461 -70.6267 0
      vertex 112.343 -71.2434 12
      vertex 112.343 -71.2434 0
    endloop
  endfacet
  facet normal 0.587698 -0.80908 0
    outer loop
      vertex 110.179 -74.2216 0
      vertex 110.687 -73.8526 12
      vertex 110.179 -74.2216 12
    endloop
  endfacet
  facet normal 0.587698 -0.80908 0
    outer loop
      vertex 110.687 -73.8526 12
      vertex 110.179 -74.2216 0
      vertex 110.687 -73.8526 0
    endloop
  endfacet
  facet normal 0.248678 -0.968586 0
    outer loop
      vertex 108.437 -74.9114 0
      vertex 109.045 -74.7553 12
      vertex 108.437 -74.9114 12
    endloop
  endfacet
  facet normal 0.248678 -0.968586 0
    outer loop
      vertex 109.045 -74.7553 12
      vertex 108.437 -74.9114 0
      vertex 109.045 -74.7553 0
    endloop
  endfacet
  facet normal 0.125328 -0.992115 0
    outer loop
      vertex 107.814 -74.9901 0
      vertex 108.437 -74.9114 12
      vertex 107.814 -74.9901 12
    endloop
  endfacet
  facet normal 0.125328 -0.992115 0
    outer loop
      vertex 108.437 -74.9114 12
      vertex 107.814 -74.9901 0
      vertex 108.437 -74.9114 0
    endloop
  endfacet
  facet normal 0 0 -1
    outer loop
      vertex 107.814 -74.9901 0
      vertex 112.5 -70 0
      vertex 112.461 -70.6267 0
    endloop
  endfacet
  facet normal -0 0 -1
    outer loop
      vertex 112.5 -70 0
      vertex 107.814 -74.9901 0
      vertex 112.5 70 0
    endloop
  endfacet
  facet normal 0 0 -1
    outer loop
      vertex 107.814 -74.9901 0
      vertex 112.461 -70.6267 0
      vertex 112.343 -71.2434 0
    endloop
  endfacet
  facet normal 0 0 -1
    outer loop
      vertex 107.814 74.9901 0
      vertex 112.5 70 0
      vertex 107.814 -74.9901 0
    endloop
  endfacet
  facet normal 0 0 -1
    outer loop
      vertex 107.814 -74.9901 0
      vertex 112.343 -71.2434 0
      vertex 112.149 -71.8406 0
    endloop
  endfacet
  facet normal 0 0 -1
    outer loop
      vertex 112.5 70 0
      vertex 107.814 74.9901 0
      vertex 112.461 70.6267 0
    endloop
  endfacet
  facet normal 0 0 -1
    outer loop
      vertex 107.814 -74.9901 0
      vertex 112.149 -71.8406 0
      vertex 111.882 -72.4088 0
    endloop
  endfacet
  facet normal 0 0 -1
    outer loop
      vertex 112.461 70.6267 0
      vertex 107.814 74.9901 0
      vertex 112.343 71.2434 0
    endloop
  endfacet
  facet normal 0 0 -1
    outer loop
      vertex 107.814 -74.9901 0
      vertex 111.882 -72.4088 0
      vertex 111.545 -72.9389 0
    endloop
  endfacet
  facet normal 0 0 -1
    outer loop
      vertex 112.343 71.2434 0
      vertex 107.814 74.9901 0
      vertex 112.149 71.8406 0
    endloop
  endfacet
  facet normal 0 0 -1
    outer loop
      vertex 107.814 -74.9901 0
      vertex 111.545 -72.9389 0
      vertex 111.145 -73.4227 0
    endloop
  endfacet
  facet normal 0 0 -1
    outer loop
      vertex 112.149 71.8406 0
      vertex 107.814 74.9901 0
      vertex 111.882 72.4088 0
    endloop
  endfacet
  facet normal 0 0 -1
    outer loop
      vertex 107.814 -74.9901 0
      vertex 111.145 -73.4227 0
      vertex 110.687 -73.8526 0
    endloop
  endfacet
  facet normal 0 0 -1
    outer loop
      vertex 111.882 72.4088 0
      vertex 107.814 74.9901 0
      vertex 111.545 72.9389 0
    endloop
  endfacet
  facet normal 0 0 -1
    outer loop
      vertex 107.814 -74.9901 0
      vertex 110.687 -73.8526 0
      vertex 110.179 -74.2216 0
    endloop
  endfacet
  facet normal 0 0 -1
    outer loop
      vertex 111.545 72.9389 0
      vertex 107.814 74.9901 0
      vertex 111.145 73.4227 0
    endloop
  endfacet
  facet normal 0 0 -1
    outer loop
      vertex 107.814 -74.9901 0
      vertex 110.179 -74.2216 0
      vertex 109.629 -74.5241 0
    endloop
  endfacet
  facet normal 0 0 -1
    outer loop
      vertex 111.145 73.4227 0
      vertex 107.814 74.9901 0
      vertex 110.687 73.8526 0
    endloop
  endfacet
  facet normal 0 0 -1
    outer loop
      vertex 107.814 -74.9901 0
      vertex 109.629 -74.5241 0
      vertex 109.045 -74.7553 0
    endloop
  endfacet
  facet normal 0 0 -1
    outer loop
      vertex 110.687 73.8526 0
      vertex 107.814 74.9901 0
      vertex 110.179 74.2216 0
    endloop
  endfacet
  facet normal 0 0 -1
    outer loop
      vertex 107.814 -74.9901 0
      vertex 109.045 -74.7553 0
      vertex 108.437 -74.9114 0
    endloop
  endfacet
  facet normal 0 0 -1
    outer loop
      vertex 110.179 74.2216 0
      vertex 107.814 74.9901 0
      vertex 109.629 74.5241 0
    endloop
  endfacet
  facet normal 0 0 -1
    outer loop
      vertex 109.629 74.5241 0
      vertex 107.814 74.9901 0
      vertex 109.045 74.7553 0
    endloop
  endfacet
  facet normal 0 0 -1
    outer loop
      vertex 109.045 74.7553 0
      vertex 107.814 74.9901 0
      vertex 108.437 74.9114 0
    endloop
  endfacet
  facet normal 0 0 -1
    outer loop
      vertex -107.814 -74.9901 0
      vertex 107.814 74.9901 0
      vertex 107.814 -74.9901 0
    endloop
  endfacet
  facet normal 0 0 -1
    outer loop
      vertex -107.814 -74.9901 0
      vertex -107.814 74.9901 0
      vertex 107.814 74.9901 0
    endloop
  endfacet
  facet normal 0 0 -1
    outer loop
      vertex -112.5 -70 0
      vertex -107.814 -74.9901 0
      vertex -108.437 -74.9114 0
    endloop
  endfacet
  facet normal 0 0 -1
    outer loop
      vertex -107.814 -74.9901 0
      vertex -112.5 -70 0
      vertex -107.814 74.9901 0
    endloop
  endfacet
  facet normal 0 0 -1
    outer loop
      vertex -112.5 -70 0
      vertex -108.437 -74.9114 0
      vertex -109.045 -74.7553 0
    endloop
  endfacet
  facet normal 0 0 -1
    outer loop
      vertex -112.5 70 0
      vertex -107.814 74.9901 0
      vertex -112.5 -70 0
    endloop
  endfacet
  facet normal 0 0 -1
    outer loop
      vertex -112.5 -70 0
      vertex -109.045 -74.7553 0
      vertex -109.629 -74.5241 0
    endloop
  endfacet
  facet normal 0 0 -1
    outer loop
      vertex -107.814 74.9901 0
      vertex -112.5 70 0
      vertex -108.437 74.9114 0
    endloop
  endfacet
  facet normal 0 0 -1
    outer loop
      vertex -112.5 -70 0
      vertex -109.629 -74.5241 0
      vertex -110.179 -74.2216 0
    endloop
  endfacet
  facet normal 0 0 -1
    outer loop
      vertex -108.437 74.9114 0
      vertex -112.5 70 0
      vertex -109.045 74.7553 0
    endloop
  endfacet
  facet normal 0 0 -1
    outer loop
      vertex -112.5 -70 0
      vertex -110.179 -74.2216 0
      vertex -110.687 -73.8526 0
    endloop
  endfacet
  facet normal 0 0 -1
    outer loop
      vertex -109.045 74.7553 0
      vertex -112.5 70 0
      vertex -109.629 74.5241 0
    endloop
  endfacet
  facet normal 0 0 -1
    outer loop
      vertex -112.5 -70 0
      vertex -110.687 -73.8526 0
      vertex -111.145 -73.4227 0
    endloop
  endfacet
  facet normal 0 0 -1
    outer loop
      vertex -109.629 74.5241 0
      vertex -112.5 70 0
      vertex -110.179 74.2216 0
    endloop
  endfacet
  facet normal 0 0 -1
    outer loop
      vertex -112.5 -70 0
      vertex -111.145 -73.4227 0
      vertex -111.545 -72.9389 0
    endloop
  endfacet
  facet normal 0 0 -1
    outer loop
      vertex -110.179 74.2216 0
      vertex -112.5 70 0
      vertex -110.687 73.8526 0
    endloop
  endfacet
  facet normal 0 0 -1
    outer loop
      vertex -112.5 -70 0
      vertex -111.545 -72.9389 0
      vertex -111.882 -72.4088 0
    endloop
  endfacet
  facet normal 0 0 -1
    outer loop
      vertex -110.687 73.8526 0
      vertex -112.5 70 0
      vertex -111.145 73.4227 0
    endloop
  endfacet
  facet normal 0 0 -1
    outer loop
      vertex -112.5 -70 0
      vertex -111.882 -72.4088 0
      vertex -112.149 -71.8406 0
    endloop
  endfacet
  facet normal 0 0 -1
    outer loop
      vertex -111.145 73.4227 0
      vertex -112.5 70 0
      vertex -111.545 72.9389 0
    endloop
  endfacet
  facet normal 0 0 -1
    outer loop
      vertex -112.5 -70 0
      vertex -112.149 -71.8406 0
      vertex -112.343 -71.2434 0
    endloop
  endfacet
  facet normal 0 0 -1
    outer loop
      vertex -111.545 72.9389 0
      vertex -112.5 70 0
      vertex -111.882 72.4088 0
    endloop
  endfacet
  facet normal 0 0 -1
    outer loop
      vertex -112.5 -70 0
      vertex -112.343 -71.2434 0
      vertex -112.461 -70.6267 0
    endloop
  endfacet
  facet normal 0 0 -1
    outer loop
      vertex -111.882 72.4088 0
      vertex -112.5 70 0
      vertex -112.149 71.8406 0
    endloop
  endfacet
  facet normal 0 0 -1
    outer loop
      vertex -112.149 71.8406 0
      vertex -112.5 70 0
      vertex -112.343 71.2434 0
    endloop
  endfacet
  facet normal 0 0 -1
    outer loop
      vertex -112.343 71.2434 0
      vertex -112.5 70 0
      vertex -112.461 70.6267 0
    endloop
  endfacet
  facet normal -0.982182 -0.187932 0
    outer loop
      vertex -112.343 -71.2434 0
      vertex -112.461 -70.6267 12
      vertex -112.461 -70.6267 0
    endloop
  endfacet
  facet normal -0.982182 -0.187932 0
    outer loop
      vertex -112.461 -70.6267 12
      vertex -112.343 -71.2434 0
      vertex -112.343 -71.2434 12
    endloop
  endfacet
  facet normal -0.982182 0.187932 0
    outer loop
      vertex -112.461 70.6267 0
      vertex -112.343 71.2434 12
      vertex -112.343 71.2434 0
    endloop
  endfacet
  facet normal -0.982182 0.187932 0
    outer loop
      vertex -112.343 71.2434 12
      vertex -112.461 70.6267 0
      vertex -112.461 70.6267 12
    endloop
  endfacet
  facet normal 0.125258 -0.992124 0
    outer loop
      vertex -108.25 73.9291 2
      vertex -107.751 73.9921 12
      vertex -108.25 73.9291 12
    endloop
  endfacet
  facet normal 0.125258 -0.992124 0
    outer loop
      vertex -107.751 73.9921 12
      vertex -108.25 73.9291 2
      vertex -107.751 73.9921 2
    endloop
  endfacet
  facet normal 0 -1 0
    outer loop
      vertex -107.751 73.9921 2
      vertex 107.751 73.9921 12
      vertex -107.751 73.9921 12
    endloop
  endfacet
  facet normal 0 -1 -0
    outer loop
      vertex 107.751 73.9921 12
      vertex -107.751 73.9921 2
      vertex 107.751 73.9921 2
    endloop
  endfacet
  facet normal 0.481919 0.876216 -0
    outer loop
      vertex -109.203 -73.6193 2
      vertex -109.643 -73.3773 12
      vertex -109.203 -73.6193 12
    endloop
  endfacet
  facet normal 0.481919 0.876216 0
    outer loop
      vertex -109.643 -73.3773 12
      vertex -109.203 -73.6193 2
      vertex -109.643 -73.3773 2
    endloop
  endfacet
  facet normal 0 1 -0
    outer loop
      vertex 107.751 -73.9921 2
      vertex -107.751 -73.9921 12
      vertex 107.751 -73.9921 12
    endloop
  endfacet
  facet normal 0 1 0
    outer loop
      vertex -107.751 -73.9921 12
      vertex 107.751 -73.9921 2
      vertex -107.751 -73.9921 2
    endloop
  endfacet
  facet normal 0.997969 0.0637044 0
    outer loop
      vertex -111.468 -70.5013 12
      vertex -111.5 -70 2
      vertex -111.5 -70 12
    endloop
  endfacet
  facet normal 0.997969 0.0637044 0
    outer loop
      vertex -111.5 -70 2
      vertex -111.468 -70.5013 12
      vertex -111.468 -70.5013 2
    endloop
  endfacet
  facet normal -1 0 0
    outer loop
      vertex 111.5 -70 2
      vertex 111.5 70 12
      vertex 111.5 70 2
    endloop
  endfacet
  facet normal -1 -0 0
    outer loop
      vertex 111.5 70 12
      vertex 111.5 -70 2
      vertex 111.5 -70 12
    endloop
  endfacet
  facet normal 0.248908 0.968527 -0
    outer loop
      vertex -108.25 -73.9291 2
      vertex -108.736 -73.8042 12
      vertex -108.25 -73.9291 12
    endloop
  endfacet
  facet normal 0.248908 0.968527 0
    outer loop
      vertex -108.736 -73.8042 12
      vertex -108.25 -73.9291 2
      vertex -108.736 -73.8042 2
    endloop
  endfacet
  facet normal 0.125258 0.992124 -0
    outer loop
      vertex -107.751 -73.9921 2
      vertex -108.25 -73.9291 12
      vertex -107.751 -73.9921 12
    endloop
  endfacet
  facet normal 0.125258 0.992124 0
    outer loop
      vertex -108.25 -73.9291 12
      vertex -107.751 -73.9921 2
      vertex -108.25 -73.9291 2
    endloop
  endfacet
  facet normal 1 -0 0
    outer loop
      vertex -111.5 -70 12
      vertex -111.5 70 2
      vertex -111.5 70 12
    endloop
  endfacet
  facet normal 1 0 0
    outer loop
      vertex -111.5 70 2
      vertex -111.5 -70 12
      vertex -111.5 -70 2
    endloop
  endfacet
  facet normal 0.844456 0.535625 0
    outer loop
      vertex -110.736 -72.3511 12
      vertex -111.005 -71.927 2
      vertex -111.005 -71.927 12
    endloop
  endfacet
  facet normal 0.844456 0.535625 0
    outer loop
      vertex -111.005 -71.927 2
      vertex -110.736 -72.3511 12
      vertex -110.736 -72.3511 2
    endloop
  endfacet
  facet normal 0.481919 -0.876216 0
    outer loop
      vertex -109.643 73.3773 2
      vertex -109.203 73.6193 12
      vertex -109.643 73.3773 12
    endloop
  endfacet
  facet normal 0.481919 -0.876216 0
    outer loop
      vertex -109.203 73.6193 12
      vertex -109.643 73.3773 2
      vertex -109.203 73.6193 2
    endloop
  endfacet
  facet normal -0.125258 -0.992124 0
    outer loop
      vertex 107.751 73.9921 2
      vertex 108.25 73.9291 12
      vertex 107.751 73.9921 12
    endloop
  endfacet
  facet normal -0.125258 -0.992124 -0
    outer loop
      vertex 108.25 73.9291 12
      vertex 107.751 73.9921 2
      vertex 108.25 73.9291 2
    endloop
  endfacet
  facet normal -0.951182 0.308631 0
    outer loop
      vertex 111.219 -71.4725 2
      vertex 111.374 -70.9948 12
      vertex 111.374 -70.9948 2
    endloop
  endfacet
  facet normal -0.951182 0.308631 0
    outer loop
      vertex 111.374 -70.9948 12
      vertex 111.219 -71.4725 2
      vertex 111.219 -71.4725 12
    endloop
  endfacet
  facet normal 0.368127 0.929775 -0
    outer loop
      vertex -108.736 -73.8042 2
      vertex -109.203 -73.6193 12
      vertex -108.736 -73.8042 12
    endloop
  endfacet
  facet normal 0.368127 0.929775 0
    outer loop
      vertex -109.203 -73.6193 12
      vertex -108.736 -73.8042 2
      vertex -109.203 -73.6193 2
    endloop
  endfacet
  facet normal 0.951182 -0.308631 0
    outer loop
      vertex -111.374 70.9948 12
      vertex -111.219 71.4725 2
      vertex -111.219 71.4725 12
    endloop
  endfacet
  facet normal 0.951182 -0.308631 0
    outer loop
      vertex -111.219 71.4725 2
      vertex -111.374 70.9948 12
      vertex -111.374 70.9948 2
    endloop
  endfacet
  facet normal 0.684762 -0.728767 0
    outer loop
      vertex -110.416 72.7382 2
      vertex -110.05 73.0821 12
      vertex -110.416 72.7382 12
    endloop
  endfacet
  facet normal 0.684762 -0.728767 0
    outer loop
      vertex -110.05 73.0821 12
      vertex -110.416 72.7382 2
      vertex -110.05 73.0821 2
    endloop
  endfacet
  facet normal -0.368127 -0.929775 0
    outer loop
      vertex 108.736 73.8042 2
      vertex 109.203 73.6193 12
      vertex 108.736 73.8042 12
    endloop
  endfacet
  facet normal -0.368127 -0.929775 -0
    outer loop
      vertex 109.203 73.6193 12
      vertex 108.736 73.8042 2
      vertex 109.203 73.6193 2
    endloop
  endfacet
  facet normal -0.481919 -0.876216 0
    outer loop
      vertex 109.203 73.6193 2
      vertex 109.643 73.3773 12
      vertex 109.203 73.6193 12
    endloop
  endfacet
  facet normal -0.481919 -0.876216 -0
    outer loop
      vertex 109.643 73.3773 12
      vertex 109.203 73.6193 2
      vertex 109.643 73.3773 2
    endloop
  endfacet
  facet normal -0.248908 -0.968527 0
    outer loop
      vertex 108.25 73.9291 2
      vertex 108.736 73.8042 12
      vertex 108.25 73.9291 12
    endloop
  endfacet
  facet normal -0.248908 -0.968527 -0
    outer loop
      vertex 108.736 73.8042 12
      vertex 108.25 73.9291 2
      vertex 108.736 73.8042 2
    endloop
  endfacet
  facet normal -0.844456 -0.535625 0
    outer loop
      vertex 111.005 71.927 2
      vertex 110.736 72.3511 12
      vertex 110.736 72.3511 2
    endloop
  endfacet
  facet normal -0.844456 -0.535625 0
    outer loop
      vertex 110.736 72.3511 12
      vertex 111.005 71.927 2
      vertex 111.005 71.927 12
    endloop
  endfacet
  facet normal -0.904728 -0.425989 0
    outer loop
      vertex 111.219 71.4725 2
      vertex 111.005 71.927 12
      vertex 111.005 71.927 2
    endloop
  endfacet
  facet normal -0.904728 -0.425989 0
    outer loop
      vertex 111.005 71.927 12
      vertex 111.219 71.4725 2
      vertex 111.219 71.4725 12
    endloop
  endfacet
  facet normal -0.770745 0.637144 0
    outer loop
      vertex 110.416 -72.7382 2
      vertex 110.736 -72.3511 12
      vertex 110.736 -72.3511 2
    endloop
  endfacet
  facet normal -0.770745 0.637144 0
    outer loop
      vertex 110.736 -72.3511 12
      vertex 110.416 -72.7382 2
      vertex 110.416 -72.7382 12
    endloop
  endfacet
  facet normal -0.904728 0.425989 0
    outer loop
      vertex 111.005 -71.927 2
      vertex 111.219 -71.4725 12
      vertex 111.219 -71.4725 2
    endloop
  endfacet
  facet normal -0.904728 0.425989 0
    outer loop
      vertex 111.219 -71.4725 12
      vertex 111.005 -71.927 2
      vertex 111.005 -71.927 12
    endloop
  endfacet
  facet normal -0.481919 0.876216 0
    outer loop
      vertex 109.643 -73.3773 2
      vertex 109.203 -73.6193 12
      vertex 109.643 -73.3773 12
    endloop
  endfacet
  facet normal -0.481919 0.876216 0
    outer loop
      vertex 109.203 -73.6193 12
      vertex 109.643 -73.3773 2
      vertex 109.203 -73.6193 2
    endloop
  endfacet
  facet normal 0.951182 0.308631 0
    outer loop
      vertex -111.219 -71.4725 12
      vertex -111.374 -70.9948 2
      vertex -111.374 -70.9948 12
    endloop
  endfacet
  facet normal 0.951182 0.308631 0
    outer loop
      vertex -111.374 -70.9948 2
      vertex -111.219 -71.4725 12
      vertex -111.219 -71.4725 2
    endloop
  endfacet
  facet normal 0.684762 0.728767 -0
    outer loop
      vertex -110.05 -73.0821 2
      vertex -110.416 -72.7382 12
      vertex -110.05 -73.0821 12
    endloop
  endfacet
  facet normal 0.684762 0.728767 0
    outer loop
      vertex -110.416 -72.7382 12
      vertex -110.05 -73.0821 2
      vertex -110.416 -72.7382 2
    endloop
  endfacet
  facet normal 0.770745 -0.637144 0
    outer loop
      vertex -110.736 72.3511 12
      vertex -110.416 72.7382 2
      vertex -110.416 72.7382 12
    endloop
  endfacet
  facet normal 0.770745 -0.637144 0
    outer loop
      vertex -110.416 72.7382 2
      vertex -110.736 72.3511 12
      vertex -110.736 72.3511 2
    endloop
  endfacet
  facet normal 0.248908 -0.968527 0
    outer loop
      vertex -108.736 73.8042 2
      vertex -108.25 73.9291 12
      vertex -108.736 73.8042 12
    endloop
  endfacet
  facet normal 0.248908 -0.968527 0
    outer loop
      vertex -108.25 73.9291 12
      vertex -108.736 73.8042 2
      vertex -108.25 73.9291 2
    endloop
  endfacet
  facet normal -0.125258 0.992124 0
    outer loop
      vertex 108.25 -73.9291 2
      vertex 107.751 -73.9921 12
      vertex 108.25 -73.9291 12
    endloop
  endfacet
  facet normal -0.125258 0.992124 0
    outer loop
      vertex 107.751 -73.9921 12
      vertex 108.25 -73.9291 2
      vertex 107.751 -73.9921 2
    endloop
  endfacet
  facet normal -0.587131 -0.809492 0
    outer loop
      vertex 109.643 73.3773 2
      vertex 110.05 73.0821 12
      vertex 109.643 73.3773 12
    endloop
  endfacet
  facet normal -0.587131 -0.809492 -0
    outer loop
      vertex 110.05 73.0821 12
      vertex 109.643 73.3773 2
      vertex 110.05 73.0821 2
    endloop
  endfacet
  facet normal -0.770745 -0.637144 0
    outer loop
      vertex 110.736 72.3511 2
      vertex 110.416 72.7382 12
      vertex 110.416 72.7382 2
    endloop
  endfacet
  facet normal -0.770745 -0.637144 0
    outer loop
      vertex 110.416 72.7382 12
      vertex 110.736 72.3511 2
      vertex 110.736 72.3511 12
    endloop
  endfacet
  facet normal -0.982339 -0.187112 0
    outer loop
      vertex 111.468 70.5013 2
      vertex 111.374 70.9948 12
      vertex 111.374 70.9948 2
    endloop
  endfacet
  facet normal -0.982339 -0.187112 0
    outer loop
      vertex 111.374 70.9948 12
      vertex 111.468 70.5013 2
      vertex 111.468 70.5013 12
    endloop
  endfacet
  facet normal -0.997969 -0.0637044 0
    outer loop
      vertex 111.5 70 2
      vertex 111.468 70.5013 12
      vertex 111.468 70.5013 2
    endloop
  endfacet
  facet normal -0.997969 -0.0637044 0
    outer loop
      vertex 111.468 70.5013 12
      vertex 111.5 70 2
      vertex 111.5 70 12
    endloop
  endfacet
  facet normal -0.982339 0.187112 0
    outer loop
      vertex 111.374 -70.9948 2
      vertex 111.468 -70.5013 12
      vertex 111.468 -70.5013 2
    endloop
  endfacet
  facet normal -0.982339 0.187112 0
    outer loop
      vertex 111.468 -70.5013 12
      vertex 111.374 -70.9948 2
      vertex 111.374 -70.9948 12
    endloop
  endfacet
  facet normal -0.844456 0.535625 0
    outer loop
      vertex 110.736 -72.3511 2
      vertex 111.005 -71.927 12
      vertex 111.005 -71.927 2
    endloop
  endfacet
  facet normal -0.844456 0.535625 0
    outer loop
      vertex 111.005 -71.927 12
      vertex 110.736 -72.3511 2
      vertex 110.736 -72.3511 12
    endloop
  endfacet
  facet normal -0.368127 0.929775 0
    outer loop
      vertex 109.203 -73.6193 2
      vertex 108.736 -73.8042 12
      vertex 109.203 -73.6193 12
    endloop
  endfacet
  facet normal -0.368127 0.929775 0
    outer loop
      vertex 108.736 -73.8042 12
      vertex 109.203 -73.6193 2
      vertex 108.736 -73.8042 2
    endloop
  endfacet
  facet normal -0.587131 0.809492 0
    outer loop
      vertex 110.05 -73.0821 2
      vertex 109.643 -73.3773 12
      vertex 110.05 -73.0821 12
    endloop
  endfacet
  facet normal -0.587131 0.809492 0
    outer loop
      vertex 109.643 -73.3773 12
      vertex 110.05 -73.0821 2
      vertex 109.643 -73.3773 2
    endloop
  endfacet
  facet normal 0 0 1
    outer loop
      vertex 107.751 73.9921 2
      vertex 111.5 70 2
      vertex 111.468 70.5013 2
    endloop
  endfacet
  facet normal 0 0 1
    outer loop
      vertex 111.5 70 2
      vertex 107.751 73.9921 2
      vertex 111.5 -70 2
    endloop
  endfacet
  facet normal 0 0 1
    outer loop
      vertex 107.751 73.9921 2
      vertex 111.468 70.5013 2
      vertex 111.374 70.9948 2
    endloop
  endfacet
  facet normal 0 0 1
    outer loop
      vertex 107.751 -73.9921 2
      vertex 111.5 -70 2
      vertex 107.751 73.9921 2
    endloop
  endfacet
  facet normal 0 0 1
    outer loop
      vertex 107.751 73.9921 2
      vertex 111.374 70.9948 2
      vertex 111.219 71.4725 2
    endloop
  endfacet
  facet normal 0 0 1
    outer loop
      vertex 111.5 -70 2
      vertex 107.751 -73.9921 2
      vertex 111.468 -70.5013 2
    endloop
  endfacet
  facet normal 0 0 1
    outer loop
      vertex 107.751 73.9921 2
      vertex 111.219 71.4725 2
      vertex 111.005 71.927 2
    endloop
  endfacet
  facet normal 0 0 1
    outer loop
      vertex 111.468 -70.5013 2
      vertex 107.751 -73.9921 2
      vertex 111.374 -70.9948 2
    endloop
  endfacet
  facet normal 0 0 1
    outer loop
      vertex 107.751 73.9921 2
      vertex 111.005 71.927 2
      vertex 110.736 72.3511 2
    endloop
  endfacet
  facet normal 0 0 1
    outer loop
      vertex 111.374 -70.9948 2
      vertex 107.751 -73.9921 2
      vertex 111.219 -71.4725 2
    endloop
  endfacet
  facet normal 0 0 1
    outer loop
      vertex 107.751 73.9921 2
      vertex 110.736 72.3511 2
      vertex 110.416 72.7382 2
    endloop
  endfacet
  facet normal 0 0 1
    outer loop
      vertex 111.219 -71.4725 2
      vertex 107.751 -73.9921 2
      vertex 111.005 -71.927 2
    endloop
  endfacet
  facet normal 0 0 1
    outer loop
      vertex 107.751 73.9921 2
      vertex 110.416 72.7382 2
      vertex 110.05 73.0821 2
    endloop
  endfacet
  facet normal 0 0 1
    outer loop
      vertex 111.005 -71.927 2
      vertex 107.751 -73.9921 2
      vertex 110.736 -72.3511 2
    endloop
  endfacet
  facet normal 0 0 1
    outer loop
      vertex 107.751 73.9921 2
      vertex 110.05 73.0821 2
      vertex 109.643 73.3773 2
    endloop
  endfacet
  facet normal 0 0 1
    outer loop
      vertex 110.736 -72.3511 2
      vertex 107.751 -73.9921 2
      vertex 110.416 -72.7382 2
    endloop
  endfacet
  facet normal 0 0 1
    outer loop
      vertex 107.751 73.9921 2
      vertex 109.643 73.3773 2
      vertex 109.203 73.6193 2
    endloop
  endfacet
  facet normal 0 0 1
    outer loop
      vertex 110.416 -72.7382 2
      vertex 107.751 -73.9921 2
      vertex 110.05 -73.0821 2
    endloop
  endfacet
  facet normal 0 0 1
    outer loop
      vertex 107.751 73.9921 2
      vertex 109.203 73.6193 2
      vertex 108.736 73.8042 2
    endloop
  endfacet
  facet normal 0 0 1
    outer loop
      vertex 110.05 -73.0821 2
      vertex 107.751 -73.9921 2
      vertex 109.643 -73.3773 2
    endloop
  endfacet
  facet normal 0 0 1
    outer loop
      vertex 107.751 73.9921 2
      vertex 108.736 73.8042 2
      vertex 108.25 73.9291 2
    endloop
  endfacet
  facet normal 0 0 1
    outer loop
      vertex 109.643 -73.3773 2
      vertex 107.751 -73.9921 2
      vertex 109.203 -73.6193 2
    endloop
  endfacet
  facet normal 0 0 1
    outer loop
      vertex 109.203 -73.6193 2
      vertex 107.751 -73.9921 2
      vertex 108.736 -73.8042 2
    endloop
  endfacet
  facet normal 0 0 1
    outer loop
      vertex 108.736 -73.8042 2
      vertex 107.751 -73.9921 2
      vertex 108.25 -73.9291 2
    endloop
  endfacet
  facet normal -0 0 1
    outer loop
      vertex -107.751 73.9921 2
      vertex 107.751 -73.9921 2
      vertex 107.751 73.9921 2
    endloop
  endfacet
  facet normal 0 0 1
    outer loop
      vertex -107.751 73.9921 2
      vertex -107.751 -73.9921 2
      vertex 107.751 -73.9921 2
    endloop
  endfacet
  facet normal 0 0 1
    outer loop
      vertex -111.5 70 2
      vertex -107.751 73.9921 2
      vertex -108.25 73.9291 2
    endloop
  endfacet
  facet normal 0 0 1
    outer loop
      vertex -107.751 73.9921 2
      vertex -111.5 70 2
      vertex -107.751 -73.9921 2
    endloop
  endfacet
  facet normal 0 0 1
    outer loop
      vertex -111.5 70 2
      vertex -108.25 73.9291 2
      vertex -108.736 73.8042 2
    endloop
  endfacet
  facet normal -0 0 1
    outer loop
      vertex -111.5 -70 2
      vertex -107.751 -73.9921 2
      vertex -111.5 70 2
    endloop
  endfacet
  facet normal 0 0 1
    outer loop
      vertex -111.5 70 2
      vertex -108.736 73.8042 2
      vertex -109.203 73.6193 2
    endloop
  endfacet
  facet normal 0 0 1
    outer loop
      vertex -107.751 -73.9921 2
      vertex -111.5 -70 2
      vertex -108.25 -73.9291 2
    endloop
  endfacet
  facet normal 0 0 1
    outer loop
      vertex -111.5 70 2
      vertex -109.203 73.6193 2
      vertex -109.643 73.3773 2
    endloop
  endfacet
  facet normal 0 0 1
    outer loop
      vertex -108.25 -73.9291 2
      vertex -111.5 -70 2
      vertex -108.736 -73.8042 2
    endloop
  endfacet
  facet normal 0 0 1
    outer loop
      vertex -111.5 70 2
      vertex -109.643 73.3773 2
      vertex -110.05 73.0821 2
    endloop
  endfacet
  facet normal 0 0 1
    outer loop
      vertex -108.736 -73.8042 2
      vertex -111.5 -70 2
      vertex -109.203 -73.6193 2
    endloop
  endfacet
  facet normal 0 0 1
    outer loop
      vertex -111.5 70 2
      vertex -110.05 73.0821 2
      vertex -110.416 72.7382 2
    endloop
  endfacet
  facet normal 0 0 1
    outer loop
      vertex -109.203 -73.6193 2
      vertex -111.5 -70 2
      vertex -109.643 -73.3773 2
    endloop
  endfacet
  facet normal 0 0 1
    outer loop
      vertex -111.5 70 2
      vertex -110.416 72.7382 2
      vertex -110.736 72.3511 2
    endloop
  endfacet
  facet normal 0 0 1
    outer loop
      vertex -109.643 -73.3773 2
      vertex -111.5 -70 2
      vertex -110.05 -73.0821 2
    endloop
  endfacet
  facet normal 0 0 1
    outer loop
      vertex -111.5 70 2
      vertex -110.736 72.3511 2
      vertex -111.005 71.927 2
    endloop
  endfacet
  facet normal 0 0 1
    outer loop
      vertex -110.05 -73.0821 2
      vertex -111.5 -70 2
      vertex -110.416 -72.7382 2
    endloop
  endfacet
  facet normal 0 0 1
    outer loop
      vertex -111.5 70 2
      vertex -111.005 71.927 2
      vertex -111.219 71.4725 2
    endloop
  endfacet
  facet normal 0 0 1
    outer loop
      vertex -110.416 -72.7382 2
      vertex -111.5 -70 2
      vertex -110.736 -72.3511 2
    endloop
  endfacet
  facet normal 0 0 1
    outer loop
      vertex -111.5 70 2
      vertex -111.219 71.4725 2
      vertex -111.374 70.9948 2
    endloop
  endfacet
  facet normal 0 0 1
    outer loop
      vertex -110.736 -72.3511 2
      vertex -111.5 -70 2
      vertex -111.005 -71.927 2
    endloop
  endfacet
  facet normal 0 0 1
    outer loop
      vertex -111.5 70 2
      vertex -111.374 70.9948 2
      vertex -111.468 70.5013 2
    endloop
  endfacet
  facet normal 0 0 1
    outer loop
      vertex -111.005 -71.927 2
      vertex -111.5 -70 2
      vertex -111.219 -71.4725 2
    endloop
  endfacet
  facet normal 0 0 1
    outer loop
      vertex -111.219 -71.4725 2
      vertex -111.5 -70 2
      vertex -111.374 -70.9948 2
    endloop
  endfacet
  facet normal 0 0 1
    outer loop
      vertex -111.374 -70.9948 2
      vertex -111.5 -70 2
      vertex -111.468 -70.5013 2
    endloop
  endfacet
  facet normal 0.982339 0.187112 0
    outer loop
      vertex -111.374 -70.9948 12
      vertex -111.468 -70.5013 2
      vertex -111.468 -70.5013 12
    endloop
  endfacet
  facet normal 0.982339 0.187112 0
    outer loop
      vertex -111.468 -70.5013 2
      vertex -111.374 -70.9948 12
      vertex -111.374 -70.9948 2
    endloop
  endfacet
  facet normal 0.904728 0.425989 0
    outer loop
      vertex -111.005 -71.927 12
      vertex -111.219 -71.4725 2
      vertex -111.219 -71.4725 12
    endloop
  endfacet
  facet normal 0.904728 0.425989 0
    outer loop
      vertex -111.219 -71.4725 2
      vertex -111.005 -71.927 12
      vertex -111.005 -71.927 2
    endloop
  endfacet
  facet normal 0.770745 0.637144 0
    outer loop
      vertex -110.416 -72.7382 12
      vertex -110.736 -72.3511 2
      vertex -110.736 -72.3511 12
    endloop
  endfacet
  facet normal 0.770745 0.637144 0
    outer loop
      vertex -110.736 -72.3511 2
      vertex -110.416 -72.7382 12
      vertex -110.416 -72.7382 2
    endloop
  endfacet
  facet normal 0.587131 0.809492 -0
    outer loop
      vertex -109.643 -73.3773 2
      vertex -110.05 -73.0821 12
      vertex -109.643 -73.3773 12
    endloop
  endfacet
  facet normal 0.587131 0.809492 0
    outer loop
      vertex -110.05 -73.0821 12
      vertex -109.643 -73.3773 2
      vertex -110.05 -73.0821 2
    endloop
  endfacet
  facet normal 0.844456 -0.535625 0
    outer loop
      vertex -111.005 71.927 12
      vertex -110.736 72.3511 2
      vertex -110.736 72.3511 12
    endloop
  endfacet
  facet normal 0.844456 -0.535625 0
    outer loop
      vertex -110.736 72.3511 2
      vertex -111.005 71.927 12
      vertex -111.005 71.927 2
    endloop
  endfacet
  facet normal 0.904728 -0.425989 0
    outer loop
      vertex -111.219 71.4725 12
      vertex -111.005 71.927 2
      vertex -111.005 71.927 12
    endloop
  endfacet
  facet normal 0.904728 -0.425989 0
    outer loop
      vertex -111.005 71.927 2
      vertex -111.219 71.4725 12
      vertex -111.219 71.4725 2
    endloop
  endfacet
  facet normal 0.997969 -0.0637044 0
    outer loop
      vertex -111.5 70 12
      vertex -111.468 70.5013 2
      vertex -111.468 70.5013 12
    endloop
  endfacet
  facet normal 0.997969 -0.0637044 0
    outer loop
      vertex -111.468 70.5013 2
      vertex -111.5 70 12
      vertex -111.5 70 2
    endloop
  endfacet
  facet normal 0.587131 -0.809492 0
    outer loop
      vertex -110.05 73.0821 2
      vertex -109.643 73.3773 12
      vertex -110.05 73.0821 12
    endloop
  endfacet
  facet normal 0.587131 -0.809492 0
    outer loop
      vertex -109.643 73.3773 12
      vertex -110.05 73.0821 2
      vertex -109.643 73.3773 2
    endloop
  endfacet
  facet normal 0.368127 -0.929775 0
    outer loop
      vertex -109.203 73.6193 2
      vertex -108.736 73.8042 12
      vertex -109.203 73.6193 12
    endloop
  endfacet
  facet normal 0.368127 -0.929775 0
    outer loop
      vertex -108.736 73.8042 12
      vertex -109.203 73.6193 2
      vertex -108.736 73.8042 2
    endloop
  endfacet
  facet normal -0.684762 -0.728767 0
    outer loop
      vertex 110.05 73.0821 2
      vertex 110.416 72.7382 12
      vertex 110.05 73.0821 12
    endloop
  endfacet
  facet normal -0.684762 -0.728767 -0
    outer loop
      vertex 110.416 72.7382 12
      vertex 110.05 73.0821 2
      vertex 110.416 72.7382 2
    endloop
  endfacet
  facet normal -0.951182 -0.308631 0
    outer loop
      vertex 111.374 70.9948 2
      vertex 111.219 71.4725 12
      vertex 111.219 71.4725 2
    endloop
  endfacet
  facet normal -0.951182 -0.308631 0
    outer loop
      vertex 111.219 71.4725 12
      vertex 111.374 70.9948 2
      vertex 111.374 70.9948 12
    endloop
  endfacet
  facet normal -0.997969 0.0637044 0
    outer loop
      vertex 111.468 -70.5013 2
      vertex 111.5 -70 12
      vertex 111.5 -70 2
    endloop
  endfacet
  facet normal -0.997969 0.0637044 0
    outer loop
      vertex 111.5 -70 12
      vertex 111.468 -70.5013 2
      vertex 111.468 -70.5013 12
    endloop
  endfacet
  facet normal -0.248908 0.968527 0
    outer loop
      vertex 108.736 -73.8042 2
      vertex 108.25 -73.9291 12
      vertex 108.736 -73.8042 12
    endloop
  endfacet
  facet normal -0.248908 0.968527 0
    outer loop
      vertex 108.25 -73.9291 12
      vertex 108.736 -73.8042 2
      vertex 108.25 -73.9291 2
    endloop
  endfacet
  facet normal -0.684762 0.728767 0
    outer loop
      vertex 110.416 -72.7382 2
      vertex 110.05 -73.0821 12
      vertex 110.416 -72.7382 12
    endloop
  endfacet
  facet normal -0.684762 0.728767 0
    outer loop
      vertex 110.05 -73.0821 12
      vertex 110.416 -72.7382 2
      vertex 110.05 -73.0821 2
    endloop
  endfacet
  facet normal 0.982339 -0.187112 0
    outer loop
      vertex -111.468 70.5013 12
      vertex -111.374 70.9948 2
      vertex -111.374 70.9948 12
    endloop
  endfacet
  facet normal 0.982339 -0.187112 0
    outer loop
      vertex -111.374 70.9948 2
      vertex -111.468 70.5013 12
      vertex -111.468 70.5013 2
    endloop
  endfacet
endsolid OpenSCAD_Model
