solid OpenSCAD_Model
  facet normal -1 0 0
    outer loop
      vertex -22.5 -17.5 0
      vertex -22.5 17.5 18
      vertex -22.5 17.5 0
    endloop
  endfacet
  facet normal -1 -0 0
    outer loop
      vertex -22.5 17.5 18
      vertex -22.5 -17.5 0
      vertex -22.5 -17.5 18
    endloop
  endfacet
  facet normal -0.99803 -0.0627451 0
    outer loop
      vertex -22.4606 -18.1267 0
      vertex -22.5 -17.5 18
      vertex -22.5 -17.5 0
    endloop
  endfacet
  facet normal -0.99803 -0.0627451 0
    outer loop
      vertex -22.5 -17.5 18
      vertex -22.4606 -18.1267 0
      vertex -22.4606 -18.1267 18
    endloop
  endfacet
  facet normal -0.99803 0.0627451 0
    outer loop
      vertex -22.5 17.5 0
      vertex -22.4606 18.1267 18
      vertex -22.4606 18.1267 0
    endloop
  endfacet
  facet normal -0.99803 0.0627451 0
    outer loop
      vertex -22.4606 18.1267 18
      vertex -22.5 17.5 0
      vertex -22.5 17.5 18
    endloop
  endfacet
  facet normal 0 0 1
    outer loop
      vertex 19.5 17.5 18
      vertex 22.5 17.5 18
      vertex 22.4606 18.1267 18
    endloop
  endfacet
  facet normal 0 0 1
    outer loop
      vertex 22.5 17.5 18
      vertex 19.5 17.5 18
      vertex 22.5 -17.5 18
    endloop
  endfacet
  facet normal 0 0 1
    outer loop
      vertex 19.4842 17.7507 18
      vertex 22.4606 18.1267 18
      vertex 22.3429 18.7435 18
    endloop
  endfacet
  facet normal 0 0 1
    outer loop
      vertex 19.5 -17.5 18
      vertex 22.5 -17.5 18
      vertex 19.5 17.5 18
    endloop
  endfacet
  facet normal 0 0 1
    outer loop
      vertex 19.4372 17.9974 18
      vertex 22.3429 18.7435 18
      vertex 22.1489 19.3406 18
    endloop
  endfacet
  facet normal 0 0 1
    outer loop
      vertex 22.5 -17.5 18
      vertex 19.5 -17.5 18
      vertex 22.4606 -18.1267 18
    endloop
  endfacet
  facet normal 0 0 1
    outer loop
      vertex 19.3596 18.2362 18
      vertex 22.1489 19.3406 18
      vertex 21.8815 19.9088 18
    endloop
  endfacet
  facet normal -0 0 1
    outer loop
      vertex 19.4842 -17.7507 18
      vertex 22.4606 -18.1267 18
      vertex 19.5 -17.5 18
    endloop
  endfacet
  facet normal 0 0 1
    outer loop
      vertex 19.2526 18.4635 18
      vertex 21.8815 19.9088 18
      vertex 21.5451 20.4389 18
    endloop
  endfacet
  facet normal 0 0 1
    outer loop
      vertex 22.4606 -18.1267 18
      vertex 19.4842 -17.7507 18
      vertex 22.3429 -18.7435 18
    endloop
  endfacet
  facet normal 0 0 1
    outer loop
      vertex 19.118 18.6756 18
      vertex 21.5451 20.4389 18
      vertex 21.1448 20.9227 18
    endloop
  endfacet
  facet normal -0 0 1
    outer loop
      vertex 19.4372 -17.9974 18
      vertex 22.3429 -18.7435 18
      vertex 19.4842 -17.7507 18
    endloop
  endfacet
  facet normal 0 0 1
    outer loop
      vertex 18.9579 18.8691 18
      vertex 21.1448 20.9227 18
      vertex 20.6871 21.3526 18
    endloop
  endfacet
  facet normal 0 0 1
    outer loop
      vertex 22.3429 -18.7435 18
      vertex 19.4372 -17.9974 18
      vertex 22.1489 -19.3406 18
    endloop
  endfacet
  facet normal 0 0 1
    outer loop
      vertex 18.7748 19.041 18
      vertex 20.6871 21.3526 18
      vertex 20.1791 21.7216 18
    endloop
  endfacet
  facet normal -0 0 1
    outer loop
      vertex 19.3596 -18.2362 18
      vertex 22.1489 -19.3406 18
      vertex 19.4372 -17.9974 18
    endloop
  endfacet
  facet normal 0 0 1
    outer loop
      vertex 18.5717 19.1887 18
      vertex 20.1791 21.7216 18
      vertex 19.6289 22.0241 18
    endloop
  endfacet
  facet normal 0 0 1
    outer loop
      vertex 22.1489 -19.3406 18
      vertex 19.3596 -18.2362 18
      vertex 21.8815 -19.9088 18
    endloop
  endfacet
  facet normal -0 0 1
    outer loop
      vertex 19.2526 -18.4635 18
      vertex 21.8815 -19.9088 18
      vertex 19.3596 -18.2362 18
    endloop
  endfacet
  facet normal 0 0 1
    outer loop
      vertex 22.4606 18.1267 18
      vertex 19.4842 17.7507 18
      vertex 19.5 17.5 18
    endloop
  endfacet
  facet normal 0 0 1
    outer loop
      vertex 22.3429 18.7435 18
      vertex 19.4372 17.9974 18
      vertex 19.4842 17.7507 18
    endloop
  endfacet
  facet normal 0 0 1
    outer loop
      vertex 22.1489 19.3406 18
      vertex 19.3596 18.2362 18
      vertex 19.4372 17.9974 18
    endloop
  endfacet
  facet normal 0 0 1
    outer loop
      vertex 21.8815 19.9088 18
      vertex 19.2526 18.4635 18
      vertex 19.3596 18.2362 18
    endloop
  endfacet
  facet normal 0 0 1
    outer loop
      vertex 21.5451 20.4389 18
      vertex 19.118 18.6756 18
      vertex 19.2526 18.4635 18
    endloop
  endfacet
  facet normal 0 0 1
    outer loop
      vertex 18.3516 19.3097 18
      vertex 19.6289 22.0241 18
      vertex 19.0451 22.2553 18
    endloop
  endfacet
  facet normal 0 0 1
    outer loop
      vertex 21.1448 20.9227 18
      vertex 18.9579 18.8691 18
      vertex 19.118 18.6756 18
    endloop
  endfacet
  facet normal 0 0 1
    outer loop
      vertex 20.6871 21.3526 18
      vertex 18.7748 19.041 18
      vertex 18.9579 18.8691 18
    endloop
  endfacet
  facet normal 0 0 1
    outer loop
      vertex 20.1791 21.7216 18
      vertex 18.5717 19.1887 18
      vertex 18.7748 19.041 18
    endloop
  endfacet
  facet normal 0 0 1
    outer loop
      vertex 18.118 19.4021 18
      vertex 19.0451 22.2553 18
      vertex 18.4369 22.4114 18
    endloop
  endfacet
  facet normal 0 0 1
    outer loop
      vertex 19.6289 22.0241 18
      vertex 18.3516 19.3097 18
      vertex 18.5717 19.1887 18
    endloop
  endfacet
  facet normal 0 0 1
    outer loop
      vertex 19.0451 22.2553 18
      vertex 18.118 19.4021 18
      vertex 18.3516 19.3097 18
    endloop
  endfacet
  facet normal 0 0 1
    outer loop
      vertex 18.4369 22.4114 18
      vertex 17.8748 19.4646 18
      vertex 18.118 19.4021 18
    endloop
  endfacet
  facet normal 0 0 1
    outer loop
      vertex 17.814 22.4901 18
      vertex 17.8748 19.4646 18
      vertex 18.4369 22.4114 18
    endloop
  endfacet
  facet normal 0 0 1
    outer loop
      vertex 17.814 22.4901 18
      vertex 17.6256 19.4961 18
      vertex 17.8748 19.4646 18
    endloop
  endfacet
  facet normal 0 0 1
    outer loop
      vertex 17.814 22.4901 18
      vertex -17.6256 19.4961 18
      vertex 17.6256 19.4961 18
    endloop
  endfacet
  facet normal -0 0 1
    outer loop
      vertex -17.814 22.4901 18
      vertex -17.6256 19.4961 18
      vertex 17.814 22.4901 18
    endloop
  endfacet
  facet normal 0 0 1
    outer loop
      vertex -17.814 22.4901 18
      vertex -17.8748 19.4646 18
      vertex -17.6256 19.4961 18
    endloop
  endfacet
  facet normal -0 0 1
    outer loop
      vertex -18.4369 22.4114 18
      vertex -17.8748 19.4646 18
      vertex -17.814 22.4901 18
    endloop
  endfacet
  facet normal 0 0 1
    outer loop
      vertex -17.8748 19.4646 18
      vertex -18.4369 22.4114 18
      vertex -18.118 19.4021 18
    endloop
  endfacet
  facet normal -0 0 1
    outer loop
      vertex -19.0451 22.2553 18
      vertex -18.118 19.4021 18
      vertex -18.4369 22.4114 18
    endloop
  endfacet
  facet normal 0 0 1
    outer loop
      vertex -18.118 19.4021 18
      vertex -19.0451 22.2553 18
      vertex -18.3516 19.3097 18
    endloop
  endfacet
  facet normal -0 0 1
    outer loop
      vertex -19.6289 22.0241 18
      vertex -18.3516 19.3097 18
      vertex -19.0451 22.2553 18
    endloop
  endfacet
  facet normal 0 0 1
    outer loop
      vertex -18.3516 19.3097 18
      vertex -19.6289 22.0241 18
      vertex -18.5717 19.1887 18
    endloop
  endfacet
  facet normal -0 0 1
    outer loop
      vertex -20.1791 21.7216 18
      vertex -18.5717 19.1887 18
      vertex -19.6289 22.0241 18
    endloop
  endfacet
  facet normal 0 0 1
    outer loop
      vertex -18.5717 19.1887 18
      vertex -20.1791 21.7216 18
      vertex -18.7748 19.041 18
    endloop
  endfacet
  facet normal -0 0 1
    outer loop
      vertex -20.6871 21.3526 18
      vertex -18.7748 19.041 18
      vertex -20.1791 21.7216 18
    endloop
  endfacet
  facet normal 0 0 1
    outer loop
      vertex -18.7748 19.041 18
      vertex -20.6871 21.3526 18
      vertex -18.9579 18.8691 18
    endloop
  endfacet
  facet normal -0 0 1
    outer loop
      vertex -21.1448 20.9227 18
      vertex -18.9579 18.8691 18
      vertex -20.6871 21.3526 18
    endloop
  endfacet
  facet normal 0 0 1
    outer loop
      vertex -18.9579 18.8691 18
      vertex -21.1448 20.9227 18
      vertex -19.118 18.6756 18
    endloop
  endfacet
  facet normal -0 0 1
    outer loop
      vertex -21.8815 19.9088 18
      vertex -19.2526 18.4635 18
      vertex -21.5451 20.4389 18
    endloop
  endfacet
  facet normal 0 0 1
    outer loop
      vertex -19.118 18.6756 18
      vertex -21.5451 20.4389 18
      vertex -19.2526 18.4635 18
    endloop
  endfacet
  facet normal -0 0 1
    outer loop
      vertex -21.5451 20.4389 18
      vertex -19.118 18.6756 18
      vertex -21.1448 20.9227 18
    endloop
  endfacet
  facet normal 0 0 1
    outer loop
      vertex 21.8815 -19.9088 18
      vertex 19.2526 -18.4635 18
      vertex 21.5451 -20.4389 18
    endloop
  endfacet
  facet normal -0 0 1
    outer loop
      vertex 19.118 -18.6756 18
      vertex 21.5451 -20.4389 18
      vertex 19.2526 -18.4635 18
    endloop
  endfacet
  facet normal 0 0 1
    outer loop
      vertex 21.5451 -20.4389 18
      vertex 19.118 -18.6756 18
      vertex 21.1448 -20.9227 18
    endloop
  endfacet
  facet normal -0 0 1
    outer loop
      vertex 18.9579 -18.8691 18
      vertex 21.1448 -20.9227 18
      vertex 19.118 -18.6756 18
    endloop
  endfacet
  facet normal 0 0 1
    outer loop
      vertex 21.1448 -20.9227 18
      vertex 18.9579 -18.8691 18
      vertex 20.6871 -21.3526 18
    endloop
  endfacet
  facet normal -0 0 1
    outer loop
      vertex 18.7748 -19.041 18
      vertex 20.6871 -21.3526 18
      vertex 18.9579 -18.8691 18
    endloop
  endfacet
  facet normal 0 0 1
    outer loop
      vertex 20.6871 -21.3526 18
      vertex 18.7748 -19.041 18
      vertex 20.1791 -21.7216 18
    endloop
  endfacet
  facet normal -0 0 1
    outer loop
      vertex 18.5717 -19.1887 18
      vertex 20.1791 -21.7216 18
      vertex 18.7748 -19.041 18
    endloop
  endfacet
  facet normal 0 0 1
    outer loop
      vertex 20.1791 -21.7216 18
      vertex 18.5717 -19.1887 18
      vertex 19.6289 -22.0241 18
    endloop
  endfacet
  facet normal -0 0 1
    outer loop
      vertex 18.3516 -19.3097 18
      vertex 19.6289 -22.0241 18
      vertex 18.5717 -19.1887 18
    endloop
  endfacet
  facet normal 0 0 1
    outer loop
      vertex 19.6289 -22.0241 18
      vertex 18.3516 -19.3097 18
      vertex 19.0451 -22.2553 18
    endloop
  endfacet
  facet normal -0 0 1
    outer loop
      vertex 18.118 -19.4021 18
      vertex 19.0451 -22.2553 18
      vertex 18.3516 -19.3097 18
    endloop
  endfacet
  facet normal 0 0 1
    outer loop
      vertex 19.0451 -22.2553 18
      vertex 18.118 -19.4021 18
      vertex 18.4369 -22.4114 18
    endloop
  endfacet
  facet normal -0 0 1
    outer loop
      vertex 17.8748 -19.4646 18
      vertex 18.4369 -22.4114 18
      vertex 18.118 -19.4021 18
    endloop
  endfacet
  facet normal 0 0 1
    outer loop
      vertex 17.8748 -19.4646 18
      vertex 17.814 -22.4901 18
      vertex 18.4369 -22.4114 18
    endloop
  endfacet
  facet normal -0 0 1
    outer loop
      vertex 17.6256 -19.4961 18
      vertex 17.814 -22.4901 18
      vertex 17.8748 -19.4646 18
    endloop
  endfacet
  facet normal -0 0 1
    outer loop
      vertex -17.6256 -19.4961 18
      vertex 17.814 -22.4901 18
      vertex 17.6256 -19.4961 18
    endloop
  endfacet
  facet normal 0 0 1
    outer loop
      vertex -17.6256 -19.4961 18
      vertex -17.814 -22.4901 18
      vertex 17.814 -22.4901 18
    endloop
  endfacet
  facet normal 0 0 1
    outer loop
      vertex -17.8748 -19.4646 18
      vertex -17.814 -22.4901 18
      vertex -17.6256 -19.4961 18
    endloop
  endfacet
  facet normal 0 0 1
    outer loop
      vertex -18.4369 -22.4114 18
      vertex -17.8748 -19.4646 18
      vertex -18.118 -19.4021 18
    endloop
  endfacet
  facet normal 0 0 1
    outer loop
      vertex -19.0451 -22.2553 18
      vertex -18.118 -19.4021 18
      vertex -18.3516 -19.3097 18
    endloop
  endfacet
  facet normal 0 0 1
    outer loop
      vertex -17.8748 -19.4646 18
      vertex -18.4369 -22.4114 18
      vertex -17.814 -22.4901 18
    endloop
  endfacet
  facet normal 0 0 1
    outer loop
      vertex -19.6289 -22.0241 18
      vertex -18.3516 -19.3097 18
      vertex -18.5717 -19.1887 18
    endloop
  endfacet
  facet normal 0 0 1
    outer loop
      vertex -20.1791 -21.7216 18
      vertex -18.5717 -19.1887 18
      vertex -18.7748 -19.041 18
    endloop
  endfacet
  facet normal 0 0 1
    outer loop
      vertex -20.6871 -21.3526 18
      vertex -18.7748 -19.041 18
      vertex -18.9579 -18.8691 18
    endloop
  endfacet
  facet normal 0 0 1
    outer loop
      vertex -18.118 -19.4021 18
      vertex -19.0451 -22.2553 18
      vertex -18.4369 -22.4114 18
    endloop
  endfacet
  facet normal 0 0 1
    outer loop
      vertex -21.1448 -20.9227 18
      vertex -18.9579 -18.8691 18
      vertex -19.118 -18.6756 18
    endloop
  endfacet
  facet normal 0 0 1
    outer loop
      vertex -21.5451 -20.4389 18
      vertex -19.118 -18.6756 18
      vertex -19.2526 -18.4635 18
    endloop
  endfacet
  facet normal 0 0 1
    outer loop
      vertex -21.8815 -19.9088 18
      vertex -19.2526 -18.4635 18
      vertex -19.3596 -18.2362 18
    endloop
  endfacet
  facet normal 0 0 1
    outer loop
      vertex -22.1489 -19.3406 18
      vertex -19.3596 -18.2362 18
      vertex -19.4372 -17.9974 18
    endloop
  endfacet
  facet normal 0 0 1
    outer loop
      vertex -22.3429 -18.7435 18
      vertex -19.4372 -17.9974 18
      vertex -19.4842 -17.7507 18
    endloop
  endfacet
  facet normal 0 0 1
    outer loop
      vertex -18.3516 -19.3097 18
      vertex -19.6289 -22.0241 18
      vertex -19.0451 -22.2553 18
    endloop
  endfacet
  facet normal 0 0 1
    outer loop
      vertex -22.4606 -18.1267 18
      vertex -19.4842 -17.7507 18
      vertex -19.5 -17.5 18
    endloop
  endfacet
  facet normal 0 0 1
    outer loop
      vertex -19.5 17.5 18
      vertex -22.5 17.5 18
      vertex -19.5 -17.5 18
    endloop
  endfacet
  facet normal 0 0 1
    outer loop
      vertex -19.2526 18.4635 18
      vertex -21.8815 19.9088 18
      vertex -19.3596 18.2362 18
    endloop
  endfacet
  facet normal 0 0 1
    outer loop
      vertex -22.5 -17.5 18
      vertex -19.5 -17.5 18
      vertex -22.5 17.5 18
    endloop
  endfacet
  facet normal -0 0 1
    outer loop
      vertex -22.1489 19.3406 18
      vertex -19.3596 18.2362 18
      vertex -21.8815 19.9088 18
    endloop
  endfacet
  facet normal 0 -0 1
    outer loop
      vertex -22.4606 -18.1267 18
      vertex -19.5 -17.5 18
      vertex -22.5 -17.5 18
    endloop
  endfacet
  facet normal 0 0 1
    outer loop
      vertex -19.3596 18.2362 18
      vertex -22.1489 19.3406 18
      vertex -19.4372 17.9974 18
    endloop
  endfacet
  facet normal 0 0 1
    outer loop
      vertex -18.5717 -19.1887 18
      vertex -20.1791 -21.7216 18
      vertex -19.6289 -22.0241 18
    endloop
  endfacet
  facet normal -0 0 1
    outer loop
      vertex -22.3429 18.7435 18
      vertex -19.4372 17.9974 18
      vertex -22.1489 19.3406 18
    endloop
  endfacet
  facet normal 0 0 1
    outer loop
      vertex -18.7748 -19.041 18
      vertex -20.6871 -21.3526 18
      vertex -20.1791 -21.7216 18
    endloop
  endfacet
  facet normal 0 0 1
    outer loop
      vertex -19.4372 17.9974 18
      vertex -22.3429 18.7435 18
      vertex -19.4842 17.7507 18
    endloop
  endfacet
  facet normal 0 0 1
    outer loop
      vertex -18.9579 -18.8691 18
      vertex -21.1448 -20.9227 18
      vertex -20.6871 -21.3526 18
    endloop
  endfacet
  facet normal -0 0 1
    outer loop
      vertex -22.4606 18.1267 18
      vertex -19.4842 17.7507 18
      vertex -22.3429 18.7435 18
    endloop
  endfacet
  facet normal 0 0 1
    outer loop
      vertex -19.118 -18.6756 18
      vertex -21.5451 -20.4389 18
      vertex -21.1448 -20.9227 18
    endloop
  endfacet
  facet normal 0 0 1
    outer loop
      vertex -19.4842 17.7507 18
      vertex -22.4606 18.1267 18
      vertex -19.5 17.5 18
    endloop
  endfacet
  facet normal 0 0 1
    outer loop
      vertex -19.2526 -18.4635 18
      vertex -21.8815 -19.9088 18
      vertex -21.5451 -20.4389 18
    endloop
  endfacet
  facet normal 0 0 1
    outer loop
      vertex -19.5 17.5 18
      vertex -22.4606 18.1267 18
      vertex -22.5 17.5 18
    endloop
  endfacet
  facet normal 0 0 1
    outer loop
      vertex -19.3596 -18.2362 18
      vertex -22.1489 -19.3406 18
      vertex -21.8815 -19.9088 18
    endloop
  endfacet
  facet normal 0 0 1
    outer loop
      vertex -19.4372 -17.9974 18
      vertex -22.3429 -18.7435 18
      vertex -22.1489 -19.3406 18
    endloop
  endfacet
  facet normal 0 0 1
    outer loop
      vertex -19.4842 -17.7507 18
      vertex -22.4606 -18.1267 18
      vertex -22.3429 -18.7435 18
    endloop
  endfacet
  facet normal 0 1 -0
    outer loop
      vertex 17.814 22.4901 0
      vertex -17.814 22.4901 18
      vertex 17.814 22.4901 18
    endloop
  endfacet
  facet normal 0 1 0
    outer loop
      vertex -17.814 22.4901 18
      vertex 17.814 22.4901 0
      vertex -17.814 22.4901 0
    endloop
  endfacet
  facet normal -0.368203 0.929745 0
    outer loop
      vertex -19.0451 22.2553 0
      vertex -19.6289 22.0241 18
      vertex -19.0451 22.2553 18
    endloop
  endfacet
  facet normal -0.368203 0.929745 0
    outer loop
      vertex -19.6289 22.0241 18
      vertex -19.0451 22.2553 0
      vertex -19.6289 22.0241 0
    endloop
  endfacet
  facet normal 0 -1 0
    outer loop
      vertex -17.814 -22.4901 0
      vertex 17.814 -22.4901 18
      vertex -17.814 -22.4901 18
    endloop
  endfacet
  facet normal 0 -1 -0
    outer loop
      vertex 17.814 -22.4901 18
      vertex -17.814 -22.4901 0
      vertex 17.814 -22.4901 0
    endloop
  endfacet
  facet normal 1 -0 0
    outer loop
      vertex 22.5 -17.5 18
      vertex 22.5 17.5 0
      vertex 22.5 17.5 18
    endloop
  endfacet
  facet normal 1 0 0
    outer loop
      vertex 22.5 17.5 0
      vertex 22.5 -17.5 18
      vertex 22.5 -17.5 0
    endloop
  endfacet
  facet normal -0.951061 0.309003 0
    outer loop
      vertex -22.3429 18.7435 0
      vertex -22.1489 19.3406 18
      vertex -22.1489 19.3406 0
    endloop
  endfacet
  facet normal -0.951061 0.309003 0
    outer loop
      vertex -22.1489 19.3406 18
      vertex -22.3429 18.7435 0
      vertex -22.3429 18.7435 18
    endloop
  endfacet
  facet normal -0.684624 0.728896 0
    outer loop
      vertex -20.6871 21.3526 0
      vertex -21.1448 20.9227 18
      vertex -20.6871 21.3526 18
    endloop
  endfacet
  facet normal -0.684624 0.728896 0
    outer loop
      vertex -21.1448 20.9227 18
      vertex -20.6871 21.3526 0
      vertex -21.1448 20.9227 0
    endloop
  endfacet
  facet normal 0.99803 0.0627451 0
    outer loop
      vertex 22.5 17.5 18
      vertex 22.4606 18.1267 0
      vertex 22.4606 18.1267 18
    endloop
  endfacet
  facet normal 0.99803 0.0627451 0
    outer loop
      vertex 22.4606 18.1267 0
      vertex 22.5 17.5 18
      vertex 22.5 17.5 0
    endloop
  endfacet
  facet normal 0.770462 -0.637486 0
    outer loop
      vertex 21.1448 -20.9227 18
      vertex 21.5451 -20.4389 0
      vertex 21.5451 -20.4389 18
    endloop
  endfacet
  facet normal 0.770462 -0.637486 0
    outer loop
      vertex 21.5451 -20.4389 0
      vertex 21.1448 -20.9227 18
      vertex 21.1448 -20.9227 0
    endloop
  endfacet
  facet normal -0.982276 0.187441 0
    outer loop
      vertex -22.4606 18.1267 0
      vertex -22.3429 18.7435 18
      vertex -22.3429 18.7435 0
    endloop
  endfacet
  facet normal -0.982276 0.187441 0
    outer loop
      vertex -22.3429 18.7435 18
      vertex -22.4606 18.1267 0
      vertex -22.4606 18.1267 18
    endloop
  endfacet
  facet normal -0.587698 0.80908 0
    outer loop
      vertex -20.1791 21.7216 0
      vertex -20.6871 21.3526 18
      vertex -20.1791 21.7216 18
    endloop
  endfacet
  facet normal -0.587698 0.80908 0
    outer loop
      vertex -20.6871 21.3526 18
      vertex -20.1791 21.7216 0
      vertex -20.6871 21.3526 0
    endloop
  endfacet
  facet normal 0.770462 0.637486 0
    outer loop
      vertex 21.5451 20.4389 18
      vertex 21.1448 20.9227 0
      vertex 21.1448 20.9227 18
    endloop
  endfacet
  facet normal 0.770462 0.637486 0
    outer loop
      vertex 21.1448 20.9227 0
      vertex 21.5451 20.4389 18
      vertex 21.5451 20.4389 0
    endloop
  endfacet
  facet normal -0.481784 0.87629 0
    outer loop
      vertex -19.6289 22.0241 0
      vertex -20.1791 21.7216 18
      vertex -19.6289 22.0241 18
    endloop
  endfacet
  facet normal -0.481784 0.87629 0
    outer loop
      vertex -20.1791 21.7216 18
      vertex -19.6289 22.0241 0
      vertex -20.1791 21.7216 0
    endloop
  endfacet
  facet normal -0.368203 -0.929745 0
    outer loop
      vertex -19.6289 -22.0241 0
      vertex -19.0451 -22.2553 18
      vertex -19.6289 -22.0241 18
    endloop
  endfacet
  facet normal -0.368203 -0.929745 -0
    outer loop
      vertex -19.0451 -22.2553 18
      vertex -19.6289 -22.0241 0
      vertex -19.0451 -22.2553 0
    endloop
  endfacet
  facet normal -0.684624 -0.728896 0
    outer loop
      vertex -21.1448 -20.9227 0
      vertex -20.6871 -21.3526 18
      vertex -21.1448 -20.9227 18
    endloop
  endfacet
  facet normal -0.684624 -0.728896 -0
    outer loop
      vertex -20.6871 -21.3526 18
      vertex -21.1448 -20.9227 0
      vertex -20.6871 -21.3526 0
    endloop
  endfacet
  facet normal 0.951061 -0.309003 0
    outer loop
      vertex 22.1489 -19.3406 18
      vertex 22.3429 -18.7435 0
      vertex 22.3429 -18.7435 18
    endloop
  endfacet
  facet normal 0.951061 -0.309003 0
    outer loop
      vertex 22.3429 -18.7435 0
      vertex 22.1489 -19.3406 18
      vertex 22.1489 -19.3406 0
    endloop
  endfacet
  facet normal -0.770462 0.637486 0
    outer loop
      vertex -21.5451 20.4389 0
      vertex -21.1448 20.9227 18
      vertex -21.1448 20.9227 0
    endloop
  endfacet
  facet normal -0.770462 0.637486 0
    outer loop
      vertex -21.1448 20.9227 18
      vertex -21.5451 20.4389 0
      vertex -21.5451 20.4389 18
    endloop
  endfacet
  facet normal -0.904811 0.425812 0
    outer loop
      vertex -22.1489 19.3406 0
      vertex -21.8815 19.9088 18
      vertex -21.8815 19.9088 0
    endloop
  endfacet
  facet normal -0.904811 0.425812 0
    outer loop
      vertex -21.8815 19.9088 18
      vertex -22.1489 19.3406 0
      vertex -22.1489 19.3406 18
    endloop
  endfacet
  facet normal 0.951061 0.309003 0
    outer loop
      vertex 22.3429 18.7435 18
      vertex 22.1489 19.3406 0
      vertex 22.1489 19.3406 18
    endloop
  endfacet
  facet normal 0.951061 0.309003 0
    outer loop
      vertex 22.1489 19.3406 0
      vertex 22.3429 18.7435 18
      vertex 22.3429 18.7435 0
    endloop
  endfacet
  facet normal 0.481784 0.87629 -0
    outer loop
      vertex 20.1791 21.7216 0
      vertex 19.6289 22.0241 18
      vertex 20.1791 21.7216 18
    endloop
  endfacet
  facet normal 0.481784 0.87629 0
    outer loop
      vertex 19.6289 22.0241 18
      vertex 20.1791 21.7216 0
      vertex 19.6289 22.0241 0
    endloop
  endfacet
  facet normal 0.368203 0.929745 -0
    outer loop
      vertex 19.6289 22.0241 0
      vertex 19.0451 22.2553 18
      vertex 19.6289 22.0241 18
    endloop
  endfacet
  facet normal 0.368203 0.929745 0
    outer loop
      vertex 19.0451 22.2553 18
      vertex 19.6289 22.0241 0
      vertex 19.0451 22.2553 0
    endloop
  endfacet
  facet normal 0.684624 0.728896 -0
    outer loop
      vertex 21.1448 20.9227 0
      vertex 20.6871 21.3526 18
      vertex 21.1448 20.9227 18
    endloop
  endfacet
  facet normal 0.684624 0.728896 0
    outer loop
      vertex 20.6871 21.3526 18
      vertex 21.1448 20.9227 0
      vertex 20.6871 21.3526 0
    endloop
  endfacet
  facet normal -0.248601 0.968606 0
    outer loop
      vertex -18.4369 22.4114 0
      vertex -19.0451 22.2553 18
      vertex -18.4369 22.4114 18
    endloop
  endfacet
  facet normal -0.248601 0.968606 0
    outer loop
      vertex -19.0451 22.2553 18
      vertex -18.4369 22.4114 0
      vertex -19.0451 22.2553 0
    endloop
  endfacet
  facet normal -0.125348 0.992113 0
    outer loop
      vertex -17.814 22.4901 0
      vertex -18.4369 22.4114 18
      vertex -17.814 22.4901 18
    endloop
  endfacet
  facet normal -0.125348 0.992113 0
    outer loop
      vertex -18.4369 22.4114 18
      vertex -17.814 22.4901 0
      vertex -18.4369 22.4114 0
    endloop
  endfacet
  facet normal 0 0 -1
    outer loop
      vertex 17.814 -22.4901 0
      vertex 22.5 -17.5 0
      vertex 22.4606 -18.1267 0
    endloop
  endfacet
  facet normal 0 0 -1
    outer loop
      vertex -22.5 -17.5 0
      vertex 22.5 -17.5 0
      vertex 17.814 -22.4901 0
    endloop
  endfacet
  facet normal 0 0 -1
    outer loop
      vertex 17.814 -22.4901 0
      vertex 22.4606 -18.1267 0
      vertex 22.3429 -18.7435 0
    endloop
  endfacet
  facet normal 0 0 -1
    outer loop
      vertex 22.5 -17.5 0
      vertex -22.5 -17.5 0
      vertex 22.5 17.5 0
    endloop
  endfacet
  facet normal 0 0 -1
    outer loop
      vertex 17.814 -22.4901 0
      vertex 22.3429 -18.7435 0
      vertex 22.1489 -19.3406 0
    endloop
  endfacet
  facet normal 0 0 -1
    outer loop
      vertex 22.5 17.5 0
      vertex 17.814 22.4901 0
      vertex 22.4606 18.1267 0
    endloop
  endfacet
  facet normal 0 0 -1
    outer loop
      vertex 17.814 -22.4901 0
      vertex 22.1489 -19.3406 0
      vertex 21.8815 -19.9088 0
    endloop
  endfacet
  facet normal 0 0 -1
    outer loop
      vertex 22.4606 18.1267 0
      vertex 17.814 22.4901 0
      vertex 22.3429 18.7435 0
    endloop
  endfacet
  facet normal 0 0 -1
    outer loop
      vertex 17.814 -22.4901 0
      vertex 21.8815 -19.9088 0
      vertex 21.5451 -20.4389 0
    endloop
  endfacet
  facet normal 0 0 -1
    outer loop
      vertex 22.3429 18.7435 0
      vertex 17.814 22.4901 0
      vertex 22.1489 19.3406 0
    endloop
  endfacet
  facet normal 0 0 -1
    outer loop
      vertex 17.814 -22.4901 0
      vertex 21.5451 -20.4389 0
      vertex 21.1448 -20.9227 0
    endloop
  endfacet
  facet normal 0 0 -1
    outer loop
      vertex 22.1489 19.3406 0
      vertex 17.814 22.4901 0
      vertex 21.8815 19.9088 0
    endloop
  endfacet
  facet normal 0 0 -1
    outer loop
      vertex 17.814 -22.4901 0
      vertex 21.1448 -20.9227 0
      vertex 20.6871 -21.3526 0
    endloop
  endfacet
  facet normal 0 0 -1
    outer loop
      vertex 21.8815 19.9088 0
      vertex 17.814 22.4901 0
      vertex 21.5451 20.4389 0
    endloop
  endfacet
  facet normal 0 0 -1
    outer loop
      vertex 17.814 -22.4901 0
      vertex 20.6871 -21.3526 0
      vertex 20.1791 -21.7216 0
    endloop
  endfacet
  facet normal 0 0 -1
    outer loop
      vertex 21.5451 20.4389 0
      vertex 17.814 22.4901 0
      vertex 21.1448 20.9227 0
    endloop
  endfacet
  facet normal 0 0 -1
    outer loop
      vertex 17.814 -22.4901 0
      vertex 20.1791 -21.7216 0
      vertex 19.6289 -22.0241 0
    endloop
  endfacet
  facet normal 0 0 -1
    outer loop
      vertex 21.1448 20.9227 0
      vertex 17.814 22.4901 0
      vertex 20.6871 21.3526 0
    endloop
  endfacet
  facet normal 0 0 -1
    outer loop
      vertex 17.814 -22.4901 0
      vertex 19.6289 -22.0241 0
      vertex 19.0451 -22.2553 0
    endloop
  endfacet
  facet normal 0 0 -1
    outer loop
      vertex 20.6871 21.3526 0
      vertex 17.814 22.4901 0
      vertex 20.1791 21.7216 0
    endloop
  endfacet
  facet normal 0 0 -1
    outer loop
      vertex 17.814 -22.4901 0
      vertex 19.0451 -22.2553 0
      vertex 18.4369 -22.4114 0
    endloop
  endfacet
  facet normal 0 0 -1
    outer loop
      vertex 20.1791 21.7216 0
      vertex 17.814 22.4901 0
      vertex 19.6289 22.0241 0
    endloop
  endfacet
  facet normal 0 0 -1
    outer loop
      vertex 19.6289 22.0241 0
      vertex 17.814 22.4901 0
      vertex 19.0451 22.2553 0
    endloop
  endfacet
  facet normal 0 0 -1
    outer loop
      vertex 19.0451 22.2553 0
      vertex 17.814 22.4901 0
      vertex 18.4369 22.4114 0
    endloop
  endfacet
  facet normal 0 0 -1
    outer loop
      vertex -22.5 -17.5 0
      vertex 17.814 -22.4901 0
      vertex -17.814 -22.4901 0
    endloop
  endfacet
  facet normal 0 0 -1
    outer loop
      vertex -22.5 17.5 0
      vertex 22.5 17.5 0
      vertex -22.5 -17.5 0
    endloop
  endfacet
  facet normal 0 0 -1
    outer loop
      vertex -22.5 -17.5 0
      vertex -17.814 -22.4901 0
      vertex -18.4369 -22.4114 0
    endloop
  endfacet
  facet normal 0 0 -1
    outer loop
      vertex 22.5 17.5 0
      vertex -22.5 17.5 0
      vertex 17.814 22.4901 0
    endloop
  endfacet
  facet normal 0 0 -1
    outer loop
      vertex -22.5 -17.5 0
      vertex -18.4369 -22.4114 0
      vertex -19.0451 -22.2553 0
    endloop
  endfacet
  facet normal -0 0 -1
    outer loop
      vertex 17.814 22.4901 0
      vertex -22.5 17.5 0
      vertex -17.814 22.4901 0
    endloop
  endfacet
  facet normal 0 0 -1
    outer loop
      vertex -22.5 -17.5 0
      vertex -19.0451 -22.2553 0
      vertex -19.6289 -22.0241 0
    endloop
  endfacet
  facet normal 0 0 -1
    outer loop
      vertex -17.814 22.4901 0
      vertex -22.5 17.5 0
      vertex -18.4369 22.4114 0
    endloop
  endfacet
  facet normal 0 0 -1
    outer loop
      vertex -22.5 -17.5 0
      vertex -19.6289 -22.0241 0
      vertex -20.1791 -21.7216 0
    endloop
  endfacet
  facet normal 0 0 -1
    outer loop
      vertex -18.4369 22.4114 0
      vertex -22.5 17.5 0
      vertex -19.0451 22.2553 0
    endloop
  endfacet
  facet normal 0 0 -1
    outer loop
      vertex -22.5 -17.5 0
      vertex -20.1791 -21.7216 0
      vertex -20.6871 -21.3526 0
    endloop
  endfacet
  facet normal 0 0 -1
    outer loop
      vertex -19.0451 22.2553 0
      vertex -22.5 17.5 0
      vertex -19.6289 22.0241 0
    endloop
  endfacet
  facet normal 0 0 -1
    outer loop
      vertex -22.5 -17.5 0
      vertex -20.6871 -21.3526 0
      vertex -21.1448 -20.9227 0
    endloop
  endfacet
  facet normal 0 0 -1
    outer loop
      vertex -19.6289 22.0241 0
      vertex -22.5 17.5 0
      vertex -20.1791 21.7216 0
    endloop
  endfacet
  facet normal 0 0 -1
    outer loop
      vertex -22.5 -17.5 0
      vertex -21.1448 -20.9227 0
      vertex -21.5451 -20.4389 0
    endloop
  endfacet
  facet normal 0 0 -1
    outer loop
      vertex -20.1791 21.7216 0
      vertex -22.5 17.5 0
      vertex -20.6871 21.3526 0
    endloop
  endfacet
  facet normal 0 0 -1
    outer loop
      vertex -22.5 -17.5 0
      vertex -21.5451 -20.4389 0
      vertex -21.8815 -19.9088 0
    endloop
  endfacet
  facet normal 0 0 -1
    outer loop
      vertex -20.6871 21.3526 0
      vertex -22.5 17.5 0
      vertex -21.1448 20.9227 0
    endloop
  endfacet
  facet normal 0 0 -1
    outer loop
      vertex -22.5 -17.5 0
      vertex -21.8815 -19.9088 0
      vertex -22.1489 -19.3406 0
    endloop
  endfacet
  facet normal 0 0 -1
    outer loop
      vertex -21.1448 20.9227 0
      vertex -22.5 17.5 0
      vertex -21.5451 20.4389 0
    endloop
  endfacet
  facet normal 0 0 -1
    outer loop
      vertex -22.5 -17.5 0
      vertex -22.1489 -19.3406 0
      vertex -22.3429 -18.7435 0
    endloop
  endfacet
  facet normal 0 0 -1
    outer loop
      vertex -21.5451 20.4389 0
      vertex -22.5 17.5 0
      vertex -21.8815 19.9088 0
    endloop
  endfacet
  facet normal 0 0 -1
    outer loop
      vertex -22.5 -17.5 0
      vertex -22.3429 -18.7435 0
      vertex -22.4606 -18.1267 0
    endloop
  endfacet
  facet normal 0 0 -1
    outer loop
      vertex -21.8815 19.9088 0
      vertex -22.5 17.5 0
      vertex -22.1489 19.3406 0
    endloop
  endfacet
  facet normal 0 0 -1
    outer loop
      vertex -22.1489 19.3406 0
      vertex -22.5 17.5 0
      vertex -22.3429 18.7435 0
    endloop
  endfacet
  facet normal 0 0 -1
    outer loop
      vertex -22.3429 18.7435 0
      vertex -22.5 17.5 0
      vertex -22.4606 18.1267 0
    endloop
  endfacet
  facet normal -0.951061 -0.309003 0
    outer loop
      vertex -22.1489 -19.3406 0
      vertex -22.3429 -18.7435 18
      vertex -22.3429 -18.7435 0
    endloop
  endfacet
  facet normal -0.951061 -0.309003 0
    outer loop
      vertex -22.3429 -18.7435 18
      vertex -22.1489 -19.3406 0
      vertex -22.1489 -19.3406 18
    endloop
  endfacet
  facet normal -0.770462 -0.637486 0
    outer loop
      vertex -21.1448 -20.9227 0
      vertex -21.5451 -20.4389 18
      vertex -21.5451 -20.4389 0
    endloop
  endfacet
  facet normal -0.770462 -0.637486 0
    outer loop
      vertex -21.5451 -20.4389 18
      vertex -21.1448 -20.9227 0
      vertex -21.1448 -20.9227 18
    endloop
  endfacet
  facet normal -0.904811 -0.425812 0
    outer loop
      vertex -21.8815 -19.9088 0
      vertex -22.1489 -19.3406 18
      vertex -22.1489 -19.3406 0
    endloop
  endfacet
  facet normal -0.904811 -0.425812 0
    outer loop
      vertex -22.1489 -19.3406 18
      vertex -21.8815 -19.9088 0
      vertex -21.8815 -19.9088 18
    endloop
  endfacet
  facet normal -0.248601 -0.968606 0
    outer loop
      vertex -19.0451 -22.2553 0
      vertex -18.4369 -22.4114 18
      vertex -19.0451 -22.2553 18
    endloop
  endfacet
  facet normal -0.248601 -0.968606 -0
    outer loop
      vertex -18.4369 -22.4114 18
      vertex -19.0451 -22.2553 0
      vertex -18.4369 -22.4114 0
    endloop
  endfacet
  facet normal -0.587698 -0.80908 0
    outer loop
      vertex -20.6871 -21.3526 0
      vertex -20.1791 -21.7216 18
      vertex -20.6871 -21.3526 18
    endloop
  endfacet
  facet normal -0.587698 -0.80908 -0
    outer loop
      vertex -20.1791 -21.7216 18
      vertex -20.6871 -21.3526 0
      vertex -20.1791 -21.7216 0
    endloop
  endfacet
  facet normal 0.587698 -0.80908 0
    outer loop
      vertex 20.1791 -21.7216 0
      vertex 20.6871 -21.3526 18
      vertex 20.1791 -21.7216 18
    endloop
  endfacet
  facet normal 0.587698 -0.80908 0
    outer loop
      vertex 20.6871 -21.3526 18
      vertex 20.1791 -21.7216 0
      vertex 20.6871 -21.3526 0
    endloop
  endfacet
  facet normal 0.982276 -0.187441 0
    outer loop
      vertex 22.3429 -18.7435 18
      vertex 22.4606 -18.1267 0
      vertex 22.4606 -18.1267 18
    endloop
  endfacet
  facet normal 0.982276 -0.187441 0
    outer loop
      vertex 22.4606 -18.1267 0
      vertex 22.3429 -18.7435 18
      vertex 22.3429 -18.7435 0
    endloop
  endfacet
  facet normal 0.844336 -0.535814 0
    outer loop
      vertex 21.5451 -20.4389 18
      vertex 21.8815 -19.9088 0
      vertex 21.8815 -19.9088 18
    endloop
  endfacet
  facet normal 0.844336 -0.535814 0
    outer loop
      vertex 21.8815 -19.9088 0
      vertex 21.5451 -20.4389 18
      vertex 21.5451 -20.4389 0
    endloop
  endfacet
  facet normal -0.844336 0.535814 0
    outer loop
      vertex -21.8815 19.9088 0
      vertex -21.5451 20.4389 18
      vertex -21.5451 20.4389 0
    endloop
  endfacet
  facet normal -0.844336 0.535814 0
    outer loop
      vertex -21.5451 20.4389 18
      vertex -21.8815 19.9088 0
      vertex -21.8815 19.9088 18
    endloop
  endfacet
  facet normal 0.982276 0.187441 0
    outer loop
      vertex 22.4606 18.1267 18
      vertex 22.3429 18.7435 0
      vertex 22.3429 18.7435 18
    endloop
  endfacet
  facet normal 0.982276 0.187441 0
    outer loop
      vertex 22.3429 18.7435 0
      vertex 22.4606 18.1267 18
      vertex 22.4606 18.1267 0
    endloop
  endfacet
  facet normal 0.904811 0.425812 0
    outer loop
      vertex 22.1489 19.3406 18
      vertex 21.8815 19.9088 0
      vertex 21.8815 19.9088 18
    endloop
  endfacet
  facet normal 0.904811 0.425812 0
    outer loop
      vertex 21.8815 19.9088 0
      vertex 22.1489 19.3406 18
      vertex 22.1489 19.3406 0
    endloop
  endfacet
  facet normal 0.844336 0.535814 0
    outer loop
      vertex 21.8815 19.9088 18
      vertex 21.5451 20.4389 0
      vertex 21.5451 20.4389 18
    endloop
  endfacet
  facet normal 0.844336 0.535814 0
    outer loop
      vertex 21.5451 20.4389 0
      vertex 21.8815 19.9088 18
      vertex 21.8815 19.9088 0
    endloop
  endfacet
  facet normal 0.587698 0.80908 -0
    outer loop
      vertex 20.6871 21.3526 0
      vertex 20.1791 21.7216 18
      vertex 20.6871 21.3526 18
    endloop
  endfacet
  facet normal 0.587698 0.80908 0
    outer loop
      vertex 20.1791 21.7216 18
      vertex 20.6871 21.3526 0
      vertex 20.1791 21.7216 0
    endloop
  endfacet
  facet normal 0.248601 0.968606 -0
    outer loop
      vertex 19.0451 22.2553 0
      vertex 18.4369 22.4114 18
      vertex 19.0451 22.2553 18
    endloop
  endfacet
  facet normal 0.248601 0.968606 0
    outer loop
      vertex 18.4369 22.4114 18
      vertex 19.0451 22.2553 0
      vertex 18.4369 22.4114 0
    endloop
  endfacet
  facet normal 0.125348 0.992113 -0
    outer loop
      vertex 18.4369 22.4114 0
      vertex 17.814 22.4901 18
      vertex 18.4369 22.4114 18
    endloop
  endfacet
  facet normal 0.125348 0.992113 0
    outer loop
      vertex 17.814 22.4901 18
      vertex 18.4369 22.4114 0
      vertex 17.814 22.4901 0
    endloop
  endfacet
  facet normal -0.982276 -0.187441 0
    outer loop
      vertex -22.3429 -18.7435 0
      vertex -22.4606 -18.1267 18
      vertex -22.4606 -18.1267 0
    endloop
  endfacet
  facet normal -0.982276 -0.187441 0
    outer loop
      vertex -22.4606 -18.1267 18
      vertex -22.3429 -18.7435 0
      vertex -22.3429 -18.7435 18
    endloop
  endfacet
  facet normal -0.844336 -0.535814 0
    outer loop
      vertex -21.5451 -20.4389 0
      vertex -21.8815 -19.9088 18
      vertex -21.8815 -19.9088 0
    endloop
  endfacet
  facet normal -0.844336 -0.535814 0
    outer loop
      vertex -21.8815 -19.9088 18
      vertex -21.5451 -20.4389 0
      vertex -21.5451 -20.4389 18
    endloop
  endfacet
  facet normal -0.125348 -0.992113 0
    outer loop
      vertex -18.4369 -22.4114 0
      vertex -17.814 -22.4901 18
      vertex -18.4369 -22.4114 18
    endloop
  endfacet
  facet normal -0.125348 -0.992113 -0
    outer loop
      vertex -17.814 -22.4901 18
      vertex -18.4369 -22.4114 0
      vertex -17.814 -22.4901 0
    endloop
  endfacet
  facet normal -0.481784 -0.87629 0
    outer loop
      vertex -20.1791 -21.7216 0
      vertex -19.6289 -22.0241 18
      vertex -20.1791 -21.7216 18
    endloop
  endfacet
  facet normal -0.481784 -0.87629 -0
    outer loop
      vertex -19.6289 -22.0241 18
      vertex -20.1791 -21.7216 0
      vertex -19.6289 -22.0241 0
    endloop
  endfacet
  facet normal 0.684624 -0.728896 0
    outer loop
      vertex 20.6871 -21.3526 0
      vertex 21.1448 -20.9227 18
      vertex 20.6871 -21.3526 18
    endloop
  endfacet
  facet normal 0.684624 -0.728896 0
    outer loop
      vertex 21.1448 -20.9227 18
      vertex 20.6871 -21.3526 0
      vertex 21.1448 -20.9227 0
    endloop
  endfacet
  facet normal 0.125348 -0.992113 0
    outer loop
      vertex 17.814 -22.4901 0
      vertex 18.4369 -22.4114 18
      vertex 17.814 -22.4901 18
    endloop
  endfacet
  facet normal 0.125348 -0.992113 0
    outer loop
      vertex 18.4369 -22.4114 18
      vertex 17.814 -22.4901 0
      vertex 18.4369 -22.4114 0
    endloop
  endfacet
  facet normal 0.99803 -0.0627451 0
    outer loop
      vertex 22.4606 -18.1267 18
      vertex 22.5 -17.5 0
      vertex 22.5 -17.5 18
    endloop
  endfacet
  facet normal 0.99803 -0.0627451 0
    outer loop
      vertex 22.5 -17.5 0
      vertex 22.4606 -18.1267 18
      vertex 22.4606 -18.1267 0
    endloop
  endfacet
  facet normal 0.904811 -0.425812 0
    outer loop
      vertex 21.8815 -19.9088 18
      vertex 22.1489 -19.3406 0
      vertex 22.1489 -19.3406 18
    endloop
  endfacet
  facet normal 0.904811 -0.425812 0
    outer loop
      vertex 22.1489 -19.3406 0
      vertex 21.8815 -19.9088 18
      vertex 21.8815 -19.9088 0
    endloop
  endfacet
  facet normal 0.248601 -0.968606 0
    outer loop
      vertex 18.4369 -22.4114 0
      vertex 19.0451 -22.2553 18
      vertex 18.4369 -22.4114 18
    endloop
  endfacet
  facet normal 0.248601 -0.968606 0
    outer loop
      vertex 19.0451 -22.2553 18
      vertex 18.4369 -22.4114 0
      vertex 19.0451 -22.2553 0
    endloop
  endfacet
  facet normal 0.481784 -0.87629 0
    outer loop
      vertex 19.6289 -22.0241 0
      vertex 20.1791 -21.7216 18
      vertex 19.6289 -22.0241 18
    endloop
  endfacet
  facet normal 0.481784 -0.87629 0
    outer loop
      vertex 20.1791 -21.7216 18
      vertex 19.6289 -22.0241 0
      vertex 20.1791 -21.7216 0
    endloop
  endfacet
  facet normal 0.368203 -0.929745 0
    outer loop
      vertex 19.0451 -22.2553 0
      vertex 19.6289 -22.0241 18
      vertex 19.0451 -22.2553 18
    endloop
  endfacet
  facet normal 0.368203 -0.929745 0
    outer loop
      vertex 19.6289 -22.0241 18
      vertex 19.0451 -22.2553 0
      vertex 19.6289 -22.0241 0
    endloop
  endfacet
  facet normal 0 -1 0
    outer loop
      vertex -17.6256 19.4961 2
      vertex 17.6256 19.4961 18
      vertex -17.6256 19.4961 18
    endloop
  endfacet
  facet normal 0 -1 -0
    outer loop
      vertex 17.6256 19.4961 18
      vertex -17.6256 19.4961 2
      vertex 17.6256 19.4961 2
    endloop
  endfacet
  facet normal -0.125407 -0.992105 0
    outer loop
      vertex 17.6256 19.4961 2
      vertex 17.8748 19.4646 18
      vertex 17.6256 19.4961 18
    endloop
  endfacet
  facet normal -0.125407 -0.992105 -0
    outer loop
      vertex 17.8748 19.4646 18
      vertex 17.6256 19.4961 2
      vertex 17.8748 19.4646 2
    endloop
  endfacet
  facet normal 0.125407 -0.992105 0
    outer loop
      vertex -17.8748 19.4646 2
      vertex -17.6256 19.4961 18
      vertex -17.8748 19.4646 18
    endloop
  endfacet
  facet normal 0.125407 -0.992105 0
    outer loop
      vertex -17.6256 19.4961 18
      vertex -17.8748 19.4646 2
      vertex -17.6256 19.4961 2
    endloop
  endfacet
  facet normal 0.684458 -0.729053 0
    outer loop
      vertex -18.9579 18.8691 2
      vertex -18.7748 19.041 18
      vertex -18.9579 18.8691 18
    endloop
  endfacet
  facet normal 0.684458 -0.729053 0
    outer loop
      vertex -18.7748 19.041 18
      vertex -18.9579 18.8691 2
      vertex -18.7748 19.041 2
    endloop
  endfacet
  facet normal 0.951046 -0.30905 0
    outer loop
      vertex -19.4372 17.9974 18
      vertex -19.3596 18.2362 2
      vertex -19.3596 18.2362 18
    endloop
  endfacet
  facet normal 0.951046 -0.30905 0
    outer loop
      vertex -19.3596 18.2362 2
      vertex -19.4372 17.9974 18
      vertex -19.4372 17.9974 2
    endloop
  endfacet
  facet normal 0.367819 -0.929897 0
    outer loop
      vertex -18.3516 19.3097 2
      vertex -18.118 19.4021 18
      vertex -18.3516 19.3097 18
    endloop
  endfacet
  facet normal 0.367819 -0.929897 0
    outer loop
      vertex -18.118 19.4021 18
      vertex -18.3516 19.3097 2
      vertex -18.118 19.4021 2
    endloop
  endfacet
  facet normal 0.481751 -0.876308 0
    outer loop
      vertex -18.5717 19.1887 2
      vertex -18.3516 19.3097 18
      vertex -18.5717 19.1887 18
    endloop
  endfacet
  facet normal 0.481751 -0.876308 0
    outer loop
      vertex -18.3516 19.3097 18
      vertex -18.5717 19.1887 2
      vertex -18.3516 19.3097 2
    endloop
  endfacet
  facet normal -0.125407 0.992105 0
    outer loop
      vertex 17.8748 -19.4646 2
      vertex 17.6256 -19.4961 18
      vertex 17.8748 -19.4646 18
    endloop
  endfacet
  facet normal -0.125407 0.992105 0
    outer loop
      vertex 17.6256 -19.4961 18
      vertex 17.8748 -19.4646 2
      vertex 17.6256 -19.4961 2
    endloop
  endfacet
  facet normal 0 1 -0
    outer loop
      vertex 17.6256 -19.4961 2
      vertex -17.6256 -19.4961 18
      vertex 17.6256 -19.4961 18
    endloop
  endfacet
  facet normal 0 1 0
    outer loop
      vertex -17.6256 -19.4961 18
      vertex 17.6256 -19.4961 2
      vertex -17.6256 -19.4961 2
    endloop
  endfacet
  facet normal 0.248902 -0.968529 0
    outer loop
      vertex -18.118 19.4021 2
      vertex -17.8748 19.4646 18
      vertex -18.118 19.4021 18
    endloop
  endfacet
  facet normal 0.248902 -0.968529 0
    outer loop
      vertex -17.8748 19.4646 18
      vertex -18.118 19.4021 2
      vertex -17.8748 19.4646 2
    endloop
  endfacet
  facet normal -1 0 0
    outer loop
      vertex 19.5 -17.5 2
      vertex 19.5 17.5 18
      vertex 19.5 17.5 2
    endloop
  endfacet
  facet normal -1 -0 0
    outer loop
      vertex 19.5 17.5 18
      vertex 19.5 -17.5 2
      vertex 19.5 -17.5 18
    endloop
  endfacet
  facet normal -0.684458 0.729053 0
    outer loop
      vertex 18.9579 -18.8691 2
      vertex 18.7748 -19.041 18
      vertex 18.9579 -18.8691 18
    endloop
  endfacet
  facet normal -0.684458 0.729053 0
    outer loop
      vertex 18.7748 -19.041 18
      vertex 18.9579 -18.8691 2
      vertex 18.7748 -19.041 2
    endloop
  endfacet
  facet normal 0.125407 0.992105 -0
    outer loop
      vertex -17.6256 -19.4961 2
      vertex -17.8748 -19.4646 18
      vertex -17.6256 -19.4961 18
    endloop
  endfacet
  facet normal 0.125407 0.992105 0
    outer loop
      vertex -17.8748 -19.4646 18
      vertex -17.6256 -19.4961 2
      vertex -17.8748 -19.4646 2
    endloop
  endfacet
  facet normal 1 -0 0
    outer loop
      vertex -19.5 -17.5 18
      vertex -19.5 17.5 2
      vertex -19.5 17.5 18
    endloop
  endfacet
  facet normal 1 0 0
    outer loop
      vertex -19.5 17.5 2
      vertex -19.5 -17.5 18
      vertex -19.5 -17.5 2
    endloop
  endfacet
  facet normal 0.99802 -0.0628987 0
    outer loop
      vertex -19.5 17.5 18
      vertex -19.4842 17.7507 2
      vertex -19.4842 17.7507 18
    endloop
  endfacet
  facet normal 0.99802 -0.0628987 0
    outer loop
      vertex -19.4842 17.7507 2
      vertex -19.5 17.5 18
      vertex -19.5 17.5 2
    endloop
  endfacet
  facet normal -0.481751 0.876308 0
    outer loop
      vertex 18.5717 -19.1887 2
      vertex 18.3516 -19.3097 18
      vertex 18.5717 -19.1887 18
    endloop
  endfacet
  facet normal -0.481751 0.876308 0
    outer loop
      vertex 18.3516 -19.3097 18
      vertex 18.5717 -19.1887 2
      vertex 18.3516 -19.3097 2
    endloop
  endfacet
  facet normal 0.367819 0.929897 -0
    outer loop
      vertex -18.118 -19.4021 2
      vertex -18.3516 -19.3097 18
      vertex -18.118 -19.4021 18
    endloop
  endfacet
  facet normal 0.367819 0.929897 0
    outer loop
      vertex -18.3516 -19.3097 18
      vertex -18.118 -19.4021 2
      vertex -18.3516 -19.3097 2
    endloop
  endfacet
  facet normal 0.588148 -0.808753 0
    outer loop
      vertex -18.7748 19.041 2
      vertex -18.5717 19.1887 18
      vertex -18.7748 19.041 18
    endloop
  endfacet
  facet normal 0.588148 -0.808753 0
    outer loop
      vertex -18.5717 19.1887 18
      vertex -18.7748 19.041 2
      vertex -18.5717 19.1887 2
    endloop
  endfacet
  facet normal -0.367819 -0.929897 0
    outer loop
      vertex 18.118 19.4021 2
      vertex 18.3516 19.3097 18
      vertex 18.118 19.4021 18
    endloop
  endfacet
  facet normal -0.367819 -0.929897 -0
    outer loop
      vertex 18.3516 19.3097 18
      vertex 18.118 19.4021 2
      vertex 18.3516 19.3097 2
    endloop
  endfacet
  facet normal -0.481751 -0.876308 0
    outer loop
      vertex 18.3516 19.3097 2
      vertex 18.5717 19.1887 18
      vertex 18.3516 19.3097 18
    endloop
  endfacet
  facet normal -0.481751 -0.876308 -0
    outer loop
      vertex 18.5717 19.1887 18
      vertex 18.3516 19.3097 2
      vertex 18.5717 19.1887 2
    endloop
  endfacet
  facet normal -0.951046 -0.30905 0
    outer loop
      vertex 19.4372 17.9974 2
      vertex 19.3596 18.2362 18
      vertex 19.3596 18.2362 2
    endloop
  endfacet
  facet normal -0.951046 -0.30905 0
    outer loop
      vertex 19.3596 18.2362 18
      vertex 19.4372 17.9974 2
      vertex 19.4372 17.9974 18
    endloop
  endfacet
  facet normal -0.904765 -0.425912 0
    outer loop
      vertex 19.3596 18.2362 2
      vertex 19.2526 18.4635 18
      vertex 19.2526 18.4635 2
    endloop
  endfacet
  facet normal -0.904765 -0.425912 0
    outer loop
      vertex 19.2526 18.4635 18
      vertex 19.3596 18.2362 2
      vertex 19.3596 18.2362 18
    endloop
  endfacet
  facet normal -0.982332 -0.187149 0
    outer loop
      vertex 19.4842 17.7507 2
      vertex 19.4372 17.9974 18
      vertex 19.4372 17.9974 2
    endloop
  endfacet
  facet normal -0.982332 -0.187149 0
    outer loop
      vertex 19.4372 17.9974 18
      vertex 19.4842 17.7507 2
      vertex 19.4842 17.7507 18
    endloop
  endfacet
  facet normal -0.951046 0.30905 0
    outer loop
      vertex 19.3596 -18.2362 2
      vertex 19.4372 -17.9974 18
      vertex 19.4372 -17.9974 2
    endloop
  endfacet
  facet normal -0.951046 0.30905 0
    outer loop
      vertex 19.4372 -17.9974 18
      vertex 19.3596 -18.2362 2
      vertex 19.3596 -18.2362 18
    endloop
  endfacet
  facet normal -0.982332 0.187149 0
    outer loop
      vertex 19.4372 -17.9974 2
      vertex 19.4842 -17.7507 18
      vertex 19.4842 -17.7507 2
    endloop
  endfacet
  facet normal -0.982332 0.187149 0
    outer loop
      vertex 19.4842 -17.7507 18
      vertex 19.4372 -17.9974 2
      vertex 19.4372 -17.9974 18
    endloop
  endfacet
  facet normal -0.367819 0.929897 0
    outer loop
      vertex 18.3516 -19.3097 2
      vertex 18.118 -19.4021 18
      vertex 18.3516 -19.3097 18
    endloop
  endfacet
  facet normal -0.367819 0.929897 0
    outer loop
      vertex 18.118 -19.4021 18
      vertex 18.3516 -19.3097 2
      vertex 18.118 -19.4021 2
    endloop
  endfacet
  facet normal -0.588148 0.808753 0
    outer loop
      vertex 18.7748 -19.041 2
      vertex 18.5717 -19.1887 18
      vertex 18.7748 -19.041 18
    endloop
  endfacet
  facet normal -0.588148 0.808753 0
    outer loop
      vertex 18.5717 -19.1887 18
      vertex 18.7748 -19.041 2
      vertex 18.5717 -19.1887 2
    endloop
  endfacet
  facet normal 0.904765 0.425912 0
    outer loop
      vertex -19.2526 -18.4635 18
      vertex -19.3596 -18.2362 2
      vertex -19.3596 -18.2362 18
    endloop
  endfacet
  facet normal 0.904765 0.425912 0
    outer loop
      vertex -19.3596 -18.2362 2
      vertex -19.2526 -18.4635 18
      vertex -19.2526 -18.4635 2
    endloop
  endfacet
  facet normal 0 0 1
    outer loop
      vertex 17.6256 19.4961 2
      vertex 19.5 17.5 2
      vertex 19.4842 17.7507 2
    endloop
  endfacet
  facet normal 0 0 1
    outer loop
      vertex -19.5 17.5 2
      vertex 19.5 17.5 2
      vertex 17.6256 19.4961 2
    endloop
  endfacet
  facet normal 0 0 1
    outer loop
      vertex 17.6256 19.4961 2
      vertex 19.4842 17.7507 2
      vertex 19.4372 17.9974 2
    endloop
  endfacet
  facet normal 0 0 1
    outer loop
      vertex 19.5 17.5 2
      vertex -19.5 17.5 2
      vertex 19.5 -17.5 2
    endloop
  endfacet
  facet normal 0 0 1
    outer loop
      vertex 17.6256 19.4961 2
      vertex 19.4372 17.9974 2
      vertex 19.3596 18.2362 2
    endloop
  endfacet
  facet normal 0 0 1
    outer loop
      vertex 19.5 -17.5 2
      vertex 17.6256 -19.4961 2
      vertex 19.4842 -17.7507 2
    endloop
  endfacet
  facet normal 0 0 1
    outer loop
      vertex 17.6256 19.4961 2
      vertex 19.3596 18.2362 2
      vertex 19.2526 18.4635 2
    endloop
  endfacet
  facet normal 0 0 1
    outer loop
      vertex 19.4842 -17.7507 2
      vertex 17.6256 -19.4961 2
      vertex 19.4372 -17.9974 2
    endloop
  endfacet
  facet normal 0 0 1
    outer loop
      vertex 17.6256 19.4961 2
      vertex 19.2526 18.4635 2
      vertex 19.118 18.6756 2
    endloop
  endfacet
  facet normal 0 0 1
    outer loop
      vertex 19.4372 -17.9974 2
      vertex 17.6256 -19.4961 2
      vertex 19.3596 -18.2362 2
    endloop
  endfacet
  facet normal 0 0 1
    outer loop
      vertex 17.6256 19.4961 2
      vertex 19.118 18.6756 2
      vertex 18.9579 18.8691 2
    endloop
  endfacet
  facet normal 0 0 1
    outer loop
      vertex 19.3596 -18.2362 2
      vertex 17.6256 -19.4961 2
      vertex 19.2526 -18.4635 2
    endloop
  endfacet
  facet normal 0 0 1
    outer loop
      vertex 17.6256 19.4961 2
      vertex 18.9579 18.8691 2
      vertex 18.7748 19.041 2
    endloop
  endfacet
  facet normal 0 0 1
    outer loop
      vertex 19.2526 -18.4635 2
      vertex 17.6256 -19.4961 2
      vertex 19.118 -18.6756 2
    endloop
  endfacet
  facet normal 0 0 1
    outer loop
      vertex 17.6256 19.4961 2
      vertex 18.7748 19.041 2
      vertex 18.5717 19.1887 2
    endloop
  endfacet
  facet normal 0 0 1
    outer loop
      vertex 19.118 -18.6756 2
      vertex 17.6256 -19.4961 2
      vertex 18.9579 -18.8691 2
    endloop
  endfacet
  facet normal 0 0 1
    outer loop
      vertex 17.6256 19.4961 2
      vertex 18.5717 19.1887 2
      vertex 18.3516 19.3097 2
    endloop
  endfacet
  facet normal 0 0 1
    outer loop
      vertex 18.9579 -18.8691 2
      vertex 17.6256 -19.4961 2
      vertex 18.7748 -19.041 2
    endloop
  endfacet
  facet normal 0 0 1
    outer loop
      vertex 17.6256 19.4961 2
      vertex 18.3516 19.3097 2
      vertex 18.118 19.4021 2
    endloop
  endfacet
  facet normal 0 0 1
    outer loop
      vertex 18.7748 -19.041 2
      vertex 17.6256 -19.4961 2
      vertex 18.5717 -19.1887 2
    endloop
  endfacet
  facet normal 0 0 1
    outer loop
      vertex 17.6256 19.4961 2
      vertex 18.118 19.4021 2
      vertex 17.8748 19.4646 2
    endloop
  endfacet
  facet normal 0 0 1
    outer loop
      vertex 18.5717 -19.1887 2
      vertex 17.6256 -19.4961 2
      vertex 18.3516 -19.3097 2
    endloop
  endfacet
  facet normal 0 0 1
    outer loop
      vertex 18.3516 -19.3097 2
      vertex 17.6256 -19.4961 2
      vertex 18.118 -19.4021 2
    endloop
  endfacet
  facet normal 0 0 1
    outer loop
      vertex 18.118 -19.4021 2
      vertex 17.6256 -19.4961 2
      vertex 17.8748 -19.4646 2
    endloop
  endfacet
  facet normal 0 0 1
    outer loop
      vertex -19.5 17.5 2
      vertex 17.6256 19.4961 2
      vertex -17.6256 19.4961 2
    endloop
  endfacet
  facet normal 0 0 1
    outer loop
      vertex -19.5 -17.5 2
      vertex 19.5 -17.5 2
      vertex -19.5 17.5 2
    endloop
  endfacet
  facet normal 0 0 1
    outer loop
      vertex -19.5 17.5 2
      vertex -17.6256 19.4961 2
      vertex -17.8748 19.4646 2
    endloop
  endfacet
  facet normal 0 0 1
    outer loop
      vertex 19.5 -17.5 2
      vertex -19.5 -17.5 2
      vertex 17.6256 -19.4961 2
    endloop
  endfacet
  facet normal 0 0 1
    outer loop
      vertex -19.5 17.5 2
      vertex -17.8748 19.4646 2
      vertex -18.118 19.4021 2
    endloop
  endfacet
  facet normal 0 0 1
    outer loop
      vertex 17.6256 -19.4961 2
      vertex -19.5 -17.5 2
      vertex -17.6256 -19.4961 2
    endloop
  endfacet
  facet normal 0 0 1
    outer loop
      vertex -19.5 17.5 2
      vertex -18.118 19.4021 2
      vertex -18.3516 19.3097 2
    endloop
  endfacet
  facet normal 0 0 1
    outer loop
      vertex -17.6256 -19.4961 2
      vertex -19.5 -17.5 2
      vertex -17.8748 -19.4646 2
    endloop
  endfacet
  facet normal 0 0 1
    outer loop
      vertex -19.5 17.5 2
      vertex -18.3516 19.3097 2
      vertex -18.5717 19.1887 2
    endloop
  endfacet
  facet normal 0 0 1
    outer loop
      vertex -17.8748 -19.4646 2
      vertex -19.5 -17.5 2
      vertex -18.118 -19.4021 2
    endloop
  endfacet
  facet normal 0 0 1
    outer loop
      vertex -19.5 17.5 2
      vertex -18.5717 19.1887 2
      vertex -18.7748 19.041 2
    endloop
  endfacet
  facet normal 0 0 1
    outer loop
      vertex -18.118 -19.4021 2
      vertex -19.5 -17.5 2
      vertex -18.3516 -19.3097 2
    endloop
  endfacet
  facet normal 0 0 1
    outer loop
      vertex -19.5 17.5 2
      vertex -18.7748 19.041 2
      vertex -18.9579 18.8691 2
    endloop
  endfacet
  facet normal 0 0 1
    outer loop
      vertex -18.3516 -19.3097 2
      vertex -19.5 -17.5 2
      vertex -18.5717 -19.1887 2
    endloop
  endfacet
  facet normal 0 0 1
    outer loop
      vertex -19.5 17.5 2
      vertex -18.9579 18.8691 2
      vertex -19.118 18.6756 2
    endloop
  endfacet
  facet normal 0 0 1
    outer loop
      vertex -18.5717 -19.1887 2
      vertex -19.5 -17.5 2
      vertex -18.7748 -19.041 2
    endloop
  endfacet
  facet normal 0 0 1
    outer loop
      vertex -19.5 17.5 2
      vertex -19.118 18.6756 2
      vertex -19.2526 18.4635 2
    endloop
  endfacet
  facet normal 0 0 1
    outer loop
      vertex -18.7748 -19.041 2
      vertex -19.5 -17.5 2
      vertex -18.9579 -18.8691 2
    endloop
  endfacet
  facet normal 0 0 1
    outer loop
      vertex -19.5 17.5 2
      vertex -19.2526 18.4635 2
      vertex -19.3596 18.2362 2
    endloop
  endfacet
  facet normal 0 0 1
    outer loop
      vertex -18.9579 -18.8691 2
      vertex -19.5 -17.5 2
      vertex -19.118 -18.6756 2
    endloop
  endfacet
  facet normal 0 0 1
    outer loop
      vertex -19.5 17.5 2
      vertex -19.3596 18.2362 2
      vertex -19.4372 17.9974 2
    endloop
  endfacet
  facet normal 0 0 1
    outer loop
      vertex -19.118 -18.6756 2
      vertex -19.5 -17.5 2
      vertex -19.2526 -18.4635 2
    endloop
  endfacet
  facet normal 0 0 1
    outer loop
      vertex -19.5 17.5 2
      vertex -19.4372 17.9974 2
      vertex -19.4842 17.7507 2
    endloop
  endfacet
  facet normal 0 0 1
    outer loop
      vertex -19.2526 -18.4635 2
      vertex -19.5 -17.5 2
      vertex -19.3596 -18.2362 2
    endloop
  endfacet
  facet normal 0 0 1
    outer loop
      vertex -19.3596 -18.2362 2
      vertex -19.5 -17.5 2
      vertex -19.4372 -17.9974 2
    endloop
  endfacet
  facet normal 0 0 1
    outer loop
      vertex -19.4372 -17.9974 2
      vertex -19.5 -17.5 2
      vertex -19.4842 -17.7507 2
    endloop
  endfacet
  facet normal 0.248902 0.968529 -0
    outer loop
      vertex -17.8748 -19.4646 2
      vertex -18.118 -19.4021 18
      vertex -17.8748 -19.4646 18
    endloop
  endfacet
  facet normal 0.248902 0.968529 0
    outer loop
      vertex -18.118 -19.4021 18
      vertex -17.8748 -19.4646 2
      vertex -18.118 -19.4021 2
    endloop
  endfacet
  facet normal 0.481751 0.876308 -0
    outer loop
      vertex -18.3516 -19.3097 2
      vertex -18.5717 -19.1887 18
      vertex -18.3516 -19.3097 18
    endloop
  endfacet
  facet normal 0.481751 0.876308 0
    outer loop
      vertex -18.5717 -19.1887 18
      vertex -18.3516 -19.3097 2
      vertex -18.5717 -19.1887 2
    endloop
  endfacet
  facet normal 0.770468 -0.637478 0
    outer loop
      vertex -19.118 18.6756 18
      vertex -18.9579 18.8691 2
      vertex -18.9579 18.8691 18
    endloop
  endfacet
  facet normal 0.770468 -0.637478 0
    outer loop
      vertex -18.9579 18.8691 2
      vertex -19.118 18.6756 18
      vertex -19.118 18.6756 2
    endloop
  endfacet
  facet normal 0.904765 -0.425912 0
    outer loop
      vertex -19.3596 18.2362 18
      vertex -19.2526 18.4635 2
      vertex -19.2526 18.4635 18
    endloop
  endfacet
  facet normal 0.904765 -0.425912 0
    outer loop
      vertex -19.2526 18.4635 2
      vertex -19.3596 18.2362 18
      vertex -19.3596 18.2362 2
    endloop
  endfacet
  facet normal -0.248902 -0.968529 0
    outer loop
      vertex 17.8748 19.4646 2
      vertex 18.118 19.4021 18
      vertex 17.8748 19.4646 18
    endloop
  endfacet
  facet normal -0.248902 -0.968529 -0
    outer loop
      vertex 18.118 19.4021 18
      vertex 17.8748 19.4646 2
      vertex 18.118 19.4021 2
    endloop
  endfacet
  facet normal -0.588148 -0.808753 0
    outer loop
      vertex 18.5717 19.1887 2
      vertex 18.7748 19.041 18
      vertex 18.5717 19.1887 18
    endloop
  endfacet
  facet normal -0.588148 -0.808753 -0
    outer loop
      vertex 18.7748 19.041 18
      vertex 18.5717 19.1887 2
      vertex 18.7748 19.041 2
    endloop
  endfacet
  facet normal -0.684458 -0.729053 0
    outer loop
      vertex 18.7748 19.041 2
      vertex 18.9579 18.8691 18
      vertex 18.7748 19.041 18
    endloop
  endfacet
  facet normal -0.684458 -0.729053 -0
    outer loop
      vertex 18.9579 18.8691 18
      vertex 18.7748 19.041 2
      vertex 18.9579 18.8691 2
    endloop
  endfacet
  facet normal -0.99802 -0.0628987 0
    outer loop
      vertex 19.5 17.5 2
      vertex 19.4842 17.7507 18
      vertex 19.4842 17.7507 2
    endloop
  endfacet
  facet normal -0.99802 -0.0628987 0
    outer loop
      vertex 19.4842 17.7507 18
      vertex 19.5 17.5 2
      vertex 19.5 17.5 18
    endloop
  endfacet
  facet normal -0.844333 -0.535819 0
    outer loop
      vertex 19.2526 18.4635 2
      vertex 19.118 18.6756 18
      vertex 19.118 18.6756 2
    endloop
  endfacet
  facet normal -0.844333 -0.535819 0
    outer loop
      vertex 19.118 18.6756 18
      vertex 19.2526 18.4635 2
      vertex 19.2526 18.4635 18
    endloop
  endfacet
  facet normal -0.770468 -0.637478 0
    outer loop
      vertex 19.118 18.6756 2
      vertex 18.9579 18.8691 18
      vertex 18.9579 18.8691 2
    endloop
  endfacet
  facet normal -0.770468 -0.637478 0
    outer loop
      vertex 18.9579 18.8691 18
      vertex 19.118 18.6756 2
      vertex 19.118 18.6756 18
    endloop
  endfacet
  facet normal -0.99802 0.0628987 0
    outer loop
      vertex 19.4842 -17.7507 2
      vertex 19.5 -17.5 18
      vertex 19.5 -17.5 2
    endloop
  endfacet
  facet normal -0.99802 0.0628987 0
    outer loop
      vertex 19.5 -17.5 18
      vertex 19.4842 -17.7507 2
      vertex 19.4842 -17.7507 18
    endloop
  endfacet
  facet normal -0.904765 0.425912 0
    outer loop
      vertex 19.2526 -18.4635 2
      vertex 19.3596 -18.2362 18
      vertex 19.3596 -18.2362 2
    endloop
  endfacet
  facet normal -0.904765 0.425912 0
    outer loop
      vertex 19.3596 -18.2362 18
      vertex 19.2526 -18.4635 2
      vertex 19.2526 -18.4635 18
    endloop
  endfacet
  facet normal -0.770468 0.637478 0
    outer loop
      vertex 18.9579 -18.8691 2
      vertex 19.118 -18.6756 18
      vertex 19.118 -18.6756 2
    endloop
  endfacet
  facet normal -0.770468 0.637478 0
    outer loop
      vertex 19.118 -18.6756 18
      vertex 18.9579 -18.8691 2
      vertex 18.9579 -18.8691 18
    endloop
  endfacet
  facet normal -0.248902 0.968529 0
    outer loop
      vertex 18.118 -19.4021 2
      vertex 17.8748 -19.4646 18
      vertex 18.118 -19.4021 18
    endloop
  endfacet
  facet normal -0.248902 0.968529 0
    outer loop
      vertex 17.8748 -19.4646 18
      vertex 18.118 -19.4021 2
      vertex 17.8748 -19.4646 2
    endloop
  endfacet
  facet normal 0.951046 0.30905 0
    outer loop
      vertex -19.3596 -18.2362 18
      vertex -19.4372 -17.9974 2
      vertex -19.4372 -17.9974 18
    endloop
  endfacet
  facet normal 0.951046 0.30905 0
    outer loop
      vertex -19.4372 -17.9974 2
      vertex -19.3596 -18.2362 18
      vertex -19.3596 -18.2362 2
    endloop
  endfacet
  facet normal 0.99802 0.0628987 0
    outer loop
      vertex -19.4842 -17.7507 18
      vertex -19.5 -17.5 2
      vertex -19.5 -17.5 18
    endloop
  endfacet
  facet normal 0.99802 0.0628987 0
    outer loop
      vertex -19.5 -17.5 2
      vertex -19.4842 -17.7507 18
      vertex -19.4842 -17.7507 2
    endloop
  endfacet
  facet normal 0.844333 0.535819 0
    outer loop
      vertex -19.118 -18.6756 18
      vertex -19.2526 -18.4635 2
      vertex -19.2526 -18.4635 18
    endloop
  endfacet
  facet normal 0.844333 0.535819 0
    outer loop
      vertex -19.2526 -18.4635 2
      vertex -19.118 -18.6756 18
      vertex -19.118 -18.6756 2
    endloop
  endfacet
  facet normal 0.770468 0.637478 0
    outer loop
      vertex -18.9579 -18.8691 18
      vertex -19.118 -18.6756 2
      vertex -19.118 -18.6756 18
    endloop
  endfacet
  facet normal 0.770468 0.637478 0
    outer loop
      vertex -19.118 -18.6756 2
      vertex -18.9579 -18.8691 18
      vertex -18.9579 -18.8691 2
    endloop
  endfacet
  facet normal 0.588148 0.808753 -0
    outer loop
      vertex -18.5717 -19.1887 2
      vertex -18.7748 -19.041 18
      vertex -18.5717 -19.1887 18
    endloop
  endfacet
  facet normal 0.588148 0.808753 0
    outer loop
      vertex -18.7748 -19.041 18
      vertex -18.5717 -19.1887 2
      vertex -18.7748 -19.041 2
    endloop
  endfacet
  facet normal 0.684458 0.729053 -0
    outer loop
      vertex -18.7748 -19.041 2
      vertex -18.9579 -18.8691 18
      vertex -18.7748 -19.041 18
    endloop
  endfacet
  facet normal 0.684458 0.729053 0
    outer loop
      vertex -18.9579 -18.8691 18
      vertex -18.7748 -19.041 2
      vertex -18.9579 -18.8691 2
    endloop
  endfacet
  facet normal 0.982332 -0.187149 0
    outer loop
      vertex -19.4842 17.7507 18
      vertex -19.4372 17.9974 2
      vertex -19.4372 17.9974 18
    endloop
  endfacet
  facet normal 0.982332 -0.187149 0
    outer loop
      vertex -19.4372 17.9974 2
      vertex -19.4842 17.7507 18
      vertex -19.4842 17.7507 2
    endloop
  endfacet
  facet normal 0.844333 -0.535819 0
    outer loop
      vertex -19.2526 18.4635 18
      vertex -19.118 18.6756 2
      vertex -19.118 18.6756 18
    endloop
  endfacet
  facet normal 0.844333 -0.535819 0
    outer loop
      vertex -19.118 18.6756 2
      vertex -19.2526 18.4635 18
      vertex -19.2526 18.4635 2
    endloop
  endfacet
  facet normal -0.844333 0.535819 0
    outer loop
      vertex 19.118 -18.6756 2
      vertex 19.2526 -18.4635 18
      vertex 19.2526 -18.4635 2
    endloop
  endfacet
  facet normal -0.844333 0.535819 0
    outer loop
      vertex 19.2526 -18.4635 18
      vertex 19.118 -18.6756 2
      vertex 19.118 -18.6756 18
    endloop
  endfacet
  facet normal 0.982332 0.187149 0
    outer loop
      vertex -19.4372 -17.9974 18
      vertex -19.4842 -17.7507 2
      vertex -19.4842 -17.7507 18
    endloop
  endfacet
  facet normal 0.982332 0.187149 0
    outer loop
      vertex -19.4842 -17.7507 2
      vertex -19.4372 -17.9974 18
      vertex -19.4372 -17.9974 2
    endloop
  endfacet
endsolid OpenSCAD_Model
