solid OpenSCAD_Model
  facet normal 0.684608 0.728911 -0
    outer loop
      vertex 9.89484 80.9227 0
      vertex 9.43712 81.3526 21
      vertex 9.89484 80.9227 21
    endloop
  endfacet
  facet normal 0.684608 0.728911 0
    outer loop
      vertex 9.43712 81.3526 21
      vertex 9.89484 80.9227 0
      vertex 9.43712 81.3526 0
    endloop
  endfacet
  facet normal -0.125336 0.992114 0
    outer loop
      vertex -6.56395 82.4901 0
      vertex -7.18691 82.4114 21
      vertex -6.56395 82.4901 21
    endloop
  endfacet
  facet normal -0.125336 0.992114 0
    outer loop
      vertex -7.18691 82.4114 21
      vertex -6.56395 82.4901 0
      vertex -7.18691 82.4114 0
    endloop
  endfacet
  facet normal 0 1 -0
    outer loop
      vertex 6.56395 82.4901 0
      vertex -6.56395 82.4901 21
      vertex 6.56395 82.4901 21
    endloop
  endfacet
  facet normal 0 1 0
    outer loop
      vertex -6.56395 82.4901 21
      vertex 6.56395 82.4901 0
      vertex -6.56395 82.4901 0
    endloop
  endfacet
  facet normal -0.368192 0.92975 0
    outer loop
      vertex -7.79508 82.2553 0
      vertex -8.3789 82.0241 21
      vertex -7.79508 82.2553 21
    endloop
  endfacet
  facet normal -0.368192 0.92975 0
    outer loop
      vertex -8.3789 82.0241 21
      vertex -7.79508 82.2553 0
      vertex -8.3789 82.0241 0
    endloop
  endfacet
  facet normal 0 0 1
    outer loop
      vertex 10.25 77.5 21
      vertex 11.25 77.5 21
      vertex 11.2106 78.1267 21
    endloop
  endfacet
  facet normal 0 0 1
    outer loop
      vertex 11.25 77.5 21
      vertex 10.25 77.5 21
      vertex 11.25 -77.5 21
    endloop
  endfacet
  facet normal 0 0 1
    outer loop
      vertex 10.2185 78.0013 21
      vertex 11.2106 78.1267 21
      vertex 11.0929 78.7434 21
    endloop
  endfacet
  facet normal 0 0 1
    outer loop
      vertex 10.25 -77.5 21
      vertex 11.25 -77.5 21
      vertex 10.25 77.5 21
    endloop
  endfacet
  facet normal 0 0 1
    outer loop
      vertex 10.1243 78.4948 21
      vertex 11.0929 78.7434 21
      vertex 10.8989 79.3406 21
    endloop
  endfacet
  facet normal 0 0 1
    outer loop
      vertex 11.25 -77.5 21
      vertex 10.25 -77.5 21
      vertex 11.2106 -78.1267 21
    endloop
  endfacet
  facet normal 0 0 1
    outer loop
      vertex 9.96911 78.9725 21
      vertex 10.8989 79.3406 21
      vertex 10.6315 79.9088 21
    endloop
  endfacet
  facet normal -0 0 1
    outer loop
      vertex 10.2185 -78.0013 21
      vertex 11.2106 -78.1267 21
      vertex 10.25 -77.5 21
    endloop
  endfacet
  facet normal 0 0 1
    outer loop
      vertex 9.75523 79.427 21
      vertex 10.6315 79.9088 21
      vertex 10.2951 80.4389 21
    endloop
  endfacet
  facet normal 0 0 1
    outer loop
      vertex 11.2106 -78.1267 21
      vertex 10.2185 -78.0013 21
      vertex 11.0929 -78.7434 21
    endloop
  endfacet
  facet normal -0 0 1
    outer loop
      vertex 10.1243 -78.4948 21
      vertex 11.0929 -78.7434 21
      vertex 10.2185 -78.0013 21
    endloop
  endfacet
  facet normal 0 0 1
    outer loop
      vertex 11.2106 78.1267 21
      vertex 10.2185 78.0013 21
      vertex 10.25 77.5 21
    endloop
  endfacet
  facet normal 0 0 1
    outer loop
      vertex 11.0929 78.7434 21
      vertex 10.1243 78.4948 21
      vertex 10.2185 78.0013 21
    endloop
  endfacet
  facet normal 0 0 1
    outer loop
      vertex 10.8989 79.3406 21
      vertex 9.96911 78.9725 21
      vertex 10.1243 78.4948 21
    endloop
  endfacet
  facet normal 0 0 1
    outer loop
      vertex 9.48607 79.8511 21
      vertex 10.2951 80.4389 21
      vertex 9.89484 80.9227 21
    endloop
  endfacet
  facet normal 0 0 1
    outer loop
      vertex 10.6315 79.9088 21
      vertex 9.75523 79.427 21
      vertex 9.96911 78.9725 21
    endloop
  endfacet
  facet normal 0 0 1
    outer loop
      vertex 10.2951 80.4389 21
      vertex 9.48607 79.8511 21
      vertex 9.75523 79.427 21
    endloop
  endfacet
  facet normal 0 0 1
    outer loop
      vertex 9.16587 80.2382 21
      vertex 9.89484 80.9227 21
      vertex 9.43712 81.3526 21
    endloop
  endfacet
  facet normal 0 0 1
    outer loop
      vertex 9.89484 80.9227 21
      vertex 9.16587 80.2382 21
      vertex 9.48607 79.8511 21
    endloop
  endfacet
  facet normal 0 0 1
    outer loop
      vertex 8.7997 80.5821 21
      vertex 9.43712 81.3526 21
      vertex 8.92913 81.7216 21
    endloop
  endfacet
  facet normal 0 0 1
    outer loop
      vertex 9.43712 81.3526 21
      vertex 8.7997 80.5821 21
      vertex 9.16587 80.2382 21
    endloop
  endfacet
  facet normal 0 0 1
    outer loop
      vertex 8.92913 81.7216 21
      vertex 8.39331 80.8773 21
      vertex 8.7997 80.5821 21
    endloop
  endfacet
  facet normal 0 0 1
    outer loop
      vertex 8.3789 82.0241 21
      vertex 8.39331 80.8773 21
      vertex 8.92913 81.7216 21
    endloop
  endfacet
  facet normal 0 0 1
    outer loop
      vertex 8.3789 82.0241 21
      vertex 7.95312 81.1193 21
      vertex 8.39331 80.8773 21
    endloop
  endfacet
  facet normal 0 0 1
    outer loop
      vertex 7.79508 82.2553 21
      vertex 7.95312 81.1193 21
      vertex 8.3789 82.0241 21
    endloop
  endfacet
  facet normal 0 0 1
    outer loop
      vertex 7.79508 82.2553 21
      vertex 7.48607 81.3042 21
      vertex 7.95312 81.1193 21
    endloop
  endfacet
  facet normal 0 0 1
    outer loop
      vertex 7.18691 82.4114 21
      vertex 7.48607 81.3042 21
      vertex 7.79508 82.2553 21
    endloop
  endfacet
  facet normal 0 0 1
    outer loop
      vertex 7.18691 82.4114 21
      vertex 6.99953 81.4291 21
      vertex 7.48607 81.3042 21
    endloop
  endfacet
  facet normal 0 0 1
    outer loop
      vertex 6.56395 82.4901 21
      vertex 6.99953 81.4291 21
      vertex 7.18691 82.4114 21
    endloop
  endfacet
  facet normal 0 0 1
    outer loop
      vertex 6.56395 82.4901 21
      vertex 6.50116 81.4921 21
      vertex 6.99953 81.4291 21
    endloop
  endfacet
  facet normal 0 0 1
    outer loop
      vertex 6.56395 82.4901 21
      vertex -6.50116 81.4921 21
      vertex 6.50116 81.4921 21
    endloop
  endfacet
  facet normal -0 0 1
    outer loop
      vertex -6.56395 82.4901 21
      vertex -6.50116 81.4921 21
      vertex 6.56395 82.4901 21
    endloop
  endfacet
  facet normal 0 0 1
    outer loop
      vertex -6.56395 82.4901 21
      vertex -6.99953 81.4291 21
      vertex -6.50116 81.4921 21
    endloop
  endfacet
  facet normal -0 0 1
    outer loop
      vertex -7.18691 82.4114 21
      vertex -6.99953 81.4291 21
      vertex -6.56395 82.4901 21
    endloop
  endfacet
  facet normal 0 0 1
    outer loop
      vertex -7.18691 82.4114 21
      vertex -7.48607 81.3042 21
      vertex -6.99953 81.4291 21
    endloop
  endfacet
  facet normal -0 0 1
    outer loop
      vertex -7.79508 82.2553 21
      vertex -7.48607 81.3042 21
      vertex -7.18691 82.4114 21
    endloop
  endfacet
  facet normal 0 0 1
    outer loop
      vertex -7.79508 82.2553 21
      vertex -7.95312 81.1193 21
      vertex -7.48607 81.3042 21
    endloop
  endfacet
  facet normal -0 0 1
    outer loop
      vertex -8.3789 82.0241 21
      vertex -7.95312 81.1193 21
      vertex -7.79508 82.2553 21
    endloop
  endfacet
  facet normal 0 0 1
    outer loop
      vertex -8.3789 82.0241 21
      vertex -8.39331 80.8773 21
      vertex -7.95312 81.1193 21
    endloop
  endfacet
  facet normal -0 0 1
    outer loop
      vertex -8.92913 81.7216 21
      vertex -8.39331 80.8773 21
      vertex -8.3789 82.0241 21
    endloop
  endfacet
  facet normal 0 0 1
    outer loop
      vertex -8.39331 80.8773 21
      vertex -8.92913 81.7216 21
      vertex -8.7997 80.5821 21
    endloop
  endfacet
  facet normal -0 0 1
    outer loop
      vertex -9.43712 81.3526 21
      vertex -8.7997 80.5821 21
      vertex -8.92913 81.7216 21
    endloop
  endfacet
  facet normal 0 0 1
    outer loop
      vertex -8.7997 80.5821 21
      vertex -9.43712 81.3526 21
      vertex -9.16587 80.2382 21
    endloop
  endfacet
  facet normal -0 0 1
    outer loop
      vertex -9.89484 80.9227 21
      vertex -9.16587 80.2382 21
      vertex -9.43712 81.3526 21
    endloop
  endfacet
  facet normal 0 0 1
    outer loop
      vertex -9.16587 80.2382 21
      vertex -9.89484 80.9227 21
      vertex -9.48607 79.8511 21
    endloop
  endfacet
  facet normal -0 0 1
    outer loop
      vertex -10.2951 80.4389 21
      vertex -9.48607 79.8511 21
      vertex -9.89484 80.9227 21
    endloop
  endfacet
  facet normal 0 0 1
    outer loop
      vertex -9.48607 79.8511 21
      vertex -10.2951 80.4389 21
      vertex -9.75523 79.427 21
    endloop
  endfacet
  facet normal -0 0 1
    outer loop
      vertex -10.6315 79.9088 21
      vertex -9.75523 79.427 21
      vertex -10.2951 80.4389 21
    endloop
  endfacet
  facet normal 0 0 1
    outer loop
      vertex -9.75523 79.427 21
      vertex -10.6315 79.9088 21
      vertex -9.96911 78.9725 21
    endloop
  endfacet
  facet normal -0 0 1
    outer loop
      vertex -11.0929 78.7434 21
      vertex -10.1243 78.4948 21
      vertex -10.8989 79.3406 21
    endloop
  endfacet
  facet normal 0 0 1
    outer loop
      vertex -9.96911 78.9725 21
      vertex -10.8989 79.3406 21
      vertex -10.1243 78.4948 21
    endloop
  endfacet
  facet normal -0 0 1
    outer loop
      vertex -10.8989 79.3406 21
      vertex -9.96911 78.9725 21
      vertex -10.6315 79.9088 21
    endloop
  endfacet
  facet normal 0 0 1
    outer loop
      vertex 11.0929 -78.7434 21
      vertex 10.1243 -78.4948 21
      vertex 10.8989 -79.3406 21
    endloop
  endfacet
  facet normal -0 0 1
    outer loop
      vertex 9.96911 -78.9725 21
      vertex 10.8989 -79.3406 21
      vertex 10.1243 -78.4948 21
    endloop
  endfacet
  facet normal 0 0 1
    outer loop
      vertex 10.8989 -79.3406 21
      vertex 9.96911 -78.9725 21
      vertex 10.6315 -79.9088 21
    endloop
  endfacet
  facet normal -0 0 1
    outer loop
      vertex 9.75523 -79.427 21
      vertex 10.6315 -79.9088 21
      vertex 9.96911 -78.9725 21
    endloop
  endfacet
  facet normal 0 0 1
    outer loop
      vertex 10.6315 -79.9088 21
      vertex 9.75523 -79.427 21
      vertex 10.2951 -80.4389 21
    endloop
  endfacet
  facet normal -0 0 1
    outer loop
      vertex 9.48607 -79.8511 21
      vertex 10.2951 -80.4389 21
      vertex 9.75523 -79.427 21
    endloop
  endfacet
  facet normal 0 0 1
    outer loop
      vertex 10.2951 -80.4389 21
      vertex 9.48607 -79.8511 21
      vertex 9.89484 -80.9227 21
    endloop
  endfacet
  facet normal -0 0 1
    outer loop
      vertex 9.16587 -80.2382 21
      vertex 9.89484 -80.9227 21
      vertex 9.48607 -79.8511 21
    endloop
  endfacet
  facet normal 0 0 1
    outer loop
      vertex 9.89484 -80.9227 21
      vertex 9.16587 -80.2382 21
      vertex 9.43712 -81.3526 21
    endloop
  endfacet
  facet normal -0 0 1
    outer loop
      vertex 8.7997 -80.5821 21
      vertex 9.43712 -81.3526 21
      vertex 9.16587 -80.2382 21
    endloop
  endfacet
  facet normal 0 0 1
    outer loop
      vertex 9.43712 -81.3526 21
      vertex 8.7997 -80.5821 21
      vertex 8.92913 -81.7216 21
    endloop
  endfacet
  facet normal -0 0 1
    outer loop
      vertex 8.39331 -80.8773 21
      vertex 8.92913 -81.7216 21
      vertex 8.7997 -80.5821 21
    endloop
  endfacet
  facet normal 0 0 1
    outer loop
      vertex 8.39331 -80.8773 21
      vertex 8.3789 -82.0241 21
      vertex 8.92913 -81.7216 21
    endloop
  endfacet
  facet normal -0 0 1
    outer loop
      vertex 7.95312 -81.1193 21
      vertex 8.3789 -82.0241 21
      vertex 8.39331 -80.8773 21
    endloop
  endfacet
  facet normal 0 0 1
    outer loop
      vertex 7.95312 -81.1193 21
      vertex 7.79508 -82.2553 21
      vertex 8.3789 -82.0241 21
    endloop
  endfacet
  facet normal -0 0 1
    outer loop
      vertex 7.48607 -81.3042 21
      vertex 7.79508 -82.2553 21
      vertex 7.95312 -81.1193 21
    endloop
  endfacet
  facet normal 0 0 1
    outer loop
      vertex 7.48607 -81.3042 21
      vertex 7.18691 -82.4114 21
      vertex 7.79508 -82.2553 21
    endloop
  endfacet
  facet normal -0 0 1
    outer loop
      vertex 6.99953 -81.4291 21
      vertex 7.18691 -82.4114 21
      vertex 7.48607 -81.3042 21
    endloop
  endfacet
  facet normal 0 0 1
    outer loop
      vertex 6.99953 -81.4291 21
      vertex 6.56395 -82.4901 21
      vertex 7.18691 -82.4114 21
    endloop
  endfacet
  facet normal -0 0 1
    outer loop
      vertex 6.50116 -81.4921 21
      vertex 6.56395 -82.4901 21
      vertex 6.99953 -81.4291 21
    endloop
  endfacet
  facet normal -0 0 1
    outer loop
      vertex -6.50116 -81.4921 21
      vertex 6.56395 -82.4901 21
      vertex 6.50116 -81.4921 21
    endloop
  endfacet
  facet normal 0 0 1
    outer loop
      vertex -6.50116 -81.4921 21
      vertex -6.56395 -82.4901 21
      vertex 6.56395 -82.4901 21
    endloop
  endfacet
  facet normal 0 0 1
    outer loop
      vertex -6.99953 -81.4291 21
      vertex -6.56395 -82.4901 21
      vertex -6.50116 -81.4921 21
    endloop
  endfacet
  facet normal 0 0 1
    outer loop
      vertex -6.99953 -81.4291 21
      vertex -7.18691 -82.4114 21
      vertex -6.56395 -82.4901 21
    endloop
  endfacet
  facet normal 0 0 1
    outer loop
      vertex -7.48607 -81.3042 21
      vertex -7.18691 -82.4114 21
      vertex -6.99953 -81.4291 21
    endloop
  endfacet
  facet normal 0 0 1
    outer loop
      vertex -7.48607 -81.3042 21
      vertex -7.79508 -82.2553 21
      vertex -7.18691 -82.4114 21
    endloop
  endfacet
  facet normal 0 0 1
    outer loop
      vertex -7.95312 -81.1193 21
      vertex -7.79508 -82.2553 21
      vertex -7.48607 -81.3042 21
    endloop
  endfacet
  facet normal 0 0 1
    outer loop
      vertex -7.95312 -81.1193 21
      vertex -8.3789 -82.0241 21
      vertex -7.79508 -82.2553 21
    endloop
  endfacet
  facet normal 0 0 1
    outer loop
      vertex -8.39331 -80.8773 21
      vertex -8.3789 -82.0241 21
      vertex -7.95312 -81.1193 21
    endloop
  endfacet
  facet normal 0 0 1
    outer loop
      vertex -8.92913 -81.7216 21
      vertex -8.39331 -80.8773 21
      vertex -8.7997 -80.5821 21
    endloop
  endfacet
  facet normal 0 0 1
    outer loop
      vertex -8.39331 -80.8773 21
      vertex -8.92913 -81.7216 21
      vertex -8.3789 -82.0241 21
    endloop
  endfacet
  facet normal 0 0 1
    outer loop
      vertex -9.43712 -81.3526 21
      vertex -8.7997 -80.5821 21
      vertex -9.16587 -80.2382 21
    endloop
  endfacet
  facet normal 0 0 1
    outer loop
      vertex -8.7997 -80.5821 21
      vertex -9.43712 -81.3526 21
      vertex -8.92913 -81.7216 21
    endloop
  endfacet
  facet normal 0 0 1
    outer loop
      vertex -9.89484 -80.9227 21
      vertex -9.16587 -80.2382 21
      vertex -9.48607 -79.8511 21
    endloop
  endfacet
  facet normal 0 0 1
    outer loop
      vertex -10.2951 -80.4389 21
      vertex -9.48607 -79.8511 21
      vertex -9.75523 -79.427 21
    endloop
  endfacet
  facet normal 0 0 1
    outer loop
      vertex -9.16587 -80.2382 21
      vertex -9.89484 -80.9227 21
      vertex -9.43712 -81.3526 21
    endloop
  endfacet
  facet normal 0 0 1
    outer loop
      vertex -10.6315 -79.9088 21
      vertex -9.75523 -79.427 21
      vertex -9.96911 -78.9725 21
    endloop
  endfacet
  facet normal 0 0 1
    outer loop
      vertex -10.8989 -79.3406 21
      vertex -9.96911 -78.9725 21
      vertex -10.1243 -78.4948 21
    endloop
  endfacet
  facet normal 0 0 1
    outer loop
      vertex -11.0929 -78.7434 21
      vertex -10.1243 -78.4948 21
      vertex -10.2185 -78.0013 21
    endloop
  endfacet
  facet normal 0 0 1
    outer loop
      vertex -9.48607 -79.8511 21
      vertex -10.2951 -80.4389 21
      vertex -9.89484 -80.9227 21
    endloop
  endfacet
  facet normal 0 0 1
    outer loop
      vertex -11.2106 -78.1267 21
      vertex -10.2185 -78.0013 21
      vertex -10.25 -77.5 21
    endloop
  endfacet
  facet normal 0 0 1
    outer loop
      vertex -10.25 77.5 21
      vertex -11.25 77.5 21
      vertex -10.25 -77.5 21
    endloop
  endfacet
  facet normal 0 0 1
    outer loop
      vertex -10.1243 78.4948 21
      vertex -11.0929 78.7434 21
      vertex -10.2185 78.0013 21
    endloop
  endfacet
  facet normal 0 0 1
    outer loop
      vertex -11.25 -77.5 21
      vertex -10.25 -77.5 21
      vertex -11.25 77.5 21
    endloop
  endfacet
  facet normal -0 0 1
    outer loop
      vertex -11.2106 78.1267 21
      vertex -10.2185 78.0013 21
      vertex -11.0929 78.7434 21
    endloop
  endfacet
  facet normal 0 -0 1
    outer loop
      vertex -11.2106 -78.1267 21
      vertex -10.25 -77.5 21
      vertex -11.25 -77.5 21
    endloop
  endfacet
  facet normal 0 0 1
    outer loop
      vertex -10.2185 78.0013 21
      vertex -11.2106 78.1267 21
      vertex -10.25 77.5 21
    endloop
  endfacet
  facet normal 0 0 1
    outer loop
      vertex -9.75523 -79.427 21
      vertex -10.6315 -79.9088 21
      vertex -10.2951 -80.4389 21
    endloop
  endfacet
  facet normal 0 0 1
    outer loop
      vertex -10.25 77.5 21
      vertex -11.2106 78.1267 21
      vertex -11.25 77.5 21
    endloop
  endfacet
  facet normal 0 0 1
    outer loop
      vertex -9.96911 -78.9725 21
      vertex -10.8989 -79.3406 21
      vertex -10.6315 -79.9088 21
    endloop
  endfacet
  facet normal 0 0 1
    outer loop
      vertex -10.1243 -78.4948 21
      vertex -11.0929 -78.7434 21
      vertex -10.8989 -79.3406 21
    endloop
  endfacet
  facet normal 0 0 1
    outer loop
      vertex -10.2185 -78.0013 21
      vertex -11.2106 -78.1267 21
      vertex -11.0929 -78.7434 21
    endloop
  endfacet
  facet normal 1 -0 0
    outer loop
      vertex 11.25 -77.5 21
      vertex 11.25 77.5 0
      vertex 11.25 77.5 21
    endloop
  endfacet
  facet normal 1 0 0
    outer loop
      vertex 11.25 77.5 0
      vertex 11.25 -77.5 21
      vertex 11.25 -77.5 0
    endloop
  endfacet
  facet normal -1 0 0
    outer loop
      vertex -11.25 -77.5 0
      vertex -11.25 77.5 21
      vertex -11.25 77.5 0
    endloop
  endfacet
  facet normal -1 -0 0
    outer loop
      vertex -11.25 77.5 21
      vertex -11.25 -77.5 0
      vertex -11.25 -77.5 21
    endloop
  endfacet
  facet normal -0.481764 0.876301 0
    outer loop
      vertex -8.3789 82.0241 0
      vertex -8.92913 81.7216 21
      vertex -8.3789 82.0241 21
    endloop
  endfacet
  facet normal -0.481764 0.876301 0
    outer loop
      vertex -8.92913 81.7216 21
      vertex -8.3789 82.0241 0
      vertex -8.92913 81.7216 0
    endloop
  endfacet
  facet normal -0.248613 0.968603 0
    outer loop
      vertex -7.18691 82.4114 0
      vertex -7.79508 82.2553 21
      vertex -7.18691 82.4114 21
    endloop
  endfacet
  facet normal -0.248613 0.968603 0
    outer loop
      vertex -7.79508 82.2553 21
      vertex -7.18691 82.4114 0
      vertex -7.79508 82.2553 0
    endloop
  endfacet
  facet normal 0.99803 -0.0627451 0
    outer loop
      vertex 11.2106 -78.1267 21
      vertex 11.25 -77.5 0
      vertex 11.25 -77.5 21
    endloop
  endfacet
  facet normal 0.99803 -0.0627451 0
    outer loop
      vertex 11.25 -77.5 0
      vertex 11.2106 -78.1267 21
      vertex 11.2106 -78.1267 0
    endloop
  endfacet
  facet normal 0.951076 0.308956 0
    outer loop
      vertex 11.0929 78.7434 21
      vertex 10.8989 79.3406 0
      vertex 10.8989 79.3406 21
    endloop
  endfacet
  facet normal 0.951076 0.308956 0
    outer loop
      vertex 10.8989 79.3406 0
      vertex 11.0929 78.7434 21
      vertex 11.0929 78.7434 0
    endloop
  endfacet
  facet normal 0.125336 -0.992114 0
    outer loop
      vertex 6.56395 -82.4901 0
      vertex 7.18691 -82.4114 21
      vertex 6.56395 -82.4901 21
    endloop
  endfacet
  facet normal 0.125336 -0.992114 0
    outer loop
      vertex 7.18691 -82.4114 21
      vertex 6.56395 -82.4901 0
      vertex 7.18691 -82.4114 0
    endloop
  endfacet
  facet normal -0.99803 0.0627451 0
    outer loop
      vertex -11.25 77.5 0
      vertex -11.2106 78.1267 21
      vertex -11.2106 78.1267 0
    endloop
  endfacet
  facet normal -0.99803 0.0627451 0
    outer loop
      vertex -11.2106 78.1267 21
      vertex -11.25 77.5 0
      vertex -11.25 77.5 21
    endloop
  endfacet
  facet normal 0.770493 -0.637448 0
    outer loop
      vertex 9.89484 -80.9227 21
      vertex 10.2951 -80.4389 0
      vertex 10.2951 -80.4389 21
    endloop
  endfacet
  facet normal 0.770493 -0.637448 0
    outer loop
      vertex 10.2951 -80.4389 0
      vertex 9.89484 -80.9227 21
      vertex 9.89484 -80.9227 0
    endloop
  endfacet
  facet normal 0.481764 -0.876301 0
    outer loop
      vertex 8.3789 -82.0241 0
      vertex 8.92913 -81.7216 21
      vertex 8.3789 -82.0241 21
    endloop
  endfacet
  facet normal 0.481764 -0.876301 0
    outer loop
      vertex 8.92913 -81.7216 21
      vertex 8.3789 -82.0241 0
      vertex 8.92913 -81.7216 0
    endloop
  endfacet
  facet normal 0.248613 -0.968603 0
    outer loop
      vertex 7.18691 -82.4114 0
      vertex 7.79508 -82.2553 21
      vertex 7.18691 -82.4114 21
    endloop
  endfacet
  facet normal 0.248613 -0.968603 0
    outer loop
      vertex 7.79508 -82.2553 21
      vertex 7.18691 -82.4114 0
      vertex 7.79508 -82.2553 0
    endloop
  endfacet
  facet normal 0 -1 0
    outer loop
      vertex -6.56395 -82.4901 0
      vertex 6.56395 -82.4901 21
      vertex -6.56395 -82.4901 21
    endloop
  endfacet
  facet normal 0 -1 -0
    outer loop
      vertex 6.56395 -82.4901 21
      vertex -6.56395 -82.4901 0
      vertex 6.56395 -82.4901 0
    endloop
  endfacet
  facet normal -0.684608 -0.728911 0
    outer loop
      vertex -9.89484 -80.9227 0
      vertex -9.43712 -81.3526 21
      vertex -9.89484 -80.9227 21
    endloop
  endfacet
  facet normal -0.684608 -0.728911 -0
    outer loop
      vertex -9.43712 -81.3526 21
      vertex -9.89484 -80.9227 0
      vertex -9.43712 -81.3526 0
    endloop
  endfacet
  facet normal -0.98227 0.187471 0
    outer loop
      vertex -11.2106 78.1267 0
      vertex -11.0929 78.7434 21
      vertex -11.0929 78.7434 0
    endloop
  endfacet
  facet normal -0.98227 0.187471 0
    outer loop
      vertex -11.0929 78.7434 21
      vertex -11.2106 78.1267 0
      vertex -11.2106 78.1267 21
    endloop
  endfacet
  facet normal -0.951076 0.308956 0
    outer loop
      vertex -11.0929 78.7434 0
      vertex -10.8989 79.3406 21
      vertex -10.8989 79.3406 0
    endloop
  endfacet
  facet normal -0.951076 0.308956 0
    outer loop
      vertex -10.8989 79.3406 21
      vertex -11.0929 78.7434 0
      vertex -11.0929 78.7434 21
    endloop
  endfacet
  facet normal -0.684608 0.728911 0
    outer loop
      vertex -9.43712 81.3526 0
      vertex -9.89484 80.9227 21
      vertex -9.43712 81.3526 21
    endloop
  endfacet
  facet normal -0.684608 0.728911 0
    outer loop
      vertex -9.89484 80.9227 21
      vertex -9.43712 81.3526 0
      vertex -9.89484 80.9227 0
    endloop
  endfacet
  facet normal 0.98227 -0.187471 0
    outer loop
      vertex 11.0929 -78.7434 21
      vertex 11.2106 -78.1267 0
      vertex 11.2106 -78.1267 21
    endloop
  endfacet
  facet normal 0.98227 -0.187471 0
    outer loop
      vertex 11.2106 -78.1267 0
      vertex 11.0929 -78.7434 21
      vertex 11.0929 -78.7434 0
    endloop
  endfacet
  facet normal 0.951076 -0.308956 0
    outer loop
      vertex 10.8989 -79.3406 21
      vertex 11.0929 -78.7434 0
      vertex 11.0929 -78.7434 21
    endloop
  endfacet
  facet normal 0.951076 -0.308956 0
    outer loop
      vertex 11.0929 -78.7434 0
      vertex 10.8989 -79.3406 21
      vertex 10.8989 -79.3406 0
    endloop
  endfacet
  facet normal 0.684608 -0.728911 0
    outer loop
      vertex 9.43712 -81.3526 0
      vertex 9.89484 -80.9227 21
      vertex 9.43712 -81.3526 21
    endloop
  endfacet
  facet normal 0.684608 -0.728911 0
    outer loop
      vertex 9.89484 -80.9227 21
      vertex 9.43712 -81.3526 0
      vertex 9.89484 -80.9227 0
    endloop
  endfacet
  facet normal 0.481764 0.876301 -0
    outer loop
      vertex 8.92913 81.7216 0
      vertex 8.3789 82.0241 21
      vertex 8.92913 81.7216 21
    endloop
  endfacet
  facet normal 0.481764 0.876301 0
    outer loop
      vertex 8.3789 82.0241 21
      vertex 8.92913 81.7216 0
      vertex 8.3789 82.0241 0
    endloop
  endfacet
  facet normal 0.125336 0.992114 -0
    outer loop
      vertex 7.18691 82.4114 0
      vertex 6.56395 82.4901 21
      vertex 7.18691 82.4114 21
    endloop
  endfacet
  facet normal 0.125336 0.992114 0
    outer loop
      vertex 6.56395 82.4901 21
      vertex 7.18691 82.4114 0
      vertex 6.56395 82.4901 0
    endloop
  endfacet
  facet normal 0.368192 0.92975 -0
    outer loop
      vertex 8.3789 82.0241 0
      vertex 7.79508 82.2553 21
      vertex 8.3789 82.0241 21
    endloop
  endfacet
  facet normal 0.368192 0.92975 0
    outer loop
      vertex 7.79508 82.2553 21
      vertex 8.3789 82.0241 0
      vertex 7.79508 82.2553 0
    endloop
  endfacet
  facet normal 0.770493 0.637448 0
    outer loop
      vertex 10.2951 80.4389 21
      vertex 9.89484 80.9227 0
      vertex 9.89484 80.9227 21
    endloop
  endfacet
  facet normal 0.770493 0.637448 0
    outer loop
      vertex 9.89484 80.9227 0
      vertex 10.2951 80.4389 21
      vertex 10.2951 80.4389 0
    endloop
  endfacet
  facet normal 0.368192 -0.92975 0
    outer loop
      vertex 7.79508 -82.2553 0
      vertex 8.3789 -82.0241 21
      vertex 7.79508 -82.2553 21
    endloop
  endfacet
  facet normal 0.368192 -0.92975 0
    outer loop
      vertex 8.3789 -82.0241 21
      vertex 7.79508 -82.2553 0
      vertex 8.3789 -82.0241 0
    endloop
  endfacet
  facet normal -0.904811 -0.425812 0
    outer loop
      vertex -10.6315 -79.9088 0
      vertex -10.8989 -79.3406 21
      vertex -10.8989 -79.3406 0
    endloop
  endfacet
  facet normal -0.904811 -0.425812 0
    outer loop
      vertex -10.8989 -79.3406 21
      vertex -10.6315 -79.9088 0
      vertex -10.6315 -79.9088 21
    endloop
  endfacet
  facet normal -0.770493 -0.637448 0
    outer loop
      vertex -9.89484 -80.9227 0
      vertex -10.2951 -80.4389 21
      vertex -10.2951 -80.4389 0
    endloop
  endfacet
  facet normal -0.770493 -0.637448 0
    outer loop
      vertex -10.2951 -80.4389 21
      vertex -9.89484 -80.9227 0
      vertex -9.89484 -80.9227 21
    endloop
  endfacet
  facet normal 0 0 -1
    outer loop
      vertex 6.56395 -82.4901 0
      vertex 11.25 -77.5 0
      vertex 11.2106 -78.1267 0
    endloop
  endfacet
  facet normal 0 0 -1
    outer loop
      vertex 11.25 -77.5 0
      vertex -11.25 -77.5 0
      vertex 11.25 77.5 0
    endloop
  endfacet
  facet normal 0 0 -1
    outer loop
      vertex 6.56395 -82.4901 0
      vertex 11.2106 -78.1267 0
      vertex 11.0929 -78.7434 0
    endloop
  endfacet
  facet normal 0 0 -1
    outer loop
      vertex -11.25 77.5 0
      vertex 11.25 77.5 0
      vertex -11.25 -77.5 0
    endloop
  endfacet
  facet normal 0 0 -1
    outer loop
      vertex 6.56395 -82.4901 0
      vertex 11.0929 -78.7434 0
      vertex 10.8989 -79.3406 0
    endloop
  endfacet
  facet normal 0 -0 -1
    outer loop
      vertex 6.56395 82.4901 0
      vertex 11.25 77.5 0
      vertex -11.25 77.5 0
    endloop
  endfacet
  facet normal 0 0 -1
    outer loop
      vertex 6.56395 -82.4901 0
      vertex 10.8989 -79.3406 0
      vertex 10.6315 -79.9088 0
    endloop
  endfacet
  facet normal 0 0 -1
    outer loop
      vertex 11.25 77.5 0
      vertex 6.56395 82.4901 0
      vertex 11.2106 78.1267 0
    endloop
  endfacet
  facet normal 0 0 -1
    outer loop
      vertex 6.56395 -82.4901 0
      vertex 10.6315 -79.9088 0
      vertex 10.2951 -80.4389 0
    endloop
  endfacet
  facet normal 0 0 -1
    outer loop
      vertex 11.2106 78.1267 0
      vertex 6.56395 82.4901 0
      vertex 11.0929 78.7434 0
    endloop
  endfacet
  facet normal 0 0 -1
    outer loop
      vertex 6.56395 -82.4901 0
      vertex 10.2951 -80.4389 0
      vertex 9.89484 -80.9227 0
    endloop
  endfacet
  facet normal 0 0 -1
    outer loop
      vertex 11.0929 78.7434 0
      vertex 6.56395 82.4901 0
      vertex 10.8989 79.3406 0
    endloop
  endfacet
  facet normal 0 0 -1
    outer loop
      vertex 6.56395 -82.4901 0
      vertex 9.89484 -80.9227 0
      vertex 9.43712 -81.3526 0
    endloop
  endfacet
  facet normal 0 0 -1
    outer loop
      vertex 10.8989 79.3406 0
      vertex 6.56395 82.4901 0
      vertex 10.6315 79.9088 0
    endloop
  endfacet
  facet normal 0 0 -1
    outer loop
      vertex 6.56395 -82.4901 0
      vertex 9.43712 -81.3526 0
      vertex 8.92913 -81.7216 0
    endloop
  endfacet
  facet normal 0 0 -1
    outer loop
      vertex 10.6315 79.9088 0
      vertex 6.56395 82.4901 0
      vertex 10.2951 80.4389 0
    endloop
  endfacet
  facet normal 0 0 -1
    outer loop
      vertex 6.56395 -82.4901 0
      vertex 8.92913 -81.7216 0
      vertex 8.3789 -82.0241 0
    endloop
  endfacet
  facet normal 0 0 -1
    outer loop
      vertex 10.2951 80.4389 0
      vertex 6.56395 82.4901 0
      vertex 9.89484 80.9227 0
    endloop
  endfacet
  facet normal 0 0 -1
    outer loop
      vertex 6.56395 -82.4901 0
      vertex 8.3789 -82.0241 0
      vertex 7.79508 -82.2553 0
    endloop
  endfacet
  facet normal 0 0 -1
    outer loop
      vertex 9.89484 80.9227 0
      vertex 6.56395 82.4901 0
      vertex 9.43712 81.3526 0
    endloop
  endfacet
  facet normal 0 0 -1
    outer loop
      vertex 6.56395 -82.4901 0
      vertex 7.79508 -82.2553 0
      vertex 7.18691 -82.4114 0
    endloop
  endfacet
  facet normal 0 0 -1
    outer loop
      vertex 9.43712 81.3526 0
      vertex 6.56395 82.4901 0
      vertex 8.92913 81.7216 0
    endloop
  endfacet
  facet normal -0 0 -1
    outer loop
      vertex 11.25 -77.5 0
      vertex 6.56395 -82.4901 0
      vertex -11.25 -77.5 0
    endloop
  endfacet
  facet normal 0 0 -1
    outer loop
      vertex 8.92913 81.7216 0
      vertex 6.56395 82.4901 0
      vertex 8.3789 82.0241 0
    endloop
  endfacet
  facet normal 0 0 -1
    outer loop
      vertex -11.25 -77.5 0
      vertex 6.56395 -82.4901 0
      vertex -6.56395 -82.4901 0
    endloop
  endfacet
  facet normal 0 0 -1
    outer loop
      vertex 8.3789 82.0241 0
      vertex 6.56395 82.4901 0
      vertex 7.79508 82.2553 0
    endloop
  endfacet
  facet normal 0 0 -1
    outer loop
      vertex -11.25 -77.5 0
      vertex -6.56395 -82.4901 0
      vertex -7.18691 -82.4114 0
    endloop
  endfacet
  facet normal 0 0 -1
    outer loop
      vertex 7.79508 82.2553 0
      vertex 6.56395 82.4901 0
      vertex 7.18691 82.4114 0
    endloop
  endfacet
  facet normal 0 0 -1
    outer loop
      vertex -11.25 -77.5 0
      vertex -7.18691 -82.4114 0
      vertex -7.79508 -82.2553 0
    endloop
  endfacet
  facet normal -0 0 -1
    outer loop
      vertex 6.56395 82.4901 0
      vertex -11.25 77.5 0
      vertex -6.56395 82.4901 0
    endloop
  endfacet
  facet normal 0 0 -1
    outer loop
      vertex -11.25 -77.5 0
      vertex -7.79508 -82.2553 0
      vertex -8.3789 -82.0241 0
    endloop
  endfacet
  facet normal 0 0 -1
    outer loop
      vertex -6.56395 82.4901 0
      vertex -11.25 77.5 0
      vertex -7.18691 82.4114 0
    endloop
  endfacet
  facet normal 0 0 -1
    outer loop
      vertex -11.25 -77.5 0
      vertex -8.3789 -82.0241 0
      vertex -8.92913 -81.7216 0
    endloop
  endfacet
  facet normal 0 0 -1
    outer loop
      vertex -7.18691 82.4114 0
      vertex -11.25 77.5 0
      vertex -7.79508 82.2553 0
    endloop
  endfacet
  facet normal 0 0 -1
    outer loop
      vertex -11.25 -77.5 0
      vertex -8.92913 -81.7216 0
      vertex -9.43712 -81.3526 0
    endloop
  endfacet
  facet normal 0 0 -1
    outer loop
      vertex -7.79508 82.2553 0
      vertex -11.25 77.5 0
      vertex -8.3789 82.0241 0
    endloop
  endfacet
  facet normal 0 0 -1
    outer loop
      vertex -11.25 -77.5 0
      vertex -9.43712 -81.3526 0
      vertex -9.89484 -80.9227 0
    endloop
  endfacet
  facet normal 0 0 -1
    outer loop
      vertex -8.3789 82.0241 0
      vertex -11.25 77.5 0
      vertex -8.92913 81.7216 0
    endloop
  endfacet
  facet normal 0 0 -1
    outer loop
      vertex -11.25 -77.5 0
      vertex -9.89484 -80.9227 0
      vertex -10.2951 -80.4389 0
    endloop
  endfacet
  facet normal 0 0 -1
    outer loop
      vertex -8.92913 81.7216 0
      vertex -11.25 77.5 0
      vertex -9.43712 81.3526 0
    endloop
  endfacet
  facet normal 0 0 -1
    outer loop
      vertex -11.25 -77.5 0
      vertex -10.2951 -80.4389 0
      vertex -10.6315 -79.9088 0
    endloop
  endfacet
  facet normal 0 0 -1
    outer loop
      vertex -9.43712 81.3526 0
      vertex -11.25 77.5 0
      vertex -9.89484 80.9227 0
    endloop
  endfacet
  facet normal 0 0 -1
    outer loop
      vertex -11.25 -77.5 0
      vertex -10.6315 -79.9088 0
      vertex -10.8989 -79.3406 0
    endloop
  endfacet
  facet normal 0 0 -1
    outer loop
      vertex -9.89484 80.9227 0
      vertex -11.25 77.5 0
      vertex -10.2951 80.4389 0
    endloop
  endfacet
  facet normal 0 0 -1
    outer loop
      vertex -11.25 -77.5 0
      vertex -10.8989 -79.3406 0
      vertex -11.0929 -78.7434 0
    endloop
  endfacet
  facet normal 0 0 -1
    outer loop
      vertex -10.2951 80.4389 0
      vertex -11.25 77.5 0
      vertex -10.6315 79.9088 0
    endloop
  endfacet
  facet normal 0 0 -1
    outer loop
      vertex -11.25 -77.5 0
      vertex -11.0929 -78.7434 0
      vertex -11.2106 -78.1267 0
    endloop
  endfacet
  facet normal 0 0 -1
    outer loop
      vertex -10.6315 79.9088 0
      vertex -11.25 77.5 0
      vertex -10.8989 79.3406 0
    endloop
  endfacet
  facet normal 0 0 -1
    outer loop
      vertex -10.8989 79.3406 0
      vertex -11.25 77.5 0
      vertex -11.0929 78.7434 0
    endloop
  endfacet
  facet normal 0 0 -1
    outer loop
      vertex -11.0929 78.7434 0
      vertex -11.25 77.5 0
      vertex -11.2106 78.1267 0
    endloop
  endfacet
  facet normal -0.904811 0.425812 0
    outer loop
      vertex -10.8989 79.3406 0
      vertex -10.6315 79.9088 21
      vertex -10.6315 79.9088 0
    endloop
  endfacet
  facet normal -0.904811 0.425812 0
    outer loop
      vertex -10.6315 79.9088 21
      vertex -10.8989 79.3406 0
      vertex -10.8989 79.3406 21
    endloop
  endfacet
  facet normal 0.844336 -0.535814 0
    outer loop
      vertex 10.2951 -80.4389 21
      vertex 10.6315 -79.9088 0
      vertex 10.6315 -79.9088 21
    endloop
  endfacet
  facet normal 0.844336 -0.535814 0
    outer loop
      vertex 10.6315 -79.9088 0
      vertex 10.2951 -80.4389 21
      vertex 10.2951 -80.4389 0
    endloop
  endfacet
  facet normal 0.904811 -0.425812 0
    outer loop
      vertex 10.6315 -79.9088 21
      vertex 10.8989 -79.3406 0
      vertex 10.8989 -79.3406 21
    endloop
  endfacet
  facet normal 0.904811 -0.425812 0
    outer loop
      vertex 10.8989 -79.3406 0
      vertex 10.6315 -79.9088 21
      vertex 10.6315 -79.9088 0
    endloop
  endfacet
  facet normal 0.248613 0.968603 -0
    outer loop
      vertex 7.79508 82.2553 0
      vertex 7.18691 82.4114 21
      vertex 7.79508 82.2553 21
    endloop
  endfacet
  facet normal 0.248613 0.968603 0
    outer loop
      vertex 7.18691 82.4114 21
      vertex 7.79508 82.2553 0
      vertex 7.18691 82.4114 0
    endloop
  endfacet
  facet normal 0.587706 0.809075 -0
    outer loop
      vertex 9.43712 81.3526 0
      vertex 8.92913 81.7216 21
      vertex 9.43712 81.3526 21
    endloop
  endfacet
  facet normal 0.587706 0.809075 0
    outer loop
      vertex 8.92913 81.7216 21
      vertex 9.43712 81.3526 0
      vertex 8.92913 81.7216 0
    endloop
  endfacet
  facet normal 0.904811 0.425812 0
    outer loop
      vertex 10.8989 79.3406 21
      vertex 10.6315 79.9088 0
      vertex 10.6315 79.9088 21
    endloop
  endfacet
  facet normal 0.904811 0.425812 0
    outer loop
      vertex 10.6315 79.9088 0
      vertex 10.8989 79.3406 21
      vertex 10.8989 79.3406 0
    endloop
  endfacet
  facet normal 0.844336 0.535814 0
    outer loop
      vertex 10.6315 79.9088 21
      vertex 10.2951 80.4389 0
      vertex 10.2951 80.4389 21
    endloop
  endfacet
  facet normal 0.844336 0.535814 0
    outer loop
      vertex 10.2951 80.4389 0
      vertex 10.6315 79.9088 21
      vertex 10.6315 79.9088 0
    endloop
  endfacet
  facet normal 0.98227 0.187471 0
    outer loop
      vertex 11.2106 78.1267 21
      vertex 11.0929 78.7434 0
      vertex 11.0929 78.7434 21
    endloop
  endfacet
  facet normal 0.98227 0.187471 0
    outer loop
      vertex 11.0929 78.7434 0
      vertex 11.2106 78.1267 21
      vertex 11.2106 78.1267 0
    endloop
  endfacet
  facet normal 0.99803 0.0627451 0
    outer loop
      vertex 11.25 77.5 21
      vertex 11.2106 78.1267 0
      vertex 11.2106 78.1267 21
    endloop
  endfacet
  facet normal 0.99803 0.0627451 0
    outer loop
      vertex 11.2106 78.1267 0
      vertex 11.25 77.5 21
      vertex 11.25 77.5 0
    endloop
  endfacet
  facet normal -0.368192 -0.92975 0
    outer loop
      vertex -8.3789 -82.0241 0
      vertex -7.79508 -82.2553 21
      vertex -8.3789 -82.0241 21
    endloop
  endfacet
  facet normal -0.368192 -0.92975 -0
    outer loop
      vertex -7.79508 -82.2553 21
      vertex -8.3789 -82.0241 0
      vertex -7.79508 -82.2553 0
    endloop
  endfacet
  facet normal -0.951076 -0.308956 0
    outer loop
      vertex -10.8989 -79.3406 0
      vertex -11.0929 -78.7434 21
      vertex -11.0929 -78.7434 0
    endloop
  endfacet
  facet normal -0.951076 -0.308956 0
    outer loop
      vertex -11.0929 -78.7434 21
      vertex -10.8989 -79.3406 0
      vertex -10.8989 -79.3406 21
    endloop
  endfacet
  facet normal -0.587706 0.809075 0
    outer loop
      vertex -8.92913 81.7216 0
      vertex -9.43712 81.3526 21
      vertex -8.92913 81.7216 21
    endloop
  endfacet
  facet normal -0.587706 0.809075 0
    outer loop
      vertex -9.43712 81.3526 21
      vertex -8.92913 81.7216 0
      vertex -9.43712 81.3526 0
    endloop
  endfacet
  facet normal 0.587706 -0.809075 0
    outer loop
      vertex 8.92913 -81.7216 0
      vertex 9.43712 -81.3526 21
      vertex 8.92913 -81.7216 21
    endloop
  endfacet
  facet normal 0.587706 -0.809075 0
    outer loop
      vertex 9.43712 -81.3526 21
      vertex 8.92913 -81.7216 0
      vertex 9.43712 -81.3526 0
    endloop
  endfacet
  facet normal -0.587706 -0.809075 0
    outer loop
      vertex -9.43712 -81.3526 0
      vertex -8.92913 -81.7216 21
      vertex -9.43712 -81.3526 21
    endloop
  endfacet
  facet normal -0.587706 -0.809075 -0
    outer loop
      vertex -8.92913 -81.7216 21
      vertex -9.43712 -81.3526 0
      vertex -8.92913 -81.7216 0
    endloop
  endfacet
  facet normal -0.248613 -0.968603 0
    outer loop
      vertex -7.79508 -82.2553 0
      vertex -7.18691 -82.4114 21
      vertex -7.79508 -82.2553 21
    endloop
  endfacet
  facet normal -0.248613 -0.968603 -0
    outer loop
      vertex -7.18691 -82.4114 21
      vertex -7.79508 -82.2553 0
      vertex -7.18691 -82.4114 0
    endloop
  endfacet
  facet normal -0.125336 -0.992114 0
    outer loop
      vertex -7.18691 -82.4114 0
      vertex -6.56395 -82.4901 21
      vertex -7.18691 -82.4114 21
    endloop
  endfacet
  facet normal -0.125336 -0.992114 -0
    outer loop
      vertex -6.56395 -82.4901 21
      vertex -7.18691 -82.4114 0
      vertex -6.56395 -82.4901 0
    endloop
  endfacet
  facet normal -0.844336 -0.535814 0
    outer loop
      vertex -10.2951 -80.4389 0
      vertex -10.6315 -79.9088 21
      vertex -10.6315 -79.9088 0
    endloop
  endfacet
  facet normal -0.844336 -0.535814 0
    outer loop
      vertex -10.6315 -79.9088 21
      vertex -10.2951 -80.4389 0
      vertex -10.2951 -80.4389 21
    endloop
  endfacet
  facet normal -0.98227 -0.187471 0
    outer loop
      vertex -11.0929 -78.7434 0
      vertex -11.2106 -78.1267 21
      vertex -11.2106 -78.1267 0
    endloop
  endfacet
  facet normal -0.98227 -0.187471 0
    outer loop
      vertex -11.2106 -78.1267 21
      vertex -11.0929 -78.7434 0
      vertex -11.0929 -78.7434 21
    endloop
  endfacet
  facet normal -0.99803 -0.0627451 0
    outer loop
      vertex -11.2106 -78.1267 0
      vertex -11.25 -77.5 21
      vertex -11.25 -77.5 0
    endloop
  endfacet
  facet normal -0.99803 -0.0627451 0
    outer loop
      vertex -11.25 -77.5 21
      vertex -11.2106 -78.1267 0
      vertex -11.2106 -78.1267 21
    endloop
  endfacet
  facet normal -0.770493 0.637448 0
    outer loop
      vertex -10.2951 80.4389 0
      vertex -9.89484 80.9227 21
      vertex -9.89484 80.9227 0
    endloop
  endfacet
  facet normal -0.770493 0.637448 0
    outer loop
      vertex -9.89484 80.9227 21
      vertex -10.2951 80.4389 0
      vertex -10.2951 80.4389 21
    endloop
  endfacet
  facet normal -0.481764 -0.876301 0
    outer loop
      vertex -8.92913 -81.7216 0
      vertex -8.3789 -82.0241 21
      vertex -8.92913 -81.7216 21
    endloop
  endfacet
  facet normal -0.481764 -0.876301 -0
    outer loop
      vertex -8.3789 -82.0241 21
      vertex -8.92913 -81.7216 0
      vertex -8.3789 -82.0241 0
    endloop
  endfacet
  facet normal -0.844336 0.535814 0
    outer loop
      vertex -10.6315 79.9088 0
      vertex -10.2951 80.4389 21
      vertex -10.2951 80.4389 0
    endloop
  endfacet
  facet normal -0.844336 0.535814 0
    outer loop
      vertex -10.2951 80.4389 21
      vertex -10.6315 79.9088 0
      vertex -10.6315 79.9088 21
    endloop
  endfacet
  facet normal 0.125414 -0.992104 0
    outer loop
      vertex -6.99953 81.4291 2
      vertex -6.50116 81.4921 21
      vertex -6.99953 81.4291 21
    endloop
  endfacet
  facet normal 0.125414 -0.992104 0
    outer loop
      vertex -6.50116 81.4921 21
      vertex -6.99953 81.4291 2
      vertex -6.50116 81.4921 2
    endloop
  endfacet
  facet normal -0.125414 -0.992104 0
    outer loop
      vertex 6.50116 81.4921 2
      vertex 6.99953 81.4291 21
      vertex 6.50116 81.4921 21
    endloop
  endfacet
  facet normal -0.125414 -0.992104 -0
    outer loop
      vertex 6.99953 81.4291 21
      vertex 6.50116 81.4921 2
      vertex 6.99953 81.4291 2
    endloop
  endfacet
  facet normal 0 0 1
    outer loop
      vertex 6.50116 81.4921 2
      vertex 10.25 77.5 2
      vertex 10.2185 78.0013 2
    endloop
  endfacet
  facet normal 0 0 1
    outer loop
      vertex 10.25 77.5 2
      vertex -10.25 77.5 2
      vertex 10.25 -77.5 2
    endloop
  endfacet
  facet normal 0 0 1
    outer loop
      vertex 6.50116 81.4921 2
      vertex 10.2185 78.0013 2
      vertex 10.1243 78.4948 2
    endloop
  endfacet
  facet normal 0 0 1
    outer loop
      vertex -10.25 -77.5 2
      vertex 10.25 -77.5 2
      vertex -10.25 77.5 2
    endloop
  endfacet
  facet normal 0 0 1
    outer loop
      vertex 6.50116 81.4921 2
      vertex 10.1243 78.4948 2
      vertex 9.96911 78.9725 2
    endloop
  endfacet
  facet normal 0 -0 1
    outer loop
      vertex 6.50116 -81.4921 2
      vertex 10.25 -77.5 2
      vertex -10.25 -77.5 2
    endloop
  endfacet
  facet normal 0 0 1
    outer loop
      vertex 6.50116 81.4921 2
      vertex 9.96911 78.9725 2
      vertex 9.75523 79.427 2
    endloop
  endfacet
  facet normal 0 0 1
    outer loop
      vertex 10.25 -77.5 2
      vertex 6.50116 -81.4921 2
      vertex 10.2185 -78.0013 2
    endloop
  endfacet
  facet normal 0 0 1
    outer loop
      vertex 6.50116 81.4921 2
      vertex 9.75523 79.427 2
      vertex 9.48607 79.8511 2
    endloop
  endfacet
  facet normal 0 0 1
    outer loop
      vertex 10.2185 -78.0013 2
      vertex 6.50116 -81.4921 2
      vertex 10.1243 -78.4948 2
    endloop
  endfacet
  facet normal 0 0 1
    outer loop
      vertex 6.50116 81.4921 2
      vertex 9.48607 79.8511 2
      vertex 9.16587 80.2382 2
    endloop
  endfacet
  facet normal 0 0 1
    outer loop
      vertex 10.1243 -78.4948 2
      vertex 6.50116 -81.4921 2
      vertex 9.96911 -78.9725 2
    endloop
  endfacet
  facet normal 0 0 1
    outer loop
      vertex 6.50116 81.4921 2
      vertex 9.16587 80.2382 2
      vertex 8.7997 80.5821 2
    endloop
  endfacet
  facet normal 0 0 1
    outer loop
      vertex 9.96911 -78.9725 2
      vertex 6.50116 -81.4921 2
      vertex 9.75523 -79.427 2
    endloop
  endfacet
  facet normal 0 0 1
    outer loop
      vertex 6.50116 81.4921 2
      vertex 8.7997 80.5821 2
      vertex 8.39331 80.8773 2
    endloop
  endfacet
  facet normal 0 0 1
    outer loop
      vertex 9.75523 -79.427 2
      vertex 6.50116 -81.4921 2
      vertex 9.48607 -79.8511 2
    endloop
  endfacet
  facet normal 0 0 1
    outer loop
      vertex 6.50116 81.4921 2
      vertex 8.39331 80.8773 2
      vertex 7.95312 81.1193 2
    endloop
  endfacet
  facet normal 0 0 1
    outer loop
      vertex 9.48607 -79.8511 2
      vertex 6.50116 -81.4921 2
      vertex 9.16587 -80.2382 2
    endloop
  endfacet
  facet normal 0 0 1
    outer loop
      vertex 6.50116 81.4921 2
      vertex 7.95312 81.1193 2
      vertex 7.48607 81.3042 2
    endloop
  endfacet
  facet normal 0 0 1
    outer loop
      vertex 9.16587 -80.2382 2
      vertex 6.50116 -81.4921 2
      vertex 8.7997 -80.5821 2
    endloop
  endfacet
  facet normal 0 0 1
    outer loop
      vertex 6.50116 81.4921 2
      vertex 7.48607 81.3042 2
      vertex 6.99953 81.4291 2
    endloop
  endfacet
  facet normal 0 0 1
    outer loop
      vertex 8.7997 -80.5821 2
      vertex 6.50116 -81.4921 2
      vertex 8.39331 -80.8773 2
    endloop
  endfacet
  facet normal 0 0 1
    outer loop
      vertex 10.25 77.5 2
      vertex 6.50116 81.4921 2
      vertex -10.25 77.5 2
    endloop
  endfacet
  facet normal 0 0 1
    outer loop
      vertex 8.39331 -80.8773 2
      vertex 6.50116 -81.4921 2
      vertex 7.95312 -81.1193 2
    endloop
  endfacet
  facet normal 0 0 1
    outer loop
      vertex -10.25 77.5 2
      vertex 6.50116 81.4921 2
      vertex -6.50116 81.4921 2
    endloop
  endfacet
  facet normal 0 0 1
    outer loop
      vertex 7.95312 -81.1193 2
      vertex 6.50116 -81.4921 2
      vertex 7.48607 -81.3042 2
    endloop
  endfacet
  facet normal 0 0 1
    outer loop
      vertex -10.25 77.5 2
      vertex -6.50116 81.4921 2
      vertex -6.99953 81.4291 2
    endloop
  endfacet
  facet normal 0 0 1
    outer loop
      vertex 7.48607 -81.3042 2
      vertex 6.50116 -81.4921 2
      vertex 6.99953 -81.4291 2
    endloop
  endfacet
  facet normal 0 0 1
    outer loop
      vertex -10.25 77.5 2
      vertex -6.99953 81.4291 2
      vertex -7.48607 81.3042 2
    endloop
  endfacet
  facet normal 0 0 1
    outer loop
      vertex 6.50116 -81.4921 2
      vertex -10.25 -77.5 2
      vertex -6.50116 -81.4921 2
    endloop
  endfacet
  facet normal 0 0 1
    outer loop
      vertex -10.25 77.5 2
      vertex -7.48607 81.3042 2
      vertex -7.95312 81.1193 2
    endloop
  endfacet
  facet normal 0 0 1
    outer loop
      vertex -6.50116 -81.4921 2
      vertex -10.25 -77.5 2
      vertex -6.99953 -81.4291 2
    endloop
  endfacet
  facet normal 0 0 1
    outer loop
      vertex -10.25 77.5 2
      vertex -7.95312 81.1193 2
      vertex -8.39331 80.8773 2
    endloop
  endfacet
  facet normal 0 0 1
    outer loop
      vertex -6.99953 -81.4291 2
      vertex -10.25 -77.5 2
      vertex -7.48607 -81.3042 2
    endloop
  endfacet
  facet normal 0 0 1
    outer loop
      vertex -10.25 77.5 2
      vertex -8.39331 80.8773 2
      vertex -8.7997 80.5821 2
    endloop
  endfacet
  facet normal 0 0 1
    outer loop
      vertex -7.48607 -81.3042 2
      vertex -10.25 -77.5 2
      vertex -7.95312 -81.1193 2
    endloop
  endfacet
  facet normal 0 0 1
    outer loop
      vertex -10.25 77.5 2
      vertex -8.7997 80.5821 2
      vertex -9.16587 80.2382 2
    endloop
  endfacet
  facet normal 0 0 1
    outer loop
      vertex -7.95312 -81.1193 2
      vertex -10.25 -77.5 2
      vertex -8.39331 -80.8773 2
    endloop
  endfacet
  facet normal 0 0 1
    outer loop
      vertex -10.25 77.5 2
      vertex -9.16587 80.2382 2
      vertex -9.48607 79.8511 2
    endloop
  endfacet
  facet normal 0 0 1
    outer loop
      vertex -8.39331 -80.8773 2
      vertex -10.25 -77.5 2
      vertex -8.7997 -80.5821 2
    endloop
  endfacet
  facet normal 0 0 1
    outer loop
      vertex -10.25 77.5 2
      vertex -9.48607 79.8511 2
      vertex -9.75523 79.427 2
    endloop
  endfacet
  facet normal 0 0 1
    outer loop
      vertex -8.7997 -80.5821 2
      vertex -10.25 -77.5 2
      vertex -9.16587 -80.2382 2
    endloop
  endfacet
  facet normal 0 0 1
    outer loop
      vertex -10.25 77.5 2
      vertex -9.75523 79.427 2
      vertex -9.96911 78.9725 2
    endloop
  endfacet
  facet normal 0 0 1
    outer loop
      vertex -9.16587 -80.2382 2
      vertex -10.25 -77.5 2
      vertex -9.48607 -79.8511 2
    endloop
  endfacet
  facet normal 0 0 1
    outer loop
      vertex -10.25 77.5 2
      vertex -9.96911 78.9725 2
      vertex -10.1243 78.4948 2
    endloop
  endfacet
  facet normal 0 0 1
    outer loop
      vertex -9.48607 -79.8511 2
      vertex -10.25 -77.5 2
      vertex -9.75523 -79.427 2
    endloop
  endfacet
  facet normal 0 0 1
    outer loop
      vertex -10.25 77.5 2
      vertex -10.1243 78.4948 2
      vertex -10.2185 78.0013 2
    endloop
  endfacet
  facet normal 0 0 1
    outer loop
      vertex -9.75523 -79.427 2
      vertex -10.25 -77.5 2
      vertex -9.96911 -78.9725 2
    endloop
  endfacet
  facet normal 0 0 1
    outer loop
      vertex -9.96911 -78.9725 2
      vertex -10.25 -77.5 2
      vertex -10.1243 -78.4948 2
    endloop
  endfacet
  facet normal 0 0 1
    outer loop
      vertex -10.1243 -78.4948 2
      vertex -10.25 -77.5 2
      vertex -10.2185 -78.0013 2
    endloop
  endfacet
  facet normal 0.248648 -0.968594 0
    outer loop
      vertex -7.48607 81.3042 2
      vertex -6.99953 81.4291 21
      vertex -7.48607 81.3042 21
    endloop
  endfacet
  facet normal 0.248648 -0.968594 0
    outer loop
      vertex -6.99953 81.4291 21
      vertex -7.48607 81.3042 2
      vertex -6.99953 81.4291 2
    endloop
  endfacet
  facet normal 0 -1 0
    outer loop
      vertex -6.50116 81.4921 2
      vertex 6.50116 81.4921 21
      vertex -6.50116 81.4921 21
    endloop
  endfacet
  facet normal 0 -1 -0
    outer loop
      vertex 6.50116 81.4921 21
      vertex -6.50116 81.4921 2
      vertex 6.50116 81.4921 2
    endloop
  endfacet
  facet normal -0.844312 0.535852 0
    outer loop
      vertex 9.48607 -79.8511 2
      vertex 9.75523 -79.427 21
      vertex 9.75523 -79.427 2
    endloop
  endfacet
  facet normal -0.844312 0.535852 0
    outer loop
      vertex 9.75523 -79.427 21
      vertex 9.48607 -79.8511 2
      vertex 9.48607 -79.8511 21
    endloop
  endfacet
  facet normal 0.998032 -0.0627129 0
    outer loop
      vertex -10.25 77.5 21
      vertex -10.2185 78.0013 2
      vertex -10.2185 78.0013 21
    endloop
  endfacet
  facet normal 0.998032 -0.0627129 0
    outer loop
      vertex -10.2185 78.0013 2
      vertex -10.25 77.5 21
      vertex -10.25 77.5 2
    endloop
  endfacet
  facet normal 0.770549 -0.63738 0
    outer loop
      vertex -9.48607 79.8511 21
      vertex -9.16587 80.2382 2
      vertex -9.16587 80.2382 21
    endloop
  endfacet
  facet normal 0.770549 -0.63738 0
    outer loop
      vertex -9.16587 80.2382 2
      vertex -9.48607 79.8511 21
      vertex -9.48607 79.8511 2
    endloop
  endfacet
  facet normal 0.998032 0.0627129 0
    outer loop
      vertex -10.2185 -78.0013 21
      vertex -10.25 -77.5 2
      vertex -10.25 -77.5 21
    endloop
  endfacet
  facet normal 0.998032 0.0627129 0
    outer loop
      vertex -10.25 -77.5 2
      vertex -10.2185 -78.0013 21
      vertex -10.2185 -78.0013 2
    endloop
  endfacet
  facet normal -0.770549 -0.63738 0
    outer loop
      vertex 9.48607 79.8511 2
      vertex 9.16587 80.2382 21
      vertex 9.16587 80.2382 2
    endloop
  endfacet
  facet normal -0.770549 -0.63738 0
    outer loop
      vertex 9.16587 80.2382 21
      vertex 9.48607 79.8511 2
      vertex 9.48607 79.8511 21
    endloop
  endfacet
  facet normal 1 -0 0
    outer loop
      vertex -10.25 -77.5 21
      vertex -10.25 77.5 2
      vertex -10.25 77.5 21
    endloop
  endfacet
  facet normal 1 0 0
    outer loop
      vertex -10.25 77.5 2
      vertex -10.25 -77.5 21
      vertex -10.25 -77.5 2
    endloop
  endfacet
  facet normal 0.481759 -0.876304 0
    outer loop
      vertex -8.39331 80.8773 2
      vertex -7.95312 81.1193 21
      vertex -8.39331 80.8773 21
    endloop
  endfacet
  facet normal 0.481759 -0.876304 0
    outer loop
      vertex -7.95312 81.1193 21
      vertex -8.39331 80.8773 2
      vertex -7.95312 81.1193 2
    endloop
  endfacet
  facet normal 0.770549 0.63738 0
    outer loop
      vertex -9.16587 -80.2382 21
      vertex -9.48607 -79.8511 2
      vertex -9.48607 -79.8511 21
    endloop
  endfacet
  facet normal 0.770549 0.63738 0
    outer loop
      vertex -9.48607 -79.8511 2
      vertex -9.16587 -80.2382 21
      vertex -9.16587 -80.2382 2
    endloop
  endfacet
  facet normal -1 0 0
    outer loop
      vertex 10.25 -77.5 2
      vertex 10.25 77.5 21
      vertex 10.25 77.5 2
    endloop
  endfacet
  facet normal -1 -0 0
    outer loop
      vertex 10.25 77.5 21
      vertex 10.25 -77.5 2
      vertex 10.25 -77.5 21
    endloop
  endfacet
  facet normal 0.904821 -0.425793 0
    outer loop
      vertex -9.96911 78.9725 21
      vertex -9.75523 79.427 2
      vertex -9.75523 79.427 21
    endloop
  endfacet
  facet normal 0.904821 -0.425793 0
    outer loop
      vertex -9.75523 79.427 2
      vertex -9.96911 78.9725 21
      vertex -9.96911 78.9725 2
    endloop
  endfacet
  facet normal 0.951071 -0.308974 0
    outer loop
      vertex -10.1243 78.4948 21
      vertex -9.96911 78.9725 2
      vertex -9.96911 78.9725 21
    endloop
  endfacet
  facet normal 0.951071 -0.308974 0
    outer loop
      vertex -9.96911 78.9725 2
      vertex -10.1243 78.4948 21
      vertex -10.1243 78.4948 2
    endloop
  endfacet
  facet normal 0.844312 -0.535852 0
    outer loop
      vertex -9.75523 79.427 21
      vertex -9.48607 79.8511 2
      vertex -9.48607 79.8511 21
    endloop
  endfacet
  facet normal 0.844312 -0.535852 0
    outer loop
      vertex -9.48607 79.8511 2
      vertex -9.75523 79.427 21
      vertex -9.75523 79.427 2
    endloop
  endfacet
  facet normal -0.368093 -0.929789 0
    outer loop
      vertex 7.48607 81.3042 2
      vertex 7.95312 81.1193 21
      vertex 7.48607 81.3042 21
    endloop
  endfacet
  facet normal -0.368093 -0.929789 -0
    outer loop
      vertex 7.95312 81.1193 21
      vertex 7.48607 81.3042 2
      vertex 7.95312 81.1193 2
    endloop
  endfacet
  facet normal -0.951071 -0.308974 0
    outer loop
      vertex 10.1243 78.4948 2
      vertex 9.96911 78.9725 21
      vertex 9.96911 78.9725 2
    endloop
  endfacet
  facet normal -0.951071 -0.308974 0
    outer loop
      vertex 9.96911 78.9725 21
      vertex 10.1243 78.4948 2
      vertex 10.1243 78.4948 21
    endloop
  endfacet
  facet normal 0.125414 0.992104 -0
    outer loop
      vertex -6.50116 -81.4921 2
      vertex -6.99953 -81.4291 21
      vertex -6.50116 -81.4921 21
    endloop
  endfacet
  facet normal 0.125414 0.992104 0
    outer loop
      vertex -6.99953 -81.4291 21
      vertex -6.50116 -81.4921 2
      vertex -6.99953 -81.4291 2
    endloop
  endfacet
  facet normal -0.125414 0.992104 0
    outer loop
      vertex 6.99953 -81.4291 2
      vertex 6.50116 -81.4921 21
      vertex 6.99953 -81.4291 21
    endloop
  endfacet
  facet normal -0.125414 0.992104 0
    outer loop
      vertex 6.50116 -81.4921 21
      vertex 6.99953 -81.4291 2
      vertex 6.50116 -81.4921 2
    endloop
  endfacet
  facet normal 0 1 -0
    outer loop
      vertex 6.50116 -81.4921 2
      vertex -6.50116 -81.4921 21
      vertex 6.50116 -81.4921 21
    endloop
  endfacet
  facet normal 0 1 0
    outer loop
      vertex -6.50116 -81.4921 21
      vertex 6.50116 -81.4921 2
      vertex -6.50116 -81.4921 2
    endloop
  endfacet
  facet normal 0.368093 -0.929789 0
    outer loop
      vertex -7.95312 81.1193 2
      vertex -7.48607 81.3042 21
      vertex -7.95312 81.1193 21
    endloop
  endfacet
  facet normal 0.368093 -0.929789 0
    outer loop
      vertex -7.48607 81.3042 21
      vertex -7.95312 81.1193 2
      vertex -7.48607 81.3042 2
    endloop
  endfacet
  facet normal 0.684593 -0.728925 0
    outer loop
      vertex -9.16587 80.2382 2
      vertex -8.7997 80.5821 21
      vertex -9.16587 80.2382 21
    endloop
  endfacet
  facet normal 0.684593 -0.728925 0
    outer loop
      vertex -8.7997 80.5821 21
      vertex -9.16587 80.2382 2
      vertex -8.7997 80.5821 2
    endloop
  endfacet
  facet normal 0.587708 -0.809073 0
    outer loop
      vertex -8.7997 80.5821 2
      vertex -8.39331 80.8773 21
      vertex -8.7997 80.5821 21
    endloop
  endfacet
  facet normal 0.587708 -0.809073 0
    outer loop
      vertex -8.39331 80.8773 21
      vertex -8.7997 80.5821 2
      vertex -8.39331 80.8773 2
    endloop
  endfacet
  facet normal 0.982265 -0.187496 0
    outer loop
      vertex -10.2185 78.0013 21
      vertex -10.1243 78.4948 2
      vertex -10.1243 78.4948 21
    endloop
  endfacet
  facet normal 0.982265 -0.187496 0
    outer loop
      vertex -10.1243 78.4948 2
      vertex -10.2185 78.0013 21
      vertex -10.2185 78.0013 2
    endloop
  endfacet
  facet normal -0.248648 -0.968594 0
    outer loop
      vertex 6.99953 81.4291 2
      vertex 7.48607 81.3042 21
      vertex 6.99953 81.4291 21
    endloop
  endfacet
  facet normal -0.248648 -0.968594 -0
    outer loop
      vertex 7.48607 81.3042 21
      vertex 6.99953 81.4291 2
      vertex 7.48607 81.3042 2
    endloop
  endfacet
  facet normal 0.481759 0.876304 -0
    outer loop
      vertex -7.95312 -81.1193 2
      vertex -8.39331 -80.8773 21
      vertex -7.95312 -81.1193 21
    endloop
  endfacet
  facet normal 0.481759 0.876304 0
    outer loop
      vertex -8.39331 -80.8773 21
      vertex -7.95312 -81.1193 2
      vertex -8.39331 -80.8773 2
    endloop
  endfacet
  facet normal 0.248648 0.968594 -0
    outer loop
      vertex -6.99953 -81.4291 2
      vertex -7.48607 -81.3042 21
      vertex -6.99953 -81.4291 21
    endloop
  endfacet
  facet normal 0.248648 0.968594 0
    outer loop
      vertex -7.48607 -81.3042 21
      vertex -6.99953 -81.4291 2
      vertex -7.48607 -81.3042 2
    endloop
  endfacet
  facet normal -0.770549 0.63738 0
    outer loop
      vertex 9.16587 -80.2382 2
      vertex 9.48607 -79.8511 21
      vertex 9.48607 -79.8511 2
    endloop
  endfacet
  facet normal -0.770549 0.63738 0
    outer loop
      vertex 9.48607 -79.8511 21
      vertex 9.16587 -80.2382 2
      vertex 9.16587 -80.2382 21
    endloop
  endfacet
  facet normal -0.904821 -0.425793 0
    outer loop
      vertex 9.96911 78.9725 2
      vertex 9.75523 79.427 21
      vertex 9.75523 79.427 2
    endloop
  endfacet
  facet normal -0.904821 -0.425793 0
    outer loop
      vertex 9.75523 79.427 21
      vertex 9.96911 78.9725 2
      vertex 9.96911 78.9725 21
    endloop
  endfacet
  facet normal -0.248648 0.968594 0
    outer loop
      vertex 7.48607 -81.3042 2
      vertex 6.99953 -81.4291 21
      vertex 7.48607 -81.3042 21
    endloop
  endfacet
  facet normal -0.248648 0.968594 0
    outer loop
      vertex 6.99953 -81.4291 21
      vertex 7.48607 -81.3042 2
      vertex 6.99953 -81.4291 2
    endloop
  endfacet
  facet normal 0.982265 0.187496 0
    outer loop
      vertex -10.1243 -78.4948 21
      vertex -10.2185 -78.0013 2
      vertex -10.2185 -78.0013 21
    endloop
  endfacet
  facet normal 0.982265 0.187496 0
    outer loop
      vertex -10.2185 -78.0013 2
      vertex -10.1243 -78.4948 21
      vertex -10.1243 -78.4948 2
    endloop
  endfacet
  facet normal 0.684593 0.728925 -0
    outer loop
      vertex -8.7997 -80.5821 2
      vertex -9.16587 -80.2382 21
      vertex -8.7997 -80.5821 21
    endloop
  endfacet
  facet normal 0.684593 0.728925 0
    outer loop
      vertex -9.16587 -80.2382 21
      vertex -8.7997 -80.5821 2
      vertex -9.16587 -80.2382 2
    endloop
  endfacet
  facet normal -0.998032 0.0627129 0
    outer loop
      vertex 10.2185 -78.0013 2
      vertex 10.25 -77.5 21
      vertex 10.25 -77.5 2
    endloop
  endfacet
  facet normal -0.998032 0.0627129 0
    outer loop
      vertex 10.25 -77.5 21
      vertex 10.2185 -78.0013 2
      vertex 10.2185 -78.0013 21
    endloop
  endfacet
  facet normal -0.904821 0.425793 0
    outer loop
      vertex 9.75523 -79.427 2
      vertex 9.96911 -78.9725 21
      vertex 9.96911 -78.9725 2
    endloop
  endfacet
  facet normal -0.904821 0.425793 0
    outer loop
      vertex 9.96911 -78.9725 21
      vertex 9.75523 -79.427 2
      vertex 9.75523 -79.427 21
    endloop
  endfacet
  facet normal -0.951071 0.308974 0
    outer loop
      vertex 9.96911 -78.9725 2
      vertex 10.1243 -78.4948 21
      vertex 10.1243 -78.4948 2
    endloop
  endfacet
  facet normal -0.951071 0.308974 0
    outer loop
      vertex 10.1243 -78.4948 21
      vertex 9.96911 -78.9725 2
      vertex 9.96911 -78.9725 21
    endloop
  endfacet
  facet normal -0.368093 0.929789 0
    outer loop
      vertex 7.95312 -81.1193 2
      vertex 7.48607 -81.3042 21
      vertex 7.95312 -81.1193 21
    endloop
  endfacet
  facet normal -0.368093 0.929789 0
    outer loop
      vertex 7.48607 -81.3042 21
      vertex 7.95312 -81.1193 2
      vertex 7.48607 -81.3042 2
    endloop
  endfacet
  facet normal -0.844312 -0.535852 0
    outer loop
      vertex 9.75523 79.427 2
      vertex 9.48607 79.8511 21
      vertex 9.48607 79.8511 2
    endloop
  endfacet
  facet normal -0.844312 -0.535852 0
    outer loop
      vertex 9.48607 79.8511 21
      vertex 9.75523 79.427 2
      vertex 9.75523 79.427 21
    endloop
  endfacet
  facet normal -0.982265 -0.187496 0
    outer loop
      vertex 10.2185 78.0013 2
      vertex 10.1243 78.4948 21
      vertex 10.1243 78.4948 2
    endloop
  endfacet
  facet normal -0.982265 -0.187496 0
    outer loop
      vertex 10.1243 78.4948 21
      vertex 10.2185 78.0013 2
      vertex 10.2185 78.0013 21
    endloop
  endfacet
  facet normal -0.998032 -0.0627129 0
    outer loop
      vertex 10.25 77.5 2
      vertex 10.2185 78.0013 21
      vertex 10.2185 78.0013 2
    endloop
  endfacet
  facet normal -0.998032 -0.0627129 0
    outer loop
      vertex 10.2185 78.0013 21
      vertex 10.25 77.5 2
      vertex 10.25 77.5 21
    endloop
  endfacet
  facet normal -0.587708 -0.809073 0
    outer loop
      vertex 8.39331 80.8773 2
      vertex 8.7997 80.5821 21
      vertex 8.39331 80.8773 21
    endloop
  endfacet
  facet normal -0.587708 -0.809073 -0
    outer loop
      vertex 8.7997 80.5821 21
      vertex 8.39331 80.8773 2
      vertex 8.7997 80.5821 2
    endloop
  endfacet
  facet normal -0.684593 -0.728925 0
    outer loop
      vertex 8.7997 80.5821 2
      vertex 9.16587 80.2382 21
      vertex 8.7997 80.5821 21
    endloop
  endfacet
  facet normal -0.684593 -0.728925 -0
    outer loop
      vertex 9.16587 80.2382 21
      vertex 8.7997 80.5821 2
      vertex 9.16587 80.2382 2
    endloop
  endfacet
  facet normal -0.481759 -0.876304 0
    outer loop
      vertex 7.95312 81.1193 2
      vertex 8.39331 80.8773 21
      vertex 7.95312 81.1193 21
    endloop
  endfacet
  facet normal -0.481759 -0.876304 -0
    outer loop
      vertex 8.39331 80.8773 21
      vertex 7.95312 81.1193 2
      vertex 8.39331 80.8773 2
    endloop
  endfacet
  facet normal 0.951071 0.308974 0
    outer loop
      vertex -9.96911 -78.9725 21
      vertex -10.1243 -78.4948 2
      vertex -10.1243 -78.4948 21
    endloop
  endfacet
  facet normal 0.951071 0.308974 0
    outer loop
      vertex -10.1243 -78.4948 2
      vertex -9.96911 -78.9725 21
      vertex -9.96911 -78.9725 2
    endloop
  endfacet
  facet normal -0.982265 0.187496 0
    outer loop
      vertex 10.1243 -78.4948 2
      vertex 10.2185 -78.0013 21
      vertex 10.2185 -78.0013 2
    endloop
  endfacet
  facet normal -0.982265 0.187496 0
    outer loop
      vertex 10.2185 -78.0013 21
      vertex 10.1243 -78.4948 2
      vertex 10.1243 -78.4948 21
    endloop
  endfacet
  facet normal -0.587708 0.809073 0
    outer loop
      vertex 8.7997 -80.5821 2
      vertex 8.39331 -80.8773 21
      vertex 8.7997 -80.5821 21
    endloop
  endfacet
  facet normal -0.587708 0.809073 0
    outer loop
      vertex 8.39331 -80.8773 21
      vertex 8.7997 -80.5821 2
      vertex 8.39331 -80.8773 2
    endloop
  endfacet
  facet normal -0.481759 0.876304 0
    outer loop
      vertex 8.39331 -80.8773 2
      vertex 7.95312 -81.1193 21
      vertex 8.39331 -80.8773 21
    endloop
  endfacet
  facet normal -0.481759 0.876304 0
    outer loop
      vertex 7.95312 -81.1193 21
      vertex 8.39331 -80.8773 2
      vertex 7.95312 -81.1193 2
    endloop
  endfacet
  facet normal -0.684593 0.728925 0
    outer loop
      vertex 9.16587 -80.2382 2
      vertex 8.7997 -80.5821 21
      vertex 9.16587 -80.2382 21
    endloop
  endfacet
  facet normal -0.684593 0.728925 0
    outer loop
      vertex 8.7997 -80.5821 21
      vertex 9.16587 -80.2382 2
      vertex 8.7997 -80.5821 2
    endloop
  endfacet
  facet normal 0.904821 0.425793 0
    outer loop
      vertex -9.75523 -79.427 21
      vertex -9.96911 -78.9725 2
      vertex -9.96911 -78.9725 21
    endloop
  endfacet
  facet normal 0.904821 0.425793 0
    outer loop
      vertex -9.96911 -78.9725 2
      vertex -9.75523 -79.427 21
      vertex -9.75523 -79.427 2
    endloop
  endfacet
  facet normal 0.587708 0.809073 -0
    outer loop
      vertex -8.39331 -80.8773 2
      vertex -8.7997 -80.5821 21
      vertex -8.39331 -80.8773 21
    endloop
  endfacet
  facet normal 0.587708 0.809073 0
    outer loop
      vertex -8.7997 -80.5821 21
      vertex -8.39331 -80.8773 2
      vertex -8.7997 -80.5821 2
    endloop
  endfacet
  facet normal 0.844312 0.535852 0
    outer loop
      vertex -9.48607 -79.8511 21
      vertex -9.75523 -79.427 2
      vertex -9.75523 -79.427 21
    endloop
  endfacet
  facet normal 0.844312 0.535852 0
    outer loop
      vertex -9.75523 -79.427 2
      vertex -9.48607 -79.8511 21
      vertex -9.48607 -79.8511 2
    endloop
  endfacet
  facet normal 0.368093 0.929789 -0
    outer loop
      vertex -7.48607 -81.3042 2
      vertex -7.95312 -81.1193 21
      vertex -7.48607 -81.3042 21
    endloop
  endfacet
  facet normal 0.368093 0.929789 0
    outer loop
      vertex -7.95312 -81.1193 21
      vertex -7.48607 -81.3042 2
      vertex -7.95312 -81.1193 2
    endloop
  endfacet
endsolid OpenSCAD_Model
