solid OpenSCAD_Model
  facet normal 0 1 -0
    outer loop
      vertex 62.814 74.9901 0
      vertex -62.814 74.9901 21
      vertex 62.814 74.9901 21
    endloop
  endfacet
  facet normal 0 1 0
    outer loop
      vertex -62.814 74.9901 21
      vertex 62.814 74.9901 0
      vertex -62.814 74.9901 0
    endloop
  endfacet
  facet normal 0.684624 0.728896 -0
    outer loop
      vertex 66.1448 73.4227 0
      vertex 65.6871 73.8526 21
      vertex 66.1448 73.4227 21
    endloop
  endfacet
  facet normal 0.684624 0.728896 0
    outer loop
      vertex 65.6871 73.8526 21
      vertex 66.1448 73.4227 0
      vertex 65.6871 73.8526 0
    endloop
  endfacet
  facet normal -0.125348 0.992113 0
    outer loop
      vertex -62.814 74.9901 0
      vertex -63.4369 74.9114 21
      vertex -62.814 74.9901 21
    endloop
  endfacet
  facet normal -0.125348 0.992113 0
    outer loop
      vertex -63.4369 74.9114 21
      vertex -62.814 74.9901 0
      vertex -63.4369 74.9114 0
    endloop
  endfacet
  facet normal 0 -1 0
    outer loop
      vertex -62.814 -74.9901 0
      vertex 62.814 -74.9901 21
      vertex -62.814 -74.9901 21
    endloop
  endfacet
  facet normal 0 -1 -0
    outer loop
      vertex 62.814 -74.9901 21
      vertex -62.814 -74.9901 0
      vertex 62.814 -74.9901 0
    endloop
  endfacet
  facet normal 0.125348 0.992113 -0
    outer loop
      vertex 63.4369 74.9114 0
      vertex 62.814 74.9901 21
      vertex 63.4369 74.9114 21
    endloop
  endfacet
  facet normal 0.125348 0.992113 0
    outer loop
      vertex 62.814 74.9901 21
      vertex 63.4369 74.9114 0
      vertex 62.814 74.9901 0
    endloop
  endfacet
  facet normal 0.99803 0.0627451 0
    outer loop
      vertex 67.5 70 21
      vertex 67.4606 70.6267 0
      vertex 67.4606 70.6267 21
    endloop
  endfacet
  facet normal 0.99803 0.0627451 0
    outer loop
      vertex 67.4606 70.6267 0
      vertex 67.5 70 21
      vertex 67.5 70 0
    endloop
  endfacet
  facet normal 1 -0 0
    outer loop
      vertex 67.5 -70 21
      vertex 67.5 70 0
      vertex 67.5 70 21
    endloop
  endfacet
  facet normal 1 0 0
    outer loop
      vertex 67.5 70 0
      vertex 67.5 -70 21
      vertex 67.5 -70 0
    endloop
  endfacet
  facet normal -0.684624 0.728896 0
    outer loop
      vertex -65.6871 73.8526 0
      vertex -66.1448 73.4227 21
      vertex -65.6871 73.8526 21
    endloop
  endfacet
  facet normal -0.684624 0.728896 0
    outer loop
      vertex -66.1448 73.4227 21
      vertex -65.6871 73.8526 0
      vertex -66.1448 73.4227 0
    endloop
  endfacet
  facet normal 0.951076 0.308956 0
    outer loop
      vertex 67.3429 71.2434 21
      vertex 67.1489 71.8406 0
      vertex 67.1489 71.8406 21
    endloop
  endfacet
  facet normal 0.951076 0.308956 0
    outer loop
      vertex 67.1489 71.8406 0
      vertex 67.3429 71.2434 21
      vertex 67.3429 71.2434 0
    endloop
  endfacet
  facet normal -0.368203 0.929745 0
    outer loop
      vertex -64.0451 74.7553 0
      vertex -64.6289 74.5241 21
      vertex -64.0451 74.7553 21
    endloop
  endfacet
  facet normal -0.368203 0.929745 0
    outer loop
      vertex -64.6289 74.5241 21
      vertex -64.0451 74.7553 0
      vertex -64.6289 74.5241 0
    endloop
  endfacet
  facet normal -1 0 0
    outer loop
      vertex -67.5 -70 0
      vertex -67.5 70 21
      vertex -67.5 70 0
    endloop
  endfacet
  facet normal -1 -0 0
    outer loop
      vertex -67.5 70 21
      vertex -67.5 -70 0
      vertex -67.5 -70 21
    endloop
  endfacet
  facet normal -0.99803 0.0627451 0
    outer loop
      vertex -67.5 70 0
      vertex -67.4606 70.6267 21
      vertex -67.4606 70.6267 0
    endloop
  endfacet
  facet normal -0.99803 0.0627451 0
    outer loop
      vertex -67.4606 70.6267 21
      vertex -67.5 70 0
      vertex -67.5 70 21
    endloop
  endfacet
  facet normal -0.98227 0.187471 0
    outer loop
      vertex -67.4606 70.6267 0
      vertex -67.3429 71.2434 21
      vertex -67.3429 71.2434 0
    endloop
  endfacet
  facet normal -0.98227 0.187471 0
    outer loop
      vertex -67.3429 71.2434 21
      vertex -67.4606 70.6267 0
      vertex -67.4606 70.6267 21
    endloop
  endfacet
  facet normal 0.770462 0.637486 0
    outer loop
      vertex 66.5451 72.9389 21
      vertex 66.1448 73.4227 0
      vertex 66.1448 73.4227 21
    endloop
  endfacet
  facet normal 0.770462 0.637486 0
    outer loop
      vertex 66.1448 73.4227 0
      vertex 66.5451 72.9389 21
      vertex 66.5451 72.9389 0
    endloop
  endfacet
  facet normal 0.98227 0.187471 0
    outer loop
      vertex 67.4606 70.6267 21
      vertex 67.3429 71.2434 0
      vertex 67.3429 71.2434 21
    endloop
  endfacet
  facet normal 0.98227 0.187471 0
    outer loop
      vertex 67.3429 71.2434 0
      vertex 67.4606 70.6267 21
      vertex 67.4606 70.6267 0
    endloop
  endfacet
  facet normal -0.248601 0.968606 0
    outer loop
      vertex -63.4369 74.9114 0
      vertex -64.0451 74.7553 21
      vertex -63.4369 74.9114 21
    endloop
  endfacet
  facet normal -0.248601 0.968606 0
    outer loop
      vertex -64.0451 74.7553 21
      vertex -63.4369 74.9114 0
      vertex -64.0451 74.7553 0
    endloop
  endfacet
  facet normal 0.770462 -0.637486 0
    outer loop
      vertex 66.1448 -73.4227 21
      vertex 66.5451 -72.9389 0
      vertex 66.5451 -72.9389 21
    endloop
  endfacet
  facet normal 0.770462 -0.637486 0
    outer loop
      vertex 66.5451 -72.9389 0
      vertex 66.1448 -73.4227 21
      vertex 66.1448 -73.4227 0
    endloop
  endfacet
  facet normal 0.951076 -0.308956 0
    outer loop
      vertex 67.1489 -71.8406 21
      vertex 67.3429 -71.2434 0
      vertex 67.3429 -71.2434 21
    endloop
  endfacet
  facet normal 0.951076 -0.308956 0
    outer loop
      vertex 67.3429 -71.2434 0
      vertex 67.1489 -71.8406 21
      vertex 67.1489 -71.8406 0
    endloop
  endfacet
  facet normal -0.248601 -0.968606 0
    outer loop
      vertex -64.0451 -74.7553 0
      vertex -63.4369 -74.9114 21
      vertex -64.0451 -74.7553 21
    endloop
  endfacet
  facet normal -0.248601 -0.968606 -0
    outer loop
      vertex -63.4369 -74.9114 21
      vertex -64.0451 -74.7553 0
      vertex -63.4369 -74.9114 0
    endloop
  endfacet
  facet normal 0 0 1
    outer loop
      vertex 66.5 70 21
      vertex 67.5 70 21
      vertex 67.4606 70.6267 21
    endloop
  endfacet
  facet normal 0 0 1
    outer loop
      vertex 67.5 70 21
      vertex 66.5 70 21
      vertex 67.5 -70 21
    endloop
  endfacet
  facet normal 0 0 1
    outer loop
      vertex 66.4685 70.5013 21
      vertex 67.4606 70.6267 21
      vertex 67.3429 71.2434 21
    endloop
  endfacet
  facet normal 0 0 1
    outer loop
      vertex 66.5 -70 21
      vertex 67.5 -70 21
      vertex 66.5 70 21
    endloop
  endfacet
  facet normal 0 0 1
    outer loop
      vertex 66.3743 70.9948 21
      vertex 67.3429 71.2434 21
      vertex 67.1489 71.8406 21
    endloop
  endfacet
  facet normal 0 0 1
    outer loop
      vertex 67.5 -70 21
      vertex 66.5 -70 21
      vertex 67.4606 -70.6267 21
    endloop
  endfacet
  facet normal 0 0 1
    outer loop
      vertex 66.2191 71.4725 21
      vertex 67.1489 71.8406 21
      vertex 66.8815 72.4088 21
    endloop
  endfacet
  facet normal -0 0 1
    outer loop
      vertex 66.4685 -70.5013 21
      vertex 67.4606 -70.6267 21
      vertex 66.5 -70 21
    endloop
  endfacet
  facet normal 0 0 1
    outer loop
      vertex 66.0052 71.927 21
      vertex 66.8815 72.4088 21
      vertex 66.5451 72.9389 21
    endloop
  endfacet
  facet normal 0 0 1
    outer loop
      vertex 67.4606 -70.6267 21
      vertex 66.4685 -70.5013 21
      vertex 67.3429 -71.2434 21
    endloop
  endfacet
  facet normal -0 0 1
    outer loop
      vertex 66.3743 -70.9948 21
      vertex 67.3429 -71.2434 21
      vertex 66.4685 -70.5013 21
    endloop
  endfacet
  facet normal 0 0 1
    outer loop
      vertex 67.4606 70.6267 21
      vertex 66.4685 70.5013 21
      vertex 66.5 70 21
    endloop
  endfacet
  facet normal 0 0 1
    outer loop
      vertex 67.3429 71.2434 21
      vertex 66.3743 70.9948 21
      vertex 66.4685 70.5013 21
    endloop
  endfacet
  facet normal 0 0 1
    outer loop
      vertex 67.1489 71.8406 21
      vertex 66.2191 71.4725 21
      vertex 66.3743 70.9948 21
    endloop
  endfacet
  facet normal 0 0 1
    outer loop
      vertex 65.7361 72.3511 21
      vertex 66.5451 72.9389 21
      vertex 66.1448 73.4227 21
    endloop
  endfacet
  facet normal 0 0 1
    outer loop
      vertex 66.8815 72.4088 21
      vertex 66.0052 71.927 21
      vertex 66.2191 71.4725 21
    endloop
  endfacet
  facet normal 0 0 1
    outer loop
      vertex 66.5451 72.9389 21
      vertex 65.7361 72.3511 21
      vertex 66.0052 71.927 21
    endloop
  endfacet
  facet normal 0 0 1
    outer loop
      vertex 65.4159 72.7382 21
      vertex 66.1448 73.4227 21
      vertex 65.6871 73.8526 21
    endloop
  endfacet
  facet normal 0 0 1
    outer loop
      vertex 66.1448 73.4227 21
      vertex 65.4159 72.7382 21
      vertex 65.7361 72.3511 21
    endloop
  endfacet
  facet normal 0 0 1
    outer loop
      vertex 65.0497 73.0821 21
      vertex 65.6871 73.8526 21
      vertex 65.1791 74.2216 21
    endloop
  endfacet
  facet normal 0 0 1
    outer loop
      vertex 65.6871 73.8526 21
      vertex 65.0497 73.0821 21
      vertex 65.4159 72.7382 21
    endloop
  endfacet
  facet normal 0 0 1
    outer loop
      vertex 65.1791 74.2216 21
      vertex 64.6433 73.3773 21
      vertex 65.0497 73.0821 21
    endloop
  endfacet
  facet normal 0 0 1
    outer loop
      vertex 64.6289 74.5241 21
      vertex 64.6433 73.3773 21
      vertex 65.1791 74.2216 21
    endloop
  endfacet
  facet normal 0 0 1
    outer loop
      vertex 64.6289 74.5241 21
      vertex 64.2031 73.6193 21
      vertex 64.6433 73.3773 21
    endloop
  endfacet
  facet normal 0 0 1
    outer loop
      vertex 64.0451 74.7553 21
      vertex 64.2031 73.6193 21
      vertex 64.6289 74.5241 21
    endloop
  endfacet
  facet normal 0 0 1
    outer loop
      vertex 64.0451 74.7553 21
      vertex 63.7361 73.8042 21
      vertex 64.2031 73.6193 21
    endloop
  endfacet
  facet normal 0 0 1
    outer loop
      vertex 63.4369 74.9114 21
      vertex 63.7361 73.8042 21
      vertex 64.0451 74.7553 21
    endloop
  endfacet
  facet normal 0 0 1
    outer loop
      vertex 63.4369 74.9114 21
      vertex 63.2495 73.9291 21
      vertex 63.7361 73.8042 21
    endloop
  endfacet
  facet normal 0 0 1
    outer loop
      vertex 62.814 74.9901 21
      vertex 63.2495 73.9291 21
      vertex 63.4369 74.9114 21
    endloop
  endfacet
  facet normal 0 0 1
    outer loop
      vertex 62.814 74.9901 21
      vertex 62.7512 73.9921 21
      vertex 63.2495 73.9291 21
    endloop
  endfacet
  facet normal 0 0 1
    outer loop
      vertex 62.814 74.9901 21
      vertex -62.7512 73.9921 21
      vertex 62.7512 73.9921 21
    endloop
  endfacet
  facet normal -0 0 1
    outer loop
      vertex -62.814 74.9901 21
      vertex -62.7512 73.9921 21
      vertex 62.814 74.9901 21
    endloop
  endfacet
  facet normal 0 0 1
    outer loop
      vertex -62.814 74.9901 21
      vertex -63.2495 73.9291 21
      vertex -62.7512 73.9921 21
    endloop
  endfacet
  facet normal -0 0 1
    outer loop
      vertex -63.4369 74.9114 21
      vertex -63.2495 73.9291 21
      vertex -62.814 74.9901 21
    endloop
  endfacet
  facet normal 0 0 1
    outer loop
      vertex -63.4369 74.9114 21
      vertex -63.7361 73.8042 21
      vertex -63.2495 73.9291 21
    endloop
  endfacet
  facet normal -0 0 1
    outer loop
      vertex -64.0451 74.7553 21
      vertex -63.7361 73.8042 21
      vertex -63.4369 74.9114 21
    endloop
  endfacet
  facet normal 0 0 1
    outer loop
      vertex -64.0451 74.7553 21
      vertex -64.2031 73.6193 21
      vertex -63.7361 73.8042 21
    endloop
  endfacet
  facet normal -0 0 1
    outer loop
      vertex -64.6289 74.5241 21
      vertex -64.2031 73.6193 21
      vertex -64.0451 74.7553 21
    endloop
  endfacet
  facet normal 0 0 1
    outer loop
      vertex -64.6289 74.5241 21
      vertex -64.6433 73.3773 21
      vertex -64.2031 73.6193 21
    endloop
  endfacet
  facet normal -0 0 1
    outer loop
      vertex -65.1791 74.2216 21
      vertex -64.6433 73.3773 21
      vertex -64.6289 74.5241 21
    endloop
  endfacet
  facet normal 0 0 1
    outer loop
      vertex -64.6433 73.3773 21
      vertex -65.1791 74.2216 21
      vertex -65.0497 73.0821 21
    endloop
  endfacet
  facet normal -0 0 1
    outer loop
      vertex -65.6871 73.8526 21
      vertex -65.0497 73.0821 21
      vertex -65.1791 74.2216 21
    endloop
  endfacet
  facet normal 0 0 1
    outer loop
      vertex -65.0497 73.0821 21
      vertex -65.6871 73.8526 21
      vertex -65.4159 72.7382 21
    endloop
  endfacet
  facet normal -0 0 1
    outer loop
      vertex -66.1448 73.4227 21
      vertex -65.4159 72.7382 21
      vertex -65.6871 73.8526 21
    endloop
  endfacet
  facet normal 0 0 1
    outer loop
      vertex -65.4159 72.7382 21
      vertex -66.1448 73.4227 21
      vertex -65.7361 72.3511 21
    endloop
  endfacet
  facet normal -0 0 1
    outer loop
      vertex -66.5451 72.9389 21
      vertex -65.7361 72.3511 21
      vertex -66.1448 73.4227 21
    endloop
  endfacet
  facet normal 0 0 1
    outer loop
      vertex -65.7361 72.3511 21
      vertex -66.5451 72.9389 21
      vertex -66.0052 71.927 21
    endloop
  endfacet
  facet normal -0 0 1
    outer loop
      vertex -66.8815 72.4088 21
      vertex -66.0052 71.927 21
      vertex -66.5451 72.9389 21
    endloop
  endfacet
  facet normal 0 0 1
    outer loop
      vertex -66.0052 71.927 21
      vertex -66.8815 72.4088 21
      vertex -66.2191 71.4725 21
    endloop
  endfacet
  facet normal -0 0 1
    outer loop
      vertex -67.3429 71.2434 21
      vertex -66.3743 70.9948 21
      vertex -67.1489 71.8406 21
    endloop
  endfacet
  facet normal 0 0 1
    outer loop
      vertex -66.2191 71.4725 21
      vertex -67.1489 71.8406 21
      vertex -66.3743 70.9948 21
    endloop
  endfacet
  facet normal -0 0 1
    outer loop
      vertex -67.1489 71.8406 21
      vertex -66.2191 71.4725 21
      vertex -66.8815 72.4088 21
    endloop
  endfacet
  facet normal 0 0 1
    outer loop
      vertex 67.3429 -71.2434 21
      vertex 66.3743 -70.9948 21
      vertex 67.1489 -71.8406 21
    endloop
  endfacet
  facet normal -0 0 1
    outer loop
      vertex 66.2191 -71.4725 21
      vertex 67.1489 -71.8406 21
      vertex 66.3743 -70.9948 21
    endloop
  endfacet
  facet normal 0 0 1
    outer loop
      vertex 67.1489 -71.8406 21
      vertex 66.2191 -71.4725 21
      vertex 66.8815 -72.4088 21
    endloop
  endfacet
  facet normal -0 0 1
    outer loop
      vertex 66.0052 -71.927 21
      vertex 66.8815 -72.4088 21
      vertex 66.2191 -71.4725 21
    endloop
  endfacet
  facet normal 0 0 1
    outer loop
      vertex 66.8815 -72.4088 21
      vertex 66.0052 -71.927 21
      vertex 66.5451 -72.9389 21
    endloop
  endfacet
  facet normal -0 0 1
    outer loop
      vertex 65.7361 -72.3511 21
      vertex 66.5451 -72.9389 21
      vertex 66.0052 -71.927 21
    endloop
  endfacet
  facet normal 0 0 1
    outer loop
      vertex 66.5451 -72.9389 21
      vertex 65.7361 -72.3511 21
      vertex 66.1448 -73.4227 21
    endloop
  endfacet
  facet normal -0 0 1
    outer loop
      vertex 65.4159 -72.7382 21
      vertex 66.1448 -73.4227 21
      vertex 65.7361 -72.3511 21
    endloop
  endfacet
  facet normal 0 0 1
    outer loop
      vertex 66.1448 -73.4227 21
      vertex 65.4159 -72.7382 21
      vertex 65.6871 -73.8526 21
    endloop
  endfacet
  facet normal -0 0 1
    outer loop
      vertex 65.0497 -73.0821 21
      vertex 65.6871 -73.8526 21
      vertex 65.4159 -72.7382 21
    endloop
  endfacet
  facet normal 0 0 1
    outer loop
      vertex 65.6871 -73.8526 21
      vertex 65.0497 -73.0821 21
      vertex 65.1791 -74.2216 21
    endloop
  endfacet
  facet normal -0 0 1
    outer loop
      vertex 64.6433 -73.3773 21
      vertex 65.1791 -74.2216 21
      vertex 65.0497 -73.0821 21
    endloop
  endfacet
  facet normal 0 0 1
    outer loop
      vertex 64.6433 -73.3773 21
      vertex 64.6289 -74.5241 21
      vertex 65.1791 -74.2216 21
    endloop
  endfacet
  facet normal -0 0 1
    outer loop
      vertex 64.2031 -73.6193 21
      vertex 64.6289 -74.5241 21
      vertex 64.6433 -73.3773 21
    endloop
  endfacet
  facet normal 0 0 1
    outer loop
      vertex 64.2031 -73.6193 21
      vertex 64.0451 -74.7553 21
      vertex 64.6289 -74.5241 21
    endloop
  endfacet
  facet normal -0 0 1
    outer loop
      vertex 63.7361 -73.8042 21
      vertex 64.0451 -74.7553 21
      vertex 64.2031 -73.6193 21
    endloop
  endfacet
  facet normal 0 0 1
    outer loop
      vertex 63.7361 -73.8042 21
      vertex 63.4369 -74.9114 21
      vertex 64.0451 -74.7553 21
    endloop
  endfacet
  facet normal -0 0 1
    outer loop
      vertex 63.2495 -73.9291 21
      vertex 63.4369 -74.9114 21
      vertex 63.7361 -73.8042 21
    endloop
  endfacet
  facet normal 0 0 1
    outer loop
      vertex 63.2495 -73.9291 21
      vertex 62.814 -74.9901 21
      vertex 63.4369 -74.9114 21
    endloop
  endfacet
  facet normal -0 0 1
    outer loop
      vertex 62.7512 -73.9921 21
      vertex 62.814 -74.9901 21
      vertex 63.2495 -73.9291 21
    endloop
  endfacet
  facet normal -0 0 1
    outer loop
      vertex -62.7512 -73.9921 21
      vertex 62.814 -74.9901 21
      vertex 62.7512 -73.9921 21
    endloop
  endfacet
  facet normal 0 0 1
    outer loop
      vertex -62.7512 -73.9921 21
      vertex -62.814 -74.9901 21
      vertex 62.814 -74.9901 21
    endloop
  endfacet
  facet normal 0 0 1
    outer loop
      vertex -63.2495 -73.9291 21
      vertex -62.814 -74.9901 21
      vertex -62.7512 -73.9921 21
    endloop
  endfacet
  facet normal 0 0 1
    outer loop
      vertex -63.2495 -73.9291 21
      vertex -63.4369 -74.9114 21
      vertex -62.814 -74.9901 21
    endloop
  endfacet
  facet normal 0 0 1
    outer loop
      vertex -63.7361 -73.8042 21
      vertex -63.4369 -74.9114 21
      vertex -63.2495 -73.9291 21
    endloop
  endfacet
  facet normal 0 0 1
    outer loop
      vertex -63.7361 -73.8042 21
      vertex -64.0451 -74.7553 21
      vertex -63.4369 -74.9114 21
    endloop
  endfacet
  facet normal 0 0 1
    outer loop
      vertex -64.2031 -73.6193 21
      vertex -64.0451 -74.7553 21
      vertex -63.7361 -73.8042 21
    endloop
  endfacet
  facet normal 0 0 1
    outer loop
      vertex -64.2031 -73.6193 21
      vertex -64.6289 -74.5241 21
      vertex -64.0451 -74.7553 21
    endloop
  endfacet
  facet normal 0 0 1
    outer loop
      vertex -64.6433 -73.3773 21
      vertex -64.6289 -74.5241 21
      vertex -64.2031 -73.6193 21
    endloop
  endfacet
  facet normal 0 0 1
    outer loop
      vertex -65.1791 -74.2216 21
      vertex -64.6433 -73.3773 21
      vertex -65.0497 -73.0821 21
    endloop
  endfacet
  facet normal 0 0 1
    outer loop
      vertex -64.6433 -73.3773 21
      vertex -65.1791 -74.2216 21
      vertex -64.6289 -74.5241 21
    endloop
  endfacet
  facet normal 0 0 1
    outer loop
      vertex -65.6871 -73.8526 21
      vertex -65.0497 -73.0821 21
      vertex -65.4159 -72.7382 21
    endloop
  endfacet
  facet normal 0 0 1
    outer loop
      vertex -65.0497 -73.0821 21
      vertex -65.6871 -73.8526 21
      vertex -65.1791 -74.2216 21
    endloop
  endfacet
  facet normal 0 0 1
    outer loop
      vertex -66.1448 -73.4227 21
      vertex -65.4159 -72.7382 21
      vertex -65.7361 -72.3511 21
    endloop
  endfacet
  facet normal 0 0 1
    outer loop
      vertex -66.5451 -72.9389 21
      vertex -65.7361 -72.3511 21
      vertex -66.0052 -71.927 21
    endloop
  endfacet
  facet normal 0 0 1
    outer loop
      vertex -65.4159 -72.7382 21
      vertex -66.1448 -73.4227 21
      vertex -65.6871 -73.8526 21
    endloop
  endfacet
  facet normal 0 0 1
    outer loop
      vertex -66.8815 -72.4088 21
      vertex -66.0052 -71.927 21
      vertex -66.2191 -71.4725 21
    endloop
  endfacet
  facet normal 0 0 1
    outer loop
      vertex -67.1489 -71.8406 21
      vertex -66.2191 -71.4725 21
      vertex -66.3743 -70.9948 21
    endloop
  endfacet
  facet normal 0 0 1
    outer loop
      vertex -67.3429 -71.2434 21
      vertex -66.3743 -70.9948 21
      vertex -66.4685 -70.5013 21
    endloop
  endfacet
  facet normal 0 0 1
    outer loop
      vertex -65.7361 -72.3511 21
      vertex -66.5451 -72.9389 21
      vertex -66.1448 -73.4227 21
    endloop
  endfacet
  facet normal 0 0 1
    outer loop
      vertex -67.4606 -70.6267 21
      vertex -66.4685 -70.5013 21
      vertex -66.5 -70 21
    endloop
  endfacet
  facet normal 0 0 1
    outer loop
      vertex -66.5 70 21
      vertex -67.5 70 21
      vertex -66.5 -70 21
    endloop
  endfacet
  facet normal 0 0 1
    outer loop
      vertex -66.3743 70.9948 21
      vertex -67.3429 71.2434 21
      vertex -66.4685 70.5013 21
    endloop
  endfacet
  facet normal 0 0 1
    outer loop
      vertex -67.5 -70 21
      vertex -66.5 -70 21
      vertex -67.5 70 21
    endloop
  endfacet
  facet normal -0 0 1
    outer loop
      vertex -67.4606 70.6267 21
      vertex -66.4685 70.5013 21
      vertex -67.3429 71.2434 21
    endloop
  endfacet
  facet normal 0 -0 1
    outer loop
      vertex -67.4606 -70.6267 21
      vertex -66.5 -70 21
      vertex -67.5 -70 21
    endloop
  endfacet
  facet normal 0 0 1
    outer loop
      vertex -66.4685 70.5013 21
      vertex -67.4606 70.6267 21
      vertex -66.5 70 21
    endloop
  endfacet
  facet normal 0 0 1
    outer loop
      vertex -66.0052 -71.927 21
      vertex -66.8815 -72.4088 21
      vertex -66.5451 -72.9389 21
    endloop
  endfacet
  facet normal 0 0 1
    outer loop
      vertex -66.5 70 21
      vertex -67.4606 70.6267 21
      vertex -67.5 70 21
    endloop
  endfacet
  facet normal 0 0 1
    outer loop
      vertex -66.2191 -71.4725 21
      vertex -67.1489 -71.8406 21
      vertex -66.8815 -72.4088 21
    endloop
  endfacet
  facet normal 0 0 1
    outer loop
      vertex -66.3743 -70.9948 21
      vertex -67.3429 -71.2434 21
      vertex -67.1489 -71.8406 21
    endloop
  endfacet
  facet normal 0 0 1
    outer loop
      vertex -66.4685 -70.5013 21
      vertex -67.4606 -70.6267 21
      vertex -67.3429 -71.2434 21
    endloop
  endfacet
  facet normal -0.587698 0.80908 0
    outer loop
      vertex -65.1791 74.2216 0
      vertex -65.6871 73.8526 21
      vertex -65.1791 74.2216 21
    endloop
  endfacet
  facet normal -0.587698 0.80908 0
    outer loop
      vertex -65.6871 73.8526 21
      vertex -65.1791 74.2216 0
      vertex -65.6871 73.8526 0
    endloop
  endfacet
  facet normal -0.481784 0.87629 0
    outer loop
      vertex -64.6289 74.5241 0
      vertex -65.1791 74.2216 21
      vertex -64.6289 74.5241 21
    endloop
  endfacet
  facet normal -0.481784 0.87629 0
    outer loop
      vertex -65.1791 74.2216 21
      vertex -64.6289 74.5241 0
      vertex -65.1791 74.2216 0
    endloop
  endfacet
  facet normal 0.248601 0.968606 -0
    outer loop
      vertex 64.0451 74.7553 0
      vertex 63.4369 74.9114 21
      vertex 64.0451 74.7553 21
    endloop
  endfacet
  facet normal 0.248601 0.968606 0
    outer loop
      vertex 63.4369 74.9114 21
      vertex 64.0451 74.7553 0
      vertex 63.4369 74.9114 0
    endloop
  endfacet
  facet normal 0.368203 0.929745 -0
    outer loop
      vertex 64.6289 74.5241 0
      vertex 64.0451 74.7553 21
      vertex 64.6289 74.5241 21
    endloop
  endfacet
  facet normal 0.368203 0.929745 0
    outer loop
      vertex 64.0451 74.7553 21
      vertex 64.6289 74.5241 0
      vertex 64.0451 74.7553 0
    endloop
  endfacet
  facet normal 0.844336 0.535814 0
    outer loop
      vertex 66.8815 72.4088 21
      vertex 66.5451 72.9389 0
      vertex 66.5451 72.9389 21
    endloop
  endfacet
  facet normal 0.844336 0.535814 0
    outer loop
      vertex 66.5451 72.9389 0
      vertex 66.8815 72.4088 21
      vertex 66.8815 72.4088 0
    endloop
  endfacet
  facet normal 0.904811 0.425812 0
    outer loop
      vertex 67.1489 71.8406 21
      vertex 66.8815 72.4088 0
      vertex 66.8815 72.4088 21
    endloop
  endfacet
  facet normal 0.904811 0.425812 0
    outer loop
      vertex 66.8815 72.4088 0
      vertex 67.1489 71.8406 21
      vertex 67.1489 71.8406 0
    endloop
  endfacet
  facet normal 0.98227 -0.187471 0
    outer loop
      vertex 67.3429 -71.2434 21
      vertex 67.4606 -70.6267 0
      vertex 67.4606 -70.6267 21
    endloop
  endfacet
  facet normal 0.98227 -0.187471 0
    outer loop
      vertex 67.4606 -70.6267 0
      vertex 67.3429 -71.2434 21
      vertex 67.3429 -71.2434 0
    endloop
  endfacet
  facet normal 0.481784 -0.87629 0
    outer loop
      vertex 64.6289 -74.5241 0
      vertex 65.1791 -74.2216 21
      vertex 64.6289 -74.5241 21
    endloop
  endfacet
  facet normal 0.481784 -0.87629 0
    outer loop
      vertex 65.1791 -74.2216 21
      vertex 64.6289 -74.5241 0
      vertex 65.1791 -74.2216 0
    endloop
  endfacet
  facet normal 0.684624 -0.728896 0
    outer loop
      vertex 65.6871 -73.8526 0
      vertex 66.1448 -73.4227 21
      vertex 65.6871 -73.8526 21
    endloop
  endfacet
  facet normal 0.684624 -0.728896 0
    outer loop
      vertex 66.1448 -73.4227 21
      vertex 65.6871 -73.8526 0
      vertex 66.1448 -73.4227 0
    endloop
  endfacet
  facet normal -0.587698 -0.80908 0
    outer loop
      vertex -65.6871 -73.8526 0
      vertex -65.1791 -74.2216 21
      vertex -65.6871 -73.8526 21
    endloop
  endfacet
  facet normal -0.587698 -0.80908 -0
    outer loop
      vertex -65.1791 -74.2216 21
      vertex -65.6871 -73.8526 0
      vertex -65.1791 -74.2216 0
    endloop
  endfacet
  facet normal -0.481784 -0.87629 0
    outer loop
      vertex -65.1791 -74.2216 0
      vertex -64.6289 -74.5241 21
      vertex -65.1791 -74.2216 21
    endloop
  endfacet
  facet normal -0.481784 -0.87629 -0
    outer loop
      vertex -64.6289 -74.5241 21
      vertex -65.1791 -74.2216 0
      vertex -64.6289 -74.5241 0
    endloop
  endfacet
  facet normal -0.951076 0.308956 0
    outer loop
      vertex -67.3429 71.2434 0
      vertex -67.1489 71.8406 21
      vertex -67.1489 71.8406 0
    endloop
  endfacet
  facet normal -0.951076 0.308956 0
    outer loop
      vertex -67.1489 71.8406 21
      vertex -67.3429 71.2434 0
      vertex -67.3429 71.2434 21
    endloop
  endfacet
  facet normal -0.904811 0.425812 0
    outer loop
      vertex -67.1489 71.8406 0
      vertex -66.8815 72.4088 21
      vertex -66.8815 72.4088 0
    endloop
  endfacet
  facet normal -0.904811 0.425812 0
    outer loop
      vertex -66.8815 72.4088 21
      vertex -67.1489 71.8406 0
      vertex -67.1489 71.8406 21
    endloop
  endfacet
  facet normal -0.770462 0.637486 0
    outer loop
      vertex -66.5451 72.9389 0
      vertex -66.1448 73.4227 21
      vertex -66.1448 73.4227 0
    endloop
  endfacet
  facet normal -0.770462 0.637486 0
    outer loop
      vertex -66.1448 73.4227 21
      vertex -66.5451 72.9389 0
      vertex -66.5451 72.9389 21
    endloop
  endfacet
  facet normal 0.481784 0.87629 -0
    outer loop
      vertex 65.1791 74.2216 0
      vertex 64.6289 74.5241 21
      vertex 65.1791 74.2216 21
    endloop
  endfacet
  facet normal 0.481784 0.87629 0
    outer loop
      vertex 64.6289 74.5241 21
      vertex 65.1791 74.2216 0
      vertex 64.6289 74.5241 0
    endloop
  endfacet
  facet normal 0.587698 0.80908 -0
    outer loop
      vertex 65.6871 73.8526 0
      vertex 65.1791 74.2216 21
      vertex 65.6871 73.8526 21
    endloop
  endfacet
  facet normal 0.587698 0.80908 0
    outer loop
      vertex 65.1791 74.2216 21
      vertex 65.6871 73.8526 0
      vertex 65.1791 74.2216 0
    endloop
  endfacet
  facet normal 0.904811 -0.425812 0
    outer loop
      vertex 66.8815 -72.4088 21
      vertex 67.1489 -71.8406 0
      vertex 67.1489 -71.8406 21
    endloop
  endfacet
  facet normal 0.904811 -0.425812 0
    outer loop
      vertex 67.1489 -71.8406 0
      vertex 66.8815 -72.4088 21
      vertex 66.8815 -72.4088 0
    endloop
  endfacet
  facet normal 0.844336 -0.535814 0
    outer loop
      vertex 66.5451 -72.9389 21
      vertex 66.8815 -72.4088 0
      vertex 66.8815 -72.4088 21
    endloop
  endfacet
  facet normal 0.844336 -0.535814 0
    outer loop
      vertex 66.8815 -72.4088 0
      vertex 66.5451 -72.9389 21
      vertex 66.5451 -72.9389 0
    endloop
  endfacet
  facet normal 0.99803 -0.0627451 0
    outer loop
      vertex 67.4606 -70.6267 21
      vertex 67.5 -70 0
      vertex 67.5 -70 21
    endloop
  endfacet
  facet normal 0.99803 -0.0627451 0
    outer loop
      vertex 67.5 -70 0
      vertex 67.4606 -70.6267 21
      vertex 67.4606 -70.6267 0
    endloop
  endfacet
  facet normal 0.368203 -0.929745 0
    outer loop
      vertex 64.0451 -74.7553 0
      vertex 64.6289 -74.5241 21
      vertex 64.0451 -74.7553 21
    endloop
  endfacet
  facet normal 0.368203 -0.929745 0
    outer loop
      vertex 64.6289 -74.5241 21
      vertex 64.0451 -74.7553 0
      vertex 64.6289 -74.5241 0
    endloop
  endfacet
  facet normal -0.951076 -0.308956 0
    outer loop
      vertex -67.1489 -71.8406 0
      vertex -67.3429 -71.2434 21
      vertex -67.3429 -71.2434 0
    endloop
  endfacet
  facet normal -0.951076 -0.308956 0
    outer loop
      vertex -67.3429 -71.2434 21
      vertex -67.1489 -71.8406 0
      vertex -67.1489 -71.8406 21
    endloop
  endfacet
  facet normal -0.99803 -0.0627451 0
    outer loop
      vertex -67.4606 -70.6267 0
      vertex -67.5 -70 21
      vertex -67.5 -70 0
    endloop
  endfacet
  facet normal -0.99803 -0.0627451 0
    outer loop
      vertex -67.5 -70 21
      vertex -67.4606 -70.6267 0
      vertex -67.4606 -70.6267 21
    endloop
  endfacet
  facet normal -0.904811 -0.425812 0
    outer loop
      vertex -66.8815 -72.4088 0
      vertex -67.1489 -71.8406 21
      vertex -67.1489 -71.8406 0
    endloop
  endfacet
  facet normal -0.904811 -0.425812 0
    outer loop
      vertex -67.1489 -71.8406 21
      vertex -66.8815 -72.4088 0
      vertex -66.8815 -72.4088 21
    endloop
  endfacet
  facet normal -0.770462 -0.637486 0
    outer loop
      vertex -66.1448 -73.4227 0
      vertex -66.5451 -72.9389 21
      vertex -66.5451 -72.9389 0
    endloop
  endfacet
  facet normal -0.770462 -0.637486 0
    outer loop
      vertex -66.5451 -72.9389 21
      vertex -66.1448 -73.4227 0
      vertex -66.1448 -73.4227 21
    endloop
  endfacet
  facet normal -0.844336 -0.535814 0
    outer loop
      vertex -66.5451 -72.9389 0
      vertex -66.8815 -72.4088 21
      vertex -66.8815 -72.4088 0
    endloop
  endfacet
  facet normal -0.844336 -0.535814 0
    outer loop
      vertex -66.8815 -72.4088 21
      vertex -66.5451 -72.9389 0
      vertex -66.5451 -72.9389 21
    endloop
  endfacet
  facet normal -0.844336 0.535814 0
    outer loop
      vertex -66.8815 72.4088 0
      vertex -66.5451 72.9389 21
      vertex -66.5451 72.9389 0
    endloop
  endfacet
  facet normal -0.844336 0.535814 0
    outer loop
      vertex -66.5451 72.9389 21
      vertex -66.8815 72.4088 0
      vertex -66.8815 72.4088 21
    endloop
  endfacet
  facet normal 0.587698 -0.80908 0
    outer loop
      vertex 65.1791 -74.2216 0
      vertex 65.6871 -73.8526 21
      vertex 65.1791 -74.2216 21
    endloop
  endfacet
  facet normal 0.587698 -0.80908 0
    outer loop
      vertex 65.6871 -73.8526 21
      vertex 65.1791 -74.2216 0
      vertex 65.6871 -73.8526 0
    endloop
  endfacet
  facet normal 0.248601 -0.968606 0
    outer loop
      vertex 63.4369 -74.9114 0
      vertex 64.0451 -74.7553 21
      vertex 63.4369 -74.9114 21
    endloop
  endfacet
  facet normal 0.248601 -0.968606 0
    outer loop
      vertex 64.0451 -74.7553 21
      vertex 63.4369 -74.9114 0
      vertex 64.0451 -74.7553 0
    endloop
  endfacet
  facet normal 0.125348 -0.992113 0
    outer loop
      vertex 62.814 -74.9901 0
      vertex 63.4369 -74.9114 21
      vertex 62.814 -74.9901 21
    endloop
  endfacet
  facet normal 0.125348 -0.992113 0
    outer loop
      vertex 63.4369 -74.9114 21
      vertex 62.814 -74.9901 0
      vertex 63.4369 -74.9114 0
    endloop
  endfacet
  facet normal -0.368203 -0.929745 0
    outer loop
      vertex -64.6289 -74.5241 0
      vertex -64.0451 -74.7553 21
      vertex -64.6289 -74.5241 21
    endloop
  endfacet
  facet normal -0.368203 -0.929745 -0
    outer loop
      vertex -64.0451 -74.7553 21
      vertex -64.6289 -74.5241 0
      vertex -64.0451 -74.7553 0
    endloop
  endfacet
  facet normal 0 0 -1
    outer loop
      vertex 62.814 -74.9901 0
      vertex 67.5 -70 0
      vertex 67.4606 -70.6267 0
    endloop
  endfacet
  facet normal 0 0 -1
    outer loop
      vertex 67.5 -70 0
      vertex -67.5 -70 0
      vertex 67.5 70 0
    endloop
  endfacet
  facet normal 0 0 -1
    outer loop
      vertex 62.814 -74.9901 0
      vertex 67.4606 -70.6267 0
      vertex 67.3429 -71.2434 0
    endloop
  endfacet
  facet normal -0 0 -1
    outer loop
      vertex 67.5 -70 0
      vertex 62.814 -74.9901 0
      vertex -67.5 -70 0
    endloop
  endfacet
  facet normal 0 0 -1
    outer loop
      vertex 62.814 -74.9901 0
      vertex 67.3429 -71.2434 0
      vertex 67.1489 -71.8406 0
    endloop
  endfacet
  facet normal 0 0 -1
    outer loop
      vertex -67.5 70 0
      vertex 67.5 70 0
      vertex -67.5 -70 0
    endloop
  endfacet
  facet normal 0 0 -1
    outer loop
      vertex 62.814 -74.9901 0
      vertex 67.1489 -71.8406 0
      vertex 66.8815 -72.4088 0
    endloop
  endfacet
  facet normal 0 0 -1
    outer loop
      vertex 67.4606 70.6267 0
      vertex 62.814 74.9901 0
      vertex 67.3429 71.2434 0
    endloop
  endfacet
  facet normal 0 0 -1
    outer loop
      vertex 62.814 -74.9901 0
      vertex 66.8815 -72.4088 0
      vertex 66.5451 -72.9389 0
    endloop
  endfacet
  facet normal 0 0 -1
    outer loop
      vertex 67.3429 71.2434 0
      vertex 62.814 74.9901 0
      vertex 67.1489 71.8406 0
    endloop
  endfacet
  facet normal 0 0 -1
    outer loop
      vertex 62.814 -74.9901 0
      vertex 66.5451 -72.9389 0
      vertex 66.1448 -73.4227 0
    endloop
  endfacet
  facet normal 0 0 -1
    outer loop
      vertex 67.1489 71.8406 0
      vertex 62.814 74.9901 0
      vertex 66.8815 72.4088 0
    endloop
  endfacet
  facet normal 0 0 -1
    outer loop
      vertex 62.814 -74.9901 0
      vertex 66.1448 -73.4227 0
      vertex 65.6871 -73.8526 0
    endloop
  endfacet
  facet normal 0 0 -1
    outer loop
      vertex 66.8815 72.4088 0
      vertex 62.814 74.9901 0
      vertex 66.5451 72.9389 0
    endloop
  endfacet
  facet normal 0 0 -1
    outer loop
      vertex 62.814 -74.9901 0
      vertex 65.6871 -73.8526 0
      vertex 65.1791 -74.2216 0
    endloop
  endfacet
  facet normal 0 0 -1
    outer loop
      vertex 66.5451 72.9389 0
      vertex 62.814 74.9901 0
      vertex 66.1448 73.4227 0
    endloop
  endfacet
  facet normal 0 0 -1
    outer loop
      vertex 62.814 -74.9901 0
      vertex 65.1791 -74.2216 0
      vertex 64.6289 -74.5241 0
    endloop
  endfacet
  facet normal 0 0 -1
    outer loop
      vertex 66.1448 73.4227 0
      vertex 62.814 74.9901 0
      vertex 65.6871 73.8526 0
    endloop
  endfacet
  facet normal 0 0 -1
    outer loop
      vertex 62.814 -74.9901 0
      vertex 64.6289 -74.5241 0
      vertex 64.0451 -74.7553 0
    endloop
  endfacet
  facet normal 0 0 -1
    outer loop
      vertex 65.6871 73.8526 0
      vertex 62.814 74.9901 0
      vertex 65.1791 74.2216 0
    endloop
  endfacet
  facet normal 0 0 -1
    outer loop
      vertex 62.814 -74.9901 0
      vertex 64.0451 -74.7553 0
      vertex 63.4369 -74.9114 0
    endloop
  endfacet
  facet normal 0 0 -1
    outer loop
      vertex 65.1791 74.2216 0
      vertex 62.814 74.9901 0
      vertex 64.6289 74.5241 0
    endloop
  endfacet
  facet normal 0 0 -1
    outer loop
      vertex 64.6289 74.5241 0
      vertex 62.814 74.9901 0
      vertex 64.0451 74.7553 0
    endloop
  endfacet
  facet normal 0 0 -1
    outer loop
      vertex 64.0451 74.7553 0
      vertex 62.814 74.9901 0
      vertex 63.4369 74.9114 0
    endloop
  endfacet
  facet normal 0 0 -1
    outer loop
      vertex -67.5 -70 0
      vertex 62.814 -74.9901 0
      vertex -62.814 -74.9901 0
    endloop
  endfacet
  facet normal 0 -0 -1
    outer loop
      vertex 62.814 74.9901 0
      vertex 67.5 70 0
      vertex -67.5 70 0
    endloop
  endfacet
  facet normal 0 0 -1
    outer loop
      vertex -67.5 -70 0
      vertex -62.814 -74.9901 0
      vertex -63.4369 -74.9114 0
    endloop
  endfacet
  facet normal 0 0 -1
    outer loop
      vertex 67.5 70 0
      vertex 62.814 74.9901 0
      vertex 67.4606 70.6267 0
    endloop
  endfacet
  facet normal 0 0 -1
    outer loop
      vertex -67.5 -70 0
      vertex -63.4369 -74.9114 0
      vertex -64.0451 -74.7553 0
    endloop
  endfacet
  facet normal -0 0 -1
    outer loop
      vertex 62.814 74.9901 0
      vertex -67.5 70 0
      vertex -62.814 74.9901 0
    endloop
  endfacet
  facet normal 0 0 -1
    outer loop
      vertex -67.5 -70 0
      vertex -64.0451 -74.7553 0
      vertex -64.6289 -74.5241 0
    endloop
  endfacet
  facet normal 0 0 -1
    outer loop
      vertex -62.814 74.9901 0
      vertex -67.5 70 0
      vertex -63.4369 74.9114 0
    endloop
  endfacet
  facet normal 0 0 -1
    outer loop
      vertex -67.5 -70 0
      vertex -64.6289 -74.5241 0
      vertex -65.1791 -74.2216 0
    endloop
  endfacet
  facet normal 0 0 -1
    outer loop
      vertex -63.4369 74.9114 0
      vertex -67.5 70 0
      vertex -64.0451 74.7553 0
    endloop
  endfacet
  facet normal 0 0 -1
    outer loop
      vertex -67.5 -70 0
      vertex -65.1791 -74.2216 0
      vertex -65.6871 -73.8526 0
    endloop
  endfacet
  facet normal 0 0 -1
    outer loop
      vertex -64.0451 74.7553 0
      vertex -67.5 70 0
      vertex -64.6289 74.5241 0
    endloop
  endfacet
  facet normal 0 0 -1
    outer loop
      vertex -67.5 -70 0
      vertex -65.6871 -73.8526 0
      vertex -66.1448 -73.4227 0
    endloop
  endfacet
  facet normal 0 0 -1
    outer loop
      vertex -64.6289 74.5241 0
      vertex -67.5 70 0
      vertex -65.1791 74.2216 0
    endloop
  endfacet
  facet normal 0 0 -1
    outer loop
      vertex -67.5 -70 0
      vertex -66.1448 -73.4227 0
      vertex -66.5451 -72.9389 0
    endloop
  endfacet
  facet normal 0 0 -1
    outer loop
      vertex -65.1791 74.2216 0
      vertex -67.5 70 0
      vertex -65.6871 73.8526 0
    endloop
  endfacet
  facet normal 0 0 -1
    outer loop
      vertex -67.5 -70 0
      vertex -66.5451 -72.9389 0
      vertex -66.8815 -72.4088 0
    endloop
  endfacet
  facet normal 0 0 -1
    outer loop
      vertex -65.6871 73.8526 0
      vertex -67.5 70 0
      vertex -66.1448 73.4227 0
    endloop
  endfacet
  facet normal 0 0 -1
    outer loop
      vertex -67.5 -70 0
      vertex -66.8815 -72.4088 0
      vertex -67.1489 -71.8406 0
    endloop
  endfacet
  facet normal 0 0 -1
    outer loop
      vertex -66.1448 73.4227 0
      vertex -67.5 70 0
      vertex -66.5451 72.9389 0
    endloop
  endfacet
  facet normal 0 0 -1
    outer loop
      vertex -67.5 -70 0
      vertex -67.1489 -71.8406 0
      vertex -67.3429 -71.2434 0
    endloop
  endfacet
  facet normal 0 0 -1
    outer loop
      vertex -66.5451 72.9389 0
      vertex -67.5 70 0
      vertex -66.8815 72.4088 0
    endloop
  endfacet
  facet normal 0 0 -1
    outer loop
      vertex -67.5 -70 0
      vertex -67.3429 -71.2434 0
      vertex -67.4606 -70.6267 0
    endloop
  endfacet
  facet normal 0 0 -1
    outer loop
      vertex -66.8815 72.4088 0
      vertex -67.5 70 0
      vertex -67.1489 71.8406 0
    endloop
  endfacet
  facet normal 0 0 -1
    outer loop
      vertex -67.1489 71.8406 0
      vertex -67.5 70 0
      vertex -67.3429 71.2434 0
    endloop
  endfacet
  facet normal 0 0 -1
    outer loop
      vertex -67.3429 71.2434 0
      vertex -67.5 70 0
      vertex -67.4606 70.6267 0
    endloop
  endfacet
  facet normal -0.98227 -0.187471 0
    outer loop
      vertex -67.3429 -71.2434 0
      vertex -67.4606 -70.6267 21
      vertex -67.4606 -70.6267 0
    endloop
  endfacet
  facet normal -0.98227 -0.187471 0
    outer loop
      vertex -67.4606 -70.6267 21
      vertex -67.3429 -71.2434 0
      vertex -67.3429 -71.2434 21
    endloop
  endfacet
  facet normal -0.684624 -0.728896 0
    outer loop
      vertex -66.1448 -73.4227 0
      vertex -65.6871 -73.8526 21
      vertex -66.1448 -73.4227 21
    endloop
  endfacet
  facet normal -0.684624 -0.728896 -0
    outer loop
      vertex -65.6871 -73.8526 21
      vertex -66.1448 -73.4227 0
      vertex -65.6871 -73.8526 0
    endloop
  endfacet
  facet normal -0.125348 -0.992113 0
    outer loop
      vertex -63.4369 -74.9114 0
      vertex -62.814 -74.9901 21
      vertex -63.4369 -74.9114 21
    endloop
  endfacet
  facet normal -0.125348 -0.992113 -0
    outer loop
      vertex -62.814 -74.9901 21
      vertex -63.4369 -74.9114 0
      vertex -62.814 -74.9901 0
    endloop
  endfacet
  facet normal -0.125431 0.992102 0
    outer loop
      vertex 63.2495 -73.9291 2
      vertex 62.7512 -73.9921 21
      vertex 63.2495 -73.9291 21
    endloop
  endfacet
  facet normal -0.125431 0.992102 0
    outer loop
      vertex 62.7512 -73.9921 21
      vertex 63.2495 -73.9291 2
      vertex 62.7512 -73.9921 2
    endloop
  endfacet
  facet normal 0 -1 0
    outer loop
      vertex -62.7512 73.9921 2
      vertex 62.7512 73.9921 21
      vertex -62.7512 73.9921 21
    endloop
  endfacet
  facet normal 0 -1 -0
    outer loop
      vertex 62.7512 73.9921 21
      vertex -62.7512 73.9921 2
      vertex 62.7512 73.9921 2
    endloop
  endfacet
  facet normal 0.684563 0.728953 -0
    outer loop
      vertex -65.0497 -73.0821 2
      vertex -65.4159 -72.7382 21
      vertex -65.0497 -73.0821 21
    endloop
  endfacet
  facet normal 0.684563 0.728953 0
    outer loop
      vertex -65.4159 -72.7382 21
      vertex -65.0497 -73.0821 2
      vertex -65.4159 -72.7382 2
    endloop
  endfacet
  facet normal 0 1 -0
    outer loop
      vertex 62.7512 -73.9921 2
      vertex -62.7512 -73.9921 21
      vertex 62.7512 -73.9921 21
    endloop
  endfacet
  facet normal 0 1 0
    outer loop
      vertex -62.7512 -73.9921 21
      vertex 62.7512 -73.9921 2
      vertex -62.7512 -73.9921 2
    endloop
  endfacet
  facet normal 0.998032 0.0627129 0
    outer loop
      vertex -66.4685 -70.5013 21
      vertex -66.5 -70 2
      vertex -66.5 -70 21
    endloop
  endfacet
  facet normal 0.998032 0.0627129 0
    outer loop
      vertex -66.5 -70 2
      vertex -66.4685 -70.5013 21
      vertex -66.4685 -70.5013 2
    endloop
  endfacet
  facet normal -1 0 0
    outer loop
      vertex 66.5 -70 2
      vertex 66.5 70 21
      vertex 66.5 70 2
    endloop
  endfacet
  facet normal -1 -0 0
    outer loop
      vertex 66.5 70 21
      vertex 66.5 -70 2
      vertex 66.5 -70 21
    endloop
  endfacet
  facet normal -0.770549 -0.63738 0
    outer loop
      vertex 65.7361 72.3511 2
      vertex 65.4159 72.7382 21
      vertex 65.4159 72.7382 2
    endloop
  endfacet
  facet normal -0.770549 -0.63738 0
    outer loop
      vertex 65.4159 72.7382 21
      vertex 65.7361 72.3511 2
      vertex 65.7361 72.3511 21
    endloop
  endfacet
  facet normal 0.368127 0.929775 -0
    outer loop
      vertex -63.7361 -73.8042 2
      vertex -64.2031 -73.6193 21
      vertex -63.7361 -73.8042 21
    endloop
  endfacet
  facet normal 0.368127 0.929775 0
    outer loop
      vertex -64.2031 -73.6193 21
      vertex -63.7361 -73.8042 2
      vertex -64.2031 -73.6193 2
    endloop
  endfacet
  facet normal 0.125431 0.992102 -0
    outer loop
      vertex -62.7512 -73.9921 2
      vertex -63.2495 -73.9291 21
      vertex -62.7512 -73.9921 21
    endloop
  endfacet
  facet normal 0.125431 0.992102 0
    outer loop
      vertex -63.2495 -73.9291 21
      vertex -62.7512 -73.9921 2
      vertex -63.2495 -73.9291 2
    endloop
  endfacet
  facet normal 1 -0 0
    outer loop
      vertex -66.5 -70 21
      vertex -66.5 70 2
      vertex -66.5 70 21
    endloop
  endfacet
  facet normal 1 0 0
    outer loop
      vertex -66.5 70 2
      vertex -66.5 -70 21
      vertex -66.5 -70 2
    endloop
  endfacet
  facet normal -0.951065 0.308992 0
    outer loop
      vertex 66.2191 -71.4725 2
      vertex 66.3743 -70.9948 21
      vertex 66.3743 -70.9948 2
    endloop
  endfacet
  facet normal -0.951065 0.308992 0
    outer loop
      vertex 66.3743 -70.9948 21
      vertex 66.2191 -71.4725 2
      vertex 66.2191 -71.4725 21
    endloop
  endfacet
  facet normal 0.481751 0.876308 -0
    outer loop
      vertex -64.2031 -73.6193 2
      vertex -64.6433 -73.3773 21
      vertex -64.2031 -73.6193 21
    endloop
  endfacet
  facet normal 0.481751 0.876308 0
    outer loop
      vertex -64.6433 -73.3773 21
      vertex -64.2031 -73.6193 2
      vertex -64.6433 -73.3773 2
    endloop
  endfacet
  facet normal 0.24862 0.968601 -0
    outer loop
      vertex -63.2495 -73.9291 2
      vertex -63.7361 -73.8042 21
      vertex -63.2495 -73.9291 21
    endloop
  endfacet
  facet normal 0.24862 0.968601 0
    outer loop
      vertex -63.7361 -73.8042 21
      vertex -63.2495 -73.9291 2
      vertex -63.7361 -73.8042 2
    endloop
  endfacet
  facet normal 0.770549 0.63738 0
    outer loop
      vertex -65.4159 -72.7382 21
      vertex -65.7361 -72.3511 2
      vertex -65.7361 -72.3511 21
    endloop
  endfacet
  facet normal 0.770549 0.63738 0
    outer loop
      vertex -65.7361 -72.3511 2
      vertex -65.4159 -72.7382 21
      vertex -65.4159 -72.7382 2
    endloop
  endfacet
  facet normal 0.684563 -0.728953 0
    outer loop
      vertex -65.4159 72.7382 2
      vertex -65.0497 73.0821 21
      vertex -65.4159 72.7382 21
    endloop
  endfacet
  facet normal 0.684563 -0.728953 0
    outer loop
      vertex -65.0497 73.0821 21
      vertex -65.4159 72.7382 2
      vertex -65.0497 73.0821 2
    endloop
  endfacet
  facet normal 0.481751 -0.876308 0
    outer loop
      vertex -64.6433 73.3773 2
      vertex -64.2031 73.6193 21
      vertex -64.6433 73.3773 21
    endloop
  endfacet
  facet normal 0.481751 -0.876308 0
    outer loop
      vertex -64.2031 73.6193 21
      vertex -64.6433 73.3773 2
      vertex -64.2031 73.6193 2
    endloop
  endfacet
  facet normal -0.481751 0.876308 0
    outer loop
      vertex 64.6433 -73.3773 2
      vertex 64.2031 -73.6193 21
      vertex 64.6433 -73.3773 21
    endloop
  endfacet
  facet normal -0.481751 0.876308 0
    outer loop
      vertex 64.2031 -73.6193 21
      vertex 64.6433 -73.3773 2
      vertex 64.2031 -73.6193 2
    endloop
  endfacet
  facet normal -0.481751 -0.876308 0
    outer loop
      vertex 64.2031 73.6193 2
      vertex 64.6433 73.3773 21
      vertex 64.2031 73.6193 21
    endloop
  endfacet
  facet normal -0.481751 -0.876308 -0
    outer loop
      vertex 64.6433 73.3773 21
      vertex 64.2031 73.6193 2
      vertex 64.6433 73.3773 2
    endloop
  endfacet
  facet normal -0.368127 -0.929775 0
    outer loop
      vertex 63.7361 73.8042 2
      vertex 64.2031 73.6193 21
      vertex 63.7361 73.8042 21
    endloop
  endfacet
  facet normal -0.368127 -0.929775 -0
    outer loop
      vertex 64.2031 73.6193 21
      vertex 63.7361 73.8042 2
      vertex 64.2031 73.6193 2
    endloop
  endfacet
  facet normal -0.951065 -0.308992 0
    outer loop
      vertex 66.3743 70.9948 2
      vertex 66.2191 71.4725 21
      vertex 66.2191 71.4725 2
    endloop
  endfacet
  facet normal -0.951065 -0.308992 0
    outer loop
      vertex 66.2191 71.4725 21
      vertex 66.3743 70.9948 2
      vertex 66.3743 70.9948 21
    endloop
  endfacet
  facet normal -0.770549 0.63738 0
    outer loop
      vertex 65.4159 -72.7382 2
      vertex 65.7361 -72.3511 21
      vertex 65.7361 -72.3511 2
    endloop
  endfacet
  facet normal -0.770549 0.63738 0
    outer loop
      vertex 65.7361 -72.3511 21
      vertex 65.4159 -72.7382 2
      vertex 65.4159 -72.7382 21
    endloop
  endfacet
  facet normal -0.904805 0.425826 0
    outer loop
      vertex 66.0052 -71.927 2
      vertex 66.2191 -71.4725 21
      vertex 66.2191 -71.4725 2
    endloop
  endfacet
  facet normal -0.904805 0.425826 0
    outer loop
      vertex 66.2191 -71.4725 21
      vertex 66.0052 -71.927 2
      vertex 66.0052 -71.927 21
    endloop
  endfacet
  facet normal 0.587698 0.80908 -0
    outer loop
      vertex -64.6433 -73.3773 2
      vertex -65.0497 -73.0821 21
      vertex -64.6433 -73.3773 21
    endloop
  endfacet
  facet normal 0.587698 0.80908 0
    outer loop
      vertex -65.0497 -73.0821 21
      vertex -64.6433 -73.3773 2
      vertex -65.0497 -73.0821 2
    endloop
  endfacet
  facet normal 0.951065 0.308992 0
    outer loop
      vertex -66.2191 -71.4725 21
      vertex -66.3743 -70.9948 2
      vertex -66.3743 -70.9948 21
    endloop
  endfacet
  facet normal 0.951065 0.308992 0
    outer loop
      vertex -66.3743 -70.9948 2
      vertex -66.2191 -71.4725 21
      vertex -66.2191 -71.4725 2
    endloop
  endfacet
  facet normal 0.904805 0.425826 0
    outer loop
      vertex -66.0052 -71.927 21
      vertex -66.2191 -71.4725 2
      vertex -66.2191 -71.4725 21
    endloop
  endfacet
  facet normal 0.904805 0.425826 0
    outer loop
      vertex -66.2191 -71.4725 2
      vertex -66.0052 -71.927 21
      vertex -66.0052 -71.927 2
    endloop
  endfacet
  facet normal 0.904805 -0.425826 0
    outer loop
      vertex -66.2191 71.4725 21
      vertex -66.0052 71.927 2
      vertex -66.0052 71.927 21
    endloop
  endfacet
  facet normal 0.904805 -0.425826 0
    outer loop
      vertex -66.0052 71.927 2
      vertex -66.2191 71.4725 21
      vertex -66.2191 71.4725 2
    endloop
  endfacet
  facet normal 0.951065 -0.308992 0
    outer loop
      vertex -66.3743 70.9948 21
      vertex -66.2191 71.4725 2
      vertex -66.2191 71.4725 21
    endloop
  endfacet
  facet normal 0.951065 -0.308992 0
    outer loop
      vertex -66.2191 71.4725 2
      vertex -66.3743 70.9948 21
      vertex -66.3743 70.9948 2
    endloop
  endfacet
  facet normal 0.770549 -0.63738 0
    outer loop
      vertex -65.7361 72.3511 21
      vertex -65.4159 72.7382 2
      vertex -65.4159 72.7382 21
    endloop
  endfacet
  facet normal 0.770549 -0.63738 0
    outer loop
      vertex -65.4159 72.7382 2
      vertex -65.7361 72.3511 21
      vertex -65.7361 72.3511 2
    endloop
  endfacet
  facet normal 0.24862 -0.968601 0
    outer loop
      vertex -63.7361 73.8042 2
      vertex -63.2495 73.9291 21
      vertex -63.7361 73.8042 21
    endloop
  endfacet
  facet normal 0.24862 -0.968601 0
    outer loop
      vertex -63.2495 73.9291 21
      vertex -63.7361 73.8042 2
      vertex -63.2495 73.9291 2
    endloop
  endfacet
  facet normal 0.125431 -0.992102 0
    outer loop
      vertex -63.2495 73.9291 2
      vertex -62.7512 73.9921 21
      vertex -63.2495 73.9291 21
    endloop
  endfacet
  facet normal 0.125431 -0.992102 0
    outer loop
      vertex -62.7512 73.9921 21
      vertex -63.2495 73.9291 2
      vertex -62.7512 73.9921 2
    endloop
  endfacet
  facet normal -0.368127 0.929775 0
    outer loop
      vertex 64.2031 -73.6193 2
      vertex 63.7361 -73.8042 21
      vertex 64.2031 -73.6193 21
    endloop
  endfacet
  facet normal -0.368127 0.929775 0
    outer loop
      vertex 63.7361 -73.8042 21
      vertex 64.2031 -73.6193 2
      vertex 63.7361 -73.8042 2
    endloop
  endfacet
  facet normal -0.587698 -0.80908 0
    outer loop
      vertex 64.6433 73.3773 2
      vertex 65.0497 73.0821 21
      vertex 64.6433 73.3773 21
    endloop
  endfacet
  facet normal -0.587698 -0.80908 -0
    outer loop
      vertex 65.0497 73.0821 21
      vertex 64.6433 73.3773 2
      vertex 65.0497 73.0821 2
    endloop
  endfacet
  facet normal -0.684563 -0.728953 0
    outer loop
      vertex 65.0497 73.0821 2
      vertex 65.4159 72.7382 21
      vertex 65.0497 73.0821 21
    endloop
  endfacet
  facet normal -0.684563 -0.728953 -0
    outer loop
      vertex 65.4159 72.7382 21
      vertex 65.0497 73.0821 2
      vertex 65.4159 72.7382 2
    endloop
  endfacet
  facet normal -0.125431 -0.992102 0
    outer loop
      vertex 62.7512 73.9921 2
      vertex 63.2495 73.9291 21
      vertex 62.7512 73.9921 21
    endloop
  endfacet
  facet normal -0.125431 -0.992102 -0
    outer loop
      vertex 63.2495 73.9291 21
      vertex 62.7512 73.9921 2
      vertex 63.2495 73.9291 2
    endloop
  endfacet
  facet normal -0.24862 -0.968601 0
    outer loop
      vertex 63.2495 73.9291 2
      vertex 63.7361 73.8042 21
      vertex 63.2495 73.9291 21
    endloop
  endfacet
  facet normal -0.24862 -0.968601 -0
    outer loop
      vertex 63.7361 73.8042 21
      vertex 63.2495 73.9291 2
      vertex 63.7361 73.8042 2
    endloop
  endfacet
  facet normal -0.998032 -0.0627129 0
    outer loop
      vertex 66.5 70 2
      vertex 66.4685 70.5013 21
      vertex 66.4685 70.5013 2
    endloop
  endfacet
  facet normal -0.998032 -0.0627129 0
    outer loop
      vertex 66.4685 70.5013 21
      vertex 66.5 70 2
      vertex 66.5 70 21
    endloop
  endfacet
  facet normal -0.982265 0.187496 0
    outer loop
      vertex 66.3743 -70.9948 2
      vertex 66.4685 -70.5013 21
      vertex 66.4685 -70.5013 2
    endloop
  endfacet
  facet normal -0.982265 0.187496 0
    outer loop
      vertex 66.4685 -70.5013 21
      vertex 66.3743 -70.9948 2
      vertex 66.3743 -70.9948 21
    endloop
  endfacet
  facet normal -0.844366 0.535767 0
    outer loop
      vertex 65.7361 -72.3511 2
      vertex 66.0052 -71.927 21
      vertex 66.0052 -71.927 2
    endloop
  endfacet
  facet normal -0.844366 0.535767 0
    outer loop
      vertex 66.0052 -71.927 21
      vertex 65.7361 -72.3511 2
      vertex 65.7361 -72.3511 21
    endloop
  endfacet
  facet normal -0.587698 0.80908 0
    outer loop
      vertex 65.0497 -73.0821 2
      vertex 64.6433 -73.3773 21
      vertex 65.0497 -73.0821 21
    endloop
  endfacet
  facet normal -0.587698 0.80908 0
    outer loop
      vertex 64.6433 -73.3773 21
      vertex 65.0497 -73.0821 2
      vertex 64.6433 -73.3773 2
    endloop
  endfacet
  facet normal 0 0 1
    outer loop
      vertex 62.7512 73.9921 2
      vertex 66.5 70 2
      vertex 66.4685 70.5013 2
    endloop
  endfacet
  facet normal 0 0 1
    outer loop
      vertex 66.5 70 2
      vertex -66.5 70 2
      vertex 66.5 -70 2
    endloop
  endfacet
  facet normal 0 0 1
    outer loop
      vertex 62.7512 73.9921 2
      vertex 66.4685 70.5013 2
      vertex 66.3743 70.9948 2
    endloop
  endfacet
  facet normal 0 0 1
    outer loop
      vertex 66.5 70 2
      vertex 62.7512 73.9921 2
      vertex -66.5 70 2
    endloop
  endfacet
  facet normal 0 0 1
    outer loop
      vertex 62.7512 73.9921 2
      vertex 66.3743 70.9948 2
      vertex 66.2191 71.4725 2
    endloop
  endfacet
  facet normal 0 0 1
    outer loop
      vertex -66.5 -70 2
      vertex 66.5 -70 2
      vertex -66.5 70 2
    endloop
  endfacet
  facet normal 0 0 1
    outer loop
      vertex 62.7512 73.9921 2
      vertex 66.2191 71.4725 2
      vertex 66.0052 71.927 2
    endloop
  endfacet
  facet normal 0 0 1
    outer loop
      vertex 66.4685 -70.5013 2
      vertex 62.7512 -73.9921 2
      vertex 66.3743 -70.9948 2
    endloop
  endfacet
  facet normal 0 0 1
    outer loop
      vertex 62.7512 73.9921 2
      vertex 66.0052 71.927 2
      vertex 65.7361 72.3511 2
    endloop
  endfacet
  facet normal 0 0 1
    outer loop
      vertex 66.3743 -70.9948 2
      vertex 62.7512 -73.9921 2
      vertex 66.2191 -71.4725 2
    endloop
  endfacet
  facet normal 0 0 1
    outer loop
      vertex 62.7512 73.9921 2
      vertex 65.7361 72.3511 2
      vertex 65.4159 72.7382 2
    endloop
  endfacet
  facet normal 0 0 1
    outer loop
      vertex 66.2191 -71.4725 2
      vertex 62.7512 -73.9921 2
      vertex 66.0052 -71.927 2
    endloop
  endfacet
  facet normal 0 0 1
    outer loop
      vertex 62.7512 73.9921 2
      vertex 65.4159 72.7382 2
      vertex 65.0497 73.0821 2
    endloop
  endfacet
  facet normal 0 0 1
    outer loop
      vertex 66.0052 -71.927 2
      vertex 62.7512 -73.9921 2
      vertex 65.7361 -72.3511 2
    endloop
  endfacet
  facet normal 0 0 1
    outer loop
      vertex 62.7512 73.9921 2
      vertex 65.0497 73.0821 2
      vertex 64.6433 73.3773 2
    endloop
  endfacet
  facet normal 0 0 1
    outer loop
      vertex 65.7361 -72.3511 2
      vertex 62.7512 -73.9921 2
      vertex 65.4159 -72.7382 2
    endloop
  endfacet
  facet normal 0 0 1
    outer loop
      vertex 62.7512 73.9921 2
      vertex 64.6433 73.3773 2
      vertex 64.2031 73.6193 2
    endloop
  endfacet
  facet normal 0 0 1
    outer loop
      vertex 65.4159 -72.7382 2
      vertex 62.7512 -73.9921 2
      vertex 65.0497 -73.0821 2
    endloop
  endfacet
  facet normal 0 0 1
    outer loop
      vertex 62.7512 73.9921 2
      vertex 64.2031 73.6193 2
      vertex 63.7361 73.8042 2
    endloop
  endfacet
  facet normal 0 0 1
    outer loop
      vertex 65.0497 -73.0821 2
      vertex 62.7512 -73.9921 2
      vertex 64.6433 -73.3773 2
    endloop
  endfacet
  facet normal 0 0 1
    outer loop
      vertex 62.7512 73.9921 2
      vertex 63.7361 73.8042 2
      vertex 63.2495 73.9291 2
    endloop
  endfacet
  facet normal 0 0 1
    outer loop
      vertex 64.6433 -73.3773 2
      vertex 62.7512 -73.9921 2
      vertex 64.2031 -73.6193 2
    endloop
  endfacet
  facet normal 0 0 1
    outer loop
      vertex 64.2031 -73.6193 2
      vertex 62.7512 -73.9921 2
      vertex 63.7361 -73.8042 2
    endloop
  endfacet
  facet normal 0 0 1
    outer loop
      vertex 63.7361 -73.8042 2
      vertex 62.7512 -73.9921 2
      vertex 63.2495 -73.9291 2
    endloop
  endfacet
  facet normal 0 0 1
    outer loop
      vertex -66.5 70 2
      vertex 62.7512 73.9921 2
      vertex -62.7512 73.9921 2
    endloop
  endfacet
  facet normal 0 -0 1
    outer loop
      vertex 62.7512 -73.9921 2
      vertex 66.5 -70 2
      vertex -66.5 -70 2
    endloop
  endfacet
  facet normal 0 0 1
    outer loop
      vertex -66.5 70 2
      vertex -62.7512 73.9921 2
      vertex -63.2495 73.9291 2
    endloop
  endfacet
  facet normal 0 0 1
    outer loop
      vertex 66.5 -70 2
      vertex 62.7512 -73.9921 2
      vertex 66.4685 -70.5013 2
    endloop
  endfacet
  facet normal 0 0 1
    outer loop
      vertex -66.5 70 2
      vertex -63.2495 73.9291 2
      vertex -63.7361 73.8042 2
    endloop
  endfacet
  facet normal 0 0 1
    outer loop
      vertex 62.7512 -73.9921 2
      vertex -66.5 -70 2
      vertex -62.7512 -73.9921 2
    endloop
  endfacet
  facet normal 0 0 1
    outer loop
      vertex -66.5 70 2
      vertex -63.7361 73.8042 2
      vertex -64.2031 73.6193 2
    endloop
  endfacet
  facet normal 0 0 1
    outer loop
      vertex -62.7512 -73.9921 2
      vertex -66.5 -70 2
      vertex -63.2495 -73.9291 2
    endloop
  endfacet
  facet normal 0 0 1
    outer loop
      vertex -66.5 70 2
      vertex -64.2031 73.6193 2
      vertex -64.6433 73.3773 2
    endloop
  endfacet
  facet normal 0 0 1
    outer loop
      vertex -63.2495 -73.9291 2
      vertex -66.5 -70 2
      vertex -63.7361 -73.8042 2
    endloop
  endfacet
  facet normal 0 0 1
    outer loop
      vertex -66.5 70 2
      vertex -64.6433 73.3773 2
      vertex -65.0497 73.0821 2
    endloop
  endfacet
  facet normal 0 0 1
    outer loop
      vertex -63.7361 -73.8042 2
      vertex -66.5 -70 2
      vertex -64.2031 -73.6193 2
    endloop
  endfacet
  facet normal 0 0 1
    outer loop
      vertex -66.5 70 2
      vertex -65.0497 73.0821 2
      vertex -65.4159 72.7382 2
    endloop
  endfacet
  facet normal 0 0 1
    outer loop
      vertex -64.2031 -73.6193 2
      vertex -66.5 -70 2
      vertex -64.6433 -73.3773 2
    endloop
  endfacet
  facet normal 0 0 1
    outer loop
      vertex -66.5 70 2
      vertex -65.4159 72.7382 2
      vertex -65.7361 72.3511 2
    endloop
  endfacet
  facet normal 0 0 1
    outer loop
      vertex -64.6433 -73.3773 2
      vertex -66.5 -70 2
      vertex -65.0497 -73.0821 2
    endloop
  endfacet
  facet normal 0 0 1
    outer loop
      vertex -66.5 70 2
      vertex -65.7361 72.3511 2
      vertex -66.0052 71.927 2
    endloop
  endfacet
  facet normal 0 0 1
    outer loop
      vertex -65.0497 -73.0821 2
      vertex -66.5 -70 2
      vertex -65.4159 -72.7382 2
    endloop
  endfacet
  facet normal 0 0 1
    outer loop
      vertex -66.5 70 2
      vertex -66.0052 71.927 2
      vertex -66.2191 71.4725 2
    endloop
  endfacet
  facet normal 0 0 1
    outer loop
      vertex -65.4159 -72.7382 2
      vertex -66.5 -70 2
      vertex -65.7361 -72.3511 2
    endloop
  endfacet
  facet normal 0 0 1
    outer loop
      vertex -66.5 70 2
      vertex -66.2191 71.4725 2
      vertex -66.3743 70.9948 2
    endloop
  endfacet
  facet normal 0 0 1
    outer loop
      vertex -65.7361 -72.3511 2
      vertex -66.5 -70 2
      vertex -66.0052 -71.927 2
    endloop
  endfacet
  facet normal 0 0 1
    outer loop
      vertex -66.5 70 2
      vertex -66.3743 70.9948 2
      vertex -66.4685 70.5013 2
    endloop
  endfacet
  facet normal 0 0 1
    outer loop
      vertex -66.0052 -71.927 2
      vertex -66.5 -70 2
      vertex -66.2191 -71.4725 2
    endloop
  endfacet
  facet normal 0 0 1
    outer loop
      vertex -66.2191 -71.4725 2
      vertex -66.5 -70 2
      vertex -66.3743 -70.9948 2
    endloop
  endfacet
  facet normal 0 0 1
    outer loop
      vertex -66.3743 -70.9948 2
      vertex -66.5 -70 2
      vertex -66.4685 -70.5013 2
    endloop
  endfacet
  facet normal 0.982265 0.187496 0
    outer loop
      vertex -66.3743 -70.9948 21
      vertex -66.4685 -70.5013 2
      vertex -66.4685 -70.5013 21
    endloop
  endfacet
  facet normal 0.982265 0.187496 0
    outer loop
      vertex -66.4685 -70.5013 2
      vertex -66.3743 -70.9948 21
      vertex -66.3743 -70.9948 2
    endloop
  endfacet
  facet normal 0.844366 0.535767 0
    outer loop
      vertex -65.7361 -72.3511 21
      vertex -66.0052 -71.927 2
      vertex -66.0052 -71.927 21
    endloop
  endfacet
  facet normal 0.844366 0.535767 0
    outer loop
      vertex -66.0052 -71.927 2
      vertex -65.7361 -72.3511 21
      vertex -65.7361 -72.3511 2
    endloop
  endfacet
  facet normal 0.844366 -0.535767 0
    outer loop
      vertex -66.0052 71.927 21
      vertex -65.7361 72.3511 2
      vertex -65.7361 72.3511 21
    endloop
  endfacet
  facet normal 0.844366 -0.535767 0
    outer loop
      vertex -65.7361 72.3511 2
      vertex -66.0052 71.927 21
      vertex -66.0052 71.927 2
    endloop
  endfacet
  facet normal 0.982265 -0.187496 0
    outer loop
      vertex -66.4685 70.5013 21
      vertex -66.3743 70.9948 2
      vertex -66.3743 70.9948 21
    endloop
  endfacet
  facet normal 0.982265 -0.187496 0
    outer loop
      vertex -66.3743 70.9948 2
      vertex -66.4685 70.5013 21
      vertex -66.4685 70.5013 2
    endloop
  endfacet
  facet normal 0.998032 -0.0627129 0
    outer loop
      vertex -66.5 70 21
      vertex -66.4685 70.5013 2
      vertex -66.4685 70.5013 21
    endloop
  endfacet
  facet normal 0.998032 -0.0627129 0
    outer loop
      vertex -66.4685 70.5013 2
      vertex -66.5 70 21
      vertex -66.5 70 2
    endloop
  endfacet
  facet normal 0.587698 -0.80908 0
    outer loop
      vertex -65.0497 73.0821 2
      vertex -64.6433 73.3773 21
      vertex -65.0497 73.0821 21
    endloop
  endfacet
  facet normal 0.587698 -0.80908 0
    outer loop
      vertex -64.6433 73.3773 21
      vertex -65.0497 73.0821 2
      vertex -64.6433 73.3773 2
    endloop
  endfacet
  facet normal 0.368127 -0.929775 0
    outer loop
      vertex -64.2031 73.6193 2
      vertex -63.7361 73.8042 21
      vertex -64.2031 73.6193 21
    endloop
  endfacet
  facet normal 0.368127 -0.929775 0
    outer loop
      vertex -63.7361 73.8042 21
      vertex -64.2031 73.6193 2
      vertex -63.7361 73.8042 2
    endloop
  endfacet
  facet normal -0.844366 -0.535767 0
    outer loop
      vertex 66.0052 71.927 2
      vertex 65.7361 72.3511 21
      vertex 65.7361 72.3511 2
    endloop
  endfacet
  facet normal -0.844366 -0.535767 0
    outer loop
      vertex 65.7361 72.3511 21
      vertex 66.0052 71.927 2
      vertex 66.0052 71.927 21
    endloop
  endfacet
  facet normal -0.904805 -0.425826 0
    outer loop
      vertex 66.2191 71.4725 2
      vertex 66.0052 71.927 21
      vertex 66.0052 71.927 2
    endloop
  endfacet
  facet normal -0.904805 -0.425826 0
    outer loop
      vertex 66.0052 71.927 21
      vertex 66.2191 71.4725 2
      vertex 66.2191 71.4725 21
    endloop
  endfacet
  facet normal -0.982265 -0.187496 0
    outer loop
      vertex 66.4685 70.5013 2
      vertex 66.3743 70.9948 21
      vertex 66.3743 70.9948 2
    endloop
  endfacet
  facet normal -0.982265 -0.187496 0
    outer loop
      vertex 66.3743 70.9948 21
      vertex 66.4685 70.5013 2
      vertex 66.4685 70.5013 21
    endloop
  endfacet
  facet normal -0.998032 0.0627129 0
    outer loop
      vertex 66.4685 -70.5013 2
      vertex 66.5 -70 21
      vertex 66.5 -70 2
    endloop
  endfacet
  facet normal -0.998032 0.0627129 0
    outer loop
      vertex 66.5 -70 21
      vertex 66.4685 -70.5013 2
      vertex 66.4685 -70.5013 21
    endloop
  endfacet
  facet normal -0.684563 0.728953 0
    outer loop
      vertex 65.4159 -72.7382 2
      vertex 65.0497 -73.0821 21
      vertex 65.4159 -72.7382 21
    endloop
  endfacet
  facet normal -0.684563 0.728953 0
    outer loop
      vertex 65.0497 -73.0821 21
      vertex 65.4159 -72.7382 2
      vertex 65.0497 -73.0821 2
    endloop
  endfacet
  facet normal -0.24862 0.968601 0
    outer loop
      vertex 63.7361 -73.8042 2
      vertex 63.2495 -73.9291 21
      vertex 63.7361 -73.8042 21
    endloop
  endfacet
  facet normal -0.24862 0.968601 0
    outer loop
      vertex 63.2495 -73.9291 21
      vertex 63.7361 -73.8042 2
      vertex 63.2495 -73.9291 2
    endloop
  endfacet
endsolid OpenSCAD_Model
