solid OpenSCAD_Model
  facet normal -1 0 0
    outer loop
      vertex -11.25 -17.5 0
      vertex -11.25 17.5 12
      vertex -11.25 17.5 0
    endloop
  endfacet
  facet normal -1 -0 0
    outer loop
      vertex -11.25 17.5 12
      vertex -11.25 -17.5 0
      vertex -11.25 -17.5 12
    endloop
  endfacet
  facet normal -0.99803 -0.0627451 0
    outer loop
      vertex -11.2106 -18.1267 0
      vertex -11.25 -17.5 12
      vertex -11.25 -17.5 0
    endloop
  endfacet
  facet normal -0.99803 -0.0627451 0
    outer loop
      vertex -11.25 -17.5 12
      vertex -11.2106 -18.1267 0
      vertex -11.2106 -18.1267 12
    endloop
  endfacet
  facet normal -0.99803 0.0627451 0
    outer loop
      vertex -11.25 17.5 0
      vertex -11.2106 18.1267 12
      vertex -11.2106 18.1267 0
    endloop
  endfacet
  facet normal -0.99803 0.0627451 0
    outer loop
      vertex -11.2106 18.1267 12
      vertex -11.25 17.5 0
      vertex -11.25 17.5 12
    endloop
  endfacet
  facet normal 0 0 1
    outer loop
      vertex 10.25 17.5 12
      vertex 11.25 17.5 12
      vertex 11.2106 18.1267 12
    endloop
  endfacet
  facet normal 0 0 1
    outer loop
      vertex 11.25 17.5 12
      vertex 10.25 17.5 12
      vertex 11.25 -17.5 12
    endloop
  endfacet
  facet normal 0 0 1
    outer loop
      vertex 10.2185 18.0013 12
      vertex 11.2106 18.1267 12
      vertex 11.0929 18.7435 12
    endloop
  endfacet
  facet normal 0 0 1
    outer loop
      vertex 10.25 -17.5 12
      vertex 11.25 -17.5 12
      vertex 10.25 17.5 12
    endloop
  endfacet
  facet normal 0 0 1
    outer loop
      vertex 10.1243 18.4948 12
      vertex 11.0929 18.7435 12
      vertex 10.8989 19.3406 12
    endloop
  endfacet
  facet normal 0 0 1
    outer loop
      vertex 11.25 -17.5 12
      vertex 10.25 -17.5 12
      vertex 11.2106 -18.1267 12
    endloop
  endfacet
  facet normal 0 0 1
    outer loop
      vertex 9.96911 18.9725 12
      vertex 10.8989 19.3406 12
      vertex 10.6315 19.9088 12
    endloop
  endfacet
  facet normal -0 0 1
    outer loop
      vertex 10.2185 -18.0013 12
      vertex 11.2106 -18.1267 12
      vertex 10.25 -17.5 12
    endloop
  endfacet
  facet normal 0 0 1
    outer loop
      vertex 9.75523 19.427 12
      vertex 10.6315 19.9088 12
      vertex 10.2951 20.4389 12
    endloop
  endfacet
  facet normal 0 0 1
    outer loop
      vertex 11.2106 -18.1267 12
      vertex 10.2185 -18.0013 12
      vertex 11.0929 -18.7435 12
    endloop
  endfacet
  facet normal -0 0 1
    outer loop
      vertex 10.1243 -18.4948 12
      vertex 11.0929 -18.7435 12
      vertex 10.2185 -18.0013 12
    endloop
  endfacet
  facet normal 0 0 1
    outer loop
      vertex 11.2106 18.1267 12
      vertex 10.2185 18.0013 12
      vertex 10.25 17.5 12
    endloop
  endfacet
  facet normal 0 0 1
    outer loop
      vertex 11.0929 18.7435 12
      vertex 10.1243 18.4948 12
      vertex 10.2185 18.0013 12
    endloop
  endfacet
  facet normal 0 0 1
    outer loop
      vertex 10.8989 19.3406 12
      vertex 9.96911 18.9725 12
      vertex 10.1243 18.4948 12
    endloop
  endfacet
  facet normal 0 0 1
    outer loop
      vertex 9.48607 19.8511 12
      vertex 10.2951 20.4389 12
      vertex 9.89484 20.9227 12
    endloop
  endfacet
  facet normal 0 0 1
    outer loop
      vertex 10.6315 19.9088 12
      vertex 9.75523 19.427 12
      vertex 9.96911 18.9725 12
    endloop
  endfacet
  facet normal 0 0 1
    outer loop
      vertex 10.2951 20.4389 12
      vertex 9.48607 19.8511 12
      vertex 9.75523 19.427 12
    endloop
  endfacet
  facet normal 0 0 1
    outer loop
      vertex 9.16587 20.2382 12
      vertex 9.89484 20.9227 12
      vertex 9.43712 21.3526 12
    endloop
  endfacet
  facet normal 0 0 1
    outer loop
      vertex 9.89484 20.9227 12
      vertex 9.16587 20.2382 12
      vertex 9.48607 19.8511 12
    endloop
  endfacet
  facet normal 0 0 1
    outer loop
      vertex 8.7997 20.5821 12
      vertex 9.43712 21.3526 12
      vertex 8.92913 21.7216 12
    endloop
  endfacet
  facet normal 0 0 1
    outer loop
      vertex 9.43712 21.3526 12
      vertex 8.7997 20.5821 12
      vertex 9.16587 20.2382 12
    endloop
  endfacet
  facet normal 0 0 1
    outer loop
      vertex 8.92913 21.7216 12
      vertex 8.39331 20.8773 12
      vertex 8.7997 20.5821 12
    endloop
  endfacet
  facet normal 0 0 1
    outer loop
      vertex 8.3789 22.0241 12
      vertex 8.39331 20.8773 12
      vertex 8.92913 21.7216 12
    endloop
  endfacet
  facet normal 0 0 1
    outer loop
      vertex 8.3789 22.0241 12
      vertex 7.95312 21.1193 12
      vertex 8.39331 20.8773 12
    endloop
  endfacet
  facet normal 0 0 1
    outer loop
      vertex 7.79508 22.2553 12
      vertex 7.95312 21.1193 12
      vertex 8.3789 22.0241 12
    endloop
  endfacet
  facet normal 0 0 1
    outer loop
      vertex 7.79508 22.2553 12
      vertex 7.48607 21.3042 12
      vertex 7.95312 21.1193 12
    endloop
  endfacet
  facet normal 0 0 1
    outer loop
      vertex 7.18691 22.4114 12
      vertex 7.48607 21.3042 12
      vertex 7.79508 22.2553 12
    endloop
  endfacet
  facet normal 0 0 1
    outer loop
      vertex 7.18691 22.4114 12
      vertex 6.99953 21.4291 12
      vertex 7.48607 21.3042 12
    endloop
  endfacet
  facet normal 0 0 1
    outer loop
      vertex 6.56395 22.4901 12
      vertex 6.99953 21.4291 12
      vertex 7.18691 22.4114 12
    endloop
  endfacet
  facet normal 0 0 1
    outer loop
      vertex 6.56395 22.4901 12
      vertex 6.50116 21.4921 12
      vertex 6.99953 21.4291 12
    endloop
  endfacet
  facet normal 0 0 1
    outer loop
      vertex 6.56395 22.4901 12
      vertex -6.50116 21.4921 12
      vertex 6.50116 21.4921 12
    endloop
  endfacet
  facet normal -0 0 1
    outer loop
      vertex -6.56395 22.4901 12
      vertex -6.50116 21.4921 12
      vertex 6.56395 22.4901 12
    endloop
  endfacet
  facet normal 0 0 1
    outer loop
      vertex -6.56395 22.4901 12
      vertex -6.99953 21.4291 12
      vertex -6.50116 21.4921 12
    endloop
  endfacet
  facet normal -0 0 1
    outer loop
      vertex -7.18691 22.4114 12
      vertex -6.99953 21.4291 12
      vertex -6.56395 22.4901 12
    endloop
  endfacet
  facet normal 0 0 1
    outer loop
      vertex -7.18691 22.4114 12
      vertex -7.48607 21.3042 12
      vertex -6.99953 21.4291 12
    endloop
  endfacet
  facet normal -0 0 1
    outer loop
      vertex -7.79508 22.2553 12
      vertex -7.48607 21.3042 12
      vertex -7.18691 22.4114 12
    endloop
  endfacet
  facet normal 0 0 1
    outer loop
      vertex -7.79508 22.2553 12
      vertex -7.95312 21.1193 12
      vertex -7.48607 21.3042 12
    endloop
  endfacet
  facet normal -0 0 1
    outer loop
      vertex -8.3789 22.0241 12
      vertex -7.95312 21.1193 12
      vertex -7.79508 22.2553 12
    endloop
  endfacet
  facet normal 0 0 1
    outer loop
      vertex -8.3789 22.0241 12
      vertex -8.39331 20.8773 12
      vertex -7.95312 21.1193 12
    endloop
  endfacet
  facet normal -0 0 1
    outer loop
      vertex -8.92913 21.7216 12
      vertex -8.39331 20.8773 12
      vertex -8.3789 22.0241 12
    endloop
  endfacet
  facet normal 0 0 1
    outer loop
      vertex -8.39331 20.8773 12
      vertex -8.92913 21.7216 12
      vertex -8.7997 20.5821 12
    endloop
  endfacet
  facet normal -0 0 1
    outer loop
      vertex -9.43712 21.3526 12
      vertex -8.7997 20.5821 12
      vertex -8.92913 21.7216 12
    endloop
  endfacet
  facet normal 0 0 1
    outer loop
      vertex -8.7997 20.5821 12
      vertex -9.43712 21.3526 12
      vertex -9.16587 20.2382 12
    endloop
  endfacet
  facet normal -0 0 1
    outer loop
      vertex -9.89484 20.9227 12
      vertex -9.16587 20.2382 12
      vertex -9.43712 21.3526 12
    endloop
  endfacet
  facet normal 0 0 1
    outer loop
      vertex -9.16587 20.2382 12
      vertex -9.89484 20.9227 12
      vertex -9.48607 19.8511 12
    endloop
  endfacet
  facet normal -0 0 1
    outer loop
      vertex -10.2951 20.4389 12
      vertex -9.48607 19.8511 12
      vertex -9.89484 20.9227 12
    endloop
  endfacet
  facet normal 0 0 1
    outer loop
      vertex -9.48607 19.8511 12
      vertex -10.2951 20.4389 12
      vertex -9.75523 19.427 12
    endloop
  endfacet
  facet normal -0 0 1
    outer loop
      vertex -10.6315 19.9088 12
      vertex -9.75523 19.427 12
      vertex -10.2951 20.4389 12
    endloop
  endfacet
  facet normal 0 0 1
    outer loop
      vertex -9.75523 19.427 12
      vertex -10.6315 19.9088 12
      vertex -9.96911 18.9725 12
    endloop
  endfacet
  facet normal -0 0 1
    outer loop
      vertex -11.0929 18.7435 12
      vertex -10.1243 18.4948 12
      vertex -10.8989 19.3406 12
    endloop
  endfacet
  facet normal 0 0 1
    outer loop
      vertex -9.96911 18.9725 12
      vertex -10.8989 19.3406 12
      vertex -10.1243 18.4948 12
    endloop
  endfacet
  facet normal -0 0 1
    outer loop
      vertex -10.8989 19.3406 12
      vertex -9.96911 18.9725 12
      vertex -10.6315 19.9088 12
    endloop
  endfacet
  facet normal 0 0 1
    outer loop
      vertex 11.0929 -18.7435 12
      vertex 10.1243 -18.4948 12
      vertex 10.8989 -19.3406 12
    endloop
  endfacet
  facet normal -0 0 1
    outer loop
      vertex 9.96911 -18.9725 12
      vertex 10.8989 -19.3406 12
      vertex 10.1243 -18.4948 12
    endloop
  endfacet
  facet normal 0 0 1
    outer loop
      vertex 10.8989 -19.3406 12
      vertex 9.96911 -18.9725 12
      vertex 10.6315 -19.9088 12
    endloop
  endfacet
  facet normal -0 0 1
    outer loop
      vertex 9.75523 -19.427 12
      vertex 10.6315 -19.9088 12
      vertex 9.96911 -18.9725 12
    endloop
  endfacet
  facet normal 0 0 1
    outer loop
      vertex 10.6315 -19.9088 12
      vertex 9.75523 -19.427 12
      vertex 10.2951 -20.4389 12
    endloop
  endfacet
  facet normal -0 0 1
    outer loop
      vertex 9.48607 -19.8511 12
      vertex 10.2951 -20.4389 12
      vertex 9.75523 -19.427 12
    endloop
  endfacet
  facet normal 0 0 1
    outer loop
      vertex 10.2951 -20.4389 12
      vertex 9.48607 -19.8511 12
      vertex 9.89484 -20.9227 12
    endloop
  endfacet
  facet normal -0 0 1
    outer loop
      vertex 9.16587 -20.2382 12
      vertex 9.89484 -20.9227 12
      vertex 9.48607 -19.8511 12
    endloop
  endfacet
  facet normal 0 0 1
    outer loop
      vertex 9.89484 -20.9227 12
      vertex 9.16587 -20.2382 12
      vertex 9.43712 -21.3526 12
    endloop
  endfacet
  facet normal -0 0 1
    outer loop
      vertex 8.7997 -20.5821 12
      vertex 9.43712 -21.3526 12
      vertex 9.16587 -20.2382 12
    endloop
  endfacet
  facet normal 0 0 1
    outer loop
      vertex 9.43712 -21.3526 12
      vertex 8.7997 -20.5821 12
      vertex 8.92913 -21.7216 12
    endloop
  endfacet
  facet normal -0 0 1
    outer loop
      vertex 8.39331 -20.8773 12
      vertex 8.92913 -21.7216 12
      vertex 8.7997 -20.5821 12
    endloop
  endfacet
  facet normal 0 0 1
    outer loop
      vertex 8.39331 -20.8773 12
      vertex 8.3789 -22.0241 12
      vertex 8.92913 -21.7216 12
    endloop
  endfacet
  facet normal -0 0 1
    outer loop
      vertex 7.95312 -21.1193 12
      vertex 8.3789 -22.0241 12
      vertex 8.39331 -20.8773 12
    endloop
  endfacet
  facet normal 0 0 1
    outer loop
      vertex 7.95312 -21.1193 12
      vertex 7.79508 -22.2553 12
      vertex 8.3789 -22.0241 12
    endloop
  endfacet
  facet normal -0 0 1
    outer loop
      vertex 7.48607 -21.3042 12
      vertex 7.79508 -22.2553 12
      vertex 7.95312 -21.1193 12
    endloop
  endfacet
  facet normal 0 0 1
    outer loop
      vertex 7.48607 -21.3042 12
      vertex 7.18691 -22.4114 12
      vertex 7.79508 -22.2553 12
    endloop
  endfacet
  facet normal -0 0 1
    outer loop
      vertex 6.99953 -21.4291 12
      vertex 7.18691 -22.4114 12
      vertex 7.48607 -21.3042 12
    endloop
  endfacet
  facet normal 0 0 1
    outer loop
      vertex 6.99953 -21.4291 12
      vertex 6.56395 -22.4901 12
      vertex 7.18691 -22.4114 12
    endloop
  endfacet
  facet normal -0 0 1
    outer loop
      vertex 6.50116 -21.4921 12
      vertex 6.56395 -22.4901 12
      vertex 6.99953 -21.4291 12
    endloop
  endfacet
  facet normal -0 0 1
    outer loop
      vertex -6.50116 -21.4921 12
      vertex 6.56395 -22.4901 12
      vertex 6.50116 -21.4921 12
    endloop
  endfacet
  facet normal 0 0 1
    outer loop
      vertex -6.50116 -21.4921 12
      vertex -6.56395 -22.4901 12
      vertex 6.56395 -22.4901 12
    endloop
  endfacet
  facet normal 0 0 1
    outer loop
      vertex -6.99953 -21.4291 12
      vertex -6.56395 -22.4901 12
      vertex -6.50116 -21.4921 12
    endloop
  endfacet
  facet normal 0 0 1
    outer loop
      vertex -6.99953 -21.4291 12
      vertex -7.18691 -22.4114 12
      vertex -6.56395 -22.4901 12
    endloop
  endfacet
  facet normal 0 0 1
    outer loop
      vertex -7.48607 -21.3042 12
      vertex -7.18691 -22.4114 12
      vertex -6.99953 -21.4291 12
    endloop
  endfacet
  facet normal 0 0 1
    outer loop
      vertex -7.48607 -21.3042 12
      vertex -7.79508 -22.2553 12
      vertex -7.18691 -22.4114 12
    endloop
  endfacet
  facet normal 0 0 1
    outer loop
      vertex -7.95312 -21.1193 12
      vertex -7.79508 -22.2553 12
      vertex -7.48607 -21.3042 12
    endloop
  endfacet
  facet normal 0 0 1
    outer loop
      vertex -7.95312 -21.1193 12
      vertex -8.3789 -22.0241 12
      vertex -7.79508 -22.2553 12
    endloop
  endfacet
  facet normal 0 0 1
    outer loop
      vertex -8.39331 -20.8773 12
      vertex -8.3789 -22.0241 12
      vertex -7.95312 -21.1193 12
    endloop
  endfacet
  facet normal 0 0 1
    outer loop
      vertex -8.92913 -21.7216 12
      vertex -8.39331 -20.8773 12
      vertex -8.7997 -20.5821 12
    endloop
  endfacet
  facet normal 0 0 1
    outer loop
      vertex -8.39331 -20.8773 12
      vertex -8.92913 -21.7216 12
      vertex -8.3789 -22.0241 12
    endloop
  endfacet
  facet normal 0 0 1
    outer loop
      vertex -9.43712 -21.3526 12
      vertex -8.7997 -20.5821 12
      vertex -9.16587 -20.2382 12
    endloop
  endfacet
  facet normal 0 0 1
    outer loop
      vertex -8.7997 -20.5821 12
      vertex -9.43712 -21.3526 12
      vertex -8.92913 -21.7216 12
    endloop
  endfacet
  facet normal 0 0 1
    outer loop
      vertex -9.89484 -20.9227 12
      vertex -9.16587 -20.2382 12
      vertex -9.48607 -19.8511 12
    endloop
  endfacet
  facet normal 0 0 1
    outer loop
      vertex -10.2951 -20.4389 12
      vertex -9.48607 -19.8511 12
      vertex -9.75523 -19.427 12
    endloop
  endfacet
  facet normal 0 0 1
    outer loop
      vertex -9.16587 -20.2382 12
      vertex -9.89484 -20.9227 12
      vertex -9.43712 -21.3526 12
    endloop
  endfacet
  facet normal 0 0 1
    outer loop
      vertex -10.6315 -19.9088 12
      vertex -9.75523 -19.427 12
      vertex -9.96911 -18.9725 12
    endloop
  endfacet
  facet normal 0 0 1
    outer loop
      vertex -10.8989 -19.3406 12
      vertex -9.96911 -18.9725 12
      vertex -10.1243 -18.4948 12
    endloop
  endfacet
  facet normal 0 0 1
    outer loop
      vertex -11.0929 -18.7435 12
      vertex -10.1243 -18.4948 12
      vertex -10.2185 -18.0013 12
    endloop
  endfacet
  facet normal 0 0 1
    outer loop
      vertex -9.48607 -19.8511 12
      vertex -10.2951 -20.4389 12
      vertex -9.89484 -20.9227 12
    endloop
  endfacet
  facet normal 0 0 1
    outer loop
      vertex -11.2106 -18.1267 12
      vertex -10.2185 -18.0013 12
      vertex -10.25 -17.5 12
    endloop
  endfacet
  facet normal 0 0 1
    outer loop
      vertex -10.25 17.5 12
      vertex -11.25 17.5 12
      vertex -10.25 -17.5 12
    endloop
  endfacet
  facet normal 0 0 1
    outer loop
      vertex -10.1243 18.4948 12
      vertex -11.0929 18.7435 12
      vertex -10.2185 18.0013 12
    endloop
  endfacet
  facet normal 0 0 1
    outer loop
      vertex -11.25 -17.5 12
      vertex -10.25 -17.5 12
      vertex -11.25 17.5 12
    endloop
  endfacet
  facet normal -0 0 1
    outer loop
      vertex -11.2106 18.1267 12
      vertex -10.2185 18.0013 12
      vertex -11.0929 18.7435 12
    endloop
  endfacet
  facet normal 0 -0 1
    outer loop
      vertex -11.2106 -18.1267 12
      vertex -10.25 -17.5 12
      vertex -11.25 -17.5 12
    endloop
  endfacet
  facet normal 0 0 1
    outer loop
      vertex -10.2185 18.0013 12
      vertex -11.2106 18.1267 12
      vertex -10.25 17.5 12
    endloop
  endfacet
  facet normal 0 0 1
    outer loop
      vertex -9.75523 -19.427 12
      vertex -10.6315 -19.9088 12
      vertex -10.2951 -20.4389 12
    endloop
  endfacet
  facet normal 0 0 1
    outer loop
      vertex -10.25 17.5 12
      vertex -11.2106 18.1267 12
      vertex -11.25 17.5 12
    endloop
  endfacet
  facet normal 0 0 1
    outer loop
      vertex -9.96911 -18.9725 12
      vertex -10.8989 -19.3406 12
      vertex -10.6315 -19.9088 12
    endloop
  endfacet
  facet normal 0 0 1
    outer loop
      vertex -10.1243 -18.4948 12
      vertex -11.0929 -18.7435 12
      vertex -10.8989 -19.3406 12
    endloop
  endfacet
  facet normal 0 0 1
    outer loop
      vertex -10.2185 -18.0013 12
      vertex -11.2106 -18.1267 12
      vertex -11.0929 -18.7435 12
    endloop
  endfacet
  facet normal 1 -0 0
    outer loop
      vertex 11.25 -17.5 12
      vertex 11.25 17.5 0
      vertex 11.25 17.5 12
    endloop
  endfacet
  facet normal 1 0 0
    outer loop
      vertex 11.25 17.5 0
      vertex 11.25 -17.5 12
      vertex 11.25 -17.5 0
    endloop
  endfacet
  facet normal 0.770493 0.637448 0
    outer loop
      vertex 10.2951 20.4389 12
      vertex 9.89484 20.9227 0
      vertex 9.89484 20.9227 12
    endloop
  endfacet
  facet normal 0.770493 0.637448 0
    outer loop
      vertex 9.89484 20.9227 0
      vertex 10.2951 20.4389 12
      vertex 10.2951 20.4389 0
    endloop
  endfacet
  facet normal -0.125336 -0.992114 0
    outer loop
      vertex -7.18691 -22.4114 0
      vertex -6.56395 -22.4901 12
      vertex -7.18691 -22.4114 12
    endloop
  endfacet
  facet normal -0.125336 -0.992114 -0
    outer loop
      vertex -6.56395 -22.4901 12
      vertex -7.18691 -22.4114 0
      vertex -6.56395 -22.4901 0
    endloop
  endfacet
  facet normal -0.125336 0.992114 0
    outer loop
      vertex -6.56395 22.4901 0
      vertex -7.18691 22.4114 12
      vertex -6.56395 22.4901 12
    endloop
  endfacet
  facet normal -0.125336 0.992114 0
    outer loop
      vertex -7.18691 22.4114 12
      vertex -6.56395 22.4901 0
      vertex -7.18691 22.4114 0
    endloop
  endfacet
  facet normal 0 1 -0
    outer loop
      vertex 6.56395 22.4901 0
      vertex -6.56395 22.4901 12
      vertex 6.56395 22.4901 12
    endloop
  endfacet
  facet normal 0 1 0
    outer loop
      vertex -6.56395 22.4901 12
      vertex 6.56395 22.4901 0
      vertex -6.56395 22.4901 0
    endloop
  endfacet
  facet normal -0.248613 -0.968603 0
    outer loop
      vertex -7.79508 -22.2553 0
      vertex -7.18691 -22.4114 12
      vertex -7.79508 -22.2553 12
    endloop
  endfacet
  facet normal -0.248613 -0.968603 -0
    outer loop
      vertex -7.18691 -22.4114 12
      vertex -7.79508 -22.2553 0
      vertex -7.18691 -22.4114 0
    endloop
  endfacet
  facet normal 0 -1 0
    outer loop
      vertex -6.56395 -22.4901 0
      vertex 6.56395 -22.4901 12
      vertex -6.56395 -22.4901 12
    endloop
  endfacet
  facet normal 0 -1 -0
    outer loop
      vertex 6.56395 -22.4901 12
      vertex -6.56395 -22.4901 0
      vertex 6.56395 -22.4901 0
    endloop
  endfacet
  facet normal 0.951061 0.309003 0
    outer loop
      vertex 11.0929 18.7435 12
      vertex 10.8989 19.3406 0
      vertex 10.8989 19.3406 12
    endloop
  endfacet
  facet normal 0.951061 0.309003 0
    outer loop
      vertex 10.8989 19.3406 0
      vertex 11.0929 18.7435 12
      vertex 11.0929 18.7435 0
    endloop
  endfacet
  facet normal 0.125336 0.992114 -0
    outer loop
      vertex 7.18691 22.4114 0
      vertex 6.56395 22.4901 12
      vertex 7.18691 22.4114 12
    endloop
  endfacet
  facet normal 0.125336 0.992114 0
    outer loop
      vertex 6.56395 22.4901 12
      vertex 7.18691 22.4114 0
      vertex 6.56395 22.4901 0
    endloop
  endfacet
  facet normal -0.951061 0.309003 0
    outer loop
      vertex -11.0929 18.7435 0
      vertex -10.8989 19.3406 12
      vertex -10.8989 19.3406 0
    endloop
  endfacet
  facet normal -0.951061 0.309003 0
    outer loop
      vertex -10.8989 19.3406 12
      vertex -11.0929 18.7435 0
      vertex -11.0929 18.7435 12
    endloop
  endfacet
  facet normal 0 0 -1
    outer loop
      vertex 6.56395 -22.4901 0
      vertex 11.25 -17.5 0
      vertex 11.2106 -18.1267 0
    endloop
  endfacet
  facet normal 0 0 -1
    outer loop
      vertex 11.25 -17.5 0
      vertex -11.25 -17.5 0
      vertex 11.25 17.5 0
    endloop
  endfacet
  facet normal 0 0 -1
    outer loop
      vertex 6.56395 -22.4901 0
      vertex 11.2106 -18.1267 0
      vertex 11.0929 -18.7435 0
    endloop
  endfacet
  facet normal 0 0 -1
    outer loop
      vertex -11.25 17.5 0
      vertex 11.25 17.5 0
      vertex -11.25 -17.5 0
    endloop
  endfacet
  facet normal 0 0 -1
    outer loop
      vertex 6.56395 -22.4901 0
      vertex 11.0929 -18.7435 0
      vertex 10.8989 -19.3406 0
    endloop
  endfacet
  facet normal 0 -0 -1
    outer loop
      vertex 6.56395 22.4901 0
      vertex 11.25 17.5 0
      vertex -11.25 17.5 0
    endloop
  endfacet
  facet normal 0 0 -1
    outer loop
      vertex 6.56395 -22.4901 0
      vertex 10.8989 -19.3406 0
      vertex 10.6315 -19.9088 0
    endloop
  endfacet
  facet normal 0 0 -1
    outer loop
      vertex 11.25 17.5 0
      vertex 6.56395 22.4901 0
      vertex 11.2106 18.1267 0
    endloop
  endfacet
  facet normal 0 0 -1
    outer loop
      vertex 6.56395 -22.4901 0
      vertex 10.6315 -19.9088 0
      vertex 10.2951 -20.4389 0
    endloop
  endfacet
  facet normal 0 0 -1
    outer loop
      vertex 11.2106 18.1267 0
      vertex 6.56395 22.4901 0
      vertex 11.0929 18.7435 0
    endloop
  endfacet
  facet normal 0 0 -1
    outer loop
      vertex 6.56395 -22.4901 0
      vertex 10.2951 -20.4389 0
      vertex 9.89484 -20.9227 0
    endloop
  endfacet
  facet normal 0 0 -1
    outer loop
      vertex 11.0929 18.7435 0
      vertex 6.56395 22.4901 0
      vertex 10.8989 19.3406 0
    endloop
  endfacet
  facet normal 0 0 -1
    outer loop
      vertex 6.56395 -22.4901 0
      vertex 9.89484 -20.9227 0
      vertex 9.43712 -21.3526 0
    endloop
  endfacet
  facet normal 0 0 -1
    outer loop
      vertex 10.8989 19.3406 0
      vertex 6.56395 22.4901 0
      vertex 10.6315 19.9088 0
    endloop
  endfacet
  facet normal 0 0 -1
    outer loop
      vertex 6.56395 -22.4901 0
      vertex 9.43712 -21.3526 0
      vertex 8.92913 -21.7216 0
    endloop
  endfacet
  facet normal 0 0 -1
    outer loop
      vertex 10.6315 19.9088 0
      vertex 6.56395 22.4901 0
      vertex 10.2951 20.4389 0
    endloop
  endfacet
  facet normal 0 0 -1
    outer loop
      vertex 6.56395 -22.4901 0
      vertex 8.92913 -21.7216 0
      vertex 8.3789 -22.0241 0
    endloop
  endfacet
  facet normal 0 0 -1
    outer loop
      vertex 10.2951 20.4389 0
      vertex 6.56395 22.4901 0
      vertex 9.89484 20.9227 0
    endloop
  endfacet
  facet normal 0 0 -1
    outer loop
      vertex 6.56395 -22.4901 0
      vertex 8.3789 -22.0241 0
      vertex 7.79508 -22.2553 0
    endloop
  endfacet
  facet normal 0 0 -1
    outer loop
      vertex 9.89484 20.9227 0
      vertex 6.56395 22.4901 0
      vertex 9.43712 21.3526 0
    endloop
  endfacet
  facet normal 0 0 -1
    outer loop
      vertex 6.56395 -22.4901 0
      vertex 7.79508 -22.2553 0
      vertex 7.18691 -22.4114 0
    endloop
  endfacet
  facet normal -0 0 -1
    outer loop
      vertex 11.25 -17.5 0
      vertex 6.56395 -22.4901 0
      vertex -11.25 -17.5 0
    endloop
  endfacet
  facet normal 0 0 -1
    outer loop
      vertex 9.43712 21.3526 0
      vertex 6.56395 22.4901 0
      vertex 8.92913 21.7216 0
    endloop
  endfacet
  facet normal 0 0 -1
    outer loop
      vertex 7.79508 22.2553 0
      vertex 6.56395 22.4901 0
      vertex 7.18691 22.4114 0
    endloop
  endfacet
  facet normal 0 0 -1
    outer loop
      vertex -11.25 -17.5 0
      vertex 6.56395 -22.4901 0
      vertex -6.56395 -22.4901 0
    endloop
  endfacet
  facet normal 0 0 -1
    outer loop
      vertex 8.92913 21.7216 0
      vertex 6.56395 22.4901 0
      vertex 8.3789 22.0241 0
    endloop
  endfacet
  facet normal 0 0 -1
    outer loop
      vertex -11.25 -17.5 0
      vertex -6.56395 -22.4901 0
      vertex -7.18691 -22.4114 0
    endloop
  endfacet
  facet normal 0 0 -1
    outer loop
      vertex 8.3789 22.0241 0
      vertex 6.56395 22.4901 0
      vertex 7.79508 22.2553 0
    endloop
  endfacet
  facet normal 0 0 -1
    outer loop
      vertex -11.25 -17.5 0
      vertex -7.18691 -22.4114 0
      vertex -7.79508 -22.2553 0
    endloop
  endfacet
  facet normal -0 0 -1
    outer loop
      vertex 6.56395 22.4901 0
      vertex -11.25 17.5 0
      vertex -6.56395 22.4901 0
    endloop
  endfacet
  facet normal 0 0 -1
    outer loop
      vertex -11.25 -17.5 0
      vertex -7.79508 -22.2553 0
      vertex -8.3789 -22.0241 0
    endloop
  endfacet
  facet normal 0 0 -1
    outer loop
      vertex -6.56395 22.4901 0
      vertex -11.25 17.5 0
      vertex -7.18691 22.4114 0
    endloop
  endfacet
  facet normal 0 0 -1
    outer loop
      vertex -11.25 -17.5 0
      vertex -8.3789 -22.0241 0
      vertex -8.92913 -21.7216 0
    endloop
  endfacet
  facet normal 0 0 -1
    outer loop
      vertex -7.18691 22.4114 0
      vertex -11.25 17.5 0
      vertex -7.79508 22.2553 0
    endloop
  endfacet
  facet normal 0 0 -1
    outer loop
      vertex -11.25 -17.5 0
      vertex -8.92913 -21.7216 0
      vertex -9.43712 -21.3526 0
    endloop
  endfacet
  facet normal 0 0 -1
    outer loop
      vertex -7.79508 22.2553 0
      vertex -11.25 17.5 0
      vertex -8.3789 22.0241 0
    endloop
  endfacet
  facet normal 0 0 -1
    outer loop
      vertex -11.25 -17.5 0
      vertex -9.43712 -21.3526 0
      vertex -9.89484 -20.9227 0
    endloop
  endfacet
  facet normal 0 0 -1
    outer loop
      vertex -8.3789 22.0241 0
      vertex -11.25 17.5 0
      vertex -8.92913 21.7216 0
    endloop
  endfacet
  facet normal 0 0 -1
    outer loop
      vertex -11.25 -17.5 0
      vertex -9.89484 -20.9227 0
      vertex -10.2951 -20.4389 0
    endloop
  endfacet
  facet normal 0 0 -1
    outer loop
      vertex -8.92913 21.7216 0
      vertex -11.25 17.5 0
      vertex -9.43712 21.3526 0
    endloop
  endfacet
  facet normal 0 0 -1
    outer loop
      vertex -11.25 -17.5 0
      vertex -10.2951 -20.4389 0
      vertex -10.6315 -19.9088 0
    endloop
  endfacet
  facet normal 0 0 -1
    outer loop
      vertex -9.43712 21.3526 0
      vertex -11.25 17.5 0
      vertex -9.89484 20.9227 0
    endloop
  endfacet
  facet normal 0 0 -1
    outer loop
      vertex -11.25 -17.5 0
      vertex -10.6315 -19.9088 0
      vertex -10.8989 -19.3406 0
    endloop
  endfacet
  facet normal 0 0 -1
    outer loop
      vertex -9.89484 20.9227 0
      vertex -11.25 17.5 0
      vertex -10.2951 20.4389 0
    endloop
  endfacet
  facet normal 0 0 -1
    outer loop
      vertex -11.25 -17.5 0
      vertex -10.8989 -19.3406 0
      vertex -11.0929 -18.7435 0
    endloop
  endfacet
  facet normal 0 0 -1
    outer loop
      vertex -10.2951 20.4389 0
      vertex -11.25 17.5 0
      vertex -10.6315 19.9088 0
    endloop
  endfacet
  facet normal 0 0 -1
    outer loop
      vertex -11.25 -17.5 0
      vertex -11.0929 -18.7435 0
      vertex -11.2106 -18.1267 0
    endloop
  endfacet
  facet normal 0 0 -1
    outer loop
      vertex -10.6315 19.9088 0
      vertex -11.25 17.5 0
      vertex -10.8989 19.3406 0
    endloop
  endfacet
  facet normal 0 0 -1
    outer loop
      vertex -10.8989 19.3406 0
      vertex -11.25 17.5 0
      vertex -11.0929 18.7435 0
    endloop
  endfacet
  facet normal 0 0 -1
    outer loop
      vertex -11.0929 18.7435 0
      vertex -11.25 17.5 0
      vertex -11.2106 18.1267 0
    endloop
  endfacet
  facet normal -0.951061 -0.309003 0
    outer loop
      vertex -10.8989 -19.3406 0
      vertex -11.0929 -18.7435 12
      vertex -11.0929 -18.7435 0
    endloop
  endfacet
  facet normal -0.951061 -0.309003 0
    outer loop
      vertex -11.0929 -18.7435 12
      vertex -10.8989 -19.3406 0
      vertex -10.8989 -19.3406 12
    endloop
  endfacet
  facet normal -0.770493 -0.637448 0
    outer loop
      vertex -9.89484 -20.9227 0
      vertex -10.2951 -20.4389 12
      vertex -10.2951 -20.4389 0
    endloop
  endfacet
  facet normal -0.770493 -0.637448 0
    outer loop
      vertex -10.2951 -20.4389 12
      vertex -9.89484 -20.9227 0
      vertex -9.89484 -20.9227 12
    endloop
  endfacet
  facet normal -0.904811 -0.425812 0
    outer loop
      vertex -10.6315 -19.9088 0
      vertex -10.8989 -19.3406 12
      vertex -10.8989 -19.3406 0
    endloop
  endfacet
  facet normal -0.904811 -0.425812 0
    outer loop
      vertex -10.8989 -19.3406 12
      vertex -10.6315 -19.9088 0
      vertex -10.6315 -19.9088 12
    endloop
  endfacet
  facet normal -0.368192 -0.92975 0
    outer loop
      vertex -8.3789 -22.0241 0
      vertex -7.79508 -22.2553 12
      vertex -8.3789 -22.0241 12
    endloop
  endfacet
  facet normal -0.368192 -0.92975 -0
    outer loop
      vertex -7.79508 -22.2553 12
      vertex -8.3789 -22.0241 0
      vertex -7.79508 -22.2553 0
    endloop
  endfacet
  facet normal 0.982276 0.187441 0
    outer loop
      vertex 11.2106 18.1267 12
      vertex 11.0929 18.7435 0
      vertex 11.0929 18.7435 12
    endloop
  endfacet
  facet normal 0.982276 0.187441 0
    outer loop
      vertex 11.0929 18.7435 0
      vertex 11.2106 18.1267 12
      vertex 11.2106 18.1267 0
    endloop
  endfacet
  facet normal 0.99803 0.0627451 0
    outer loop
      vertex 11.25 17.5 12
      vertex 11.2106 18.1267 0
      vertex 11.2106 18.1267 12
    endloop
  endfacet
  facet normal 0.99803 0.0627451 0
    outer loop
      vertex 11.2106 18.1267 0
      vertex 11.25 17.5 12
      vertex 11.25 17.5 0
    endloop
  endfacet
  facet normal 0.844336 0.535814 0
    outer loop
      vertex 10.6315 19.9088 12
      vertex 10.2951 20.4389 0
      vertex 10.2951 20.4389 12
    endloop
  endfacet
  facet normal 0.844336 0.535814 0
    outer loop
      vertex 10.2951 20.4389 0
      vertex 10.6315 19.9088 12
      vertex 10.6315 19.9088 0
    endloop
  endfacet
  facet normal 0.904811 0.425812 0
    outer loop
      vertex 10.8989 19.3406 12
      vertex 10.6315 19.9088 0
      vertex 10.6315 19.9088 12
    endloop
  endfacet
  facet normal 0.904811 0.425812 0
    outer loop
      vertex 10.6315 19.9088 0
      vertex 10.8989 19.3406 12
      vertex 10.8989 19.3406 0
    endloop
  endfacet
  facet normal 0.481764 0.876301 -0
    outer loop
      vertex 8.92913 21.7216 0
      vertex 8.3789 22.0241 12
      vertex 8.92913 21.7216 12
    endloop
  endfacet
  facet normal 0.481764 0.876301 0
    outer loop
      vertex 8.3789 22.0241 12
      vertex 8.92913 21.7216 0
      vertex 8.3789 22.0241 0
    endloop
  endfacet
  facet normal 0.684608 0.728911 -0
    outer loop
      vertex 9.89484 20.9227 0
      vertex 9.43712 21.3526 12
      vertex 9.89484 20.9227 12
    endloop
  endfacet
  facet normal 0.684608 0.728911 0
    outer loop
      vertex 9.43712 21.3526 12
      vertex 9.89484 20.9227 0
      vertex 9.43712 21.3526 0
    endloop
  endfacet
  facet normal 0.368192 0.92975 -0
    outer loop
      vertex 8.3789 22.0241 0
      vertex 7.79508 22.2553 12
      vertex 8.3789 22.0241 12
    endloop
  endfacet
  facet normal 0.368192 0.92975 0
    outer loop
      vertex 7.79508 22.2553 12
      vertex 8.3789 22.0241 0
      vertex 7.79508 22.2553 0
    endloop
  endfacet
  facet normal -0.982276 0.187441 0
    outer loop
      vertex -11.2106 18.1267 0
      vertex -11.0929 18.7435 12
      vertex -11.0929 18.7435 0
    endloop
  endfacet
  facet normal -0.982276 0.187441 0
    outer loop
      vertex -11.0929 18.7435 12
      vertex -11.2106 18.1267 0
      vertex -11.2106 18.1267 12
    endloop
  endfacet
  facet normal -0.770493 0.637448 0
    outer loop
      vertex -10.2951 20.4389 0
      vertex -9.89484 20.9227 12
      vertex -9.89484 20.9227 0
    endloop
  endfacet
  facet normal -0.770493 0.637448 0
    outer loop
      vertex -9.89484 20.9227 12
      vertex -10.2951 20.4389 0
      vertex -10.2951 20.4389 12
    endloop
  endfacet
  facet normal -0.844336 0.535814 0
    outer loop
      vertex -10.6315 19.9088 0
      vertex -10.2951 20.4389 12
      vertex -10.2951 20.4389 0
    endloop
  endfacet
  facet normal -0.844336 0.535814 0
    outer loop
      vertex -10.2951 20.4389 12
      vertex -10.6315 19.9088 0
      vertex -10.6315 19.9088 12
    endloop
  endfacet
  facet normal -0.684608 0.728911 0
    outer loop
      vertex -9.43712 21.3526 0
      vertex -9.89484 20.9227 12
      vertex -9.43712 21.3526 12
    endloop
  endfacet
  facet normal -0.684608 0.728911 0
    outer loop
      vertex -9.89484 20.9227 12
      vertex -9.43712 21.3526 0
      vertex -9.89484 20.9227 0
    endloop
  endfacet
  facet normal -0.904811 0.425812 0
    outer loop
      vertex -10.8989 19.3406 0
      vertex -10.6315 19.9088 12
      vertex -10.6315 19.9088 0
    endloop
  endfacet
  facet normal -0.904811 0.425812 0
    outer loop
      vertex -10.6315 19.9088 12
      vertex -10.8989 19.3406 0
      vertex -10.8989 19.3406 12
    endloop
  endfacet
  facet normal -0.587706 0.809075 0
    outer loop
      vertex -8.92913 21.7216 0
      vertex -9.43712 21.3526 12
      vertex -8.92913 21.7216 12
    endloop
  endfacet
  facet normal -0.587706 0.809075 0
    outer loop
      vertex -9.43712 21.3526 12
      vertex -8.92913 21.7216 0
      vertex -9.43712 21.3526 0
    endloop
  endfacet
  facet normal -0.982276 -0.187441 0
    outer loop
      vertex -11.0929 -18.7435 0
      vertex -11.2106 -18.1267 12
      vertex -11.2106 -18.1267 0
    endloop
  endfacet
  facet normal -0.982276 -0.187441 0
    outer loop
      vertex -11.2106 -18.1267 12
      vertex -11.0929 -18.7435 0
      vertex -11.0929 -18.7435 12
    endloop
  endfacet
  facet normal -0.844336 -0.535814 0
    outer loop
      vertex -10.2951 -20.4389 0
      vertex -10.6315 -19.9088 12
      vertex -10.6315 -19.9088 0
    endloop
  endfacet
  facet normal -0.844336 -0.535814 0
    outer loop
      vertex -10.6315 -19.9088 12
      vertex -10.2951 -20.4389 0
      vertex -10.2951 -20.4389 12
    endloop
  endfacet
  facet normal -0.481764 -0.876301 0
    outer loop
      vertex -8.92913 -21.7216 0
      vertex -8.3789 -22.0241 12
      vertex -8.92913 -21.7216 12
    endloop
  endfacet
  facet normal -0.481764 -0.876301 -0
    outer loop
      vertex -8.3789 -22.0241 12
      vertex -8.92913 -21.7216 0
      vertex -8.3789 -22.0241 0
    endloop
  endfacet
  facet normal -0.587706 -0.809075 0
    outer loop
      vertex -9.43712 -21.3526 0
      vertex -8.92913 -21.7216 12
      vertex -9.43712 -21.3526 12
    endloop
  endfacet
  facet normal -0.587706 -0.809075 -0
    outer loop
      vertex -8.92913 -21.7216 12
      vertex -9.43712 -21.3526 0
      vertex -8.92913 -21.7216 0
    endloop
  endfacet
  facet normal -0.684608 -0.728911 0
    outer loop
      vertex -9.89484 -20.9227 0
      vertex -9.43712 -21.3526 12
      vertex -9.89484 -20.9227 12
    endloop
  endfacet
  facet normal -0.684608 -0.728911 -0
    outer loop
      vertex -9.43712 -21.3526 12
      vertex -9.89484 -20.9227 0
      vertex -9.43712 -21.3526 0
    endloop
  endfacet
  facet normal 0.844336 -0.535814 0
    outer loop
      vertex 10.2951 -20.4389 12
      vertex 10.6315 -19.9088 0
      vertex 10.6315 -19.9088 12
    endloop
  endfacet
  facet normal 0.844336 -0.535814 0
    outer loop
      vertex 10.6315 -19.9088 0
      vertex 10.2951 -20.4389 12
      vertex 10.2951 -20.4389 0
    endloop
  endfacet
  facet normal 0.481764 -0.876301 0
    outer loop
      vertex 8.3789 -22.0241 0
      vertex 8.92913 -21.7216 12
      vertex 8.3789 -22.0241 12
    endloop
  endfacet
  facet normal 0.481764 -0.876301 0
    outer loop
      vertex 8.92913 -21.7216 12
      vertex 8.3789 -22.0241 0
      vertex 8.92913 -21.7216 0
    endloop
  endfacet
  facet normal 0.770493 -0.637448 0
    outer loop
      vertex 9.89484 -20.9227 12
      vertex 10.2951 -20.4389 0
      vertex 10.2951 -20.4389 12
    endloop
  endfacet
  facet normal 0.770493 -0.637448 0
    outer loop
      vertex 10.2951 -20.4389 0
      vertex 9.89484 -20.9227 12
      vertex 9.89484 -20.9227 0
    endloop
  endfacet
  facet normal 0.587706 0.809075 -0
    outer loop
      vertex 9.43712 21.3526 0
      vertex 8.92913 21.7216 12
      vertex 9.43712 21.3526 12
    endloop
  endfacet
  facet normal 0.587706 0.809075 0
    outer loop
      vertex 8.92913 21.7216 12
      vertex 9.43712 21.3526 0
      vertex 8.92913 21.7216 0
    endloop
  endfacet
  facet normal 0.248613 0.968603 -0
    outer loop
      vertex 7.79508 22.2553 0
      vertex 7.18691 22.4114 12
      vertex 7.79508 22.2553 12
    endloop
  endfacet
  facet normal 0.248613 0.968603 0
    outer loop
      vertex 7.18691 22.4114 12
      vertex 7.79508 22.2553 0
      vertex 7.18691 22.4114 0
    endloop
  endfacet
  facet normal -0.248613 0.968603 0
    outer loop
      vertex -7.18691 22.4114 0
      vertex -7.79508 22.2553 12
      vertex -7.18691 22.4114 12
    endloop
  endfacet
  facet normal -0.248613 0.968603 0
    outer loop
      vertex -7.79508 22.2553 12
      vertex -7.18691 22.4114 0
      vertex -7.79508 22.2553 0
    endloop
  endfacet
  facet normal -0.368192 0.92975 0
    outer loop
      vertex -7.79508 22.2553 0
      vertex -8.3789 22.0241 12
      vertex -7.79508 22.2553 12
    endloop
  endfacet
  facet normal -0.368192 0.92975 0
    outer loop
      vertex -8.3789 22.0241 12
      vertex -7.79508 22.2553 0
      vertex -8.3789 22.0241 0
    endloop
  endfacet
  facet normal 0.904811 -0.425812 0
    outer loop
      vertex 10.6315 -19.9088 12
      vertex 10.8989 -19.3406 0
      vertex 10.8989 -19.3406 12
    endloop
  endfacet
  facet normal 0.904811 -0.425812 0
    outer loop
      vertex 10.8989 -19.3406 0
      vertex 10.6315 -19.9088 12
      vertex 10.6315 -19.9088 0
    endloop
  endfacet
  facet normal 0.951061 -0.309003 0
    outer loop
      vertex 10.8989 -19.3406 12
      vertex 11.0929 -18.7435 0
      vertex 11.0929 -18.7435 12
    endloop
  endfacet
  facet normal 0.951061 -0.309003 0
    outer loop
      vertex 11.0929 -18.7435 0
      vertex 10.8989 -19.3406 12
      vertex 10.8989 -19.3406 0
    endloop
  endfacet
  facet normal 0.684608 -0.728911 0
    outer loop
      vertex 9.43712 -21.3526 0
      vertex 9.89484 -20.9227 12
      vertex 9.43712 -21.3526 12
    endloop
  endfacet
  facet normal 0.684608 -0.728911 0
    outer loop
      vertex 9.89484 -20.9227 12
      vertex 9.43712 -21.3526 0
      vertex 9.89484 -20.9227 0
    endloop
  endfacet
  facet normal 0.368192 -0.92975 0
    outer loop
      vertex 7.79508 -22.2553 0
      vertex 8.3789 -22.0241 12
      vertex 7.79508 -22.2553 12
    endloop
  endfacet
  facet normal 0.368192 -0.92975 0
    outer loop
      vertex 8.3789 -22.0241 12
      vertex 7.79508 -22.2553 0
      vertex 8.3789 -22.0241 0
    endloop
  endfacet
  facet normal 0.125336 -0.992114 0
    outer loop
      vertex 6.56395 -22.4901 0
      vertex 7.18691 -22.4114 12
      vertex 6.56395 -22.4901 12
    endloop
  endfacet
  facet normal 0.125336 -0.992114 0
    outer loop
      vertex 7.18691 -22.4114 12
      vertex 6.56395 -22.4901 0
      vertex 7.18691 -22.4114 0
    endloop
  endfacet
  facet normal 0.248613 -0.968603 0
    outer loop
      vertex 7.18691 -22.4114 0
      vertex 7.79508 -22.2553 12
      vertex 7.18691 -22.4114 12
    endloop
  endfacet
  facet normal 0.248613 -0.968603 0
    outer loop
      vertex 7.79508 -22.2553 12
      vertex 7.18691 -22.4114 0
      vertex 7.79508 -22.2553 0
    endloop
  endfacet
  facet normal -0.481764 0.876301 0
    outer loop
      vertex -8.3789 22.0241 0
      vertex -8.92913 21.7216 12
      vertex -8.3789 22.0241 12
    endloop
  endfacet
  facet normal -0.481764 0.876301 0
    outer loop
      vertex -8.92913 21.7216 12
      vertex -8.3789 22.0241 0
      vertex -8.92913 21.7216 0
    endloop
  endfacet
  facet normal 0.982276 -0.187441 0
    outer loop
      vertex 11.0929 -18.7435 12
      vertex 11.2106 -18.1267 0
      vertex 11.2106 -18.1267 12
    endloop
  endfacet
  facet normal 0.982276 -0.187441 0
    outer loop
      vertex 11.2106 -18.1267 0
      vertex 11.0929 -18.7435 12
      vertex 11.0929 -18.7435 0
    endloop
  endfacet
  facet normal 0.587706 -0.809075 0
    outer loop
      vertex 8.92913 -21.7216 0
      vertex 9.43712 -21.3526 12
      vertex 8.92913 -21.7216 12
    endloop
  endfacet
  facet normal 0.587706 -0.809075 0
    outer loop
      vertex 9.43712 -21.3526 12
      vertex 8.92913 -21.7216 0
      vertex 9.43712 -21.3526 0
    endloop
  endfacet
  facet normal 0.99803 -0.0627451 0
    outer loop
      vertex 11.2106 -18.1267 12
      vertex 11.25 -17.5 0
      vertex 11.25 -17.5 12
    endloop
  endfacet
  facet normal 0.99803 -0.0627451 0
    outer loop
      vertex 11.25 -17.5 0
      vertex 11.2106 -18.1267 12
      vertex 11.2106 -18.1267 0
    endloop
  endfacet
  facet normal 1 -0 0
    outer loop
      vertex -10.25 -17.5 12
      vertex -10.25 17.5 2
      vertex -10.25 17.5 12
    endloop
  endfacet
  facet normal 1 0 0
    outer loop
      vertex -10.25 17.5 2
      vertex -10.25 -17.5 12
      vertex -10.25 -17.5 2
    endloop
  endfacet
  facet normal 0.982265 0.187496 0
    outer loop
      vertex -10.1243 -18.4948 12
      vertex -10.2185 -18.0013 2
      vertex -10.2185 -18.0013 12
    endloop
  endfacet
  facet normal 0.982265 0.187496 0
    outer loop
      vertex -10.2185 -18.0013 2
      vertex -10.1243 -18.4948 12
      vertex -10.1243 -18.4948 2
    endloop
  endfacet
  facet normal 0 0 1
    outer loop
      vertex 6.50116 21.4921 2
      vertex 10.25 17.5 2
      vertex 10.2185 18.0013 2
    endloop
  endfacet
  facet normal 0 0 1
    outer loop
      vertex 10.25 17.5 2
      vertex -10.25 17.5 2
      vertex 10.25 -17.5 2
    endloop
  endfacet
  facet normal 0 0 1
    outer loop
      vertex 6.50116 21.4921 2
      vertex 10.2185 18.0013 2
      vertex 10.1243 18.4948 2
    endloop
  endfacet
  facet normal 0 0 1
    outer loop
      vertex -10.25 -17.5 2
      vertex 10.25 -17.5 2
      vertex -10.25 17.5 2
    endloop
  endfacet
  facet normal 0 0 1
    outer loop
      vertex 6.50116 21.4921 2
      vertex 10.1243 18.4948 2
      vertex 9.96911 18.9725 2
    endloop
  endfacet
  facet normal 0 -0 1
    outer loop
      vertex 6.50116 -21.4921 2
      vertex 10.25 -17.5 2
      vertex -10.25 -17.5 2
    endloop
  endfacet
  facet normal 0 0 1
    outer loop
      vertex 6.50116 21.4921 2
      vertex 9.96911 18.9725 2
      vertex 9.75523 19.427 2
    endloop
  endfacet
  facet normal 0 0 1
    outer loop
      vertex 10.25 -17.5 2
      vertex 6.50116 -21.4921 2
      vertex 10.2185 -18.0013 2
    endloop
  endfacet
  facet normal 0 0 1
    outer loop
      vertex 6.50116 21.4921 2
      vertex 9.75523 19.427 2
      vertex 9.48607 19.8511 2
    endloop
  endfacet
  facet normal 0 0 1
    outer loop
      vertex 10.2185 -18.0013 2
      vertex 6.50116 -21.4921 2
      vertex 10.1243 -18.4948 2
    endloop
  endfacet
  facet normal 0 0 1
    outer loop
      vertex 6.50116 21.4921 2
      vertex 9.48607 19.8511 2
      vertex 9.16587 20.2382 2
    endloop
  endfacet
  facet normal 0 0 1
    outer loop
      vertex 10.1243 -18.4948 2
      vertex 6.50116 -21.4921 2
      vertex 9.96911 -18.9725 2
    endloop
  endfacet
  facet normal 0 0 1
    outer loop
      vertex 6.50116 21.4921 2
      vertex 9.16587 20.2382 2
      vertex 8.7997 20.5821 2
    endloop
  endfacet
  facet normal 0 0 1
    outer loop
      vertex 9.96911 -18.9725 2
      vertex 6.50116 -21.4921 2
      vertex 9.75523 -19.427 2
    endloop
  endfacet
  facet normal 0 0 1
    outer loop
      vertex 6.50116 21.4921 2
      vertex 8.7997 20.5821 2
      vertex 8.39331 20.8773 2
    endloop
  endfacet
  facet normal 0 0 1
    outer loop
      vertex 9.75523 -19.427 2
      vertex 6.50116 -21.4921 2
      vertex 9.48607 -19.8511 2
    endloop
  endfacet
  facet normal 0 0 1
    outer loop
      vertex 6.50116 21.4921 2
      vertex 8.39331 20.8773 2
      vertex 7.95312 21.1193 2
    endloop
  endfacet
  facet normal 0 0 1
    outer loop
      vertex 9.48607 -19.8511 2
      vertex 6.50116 -21.4921 2
      vertex 9.16587 -20.2382 2
    endloop
  endfacet
  facet normal 0 0 1
    outer loop
      vertex 6.50116 21.4921 2
      vertex 7.95312 21.1193 2
      vertex 7.48607 21.3042 2
    endloop
  endfacet
  facet normal 0 0 1
    outer loop
      vertex 10.25 17.5 2
      vertex 6.50116 21.4921 2
      vertex -10.25 17.5 2
    endloop
  endfacet
  facet normal 0 0 1
    outer loop
      vertex 6.50116 21.4921 2
      vertex 7.48607 21.3042 2
      vertex 6.99953 21.4291 2
    endloop
  endfacet
  facet normal 0 0 1
    outer loop
      vertex 9.16587 -20.2382 2
      vertex 6.50116 -21.4921 2
      vertex 8.7997 -20.5821 2
    endloop
  endfacet
  facet normal 0 0 1
    outer loop
      vertex 7.95312 -21.1193 2
      vertex 6.50116 -21.4921 2
      vertex 7.48607 -21.3042 2
    endloop
  endfacet
  facet normal 0 0 1
    outer loop
      vertex 7.48607 -21.3042 2
      vertex 6.50116 -21.4921 2
      vertex 6.99953 -21.4291 2
    endloop
  endfacet
  facet normal 0 0 1
    outer loop
      vertex -10.25 17.5 2
      vertex 6.50116 21.4921 2
      vertex -6.50116 21.4921 2
    endloop
  endfacet
  facet normal 0 0 1
    outer loop
      vertex 8.7997 -20.5821 2
      vertex 6.50116 -21.4921 2
      vertex 8.39331 -20.8773 2
    endloop
  endfacet
  facet normal 0 0 1
    outer loop
      vertex -10.25 17.5 2
      vertex -6.50116 21.4921 2
      vertex -6.99953 21.4291 2
    endloop
  endfacet
  facet normal 0 0 1
    outer loop
      vertex 8.39331 -20.8773 2
      vertex 6.50116 -21.4921 2
      vertex 7.95312 -21.1193 2
    endloop
  endfacet
  facet normal 0 0 1
    outer loop
      vertex -10.25 17.5 2
      vertex -6.99953 21.4291 2
      vertex -7.48607 21.3042 2
    endloop
  endfacet
  facet normal 0 0 1
    outer loop
      vertex 6.50116 -21.4921 2
      vertex -10.25 -17.5 2
      vertex -6.50116 -21.4921 2
    endloop
  endfacet
  facet normal 0 0 1
    outer loop
      vertex -10.25 17.5 2
      vertex -7.48607 21.3042 2
      vertex -7.95312 21.1193 2
    endloop
  endfacet
  facet normal 0 0 1
    outer loop
      vertex -6.50116 -21.4921 2
      vertex -10.25 -17.5 2
      vertex -6.99953 -21.4291 2
    endloop
  endfacet
  facet normal 0 0 1
    outer loop
      vertex -10.25 17.5 2
      vertex -7.95312 21.1193 2
      vertex -8.39331 20.8773 2
    endloop
  endfacet
  facet normal 0 0 1
    outer loop
      vertex -6.99953 -21.4291 2
      vertex -10.25 -17.5 2
      vertex -7.48607 -21.3042 2
    endloop
  endfacet
  facet normal 0 0 1
    outer loop
      vertex -10.25 17.5 2
      vertex -8.39331 20.8773 2
      vertex -8.7997 20.5821 2
    endloop
  endfacet
  facet normal 0 0 1
    outer loop
      vertex -7.48607 -21.3042 2
      vertex -10.25 -17.5 2
      vertex -7.95312 -21.1193 2
    endloop
  endfacet
  facet normal 0 0 1
    outer loop
      vertex -10.25 17.5 2
      vertex -8.7997 20.5821 2
      vertex -9.16587 20.2382 2
    endloop
  endfacet
  facet normal 0 0 1
    outer loop
      vertex -7.95312 -21.1193 2
      vertex -10.25 -17.5 2
      vertex -8.39331 -20.8773 2
    endloop
  endfacet
  facet normal 0 0 1
    outer loop
      vertex -10.25 17.5 2
      vertex -9.16587 20.2382 2
      vertex -9.48607 19.8511 2
    endloop
  endfacet
  facet normal 0 0 1
    outer loop
      vertex -8.39331 -20.8773 2
      vertex -10.25 -17.5 2
      vertex -8.7997 -20.5821 2
    endloop
  endfacet
  facet normal 0 0 1
    outer loop
      vertex -10.25 17.5 2
      vertex -9.48607 19.8511 2
      vertex -9.75523 19.427 2
    endloop
  endfacet
  facet normal 0 0 1
    outer loop
      vertex -8.7997 -20.5821 2
      vertex -10.25 -17.5 2
      vertex -9.16587 -20.2382 2
    endloop
  endfacet
  facet normal 0 0 1
    outer loop
      vertex -10.25 17.5 2
      vertex -9.75523 19.427 2
      vertex -9.96911 18.9725 2
    endloop
  endfacet
  facet normal 0 0 1
    outer loop
      vertex -9.16587 -20.2382 2
      vertex -10.25 -17.5 2
      vertex -9.48607 -19.8511 2
    endloop
  endfacet
  facet normal 0 0 1
    outer loop
      vertex -10.25 17.5 2
      vertex -9.96911 18.9725 2
      vertex -10.1243 18.4948 2
    endloop
  endfacet
  facet normal 0 0 1
    outer loop
      vertex -9.48607 -19.8511 2
      vertex -10.25 -17.5 2
      vertex -9.75523 -19.427 2
    endloop
  endfacet
  facet normal 0 0 1
    outer loop
      vertex -10.25 17.5 2
      vertex -10.1243 18.4948 2
      vertex -10.2185 18.0013 2
    endloop
  endfacet
  facet normal 0 0 1
    outer loop
      vertex -9.75523 -19.427 2
      vertex -10.25 -17.5 2
      vertex -9.96911 -18.9725 2
    endloop
  endfacet
  facet normal 0 0 1
    outer loop
      vertex -9.96911 -18.9725 2
      vertex -10.25 -17.5 2
      vertex -10.1243 -18.4948 2
    endloop
  endfacet
  facet normal 0 0 1
    outer loop
      vertex -10.1243 -18.4948 2
      vertex -10.25 -17.5 2
      vertex -10.2185 -18.0013 2
    endloop
  endfacet
  facet normal -0.904821 0.425793 0
    outer loop
      vertex 9.75523 -19.427 2
      vertex 9.96911 -18.9725 12
      vertex 9.96911 -18.9725 2
    endloop
  endfacet
  facet normal -0.904821 0.425793 0
    outer loop
      vertex 9.96911 -18.9725 12
      vertex 9.75523 -19.427 2
      vertex 9.75523 -19.427 12
    endloop
  endfacet
  facet normal -1 0 0
    outer loop
      vertex 10.25 -17.5 2
      vertex 10.25 17.5 12
      vertex 10.25 17.5 2
    endloop
  endfacet
  facet normal -1 -0 0
    outer loop
      vertex 10.25 17.5 12
      vertex 10.25 -17.5 2
      vertex 10.25 -17.5 12
    endloop
  endfacet
  facet normal 0.998032 0.0627129 0
    outer loop
      vertex -10.2185 -18.0013 12
      vertex -10.25 -17.5 2
      vertex -10.25 -17.5 12
    endloop
  endfacet
  facet normal 0.998032 0.0627129 0
    outer loop
      vertex -10.25 -17.5 2
      vertex -10.2185 -18.0013 12
      vertex -10.2185 -18.0013 2
    endloop
  endfacet
  facet normal 0 1 -0
    outer loop
      vertex 6.50116 -21.4921 2
      vertex -6.50116 -21.4921 12
      vertex 6.50116 -21.4921 12
    endloop
  endfacet
  facet normal 0 1 0
    outer loop
      vertex -6.50116 -21.4921 12
      vertex 6.50116 -21.4921 2
      vertex -6.50116 -21.4921 2
    endloop
  endfacet
  facet normal -0.844312 0.535852 0
    outer loop
      vertex 9.48607 -19.8511 2
      vertex 9.75523 -19.427 12
      vertex 9.75523 -19.427 2
    endloop
  endfacet
  facet normal -0.844312 0.535852 0
    outer loop
      vertex 9.75523 -19.427 12
      vertex 9.48607 -19.8511 2
      vertex 9.48607 -19.8511 12
    endloop
  endfacet
  facet normal -0.998032 -0.0627129 0
    outer loop
      vertex 10.25 17.5 2
      vertex 10.2185 18.0013 12
      vertex 10.2185 18.0013 2
    endloop
  endfacet
  facet normal -0.998032 -0.0627129 0
    outer loop
      vertex 10.2185 18.0013 12
      vertex 10.25 17.5 2
      vertex 10.25 17.5 12
    endloop
  endfacet
  facet normal 0.998032 -0.0627129 0
    outer loop
      vertex -10.25 17.5 12
      vertex -10.2185 18.0013 2
      vertex -10.2185 18.0013 12
    endloop
  endfacet
  facet normal 0.998032 -0.0627129 0
    outer loop
      vertex -10.2185 18.0013 2
      vertex -10.25 17.5 12
      vertex -10.25 17.5 2
    endloop
  endfacet
  facet normal -0.125414 -0.992104 0
    outer loop
      vertex 6.50116 21.4921 2
      vertex 6.99953 21.4291 12
      vertex 6.50116 21.4921 12
    endloop
  endfacet
  facet normal -0.125414 -0.992104 -0
    outer loop
      vertex 6.99953 21.4291 12
      vertex 6.50116 21.4921 2
      vertex 6.99953 21.4291 2
    endloop
  endfacet
  facet normal 0.684593 0.728925 -0
    outer loop
      vertex -8.7997 -20.5821 2
      vertex -9.16587 -20.2382 12
      vertex -8.7997 -20.5821 12
    endloop
  endfacet
  facet normal 0.684593 0.728925 0
    outer loop
      vertex -9.16587 -20.2382 12
      vertex -8.7997 -20.5821 2
      vertex -9.16587 -20.2382 2
    endloop
  endfacet
  facet normal -0.248648 0.968594 0
    outer loop
      vertex 7.48607 -21.3042 2
      vertex 6.99953 -21.4291 12
      vertex 7.48607 -21.3042 12
    endloop
  endfacet
  facet normal -0.248648 0.968594 0
    outer loop
      vertex 6.99953 -21.4291 12
      vertex 7.48607 -21.3042 2
      vertex 6.99953 -21.4291 2
    endloop
  endfacet
  facet normal 0.125414 0.992104 -0
    outer loop
      vertex -6.50116 -21.4921 2
      vertex -6.99953 -21.4291 12
      vertex -6.50116 -21.4921 12
    endloop
  endfacet
  facet normal 0.125414 0.992104 0
    outer loop
      vertex -6.99953 -21.4291 12
      vertex -6.50116 -21.4921 2
      vertex -6.99953 -21.4291 2
    endloop
  endfacet
  facet normal -0.982265 0.187496 0
    outer loop
      vertex 10.1243 -18.4948 2
      vertex 10.2185 -18.0013 12
      vertex 10.2185 -18.0013 2
    endloop
  endfacet
  facet normal -0.982265 0.187496 0
    outer loop
      vertex 10.2185 -18.0013 12
      vertex 10.1243 -18.4948 2
      vertex 10.1243 -18.4948 12
    endloop
  endfacet
  facet normal -0.998032 0.0627129 0
    outer loop
      vertex 10.2185 -18.0013 2
      vertex 10.25 -17.5 12
      vertex 10.25 -17.5 2
    endloop
  endfacet
  facet normal -0.998032 0.0627129 0
    outer loop
      vertex 10.25 -17.5 12
      vertex 10.2185 -18.0013 2
      vertex 10.2185 -18.0013 12
    endloop
  endfacet
  facet normal 0.951071 -0.308974 0
    outer loop
      vertex -10.1243 18.4948 12
      vertex -9.96911 18.9725 2
      vertex -9.96911 18.9725 12
    endloop
  endfacet
  facet normal 0.951071 -0.308974 0
    outer loop
      vertex -9.96911 18.9725 2
      vertex -10.1243 18.4948 12
      vertex -10.1243 18.4948 2
    endloop
  endfacet
  facet normal 0.904821 -0.425793 0
    outer loop
      vertex -9.96911 18.9725 12
      vertex -9.75523 19.427 2
      vertex -9.75523 19.427 12
    endloop
  endfacet
  facet normal 0.904821 -0.425793 0
    outer loop
      vertex -9.75523 19.427 2
      vertex -9.96911 18.9725 12
      vertex -9.96911 18.9725 2
    endloop
  endfacet
  facet normal 0.982265 -0.187496 0
    outer loop
      vertex -10.2185 18.0013 12
      vertex -10.1243 18.4948 2
      vertex -10.1243 18.4948 12
    endloop
  endfacet
  facet normal 0.982265 -0.187496 0
    outer loop
      vertex -10.1243 18.4948 2
      vertex -10.2185 18.0013 12
      vertex -10.2185 18.0013 2
    endloop
  endfacet
  facet normal -0.770549 -0.63738 0
    outer loop
      vertex 9.48607 19.8511 2
      vertex 9.16587 20.2382 12
      vertex 9.16587 20.2382 2
    endloop
  endfacet
  facet normal -0.770549 -0.63738 0
    outer loop
      vertex 9.16587 20.2382 12
      vertex 9.48607 19.8511 2
      vertex 9.48607 19.8511 12
    endloop
  endfacet
  facet normal 0.125414 -0.992104 0
    outer loop
      vertex -6.99953 21.4291 2
      vertex -6.50116 21.4921 12
      vertex -6.99953 21.4291 12
    endloop
  endfacet
  facet normal 0.125414 -0.992104 0
    outer loop
      vertex -6.50116 21.4921 12
      vertex -6.99953 21.4291 2
      vertex -6.50116 21.4921 2
    endloop
  endfacet
  facet normal 0 -1 0
    outer loop
      vertex -6.50116 21.4921 2
      vertex 6.50116 21.4921 12
      vertex -6.50116 21.4921 12
    endloop
  endfacet
  facet normal 0 -1 -0
    outer loop
      vertex 6.50116 21.4921 12
      vertex -6.50116 21.4921 2
      vertex 6.50116 21.4921 2
    endloop
  endfacet
  facet normal 0.904821 0.425793 0
    outer loop
      vertex -9.75523 -19.427 12
      vertex -9.96911 -18.9725 2
      vertex -9.96911 -18.9725 12
    endloop
  endfacet
  facet normal 0.904821 0.425793 0
    outer loop
      vertex -9.96911 -18.9725 2
      vertex -9.75523 -19.427 12
      vertex -9.75523 -19.427 2
    endloop
  endfacet
  facet normal -0.587708 0.809073 0
    outer loop
      vertex 8.7997 -20.5821 2
      vertex 8.39331 -20.8773 12
      vertex 8.7997 -20.5821 12
    endloop
  endfacet
  facet normal -0.587708 0.809073 0
    outer loop
      vertex 8.39331 -20.8773 12
      vertex 8.7997 -20.5821 2
      vertex 8.39331 -20.8773 2
    endloop
  endfacet
  facet normal -0.125414 0.992104 0
    outer loop
      vertex 6.99953 -21.4291 2
      vertex 6.50116 -21.4921 12
      vertex 6.99953 -21.4291 12
    endloop
  endfacet
  facet normal -0.125414 0.992104 0
    outer loop
      vertex 6.50116 -21.4921 12
      vertex 6.99953 -21.4291 2
      vertex 6.50116 -21.4921 2
    endloop
  endfacet
  facet normal 0.368093 0.929789 -0
    outer loop
      vertex -7.48607 -21.3042 2
      vertex -7.95312 -21.1193 12
      vertex -7.48607 -21.3042 12
    endloop
  endfacet
  facet normal 0.368093 0.929789 0
    outer loop
      vertex -7.95312 -21.1193 12
      vertex -7.48607 -21.3042 2
      vertex -7.95312 -21.1193 2
    endloop
  endfacet
  facet normal 0.770549 0.63738 0
    outer loop
      vertex -9.16587 -20.2382 12
      vertex -9.48607 -19.8511 2
      vertex -9.48607 -19.8511 12
    endloop
  endfacet
  facet normal 0.770549 0.63738 0
    outer loop
      vertex -9.48607 -19.8511 2
      vertex -9.16587 -20.2382 12
      vertex -9.16587 -20.2382 2
    endloop
  endfacet
  facet normal -0.951071 0.308974 0
    outer loop
      vertex 9.96911 -18.9725 2
      vertex 10.1243 -18.4948 12
      vertex 10.1243 -18.4948 2
    endloop
  endfacet
  facet normal -0.951071 0.308974 0
    outer loop
      vertex 10.1243 -18.4948 12
      vertex 9.96911 -18.9725 2
      vertex 9.96911 -18.9725 12
    endloop
  endfacet
  facet normal -0.368093 -0.929789 0
    outer loop
      vertex 7.48607 21.3042 2
      vertex 7.95312 21.1193 12
      vertex 7.48607 21.3042 12
    endloop
  endfacet
  facet normal -0.368093 -0.929789 -0
    outer loop
      vertex 7.95312 21.1193 12
      vertex 7.48607 21.3042 2
      vertex 7.95312 21.1193 2
    endloop
  endfacet
  facet normal -0.481759 -0.876304 0
    outer loop
      vertex 7.95312 21.1193 2
      vertex 8.39331 20.8773 12
      vertex 7.95312 21.1193 12
    endloop
  endfacet
  facet normal -0.481759 -0.876304 -0
    outer loop
      vertex 8.39331 20.8773 12
      vertex 7.95312 21.1193 2
      vertex 8.39331 20.8773 2
    endloop
  endfacet
  facet normal -0.951071 -0.308974 0
    outer loop
      vertex 10.1243 18.4948 2
      vertex 9.96911 18.9725 12
      vertex 9.96911 18.9725 2
    endloop
  endfacet
  facet normal -0.951071 -0.308974 0
    outer loop
      vertex 9.96911 18.9725 12
      vertex 10.1243 18.4948 2
      vertex 10.1243 18.4948 12
    endloop
  endfacet
  facet normal -0.982265 -0.187496 0
    outer loop
      vertex 10.2185 18.0013 2
      vertex 10.1243 18.4948 12
      vertex 10.1243 18.4948 2
    endloop
  endfacet
  facet normal -0.982265 -0.187496 0
    outer loop
      vertex 10.1243 18.4948 12
      vertex 10.2185 18.0013 2
      vertex 10.2185 18.0013 12
    endloop
  endfacet
  facet normal 0.481759 -0.876304 0
    outer loop
      vertex -8.39331 20.8773 2
      vertex -7.95312 21.1193 12
      vertex -8.39331 20.8773 12
    endloop
  endfacet
  facet normal 0.481759 -0.876304 0
    outer loop
      vertex -7.95312 21.1193 12
      vertex -8.39331 20.8773 2
      vertex -7.95312 21.1193 2
    endloop
  endfacet
  facet normal 0.248648 -0.968594 0
    outer loop
      vertex -7.48607 21.3042 2
      vertex -6.99953 21.4291 12
      vertex -7.48607 21.3042 12
    endloop
  endfacet
  facet normal 0.248648 -0.968594 0
    outer loop
      vertex -6.99953 21.4291 12
      vertex -7.48607 21.3042 2
      vertex -6.99953 21.4291 2
    endloop
  endfacet
  facet normal 0.844312 -0.535852 0
    outer loop
      vertex -9.75523 19.427 12
      vertex -9.48607 19.8511 2
      vertex -9.48607 19.8511 12
    endloop
  endfacet
  facet normal 0.844312 -0.535852 0
    outer loop
      vertex -9.48607 19.8511 2
      vertex -9.75523 19.427 12
      vertex -9.75523 19.427 2
    endloop
  endfacet
  facet normal -0.770549 0.63738 0
    outer loop
      vertex 9.16587 -20.2382 2
      vertex 9.48607 -19.8511 12
      vertex 9.48607 -19.8511 2
    endloop
  endfacet
  facet normal -0.770549 0.63738 0
    outer loop
      vertex 9.48607 -19.8511 12
      vertex 9.16587 -20.2382 2
      vertex 9.16587 -20.2382 12
    endloop
  endfacet
  facet normal -0.368093 0.929789 0
    outer loop
      vertex 7.95312 -21.1193 2
      vertex 7.48607 -21.3042 12
      vertex 7.95312 -21.1193 12
    endloop
  endfacet
  facet normal -0.368093 0.929789 0
    outer loop
      vertex 7.48607 -21.3042 12
      vertex 7.95312 -21.1193 2
      vertex 7.48607 -21.3042 2
    endloop
  endfacet
  facet normal -0.481759 0.876304 0
    outer loop
      vertex 8.39331 -20.8773 2
      vertex 7.95312 -21.1193 12
      vertex 8.39331 -20.8773 12
    endloop
  endfacet
  facet normal -0.481759 0.876304 0
    outer loop
      vertex 7.95312 -21.1193 12
      vertex 8.39331 -20.8773 2
      vertex 7.95312 -21.1193 2
    endloop
  endfacet
  facet normal 0.248648 0.968594 -0
    outer loop
      vertex -6.99953 -21.4291 2
      vertex -7.48607 -21.3042 12
      vertex -6.99953 -21.4291 12
    endloop
  endfacet
  facet normal 0.248648 0.968594 0
    outer loop
      vertex -7.48607 -21.3042 12
      vertex -6.99953 -21.4291 2
      vertex -7.48607 -21.3042 2
    endloop
  endfacet
  facet normal 0.481759 0.876304 -0
    outer loop
      vertex -7.95312 -21.1193 2
      vertex -8.39331 -20.8773 12
      vertex -7.95312 -21.1193 12
    endloop
  endfacet
  facet normal 0.481759 0.876304 0
    outer loop
      vertex -8.39331 -20.8773 12
      vertex -7.95312 -21.1193 2
      vertex -8.39331 -20.8773 2
    endloop
  endfacet
  facet normal 0.951071 0.308974 0
    outer loop
      vertex -9.96911 -18.9725 12
      vertex -10.1243 -18.4948 2
      vertex -10.1243 -18.4948 12
    endloop
  endfacet
  facet normal 0.951071 0.308974 0
    outer loop
      vertex -10.1243 -18.4948 2
      vertex -9.96911 -18.9725 12
      vertex -9.96911 -18.9725 2
    endloop
  endfacet
  facet normal -0.248648 -0.968594 0
    outer loop
      vertex 6.99953 21.4291 2
      vertex 7.48607 21.3042 12
      vertex 6.99953 21.4291 12
    endloop
  endfacet
  facet normal -0.248648 -0.968594 -0
    outer loop
      vertex 7.48607 21.3042 12
      vertex 6.99953 21.4291 2
      vertex 7.48607 21.3042 2
    endloop
  endfacet
  facet normal -0.587708 -0.809073 0
    outer loop
      vertex 8.39331 20.8773 2
      vertex 8.7997 20.5821 12
      vertex 8.39331 20.8773 12
    endloop
  endfacet
  facet normal -0.587708 -0.809073 -0
    outer loop
      vertex 8.7997 20.5821 12
      vertex 8.39331 20.8773 2
      vertex 8.7997 20.5821 2
    endloop
  endfacet
  facet normal -0.684593 -0.728925 0
    outer loop
      vertex 8.7997 20.5821 2
      vertex 9.16587 20.2382 12
      vertex 8.7997 20.5821 12
    endloop
  endfacet
  facet normal -0.684593 -0.728925 -0
    outer loop
      vertex 9.16587 20.2382 12
      vertex 8.7997 20.5821 2
      vertex 9.16587 20.2382 2
    endloop
  endfacet
  facet normal -0.844312 -0.535852 0
    outer loop
      vertex 9.75523 19.427 2
      vertex 9.48607 19.8511 12
      vertex 9.48607 19.8511 2
    endloop
  endfacet
  facet normal -0.844312 -0.535852 0
    outer loop
      vertex 9.48607 19.8511 12
      vertex 9.75523 19.427 2
      vertex 9.75523 19.427 12
    endloop
  endfacet
  facet normal -0.904821 -0.425793 0
    outer loop
      vertex 9.96911 18.9725 2
      vertex 9.75523 19.427 12
      vertex 9.75523 19.427 2
    endloop
  endfacet
  facet normal -0.904821 -0.425793 0
    outer loop
      vertex 9.75523 19.427 12
      vertex 9.96911 18.9725 2
      vertex 9.96911 18.9725 12
    endloop
  endfacet
  facet normal 0.368093 -0.929789 0
    outer loop
      vertex -7.95312 21.1193 2
      vertex -7.48607 21.3042 12
      vertex -7.95312 21.1193 12
    endloop
  endfacet
  facet normal 0.368093 -0.929789 0
    outer loop
      vertex -7.48607 21.3042 12
      vertex -7.95312 21.1193 2
      vertex -7.48607 21.3042 2
    endloop
  endfacet
  facet normal 0.684593 -0.728925 0
    outer loop
      vertex -9.16587 20.2382 2
      vertex -8.7997 20.5821 12
      vertex -9.16587 20.2382 12
    endloop
  endfacet
  facet normal 0.684593 -0.728925 0
    outer loop
      vertex -8.7997 20.5821 12
      vertex -9.16587 20.2382 2
      vertex -8.7997 20.5821 2
    endloop
  endfacet
  facet normal 0.587708 -0.809073 0
    outer loop
      vertex -8.7997 20.5821 2
      vertex -8.39331 20.8773 12
      vertex -8.7997 20.5821 12
    endloop
  endfacet
  facet normal 0.587708 -0.809073 0
    outer loop
      vertex -8.39331 20.8773 12
      vertex -8.7997 20.5821 2
      vertex -8.39331 20.8773 2
    endloop
  endfacet
  facet normal 0.770549 -0.63738 0
    outer loop
      vertex -9.48607 19.8511 12
      vertex -9.16587 20.2382 2
      vertex -9.16587 20.2382 12
    endloop
  endfacet
  facet normal 0.770549 -0.63738 0
    outer loop
      vertex -9.16587 20.2382 2
      vertex -9.48607 19.8511 12
      vertex -9.48607 19.8511 2
    endloop
  endfacet
  facet normal -0.684593 0.728925 0
    outer loop
      vertex 9.16587 -20.2382 2
      vertex 8.7997 -20.5821 12
      vertex 9.16587 -20.2382 12
    endloop
  endfacet
  facet normal -0.684593 0.728925 0
    outer loop
      vertex 8.7997 -20.5821 12
      vertex 9.16587 -20.2382 2
      vertex 8.7997 -20.5821 2
    endloop
  endfacet
  facet normal 0.587708 0.809073 -0
    outer loop
      vertex -8.39331 -20.8773 2
      vertex -8.7997 -20.5821 12
      vertex -8.39331 -20.8773 12
    endloop
  endfacet
  facet normal 0.587708 0.809073 0
    outer loop
      vertex -8.7997 -20.5821 12
      vertex -8.39331 -20.8773 2
      vertex -8.7997 -20.5821 2
    endloop
  endfacet
  facet normal 0.844312 0.535852 0
    outer loop
      vertex -9.48607 -19.8511 12
      vertex -9.75523 -19.427 2
      vertex -9.75523 -19.427 12
    endloop
  endfacet
  facet normal 0.844312 0.535852 0
    outer loop
      vertex -9.75523 -19.427 2
      vertex -9.48607 -19.8511 12
      vertex -9.48607 -19.8511 2
    endloop
  endfacet
endsolid OpenSCAD_Model
