solid OpenSCAD_Model
  facet normal -1 0 0
    outer loop
      vertex -30 -25 0
      vertex -30 25 21
      vertex -30 25 0
    endloop
  endfacet
  facet normal -1 -0 0
    outer loop
      vertex -30 25 21
      vertex -30 -25 0
      vertex -30 -25 21
    endloop
  endfacet
  facet normal -0.99803 -0.0627451 0
    outer loop
      vertex -29.9606 -25.6267 0
      vertex -30 -25 21
      vertex -30 -25 0
    endloop
  endfacet
  facet normal -0.99803 -0.0627451 0
    outer loop
      vertex -30 -25 21
      vertex -29.9606 -25.6267 0
      vertex -29.9606 -25.6267 21
    endloop
  endfacet
  facet normal 0 0 1
    outer loop
      vertex 29 25 21
      vertex 30 25 21
      vertex 29.9606 25.6267 21
    endloop
  endfacet
  facet normal 0 0 1
    outer loop
      vertex 30 25 21
      vertex 29 25 21
      vertex 30 -25 21
    endloop
  endfacet
  facet normal 0 0 1
    outer loop
      vertex 28.9685 25.5013 21
      vertex 29.9606 25.6267 21
      vertex 29.8429 26.2435 21
    endloop
  endfacet
  facet normal 0 0 1
    outer loop
      vertex 29 -25 21
      vertex 30 -25 21
      vertex 29 25 21
    endloop
  endfacet
  facet normal 0 0 1
    outer loop
      vertex 28.8743 25.9948 21
      vertex 29.8429 26.2435 21
      vertex 29.6489 26.8406 21
    endloop
  endfacet
  facet normal 0 0 1
    outer loop
      vertex 30 -25 21
      vertex 29 -25 21
      vertex 29.9606 -25.6267 21
    endloop
  endfacet
  facet normal 0 0 1
    outer loop
      vertex 28.7191 26.4725 21
      vertex 29.6489 26.8406 21
      vertex 29.3815 27.4088 21
    endloop
  endfacet
  facet normal -0 0 1
    outer loop
      vertex 28.9685 -25.5013 21
      vertex 29.9606 -25.6267 21
      vertex 29 -25 21
    endloop
  endfacet
  facet normal 0 0 1
    outer loop
      vertex 28.5052 26.927 21
      vertex 29.3815 27.4088 21
      vertex 29.0451 27.9389 21
    endloop
  endfacet
  facet normal 0 0 1
    outer loop
      vertex 29.9606 -25.6267 21
      vertex 28.9685 -25.5013 21
      vertex 29.8429 -26.2435 21
    endloop
  endfacet
  facet normal -0 0 1
    outer loop
      vertex 28.8743 -25.9948 21
      vertex 29.8429 -26.2435 21
      vertex 28.9685 -25.5013 21
    endloop
  endfacet
  facet normal 0 0 1
    outer loop
      vertex 29.9606 25.6267 21
      vertex 28.9685 25.5013 21
      vertex 29 25 21
    endloop
  endfacet
  facet normal 0 0 1
    outer loop
      vertex 29.8429 26.2435 21
      vertex 28.8743 25.9948 21
      vertex 28.9685 25.5013 21
    endloop
  endfacet
  facet normal 0 0 1
    outer loop
      vertex 29.6489 26.8406 21
      vertex 28.7191 26.4725 21
      vertex 28.8743 25.9948 21
    endloop
  endfacet
  facet normal 0 0 1
    outer loop
      vertex 28.2361 27.3511 21
      vertex 29.0451 27.9389 21
      vertex 28.6448 28.4227 21
    endloop
  endfacet
  facet normal 0 0 1
    outer loop
      vertex 29.3815 27.4088 21
      vertex 28.5052 26.927 21
      vertex 28.7191 26.4725 21
    endloop
  endfacet
  facet normal 0 0 1
    outer loop
      vertex 29.0451 27.9389 21
      vertex 28.2361 27.3511 21
      vertex 28.5052 26.927 21
    endloop
  endfacet
  facet normal 0 0 1
    outer loop
      vertex 27.9159 27.7382 21
      vertex 28.6448 28.4227 21
      vertex 28.1871 28.8526 21
    endloop
  endfacet
  facet normal 0 0 1
    outer loop
      vertex 28.6448 28.4227 21
      vertex 27.9159 27.7382 21
      vertex 28.2361 27.3511 21
    endloop
  endfacet
  facet normal 0 0 1
    outer loop
      vertex 27.5497 28.0821 21
      vertex 28.1871 28.8526 21
      vertex 27.6791 29.2216 21
    endloop
  endfacet
  facet normal 0 0 1
    outer loop
      vertex 28.1871 28.8526 21
      vertex 27.5497 28.0821 21
      vertex 27.9159 27.7382 21
    endloop
  endfacet
  facet normal 0 0 1
    outer loop
      vertex 27.6791 29.2216 21
      vertex 27.1433 28.3773 21
      vertex 27.5497 28.0821 21
    endloop
  endfacet
  facet normal 0 0 1
    outer loop
      vertex 27.1289 29.5241 21
      vertex 27.1433 28.3773 21
      vertex 27.6791 29.2216 21
    endloop
  endfacet
  facet normal 0 0 1
    outer loop
      vertex 27.1289 29.5241 21
      vertex 26.7031 28.6193 21
      vertex 27.1433 28.3773 21
    endloop
  endfacet
  facet normal 0 0 1
    outer loop
      vertex 26.5451 29.7553 21
      vertex 26.7031 28.6193 21
      vertex 27.1289 29.5241 21
    endloop
  endfacet
  facet normal 0 0 1
    outer loop
      vertex 26.5451 29.7553 21
      vertex 26.2361 28.8042 21
      vertex 26.7031 28.6193 21
    endloop
  endfacet
  facet normal 0 0 1
    outer loop
      vertex 25.9369 29.9114 21
      vertex 26.2361 28.8042 21
      vertex 26.5451 29.7553 21
    endloop
  endfacet
  facet normal 0 0 1
    outer loop
      vertex 25.9369 29.9114 21
      vertex 25.7495 28.9291 21
      vertex 26.2361 28.8042 21
    endloop
  endfacet
  facet normal 0 0 1
    outer loop
      vertex 25.314 29.9901 21
      vertex 25.7495 28.9291 21
      vertex 25.9369 29.9114 21
    endloop
  endfacet
  facet normal 0 0 1
    outer loop
      vertex 25.314 29.9901 21
      vertex 25.2512 28.9921 21
      vertex 25.7495 28.9291 21
    endloop
  endfacet
  facet normal 0 0 1
    outer loop
      vertex 25.314 29.9901 21
      vertex -25.2512 28.9921 21
      vertex 25.2512 28.9921 21
    endloop
  endfacet
  facet normal -0 0 1
    outer loop
      vertex -25.314 29.9901 21
      vertex -25.2512 28.9921 21
      vertex 25.314 29.9901 21
    endloop
  endfacet
  facet normal 0 0 1
    outer loop
      vertex -25.314 29.9901 21
      vertex -25.7495 28.9291 21
      vertex -25.2512 28.9921 21
    endloop
  endfacet
  facet normal -0 0 1
    outer loop
      vertex -25.9369 29.9114 21
      vertex -25.7495 28.9291 21
      vertex -25.314 29.9901 21
    endloop
  endfacet
  facet normal 0 0 1
    outer loop
      vertex -25.9369 29.9114 21
      vertex -26.2361 28.8042 21
      vertex -25.7495 28.9291 21
    endloop
  endfacet
  facet normal -0 0 1
    outer loop
      vertex -26.5451 29.7553 21
      vertex -26.2361 28.8042 21
      vertex -25.9369 29.9114 21
    endloop
  endfacet
  facet normal 0 0 1
    outer loop
      vertex -26.5451 29.7553 21
      vertex -26.7031 28.6193 21
      vertex -26.2361 28.8042 21
    endloop
  endfacet
  facet normal -0 0 1
    outer loop
      vertex -27.1289 29.5241 21
      vertex -26.7031 28.6193 21
      vertex -26.5451 29.7553 21
    endloop
  endfacet
  facet normal 0 0 1
    outer loop
      vertex -27.1289 29.5241 21
      vertex -27.1433 28.3773 21
      vertex -26.7031 28.6193 21
    endloop
  endfacet
  facet normal -0 0 1
    outer loop
      vertex -27.6791 29.2216 21
      vertex -27.1433 28.3773 21
      vertex -27.1289 29.5241 21
    endloop
  endfacet
  facet normal 0 0 1
    outer loop
      vertex -27.1433 28.3773 21
      vertex -27.6791 29.2216 21
      vertex -27.5497 28.0821 21
    endloop
  endfacet
  facet normal -0 0 1
    outer loop
      vertex -28.1871 28.8526 21
      vertex -27.5497 28.0821 21
      vertex -27.6791 29.2216 21
    endloop
  endfacet
  facet normal 0 0 1
    outer loop
      vertex -27.5497 28.0821 21
      vertex -28.1871 28.8526 21
      vertex -27.9159 27.7382 21
    endloop
  endfacet
  facet normal -0 0 1
    outer loop
      vertex -28.6448 28.4227 21
      vertex -27.9159 27.7382 21
      vertex -28.1871 28.8526 21
    endloop
  endfacet
  facet normal 0 0 1
    outer loop
      vertex -27.9159 27.7382 21
      vertex -28.6448 28.4227 21
      vertex -28.2361 27.3511 21
    endloop
  endfacet
  facet normal -0 0 1
    outer loop
      vertex -29.0451 27.9389 21
      vertex -28.2361 27.3511 21
      vertex -28.6448 28.4227 21
    endloop
  endfacet
  facet normal 0 0 1
    outer loop
      vertex -28.2361 27.3511 21
      vertex -29.0451 27.9389 21
      vertex -28.5052 26.927 21
    endloop
  endfacet
  facet normal -0 0 1
    outer loop
      vertex -29.3815 27.4088 21
      vertex -28.5052 26.927 21
      vertex -29.0451 27.9389 21
    endloop
  endfacet
  facet normal 0 0 1
    outer loop
      vertex -28.5052 26.927 21
      vertex -29.3815 27.4088 21
      vertex -28.7191 26.4725 21
    endloop
  endfacet
  facet normal -0 0 1
    outer loop
      vertex -29.8429 26.2435 21
      vertex -28.8743 25.9948 21
      vertex -29.6489 26.8406 21
    endloop
  endfacet
  facet normal 0 0 1
    outer loop
      vertex -28.7191 26.4725 21
      vertex -29.6489 26.8406 21
      vertex -28.8743 25.9948 21
    endloop
  endfacet
  facet normal -0 0 1
    outer loop
      vertex -29.6489 26.8406 21
      vertex -28.7191 26.4725 21
      vertex -29.3815 27.4088 21
    endloop
  endfacet
  facet normal 0 0 1
    outer loop
      vertex 29.8429 -26.2435 21
      vertex 28.8743 -25.9948 21
      vertex 29.6489 -26.8406 21
    endloop
  endfacet
  facet normal -0 0 1
    outer loop
      vertex 28.7191 -26.4725 21
      vertex 29.6489 -26.8406 21
      vertex 28.8743 -25.9948 21
    endloop
  endfacet
  facet normal 0 0 1
    outer loop
      vertex 29.6489 -26.8406 21
      vertex 28.7191 -26.4725 21
      vertex 29.3815 -27.4088 21
    endloop
  endfacet
  facet normal -0 0 1
    outer loop
      vertex 28.5052 -26.927 21
      vertex 29.3815 -27.4088 21
      vertex 28.7191 -26.4725 21
    endloop
  endfacet
  facet normal 0 0 1
    outer loop
      vertex 29.3815 -27.4088 21
      vertex 28.5052 -26.927 21
      vertex 29.0451 -27.9389 21
    endloop
  endfacet
  facet normal -0 0 1
    outer loop
      vertex 28.2361 -27.3511 21
      vertex 29.0451 -27.9389 21
      vertex 28.5052 -26.927 21
    endloop
  endfacet
  facet normal 0 0 1
    outer loop
      vertex 29.0451 -27.9389 21
      vertex 28.2361 -27.3511 21
      vertex 28.6448 -28.4227 21
    endloop
  endfacet
  facet normal -0 0 1
    outer loop
      vertex 27.9159 -27.7382 21
      vertex 28.6448 -28.4227 21
      vertex 28.2361 -27.3511 21
    endloop
  endfacet
  facet normal 0 0 1
    outer loop
      vertex 28.6448 -28.4227 21
      vertex 27.9159 -27.7382 21
      vertex 28.1871 -28.8526 21
    endloop
  endfacet
  facet normal -0 0 1
    outer loop
      vertex 27.5497 -28.0821 21
      vertex 28.1871 -28.8526 21
      vertex 27.9159 -27.7382 21
    endloop
  endfacet
  facet normal 0 0 1
    outer loop
      vertex 28.1871 -28.8526 21
      vertex 27.5497 -28.0821 21
      vertex 27.6791 -29.2216 21
    endloop
  endfacet
  facet normal -0 0 1
    outer loop
      vertex 27.1433 -28.3773 21
      vertex 27.6791 -29.2216 21
      vertex 27.5497 -28.0821 21
    endloop
  endfacet
  facet normal 0 0 1
    outer loop
      vertex 27.1433 -28.3773 21
      vertex 27.1289 -29.5241 21
      vertex 27.6791 -29.2216 21
    endloop
  endfacet
  facet normal -0 0 1
    outer loop
      vertex 26.7031 -28.6193 21
      vertex 27.1289 -29.5241 21
      vertex 27.1433 -28.3773 21
    endloop
  endfacet
  facet normal 0 0 1
    outer loop
      vertex 26.7031 -28.6193 21
      vertex 26.5451 -29.7553 21
      vertex 27.1289 -29.5241 21
    endloop
  endfacet
  facet normal -0 0 1
    outer loop
      vertex 26.2361 -28.8042 21
      vertex 26.5451 -29.7553 21
      vertex 26.7031 -28.6193 21
    endloop
  endfacet
  facet normal 0 0 1
    outer loop
      vertex 26.2361 -28.8042 21
      vertex 25.9369 -29.9114 21
      vertex 26.5451 -29.7553 21
    endloop
  endfacet
  facet normal -0 0 1
    outer loop
      vertex 25.7495 -28.9291 21
      vertex 25.9369 -29.9114 21
      vertex 26.2361 -28.8042 21
    endloop
  endfacet
  facet normal 0 0 1
    outer loop
      vertex 25.7495 -28.9291 21
      vertex 25.314 -29.9901 21
      vertex 25.9369 -29.9114 21
    endloop
  endfacet
  facet normal -0 0 1
    outer loop
      vertex 25.2512 -28.9921 21
      vertex 25.314 -29.9901 21
      vertex 25.7495 -28.9291 21
    endloop
  endfacet
  facet normal -0 0 1
    outer loop
      vertex -25.2512 -28.9921 21
      vertex 25.314 -29.9901 21
      vertex 25.2512 -28.9921 21
    endloop
  endfacet
  facet normal 0 0 1
    outer loop
      vertex -25.2512 -28.9921 21
      vertex -25.314 -29.9901 21
      vertex 25.314 -29.9901 21
    endloop
  endfacet
  facet normal 0 0 1
    outer loop
      vertex -25.7495 -28.9291 21
      vertex -25.314 -29.9901 21
      vertex -25.2512 -28.9921 21
    endloop
  endfacet
  facet normal 0 0 1
    outer loop
      vertex -25.7495 -28.9291 21
      vertex -25.9369 -29.9114 21
      vertex -25.314 -29.9901 21
    endloop
  endfacet
  facet normal 0 0 1
    outer loop
      vertex -26.2361 -28.8042 21
      vertex -25.9369 -29.9114 21
      vertex -25.7495 -28.9291 21
    endloop
  endfacet
  facet normal 0 0 1
    outer loop
      vertex -26.2361 -28.8042 21
      vertex -26.5451 -29.7553 21
      vertex -25.9369 -29.9114 21
    endloop
  endfacet
  facet normal 0 0 1
    outer loop
      vertex -26.7031 -28.6193 21
      vertex -26.5451 -29.7553 21
      vertex -26.2361 -28.8042 21
    endloop
  endfacet
  facet normal 0 0 1
    outer loop
      vertex -26.7031 -28.6193 21
      vertex -27.1289 -29.5241 21
      vertex -26.5451 -29.7553 21
    endloop
  endfacet
  facet normal 0 0 1
    outer loop
      vertex -27.1433 -28.3773 21
      vertex -27.1289 -29.5241 21
      vertex -26.7031 -28.6193 21
    endloop
  endfacet
  facet normal 0 0 1
    outer loop
      vertex -27.6791 -29.2216 21
      vertex -27.1433 -28.3773 21
      vertex -27.5497 -28.0821 21
    endloop
  endfacet
  facet normal 0 0 1
    outer loop
      vertex -27.1433 -28.3773 21
      vertex -27.6791 -29.2216 21
      vertex -27.1289 -29.5241 21
    endloop
  endfacet
  facet normal 0 0 1
    outer loop
      vertex -28.1871 -28.8526 21
      vertex -27.5497 -28.0821 21
      vertex -27.9159 -27.7382 21
    endloop
  endfacet
  facet normal 0 0 1
    outer loop
      vertex -27.5497 -28.0821 21
      vertex -28.1871 -28.8526 21
      vertex -27.6791 -29.2216 21
    endloop
  endfacet
  facet normal 0 0 1
    outer loop
      vertex -28.6448 -28.4227 21
      vertex -27.9159 -27.7382 21
      vertex -28.2361 -27.3511 21
    endloop
  endfacet
  facet normal 0 0 1
    outer loop
      vertex -29.0451 -27.9389 21
      vertex -28.2361 -27.3511 21
      vertex -28.5052 -26.927 21
    endloop
  endfacet
  facet normal 0 0 1
    outer loop
      vertex -27.9159 -27.7382 21
      vertex -28.6448 -28.4227 21
      vertex -28.1871 -28.8526 21
    endloop
  endfacet
  facet normal 0 0 1
    outer loop
      vertex -29.3815 -27.4088 21
      vertex -28.5052 -26.927 21
      vertex -28.7191 -26.4725 21
    endloop
  endfacet
  facet normal 0 0 1
    outer loop
      vertex -29.6489 -26.8406 21
      vertex -28.7191 -26.4725 21
      vertex -28.8743 -25.9948 21
    endloop
  endfacet
  facet normal 0 0 1
    outer loop
      vertex -29.8429 -26.2435 21
      vertex -28.8743 -25.9948 21
      vertex -28.9685 -25.5013 21
    endloop
  endfacet
  facet normal 0 0 1
    outer loop
      vertex -28.2361 -27.3511 21
      vertex -29.0451 -27.9389 21
      vertex -28.6448 -28.4227 21
    endloop
  endfacet
  facet normal 0 0 1
    outer loop
      vertex -29.9606 -25.6267 21
      vertex -28.9685 -25.5013 21
      vertex -29 -25 21
    endloop
  endfacet
  facet normal 0 0 1
    outer loop
      vertex -29 25 21
      vertex -30 25 21
      vertex -29 -25 21
    endloop
  endfacet
  facet normal 0 0 1
    outer loop
      vertex -28.8743 25.9948 21
      vertex -29.8429 26.2435 21
      vertex -28.9685 25.5013 21
    endloop
  endfacet
  facet normal 0 0 1
    outer loop
      vertex -30 -25 21
      vertex -29 -25 21
      vertex -30 25 21
    endloop
  endfacet
  facet normal -0 0 1
    outer loop
      vertex -29.9606 25.6267 21
      vertex -28.9685 25.5013 21
      vertex -29.8429 26.2435 21
    endloop
  endfacet
  facet normal 0 -0 1
    outer loop
      vertex -29.9606 -25.6267 21
      vertex -29 -25 21
      vertex -30 -25 21
    endloop
  endfacet
  facet normal 0 0 1
    outer loop
      vertex -28.9685 25.5013 21
      vertex -29.9606 25.6267 21
      vertex -29 25 21
    endloop
  endfacet
  facet normal 0 0 1
    outer loop
      vertex -28.5052 -26.927 21
      vertex -29.3815 -27.4088 21
      vertex -29.0451 -27.9389 21
    endloop
  endfacet
  facet normal 0 0 1
    outer loop
      vertex -29 25 21
      vertex -29.9606 25.6267 21
      vertex -30 25 21
    endloop
  endfacet
  facet normal 0 0 1
    outer loop
      vertex -28.7191 -26.4725 21
      vertex -29.6489 -26.8406 21
      vertex -29.3815 -27.4088 21
    endloop
  endfacet
  facet normal 0 0 1
    outer loop
      vertex -28.8743 -25.9948 21
      vertex -29.8429 -26.2435 21
      vertex -29.6489 -26.8406 21
    endloop
  endfacet
  facet normal 0 0 1
    outer loop
      vertex -28.9685 -25.5013 21
      vertex -29.9606 -25.6267 21
      vertex -29.8429 -26.2435 21
    endloop
  endfacet
  facet normal 1 -0 0
    outer loop
      vertex 30 -25 21
      vertex 30 25 0
      vertex 30 25 21
    endloop
  endfacet
  facet normal 1 0 0
    outer loop
      vertex 30 25 0
      vertex 30 -25 21
      vertex 30 -25 0
    endloop
  endfacet
  facet normal 0.770462 0.637486 0
    outer loop
      vertex 29.0451 27.9389 21
      vertex 28.6448 28.4227 0
      vertex 28.6448 28.4227 21
    endloop
  endfacet
  facet normal 0.770462 0.637486 0
    outer loop
      vertex 28.6448 28.4227 0
      vertex 29.0451 27.9389 21
      vertex 29.0451 27.9389 0
    endloop
  endfacet
  facet normal -0.770462 0.637486 0
    outer loop
      vertex -29.0451 27.9389 0
      vertex -28.6448 28.4227 21
      vertex -28.6448 28.4227 0
    endloop
  endfacet
  facet normal -0.770462 0.637486 0
    outer loop
      vertex -28.6448 28.4227 21
      vertex -29.0451 27.9389 0
      vertex -29.0451 27.9389 21
    endloop
  endfacet
  facet normal 0 -1 0
    outer loop
      vertex -25.314 -29.9901 0
      vertex 25.314 -29.9901 21
      vertex -25.314 -29.9901 21
    endloop
  endfacet
  facet normal 0 -1 -0
    outer loop
      vertex 25.314 -29.9901 21
      vertex -25.314 -29.9901 0
      vertex 25.314 -29.9901 0
    endloop
  endfacet
  facet normal -0.368203 0.929745 0
    outer loop
      vertex -26.5451 29.7553 0
      vertex -27.1289 29.5241 21
      vertex -26.5451 29.7553 21
    endloop
  endfacet
  facet normal -0.368203 0.929745 0
    outer loop
      vertex -27.1289 29.5241 21
      vertex -26.5451 29.7553 0
      vertex -27.1289 29.5241 0
    endloop
  endfacet
  facet normal 0 1 -0
    outer loop
      vertex 25.314 29.9901 0
      vertex -25.314 29.9901 21
      vertex 25.314 29.9901 21
    endloop
  endfacet
  facet normal 0 1 0
    outer loop
      vertex -25.314 29.9901 21
      vertex 25.314 29.9901 0
      vertex -25.314 29.9901 0
    endloop
  endfacet
  facet normal -0.99803 0.0627451 0
    outer loop
      vertex -30 25 0
      vertex -29.9606 25.6267 21
      vertex -29.9606 25.6267 0
    endloop
  endfacet
  facet normal -0.99803 0.0627451 0
    outer loop
      vertex -29.9606 25.6267 21
      vertex -30 25 0
      vertex -30 25 21
    endloop
  endfacet
  facet normal -0.368203 -0.929745 0
    outer loop
      vertex -27.1289 -29.5241 0
      vertex -26.5451 -29.7553 21
      vertex -27.1289 -29.5241 21
    endloop
  endfacet
  facet normal -0.368203 -0.929745 -0
    outer loop
      vertex -26.5451 -29.7553 21
      vertex -27.1289 -29.5241 0
      vertex -26.5451 -29.7553 0
    endloop
  endfacet
  facet normal -0.684624 -0.728896 0
    outer loop
      vertex -28.6448 -28.4227 0
      vertex -28.1871 -28.8526 21
      vertex -28.6448 -28.4227 21
    endloop
  endfacet
  facet normal -0.684624 -0.728896 -0
    outer loop
      vertex -28.1871 -28.8526 21
      vertex -28.6448 -28.4227 0
      vertex -28.1871 -28.8526 0
    endloop
  endfacet
  facet normal 0.684624 -0.728896 0
    outer loop
      vertex 28.1871 -28.8526 0
      vertex 28.6448 -28.4227 21
      vertex 28.1871 -28.8526 21
    endloop
  endfacet
  facet normal 0.684624 -0.728896 0
    outer loop
      vertex 28.6448 -28.4227 21
      vertex 28.1871 -28.8526 0
      vertex 28.6448 -28.4227 0
    endloop
  endfacet
  facet normal 0.951061 0.309003 0
    outer loop
      vertex 29.8429 26.2435 21
      vertex 29.6489 26.8406 0
      vertex 29.6489 26.8406 21
    endloop
  endfacet
  facet normal 0.951061 0.309003 0
    outer loop
      vertex 29.6489 26.8406 0
      vertex 29.8429 26.2435 21
      vertex 29.8429 26.2435 0
    endloop
  endfacet
  facet normal 0.125348 0.992113 -0
    outer loop
      vertex 25.9369 29.9114 0
      vertex 25.314 29.9901 21
      vertex 25.9369 29.9114 21
    endloop
  endfacet
  facet normal 0.125348 0.992113 0
    outer loop
      vertex 25.314 29.9901 21
      vertex 25.9369 29.9114 0
      vertex 25.314 29.9901 0
    endloop
  endfacet
  facet normal -0.684624 0.728896 0
    outer loop
      vertex -28.1871 28.8526 0
      vertex -28.6448 28.4227 21
      vertex -28.1871 28.8526 21
    endloop
  endfacet
  facet normal -0.684624 0.728896 0
    outer loop
      vertex -28.6448 28.4227 21
      vertex -28.1871 28.8526 0
      vertex -28.6448 28.4227 0
    endloop
  endfacet
  facet normal -0.951061 0.309003 0
    outer loop
      vertex -29.8429 26.2435 0
      vertex -29.6489 26.8406 21
      vertex -29.6489 26.8406 0
    endloop
  endfacet
  facet normal -0.951061 0.309003 0
    outer loop
      vertex -29.6489 26.8406 21
      vertex -29.8429 26.2435 0
      vertex -29.8429 26.2435 21
    endloop
  endfacet
  facet normal 0 0 -1
    outer loop
      vertex 25.314 -29.9901 0
      vertex 30 -25 0
      vertex 29.9606 -25.6267 0
    endloop
  endfacet
  facet normal 0 0 -1
    outer loop
      vertex -30 -25 0
      vertex 30 -25 0
      vertex 25.314 -29.9901 0
    endloop
  endfacet
  facet normal 0 0 -1
    outer loop
      vertex 25.314 -29.9901 0
      vertex 29.9606 -25.6267 0
      vertex 29.8429 -26.2435 0
    endloop
  endfacet
  facet normal 0 0 -1
    outer loop
      vertex 30 -25 0
      vertex -30 -25 0
      vertex 30 25 0
    endloop
  endfacet
  facet normal 0 0 -1
    outer loop
      vertex 25.314 -29.9901 0
      vertex 29.8429 -26.2435 0
      vertex 29.6489 -26.8406 0
    endloop
  endfacet
  facet normal 0 0 -1
    outer loop
      vertex 30 25 0
      vertex 25.314 29.9901 0
      vertex 29.9606 25.6267 0
    endloop
  endfacet
  facet normal 0 0 -1
    outer loop
      vertex 25.314 -29.9901 0
      vertex 29.6489 -26.8406 0
      vertex 29.3815 -27.4088 0
    endloop
  endfacet
  facet normal 0 0 -1
    outer loop
      vertex 29.9606 25.6267 0
      vertex 25.314 29.9901 0
      vertex 29.8429 26.2435 0
    endloop
  endfacet
  facet normal 0 0 -1
    outer loop
      vertex 25.314 -29.9901 0
      vertex 29.3815 -27.4088 0
      vertex 29.0451 -27.9389 0
    endloop
  endfacet
  facet normal 0 0 -1
    outer loop
      vertex 29.8429 26.2435 0
      vertex 25.314 29.9901 0
      vertex 29.6489 26.8406 0
    endloop
  endfacet
  facet normal 0 0 -1
    outer loop
      vertex 25.314 -29.9901 0
      vertex 29.0451 -27.9389 0
      vertex 28.6448 -28.4227 0
    endloop
  endfacet
  facet normal 0 0 -1
    outer loop
      vertex 29.6489 26.8406 0
      vertex 25.314 29.9901 0
      vertex 29.3815 27.4088 0
    endloop
  endfacet
  facet normal 0 0 -1
    outer loop
      vertex 25.314 -29.9901 0
      vertex 28.6448 -28.4227 0
      vertex 28.1871 -28.8526 0
    endloop
  endfacet
  facet normal 0 0 -1
    outer loop
      vertex 29.3815 27.4088 0
      vertex 25.314 29.9901 0
      vertex 29.0451 27.9389 0
    endloop
  endfacet
  facet normal 0 0 -1
    outer loop
      vertex 25.314 -29.9901 0
      vertex 28.1871 -28.8526 0
      vertex 27.6791 -29.2216 0
    endloop
  endfacet
  facet normal 0 0 -1
    outer loop
      vertex 29.0451 27.9389 0
      vertex 25.314 29.9901 0
      vertex 28.6448 28.4227 0
    endloop
  endfacet
  facet normal 0 0 -1
    outer loop
      vertex 25.314 -29.9901 0
      vertex 27.6791 -29.2216 0
      vertex 27.1289 -29.5241 0
    endloop
  endfacet
  facet normal 0 0 -1
    outer loop
      vertex 28.6448 28.4227 0
      vertex 25.314 29.9901 0
      vertex 28.1871 28.8526 0
    endloop
  endfacet
  facet normal 0 0 -1
    outer loop
      vertex 25.314 -29.9901 0
      vertex 27.1289 -29.5241 0
      vertex 26.5451 -29.7553 0
    endloop
  endfacet
  facet normal 0 0 -1
    outer loop
      vertex 28.1871 28.8526 0
      vertex 25.314 29.9901 0
      vertex 27.6791 29.2216 0
    endloop
  endfacet
  facet normal 0 0 -1
    outer loop
      vertex 25.314 -29.9901 0
      vertex 26.5451 -29.7553 0
      vertex 25.9369 -29.9114 0
    endloop
  endfacet
  facet normal 0 0 -1
    outer loop
      vertex 27.6791 29.2216 0
      vertex 25.314 29.9901 0
      vertex 27.1289 29.5241 0
    endloop
  endfacet
  facet normal 0 0 -1
    outer loop
      vertex 27.1289 29.5241 0
      vertex 25.314 29.9901 0
      vertex 26.5451 29.7553 0
    endloop
  endfacet
  facet normal 0 0 -1
    outer loop
      vertex 26.5451 29.7553 0
      vertex 25.314 29.9901 0
      vertex 25.9369 29.9114 0
    endloop
  endfacet
  facet normal 0 0 -1
    outer loop
      vertex -30 -25 0
      vertex 25.314 -29.9901 0
      vertex -25.314 -29.9901 0
    endloop
  endfacet
  facet normal 0 0 -1
    outer loop
      vertex -30 25 0
      vertex 30 25 0
      vertex -30 -25 0
    endloop
  endfacet
  facet normal 0 0 -1
    outer loop
      vertex -30 -25 0
      vertex -25.314 -29.9901 0
      vertex -25.9369 -29.9114 0
    endloop
  endfacet
  facet normal 0 0 -1
    outer loop
      vertex 30 25 0
      vertex -30 25 0
      vertex 25.314 29.9901 0
    endloop
  endfacet
  facet normal 0 0 -1
    outer loop
      vertex -30 -25 0
      vertex -25.9369 -29.9114 0
      vertex -26.5451 -29.7553 0
    endloop
  endfacet
  facet normal -0 0 -1
    outer loop
      vertex 25.314 29.9901 0
      vertex -30 25 0
      vertex -25.314 29.9901 0
    endloop
  endfacet
  facet normal 0 0 -1
    outer loop
      vertex -30 -25 0
      vertex -26.5451 -29.7553 0
      vertex -27.1289 -29.5241 0
    endloop
  endfacet
  facet normal 0 0 -1
    outer loop
      vertex -25.314 29.9901 0
      vertex -30 25 0
      vertex -25.9369 29.9114 0
    endloop
  endfacet
  facet normal 0 0 -1
    outer loop
      vertex -30 -25 0
      vertex -27.1289 -29.5241 0
      vertex -27.6791 -29.2216 0
    endloop
  endfacet
  facet normal 0 0 -1
    outer loop
      vertex -25.9369 29.9114 0
      vertex -30 25 0
      vertex -26.5451 29.7553 0
    endloop
  endfacet
  facet normal 0 0 -1
    outer loop
      vertex -30 -25 0
      vertex -27.6791 -29.2216 0
      vertex -28.1871 -28.8526 0
    endloop
  endfacet
  facet normal 0 0 -1
    outer loop
      vertex -26.5451 29.7553 0
      vertex -30 25 0
      vertex -27.1289 29.5241 0
    endloop
  endfacet
  facet normal 0 0 -1
    outer loop
      vertex -30 -25 0
      vertex -28.1871 -28.8526 0
      vertex -28.6448 -28.4227 0
    endloop
  endfacet
  facet normal 0 0 -1
    outer loop
      vertex -27.1289 29.5241 0
      vertex -30 25 0
      vertex -27.6791 29.2216 0
    endloop
  endfacet
  facet normal 0 0 -1
    outer loop
      vertex -30 -25 0
      vertex -28.6448 -28.4227 0
      vertex -29.0451 -27.9389 0
    endloop
  endfacet
  facet normal 0 0 -1
    outer loop
      vertex -27.6791 29.2216 0
      vertex -30 25 0
      vertex -28.1871 28.8526 0
    endloop
  endfacet
  facet normal 0 0 -1
    outer loop
      vertex -30 -25 0
      vertex -29.0451 -27.9389 0
      vertex -29.3815 -27.4088 0
    endloop
  endfacet
  facet normal 0 0 -1
    outer loop
      vertex -28.1871 28.8526 0
      vertex -30 25 0
      vertex -28.6448 28.4227 0
    endloop
  endfacet
  facet normal 0 0 -1
    outer loop
      vertex -30 -25 0
      vertex -29.3815 -27.4088 0
      vertex -29.6489 -26.8406 0
    endloop
  endfacet
  facet normal 0 0 -1
    outer loop
      vertex -28.6448 28.4227 0
      vertex -30 25 0
      vertex -29.0451 27.9389 0
    endloop
  endfacet
  facet normal 0 0 -1
    outer loop
      vertex -30 -25 0
      vertex -29.6489 -26.8406 0
      vertex -29.8429 -26.2435 0
    endloop
  endfacet
  facet normal 0 0 -1
    outer loop
      vertex -29.0451 27.9389 0
      vertex -30 25 0
      vertex -29.3815 27.4088 0
    endloop
  endfacet
  facet normal 0 0 -1
    outer loop
      vertex -30 -25 0
      vertex -29.8429 -26.2435 0
      vertex -29.9606 -25.6267 0
    endloop
  endfacet
  facet normal 0 0 -1
    outer loop
      vertex -29.3815 27.4088 0
      vertex -30 25 0
      vertex -29.6489 26.8406 0
    endloop
  endfacet
  facet normal 0 0 -1
    outer loop
      vertex -29.6489 26.8406 0
      vertex -30 25 0
      vertex -29.8429 26.2435 0
    endloop
  endfacet
  facet normal 0 0 -1
    outer loop
      vertex -29.8429 26.2435 0
      vertex -30 25 0
      vertex -29.9606 25.6267 0
    endloop
  endfacet
  facet normal -0.951061 -0.309003 0
    outer loop
      vertex -29.6489 -26.8406 0
      vertex -29.8429 -26.2435 21
      vertex -29.8429 -26.2435 0
    endloop
  endfacet
  facet normal -0.951061 -0.309003 0
    outer loop
      vertex -29.8429 -26.2435 21
      vertex -29.6489 -26.8406 0
      vertex -29.6489 -26.8406 21
    endloop
  endfacet
  facet normal -0.770462 -0.637486 0
    outer loop
      vertex -28.6448 -28.4227 0
      vertex -29.0451 -27.9389 21
      vertex -29.0451 -27.9389 0
    endloop
  endfacet
  facet normal -0.770462 -0.637486 0
    outer loop
      vertex -29.0451 -27.9389 21
      vertex -28.6448 -28.4227 0
      vertex -28.6448 -28.4227 21
    endloop
  endfacet
  facet normal -0.904811 -0.425812 0
    outer loop
      vertex -29.3815 -27.4088 0
      vertex -29.6489 -26.8406 21
      vertex -29.6489 -26.8406 0
    endloop
  endfacet
  facet normal -0.904811 -0.425812 0
    outer loop
      vertex -29.6489 -26.8406 21
      vertex -29.3815 -27.4088 0
      vertex -29.3815 -27.4088 21
    endloop
  endfacet
  facet normal -0.248601 -0.968606 0
    outer loop
      vertex -26.5451 -29.7553 0
      vertex -25.9369 -29.9114 21
      vertex -26.5451 -29.7553 21
    endloop
  endfacet
  facet normal -0.248601 -0.968606 -0
    outer loop
      vertex -25.9369 -29.9114 21
      vertex -26.5451 -29.7553 0
      vertex -25.9369 -29.9114 0
    endloop
  endfacet
  facet normal -0.587698 -0.80908 0
    outer loop
      vertex -28.1871 -28.8526 0
      vertex -27.6791 -29.2216 21
      vertex -28.1871 -28.8526 21
    endloop
  endfacet
  facet normal -0.587698 -0.80908 -0
    outer loop
      vertex -27.6791 -29.2216 21
      vertex -28.1871 -28.8526 0
      vertex -27.6791 -29.2216 0
    endloop
  endfacet
  facet normal 0.951061 -0.309003 0
    outer loop
      vertex 29.6489 -26.8406 21
      vertex 29.8429 -26.2435 0
      vertex 29.8429 -26.2435 21
    endloop
  endfacet
  facet normal 0.951061 -0.309003 0
    outer loop
      vertex 29.8429 -26.2435 0
      vertex 29.6489 -26.8406 21
      vertex 29.6489 -26.8406 0
    endloop
  endfacet
  facet normal 0.587698 -0.80908 0
    outer loop
      vertex 27.6791 -29.2216 0
      vertex 28.1871 -28.8526 21
      vertex 27.6791 -29.2216 21
    endloop
  endfacet
  facet normal 0.587698 -0.80908 0
    outer loop
      vertex 28.1871 -28.8526 21
      vertex 27.6791 -29.2216 0
      vertex 28.1871 -28.8526 0
    endloop
  endfacet
  facet normal 0.99803 -0.0627451 0
    outer loop
      vertex 29.9606 -25.6267 21
      vertex 30 -25 0
      vertex 30 -25 21
    endloop
  endfacet
  facet normal 0.99803 -0.0627451 0
    outer loop
      vertex 30 -25 0
      vertex 29.9606 -25.6267 21
      vertex 29.9606 -25.6267 0
    endloop
  endfacet
  facet normal 0.982276 0.187441 0
    outer loop
      vertex 29.9606 25.6267 21
      vertex 29.8429 26.2435 0
      vertex 29.8429 26.2435 21
    endloop
  endfacet
  facet normal 0.982276 0.187441 0
    outer loop
      vertex 29.8429 26.2435 0
      vertex 29.9606 25.6267 21
      vertex 29.9606 25.6267 0
    endloop
  endfacet
  facet normal 0.99803 0.0627451 0
    outer loop
      vertex 30 25 21
      vertex 29.9606 25.6267 0
      vertex 29.9606 25.6267 21
    endloop
  endfacet
  facet normal 0.99803 0.0627451 0
    outer loop
      vertex 29.9606 25.6267 0
      vertex 30 25 21
      vertex 30 25 0
    endloop
  endfacet
  facet normal 0.844336 0.535814 0
    outer loop
      vertex 29.3815 27.4088 21
      vertex 29.0451 27.9389 0
      vertex 29.0451 27.9389 21
    endloop
  endfacet
  facet normal 0.844336 0.535814 0
    outer loop
      vertex 29.0451 27.9389 0
      vertex 29.3815 27.4088 21
      vertex 29.3815 27.4088 0
    endloop
  endfacet
  facet normal 0.904811 0.425812 0
    outer loop
      vertex 29.6489 26.8406 21
      vertex 29.3815 27.4088 0
      vertex 29.3815 27.4088 21
    endloop
  endfacet
  facet normal 0.904811 0.425812 0
    outer loop
      vertex 29.3815 27.4088 0
      vertex 29.6489 26.8406 21
      vertex 29.6489 26.8406 0
    endloop
  endfacet
  facet normal 0.481784 0.87629 -0
    outer loop
      vertex 27.6791 29.2216 0
      vertex 27.1289 29.5241 21
      vertex 27.6791 29.2216 21
    endloop
  endfacet
  facet normal 0.481784 0.87629 0
    outer loop
      vertex 27.1289 29.5241 21
      vertex 27.6791 29.2216 0
      vertex 27.1289 29.5241 0
    endloop
  endfacet
  facet normal 0.684624 0.728896 -0
    outer loop
      vertex 28.6448 28.4227 0
      vertex 28.1871 28.8526 21
      vertex 28.6448 28.4227 21
    endloop
  endfacet
  facet normal 0.684624 0.728896 0
    outer loop
      vertex 28.1871 28.8526 21
      vertex 28.6448 28.4227 0
      vertex 28.1871 28.8526 0
    endloop
  endfacet
  facet normal 0.368203 0.929745 -0
    outer loop
      vertex 27.1289 29.5241 0
      vertex 26.5451 29.7553 21
      vertex 27.1289 29.5241 21
    endloop
  endfacet
  facet normal 0.368203 0.929745 0
    outer loop
      vertex 26.5451 29.7553 21
      vertex 27.1289 29.5241 0
      vertex 26.5451 29.7553 0
    endloop
  endfacet
  facet normal -0.587698 0.80908 0
    outer loop
      vertex -27.6791 29.2216 0
      vertex -28.1871 28.8526 21
      vertex -27.6791 29.2216 21
    endloop
  endfacet
  facet normal -0.587698 0.80908 0
    outer loop
      vertex -28.1871 28.8526 21
      vertex -27.6791 29.2216 0
      vertex -28.1871 28.8526 0
    endloop
  endfacet
  facet normal -0.481784 0.87629 0
    outer loop
      vertex -27.1289 29.5241 0
      vertex -27.6791 29.2216 21
      vertex -27.1289 29.5241 21
    endloop
  endfacet
  facet normal -0.481784 0.87629 0
    outer loop
      vertex -27.6791 29.2216 21
      vertex -27.1289 29.5241 0
      vertex -27.6791 29.2216 0
    endloop
  endfacet
  facet normal -0.982276 0.187441 0
    outer loop
      vertex -29.9606 25.6267 0
      vertex -29.8429 26.2435 21
      vertex -29.8429 26.2435 0
    endloop
  endfacet
  facet normal -0.982276 0.187441 0
    outer loop
      vertex -29.8429 26.2435 21
      vertex -29.9606 25.6267 0
      vertex -29.9606 25.6267 21
    endloop
  endfacet
  facet normal -0.982276 -0.187441 0
    outer loop
      vertex -29.8429 -26.2435 0
      vertex -29.9606 -25.6267 21
      vertex -29.9606 -25.6267 0
    endloop
  endfacet
  facet normal -0.982276 -0.187441 0
    outer loop
      vertex -29.9606 -25.6267 21
      vertex -29.8429 -26.2435 0
      vertex -29.8429 -26.2435 21
    endloop
  endfacet
  facet normal -0.844336 -0.535814 0
    outer loop
      vertex -29.0451 -27.9389 0
      vertex -29.3815 -27.4088 21
      vertex -29.3815 -27.4088 0
    endloop
  endfacet
  facet normal -0.844336 -0.535814 0
    outer loop
      vertex -29.3815 -27.4088 21
      vertex -29.0451 -27.9389 0
      vertex -29.0451 -27.9389 21
    endloop
  endfacet
  facet normal -0.125348 -0.992113 0
    outer loop
      vertex -25.9369 -29.9114 0
      vertex -25.314 -29.9901 21
      vertex -25.9369 -29.9114 21
    endloop
  endfacet
  facet normal -0.125348 -0.992113 -0
    outer loop
      vertex -25.314 -29.9901 21
      vertex -25.9369 -29.9114 0
      vertex -25.314 -29.9901 0
    endloop
  endfacet
  facet normal -0.481784 -0.87629 0
    outer loop
      vertex -27.6791 -29.2216 0
      vertex -27.1289 -29.5241 21
      vertex -27.6791 -29.2216 21
    endloop
  endfacet
  facet normal -0.481784 -0.87629 -0
    outer loop
      vertex -27.1289 -29.5241 21
      vertex -27.6791 -29.2216 0
      vertex -27.1289 -29.5241 0
    endloop
  endfacet
  facet normal 0.770462 -0.637486 0
    outer loop
      vertex 28.6448 -28.4227 21
      vertex 29.0451 -27.9389 0
      vertex 29.0451 -27.9389 21
    endloop
  endfacet
  facet normal 0.770462 -0.637486 0
    outer loop
      vertex 29.0451 -27.9389 0
      vertex 28.6448 -28.4227 21
      vertex 28.6448 -28.4227 0
    endloop
  endfacet
  facet normal 0.844336 -0.535814 0
    outer loop
      vertex 29.0451 -27.9389 21
      vertex 29.3815 -27.4088 0
      vertex 29.3815 -27.4088 21
    endloop
  endfacet
  facet normal 0.844336 -0.535814 0
    outer loop
      vertex 29.3815 -27.4088 0
      vertex 29.0451 -27.9389 21
      vertex 29.0451 -27.9389 0
    endloop
  endfacet
  facet normal 0.982276 -0.187441 0
    outer loop
      vertex 29.8429 -26.2435 21
      vertex 29.9606 -25.6267 0
      vertex 29.9606 -25.6267 21
    endloop
  endfacet
  facet normal 0.982276 -0.187441 0
    outer loop
      vertex 29.9606 -25.6267 0
      vertex 29.8429 -26.2435 21
      vertex 29.8429 -26.2435 0
    endloop
  endfacet
  facet normal 0.125348 -0.992113 0
    outer loop
      vertex 25.314 -29.9901 0
      vertex 25.9369 -29.9114 21
      vertex 25.314 -29.9901 21
    endloop
  endfacet
  facet normal 0.125348 -0.992113 0
    outer loop
      vertex 25.9369 -29.9114 21
      vertex 25.314 -29.9901 0
      vertex 25.9369 -29.9114 0
    endloop
  endfacet
  facet normal 0.368203 -0.929745 0
    outer loop
      vertex 26.5451 -29.7553 0
      vertex 27.1289 -29.5241 21
      vertex 26.5451 -29.7553 21
    endloop
  endfacet
  facet normal 0.368203 -0.929745 0
    outer loop
      vertex 27.1289 -29.5241 21
      vertex 26.5451 -29.7553 0
      vertex 27.1289 -29.5241 0
    endloop
  endfacet
  facet normal 0.587698 0.80908 -0
    outer loop
      vertex 28.1871 28.8526 0
      vertex 27.6791 29.2216 21
      vertex 28.1871 28.8526 21
    endloop
  endfacet
  facet normal 0.587698 0.80908 0
    outer loop
      vertex 27.6791 29.2216 21
      vertex 28.1871 28.8526 0
      vertex 27.6791 29.2216 0
    endloop
  endfacet
  facet normal 0.248601 0.968606 -0
    outer loop
      vertex 26.5451 29.7553 0
      vertex 25.9369 29.9114 21
      vertex 26.5451 29.7553 21
    endloop
  endfacet
  facet normal 0.248601 0.968606 0
    outer loop
      vertex 25.9369 29.9114 21
      vertex 26.5451 29.7553 0
      vertex 25.9369 29.9114 0
    endloop
  endfacet
  facet normal -0.248601 0.968606 0
    outer loop
      vertex -25.9369 29.9114 0
      vertex -26.5451 29.7553 21
      vertex -25.9369 29.9114 21
    endloop
  endfacet
  facet normal -0.248601 0.968606 0
    outer loop
      vertex -26.5451 29.7553 21
      vertex -25.9369 29.9114 0
      vertex -26.5451 29.7553 0
    endloop
  endfacet
  facet normal -0.125348 0.992113 0
    outer loop
      vertex -25.314 29.9901 0
      vertex -25.9369 29.9114 21
      vertex -25.314 29.9901 21
    endloop
  endfacet
  facet normal -0.125348 0.992113 0
    outer loop
      vertex -25.9369 29.9114 21
      vertex -25.314 29.9901 0
      vertex -25.9369 29.9114 0
    endloop
  endfacet
  facet normal -0.904811 0.425812 0
    outer loop
      vertex -29.6489 26.8406 0
      vertex -29.3815 27.4088 21
      vertex -29.3815 27.4088 0
    endloop
  endfacet
  facet normal -0.904811 0.425812 0
    outer loop
      vertex -29.3815 27.4088 21
      vertex -29.6489 26.8406 0
      vertex -29.6489 26.8406 21
    endloop
  endfacet
  facet normal -0.844336 0.535814 0
    outer loop
      vertex -29.3815 27.4088 0
      vertex -29.0451 27.9389 21
      vertex -29.0451 27.9389 0
    endloop
  endfacet
  facet normal -0.844336 0.535814 0
    outer loop
      vertex -29.0451 27.9389 21
      vertex -29.3815 27.4088 0
      vertex -29.3815 27.4088 21
    endloop
  endfacet
  facet normal 0.904811 -0.425812 0
    outer loop
      vertex 29.3815 -27.4088 21
      vertex 29.6489 -26.8406 0
      vertex 29.6489 -26.8406 21
    endloop
  endfacet
  facet normal 0.904811 -0.425812 0
    outer loop
      vertex 29.6489 -26.8406 0
      vertex 29.3815 -27.4088 21
      vertex 29.3815 -27.4088 0
    endloop
  endfacet
  facet normal 0.481784 -0.87629 0
    outer loop
      vertex 27.1289 -29.5241 0
      vertex 27.6791 -29.2216 21
      vertex 27.1289 -29.5241 21
    endloop
  endfacet
  facet normal 0.481784 -0.87629 0
    outer loop
      vertex 27.6791 -29.2216 21
      vertex 27.1289 -29.5241 0
      vertex 27.6791 -29.2216 0
    endloop
  endfacet
  facet normal 0.248601 -0.968606 0
    outer loop
      vertex 25.9369 -29.9114 0
      vertex 26.5451 -29.7553 21
      vertex 25.9369 -29.9114 21
    endloop
  endfacet
  facet normal 0.248601 -0.968606 0
    outer loop
      vertex 26.5451 -29.7553 21
      vertex 25.9369 -29.9114 0
      vertex 26.5451 -29.7553 0
    endloop
  endfacet
  facet normal 0 -1 0
    outer loop
      vertex -25.2512 28.9921 2
      vertex 25.2512 28.9921 21
      vertex -25.2512 28.9921 21
    endloop
  endfacet
  facet normal 0 -1 -0
    outer loop
      vertex 25.2512 28.9921 21
      vertex -25.2512 28.9921 2
      vertex 25.2512 28.9921 2
    endloop
  endfacet
  facet normal 0 1 -0
    outer loop
      vertex 25.2512 -28.9921 2
      vertex -25.2512 -28.9921 21
      vertex 25.2512 -28.9921 21
    endloop
  endfacet
  facet normal 0 1 0
    outer loop
      vertex -25.2512 -28.9921 21
      vertex 25.2512 -28.9921 2
      vertex -25.2512 -28.9921 2
    endloop
  endfacet
  facet normal 0.125431 0.992102 -0
    outer loop
      vertex -25.2512 -28.9921 2
      vertex -25.7495 -28.9291 21
      vertex -25.2512 -28.9921 21
    endloop
  endfacet
  facet normal 0.125431 0.992102 0
    outer loop
      vertex -25.7495 -28.9291 21
      vertex -25.2512 -28.9921 2
      vertex -25.7495 -28.9291 2
    endloop
  endfacet
  facet normal -0.998032 0.0627129 0
    outer loop
      vertex 28.9685 -25.5013 2
      vertex 29 -25 21
      vertex 29 -25 2
    endloop
  endfacet
  facet normal -0.998032 0.0627129 0
    outer loop
      vertex 29 -25 21
      vertex 28.9685 -25.5013 2
      vertex 28.9685 -25.5013 21
    endloop
  endfacet
  facet normal -0.770549 -0.63738 0
    outer loop
      vertex 28.2361 27.3511 2
      vertex 27.9159 27.7382 21
      vertex 27.9159 27.7382 2
    endloop
  endfacet
  facet normal -0.770549 -0.63738 0
    outer loop
      vertex 27.9159 27.7382 21
      vertex 28.2361 27.3511 2
      vertex 28.2361 27.3511 21
    endloop
  endfacet
  facet normal 1 -0 0
    outer loop
      vertex -29 -25 21
      vertex -29 25 2
      vertex -29 25 21
    endloop
  endfacet
  facet normal 1 0 0
    outer loop
      vertex -29 25 2
      vertex -29 -25 21
      vertex -29 -25 2
    endloop
  endfacet
  facet normal -0.368127 -0.929775 0
    outer loop
      vertex 26.2361 28.8042 2
      vertex 26.7031 28.6193 21
      vertex 26.2361 28.8042 21
    endloop
  endfacet
  facet normal -0.368127 -0.929775 -0
    outer loop
      vertex 26.7031 28.6193 21
      vertex 26.2361 28.8042 2
      vertex 26.7031 28.6193 2
    endloop
  endfacet
  facet normal 0.684563 -0.728953 0
    outer loop
      vertex -27.9159 27.7382 2
      vertex -27.5497 28.0821 21
      vertex -27.9159 27.7382 21
    endloop
  endfacet
  facet normal 0.684563 -0.728953 0
    outer loop
      vertex -27.5497 28.0821 21
      vertex -27.9159 27.7382 2
      vertex -27.5497 28.0821 2
    endloop
  endfacet
  facet normal 0.684563 0.728953 -0
    outer loop
      vertex -27.5497 -28.0821 2
      vertex -27.9159 -27.7382 21
      vertex -27.5497 -28.0821 21
    endloop
  endfacet
  facet normal 0.684563 0.728953 0
    outer loop
      vertex -27.9159 -27.7382 21
      vertex -27.5497 -28.0821 2
      vertex -27.9159 -27.7382 2
    endloop
  endfacet
  facet normal -0.998032 -0.0627129 0
    outer loop
      vertex 29 25 2
      vertex 28.9685 25.5013 21
      vertex 28.9685 25.5013 2
    endloop
  endfacet
  facet normal -0.998032 -0.0627129 0
    outer loop
      vertex 28.9685 25.5013 21
      vertex 29 25 2
      vertex 29 25 21
    endloop
  endfacet
  facet normal 0.998032 -0.0627129 0
    outer loop
      vertex -29 25 21
      vertex -28.9685 25.5013 2
      vertex -28.9685 25.5013 21
    endloop
  endfacet
  facet normal 0.998032 -0.0627129 0
    outer loop
      vertex -28.9685 25.5013 2
      vertex -29 25 21
      vertex -29 25 2
    endloop
  endfacet
  facet normal -0.24862 -0.968601 0
    outer loop
      vertex 25.7495 28.9291 2
      vertex 26.2361 28.8042 21
      vertex 25.7495 28.9291 21
    endloop
  endfacet
  facet normal -0.24862 -0.968601 -0
    outer loop
      vertex 26.2361 28.8042 21
      vertex 25.7495 28.9291 2
      vertex 26.2361 28.8042 2
    endloop
  endfacet
  facet normal 0.125431 -0.992102 0
    outer loop
      vertex -25.7495 28.9291 2
      vertex -25.2512 28.9921 21
      vertex -25.7495 28.9291 21
    endloop
  endfacet
  facet normal 0.125431 -0.992102 0
    outer loop
      vertex -25.2512 28.9921 21
      vertex -25.7495 28.9291 2
      vertex -25.2512 28.9921 2
    endloop
  endfacet
  facet normal 0.368127 0.929775 -0
    outer loop
      vertex -26.2361 -28.8042 2
      vertex -26.7031 -28.6193 21
      vertex -26.2361 -28.8042 21
    endloop
  endfacet
  facet normal 0.368127 0.929775 0
    outer loop
      vertex -26.7031 -28.6193 21
      vertex -26.2361 -28.8042 2
      vertex -26.7031 -28.6193 2
    endloop
  endfacet
  facet normal 0.24862 0.968601 -0
    outer loop
      vertex -25.7495 -28.9291 2
      vertex -26.2361 -28.8042 21
      vertex -25.7495 -28.9291 21
    endloop
  endfacet
  facet normal 0.24862 0.968601 0
    outer loop
      vertex -26.2361 -28.8042 21
      vertex -25.7495 -28.9291 2
      vertex -26.2361 -28.8042 2
    endloop
  endfacet
  facet normal -1 0 0
    outer loop
      vertex 29 -25 2
      vertex 29 25 21
      vertex 29 25 2
    endloop
  endfacet
  facet normal -1 -0 0
    outer loop
      vertex 29 25 21
      vertex 29 -25 2
      vertex 29 -25 21
    endloop
  endfacet
  facet normal -0.951065 -0.308992 0
    outer loop
      vertex 28.8743 25.9948 2
      vertex 28.7191 26.4725 21
      vertex 28.7191 26.4725 2
    endloop
  endfacet
  facet normal -0.951065 -0.308992 0
    outer loop
      vertex 28.7191 26.4725 21
      vertex 28.8743 25.9948 2
      vertex 28.8743 25.9948 21
    endloop
  endfacet
  facet normal -0.481751 0.876308 0
    outer loop
      vertex 27.1433 -28.3773 2
      vertex 26.7031 -28.6193 21
      vertex 27.1433 -28.3773 21
    endloop
  endfacet
  facet normal -0.481751 0.876308 0
    outer loop
      vertex 26.7031 -28.6193 21
      vertex 27.1433 -28.3773 2
      vertex 26.7031 -28.6193 2
    endloop
  endfacet
  facet normal -0.684563 0.728953 0
    outer loop
      vertex 27.9159 -27.7382 2
      vertex 27.5497 -28.0821 21
      vertex 27.9159 -27.7382 21
    endloop
  endfacet
  facet normal -0.684563 0.728953 0
    outer loop
      vertex 27.5497 -28.0821 21
      vertex 27.9159 -27.7382 2
      vertex 27.5497 -28.0821 2
    endloop
  endfacet
  facet normal 0 0 1
    outer loop
      vertex 25.2512 28.9921 2
      vertex 29 25 2
      vertex 28.9685 25.5013 2
    endloop
  endfacet
  facet normal 0 0 1
    outer loop
      vertex -29 25 2
      vertex 29 25 2
      vertex 25.2512 28.9921 2
    endloop
  endfacet
  facet normal 0 0 1
    outer loop
      vertex 25.2512 28.9921 2
      vertex 28.9685 25.5013 2
      vertex 28.8743 25.9948 2
    endloop
  endfacet
  facet normal 0 0 1
    outer loop
      vertex 29 25 2
      vertex -29 25 2
      vertex 29 -25 2
    endloop
  endfacet
  facet normal 0 0 1
    outer loop
      vertex 25.2512 28.9921 2
      vertex 28.8743 25.9948 2
      vertex 28.7191 26.4725 2
    endloop
  endfacet
  facet normal 0 0 1
    outer loop
      vertex 29 -25 2
      vertex 25.2512 -28.9921 2
      vertex 28.9685 -25.5013 2
    endloop
  endfacet
  facet normal 0 0 1
    outer loop
      vertex 25.2512 28.9921 2
      vertex 28.7191 26.4725 2
      vertex 28.5052 26.927 2
    endloop
  endfacet
  facet normal 0 0 1
    outer loop
      vertex 28.9685 -25.5013 2
      vertex 25.2512 -28.9921 2
      vertex 28.8743 -25.9948 2
    endloop
  endfacet
  facet normal 0 0 1
    outer loop
      vertex 25.2512 28.9921 2
      vertex 28.5052 26.927 2
      vertex 28.2361 27.3511 2
    endloop
  endfacet
  facet normal 0 0 1
    outer loop
      vertex 28.8743 -25.9948 2
      vertex 25.2512 -28.9921 2
      vertex 28.7191 -26.4725 2
    endloop
  endfacet
  facet normal 0 0 1
    outer loop
      vertex 25.2512 28.9921 2
      vertex 28.2361 27.3511 2
      vertex 27.9159 27.7382 2
    endloop
  endfacet
  facet normal 0 0 1
    outer loop
      vertex 28.7191 -26.4725 2
      vertex 25.2512 -28.9921 2
      vertex 28.5052 -26.927 2
    endloop
  endfacet
  facet normal 0 0 1
    outer loop
      vertex 25.2512 28.9921 2
      vertex 27.9159 27.7382 2
      vertex 27.5497 28.0821 2
    endloop
  endfacet
  facet normal 0 0 1
    outer loop
      vertex 28.5052 -26.927 2
      vertex 25.2512 -28.9921 2
      vertex 28.2361 -27.3511 2
    endloop
  endfacet
  facet normal 0 0 1
    outer loop
      vertex 25.2512 28.9921 2
      vertex 27.5497 28.0821 2
      vertex 27.1433 28.3773 2
    endloop
  endfacet
  facet normal 0 0 1
    outer loop
      vertex 28.2361 -27.3511 2
      vertex 25.2512 -28.9921 2
      vertex 27.9159 -27.7382 2
    endloop
  endfacet
  facet normal 0 0 1
    outer loop
      vertex 25.2512 28.9921 2
      vertex 27.1433 28.3773 2
      vertex 26.7031 28.6193 2
    endloop
  endfacet
  facet normal 0 0 1
    outer loop
      vertex 27.9159 -27.7382 2
      vertex 25.2512 -28.9921 2
      vertex 27.5497 -28.0821 2
    endloop
  endfacet
  facet normal 0 0 1
    outer loop
      vertex 25.2512 28.9921 2
      vertex 26.7031 28.6193 2
      vertex 26.2361 28.8042 2
    endloop
  endfacet
  facet normal 0 0 1
    outer loop
      vertex 27.5497 -28.0821 2
      vertex 25.2512 -28.9921 2
      vertex 27.1433 -28.3773 2
    endloop
  endfacet
  facet normal 0 0 1
    outer loop
      vertex 25.2512 28.9921 2
      vertex 26.2361 28.8042 2
      vertex 25.7495 28.9291 2
    endloop
  endfacet
  facet normal 0 0 1
    outer loop
      vertex 27.1433 -28.3773 2
      vertex 25.2512 -28.9921 2
      vertex 26.7031 -28.6193 2
    endloop
  endfacet
  facet normal 0 0 1
    outer loop
      vertex 26.7031 -28.6193 2
      vertex 25.2512 -28.9921 2
      vertex 26.2361 -28.8042 2
    endloop
  endfacet
  facet normal 0 0 1
    outer loop
      vertex 26.2361 -28.8042 2
      vertex 25.2512 -28.9921 2
      vertex 25.7495 -28.9291 2
    endloop
  endfacet
  facet normal 0 0 1
    outer loop
      vertex -29 25 2
      vertex 25.2512 28.9921 2
      vertex -25.2512 28.9921 2
    endloop
  endfacet
  facet normal 0 0 1
    outer loop
      vertex -29 -25 2
      vertex 29 -25 2
      vertex -29 25 2
    endloop
  endfacet
  facet normal 0 0 1
    outer loop
      vertex -29 25 2
      vertex -25.2512 28.9921 2
      vertex -25.7495 28.9291 2
    endloop
  endfacet
  facet normal 0 0 1
    outer loop
      vertex 29 -25 2
      vertex -29 -25 2
      vertex 25.2512 -28.9921 2
    endloop
  endfacet
  facet normal 0 0 1
    outer loop
      vertex -29 25 2
      vertex -25.7495 28.9291 2
      vertex -26.2361 28.8042 2
    endloop
  endfacet
  facet normal 0 0 1
    outer loop
      vertex 25.2512 -28.9921 2
      vertex -29 -25 2
      vertex -25.2512 -28.9921 2
    endloop
  endfacet
  facet normal 0 0 1
    outer loop
      vertex -29 25 2
      vertex -26.2361 28.8042 2
      vertex -26.7031 28.6193 2
    endloop
  endfacet
  facet normal 0 0 1
    outer loop
      vertex -25.2512 -28.9921 2
      vertex -29 -25 2
      vertex -25.7495 -28.9291 2
    endloop
  endfacet
  facet normal 0 0 1
    outer loop
      vertex -29 25 2
      vertex -26.7031 28.6193 2
      vertex -27.1433 28.3773 2
    endloop
  endfacet
  facet normal 0 0 1
    outer loop
      vertex -25.7495 -28.9291 2
      vertex -29 -25 2
      vertex -26.2361 -28.8042 2
    endloop
  endfacet
  facet normal 0 0 1
    outer loop
      vertex -29 25 2
      vertex -27.1433 28.3773 2
      vertex -27.5497 28.0821 2
    endloop
  endfacet
  facet normal 0 0 1
    outer loop
      vertex -26.2361 -28.8042 2
      vertex -29 -25 2
      vertex -26.7031 -28.6193 2
    endloop
  endfacet
  facet normal 0 0 1
    outer loop
      vertex -29 25 2
      vertex -27.5497 28.0821 2
      vertex -27.9159 27.7382 2
    endloop
  endfacet
  facet normal 0 0 1
    outer loop
      vertex -26.7031 -28.6193 2
      vertex -29 -25 2
      vertex -27.1433 -28.3773 2
    endloop
  endfacet
  facet normal 0 0 1
    outer loop
      vertex -29 25 2
      vertex -27.9159 27.7382 2
      vertex -28.2361 27.3511 2
    endloop
  endfacet
  facet normal 0 0 1
    outer loop
      vertex -27.1433 -28.3773 2
      vertex -29 -25 2
      vertex -27.5497 -28.0821 2
    endloop
  endfacet
  facet normal 0 0 1
    outer loop
      vertex -29 25 2
      vertex -28.2361 27.3511 2
      vertex -28.5052 26.927 2
    endloop
  endfacet
  facet normal 0 0 1
    outer loop
      vertex -27.5497 -28.0821 2
      vertex -29 -25 2
      vertex -27.9159 -27.7382 2
    endloop
  endfacet
  facet normal 0 0 1
    outer loop
      vertex -29 25 2
      vertex -28.5052 26.927 2
      vertex -28.7191 26.4725 2
    endloop
  endfacet
  facet normal 0 0 1
    outer loop
      vertex -27.9159 -27.7382 2
      vertex -29 -25 2
      vertex -28.2361 -27.3511 2
    endloop
  endfacet
  facet normal 0 0 1
    outer loop
      vertex -29 25 2
      vertex -28.7191 26.4725 2
      vertex -28.8743 25.9948 2
    endloop
  endfacet
  facet normal 0 0 1
    outer loop
      vertex -28.2361 -27.3511 2
      vertex -29 -25 2
      vertex -28.5052 -26.927 2
    endloop
  endfacet
  facet normal 0 0 1
    outer loop
      vertex -29 25 2
      vertex -28.8743 25.9948 2
      vertex -28.9685 25.5013 2
    endloop
  endfacet
  facet normal 0 0 1
    outer loop
      vertex -28.5052 -26.927 2
      vertex -29 -25 2
      vertex -28.7191 -26.4725 2
    endloop
  endfacet
  facet normal 0 0 1
    outer loop
      vertex -28.7191 -26.4725 2
      vertex -29 -25 2
      vertex -28.8743 -25.9948 2
    endloop
  endfacet
  facet normal 0 0 1
    outer loop
      vertex -28.8743 -25.9948 2
      vertex -29 -25 2
      vertex -28.9685 -25.5013 2
    endloop
  endfacet
  facet normal 0.982265 -0.187496 0
    outer loop
      vertex -28.9685 25.5013 21
      vertex -28.8743 25.9948 2
      vertex -28.8743 25.9948 21
    endloop
  endfacet
  facet normal 0.982265 -0.187496 0
    outer loop
      vertex -28.8743 25.9948 2
      vertex -28.9685 25.5013 21
      vertex -28.9685 25.5013 2
    endloop
  endfacet
  facet normal 0.951065 -0.308992 0
    outer loop
      vertex -28.8743 25.9948 21
      vertex -28.7191 26.4725 2
      vertex -28.7191 26.4725 21
    endloop
  endfacet
  facet normal 0.951065 -0.308992 0
    outer loop
      vertex -28.7191 26.4725 2
      vertex -28.8743 25.9948 21
      vertex -28.8743 25.9948 2
    endloop
  endfacet
  facet normal 0.481751 -0.876308 0
    outer loop
      vertex -27.1433 28.3773 2
      vertex -26.7031 28.6193 21
      vertex -27.1433 28.3773 21
    endloop
  endfacet
  facet normal 0.481751 -0.876308 0
    outer loop
      vertex -26.7031 28.6193 21
      vertex -27.1433 28.3773 2
      vertex -26.7031 28.6193 2
    endloop
  endfacet
  facet normal -0.125431 -0.992102 0
    outer loop
      vertex 25.2512 28.9921 2
      vertex 25.7495 28.9291 21
      vertex 25.2512 28.9921 21
    endloop
  endfacet
  facet normal -0.125431 -0.992102 -0
    outer loop
      vertex 25.7495 28.9291 21
      vertex 25.2512 28.9921 2
      vertex 25.7495 28.9291 2
    endloop
  endfacet
  facet normal 0.770549 -0.63738 0
    outer loop
      vertex -28.2361 27.3511 21
      vertex -27.9159 27.7382 2
      vertex -27.9159 27.7382 21
    endloop
  endfacet
  facet normal 0.770549 -0.63738 0
    outer loop
      vertex -27.9159 27.7382 2
      vertex -28.2361 27.3511 21
      vertex -28.2361 27.3511 2
    endloop
  endfacet
  facet normal 0.481751 0.876308 -0
    outer loop
      vertex -26.7031 -28.6193 2
      vertex -27.1433 -28.3773 21
      vertex -26.7031 -28.6193 21
    endloop
  endfacet
  facet normal 0.481751 0.876308 0
    outer loop
      vertex -27.1433 -28.3773 21
      vertex -26.7031 -28.6193 2
      vertex -27.1433 -28.3773 2
    endloop
  endfacet
  facet normal -0.951065 0.308992 0
    outer loop
      vertex 28.7191 -26.4725 2
      vertex 28.8743 -25.9948 21
      vertex 28.8743 -25.9948 2
    endloop
  endfacet
  facet normal -0.951065 0.308992 0
    outer loop
      vertex 28.8743 -25.9948 21
      vertex 28.7191 -26.4725 2
      vertex 28.7191 -26.4725 21
    endloop
  endfacet
  facet normal -0.982265 0.187496 0
    outer loop
      vertex 28.8743 -25.9948 2
      vertex 28.9685 -25.5013 21
      vertex 28.9685 -25.5013 2
    endloop
  endfacet
  facet normal -0.982265 0.187496 0
    outer loop
      vertex 28.9685 -25.5013 21
      vertex 28.8743 -25.9948 2
      vertex 28.8743 -25.9948 21
    endloop
  endfacet
  facet normal -0.770549 0.63738 0
    outer loop
      vertex 27.9159 -27.7382 2
      vertex 28.2361 -27.3511 21
      vertex 28.2361 -27.3511 2
    endloop
  endfacet
  facet normal -0.770549 0.63738 0
    outer loop
      vertex 28.2361 -27.3511 21
      vertex 27.9159 -27.7382 2
      vertex 27.9159 -27.7382 21
    endloop
  endfacet
  facet normal -0.481751 -0.876308 0
    outer loop
      vertex 26.7031 28.6193 2
      vertex 27.1433 28.3773 21
      vertex 26.7031 28.6193 21
    endloop
  endfacet
  facet normal -0.481751 -0.876308 -0
    outer loop
      vertex 27.1433 28.3773 21
      vertex 26.7031 28.6193 2
      vertex 27.1433 28.3773 2
    endloop
  endfacet
  facet normal -0.904805 -0.425826 0
    outer loop
      vertex 28.7191 26.4725 2
      vertex 28.5052 26.927 21
      vertex 28.5052 26.927 2
    endloop
  endfacet
  facet normal -0.904805 -0.425826 0
    outer loop
      vertex 28.5052 26.927 21
      vertex 28.7191 26.4725 2
      vertex 28.7191 26.4725 21
    endloop
  endfacet
  facet normal -0.844366 -0.535767 0
    outer loop
      vertex 28.5052 26.927 2
      vertex 28.2361 27.3511 21
      vertex 28.2361 27.3511 2
    endloop
  endfacet
  facet normal -0.844366 -0.535767 0
    outer loop
      vertex 28.2361 27.3511 21
      vertex 28.5052 26.927 2
      vertex 28.5052 26.927 21
    endloop
  endfacet
  facet normal -0.982265 -0.187496 0
    outer loop
      vertex 28.9685 25.5013 2
      vertex 28.8743 25.9948 21
      vertex 28.8743 25.9948 2
    endloop
  endfacet
  facet normal -0.982265 -0.187496 0
    outer loop
      vertex 28.8743 25.9948 21
      vertex 28.9685 25.5013 2
      vertex 28.9685 25.5013 21
    endloop
  endfacet
  facet normal -0.368127 0.929775 0
    outer loop
      vertex 26.7031 -28.6193 2
      vertex 26.2361 -28.8042 21
      vertex 26.7031 -28.6193 21
    endloop
  endfacet
  facet normal -0.368127 0.929775 0
    outer loop
      vertex 26.2361 -28.8042 21
      vertex 26.7031 -28.6193 2
      vertex 26.2361 -28.8042 2
    endloop
  endfacet
  facet normal -0.587698 0.80908 0
    outer loop
      vertex 27.5497 -28.0821 2
      vertex 27.1433 -28.3773 21
      vertex 27.5497 -28.0821 21
    endloop
  endfacet
  facet normal -0.587698 0.80908 0
    outer loop
      vertex 27.1433 -28.3773 21
      vertex 27.5497 -28.0821 2
      vertex 27.1433 -28.3773 2
    endloop
  endfacet
  facet normal 0.904805 0.425826 0
    outer loop
      vertex -28.5052 -26.927 21
      vertex -28.7191 -26.4725 2
      vertex -28.7191 -26.4725 21
    endloop
  endfacet
  facet normal 0.904805 0.425826 0
    outer loop
      vertex -28.7191 -26.4725 2
      vertex -28.5052 -26.927 21
      vertex -28.5052 -26.927 2
    endloop
  endfacet
  facet normal 0.770549 0.63738 0
    outer loop
      vertex -27.9159 -27.7382 21
      vertex -28.2361 -27.3511 2
      vertex -28.2361 -27.3511 21
    endloop
  endfacet
  facet normal 0.770549 0.63738 0
    outer loop
      vertex -28.2361 -27.3511 2
      vertex -27.9159 -27.7382 21
      vertex -27.9159 -27.7382 2
    endloop
  endfacet
  facet normal 0.951065 0.308992 0
    outer loop
      vertex -28.7191 -26.4725 21
      vertex -28.8743 -25.9948 2
      vertex -28.8743 -25.9948 21
    endloop
  endfacet
  facet normal 0.951065 0.308992 0
    outer loop
      vertex -28.8743 -25.9948 2
      vertex -28.7191 -26.4725 21
      vertex -28.7191 -26.4725 2
    endloop
  endfacet
  facet normal 0.998032 0.0627129 0
    outer loop
      vertex -28.9685 -25.5013 21
      vertex -29 -25 2
      vertex -29 -25 21
    endloop
  endfacet
  facet normal 0.998032 0.0627129 0
    outer loop
      vertex -29 -25 2
      vertex -28.9685 -25.5013 21
      vertex -28.9685 -25.5013 2
    endloop
  endfacet
  facet normal 0.904805 -0.425826 0
    outer loop
      vertex -28.7191 26.4725 21
      vertex -28.5052 26.927 2
      vertex -28.5052 26.927 21
    endloop
  endfacet
  facet normal 0.904805 -0.425826 0
    outer loop
      vertex -28.5052 26.927 2
      vertex -28.7191 26.4725 21
      vertex -28.7191 26.4725 2
    endloop
  endfacet
  facet normal 0.368127 -0.929775 0
    outer loop
      vertex -26.7031 28.6193 2
      vertex -26.2361 28.8042 21
      vertex -26.7031 28.6193 21
    endloop
  endfacet
  facet normal 0.368127 -0.929775 0
    outer loop
      vertex -26.2361 28.8042 21
      vertex -26.7031 28.6193 2
      vertex -26.2361 28.8042 2
    endloop
  endfacet
  facet normal 0.587698 0.80908 -0
    outer loop
      vertex -27.1433 -28.3773 2
      vertex -27.5497 -28.0821 21
      vertex -27.1433 -28.3773 21
    endloop
  endfacet
  facet normal 0.587698 0.80908 0
    outer loop
      vertex -27.5497 -28.0821 21
      vertex -27.1433 -28.3773 2
      vertex -27.5497 -28.0821 2
    endloop
  endfacet
  facet normal -0.904805 0.425826 0
    outer loop
      vertex 28.5052 -26.927 2
      vertex 28.7191 -26.4725 21
      vertex 28.7191 -26.4725 2
    endloop
  endfacet
  facet normal -0.904805 0.425826 0
    outer loop
      vertex 28.7191 -26.4725 21
      vertex 28.5052 -26.927 2
      vertex 28.5052 -26.927 21
    endloop
  endfacet
  facet normal -0.587698 -0.80908 0
    outer loop
      vertex 27.1433 28.3773 2
      vertex 27.5497 28.0821 21
      vertex 27.1433 28.3773 21
    endloop
  endfacet
  facet normal -0.587698 -0.80908 -0
    outer loop
      vertex 27.5497 28.0821 21
      vertex 27.1433 28.3773 2
      vertex 27.5497 28.0821 2
    endloop
  endfacet
  facet normal -0.684563 -0.728953 0
    outer loop
      vertex 27.5497 28.0821 2
      vertex 27.9159 27.7382 21
      vertex 27.5497 28.0821 21
    endloop
  endfacet
  facet normal -0.684563 -0.728953 -0
    outer loop
      vertex 27.9159 27.7382 21
      vertex 27.5497 28.0821 2
      vertex 27.9159 27.7382 2
    endloop
  endfacet
  facet normal -0.24862 0.968601 0
    outer loop
      vertex 26.2361 -28.8042 2
      vertex 25.7495 -28.9291 21
      vertex 26.2361 -28.8042 21
    endloop
  endfacet
  facet normal -0.24862 0.968601 0
    outer loop
      vertex 25.7495 -28.9291 21
      vertex 26.2361 -28.8042 2
      vertex 25.7495 -28.9291 2
    endloop
  endfacet
  facet normal -0.125431 0.992102 0
    outer loop
      vertex 25.7495 -28.9291 2
      vertex 25.2512 -28.9921 21
      vertex 25.7495 -28.9291 21
    endloop
  endfacet
  facet normal -0.125431 0.992102 0
    outer loop
      vertex 25.2512 -28.9921 21
      vertex 25.7495 -28.9291 2
      vertex 25.2512 -28.9921 2
    endloop
  endfacet
  facet normal 0.844366 0.535767 0
    outer loop
      vertex -28.2361 -27.3511 21
      vertex -28.5052 -26.927 2
      vertex -28.5052 -26.927 21
    endloop
  endfacet
  facet normal 0.844366 0.535767 0
    outer loop
      vertex -28.5052 -26.927 2
      vertex -28.2361 -27.3511 21
      vertex -28.2361 -27.3511 2
    endloop
  endfacet
  facet normal 0.982265 0.187496 0
    outer loop
      vertex -28.8743 -25.9948 21
      vertex -28.9685 -25.5013 2
      vertex -28.9685 -25.5013 21
    endloop
  endfacet
  facet normal 0.982265 0.187496 0
    outer loop
      vertex -28.9685 -25.5013 2
      vertex -28.8743 -25.9948 21
      vertex -28.8743 -25.9948 2
    endloop
  endfacet
  facet normal 0.844366 -0.535767 0
    outer loop
      vertex -28.5052 26.927 21
      vertex -28.2361 27.3511 2
      vertex -28.2361 27.3511 21
    endloop
  endfacet
  facet normal 0.844366 -0.535767 0
    outer loop
      vertex -28.2361 27.3511 2
      vertex -28.5052 26.927 21
      vertex -28.5052 26.927 2
    endloop
  endfacet
  facet normal 0.24862 -0.968601 0
    outer loop
      vertex -26.2361 28.8042 2
      vertex -25.7495 28.9291 21
      vertex -26.2361 28.8042 21
    endloop
  endfacet
  facet normal 0.24862 -0.968601 0
    outer loop
      vertex -25.7495 28.9291 21
      vertex -26.2361 28.8042 2
      vertex -25.7495 28.9291 2
    endloop
  endfacet
  facet normal -0.844366 0.535767 0
    outer loop
      vertex 28.2361 -27.3511 2
      vertex 28.5052 -26.927 21
      vertex 28.5052 -26.927 2
    endloop
  endfacet
  facet normal -0.844366 0.535767 0
    outer loop
      vertex 28.5052 -26.927 21
      vertex 28.2361 -27.3511 2
      vertex 28.2361 -27.3511 21
    endloop
  endfacet
  facet normal 0.587698 -0.80908 0
    outer loop
      vertex -27.5497 28.0821 2
      vertex -27.1433 28.3773 21
      vertex -27.5497 28.0821 21
    endloop
  endfacet
  facet normal 0.587698 -0.80908 0
    outer loop
      vertex -27.1433 28.3773 21
      vertex -27.5497 28.0821 2
      vertex -27.1433 28.3773 2
    endloop
  endfacet
endsolid OpenSCAD_Model
