solid OpenSCAD_Model
  facet normal -0.99803 0.0627451 0
    outer loop
      vertex -90 85 0
      vertex -89.9606 85.6267 18
      vertex -89.9606 85.6267 0
    endloop
  endfacet
  facet normal -0.99803 0.0627451 0
    outer loop
      vertex -89.9606 85.6267 18
      vertex -90 85 0
      vertex -90 85 18
    endloop
  endfacet
  facet normal -1 0 0
    outer loop
      vertex -90 -85 0
      vertex -90 85 18
      vertex -90 85 0
    endloop
  endfacet
  facet normal -1 -0 0
    outer loop
      vertex -90 85 18
      vertex -90 -85 0
      vertex -90 -85 18
    endloop
  endfacet
  facet normal 0.99803 -0.0627451 0
    outer loop
      vertex 89.9606 -85.6267 18
      vertex 90 -85 0
      vertex 90 -85 18
    endloop
  endfacet
  facet normal 0.99803 -0.0627451 0
    outer loop
      vertex 90 -85 0
      vertex 89.9606 -85.6267 18
      vertex 89.9606 -85.6267 0
    endloop
  endfacet
  facet normal 1 -0 0
    outer loop
      vertex 90 -85 18
      vertex 90 85 0
      vertex 90 85 18
    endloop
  endfacet
  facet normal 1 0 0
    outer loop
      vertex 90 85 0
      vertex 90 -85 18
      vertex 90 -85 0
    endloop
  endfacet
  facet normal 0 0 1
    outer loop
      vertex 89 85 18
      vertex 90 85 18
      vertex 89.9606 85.6267 18
    endloop
  endfacet
  facet normal 0 0 1
    outer loop
      vertex 90 85 18
      vertex 89 85 18
      vertex 90 -85 18
    endloop
  endfacet
  facet normal 0 0 1
    outer loop
      vertex 88.9685 85.5013 18
      vertex 89.9606 85.6267 18
      vertex 89.8429 86.2434 18
    endloop
  endfacet
  facet normal 0 0 1
    outer loop
      vertex 89 -85 18
      vertex 90 -85 18
      vertex 89 85 18
    endloop
  endfacet
  facet normal 0 0 1
    outer loop
      vertex 88.8743 85.9948 18
      vertex 89.8429 86.2434 18
      vertex 89.6489 86.8406 18
    endloop
  endfacet
  facet normal 0 0 1
    outer loop
      vertex 90 -85 18
      vertex 89 -85 18
      vertex 89.9606 -85.6267 18
    endloop
  endfacet
  facet normal 0 0 1
    outer loop
      vertex 88.7191 86.4725 18
      vertex 89.6489 86.8406 18
      vertex 89.3815 87.4088 18
    endloop
  endfacet
  facet normal -0 0 1
    outer loop
      vertex 88.9685 -85.5013 18
      vertex 89.9606 -85.6267 18
      vertex 89 -85 18
    endloop
  endfacet
  facet normal 0 0 1
    outer loop
      vertex 88.5052 86.927 18
      vertex 89.3815 87.4088 18
      vertex 89.0451 87.9389 18
    endloop
  endfacet
  facet normal 0 0 1
    outer loop
      vertex 89.9606 -85.6267 18
      vertex 88.9685 -85.5013 18
      vertex 89.8429 -86.2434 18
    endloop
  endfacet
  facet normal -0 0 1
    outer loop
      vertex 88.8743 -85.9948 18
      vertex 89.8429 -86.2434 18
      vertex 88.9685 -85.5013 18
    endloop
  endfacet
  facet normal 0 0 1
    outer loop
      vertex 89.9606 85.6267 18
      vertex 88.9685 85.5013 18
      vertex 89 85 18
    endloop
  endfacet
  facet normal 0 0 1
    outer loop
      vertex 89.8429 86.2434 18
      vertex 88.8743 85.9948 18
      vertex 88.9685 85.5013 18
    endloop
  endfacet
  facet normal 0 0 1
    outer loop
      vertex 89.6489 86.8406 18
      vertex 88.7191 86.4725 18
      vertex 88.8743 85.9948 18
    endloop
  endfacet
  facet normal 0 0 1
    outer loop
      vertex 88.2361 87.3511 18
      vertex 89.0451 87.9389 18
      vertex 88.6448 88.4227 18
    endloop
  endfacet
  facet normal 0 0 1
    outer loop
      vertex 89.3815 87.4088 18
      vertex 88.5052 86.927 18
      vertex 88.7191 86.4725 18
    endloop
  endfacet
  facet normal 0 0 1
    outer loop
      vertex 89.0451 87.9389 18
      vertex 88.2361 87.3511 18
      vertex 88.5052 86.927 18
    endloop
  endfacet
  facet normal 0 0 1
    outer loop
      vertex 87.9159 87.7382 18
      vertex 88.6448 88.4227 18
      vertex 88.1871 88.8526 18
    endloop
  endfacet
  facet normal 0 0 1
    outer loop
      vertex 88.6448 88.4227 18
      vertex 87.9159 87.7382 18
      vertex 88.2361 87.3511 18
    endloop
  endfacet
  facet normal 0 0 1
    outer loop
      vertex 87.5497 88.0821 18
      vertex 88.1871 88.8526 18
      vertex 87.6791 89.2216 18
    endloop
  endfacet
  facet normal 0 0 1
    outer loop
      vertex 88.1871 88.8526 18
      vertex 87.5497 88.0821 18
      vertex 87.9159 87.7382 18
    endloop
  endfacet
  facet normal 0 0 1
    outer loop
      vertex 87.6791 89.2216 18
      vertex 87.1433 88.3773 18
      vertex 87.5497 88.0821 18
    endloop
  endfacet
  facet normal 0 0 1
    outer loop
      vertex 87.1289 89.5241 18
      vertex 87.1433 88.3773 18
      vertex 87.6791 89.2216 18
    endloop
  endfacet
  facet normal 0 0 1
    outer loop
      vertex 87.1289 89.5241 18
      vertex 86.7031 88.6193 18
      vertex 87.1433 88.3773 18
    endloop
  endfacet
  facet normal 0 0 1
    outer loop
      vertex 86.5451 89.7553 18
      vertex 86.7031 88.6193 18
      vertex 87.1289 89.5241 18
    endloop
  endfacet
  facet normal 0 0 1
    outer loop
      vertex 86.5451 89.7553 18
      vertex 86.2361 88.8042 18
      vertex 86.7031 88.6193 18
    endloop
  endfacet
  facet normal 0 0 1
    outer loop
      vertex 85.9369 89.9114 18
      vertex 86.2361 88.8042 18
      vertex 86.5451 89.7553 18
    endloop
  endfacet
  facet normal 0 0 1
    outer loop
      vertex 85.9369 89.9114 18
      vertex 85.7495 88.9291 18
      vertex 86.2361 88.8042 18
    endloop
  endfacet
  facet normal 0 0 1
    outer loop
      vertex 85.3139 89.9901 18
      vertex 85.7495 88.9291 18
      vertex 85.9369 89.9114 18
    endloop
  endfacet
  facet normal 0 0 1
    outer loop
      vertex 85.3139 89.9901 18
      vertex 85.2512 88.9921 18
      vertex 85.7495 88.9291 18
    endloop
  endfacet
  facet normal 0 0 1
    outer loop
      vertex 85.3139 89.9901 18
      vertex -85.2512 88.9921 18
      vertex 85.2512 88.9921 18
    endloop
  endfacet
  facet normal -0 0 1
    outer loop
      vertex -85.3139 89.9901 18
      vertex -85.2512 88.9921 18
      vertex 85.3139 89.9901 18
    endloop
  endfacet
  facet normal 0 0 1
    outer loop
      vertex -85.3139 89.9901 18
      vertex -85.7495 88.9291 18
      vertex -85.2512 88.9921 18
    endloop
  endfacet
  facet normal -0 0 1
    outer loop
      vertex -85.9369 89.9114 18
      vertex -85.7495 88.9291 18
      vertex -85.3139 89.9901 18
    endloop
  endfacet
  facet normal 0 0 1
    outer loop
      vertex -85.9369 89.9114 18
      vertex -86.2361 88.8042 18
      vertex -85.7495 88.9291 18
    endloop
  endfacet
  facet normal -0 0 1
    outer loop
      vertex -86.5451 89.7553 18
      vertex -86.2361 88.8042 18
      vertex -85.9369 89.9114 18
    endloop
  endfacet
  facet normal 0 0 1
    outer loop
      vertex -86.5451 89.7553 18
      vertex -86.7031 88.6193 18
      vertex -86.2361 88.8042 18
    endloop
  endfacet
  facet normal -0 0 1
    outer loop
      vertex -87.1289 89.5241 18
      vertex -86.7031 88.6193 18
      vertex -86.5451 89.7553 18
    endloop
  endfacet
  facet normal 0 0 1
    outer loop
      vertex -87.1289 89.5241 18
      vertex -87.1433 88.3773 18
      vertex -86.7031 88.6193 18
    endloop
  endfacet
  facet normal -0 0 1
    outer loop
      vertex -87.6791 89.2216 18
      vertex -87.1433 88.3773 18
      vertex -87.1289 89.5241 18
    endloop
  endfacet
  facet normal 0 0 1
    outer loop
      vertex -87.1433 88.3773 18
      vertex -87.6791 89.2216 18
      vertex -87.5497 88.0821 18
    endloop
  endfacet
  facet normal -0 0 1
    outer loop
      vertex -88.1871 88.8526 18
      vertex -87.5497 88.0821 18
      vertex -87.6791 89.2216 18
    endloop
  endfacet
  facet normal 0 0 1
    outer loop
      vertex -87.5497 88.0821 18
      vertex -88.1871 88.8526 18
      vertex -87.9159 87.7382 18
    endloop
  endfacet
  facet normal -0 0 1
    outer loop
      vertex -88.6448 88.4227 18
      vertex -87.9159 87.7382 18
      vertex -88.1871 88.8526 18
    endloop
  endfacet
  facet normal 0 0 1
    outer loop
      vertex -87.9159 87.7382 18
      vertex -88.6448 88.4227 18
      vertex -88.2361 87.3511 18
    endloop
  endfacet
  facet normal -0 0 1
    outer loop
      vertex -89.0451 87.9389 18
      vertex -88.2361 87.3511 18
      vertex -88.6448 88.4227 18
    endloop
  endfacet
  facet normal 0 0 1
    outer loop
      vertex -88.2361 87.3511 18
      vertex -89.0451 87.9389 18
      vertex -88.5052 86.927 18
    endloop
  endfacet
  facet normal -0 0 1
    outer loop
      vertex -89.3815 87.4088 18
      vertex -88.5052 86.927 18
      vertex -89.0451 87.9389 18
    endloop
  endfacet
  facet normal 0 0 1
    outer loop
      vertex -88.5052 86.927 18
      vertex -89.3815 87.4088 18
      vertex -88.7191 86.4725 18
    endloop
  endfacet
  facet normal -0 0 1
    outer loop
      vertex -89.8429 86.2434 18
      vertex -88.8743 85.9948 18
      vertex -89.6489 86.8406 18
    endloop
  endfacet
  facet normal 0 0 1
    outer loop
      vertex -88.7191 86.4725 18
      vertex -89.6489 86.8406 18
      vertex -88.8743 85.9948 18
    endloop
  endfacet
  facet normal -0 0 1
    outer loop
      vertex -89.6489 86.8406 18
      vertex -88.7191 86.4725 18
      vertex -89.3815 87.4088 18
    endloop
  endfacet
  facet normal 0 0 1
    outer loop
      vertex 89.8429 -86.2434 18
      vertex 88.8743 -85.9948 18
      vertex 89.6489 -86.8406 18
    endloop
  endfacet
  facet normal -0 0 1
    outer loop
      vertex 88.7191 -86.4725 18
      vertex 89.6489 -86.8406 18
      vertex 88.8743 -85.9948 18
    endloop
  endfacet
  facet normal 0 0 1
    outer loop
      vertex 89.6489 -86.8406 18
      vertex 88.7191 -86.4725 18
      vertex 89.3815 -87.4088 18
    endloop
  endfacet
  facet normal -0 0 1
    outer loop
      vertex 88.5052 -86.927 18
      vertex 89.3815 -87.4088 18
      vertex 88.7191 -86.4725 18
    endloop
  endfacet
  facet normal 0 0 1
    outer loop
      vertex 89.3815 -87.4088 18
      vertex 88.5052 -86.927 18
      vertex 89.0451 -87.9389 18
    endloop
  endfacet
  facet normal -0 0 1
    outer loop
      vertex 88.2361 -87.3511 18
      vertex 89.0451 -87.9389 18
      vertex 88.5052 -86.927 18
    endloop
  endfacet
  facet normal 0 0 1
    outer loop
      vertex 89.0451 -87.9389 18
      vertex 88.2361 -87.3511 18
      vertex 88.6448 -88.4227 18
    endloop
  endfacet
  facet normal -0 0 1
    outer loop
      vertex 87.9159 -87.7382 18
      vertex 88.6448 -88.4227 18
      vertex 88.2361 -87.3511 18
    endloop
  endfacet
  facet normal 0 0 1
    outer loop
      vertex 88.6448 -88.4227 18
      vertex 87.9159 -87.7382 18
      vertex 88.1871 -88.8526 18
    endloop
  endfacet
  facet normal -0 0 1
    outer loop
      vertex 87.5497 -88.0821 18
      vertex 88.1871 -88.8526 18
      vertex 87.9159 -87.7382 18
    endloop
  endfacet
  facet normal 0 0 1
    outer loop
      vertex 88.1871 -88.8526 18
      vertex 87.5497 -88.0821 18
      vertex 87.6791 -89.2216 18
    endloop
  endfacet
  facet normal -0 0 1
    outer loop
      vertex 87.1433 -88.3773 18
      vertex 87.6791 -89.2216 18
      vertex 87.5497 -88.0821 18
    endloop
  endfacet
  facet normal 0 0 1
    outer loop
      vertex 87.1433 -88.3773 18
      vertex 87.1289 -89.5241 18
      vertex 87.6791 -89.2216 18
    endloop
  endfacet
  facet normal -0 0 1
    outer loop
      vertex 86.7031 -88.6193 18
      vertex 87.1289 -89.5241 18
      vertex 87.1433 -88.3773 18
    endloop
  endfacet
  facet normal 0 0 1
    outer loop
      vertex 86.7031 -88.6193 18
      vertex 86.5451 -89.7553 18
      vertex 87.1289 -89.5241 18
    endloop
  endfacet
  facet normal -0 0 1
    outer loop
      vertex 86.2361 -88.8042 18
      vertex 86.5451 -89.7553 18
      vertex 86.7031 -88.6193 18
    endloop
  endfacet
  facet normal 0 0 1
    outer loop
      vertex 86.2361 -88.8042 18
      vertex 85.9369 -89.9114 18
      vertex 86.5451 -89.7553 18
    endloop
  endfacet
  facet normal -0 0 1
    outer loop
      vertex 85.7495 -88.9291 18
      vertex 85.9369 -89.9114 18
      vertex 86.2361 -88.8042 18
    endloop
  endfacet
  facet normal 0 0 1
    outer loop
      vertex 85.7495 -88.9291 18
      vertex 85.3139 -89.9901 18
      vertex 85.9369 -89.9114 18
    endloop
  endfacet
  facet normal -0 0 1
    outer loop
      vertex 85.2512 -88.9921 18
      vertex 85.3139 -89.9901 18
      vertex 85.7495 -88.9291 18
    endloop
  endfacet
  facet normal -0 0 1
    outer loop
      vertex -85.2512 -88.9921 18
      vertex 85.3139 -89.9901 18
      vertex 85.2512 -88.9921 18
    endloop
  endfacet
  facet normal 0 0 1
    outer loop
      vertex -85.2512 -88.9921 18
      vertex -85.3139 -89.9901 18
      vertex 85.3139 -89.9901 18
    endloop
  endfacet
  facet normal 0 0 1
    outer loop
      vertex -85.7495 -88.9291 18
      vertex -85.3139 -89.9901 18
      vertex -85.2512 -88.9921 18
    endloop
  endfacet
  facet normal 0 0 1
    outer loop
      vertex -85.7495 -88.9291 18
      vertex -85.9369 -89.9114 18
      vertex -85.3139 -89.9901 18
    endloop
  endfacet
  facet normal 0 0 1
    outer loop
      vertex -86.2361 -88.8042 18
      vertex -85.9369 -89.9114 18
      vertex -85.7495 -88.9291 18
    endloop
  endfacet
  facet normal 0 0 1
    outer loop
      vertex -86.2361 -88.8042 18
      vertex -86.5451 -89.7553 18
      vertex -85.9369 -89.9114 18
    endloop
  endfacet
  facet normal 0 0 1
    outer loop
      vertex -86.7031 -88.6193 18
      vertex -86.5451 -89.7553 18
      vertex -86.2361 -88.8042 18
    endloop
  endfacet
  facet normal 0 0 1
    outer loop
      vertex -86.7031 -88.6193 18
      vertex -87.1289 -89.5241 18
      vertex -86.5451 -89.7553 18
    endloop
  endfacet
  facet normal 0 0 1
    outer loop
      vertex -87.1433 -88.3773 18
      vertex -87.1289 -89.5241 18
      vertex -86.7031 -88.6193 18
    endloop
  endfacet
  facet normal 0 0 1
    outer loop
      vertex -87.6791 -89.2216 18
      vertex -87.1433 -88.3773 18
      vertex -87.5497 -88.0821 18
    endloop
  endfacet
  facet normal 0 0 1
    outer loop
      vertex -87.1433 -88.3773 18
      vertex -87.6791 -89.2216 18
      vertex -87.1289 -89.5241 18
    endloop
  endfacet
  facet normal 0 0 1
    outer loop
      vertex -88.1871 -88.8526 18
      vertex -87.5497 -88.0821 18
      vertex -87.9159 -87.7382 18
    endloop
  endfacet
  facet normal 0 0 1
    outer loop
      vertex -87.5497 -88.0821 18
      vertex -88.1871 -88.8526 18
      vertex -87.6791 -89.2216 18
    endloop
  endfacet
  facet normal 0 0 1
    outer loop
      vertex -88.6448 -88.4227 18
      vertex -87.9159 -87.7382 18
      vertex -88.2361 -87.3511 18
    endloop
  endfacet
  facet normal 0 0 1
    outer loop
      vertex -89.0451 -87.9389 18
      vertex -88.2361 -87.3511 18
      vertex -88.5052 -86.927 18
    endloop
  endfacet
  facet normal 0 0 1
    outer loop
      vertex -87.9159 -87.7382 18
      vertex -88.6448 -88.4227 18
      vertex -88.1871 -88.8526 18
    endloop
  endfacet
  facet normal 0 0 1
    outer loop
      vertex -89.3815 -87.4088 18
      vertex -88.5052 -86.927 18
      vertex -88.7191 -86.4725 18
    endloop
  endfacet
  facet normal 0 0 1
    outer loop
      vertex -89.6489 -86.8406 18
      vertex -88.7191 -86.4725 18
      vertex -88.8743 -85.9948 18
    endloop
  endfacet
  facet normal 0 0 1
    outer loop
      vertex -89.8429 -86.2434 18
      vertex -88.8743 -85.9948 18
      vertex -88.9685 -85.5013 18
    endloop
  endfacet
  facet normal 0 0 1
    outer loop
      vertex -88.2361 -87.3511 18
      vertex -89.0451 -87.9389 18
      vertex -88.6448 -88.4227 18
    endloop
  endfacet
  facet normal 0 0 1
    outer loop
      vertex -89.9606 -85.6267 18
      vertex -88.9685 -85.5013 18
      vertex -89 -85 18
    endloop
  endfacet
  facet normal 0 0 1
    outer loop
      vertex -89 85 18
      vertex -90 85 18
      vertex -89 -85 18
    endloop
  endfacet
  facet normal 0 0 1
    outer loop
      vertex -88.8743 85.9948 18
      vertex -89.8429 86.2434 18
      vertex -88.9685 85.5013 18
    endloop
  endfacet
  facet normal 0 0 1
    outer loop
      vertex -90 -85 18
      vertex -89 -85 18
      vertex -90 85 18
    endloop
  endfacet
  facet normal -0 0 1
    outer loop
      vertex -89.9606 85.6267 18
      vertex -88.9685 85.5013 18
      vertex -89.8429 86.2434 18
    endloop
  endfacet
  facet normal 0 -0 1
    outer loop
      vertex -89.9606 -85.6267 18
      vertex -89 -85 18
      vertex -90 -85 18
    endloop
  endfacet
  facet normal 0 0 1
    outer loop
      vertex -88.9685 85.5013 18
      vertex -89.9606 85.6267 18
      vertex -89 85 18
    endloop
  endfacet
  facet normal 0 0 1
    outer loop
      vertex -88.5052 -86.927 18
      vertex -89.3815 -87.4088 18
      vertex -89.0451 -87.9389 18
    endloop
  endfacet
  facet normal 0 0 1
    outer loop
      vertex -89 85 18
      vertex -89.9606 85.6267 18
      vertex -90 85 18
    endloop
  endfacet
  facet normal 0 0 1
    outer loop
      vertex -88.7191 -86.4725 18
      vertex -89.6489 -86.8406 18
      vertex -89.3815 -87.4088 18
    endloop
  endfacet
  facet normal 0 0 1
    outer loop
      vertex -88.8743 -85.9948 18
      vertex -89.8429 -86.2434 18
      vertex -89.6489 -86.8406 18
    endloop
  endfacet
  facet normal 0 0 1
    outer loop
      vertex -88.9685 -85.5013 18
      vertex -89.9606 -85.6267 18
      vertex -89.8429 -86.2434 18
    endloop
  endfacet
  facet normal 0 1 -0
    outer loop
      vertex 85.3139 89.9901 0
      vertex -85.3139 89.9901 18
      vertex 85.3139 89.9901 18
    endloop
  endfacet
  facet normal 0 1 0
    outer loop
      vertex -85.3139 89.9901 18
      vertex 85.3139 89.9901 0
      vertex -85.3139 89.9901 0
    endloop
  endfacet
  facet normal 0 0 -1
    outer loop
      vertex 85.3139 -89.9901 0
      vertex 90 -85 0
      vertex 89.9606 -85.6267 0
    endloop
  endfacet
  facet normal 0 0 -1
    outer loop
      vertex -90 -85 0
      vertex 90 -85 0
      vertex 85.3139 -89.9901 0
    endloop
  endfacet
  facet normal 0 0 -1
    outer loop
      vertex 85.3139 -89.9901 0
      vertex 89.9606 -85.6267 0
      vertex 89.8429 -86.2434 0
    endloop
  endfacet
  facet normal 0 0 -1
    outer loop
      vertex 90 -85 0
      vertex -90 -85 0
      vertex 90 85 0
    endloop
  endfacet
  facet normal 0 0 -1
    outer loop
      vertex 85.3139 -89.9901 0
      vertex 89.8429 -86.2434 0
      vertex 89.6489 -86.8406 0
    endloop
  endfacet
  facet normal 0 0 -1
    outer loop
      vertex 90 85 0
      vertex 85.3139 89.9901 0
      vertex 89.9606 85.6267 0
    endloop
  endfacet
  facet normal 0 0 -1
    outer loop
      vertex 85.3139 -89.9901 0
      vertex 89.6489 -86.8406 0
      vertex 89.3815 -87.4088 0
    endloop
  endfacet
  facet normal 0 0 -1
    outer loop
      vertex 89.9606 85.6267 0
      vertex 85.3139 89.9901 0
      vertex 89.8429 86.2434 0
    endloop
  endfacet
  facet normal 0 0 -1
    outer loop
      vertex 85.3139 -89.9901 0
      vertex 89.3815 -87.4088 0
      vertex 89.0451 -87.9389 0
    endloop
  endfacet
  facet normal 0 0 -1
    outer loop
      vertex 89.8429 86.2434 0
      vertex 85.3139 89.9901 0
      vertex 89.6489 86.8406 0
    endloop
  endfacet
  facet normal 0 0 -1
    outer loop
      vertex 85.3139 -89.9901 0
      vertex 89.0451 -87.9389 0
      vertex 88.6448 -88.4227 0
    endloop
  endfacet
  facet normal 0 0 -1
    outer loop
      vertex 89.6489 86.8406 0
      vertex 85.3139 89.9901 0
      vertex 89.3815 87.4088 0
    endloop
  endfacet
  facet normal 0 0 -1
    outer loop
      vertex 85.3139 -89.9901 0
      vertex 88.6448 -88.4227 0
      vertex 88.1871 -88.8526 0
    endloop
  endfacet
  facet normal 0 0 -1
    outer loop
      vertex 89.3815 87.4088 0
      vertex 85.3139 89.9901 0
      vertex 89.0451 87.9389 0
    endloop
  endfacet
  facet normal 0 0 -1
    outer loop
      vertex 85.3139 -89.9901 0
      vertex 88.1871 -88.8526 0
      vertex 87.6791 -89.2216 0
    endloop
  endfacet
  facet normal 0 0 -1
    outer loop
      vertex 89.0451 87.9389 0
      vertex 85.3139 89.9901 0
      vertex 88.6448 88.4227 0
    endloop
  endfacet
  facet normal 0 0 -1
    outer loop
      vertex 85.3139 -89.9901 0
      vertex 87.6791 -89.2216 0
      vertex 87.1289 -89.5241 0
    endloop
  endfacet
  facet normal 0 0 -1
    outer loop
      vertex 88.6448 88.4227 0
      vertex 85.3139 89.9901 0
      vertex 88.1871 88.8526 0
    endloop
  endfacet
  facet normal 0 0 -1
    outer loop
      vertex 85.3139 -89.9901 0
      vertex 87.1289 -89.5241 0
      vertex 86.5451 -89.7553 0
    endloop
  endfacet
  facet normal 0 0 -1
    outer loop
      vertex 88.1871 88.8526 0
      vertex 85.3139 89.9901 0
      vertex 87.6791 89.2216 0
    endloop
  endfacet
  facet normal 0 0 -1
    outer loop
      vertex 85.3139 -89.9901 0
      vertex 86.5451 -89.7553 0
      vertex 85.9369 -89.9114 0
    endloop
  endfacet
  facet normal 0 0 -1
    outer loop
      vertex 87.6791 89.2216 0
      vertex 85.3139 89.9901 0
      vertex 87.1289 89.5241 0
    endloop
  endfacet
  facet normal 0 0 -1
    outer loop
      vertex 87.1289 89.5241 0
      vertex 85.3139 89.9901 0
      vertex 86.5451 89.7553 0
    endloop
  endfacet
  facet normal 0 0 -1
    outer loop
      vertex 86.5451 89.7553 0
      vertex 85.3139 89.9901 0
      vertex 85.9369 89.9114 0
    endloop
  endfacet
  facet normal 0 0 -1
    outer loop
      vertex -90 -85 0
      vertex 85.3139 -89.9901 0
      vertex -85.3139 -89.9901 0
    endloop
  endfacet
  facet normal 0 0 -1
    outer loop
      vertex -90 85 0
      vertex 90 85 0
      vertex -90 -85 0
    endloop
  endfacet
  facet normal 0 0 -1
    outer loop
      vertex -90 -85 0
      vertex -85.3139 -89.9901 0
      vertex -85.9369 -89.9114 0
    endloop
  endfacet
  facet normal 0 0 -1
    outer loop
      vertex 90 85 0
      vertex -90 85 0
      vertex 85.3139 89.9901 0
    endloop
  endfacet
  facet normal 0 0 -1
    outer loop
      vertex -90 -85 0
      vertex -85.9369 -89.9114 0
      vertex -86.5451 -89.7553 0
    endloop
  endfacet
  facet normal -0 0 -1
    outer loop
      vertex 85.3139 89.9901 0
      vertex -90 85 0
      vertex -85.3139 89.9901 0
    endloop
  endfacet
  facet normal 0 0 -1
    outer loop
      vertex -90 -85 0
      vertex -86.5451 -89.7553 0
      vertex -87.1289 -89.5241 0
    endloop
  endfacet
  facet normal 0 0 -1
    outer loop
      vertex -85.3139 89.9901 0
      vertex -90 85 0
      vertex -85.9369 89.9114 0
    endloop
  endfacet
  facet normal 0 0 -1
    outer loop
      vertex -90 -85 0
      vertex -87.1289 -89.5241 0
      vertex -87.6791 -89.2216 0
    endloop
  endfacet
  facet normal 0 0 -1
    outer loop
      vertex -85.9369 89.9114 0
      vertex -90 85 0
      vertex -86.5451 89.7553 0
    endloop
  endfacet
  facet normal 0 0 -1
    outer loop
      vertex -90 -85 0
      vertex -87.6791 -89.2216 0
      vertex -88.1871 -88.8526 0
    endloop
  endfacet
  facet normal 0 0 -1
    outer loop
      vertex -86.5451 89.7553 0
      vertex -90 85 0
      vertex -87.1289 89.5241 0
    endloop
  endfacet
  facet normal 0 0 -1
    outer loop
      vertex -90 -85 0
      vertex -88.1871 -88.8526 0
      vertex -88.6448 -88.4227 0
    endloop
  endfacet
  facet normal 0 0 -1
    outer loop
      vertex -87.1289 89.5241 0
      vertex -90 85 0
      vertex -87.6791 89.2216 0
    endloop
  endfacet
  facet normal 0 0 -1
    outer loop
      vertex -90 -85 0
      vertex -88.6448 -88.4227 0
      vertex -89.0451 -87.9389 0
    endloop
  endfacet
  facet normal 0 0 -1
    outer loop
      vertex -87.6791 89.2216 0
      vertex -90 85 0
      vertex -88.1871 88.8526 0
    endloop
  endfacet
  facet normal 0 0 -1
    outer loop
      vertex -90 -85 0
      vertex -89.0451 -87.9389 0
      vertex -89.3815 -87.4088 0
    endloop
  endfacet
  facet normal 0 0 -1
    outer loop
      vertex -88.1871 88.8526 0
      vertex -90 85 0
      vertex -88.6448 88.4227 0
    endloop
  endfacet
  facet normal 0 0 -1
    outer loop
      vertex -90 -85 0
      vertex -89.3815 -87.4088 0
      vertex -89.6489 -86.8406 0
    endloop
  endfacet
  facet normal 0 0 -1
    outer loop
      vertex -88.6448 88.4227 0
      vertex -90 85 0
      vertex -89.0451 87.9389 0
    endloop
  endfacet
  facet normal 0 0 -1
    outer loop
      vertex -90 -85 0
      vertex -89.6489 -86.8406 0
      vertex -89.8429 -86.2434 0
    endloop
  endfacet
  facet normal 0 0 -1
    outer loop
      vertex -89.0451 87.9389 0
      vertex -90 85 0
      vertex -89.3815 87.4088 0
    endloop
  endfacet
  facet normal 0 0 -1
    outer loop
      vertex -90 -85 0
      vertex -89.8429 -86.2434 0
      vertex -89.9606 -85.6267 0
    endloop
  endfacet
  facet normal 0 0 -1
    outer loop
      vertex -89.3815 87.4088 0
      vertex -90 85 0
      vertex -89.6489 86.8406 0
    endloop
  endfacet
  facet normal 0 0 -1
    outer loop
      vertex -89.6489 86.8406 0
      vertex -90 85 0
      vertex -89.8429 86.2434 0
    endloop
  endfacet
  facet normal 0 0 -1
    outer loop
      vertex -89.8429 86.2434 0
      vertex -90 85 0
      vertex -89.9606 85.6267 0
    endloop
  endfacet
  facet normal 0 -1 0
    outer loop
      vertex -85.3139 -89.9901 0
      vertex 85.3139 -89.9901 18
      vertex -85.3139 -89.9901 18
    endloop
  endfacet
  facet normal 0 -1 -0
    outer loop
      vertex 85.3139 -89.9901 18
      vertex -85.3139 -89.9901 0
      vertex 85.3139 -89.9901 0
    endloop
  endfacet
  facet normal 0.770462 0.637486 0
    outer loop
      vertex 89.0451 87.9389 18
      vertex 88.6448 88.4227 0
      vertex 88.6448 88.4227 18
    endloop
  endfacet
  facet normal 0.770462 0.637486 0
    outer loop
      vertex 88.6448 88.4227 0
      vertex 89.0451 87.9389 18
      vertex 89.0451 87.9389 0
    endloop
  endfacet
  facet normal 0.125328 0.992115 -0
    outer loop
      vertex 85.9369 89.9114 0
      vertex 85.3139 89.9901 18
      vertex 85.9369 89.9114 18
    endloop
  endfacet
  facet normal 0.125328 0.992115 0
    outer loop
      vertex 85.3139 89.9901 18
      vertex 85.9369 89.9114 0
      vertex 85.3139 89.9901 0
    endloop
  endfacet
  facet normal -0.684624 0.728896 0
    outer loop
      vertex -88.1871 88.8526 0
      vertex -88.6448 88.4227 18
      vertex -88.1871 88.8526 18
    endloop
  endfacet
  facet normal -0.684624 0.728896 0
    outer loop
      vertex -88.6448 88.4227 18
      vertex -88.1871 88.8526 0
      vertex -88.6448 88.4227 0
    endloop
  endfacet
  facet normal -0.98227 0.187471 0
    outer loop
      vertex -89.9606 85.6267 0
      vertex -89.8429 86.2434 18
      vertex -89.8429 86.2434 0
    endloop
  endfacet
  facet normal -0.98227 0.187471 0
    outer loop
      vertex -89.8429 86.2434 18
      vertex -89.9606 85.6267 0
      vertex -89.9606 85.6267 18
    endloop
  endfacet
  facet normal -0.904811 -0.425812 0
    outer loop
      vertex -89.3815 -87.4088 0
      vertex -89.6489 -86.8406 18
      vertex -89.6489 -86.8406 0
    endloop
  endfacet
  facet normal -0.904811 -0.425812 0
    outer loop
      vertex -89.6489 -86.8406 18
      vertex -89.3815 -87.4088 0
      vertex -89.3815 -87.4088 18
    endloop
  endfacet
  facet normal -0.770462 -0.637486 0
    outer loop
      vertex -88.6448 -88.4227 0
      vertex -89.0451 -87.9389 18
      vertex -89.0451 -87.9389 0
    endloop
  endfacet
  facet normal -0.770462 -0.637486 0
    outer loop
      vertex -89.0451 -87.9389 18
      vertex -88.6448 -88.4227 0
      vertex -88.6448 -88.4227 18
    endloop
  endfacet
  facet normal -0.951076 -0.308956 0
    outer loop
      vertex -89.6489 -86.8406 0
      vertex -89.8429 -86.2434 18
      vertex -89.8429 -86.2434 0
    endloop
  endfacet
  facet normal -0.951076 -0.308956 0
    outer loop
      vertex -89.8429 -86.2434 18
      vertex -89.6489 -86.8406 0
      vertex -89.6489 -86.8406 18
    endloop
  endfacet
  facet normal -0.99803 -0.0627451 0
    outer loop
      vertex -89.9606 -85.6267 0
      vertex -90 -85 18
      vertex -90 -85 0
    endloop
  endfacet
  facet normal -0.99803 -0.0627451 0
    outer loop
      vertex -90 -85 18
      vertex -89.9606 -85.6267 0
      vertex -89.9606 -85.6267 18
    endloop
  endfacet
  facet normal 0.770462 -0.637486 0
    outer loop
      vertex 88.6448 -88.4227 18
      vertex 89.0451 -87.9389 0
      vertex 89.0451 -87.9389 18
    endloop
  endfacet
  facet normal 0.770462 -0.637486 0
    outer loop
      vertex 89.0451 -87.9389 0
      vertex 88.6448 -88.4227 18
      vertex 88.6448 -88.4227 0
    endloop
  endfacet
  facet normal 0.951076 -0.308956 0
    outer loop
      vertex 89.6489 -86.8406 18
      vertex 89.8429 -86.2434 0
      vertex 89.8429 -86.2434 18
    endloop
  endfacet
  facet normal 0.951076 -0.308956 0
    outer loop
      vertex 89.8429 -86.2434 0
      vertex 89.6489 -86.8406 18
      vertex 89.6489 -86.8406 0
    endloop
  endfacet
  facet normal -0.368203 -0.929745 0
    outer loop
      vertex -87.1289 -89.5241 0
      vertex -86.5451 -89.7553 18
      vertex -87.1289 -89.5241 18
    endloop
  endfacet
  facet normal -0.368203 -0.929745 -0
    outer loop
      vertex -86.5451 -89.7553 18
      vertex -87.1289 -89.5241 0
      vertex -86.5451 -89.7553 0
    endloop
  endfacet
  facet normal -0.684624 -0.728896 0
    outer loop
      vertex -88.6448 -88.4227 0
      vertex -88.1871 -88.8526 18
      vertex -88.6448 -88.4227 18
    endloop
  endfacet
  facet normal -0.684624 -0.728896 -0
    outer loop
      vertex -88.1871 -88.8526 18
      vertex -88.6448 -88.4227 0
      vertex -88.1871 -88.8526 0
    endloop
  endfacet
  facet normal 0.951076 0.308956 0
    outer loop
      vertex 89.8429 86.2434 18
      vertex 89.6489 86.8406 0
      vertex 89.6489 86.8406 18
    endloop
  endfacet
  facet normal 0.951076 0.308956 0
    outer loop
      vertex 89.6489 86.8406 0
      vertex 89.8429 86.2434 18
      vertex 89.8429 86.2434 0
    endloop
  endfacet
  facet normal 0.368203 0.929745 -0
    outer loop
      vertex 87.1289 89.5241 0
      vertex 86.5451 89.7553 18
      vertex 87.1289 89.5241 18
    endloop
  endfacet
  facet normal 0.368203 0.929745 0
    outer loop
      vertex 86.5451 89.7553 18
      vertex 87.1289 89.5241 0
      vertex 86.5451 89.7553 0
    endloop
  endfacet
  facet normal 0.481784 0.87629 -0
    outer loop
      vertex 87.6791 89.2216 0
      vertex 87.1289 89.5241 18
      vertex 87.6791 89.2216 18
    endloop
  endfacet
  facet normal 0.481784 0.87629 0
    outer loop
      vertex 87.1289 89.5241 18
      vertex 87.6791 89.2216 0
      vertex 87.1289 89.5241 0
    endloop
  endfacet
  facet normal 0.684624 0.728896 -0
    outer loop
      vertex 88.6448 88.4227 0
      vertex 88.1871 88.8526 18
      vertex 88.6448 88.4227 18
    endloop
  endfacet
  facet normal 0.684624 0.728896 0
    outer loop
      vertex 88.1871 88.8526 18
      vertex 88.6448 88.4227 0
      vertex 88.1871 88.8526 0
    endloop
  endfacet
  facet normal -0.368203 0.929745 0
    outer loop
      vertex -86.5451 89.7553 0
      vertex -87.1289 89.5241 18
      vertex -86.5451 89.7553 18
    endloop
  endfacet
  facet normal -0.368203 0.929745 0
    outer loop
      vertex -87.1289 89.5241 18
      vertex -86.5451 89.7553 0
      vertex -87.1289 89.5241 0
    endloop
  endfacet
  facet normal -0.904811 0.425812 0
    outer loop
      vertex -89.6489 86.8406 0
      vertex -89.3815 87.4088 18
      vertex -89.3815 87.4088 0
    endloop
  endfacet
  facet normal -0.904811 0.425812 0
    outer loop
      vertex -89.3815 87.4088 18
      vertex -89.6489 86.8406 0
      vertex -89.6489 86.8406 18
    endloop
  endfacet
  facet normal -0.770462 0.637486 0
    outer loop
      vertex -89.0451 87.9389 0
      vertex -88.6448 88.4227 18
      vertex -88.6448 88.4227 0
    endloop
  endfacet
  facet normal -0.770462 0.637486 0
    outer loop
      vertex -88.6448 88.4227 18
      vertex -89.0451 87.9389 0
      vertex -89.0451 87.9389 18
    endloop
  endfacet
  facet normal -0.951076 0.308956 0
    outer loop
      vertex -89.8429 86.2434 0
      vertex -89.6489 86.8406 18
      vertex -89.6489 86.8406 0
    endloop
  endfacet
  facet normal -0.951076 0.308956 0
    outer loop
      vertex -89.6489 86.8406 18
      vertex -89.8429 86.2434 0
      vertex -89.8429 86.2434 18
    endloop
  endfacet
  facet normal -0.844336 -0.535814 0
    outer loop
      vertex -89.0451 -87.9389 0
      vertex -89.3815 -87.4088 18
      vertex -89.3815 -87.4088 0
    endloop
  endfacet
  facet normal -0.844336 -0.535814 0
    outer loop
      vertex -89.3815 -87.4088 18
      vertex -89.0451 -87.9389 0
      vertex -89.0451 -87.9389 18
    endloop
  endfacet
  facet normal -0.98227 -0.187471 0
    outer loop
      vertex -89.8429 -86.2434 0
      vertex -89.9606 -85.6267 18
      vertex -89.9606 -85.6267 0
    endloop
  endfacet
  facet normal -0.98227 -0.187471 0
    outer loop
      vertex -89.9606 -85.6267 18
      vertex -89.8429 -86.2434 0
      vertex -89.8429 -86.2434 18
    endloop
  endfacet
  facet normal 0.125328 -0.992115 0
    outer loop
      vertex 85.3139 -89.9901 0
      vertex 85.9369 -89.9114 18
      vertex 85.3139 -89.9901 18
    endloop
  endfacet
  facet normal 0.125328 -0.992115 0
    outer loop
      vertex 85.9369 -89.9114 18
      vertex 85.3139 -89.9901 0
      vertex 85.9369 -89.9114 0
    endloop
  endfacet
  facet normal 0.368203 -0.929745 0
    outer loop
      vertex 86.5451 -89.7553 0
      vertex 87.1289 -89.5241 18
      vertex 86.5451 -89.7553 18
    endloop
  endfacet
  facet normal 0.368203 -0.929745 0
    outer loop
      vertex 87.1289 -89.5241 18
      vertex 86.5451 -89.7553 0
      vertex 87.1289 -89.5241 0
    endloop
  endfacet
  facet normal 0.684624 -0.728896 0
    outer loop
      vertex 88.1871 -88.8526 0
      vertex 88.6448 -88.4227 18
      vertex 88.1871 -88.8526 18
    endloop
  endfacet
  facet normal 0.684624 -0.728896 0
    outer loop
      vertex 88.6448 -88.4227 18
      vertex 88.1871 -88.8526 0
      vertex 88.6448 -88.4227 0
    endloop
  endfacet
  facet normal 0.481784 -0.87629 0
    outer loop
      vertex 87.1289 -89.5241 0
      vertex 87.6791 -89.2216 18
      vertex 87.1289 -89.5241 18
    endloop
  endfacet
  facet normal 0.481784 -0.87629 0
    outer loop
      vertex 87.6791 -89.2216 18
      vertex 87.1289 -89.5241 0
      vertex 87.6791 -89.2216 0
    endloop
  endfacet
  facet normal 0.844336 -0.535814 0
    outer loop
      vertex 89.0451 -87.9389 18
      vertex 89.3815 -87.4088 0
      vertex 89.3815 -87.4088 18
    endloop
  endfacet
  facet normal 0.844336 -0.535814 0
    outer loop
      vertex 89.3815 -87.4088 0
      vertex 89.0451 -87.9389 18
      vertex 89.0451 -87.9389 0
    endloop
  endfacet
  facet normal 0.98227 -0.187471 0
    outer loop
      vertex 89.8429 -86.2434 18
      vertex 89.9606 -85.6267 0
      vertex 89.9606 -85.6267 18
    endloop
  endfacet
  facet normal 0.98227 -0.187471 0
    outer loop
      vertex 89.9606 -85.6267 0
      vertex 89.8429 -86.2434 18
      vertex 89.8429 -86.2434 0
    endloop
  endfacet
  facet normal -0.248601 -0.968606 0
    outer loop
      vertex -86.5451 -89.7553 0
      vertex -85.9369 -89.9114 18
      vertex -86.5451 -89.7553 18
    endloop
  endfacet
  facet normal -0.248601 -0.968606 -0
    outer loop
      vertex -85.9369 -89.9114 18
      vertex -86.5451 -89.7553 0
      vertex -85.9369 -89.9114 0
    endloop
  endfacet
  facet normal -0.587698 -0.80908 0
    outer loop
      vertex -88.1871 -88.8526 0
      vertex -87.6791 -89.2216 18
      vertex -88.1871 -88.8526 18
    endloop
  endfacet
  facet normal -0.587698 -0.80908 -0
    outer loop
      vertex -87.6791 -89.2216 18
      vertex -88.1871 -88.8526 0
      vertex -87.6791 -89.2216 0
    endloop
  endfacet
  facet normal 0.98227 0.187471 0
    outer loop
      vertex 89.9606 85.6267 18
      vertex 89.8429 86.2434 0
      vertex 89.8429 86.2434 18
    endloop
  endfacet
  facet normal 0.98227 0.187471 0
    outer loop
      vertex 89.8429 86.2434 0
      vertex 89.9606 85.6267 18
      vertex 89.9606 85.6267 0
    endloop
  endfacet
  facet normal 0.99803 0.0627451 0
    outer loop
      vertex 90 85 18
      vertex 89.9606 85.6267 0
      vertex 89.9606 85.6267 18
    endloop
  endfacet
  facet normal 0.99803 0.0627451 0
    outer loop
      vertex 89.9606 85.6267 0
      vertex 90 85 18
      vertex 90 85 0
    endloop
  endfacet
  facet normal 0.844336 0.535814 0
    outer loop
      vertex 89.3815 87.4088 18
      vertex 89.0451 87.9389 0
      vertex 89.0451 87.9389 18
    endloop
  endfacet
  facet normal 0.844336 0.535814 0
    outer loop
      vertex 89.0451 87.9389 0
      vertex 89.3815 87.4088 18
      vertex 89.3815 87.4088 0
    endloop
  endfacet
  facet normal 0.904811 0.425812 0
    outer loop
      vertex 89.6489 86.8406 18
      vertex 89.3815 87.4088 0
      vertex 89.3815 87.4088 18
    endloop
  endfacet
  facet normal 0.904811 0.425812 0
    outer loop
      vertex 89.3815 87.4088 0
      vertex 89.6489 86.8406 18
      vertex 89.6489 86.8406 0
    endloop
  endfacet
  facet normal 0.248601 0.968606 -0
    outer loop
      vertex 86.5451 89.7553 0
      vertex 85.9369 89.9114 18
      vertex 86.5451 89.7553 18
    endloop
  endfacet
  facet normal 0.248601 0.968606 0
    outer loop
      vertex 85.9369 89.9114 18
      vertex 86.5451 89.7553 0
      vertex 85.9369 89.9114 0
    endloop
  endfacet
  facet normal 0.587698 0.80908 -0
    outer loop
      vertex 88.1871 88.8526 0
      vertex 87.6791 89.2216 18
      vertex 88.1871 88.8526 18
    endloop
  endfacet
  facet normal 0.587698 0.80908 0
    outer loop
      vertex 87.6791 89.2216 18
      vertex 88.1871 88.8526 0
      vertex 87.6791 89.2216 0
    endloop
  endfacet
  facet normal -0.587698 0.80908 0
    outer loop
      vertex -87.6791 89.2216 0
      vertex -88.1871 88.8526 18
      vertex -87.6791 89.2216 18
    endloop
  endfacet
  facet normal -0.587698 0.80908 0
    outer loop
      vertex -88.1871 88.8526 18
      vertex -87.6791 89.2216 0
      vertex -88.1871 88.8526 0
    endloop
  endfacet
  facet normal -0.481784 0.87629 0
    outer loop
      vertex -87.1289 89.5241 0
      vertex -87.6791 89.2216 18
      vertex -87.1289 89.5241 18
    endloop
  endfacet
  facet normal -0.481784 0.87629 0
    outer loop
      vertex -87.6791 89.2216 18
      vertex -87.1289 89.5241 0
      vertex -87.6791 89.2216 0
    endloop
  endfacet
  facet normal -0.248601 0.968606 0
    outer loop
      vertex -85.9369 89.9114 0
      vertex -86.5451 89.7553 18
      vertex -85.9369 89.9114 18
    endloop
  endfacet
  facet normal -0.248601 0.968606 0
    outer loop
      vertex -86.5451 89.7553 18
      vertex -85.9369 89.9114 0
      vertex -86.5451 89.7553 0
    endloop
  endfacet
  facet normal -0.125328 0.992115 0
    outer loop
      vertex -85.3139 89.9901 0
      vertex -85.9369 89.9114 18
      vertex -85.3139 89.9901 18
    endloop
  endfacet
  facet normal -0.125328 0.992115 0
    outer loop
      vertex -85.9369 89.9114 18
      vertex -85.3139 89.9901 0
      vertex -85.9369 89.9114 0
    endloop
  endfacet
  facet normal -0.844336 0.535814 0
    outer loop
      vertex -89.3815 87.4088 0
      vertex -89.0451 87.9389 18
      vertex -89.0451 87.9389 0
    endloop
  endfacet
  facet normal -0.844336 0.535814 0
    outer loop
      vertex -89.0451 87.9389 18
      vertex -89.3815 87.4088 0
      vertex -89.3815 87.4088 18
    endloop
  endfacet
  facet normal 0.248601 -0.968606 0
    outer loop
      vertex 85.9369 -89.9114 0
      vertex 86.5451 -89.7553 18
      vertex 85.9369 -89.9114 18
    endloop
  endfacet
  facet normal 0.248601 -0.968606 0
    outer loop
      vertex 86.5451 -89.7553 18
      vertex 85.9369 -89.9114 0
      vertex 86.5451 -89.7553 0
    endloop
  endfacet
  facet normal 0.587698 -0.80908 0
    outer loop
      vertex 87.6791 -89.2216 0
      vertex 88.1871 -88.8526 18
      vertex 87.6791 -89.2216 18
    endloop
  endfacet
  facet normal 0.587698 -0.80908 0
    outer loop
      vertex 88.1871 -88.8526 18
      vertex 87.6791 -89.2216 0
      vertex 88.1871 -88.8526 0
    endloop
  endfacet
  facet normal 0.904811 -0.425812 0
    outer loop
      vertex 89.3815 -87.4088 18
      vertex 89.6489 -86.8406 0
      vertex 89.6489 -86.8406 18
    endloop
  endfacet
  facet normal 0.904811 -0.425812 0
    outer loop
      vertex 89.6489 -86.8406 0
      vertex 89.3815 -87.4088 18
      vertex 89.3815 -87.4088 0
    endloop
  endfacet
  facet normal -0.125328 -0.992115 0
    outer loop
      vertex -85.9369 -89.9114 0
      vertex -85.3139 -89.9901 18
      vertex -85.9369 -89.9114 18
    endloop
  endfacet
  facet normal -0.125328 -0.992115 -0
    outer loop
      vertex -85.3139 -89.9901 18
      vertex -85.9369 -89.9114 0
      vertex -85.3139 -89.9901 0
    endloop
  endfacet
  facet normal -0.481784 -0.87629 0
    outer loop
      vertex -87.6791 -89.2216 0
      vertex -87.1289 -89.5241 18
      vertex -87.6791 -89.2216 18
    endloop
  endfacet
  facet normal -0.481784 -0.87629 -0
    outer loop
      vertex -87.1289 -89.5241 18
      vertex -87.6791 -89.2216 0
      vertex -87.1289 -89.5241 0
    endloop
  endfacet
  facet normal 0 -1 0
    outer loop
      vertex -85.2512 88.9921 2
      vertex 85.2512 88.9921 18
      vertex -85.2512 88.9921 18
    endloop
  endfacet
  facet normal 0 -1 -0
    outer loop
      vertex 85.2512 88.9921 18
      vertex -85.2512 88.9921 2
      vertex 85.2512 88.9921 2
    endloop
  endfacet
  facet normal 0.684563 0.728953 -0
    outer loop
      vertex -87.5497 -88.0821 2
      vertex -87.9159 -87.7382 18
      vertex -87.5497 -88.0821 18
    endloop
  endfacet
  facet normal 0.684563 0.728953 0
    outer loop
      vertex -87.9159 -87.7382 18
      vertex -87.5497 -88.0821 2
      vertex -87.9159 -87.7382 2
    endloop
  endfacet
  facet normal 0 1 -0
    outer loop
      vertex 85.2512 -88.9921 2
      vertex -85.2512 -88.9921 18
      vertex 85.2512 -88.9921 18
    endloop
  endfacet
  facet normal 0 1 0
    outer loop
      vertex -85.2512 -88.9921 18
      vertex 85.2512 -88.9921 2
      vertex -85.2512 -88.9921 2
    endloop
  endfacet
  facet normal 0.998032 0.0627129 0
    outer loop
      vertex -88.9685 -85.5013 18
      vertex -89 -85 2
      vertex -89 -85 18
    endloop
  endfacet
  facet normal 0.998032 0.0627129 0
    outer loop
      vertex -89 -85 2
      vertex -88.9685 -85.5013 18
      vertex -88.9685 -85.5013 2
    endloop
  endfacet
  facet normal -1 0 0
    outer loop
      vertex 89 -85 2
      vertex 89 85 18
      vertex 89 85 2
    endloop
  endfacet
  facet normal -1 -0 0
    outer loop
      vertex 89 85 18
      vertex 89 -85 2
      vertex 89 -85 18
    endloop
  endfacet
  facet normal -0.770549 -0.63738 0
    outer loop
      vertex 88.2361 87.3511 2
      vertex 87.9159 87.7382 18
      vertex 87.9159 87.7382 2
    endloop
  endfacet
  facet normal -0.770549 -0.63738 0
    outer loop
      vertex 87.9159 87.7382 18
      vertex 88.2361 87.3511 2
      vertex 88.2361 87.3511 18
    endloop
  endfacet
  facet normal 0.368127 0.929775 -0
    outer loop
      vertex -86.2361 -88.8042 2
      vertex -86.7031 -88.6193 18
      vertex -86.2361 -88.8042 18
    endloop
  endfacet
  facet normal 0.368127 0.929775 0
    outer loop
      vertex -86.7031 -88.6193 18
      vertex -86.2361 -88.8042 2
      vertex -86.7031 -88.6193 2
    endloop
  endfacet
  facet normal 0.125431 0.992102 -0
    outer loop
      vertex -85.2512 -88.9921 2
      vertex -85.7495 -88.9291 18
      vertex -85.2512 -88.9921 18
    endloop
  endfacet
  facet normal 0.125431 0.992102 0
    outer loop
      vertex -85.7495 -88.9291 18
      vertex -85.2512 -88.9921 2
      vertex -85.7495 -88.9291 2
    endloop
  endfacet
  facet normal 1 -0 0
    outer loop
      vertex -89 -85 18
      vertex -89 85 2
      vertex -89 85 18
    endloop
  endfacet
  facet normal 1 0 0
    outer loop
      vertex -89 85 2
      vertex -89 -85 18
      vertex -89 -85 2
    endloop
  endfacet
  facet normal -0.951065 0.308992 0
    outer loop
      vertex 88.7191 -86.4725 2
      vertex 88.8743 -85.9948 18
      vertex 88.8743 -85.9948 2
    endloop
  endfacet
  facet normal -0.951065 0.308992 0
    outer loop
      vertex 88.8743 -85.9948 18
      vertex 88.7191 -86.4725 2
      vertex 88.7191 -86.4725 18
    endloop
  endfacet
  facet normal 0.481751 0.876308 -0
    outer loop
      vertex -86.7031 -88.6193 2
      vertex -87.1433 -88.3773 18
      vertex -86.7031 -88.6193 18
    endloop
  endfacet
  facet normal 0.481751 0.876308 0
    outer loop
      vertex -87.1433 -88.3773 18
      vertex -86.7031 -88.6193 2
      vertex -87.1433 -88.3773 2
    endloop
  endfacet
  facet normal 0.24862 0.968601 -0
    outer loop
      vertex -85.7495 -88.9291 2
      vertex -86.2361 -88.8042 18
      vertex -85.7495 -88.9291 18
    endloop
  endfacet
  facet normal 0.24862 0.968601 0
    outer loop
      vertex -86.2361 -88.8042 18
      vertex -85.7495 -88.9291 2
      vertex -86.2361 -88.8042 2
    endloop
  endfacet
  facet normal 0.770549 0.63738 0
    outer loop
      vertex -87.9159 -87.7382 18
      vertex -88.2361 -87.3511 2
      vertex -88.2361 -87.3511 18
    endloop
  endfacet
  facet normal 0.770549 0.63738 0
    outer loop
      vertex -88.2361 -87.3511 2
      vertex -87.9159 -87.7382 18
      vertex -87.9159 -87.7382 2
    endloop
  endfacet
  facet normal 0.684563 -0.728953 0
    outer loop
      vertex -87.9159 87.7382 2
      vertex -87.5497 88.0821 18
      vertex -87.9159 87.7382 18
    endloop
  endfacet
  facet normal 0.684563 -0.728953 0
    outer loop
      vertex -87.5497 88.0821 18
      vertex -87.9159 87.7382 2
      vertex -87.5497 88.0821 2
    endloop
  endfacet
  facet normal 0.481751 -0.876308 0
    outer loop
      vertex -87.1433 88.3773 2
      vertex -86.7031 88.6193 18
      vertex -87.1433 88.3773 18
    endloop
  endfacet
  facet normal 0.481751 -0.876308 0
    outer loop
      vertex -86.7031 88.6193 18
      vertex -87.1433 88.3773 2
      vertex -86.7031 88.6193 2
    endloop
  endfacet
  facet normal -0.481751 0.876308 0
    outer loop
      vertex 87.1433 -88.3773 2
      vertex 86.7031 -88.6193 18
      vertex 87.1433 -88.3773 18
    endloop
  endfacet
  facet normal -0.481751 0.876308 0
    outer loop
      vertex 86.7031 -88.6193 18
      vertex 87.1433 -88.3773 2
      vertex 86.7031 -88.6193 2
    endloop
  endfacet
  facet normal -0.481751 -0.876308 0
    outer loop
      vertex 86.7031 88.6193 2
      vertex 87.1433 88.3773 18
      vertex 86.7031 88.6193 18
    endloop
  endfacet
  facet normal -0.481751 -0.876308 -0
    outer loop
      vertex 87.1433 88.3773 18
      vertex 86.7031 88.6193 2
      vertex 87.1433 88.3773 2
    endloop
  endfacet
  facet normal -0.368127 -0.929775 0
    outer loop
      vertex 86.2361 88.8042 2
      vertex 86.7031 88.6193 18
      vertex 86.2361 88.8042 18
    endloop
  endfacet
  facet normal -0.368127 -0.929775 -0
    outer loop
      vertex 86.7031 88.6193 18
      vertex 86.2361 88.8042 2
      vertex 86.7031 88.6193 2
    endloop
  endfacet
  facet normal -0.951065 -0.308992 0
    outer loop
      vertex 88.8743 85.9948 2
      vertex 88.7191 86.4725 18
      vertex 88.7191 86.4725 2
    endloop
  endfacet
  facet normal -0.951065 -0.308992 0
    outer loop
      vertex 88.7191 86.4725 18
      vertex 88.8743 85.9948 2
      vertex 88.8743 85.9948 18
    endloop
  endfacet
  facet normal -0.770549 0.63738 0
    outer loop
      vertex 87.9159 -87.7382 2
      vertex 88.2361 -87.3511 18
      vertex 88.2361 -87.3511 2
    endloop
  endfacet
  facet normal -0.770549 0.63738 0
    outer loop
      vertex 88.2361 -87.3511 18
      vertex 87.9159 -87.7382 2
      vertex 87.9159 -87.7382 18
    endloop
  endfacet
  facet normal -0.904805 0.425826 0
    outer loop
      vertex 88.5052 -86.927 2
      vertex 88.7191 -86.4725 18
      vertex 88.7191 -86.4725 2
    endloop
  endfacet
  facet normal -0.904805 0.425826 0
    outer loop
      vertex 88.7191 -86.4725 18
      vertex 88.5052 -86.927 2
      vertex 88.5052 -86.927 18
    endloop
  endfacet
  facet normal 0.587698 0.80908 -0
    outer loop
      vertex -87.1433 -88.3773 2
      vertex -87.5497 -88.0821 18
      vertex -87.1433 -88.3773 18
    endloop
  endfacet
  facet normal 0.587698 0.80908 0
    outer loop
      vertex -87.5497 -88.0821 18
      vertex -87.1433 -88.3773 2
      vertex -87.5497 -88.0821 2
    endloop
  endfacet
  facet normal 0.951065 0.308992 0
    outer loop
      vertex -88.7191 -86.4725 18
      vertex -88.8743 -85.9948 2
      vertex -88.8743 -85.9948 18
    endloop
  endfacet
  facet normal 0.951065 0.308992 0
    outer loop
      vertex -88.8743 -85.9948 2
      vertex -88.7191 -86.4725 18
      vertex -88.7191 -86.4725 2
    endloop
  endfacet
  facet normal 0.904805 0.425826 0
    outer loop
      vertex -88.5052 -86.927 18
      vertex -88.7191 -86.4725 2
      vertex -88.7191 -86.4725 18
    endloop
  endfacet
  facet normal 0.904805 0.425826 0
    outer loop
      vertex -88.7191 -86.4725 2
      vertex -88.5052 -86.927 18
      vertex -88.5052 -86.927 2
    endloop
  endfacet
  facet normal 0.904805 -0.425826 0
    outer loop
      vertex -88.7191 86.4725 18
      vertex -88.5052 86.927 2
      vertex -88.5052 86.927 18
    endloop
  endfacet
  facet normal 0.904805 -0.425826 0
    outer loop
      vertex -88.5052 86.927 2
      vertex -88.7191 86.4725 18
      vertex -88.7191 86.4725 2
    endloop
  endfacet
  facet normal 0.951065 -0.308992 0
    outer loop
      vertex -88.8743 85.9948 18
      vertex -88.7191 86.4725 2
      vertex -88.7191 86.4725 18
    endloop
  endfacet
  facet normal 0.951065 -0.308992 0
    outer loop
      vertex -88.7191 86.4725 2
      vertex -88.8743 85.9948 18
      vertex -88.8743 85.9948 2
    endloop
  endfacet
  facet normal 0.770549 -0.63738 0
    outer loop
      vertex -88.2361 87.3511 18
      vertex -87.9159 87.7382 2
      vertex -87.9159 87.7382 18
    endloop
  endfacet
  facet normal 0.770549 -0.63738 0
    outer loop
      vertex -87.9159 87.7382 2
      vertex -88.2361 87.3511 18
      vertex -88.2361 87.3511 2
    endloop
  endfacet
  facet normal 0.24862 -0.968601 0
    outer loop
      vertex -86.2361 88.8042 2
      vertex -85.7495 88.9291 18
      vertex -86.2361 88.8042 18
    endloop
  endfacet
  facet normal 0.24862 -0.968601 0
    outer loop
      vertex -85.7495 88.9291 18
      vertex -86.2361 88.8042 2
      vertex -85.7495 88.9291 2
    endloop
  endfacet
  facet normal 0.125431 -0.992102 0
    outer loop
      vertex -85.7495 88.9291 2
      vertex -85.2512 88.9921 18
      vertex -85.7495 88.9291 18
    endloop
  endfacet
  facet normal 0.125431 -0.992102 0
    outer loop
      vertex -85.2512 88.9921 18
      vertex -85.7495 88.9291 2
      vertex -85.2512 88.9921 2
    endloop
  endfacet
  facet normal -0.368127 0.929775 0
    outer loop
      vertex 86.7031 -88.6193 2
      vertex 86.2361 -88.8042 18
      vertex 86.7031 -88.6193 18
    endloop
  endfacet
  facet normal -0.368127 0.929775 0
    outer loop
      vertex 86.2361 -88.8042 18
      vertex 86.7031 -88.6193 2
      vertex 86.2361 -88.8042 2
    endloop
  endfacet
  facet normal -0.587698 -0.80908 0
    outer loop
      vertex 87.1433 88.3773 2
      vertex 87.5497 88.0821 18
      vertex 87.1433 88.3773 18
    endloop
  endfacet
  facet normal -0.587698 -0.80908 -0
    outer loop
      vertex 87.5497 88.0821 18
      vertex 87.1433 88.3773 2
      vertex 87.5497 88.0821 2
    endloop
  endfacet
  facet normal -0.684563 -0.728953 0
    outer loop
      vertex 87.5497 88.0821 2
      vertex 87.9159 87.7382 18
      vertex 87.5497 88.0821 18
    endloop
  endfacet
  facet normal -0.684563 -0.728953 -0
    outer loop
      vertex 87.9159 87.7382 18
      vertex 87.5497 88.0821 2
      vertex 87.9159 87.7382 2
    endloop
  endfacet
  facet normal -0.125431 -0.992102 0
    outer loop
      vertex 85.2512 88.9921 2
      vertex 85.7495 88.9291 18
      vertex 85.2512 88.9921 18
    endloop
  endfacet
  facet normal -0.125431 -0.992102 -0
    outer loop
      vertex 85.7495 88.9291 18
      vertex 85.2512 88.9921 2
      vertex 85.7495 88.9291 2
    endloop
  endfacet
  facet normal -0.24862 -0.968601 0
    outer loop
      vertex 85.7495 88.9291 2
      vertex 86.2361 88.8042 18
      vertex 85.7495 88.9291 18
    endloop
  endfacet
  facet normal -0.24862 -0.968601 -0
    outer loop
      vertex 86.2361 88.8042 18
      vertex 85.7495 88.9291 2
      vertex 86.2361 88.8042 2
    endloop
  endfacet
  facet normal -0.982265 -0.187496 0
    outer loop
      vertex 88.9685 85.5013 2
      vertex 88.8743 85.9948 18
      vertex 88.8743 85.9948 2
    endloop
  endfacet
  facet normal -0.982265 -0.187496 0
    outer loop
      vertex 88.8743 85.9948 18
      vertex 88.9685 85.5013 2
      vertex 88.9685 85.5013 18
    endloop
  endfacet
  facet normal -0.998032 -0.0627129 0
    outer loop
      vertex 89 85 2
      vertex 88.9685 85.5013 18
      vertex 88.9685 85.5013 2
    endloop
  endfacet
  facet normal -0.998032 -0.0627129 0
    outer loop
      vertex 88.9685 85.5013 18
      vertex 89 85 2
      vertex 89 85 18
    endloop
  endfacet
  facet normal -0.982265 0.187496 0
    outer loop
      vertex 88.8743 -85.9948 2
      vertex 88.9685 -85.5013 18
      vertex 88.9685 -85.5013 2
    endloop
  endfacet
  facet normal -0.982265 0.187496 0
    outer loop
      vertex 88.9685 -85.5013 18
      vertex 88.8743 -85.9948 2
      vertex 88.8743 -85.9948 18
    endloop
  endfacet
  facet normal -0.844366 0.535767 0
    outer loop
      vertex 88.2361 -87.3511 2
      vertex 88.5052 -86.927 18
      vertex 88.5052 -86.927 2
    endloop
  endfacet
  facet normal -0.844366 0.535767 0
    outer loop
      vertex 88.5052 -86.927 18
      vertex 88.2361 -87.3511 2
      vertex 88.2361 -87.3511 18
    endloop
  endfacet
  facet normal -0.587698 0.80908 0
    outer loop
      vertex 87.5497 -88.0821 2
      vertex 87.1433 -88.3773 18
      vertex 87.5497 -88.0821 18
    endloop
  endfacet
  facet normal -0.587698 0.80908 0
    outer loop
      vertex 87.1433 -88.3773 18
      vertex 87.5497 -88.0821 2
      vertex 87.1433 -88.3773 2
    endloop
  endfacet
  facet normal 0 0 1
    outer loop
      vertex 85.2512 88.9921 2
      vertex 89 85 2
      vertex 88.9685 85.5013 2
    endloop
  endfacet
  facet normal 0 0 1
    outer loop
      vertex -89 85 2
      vertex 89 85 2
      vertex 85.2512 88.9921 2
    endloop
  endfacet
  facet normal 0 0 1
    outer loop
      vertex 85.2512 88.9921 2
      vertex 88.9685 85.5013 2
      vertex 88.8743 85.9948 2
    endloop
  endfacet
  facet normal 0 0 1
    outer loop
      vertex 89 85 2
      vertex -89 85 2
      vertex 89 -85 2
    endloop
  endfacet
  facet normal 0 0 1
    outer loop
      vertex 85.2512 88.9921 2
      vertex 88.8743 85.9948 2
      vertex 88.7191 86.4725 2
    endloop
  endfacet
  facet normal 0 0 1
    outer loop
      vertex 89 -85 2
      vertex 85.2512 -88.9921 2
      vertex 88.9685 -85.5013 2
    endloop
  endfacet
  facet normal 0 0 1
    outer loop
      vertex 85.2512 88.9921 2
      vertex 88.7191 86.4725 2
      vertex 88.5052 86.927 2
    endloop
  endfacet
  facet normal 0 0 1
    outer loop
      vertex 88.9685 -85.5013 2
      vertex 85.2512 -88.9921 2
      vertex 88.8743 -85.9948 2
    endloop
  endfacet
  facet normal 0 0 1
    outer loop
      vertex 85.2512 88.9921 2
      vertex 88.5052 86.927 2
      vertex 88.2361 87.3511 2
    endloop
  endfacet
  facet normal 0 0 1
    outer loop
      vertex 88.8743 -85.9948 2
      vertex 85.2512 -88.9921 2
      vertex 88.7191 -86.4725 2
    endloop
  endfacet
  facet normal 0 0 1
    outer loop
      vertex 85.2512 88.9921 2
      vertex 88.2361 87.3511 2
      vertex 87.9159 87.7382 2
    endloop
  endfacet
  facet normal 0 0 1
    outer loop
      vertex 88.7191 -86.4725 2
      vertex 85.2512 -88.9921 2
      vertex 88.5052 -86.927 2
    endloop
  endfacet
  facet normal 0 0 1
    outer loop
      vertex 85.2512 88.9921 2
      vertex 87.9159 87.7382 2
      vertex 87.5497 88.0821 2
    endloop
  endfacet
  facet normal 0 0 1
    outer loop
      vertex 88.5052 -86.927 2
      vertex 85.2512 -88.9921 2
      vertex 88.2361 -87.3511 2
    endloop
  endfacet
  facet normal 0 0 1
    outer loop
      vertex 85.2512 88.9921 2
      vertex 87.5497 88.0821 2
      vertex 87.1433 88.3773 2
    endloop
  endfacet
  facet normal 0 0 1
    outer loop
      vertex 88.2361 -87.3511 2
      vertex 85.2512 -88.9921 2
      vertex 87.9159 -87.7382 2
    endloop
  endfacet
  facet normal 0 0 1
    outer loop
      vertex 85.2512 88.9921 2
      vertex 87.1433 88.3773 2
      vertex 86.7031 88.6193 2
    endloop
  endfacet
  facet normal 0 0 1
    outer loop
      vertex 87.9159 -87.7382 2
      vertex 85.2512 -88.9921 2
      vertex 87.5497 -88.0821 2
    endloop
  endfacet
  facet normal 0 0 1
    outer loop
      vertex 85.2512 88.9921 2
      vertex 86.7031 88.6193 2
      vertex 86.2361 88.8042 2
    endloop
  endfacet
  facet normal 0 0 1
    outer loop
      vertex 87.5497 -88.0821 2
      vertex 85.2512 -88.9921 2
      vertex 87.1433 -88.3773 2
    endloop
  endfacet
  facet normal 0 0 1
    outer loop
      vertex 85.2512 88.9921 2
      vertex 86.2361 88.8042 2
      vertex 85.7495 88.9291 2
    endloop
  endfacet
  facet normal 0 0 1
    outer loop
      vertex 87.1433 -88.3773 2
      vertex 85.2512 -88.9921 2
      vertex 86.7031 -88.6193 2
    endloop
  endfacet
  facet normal 0 0 1
    outer loop
      vertex 86.7031 -88.6193 2
      vertex 85.2512 -88.9921 2
      vertex 86.2361 -88.8042 2
    endloop
  endfacet
  facet normal 0 0 1
    outer loop
      vertex 86.2361 -88.8042 2
      vertex 85.2512 -88.9921 2
      vertex 85.7495 -88.9291 2
    endloop
  endfacet
  facet normal 0 0 1
    outer loop
      vertex -89 85 2
      vertex 85.2512 88.9921 2
      vertex -85.2512 88.9921 2
    endloop
  endfacet
  facet normal 0 0 1
    outer loop
      vertex -89 -85 2
      vertex 89 -85 2
      vertex -89 85 2
    endloop
  endfacet
  facet normal 0 0 1
    outer loop
      vertex -89 85 2
      vertex -85.2512 88.9921 2
      vertex -85.7495 88.9291 2
    endloop
  endfacet
  facet normal 0 0 1
    outer loop
      vertex 89 -85 2
      vertex -89 -85 2
      vertex 85.2512 -88.9921 2
    endloop
  endfacet
  facet normal 0 0 1
    outer loop
      vertex -89 85 2
      vertex -85.7495 88.9291 2
      vertex -86.2361 88.8042 2
    endloop
  endfacet
  facet normal 0 0 1
    outer loop
      vertex 85.2512 -88.9921 2
      vertex -89 -85 2
      vertex -85.2512 -88.9921 2
    endloop
  endfacet
  facet normal 0 0 1
    outer loop
      vertex -89 85 2
      vertex -86.2361 88.8042 2
      vertex -86.7031 88.6193 2
    endloop
  endfacet
  facet normal 0 0 1
    outer loop
      vertex -85.2512 -88.9921 2
      vertex -89 -85 2
      vertex -85.7495 -88.9291 2
    endloop
  endfacet
  facet normal 0 0 1
    outer loop
      vertex -89 85 2
      vertex -86.7031 88.6193 2
      vertex -87.1433 88.3773 2
    endloop
  endfacet
  facet normal 0 0 1
    outer loop
      vertex -85.7495 -88.9291 2
      vertex -89 -85 2
      vertex -86.2361 -88.8042 2
    endloop
  endfacet
  facet normal 0 0 1
    outer loop
      vertex -89 85 2
      vertex -87.1433 88.3773 2
      vertex -87.5497 88.0821 2
    endloop
  endfacet
  facet normal 0 0 1
    outer loop
      vertex -86.2361 -88.8042 2
      vertex -89 -85 2
      vertex -86.7031 -88.6193 2
    endloop
  endfacet
  facet normal 0 0 1
    outer loop
      vertex -89 85 2
      vertex -87.5497 88.0821 2
      vertex -87.9159 87.7382 2
    endloop
  endfacet
  facet normal 0 0 1
    outer loop
      vertex -86.7031 -88.6193 2
      vertex -89 -85 2
      vertex -87.1433 -88.3773 2
    endloop
  endfacet
  facet normal 0 0 1
    outer loop
      vertex -89 85 2
      vertex -87.9159 87.7382 2
      vertex -88.2361 87.3511 2
    endloop
  endfacet
  facet normal 0 0 1
    outer loop
      vertex -87.1433 -88.3773 2
      vertex -89 -85 2
      vertex -87.5497 -88.0821 2
    endloop
  endfacet
  facet normal 0 0 1
    outer loop
      vertex -89 85 2
      vertex -88.2361 87.3511 2
      vertex -88.5052 86.927 2
    endloop
  endfacet
  facet normal 0 0 1
    outer loop
      vertex -87.5497 -88.0821 2
      vertex -89 -85 2
      vertex -87.9159 -87.7382 2
    endloop
  endfacet
  facet normal 0 0 1
    outer loop
      vertex -89 85 2
      vertex -88.5052 86.927 2
      vertex -88.7191 86.4725 2
    endloop
  endfacet
  facet normal 0 0 1
    outer loop
      vertex -87.9159 -87.7382 2
      vertex -89 -85 2
      vertex -88.2361 -87.3511 2
    endloop
  endfacet
  facet normal 0 0 1
    outer loop
      vertex -89 85 2
      vertex -88.7191 86.4725 2
      vertex -88.8743 85.9948 2
    endloop
  endfacet
  facet normal 0 0 1
    outer loop
      vertex -88.2361 -87.3511 2
      vertex -89 -85 2
      vertex -88.5052 -86.927 2
    endloop
  endfacet
  facet normal 0 0 1
    outer loop
      vertex -89 85 2
      vertex -88.8743 85.9948 2
      vertex -88.9685 85.5013 2
    endloop
  endfacet
  facet normal 0 0 1
    outer loop
      vertex -88.5052 -86.927 2
      vertex -89 -85 2
      vertex -88.7191 -86.4725 2
    endloop
  endfacet
  facet normal 0 0 1
    outer loop
      vertex -88.7191 -86.4725 2
      vertex -89 -85 2
      vertex -88.8743 -85.9948 2
    endloop
  endfacet
  facet normal 0 0 1
    outer loop
      vertex -88.8743 -85.9948 2
      vertex -89 -85 2
      vertex -88.9685 -85.5013 2
    endloop
  endfacet
  facet normal 0.982265 0.187496 0
    outer loop
      vertex -88.8743 -85.9948 18
      vertex -88.9685 -85.5013 2
      vertex -88.9685 -85.5013 18
    endloop
  endfacet
  facet normal 0.982265 0.187496 0
    outer loop
      vertex -88.9685 -85.5013 2
      vertex -88.8743 -85.9948 18
      vertex -88.8743 -85.9948 2
    endloop
  endfacet
  facet normal 0.844366 0.535767 0
    outer loop
      vertex -88.2361 -87.3511 18
      vertex -88.5052 -86.927 2
      vertex -88.5052 -86.927 18
    endloop
  endfacet
  facet normal 0.844366 0.535767 0
    outer loop
      vertex -88.5052 -86.927 2
      vertex -88.2361 -87.3511 18
      vertex -88.2361 -87.3511 2
    endloop
  endfacet
  facet normal 0.844366 -0.535767 0
    outer loop
      vertex -88.5052 86.927 18
      vertex -88.2361 87.3511 2
      vertex -88.2361 87.3511 18
    endloop
  endfacet
  facet normal 0.844366 -0.535767 0
    outer loop
      vertex -88.2361 87.3511 2
      vertex -88.5052 86.927 18
      vertex -88.5052 86.927 2
    endloop
  endfacet
  facet normal 0.982265 -0.187496 0
    outer loop
      vertex -88.9685 85.5013 18
      vertex -88.8743 85.9948 2
      vertex -88.8743 85.9948 18
    endloop
  endfacet
  facet normal 0.982265 -0.187496 0
    outer loop
      vertex -88.8743 85.9948 2
      vertex -88.9685 85.5013 18
      vertex -88.9685 85.5013 2
    endloop
  endfacet
  facet normal 0.998032 -0.0627129 0
    outer loop
      vertex -89 85 18
      vertex -88.9685 85.5013 2
      vertex -88.9685 85.5013 18
    endloop
  endfacet
  facet normal 0.998032 -0.0627129 0
    outer loop
      vertex -88.9685 85.5013 2
      vertex -89 85 18
      vertex -89 85 2
    endloop
  endfacet
  facet normal 0.587698 -0.80908 0
    outer loop
      vertex -87.5497 88.0821 2
      vertex -87.1433 88.3773 18
      vertex -87.5497 88.0821 18
    endloop
  endfacet
  facet normal 0.587698 -0.80908 0
    outer loop
      vertex -87.1433 88.3773 18
      vertex -87.5497 88.0821 2
      vertex -87.1433 88.3773 2
    endloop
  endfacet
  facet normal 0.368127 -0.929775 0
    outer loop
      vertex -86.7031 88.6193 2
      vertex -86.2361 88.8042 18
      vertex -86.7031 88.6193 18
    endloop
  endfacet
  facet normal 0.368127 -0.929775 0
    outer loop
      vertex -86.2361 88.8042 18
      vertex -86.7031 88.6193 2
      vertex -86.2361 88.8042 2
    endloop
  endfacet
  facet normal -0.844366 -0.535767 0
    outer loop
      vertex 88.5052 86.927 2
      vertex 88.2361 87.3511 18
      vertex 88.2361 87.3511 2
    endloop
  endfacet
  facet normal -0.844366 -0.535767 0
    outer loop
      vertex 88.2361 87.3511 18
      vertex 88.5052 86.927 2
      vertex 88.5052 86.927 18
    endloop
  endfacet
  facet normal -0.904805 -0.425826 0
    outer loop
      vertex 88.7191 86.4725 2
      vertex 88.5052 86.927 18
      vertex 88.5052 86.927 2
    endloop
  endfacet
  facet normal -0.904805 -0.425826 0
    outer loop
      vertex 88.5052 86.927 18
      vertex 88.7191 86.4725 2
      vertex 88.7191 86.4725 18
    endloop
  endfacet
  facet normal -0.998032 0.0627129 0
    outer loop
      vertex 88.9685 -85.5013 2
      vertex 89 -85 18
      vertex 89 -85 2
    endloop
  endfacet
  facet normal -0.998032 0.0627129 0
    outer loop
      vertex 89 -85 18
      vertex 88.9685 -85.5013 2
      vertex 88.9685 -85.5013 18
    endloop
  endfacet
  facet normal -0.684563 0.728953 0
    outer loop
      vertex 87.9159 -87.7382 2
      vertex 87.5497 -88.0821 18
      vertex 87.9159 -87.7382 18
    endloop
  endfacet
  facet normal -0.684563 0.728953 0
    outer loop
      vertex 87.5497 -88.0821 18
      vertex 87.9159 -87.7382 2
      vertex 87.5497 -88.0821 2
    endloop
  endfacet
  facet normal -0.24862 0.968601 0
    outer loop
      vertex 86.2361 -88.8042 2
      vertex 85.7495 -88.9291 18
      vertex 86.2361 -88.8042 18
    endloop
  endfacet
  facet normal -0.24862 0.968601 0
    outer loop
      vertex 85.7495 -88.9291 18
      vertex 86.2361 -88.8042 2
      vertex 85.7495 -88.9291 2
    endloop
  endfacet
  facet normal -0.125431 0.992102 0
    outer loop
      vertex 85.7495 -88.9291 2
      vertex 85.2512 -88.9921 18
      vertex 85.7495 -88.9291 18
    endloop
  endfacet
  facet normal -0.125431 0.992102 0
    outer loop
      vertex 85.2512 -88.9921 18
      vertex 85.7495 -88.9291 2
      vertex 85.2512 -88.9921 2
    endloop
  endfacet
endsolid OpenSCAD_Model
