solid OpenSCAD_Model
  facet normal 1 -0 0
    outer loop
      vertex 112.5 -32.5 12
      vertex 112.5 32.5 0
      vertex 112.5 32.5 12
    endloop
  endfacet
  facet normal 1 0 0
    outer loop
      vertex 112.5 32.5 0
      vertex 112.5 -32.5 12
      vertex 112.5 -32.5 0
    endloop
  endfacet
  facet normal 0 1 -0
    outer loop
      vertex 107.814 37.4901 0
      vertex -107.814 37.4901 12
      vertex 107.814 37.4901 12
    endloop
  endfacet
  facet normal 0 1 0
    outer loop
      vertex -107.814 37.4901 12
      vertex 107.814 37.4901 0
      vertex -107.814 37.4901 0
    endloop
  endfacet
  facet normal 0.684386 0.72912 -0
    outer loop
      vertex 111.145 35.9227 0
      vertex 110.687 36.3526 12
      vertex 111.145 35.9227 12
    endloop
  endfacet
  facet normal 0.684386 0.72912 0
    outer loop
      vertex 110.687 36.3526 12
      vertex 111.145 35.9227 0
      vertex 110.687 36.3526 0
    endloop
  endfacet
  facet normal -0.125328 0.992115 0
    outer loop
      vertex -107.814 37.4901 0
      vertex -108.437 37.4114 12
      vertex -107.814 37.4901 12
    endloop
  endfacet
  facet normal -0.125328 0.992115 0
    outer loop
      vertex -108.437 37.4114 12
      vertex -107.814 37.4901 0
      vertex -108.437 37.4114 0
    endloop
  endfacet
  facet normal 0 -1 0
    outer loop
      vertex -107.814 -37.4901 0
      vertex 107.814 -37.4901 12
      vertex -107.814 -37.4901 12
    endloop
  endfacet
  facet normal 0 -1 -0
    outer loop
      vertex 107.814 -37.4901 12
      vertex -107.814 -37.4901 0
      vertex 107.814 -37.4901 0
    endloop
  endfacet
  facet normal -1 0 0
    outer loop
      vertex -112.5 -32.5 0
      vertex -112.5 32.5 12
      vertex -112.5 32.5 0
    endloop
  endfacet
  facet normal -1 -0 0
    outer loop
      vertex -112.5 32.5 12
      vertex -112.5 -32.5 0
      vertex -112.5 -32.5 12
    endloop
  endfacet
  facet normal 0.125328 0.992115 -0
    outer loop
      vertex 108.437 37.4114 0
      vertex 107.814 37.4901 12
      vertex 108.437 37.4114 12
    endloop
  endfacet
  facet normal 0.125328 0.992115 0
    outer loop
      vertex 107.814 37.4901 12
      vertex 108.437 37.4114 0
      vertex 107.814 37.4901 0
    endloop
  endfacet
  facet normal 0.998069 0.0621106 0
    outer loop
      vertex 112.5 32.5 12
      vertex 112.461 33.1267 0
      vertex 112.461 33.1267 12
    endloop
  endfacet
  facet normal 0.998069 0.0621106 0
    outer loop
      vertex 112.461 33.1267 0
      vertex 112.5 32.5 12
      vertex 112.5 32.5 0
    endloop
  endfacet
  facet normal -0.368094 -0.929788 0
    outer loop
      vertex -109.629 -37.0241 0
      vertex -109.045 -37.2553 12
      vertex -109.629 -37.0241 12
    endloop
  endfacet
  facet normal -0.368094 -0.929788 -0
    outer loop
      vertex -109.045 -37.2553 12
      vertex -109.629 -37.0241 0
      vertex -109.045 -37.2553 0
    endloop
  endfacet
  facet normal -0.368094 0.929788 0
    outer loop
      vertex -109.045 37.2553 0
      vertex -109.629 37.0241 12
      vertex -109.045 37.2553 12
    endloop
  endfacet
  facet normal -0.368094 0.929788 0
    outer loop
      vertex -109.629 37.0241 12
      vertex -109.045 37.2553 0
      vertex -109.629 37.0241 0
    endloop
  endfacet
  facet normal -0.982188 0.187902 0
    outer loop
      vertex -112.461 33.1267 0
      vertex -112.343 33.7435 12
      vertex -112.343 33.7435 0
    endloop
  endfacet
  facet normal -0.982188 0.187902 0
    outer loop
      vertex -112.343 33.7435 12
      vertex -112.461 33.1267 0
      vertex -112.461 33.1267 12
    endloop
  endfacet
  facet normal 0.951061 0.309003 0
    outer loop
      vertex 112.343 33.7435 12
      vertex 112.149 34.3406 0
      vertex 112.149 34.3406 12
    endloop
  endfacet
  facet normal 0.951061 0.309003 0
    outer loop
      vertex 112.149 34.3406 0
      vertex 112.343 33.7435 12
      vertex 112.343 33.7435 0
    endloop
  endfacet
  facet normal -0.684386 0.72912 0
    outer loop
      vertex -110.687 36.3526 0
      vertex -111.145 35.9227 12
      vertex -110.687 36.3526 12
    endloop
  endfacet
  facet normal -0.684386 0.72912 0
    outer loop
      vertex -111.145 35.9227 12
      vertex -110.687 36.3526 0
      vertex -111.145 35.9227 0
    endloop
  endfacet
  facet normal 0 0 1
    outer loop
      vertex 111.5 32.5 12
      vertex 112.5 32.5 12
      vertex 112.461 33.1267 12
    endloop
  endfacet
  facet normal 0 0 1
    outer loop
      vertex 112.5 32.5 12
      vertex 111.5 32.5 12
      vertex 112.5 -32.5 12
    endloop
  endfacet
  facet normal 0 0 1
    outer loop
      vertex 111.468 33.0013 12
      vertex 112.461 33.1267 12
      vertex 112.343 33.7435 12
    endloop
  endfacet
  facet normal 0 0 1
    outer loop
      vertex 111.5 -32.5 12
      vertex 112.5 -32.5 12
      vertex 111.5 32.5 12
    endloop
  endfacet
  facet normal 0 0 1
    outer loop
      vertex 111.374 33.4948 12
      vertex 112.343 33.7435 12
      vertex 112.149 34.3406 12
    endloop
  endfacet
  facet normal 0 0 1
    outer loop
      vertex 112.5 -32.5 12
      vertex 111.5 -32.5 12
      vertex 112.461 -33.1267 12
    endloop
  endfacet
  facet normal 0 0 1
    outer loop
      vertex 111.219 33.9725 12
      vertex 112.149 34.3406 12
      vertex 111.882 34.9088 12
    endloop
  endfacet
  facet normal -0 0 1
    outer loop
      vertex 111.468 -33.0013 12
      vertex 112.461 -33.1267 12
      vertex 111.5 -32.5 12
    endloop
  endfacet
  facet normal 0 0 1
    outer loop
      vertex 111.005 34.427 12
      vertex 111.882 34.9088 12
      vertex 111.545 35.4389 12
    endloop
  endfacet
  facet normal 0 0 1
    outer loop
      vertex 112.461 -33.1267 12
      vertex 111.468 -33.0013 12
      vertex 112.343 -33.7435 12
    endloop
  endfacet
  facet normal -0 0 1
    outer loop
      vertex 111.374 -33.4948 12
      vertex 112.343 -33.7435 12
      vertex 111.468 -33.0013 12
    endloop
  endfacet
  facet normal 0 0 1
    outer loop
      vertex 112.461 33.1267 12
      vertex 111.468 33.0013 12
      vertex 111.5 32.5 12
    endloop
  endfacet
  facet normal 0 0 1
    outer loop
      vertex 112.343 33.7435 12
      vertex 111.374 33.4948 12
      vertex 111.468 33.0013 12
    endloop
  endfacet
  facet normal 0 0 1
    outer loop
      vertex 112.149 34.3406 12
      vertex 111.219 33.9725 12
      vertex 111.374 33.4948 12
    endloop
  endfacet
  facet normal 0 0 1
    outer loop
      vertex 110.736 34.8511 12
      vertex 111.545 35.4389 12
      vertex 111.145 35.9227 12
    endloop
  endfacet
  facet normal 0 0 1
    outer loop
      vertex 111.882 34.9088 12
      vertex 111.005 34.427 12
      vertex 111.219 33.9725 12
    endloop
  endfacet
  facet normal 0 0 1
    outer loop
      vertex 111.545 35.4389 12
      vertex 110.736 34.8511 12
      vertex 111.005 34.427 12
    endloop
  endfacet
  facet normal 0 0 1
    outer loop
      vertex 110.416 35.2382 12
      vertex 111.145 35.9227 12
      vertex 110.687 36.3526 12
    endloop
  endfacet
  facet normal 0 0 1
    outer loop
      vertex 111.145 35.9227 12
      vertex 110.416 35.2382 12
      vertex 110.736 34.8511 12
    endloop
  endfacet
  facet normal 0 0 1
    outer loop
      vertex 110.05 35.5821 12
      vertex 110.687 36.3526 12
      vertex 110.179 36.7216 12
    endloop
  endfacet
  facet normal 0 0 1
    outer loop
      vertex 110.687 36.3526 12
      vertex 110.05 35.5821 12
      vertex 110.416 35.2382 12
    endloop
  endfacet
  facet normal 0 0 1
    outer loop
      vertex 110.179 36.7216 12
      vertex 109.643 35.8773 12
      vertex 110.05 35.5821 12
    endloop
  endfacet
  facet normal 0 0 1
    outer loop
      vertex 109.629 37.0241 12
      vertex 109.643 35.8773 12
      vertex 110.179 36.7216 12
    endloop
  endfacet
  facet normal 0 0 1
    outer loop
      vertex 109.629 37.0241 12
      vertex 109.203 36.1193 12
      vertex 109.643 35.8773 12
    endloop
  endfacet
  facet normal 0 0 1
    outer loop
      vertex 109.045 37.2553 12
      vertex 109.203 36.1193 12
      vertex 109.629 37.0241 12
    endloop
  endfacet
  facet normal 0 0 1
    outer loop
      vertex 109.045 37.2553 12
      vertex 108.736 36.3042 12
      vertex 109.203 36.1193 12
    endloop
  endfacet
  facet normal 0 0 1
    outer loop
      vertex 108.437 37.4114 12
      vertex 108.736 36.3042 12
      vertex 109.045 37.2553 12
    endloop
  endfacet
  facet normal 0 0 1
    outer loop
      vertex 108.437 37.4114 12
      vertex 108.25 36.4291 12
      vertex 108.736 36.3042 12
    endloop
  endfacet
  facet normal 0 0 1
    outer loop
      vertex 107.814 37.4901 12
      vertex 108.25 36.4291 12
      vertex 108.437 37.4114 12
    endloop
  endfacet
  facet normal 0 0 1
    outer loop
      vertex 107.814 37.4901 12
      vertex 107.751 36.4921 12
      vertex 108.25 36.4291 12
    endloop
  endfacet
  facet normal 0 0 1
    outer loop
      vertex 107.814 37.4901 12
      vertex -107.751 36.4921 12
      vertex 107.751 36.4921 12
    endloop
  endfacet
  facet normal -0 0 1
    outer loop
      vertex -107.814 37.4901 12
      vertex -107.751 36.4921 12
      vertex 107.814 37.4901 12
    endloop
  endfacet
  facet normal 0 0 1
    outer loop
      vertex -107.814 37.4901 12
      vertex -108.25 36.4291 12
      vertex -107.751 36.4921 12
    endloop
  endfacet
  facet normal -0 0 1
    outer loop
      vertex -108.437 37.4114 12
      vertex -108.25 36.4291 12
      vertex -107.814 37.4901 12
    endloop
  endfacet
  facet normal 0 0 1
    outer loop
      vertex -108.437 37.4114 12
      vertex -108.736 36.3042 12
      vertex -108.25 36.4291 12
    endloop
  endfacet
  facet normal -0 0 1
    outer loop
      vertex -109.045 37.2553 12
      vertex -108.736 36.3042 12
      vertex -108.437 37.4114 12
    endloop
  endfacet
  facet normal 0 0 1
    outer loop
      vertex -109.045 37.2553 12
      vertex -109.203 36.1193 12
      vertex -108.736 36.3042 12
    endloop
  endfacet
  facet normal -0 0 1
    outer loop
      vertex -109.629 37.0241 12
      vertex -109.203 36.1193 12
      vertex -109.045 37.2553 12
    endloop
  endfacet
  facet normal 0 0 1
    outer loop
      vertex -109.629 37.0241 12
      vertex -109.643 35.8773 12
      vertex -109.203 36.1193 12
    endloop
  endfacet
  facet normal -0 0 1
    outer loop
      vertex -110.179 36.7216 12
      vertex -109.643 35.8773 12
      vertex -109.629 37.0241 12
    endloop
  endfacet
  facet normal 0 0 1
    outer loop
      vertex -109.643 35.8773 12
      vertex -110.179 36.7216 12
      vertex -110.05 35.5821 12
    endloop
  endfacet
  facet normal -0 0 1
    outer loop
      vertex -110.687 36.3526 12
      vertex -110.05 35.5821 12
      vertex -110.179 36.7216 12
    endloop
  endfacet
  facet normal 0 0 1
    outer loop
      vertex -110.05 35.5821 12
      vertex -110.687 36.3526 12
      vertex -110.416 35.2382 12
    endloop
  endfacet
  facet normal -0 0 1
    outer loop
      vertex -111.145 35.9227 12
      vertex -110.416 35.2382 12
      vertex -110.687 36.3526 12
    endloop
  endfacet
  facet normal 0 0 1
    outer loop
      vertex -110.416 35.2382 12
      vertex -111.145 35.9227 12
      vertex -110.736 34.8511 12
    endloop
  endfacet
  facet normal -0 0 1
    outer loop
      vertex -111.545 35.4389 12
      vertex -110.736 34.8511 12
      vertex -111.145 35.9227 12
    endloop
  endfacet
  facet normal 0 0 1
    outer loop
      vertex -110.736 34.8511 12
      vertex -111.545 35.4389 12
      vertex -111.005 34.427 12
    endloop
  endfacet
  facet normal -0 0 1
    outer loop
      vertex -111.882 34.9088 12
      vertex -111.005 34.427 12
      vertex -111.545 35.4389 12
    endloop
  endfacet
  facet normal 0 0 1
    outer loop
      vertex -111.005 34.427 12
      vertex -111.882 34.9088 12
      vertex -111.219 33.9725 12
    endloop
  endfacet
  facet normal -0 0 1
    outer loop
      vertex -112.343 33.7435 12
      vertex -111.374 33.4948 12
      vertex -112.149 34.3406 12
    endloop
  endfacet
  facet normal 0 0 1
    outer loop
      vertex -111.219 33.9725 12
      vertex -112.149 34.3406 12
      vertex -111.374 33.4948 12
    endloop
  endfacet
  facet normal -0 0 1
    outer loop
      vertex -112.149 34.3406 12
      vertex -111.219 33.9725 12
      vertex -111.882 34.9088 12
    endloop
  endfacet
  facet normal 0 0 1
    outer loop
      vertex 112.343 -33.7435 12
      vertex 111.374 -33.4948 12
      vertex 112.149 -34.3406 12
    endloop
  endfacet
  facet normal -0 0 1
    outer loop
      vertex 111.219 -33.9725 12
      vertex 112.149 -34.3406 12
      vertex 111.374 -33.4948 12
    endloop
  endfacet
  facet normal 0 0 1
    outer loop
      vertex 112.149 -34.3406 12
      vertex 111.219 -33.9725 12
      vertex 111.882 -34.9088 12
    endloop
  endfacet
  facet normal -0 0 1
    outer loop
      vertex 111.005 -34.427 12
      vertex 111.882 -34.9088 12
      vertex 111.219 -33.9725 12
    endloop
  endfacet
  facet normal 0 0 1
    outer loop
      vertex 111.882 -34.9088 12
      vertex 111.005 -34.427 12
      vertex 111.545 -35.4389 12
    endloop
  endfacet
  facet normal -0 0 1
    outer loop
      vertex 110.736 -34.8511 12
      vertex 111.545 -35.4389 12
      vertex 111.005 -34.427 12
    endloop
  endfacet
  facet normal 0 0 1
    outer loop
      vertex 111.545 -35.4389 12
      vertex 110.736 -34.8511 12
      vertex 111.145 -35.9227 12
    endloop
  endfacet
  facet normal -0 0 1
    outer loop
      vertex 110.416 -35.2382 12
      vertex 111.145 -35.9227 12
      vertex 110.736 -34.8511 12
    endloop
  endfacet
  facet normal 0 0 1
    outer loop
      vertex 111.145 -35.9227 12
      vertex 110.416 -35.2382 12
      vertex 110.687 -36.3526 12
    endloop
  endfacet
  facet normal -0 0 1
    outer loop
      vertex 110.05 -35.5821 12
      vertex 110.687 -36.3526 12
      vertex 110.416 -35.2382 12
    endloop
  endfacet
  facet normal 0 0 1
    outer loop
      vertex 110.687 -36.3526 12
      vertex 110.05 -35.5821 12
      vertex 110.179 -36.7216 12
    endloop
  endfacet
  facet normal -0 0 1
    outer loop
      vertex 109.643 -35.8773 12
      vertex 110.179 -36.7216 12
      vertex 110.05 -35.5821 12
    endloop
  endfacet
  facet normal 0 0 1
    outer loop
      vertex 109.643 -35.8773 12
      vertex 109.629 -37.0241 12
      vertex 110.179 -36.7216 12
    endloop
  endfacet
  facet normal -0 0 1
    outer loop
      vertex 109.203 -36.1193 12
      vertex 109.629 -37.0241 12
      vertex 109.643 -35.8773 12
    endloop
  endfacet
  facet normal 0 0 1
    outer loop
      vertex 109.203 -36.1193 12
      vertex 109.045 -37.2553 12
      vertex 109.629 -37.0241 12
    endloop
  endfacet
  facet normal -0 0 1
    outer loop
      vertex 108.736 -36.3042 12
      vertex 109.045 -37.2553 12
      vertex 109.203 -36.1193 12
    endloop
  endfacet
  facet normal 0 0 1
    outer loop
      vertex 108.736 -36.3042 12
      vertex 108.437 -37.4114 12
      vertex 109.045 -37.2553 12
    endloop
  endfacet
  facet normal -0 0 1
    outer loop
      vertex 108.25 -36.4291 12
      vertex 108.437 -37.4114 12
      vertex 108.736 -36.3042 12
    endloop
  endfacet
  facet normal 0 0 1
    outer loop
      vertex 108.25 -36.4291 12
      vertex 107.814 -37.4901 12
      vertex 108.437 -37.4114 12
    endloop
  endfacet
  facet normal -0 0 1
    outer loop
      vertex 107.751 -36.4921 12
      vertex 107.814 -37.4901 12
      vertex 108.25 -36.4291 12
    endloop
  endfacet
  facet normal -0 0 1
    outer loop
      vertex -107.751 -36.4921 12
      vertex 107.814 -37.4901 12
      vertex 107.751 -36.4921 12
    endloop
  endfacet
  facet normal 0 0 1
    outer loop
      vertex -107.751 -36.4921 12
      vertex -107.814 -37.4901 12
      vertex 107.814 -37.4901 12
    endloop
  endfacet
  facet normal 0 0 1
    outer loop
      vertex -108.25 -36.4291 12
      vertex -107.814 -37.4901 12
      vertex -107.751 -36.4921 12
    endloop
  endfacet
  facet normal 0 0 1
    outer loop
      vertex -108.25 -36.4291 12
      vertex -108.437 -37.4114 12
      vertex -107.814 -37.4901 12
    endloop
  endfacet
  facet normal 0 0 1
    outer loop
      vertex -108.736 -36.3042 12
      vertex -108.437 -37.4114 12
      vertex -108.25 -36.4291 12
    endloop
  endfacet
  facet normal 0 0 1
    outer loop
      vertex -108.736 -36.3042 12
      vertex -109.045 -37.2553 12
      vertex -108.437 -37.4114 12
    endloop
  endfacet
  facet normal 0 0 1
    outer loop
      vertex -109.203 -36.1193 12
      vertex -109.045 -37.2553 12
      vertex -108.736 -36.3042 12
    endloop
  endfacet
  facet normal 0 0 1
    outer loop
      vertex -109.203 -36.1193 12
      vertex -109.629 -37.0241 12
      vertex -109.045 -37.2553 12
    endloop
  endfacet
  facet normal 0 0 1
    outer loop
      vertex -109.643 -35.8773 12
      vertex -109.629 -37.0241 12
      vertex -109.203 -36.1193 12
    endloop
  endfacet
  facet normal 0 0 1
    outer loop
      vertex -110.179 -36.7216 12
      vertex -109.643 -35.8773 12
      vertex -110.05 -35.5821 12
    endloop
  endfacet
  facet normal 0 0 1
    outer loop
      vertex -109.643 -35.8773 12
      vertex -110.179 -36.7216 12
      vertex -109.629 -37.0241 12
    endloop
  endfacet
  facet normal 0 0 1
    outer loop
      vertex -110.687 -36.3526 12
      vertex -110.05 -35.5821 12
      vertex -110.416 -35.2382 12
    endloop
  endfacet
  facet normal 0 0 1
    outer loop
      vertex -110.05 -35.5821 12
      vertex -110.687 -36.3526 12
      vertex -110.179 -36.7216 12
    endloop
  endfacet
  facet normal 0 0 1
    outer loop
      vertex -111.145 -35.9227 12
      vertex -110.416 -35.2382 12
      vertex -110.736 -34.8511 12
    endloop
  endfacet
  facet normal 0 0 1
    outer loop
      vertex -111.545 -35.4389 12
      vertex -110.736 -34.8511 12
      vertex -111.005 -34.427 12
    endloop
  endfacet
  facet normal 0 0 1
    outer loop
      vertex -110.416 -35.2382 12
      vertex -111.145 -35.9227 12
      vertex -110.687 -36.3526 12
    endloop
  endfacet
  facet normal 0 0 1
    outer loop
      vertex -111.882 -34.9088 12
      vertex -111.005 -34.427 12
      vertex -111.219 -33.9725 12
    endloop
  endfacet
  facet normal 0 0 1
    outer loop
      vertex -112.149 -34.3406 12
      vertex -111.219 -33.9725 12
      vertex -111.374 -33.4948 12
    endloop
  endfacet
  facet normal 0 0 1
    outer loop
      vertex -112.343 -33.7435 12
      vertex -111.374 -33.4948 12
      vertex -111.468 -33.0013 12
    endloop
  endfacet
  facet normal 0 0 1
    outer loop
      vertex -110.736 -34.8511 12
      vertex -111.545 -35.4389 12
      vertex -111.145 -35.9227 12
    endloop
  endfacet
  facet normal 0 0 1
    outer loop
      vertex -112.461 -33.1267 12
      vertex -111.468 -33.0013 12
      vertex -111.5 -32.5 12
    endloop
  endfacet
  facet normal 0 0 1
    outer loop
      vertex -111.5 32.5 12
      vertex -112.5 32.5 12
      vertex -111.5 -32.5 12
    endloop
  endfacet
  facet normal 0 0 1
    outer loop
      vertex -111.374 33.4948 12
      vertex -112.343 33.7435 12
      vertex -111.468 33.0013 12
    endloop
  endfacet
  facet normal 0 0 1
    outer loop
      vertex -112.5 -32.5 12
      vertex -111.5 -32.5 12
      vertex -112.5 32.5 12
    endloop
  endfacet
  facet normal -0 0 1
    outer loop
      vertex -112.461 33.1267 12
      vertex -111.468 33.0013 12
      vertex -112.343 33.7435 12
    endloop
  endfacet
  facet normal 0 -0 1
    outer loop
      vertex -112.461 -33.1267 12
      vertex -111.5 -32.5 12
      vertex -112.5 -32.5 12
    endloop
  endfacet
  facet normal 0 0 1
    outer loop
      vertex -111.468 33.0013 12
      vertex -112.461 33.1267 12
      vertex -111.5 32.5 12
    endloop
  endfacet
  facet normal 0 0 1
    outer loop
      vertex -111.005 -34.427 12
      vertex -111.882 -34.9088 12
      vertex -111.545 -35.4389 12
    endloop
  endfacet
  facet normal 0 0 1
    outer loop
      vertex -111.5 32.5 12
      vertex -112.461 33.1267 12
      vertex -112.5 32.5 12
    endloop
  endfacet
  facet normal 0 0 1
    outer loop
      vertex -111.219 -33.9725 12
      vertex -112.149 -34.3406 12
      vertex -111.882 -34.9088 12
    endloop
  endfacet
  facet normal 0 0 1
    outer loop
      vertex -111.374 -33.4948 12
      vertex -112.343 -33.7435 12
      vertex -112.149 -34.3406 12
    endloop
  endfacet
  facet normal 0 0 1
    outer loop
      vertex -111.468 -33.0013 12
      vertex -112.461 -33.1267 12
      vertex -112.343 -33.7435 12
    endloop
  endfacet
  facet normal -0.998069 0.0621106 0
    outer loop
      vertex -112.5 32.5 0
      vertex -112.461 33.1267 12
      vertex -112.461 33.1267 0
    endloop
  endfacet
  facet normal -0.998069 0.0621106 0
    outer loop
      vertex -112.461 33.1267 12
      vertex -112.5 32.5 0
      vertex -112.5 32.5 12
    endloop
  endfacet
  facet normal -0.951061 0.309003 0
    outer loop
      vertex -112.343 33.7435 0
      vertex -112.149 34.3406 12
      vertex -112.149 34.3406 0
    endloop
  endfacet
  facet normal -0.951061 0.309003 0
    outer loop
      vertex -112.149 34.3406 12
      vertex -112.343 33.7435 0
      vertex -112.343 33.7435 12
    endloop
  endfacet
  facet normal 0.770696 0.637202 0
    outer loop
      vertex 111.545 35.4389 12
      vertex 111.145 35.9227 0
      vertex 111.145 35.9227 12
    endloop
  endfacet
  facet normal 0.770696 0.637202 0
    outer loop
      vertex 111.145 35.9227 0
      vertex 111.545 35.4389 12
      vertex 111.545 35.4389 0
    endloop
  endfacet
  facet normal 0.982188 0.187902 0
    outer loop
      vertex 112.461 33.1267 12
      vertex 112.343 33.7435 0
      vertex 112.343 33.7435 12
    endloop
  endfacet
  facet normal 0.982188 0.187902 0
    outer loop
      vertex 112.343 33.7435 0
      vertex 112.461 33.1267 12
      vertex 112.461 33.1267 0
    endloop
  endfacet
  facet normal -0.248678 0.968586 0
    outer loop
      vertex -108.437 37.4114 0
      vertex -109.045 37.2553 12
      vertex -108.437 37.4114 12
    endloop
  endfacet
  facet normal -0.248678 0.968586 0
    outer loop
      vertex -109.045 37.2553 12
      vertex -108.437 37.4114 0
      vertex -109.045 37.2553 0
    endloop
  endfacet
  facet normal 0.770696 -0.637202 0
    outer loop
      vertex 111.145 -35.9227 12
      vertex 111.545 -35.4389 0
      vertex 111.545 -35.4389 12
    endloop
  endfacet
  facet normal 0.770696 -0.637202 0
    outer loop
      vertex 111.545 -35.4389 0
      vertex 111.145 -35.9227 12
      vertex 111.145 -35.9227 0
    endloop
  endfacet
  facet normal 0.951061 -0.309003 0
    outer loop
      vertex 112.149 -34.3406 12
      vertex 112.343 -33.7435 0
      vertex 112.343 -33.7435 12
    endloop
  endfacet
  facet normal 0.951061 -0.309003 0
    outer loop
      vertex 112.343 -33.7435 0
      vertex 112.149 -34.3406 12
      vertex 112.149 -34.3406 0
    endloop
  endfacet
  facet normal -0.905057 -0.425291 0
    outer loop
      vertex -111.882 -34.9088 0
      vertex -112.149 -34.3406 12
      vertex -112.149 -34.3406 0
    endloop
  endfacet
  facet normal -0.905057 -0.425291 0
    outer loop
      vertex -112.149 -34.3406 12
      vertex -111.882 -34.9088 0
      vertex -111.882 -34.9088 12
    endloop
  endfacet
  facet normal -0.770696 -0.637202 0
    outer loop
      vertex -111.145 -35.9227 0
      vertex -111.545 -35.4389 12
      vertex -111.545 -35.4389 0
    endloop
  endfacet
  facet normal -0.770696 -0.637202 0
    outer loop
      vertex -111.545 -35.4389 12
      vertex -111.145 -35.9227 0
      vertex -111.145 -35.9227 12
    endloop
  endfacet
  facet normal -0.684386 -0.72912 0
    outer loop
      vertex -111.145 -35.9227 0
      vertex -110.687 -36.3526 12
      vertex -111.145 -35.9227 12
    endloop
  endfacet
  facet normal -0.684386 -0.72912 -0
    outer loop
      vertex -110.687 -36.3526 12
      vertex -111.145 -35.9227 0
      vertex -110.687 -36.3526 0
    endloop
  endfacet
  facet normal -0.248678 -0.968586 0
    outer loop
      vertex -109.045 -37.2553 0
      vertex -108.437 -37.4114 12
      vertex -109.045 -37.2553 12
    endloop
  endfacet
  facet normal -0.248678 -0.968586 -0
    outer loop
      vertex -108.437 -37.4114 12
      vertex -109.045 -37.2553 0
      vertex -108.437 -37.4114 0
    endloop
  endfacet
  facet normal 0.248678 0.968586 -0
    outer loop
      vertex 109.045 37.2553 0
      vertex 108.437 37.4114 12
      vertex 109.045 37.2553 12
    endloop
  endfacet
  facet normal 0.248678 0.968586 0
    outer loop
      vertex 108.437 37.4114 12
      vertex 109.045 37.2553 0
      vertex 108.437 37.4114 0
    endloop
  endfacet
  facet normal 0.368094 0.929788 -0
    outer loop
      vertex 109.629 37.0241 0
      vertex 109.045 37.2553 12
      vertex 109.629 37.0241 12
    endloop
  endfacet
  facet normal 0.368094 0.929788 0
    outer loop
      vertex 109.045 37.2553 12
      vertex 109.629 37.0241 0
      vertex 109.045 37.2553 0
    endloop
  endfacet
  facet normal 0.843904 0.536494 0
    outer loop
      vertex 111.882 34.9088 12
      vertex 111.545 35.4389 0
      vertex 111.545 35.4389 12
    endloop
  endfacet
  facet normal 0.843904 0.536494 0
    outer loop
      vertex 111.545 35.4389 0
      vertex 111.882 34.9088 12
      vertex 111.882 34.9088 0
    endloop
  endfacet
  facet normal 0.905057 0.425291 0
    outer loop
      vertex 112.149 34.3406 12
      vertex 111.882 34.9088 0
      vertex 111.882 34.9088 12
    endloop
  endfacet
  facet normal 0.905057 0.425291 0
    outer loop
      vertex 111.882 34.9088 0
      vertex 112.149 34.3406 12
      vertex 112.149 34.3406 0
    endloop
  endfacet
  facet normal 0.982188 -0.187902 0
    outer loop
      vertex 112.343 -33.7435 12
      vertex 112.461 -33.1267 0
      vertex 112.461 -33.1267 12
    endloop
  endfacet
  facet normal 0.982188 -0.187902 0
    outer loop
      vertex 112.461 -33.1267 0
      vertex 112.343 -33.7435 12
      vertex 112.343 -33.7435 0
    endloop
  endfacet
  facet normal 0.481919 -0.876216 0
    outer loop
      vertex 109.629 -37.0241 0
      vertex 110.179 -36.7216 12
      vertex 109.629 -37.0241 12
    endloop
  endfacet
  facet normal 0.481919 -0.876216 0
    outer loop
      vertex 110.179 -36.7216 12
      vertex 109.629 -37.0241 0
      vertex 110.179 -36.7216 0
    endloop
  endfacet
  facet normal 0.684386 -0.72912 0
    outer loop
      vertex 110.687 -36.3526 0
      vertex 111.145 -35.9227 12
      vertex 110.687 -36.3526 12
    endloop
  endfacet
  facet normal 0.684386 -0.72912 0
    outer loop
      vertex 111.145 -35.9227 12
      vertex 110.687 -36.3526 0
      vertex 111.145 -35.9227 0
    endloop
  endfacet
  facet normal -0.951061 -0.309003 0
    outer loop
      vertex -112.149 -34.3406 0
      vertex -112.343 -33.7435 12
      vertex -112.343 -33.7435 0
    endloop
  endfacet
  facet normal -0.951061 -0.309003 0
    outer loop
      vertex -112.343 -33.7435 12
      vertex -112.149 -34.3406 0
      vertex -112.149 -34.3406 12
    endloop
  endfacet
  facet normal 0 0 -1
    outer loop
      vertex 107.814 -37.4901 0
      vertex 112.5 -32.5 0
      vertex 112.461 -33.1267 0
    endloop
  endfacet
  facet normal -0 0 -1
    outer loop
      vertex 112.5 -32.5 0
      vertex 107.814 -37.4901 0
      vertex 112.5 32.5 0
    endloop
  endfacet
  facet normal 0 0 -1
    outer loop
      vertex 107.814 -37.4901 0
      vertex 112.461 -33.1267 0
      vertex 112.343 -33.7435 0
    endloop
  endfacet
  facet normal 0 0 -1
    outer loop
      vertex 107.814 37.4901 0
      vertex 112.5 32.5 0
      vertex 107.814 -37.4901 0
    endloop
  endfacet
  facet normal 0 0 -1
    outer loop
      vertex 107.814 -37.4901 0
      vertex 112.343 -33.7435 0
      vertex 112.149 -34.3406 0
    endloop
  endfacet
  facet normal 0 0 -1
    outer loop
      vertex 112.5 32.5 0
      vertex 107.814 37.4901 0
      vertex 112.461 33.1267 0
    endloop
  endfacet
  facet normal 0 0 -1
    outer loop
      vertex 107.814 -37.4901 0
      vertex 112.149 -34.3406 0
      vertex 111.882 -34.9088 0
    endloop
  endfacet
  facet normal 0 0 -1
    outer loop
      vertex 112.461 33.1267 0
      vertex 107.814 37.4901 0
      vertex 112.343 33.7435 0
    endloop
  endfacet
  facet normal 0 0 -1
    outer loop
      vertex 107.814 -37.4901 0
      vertex 111.882 -34.9088 0
      vertex 111.545 -35.4389 0
    endloop
  endfacet
  facet normal 0 0 -1
    outer loop
      vertex 112.343 33.7435 0
      vertex 107.814 37.4901 0
      vertex 112.149 34.3406 0
    endloop
  endfacet
  facet normal 0 0 -1
    outer loop
      vertex 107.814 -37.4901 0
      vertex 111.545 -35.4389 0
      vertex 111.145 -35.9227 0
    endloop
  endfacet
  facet normal 0 0 -1
    outer loop
      vertex 112.149 34.3406 0
      vertex 107.814 37.4901 0
      vertex 111.882 34.9088 0
    endloop
  endfacet
  facet normal 0 0 -1
    outer loop
      vertex 107.814 -37.4901 0
      vertex 111.145 -35.9227 0
      vertex 110.687 -36.3526 0
    endloop
  endfacet
  facet normal 0 0 -1
    outer loop
      vertex 111.882 34.9088 0
      vertex 107.814 37.4901 0
      vertex 111.545 35.4389 0
    endloop
  endfacet
  facet normal 0 0 -1
    outer loop
      vertex 107.814 -37.4901 0
      vertex 110.687 -36.3526 0
      vertex 110.179 -36.7216 0
    endloop
  endfacet
  facet normal 0 0 -1
    outer loop
      vertex 111.545 35.4389 0
      vertex 107.814 37.4901 0
      vertex 111.145 35.9227 0
    endloop
  endfacet
  facet normal 0 0 -1
    outer loop
      vertex 107.814 -37.4901 0
      vertex 110.179 -36.7216 0
      vertex 109.629 -37.0241 0
    endloop
  endfacet
  facet normal 0 0 -1
    outer loop
      vertex 111.145 35.9227 0
      vertex 107.814 37.4901 0
      vertex 110.687 36.3526 0
    endloop
  endfacet
  facet normal 0 0 -1
    outer loop
      vertex 107.814 -37.4901 0
      vertex 109.629 -37.0241 0
      vertex 109.045 -37.2553 0
    endloop
  endfacet
  facet normal 0 0 -1
    outer loop
      vertex 110.687 36.3526 0
      vertex 107.814 37.4901 0
      vertex 110.179 36.7216 0
    endloop
  endfacet
  facet normal 0 0 -1
    outer loop
      vertex 107.814 -37.4901 0
      vertex 109.045 -37.2553 0
      vertex 108.437 -37.4114 0
    endloop
  endfacet
  facet normal 0 0 -1
    outer loop
      vertex 110.179 36.7216 0
      vertex 107.814 37.4901 0
      vertex 109.629 37.0241 0
    endloop
  endfacet
  facet normal 0 0 -1
    outer loop
      vertex 109.629 37.0241 0
      vertex 107.814 37.4901 0
      vertex 109.045 37.2553 0
    endloop
  endfacet
  facet normal 0 0 -1
    outer loop
      vertex 109.045 37.2553 0
      vertex 107.814 37.4901 0
      vertex 108.437 37.4114 0
    endloop
  endfacet
  facet normal 0 0 -1
    outer loop
      vertex -107.814 -37.4901 0
      vertex 107.814 37.4901 0
      vertex 107.814 -37.4901 0
    endloop
  endfacet
  facet normal 0 0 -1
    outer loop
      vertex -107.814 -37.4901 0
      vertex -107.814 37.4901 0
      vertex 107.814 37.4901 0
    endloop
  endfacet
  facet normal 0 0 -1
    outer loop
      vertex -112.5 -32.5 0
      vertex -107.814 -37.4901 0
      vertex -108.437 -37.4114 0
    endloop
  endfacet
  facet normal 0 0 -1
    outer loop
      vertex -107.814 -37.4901 0
      vertex -112.5 -32.5 0
      vertex -107.814 37.4901 0
    endloop
  endfacet
  facet normal 0 0 -1
    outer loop
      vertex -112.5 -32.5 0
      vertex -108.437 -37.4114 0
      vertex -109.045 -37.2553 0
    endloop
  endfacet
  facet normal 0 0 -1
    outer loop
      vertex -112.5 32.5 0
      vertex -107.814 37.4901 0
      vertex -112.5 -32.5 0
    endloop
  endfacet
  facet normal 0 0 -1
    outer loop
      vertex -112.5 -32.5 0
      vertex -109.045 -37.2553 0
      vertex -109.629 -37.0241 0
    endloop
  endfacet
  facet normal 0 0 -1
    outer loop
      vertex -107.814 37.4901 0
      vertex -112.5 32.5 0
      vertex -108.437 37.4114 0
    endloop
  endfacet
  facet normal 0 0 -1
    outer loop
      vertex -112.5 -32.5 0
      vertex -109.629 -37.0241 0
      vertex -110.179 -36.7216 0
    endloop
  endfacet
  facet normal 0 0 -1
    outer loop
      vertex -108.437 37.4114 0
      vertex -112.5 32.5 0
      vertex -109.045 37.2553 0
    endloop
  endfacet
  facet normal 0 0 -1
    outer loop
      vertex -112.5 -32.5 0
      vertex -110.179 -36.7216 0
      vertex -110.687 -36.3526 0
    endloop
  endfacet
  facet normal 0 0 -1
    outer loop
      vertex -109.045 37.2553 0
      vertex -112.5 32.5 0
      vertex -109.629 37.0241 0
    endloop
  endfacet
  facet normal 0 0 -1
    outer loop
      vertex -112.5 -32.5 0
      vertex -110.687 -36.3526 0
      vertex -111.145 -35.9227 0
    endloop
  endfacet
  facet normal 0 0 -1
    outer loop
      vertex -109.629 37.0241 0
      vertex -112.5 32.5 0
      vertex -110.179 36.7216 0
    endloop
  endfacet
  facet normal 0 0 -1
    outer loop
      vertex -112.5 -32.5 0
      vertex -111.145 -35.9227 0
      vertex -111.545 -35.4389 0
    endloop
  endfacet
  facet normal 0 0 -1
    outer loop
      vertex -110.179 36.7216 0
      vertex -112.5 32.5 0
      vertex -110.687 36.3526 0
    endloop
  endfacet
  facet normal 0 0 -1
    outer loop
      vertex -112.5 -32.5 0
      vertex -111.545 -35.4389 0
      vertex -111.882 -34.9088 0
    endloop
  endfacet
  facet normal 0 0 -1
    outer loop
      vertex -110.687 36.3526 0
      vertex -112.5 32.5 0
      vertex -111.145 35.9227 0
    endloop
  endfacet
  facet normal 0 0 -1
    outer loop
      vertex -112.5 -32.5 0
      vertex -111.882 -34.9088 0
      vertex -112.149 -34.3406 0
    endloop
  endfacet
  facet normal 0 0 -1
    outer loop
      vertex -111.145 35.9227 0
      vertex -112.5 32.5 0
      vertex -111.545 35.4389 0
    endloop
  endfacet
  facet normal 0 0 -1
    outer loop
      vertex -112.5 -32.5 0
      vertex -112.149 -34.3406 0
      vertex -112.343 -33.7435 0
    endloop
  endfacet
  facet normal 0 0 -1
    outer loop
      vertex -111.545 35.4389 0
      vertex -112.5 32.5 0
      vertex -111.882 34.9088 0
    endloop
  endfacet
  facet normal 0 0 -1
    outer loop
      vertex -112.5 -32.5 0
      vertex -112.343 -33.7435 0
      vertex -112.461 -33.1267 0
    endloop
  endfacet
  facet normal 0 0 -1
    outer loop
      vertex -111.882 34.9088 0
      vertex -112.5 32.5 0
      vertex -112.149 34.3406 0
    endloop
  endfacet
  facet normal 0 0 -1
    outer loop
      vertex -112.149 34.3406 0
      vertex -112.5 32.5 0
      vertex -112.343 33.7435 0
    endloop
  endfacet
  facet normal 0 0 -1
    outer loop
      vertex -112.343 33.7435 0
      vertex -112.5 32.5 0
      vertex -112.461 33.1267 0
    endloop
  endfacet
  facet normal -0.125328 -0.992115 0
    outer loop
      vertex -108.437 -37.4114 0
      vertex -107.814 -37.4901 12
      vertex -108.437 -37.4114 12
    endloop
  endfacet
  facet normal -0.125328 -0.992115 -0
    outer loop
      vertex -107.814 -37.4901 12
      vertex -108.437 -37.4114 0
      vertex -107.814 -37.4901 0
    endloop
  endfacet
  facet normal -0.905057 0.425291 0
    outer loop
      vertex -112.149 34.3406 0
      vertex -111.882 34.9088 12
      vertex -111.882 34.9088 0
    endloop
  endfacet
  facet normal -0.905057 0.425291 0
    outer loop
      vertex -111.882 34.9088 12
      vertex -112.149 34.3406 0
      vertex -112.149 34.3406 12
    endloop
  endfacet
  facet normal -0.770696 0.637202 0
    outer loop
      vertex -111.545 35.4389 0
      vertex -111.145 35.9227 12
      vertex -111.145 35.9227 0
    endloop
  endfacet
  facet normal -0.770696 0.637202 0
    outer loop
      vertex -111.145 35.9227 12
      vertex -111.545 35.4389 0
      vertex -111.545 35.4389 12
    endloop
  endfacet
  facet normal 0.481919 0.876216 -0
    outer loop
      vertex 110.179 36.7216 0
      vertex 109.629 37.0241 12
      vertex 110.179 36.7216 12
    endloop
  endfacet
  facet normal 0.481919 0.876216 0
    outer loop
      vertex 109.629 37.0241 12
      vertex 110.179 36.7216 0
      vertex 109.629 37.0241 0
    endloop
  endfacet
  facet normal 0.587698 0.80908 -0
    outer loop
      vertex 110.687 36.3526 0
      vertex 110.179 36.7216 12
      vertex 110.687 36.3526 12
    endloop
  endfacet
  facet normal 0.587698 0.80908 0
    outer loop
      vertex 110.179 36.7216 12
      vertex 110.687 36.3526 0
      vertex 110.179 36.7216 0
    endloop
  endfacet
  facet normal 0.905057 -0.425291 0
    outer loop
      vertex 111.882 -34.9088 12
      vertex 112.149 -34.3406 0
      vertex 112.149 -34.3406 12
    endloop
  endfacet
  facet normal 0.905057 -0.425291 0
    outer loop
      vertex 112.149 -34.3406 0
      vertex 111.882 -34.9088 12
      vertex 111.882 -34.9088 0
    endloop
  endfacet
  facet normal 0.843904 -0.536494 0
    outer loop
      vertex 111.545 -35.4389 12
      vertex 111.882 -34.9088 0
      vertex 111.882 -34.9088 12
    endloop
  endfacet
  facet normal 0.843904 -0.536494 0
    outer loop
      vertex 111.882 -34.9088 0
      vertex 111.545 -35.4389 12
      vertex 111.545 -35.4389 0
    endloop
  endfacet
  facet normal 0.998069 -0.0621106 0
    outer loop
      vertex 112.461 -33.1267 12
      vertex 112.5 -32.5 0
      vertex 112.5 -32.5 12
    endloop
  endfacet
  facet normal 0.998069 -0.0621106 0
    outer loop
      vertex 112.5 -32.5 0
      vertex 112.461 -33.1267 12
      vertex 112.461 -33.1267 0
    endloop
  endfacet
  facet normal 0.368094 -0.929788 0
    outer loop
      vertex 109.045 -37.2553 0
      vertex 109.629 -37.0241 12
      vertex 109.045 -37.2553 12
    endloop
  endfacet
  facet normal 0.368094 -0.929788 0
    outer loop
      vertex 109.629 -37.0241 12
      vertex 109.045 -37.2553 0
      vertex 109.629 -37.0241 0
    endloop
  endfacet
  facet normal -0.843904 -0.536494 0
    outer loop
      vertex -111.545 -35.4389 0
      vertex -111.882 -34.9088 12
      vertex -111.882 -34.9088 0
    endloop
  endfacet
  facet normal -0.843904 -0.536494 0
    outer loop
      vertex -111.882 -34.9088 12
      vertex -111.545 -35.4389 0
      vertex -111.545 -35.4389 12
    endloop
  endfacet
  facet normal -0.982188 -0.187902 0
    outer loop
      vertex -112.343 -33.7435 0
      vertex -112.461 -33.1267 12
      vertex -112.461 -33.1267 0
    endloop
  endfacet
  facet normal -0.982188 -0.187902 0
    outer loop
      vertex -112.461 -33.1267 12
      vertex -112.343 -33.7435 0
      vertex -112.343 -33.7435 12
    endloop
  endfacet
  facet normal -0.998069 -0.0621106 0
    outer loop
      vertex -112.461 -33.1267 0
      vertex -112.5 -32.5 12
      vertex -112.5 -32.5 0
    endloop
  endfacet
  facet normal -0.998069 -0.0621106 0
    outer loop
      vertex -112.5 -32.5 12
      vertex -112.461 -33.1267 0
      vertex -112.461 -33.1267 12
    endloop
  endfacet
  facet normal -0.481919 -0.876216 0
    outer loop
      vertex -110.179 -36.7216 0
      vertex -109.629 -37.0241 12
      vertex -110.179 -36.7216 12
    endloop
  endfacet
  facet normal -0.481919 -0.876216 -0
    outer loop
      vertex -109.629 -37.0241 12
      vertex -110.179 -36.7216 0
      vertex -109.629 -37.0241 0
    endloop
  endfacet
  facet normal -0.587698 -0.80908 0
    outer loop
      vertex -110.687 -36.3526 0
      vertex -110.179 -36.7216 12
      vertex -110.687 -36.3526 12
    endloop
  endfacet
  facet normal -0.587698 -0.80908 -0
    outer loop
      vertex -110.179 -36.7216 12
      vertex -110.687 -36.3526 0
      vertex -110.179 -36.7216 0
    endloop
  endfacet
  facet normal -0.481919 0.876216 0
    outer loop
      vertex -109.629 37.0241 0
      vertex -110.179 36.7216 12
      vertex -109.629 37.0241 12
    endloop
  endfacet
  facet normal -0.481919 0.876216 0
    outer loop
      vertex -110.179 36.7216 12
      vertex -109.629 37.0241 0
      vertex -110.179 36.7216 0
    endloop
  endfacet
  facet normal -0.587698 0.80908 0
    outer loop
      vertex -110.179 36.7216 0
      vertex -110.687 36.3526 12
      vertex -110.179 36.7216 12
    endloop
  endfacet
  facet normal -0.587698 0.80908 0
    outer loop
      vertex -110.687 36.3526 12
      vertex -110.179 36.7216 0
      vertex -110.687 36.3526 0
    endloop
  endfacet
  facet normal 0.587698 -0.80908 0
    outer loop
      vertex 110.179 -36.7216 0
      vertex 110.687 -36.3526 12
      vertex 110.179 -36.7216 12
    endloop
  endfacet
  facet normal 0.587698 -0.80908 0
    outer loop
      vertex 110.687 -36.3526 12
      vertex 110.179 -36.7216 0
      vertex 110.687 -36.3526 0
    endloop
  endfacet
  facet normal 0.248678 -0.968586 0
    outer loop
      vertex 108.437 -37.4114 0
      vertex 109.045 -37.2553 12
      vertex 108.437 -37.4114 12
    endloop
  endfacet
  facet normal 0.248678 -0.968586 0
    outer loop
      vertex 109.045 -37.2553 12
      vertex 108.437 -37.4114 0
      vertex 109.045 -37.2553 0
    endloop
  endfacet
  facet normal 0.125328 -0.992115 0
    outer loop
      vertex 107.814 -37.4901 0
      vertex 108.437 -37.4114 12
      vertex 107.814 -37.4901 12
    endloop
  endfacet
  facet normal 0.125328 -0.992115 0
    outer loop
      vertex 108.437 -37.4114 12
      vertex 107.814 -37.4901 0
      vertex 108.437 -37.4114 0
    endloop
  endfacet
  facet normal -0.843904 0.536494 0
    outer loop
      vertex -111.882 34.9088 0
      vertex -111.545 35.4389 12
      vertex -111.545 35.4389 0
    endloop
  endfacet
  facet normal -0.843904 0.536494 0
    outer loop
      vertex -111.545 35.4389 12
      vertex -111.882 34.9088 0
      vertex -111.882 34.9088 12
    endloop
  endfacet
  facet normal -0.125258 -0.992124 0
    outer loop
      vertex 107.751 36.4921 2
      vertex 108.25 36.4291 12
      vertex 107.751 36.4921 12
    endloop
  endfacet
  facet normal -0.125258 -0.992124 -0
    outer loop
      vertex 108.25 36.4291 12
      vertex 107.751 36.4921 2
      vertex 108.25 36.4291 2
    endloop
  endfacet
  facet normal 0 -1 0
    outer loop
      vertex -107.751 36.4921 2
      vertex 107.751 36.4921 12
      vertex -107.751 36.4921 12
    endloop
  endfacet
  facet normal 0 -1 -0
    outer loop
      vertex 107.751 36.4921 12
      vertex -107.751 36.4921 2
      vertex 107.751 36.4921 2
    endloop
  endfacet
  facet normal 0.125258 -0.992124 0
    outer loop
      vertex -108.25 36.4291 2
      vertex -107.751 36.4921 12
      vertex -108.25 36.4291 12
    endloop
  endfacet
  facet normal 0.125258 -0.992124 0
    outer loop
      vertex -107.751 36.4921 12
      vertex -108.25 36.4291 2
      vertex -107.751 36.4921 2
    endloop
  endfacet
  facet normal -0.770745 -0.637144 0
    outer loop
      vertex 110.736 34.8511 2
      vertex 110.416 35.2382 12
      vertex 110.416 35.2382 2
    endloop
  endfacet
  facet normal -0.770745 -0.637144 0
    outer loop
      vertex 110.416 35.2382 12
      vertex 110.736 34.8511 2
      vertex 110.736 34.8511 12
    endloop
  endfacet
  facet normal 0 1 -0
    outer loop
      vertex 107.751 -36.4921 2
      vertex -107.751 -36.4921 12
      vertex 107.751 -36.4921 12
    endloop
  endfacet
  facet normal 0 1 0
    outer loop
      vertex -107.751 -36.4921 12
      vertex 107.751 -36.4921 2
      vertex -107.751 -36.4921 2
    endloop
  endfacet
  facet normal -1 0 0
    outer loop
      vertex 111.5 -32.5 2
      vertex 111.5 32.5 12
      vertex 111.5 32.5 2
    endloop
  endfacet
  facet normal -1 -0 0
    outer loop
      vertex 111.5 32.5 12
      vertex 111.5 -32.5 2
      vertex 111.5 -32.5 12
    endloop
  endfacet
  facet normal 0.997969 0.0637044 0
    outer loop
      vertex -111.468 -33.0013 12
      vertex -111.5 -32.5 2
      vertex -111.5 -32.5 12
    endloop
  endfacet
  facet normal 0.997969 0.0637044 0
    outer loop
      vertex -111.5 -32.5 2
      vertex -111.468 -33.0013 12
      vertex -111.468 -33.0013 2
    endloop
  endfacet
  facet normal 0.368127 0.929775 -0
    outer loop
      vertex -108.736 -36.3042 2
      vertex -109.203 -36.1193 12
      vertex -108.736 -36.3042 12
    endloop
  endfacet
  facet normal 0.368127 0.929775 0
    outer loop
      vertex -109.203 -36.1193 12
      vertex -108.736 -36.3042 2
      vertex -109.203 -36.1193 2
    endloop
  endfacet
  facet normal 0.368127 -0.929775 0
    outer loop
      vertex -109.203 36.1193 2
      vertex -108.736 36.3042 12
      vertex -109.203 36.1193 12
    endloop
  endfacet
  facet normal 0.368127 -0.929775 0
    outer loop
      vertex -108.736 36.3042 12
      vertex -109.203 36.1193 2
      vertex -108.736 36.3042 2
    endloop
  endfacet
  facet normal 0.481919 -0.876216 0
    outer loop
      vertex -109.643 35.8773 2
      vertex -109.203 36.1193 12
      vertex -109.643 35.8773 12
    endloop
  endfacet
  facet normal 0.481919 -0.876216 0
    outer loop
      vertex -109.203 36.1193 12
      vertex -109.643 35.8773 2
      vertex -109.203 36.1193 2
    endloop
  endfacet
  facet normal 0.684762 -0.728767 0
    outer loop
      vertex -110.416 35.2382 2
      vertex -110.05 35.5821 12
      vertex -110.416 35.2382 12
    endloop
  endfacet
  facet normal 0.684762 -0.728767 0
    outer loop
      vertex -110.05 35.5821 12
      vertex -110.416 35.2382 2
      vertex -110.05 35.5821 2
    endloop
  endfacet
  facet normal -0.368127 -0.929775 0
    outer loop
      vertex 108.736 36.3042 2
      vertex 109.203 36.1193 12
      vertex 108.736 36.3042 12
    endloop
  endfacet
  facet normal -0.368127 -0.929775 -0
    outer loop
      vertex 109.203 36.1193 12
      vertex 108.736 36.3042 2
      vertex 109.203 36.1193 2
    endloop
  endfacet
  facet normal -0.481919 -0.876216 0
    outer loop
      vertex 109.203 36.1193 2
      vertex 109.643 35.8773 12
      vertex 109.203 36.1193 12
    endloop
  endfacet
  facet normal -0.481919 -0.876216 -0
    outer loop
      vertex 109.643 35.8773 12
      vertex 109.203 36.1193 2
      vertex 109.643 35.8773 2
    endloop
  endfacet
  facet normal -0.684762 -0.728767 0
    outer loop
      vertex 110.05 35.5821 2
      vertex 110.416 35.2382 12
      vertex 110.05 35.5821 12
    endloop
  endfacet
  facet normal -0.684762 -0.728767 -0
    outer loop
      vertex 110.416 35.2382 12
      vertex 110.05 35.5821 2
      vertex 110.416 35.2382 2
    endloop
  endfacet
  facet normal 1 -0 0
    outer loop
      vertex -111.5 -32.5 12
      vertex -111.5 32.5 2
      vertex -111.5 32.5 12
    endloop
  endfacet
  facet normal 1 0 0
    outer loop
      vertex -111.5 32.5 2
      vertex -111.5 -32.5 12
      vertex -111.5 -32.5 2
    endloop
  endfacet
  facet normal 0.997969 -0.0637044 0
    outer loop
      vertex -111.5 32.5 12
      vertex -111.468 33.0013 2
      vertex -111.468 33.0013 12
    endloop
  endfacet
  facet normal 0.997969 -0.0637044 0
    outer loop
      vertex -111.468 33.0013 2
      vertex -111.5 32.5 12
      vertex -111.5 32.5 2
    endloop
  endfacet
  facet normal 0.951182 -0.308631 0
    outer loop
      vertex -111.374 33.4948 12
      vertex -111.219 33.9725 2
      vertex -111.219 33.9725 12
    endloop
  endfacet
  facet normal 0.951182 -0.308631 0
    outer loop
      vertex -111.219 33.9725 2
      vertex -111.374 33.4948 12
      vertex -111.374 33.4948 2
    endloop
  endfacet
  facet normal 0.248908 -0.968527 0
    outer loop
      vertex -108.736 36.3042 2
      vertex -108.25 36.4291 12
      vertex -108.736 36.3042 12
    endloop
  endfacet
  facet normal 0.248908 -0.968527 0
    outer loop
      vertex -108.25 36.4291 12
      vertex -108.736 36.3042 2
      vertex -108.25 36.4291 2
    endloop
  endfacet
  facet normal -0.248908 -0.968527 0
    outer loop
      vertex 108.25 36.4291 2
      vertex 108.736 36.3042 12
      vertex 108.25 36.4291 12
    endloop
  endfacet
  facet normal -0.248908 -0.968527 -0
    outer loop
      vertex 108.736 36.3042 12
      vertex 108.25 36.4291 2
      vertex 108.736 36.3042 2
    endloop
  endfacet
  facet normal -0.587131 -0.809492 0
    outer loop
      vertex 109.643 35.8773 2
      vertex 110.05 35.5821 12
      vertex 109.643 35.8773 12
    endloop
  endfacet
  facet normal -0.587131 -0.809492 -0
    outer loop
      vertex 110.05 35.5821 12
      vertex 109.643 35.8773 2
      vertex 110.05 35.5821 2
    endloop
  endfacet
  facet normal -0.904728 -0.425989 0
    outer loop
      vertex 111.219 33.9725 2
      vertex 111.005 34.427 12
      vertex 111.005 34.427 2
    endloop
  endfacet
  facet normal -0.904728 -0.425989 0
    outer loop
      vertex 111.005 34.427 12
      vertex 111.219 33.9725 2
      vertex 111.219 33.9725 12
    endloop
  endfacet
  facet normal -0.770745 0.637144 0
    outer loop
      vertex 110.416 -35.2382 2
      vertex 110.736 -34.8511 12
      vertex 110.736 -34.8511 2
    endloop
  endfacet
  facet normal -0.770745 0.637144 0
    outer loop
      vertex 110.736 -34.8511 12
      vertex 110.416 -35.2382 2
      vertex 110.416 -35.2382 12
    endloop
  endfacet
  facet normal -0.951182 0.308631 0
    outer loop
      vertex 111.219 -33.9725 2
      vertex 111.374 -33.4948 12
      vertex 111.374 -33.4948 2
    endloop
  endfacet
  facet normal -0.951182 0.308631 0
    outer loop
      vertex 111.374 -33.4948 12
      vertex 111.219 -33.9725 2
      vertex 111.219 -33.9725 12
    endloop
  endfacet
  facet normal 0.904728 0.425989 0
    outer loop
      vertex -111.005 -34.427 12
      vertex -111.219 -33.9725 2
      vertex -111.219 -33.9725 12
    endloop
  endfacet
  facet normal 0.904728 0.425989 0
    outer loop
      vertex -111.219 -33.9725 2
      vertex -111.005 -34.427 12
      vertex -111.005 -34.427 2
    endloop
  endfacet
  facet normal 0.770745 0.637144 0
    outer loop
      vertex -110.416 -35.2382 12
      vertex -110.736 -34.8511 2
      vertex -110.736 -34.8511 12
    endloop
  endfacet
  facet normal 0.770745 0.637144 0
    outer loop
      vertex -110.736 -34.8511 2
      vertex -110.416 -35.2382 12
      vertex -110.416 -35.2382 2
    endloop
  endfacet
  facet normal 0.684762 0.728767 -0
    outer loop
      vertex -110.05 -35.5821 2
      vertex -110.416 -35.2382 12
      vertex -110.05 -35.5821 12
    endloop
  endfacet
  facet normal 0.684762 0.728767 0
    outer loop
      vertex -110.416 -35.2382 12
      vertex -110.05 -35.5821 2
      vertex -110.416 -35.2382 2
    endloop
  endfacet
  facet normal 0.481919 0.876216 -0
    outer loop
      vertex -109.203 -36.1193 2
      vertex -109.643 -35.8773 12
      vertex -109.203 -36.1193 12
    endloop
  endfacet
  facet normal 0.481919 0.876216 0
    outer loop
      vertex -109.643 -35.8773 12
      vertex -109.203 -36.1193 2
      vertex -109.643 -35.8773 2
    endloop
  endfacet
  facet normal 0.248908 0.968527 -0
    outer loop
      vertex -108.25 -36.4291 2
      vertex -108.736 -36.3042 12
      vertex -108.25 -36.4291 12
    endloop
  endfacet
  facet normal 0.248908 0.968527 0
    outer loop
      vertex -108.736 -36.3042 12
      vertex -108.25 -36.4291 2
      vertex -108.736 -36.3042 2
    endloop
  endfacet
  facet normal 0.587131 -0.809492 0
    outer loop
      vertex -110.05 35.5821 2
      vertex -109.643 35.8773 12
      vertex -110.05 35.5821 12
    endloop
  endfacet
  facet normal 0.587131 -0.809492 0
    outer loop
      vertex -109.643 35.8773 12
      vertex -110.05 35.5821 2
      vertex -109.643 35.8773 2
    endloop
  endfacet
  facet normal -0.844456 -0.535625 0
    outer loop
      vertex 111.005 34.427 2
      vertex 110.736 34.8511 12
      vertex 110.736 34.8511 2
    endloop
  endfacet
  facet normal -0.844456 -0.535625 0
    outer loop
      vertex 110.736 34.8511 12
      vertex 111.005 34.427 2
      vertex 111.005 34.427 12
    endloop
  endfacet
  facet normal -0.951182 -0.308631 0
    outer loop
      vertex 111.374 33.4948 2
      vertex 111.219 33.9725 12
      vertex 111.219 33.9725 2
    endloop
  endfacet
  facet normal -0.951182 -0.308631 0
    outer loop
      vertex 111.219 33.9725 12
      vertex 111.374 33.4948 2
      vertex 111.374 33.4948 12
    endloop
  endfacet
  facet normal -0.982339 0.187112 0
    outer loop
      vertex 111.374 -33.4948 2
      vertex 111.468 -33.0013 12
      vertex 111.468 -33.0013 2
    endloop
  endfacet
  facet normal -0.982339 0.187112 0
    outer loop
      vertex 111.468 -33.0013 12
      vertex 111.374 -33.4948 2
      vertex 111.374 -33.4948 12
    endloop
  endfacet
  facet normal -0.481919 0.876216 0
    outer loop
      vertex 109.643 -35.8773 2
      vertex 109.203 -36.1193 12
      vertex 109.643 -35.8773 12
    endloop
  endfacet
  facet normal -0.481919 0.876216 0
    outer loop
      vertex 109.203 -36.1193 12
      vertex 109.643 -35.8773 2
      vertex 109.203 -36.1193 2
    endloop
  endfacet
  facet normal -0.587131 0.809492 0
    outer loop
      vertex 110.05 -35.5821 2
      vertex 109.643 -35.8773 12
      vertex 110.05 -35.5821 12
    endloop
  endfacet
  facet normal -0.587131 0.809492 0
    outer loop
      vertex 109.643 -35.8773 12
      vertex 110.05 -35.5821 2
      vertex 109.643 -35.8773 2
    endloop
  endfacet
  facet normal 0.951182 0.308631 0
    outer loop
      vertex -111.219 -33.9725 12
      vertex -111.374 -33.4948 2
      vertex -111.374 -33.4948 12
    endloop
  endfacet
  facet normal 0.951182 0.308631 0
    outer loop
      vertex -111.374 -33.4948 2
      vertex -111.219 -33.9725 12
      vertex -111.219 -33.9725 2
    endloop
  endfacet
  facet normal 0 0 1
    outer loop
      vertex 107.751 36.4921 2
      vertex 111.5 32.5 2
      vertex 111.468 33.0013 2
    endloop
  endfacet
  facet normal 0 0 1
    outer loop
      vertex 111.5 32.5 2
      vertex 107.751 36.4921 2
      vertex 111.5 -32.5 2
    endloop
  endfacet
  facet normal 0 0 1
    outer loop
      vertex 107.751 36.4921 2
      vertex 111.468 33.0013 2
      vertex 111.374 33.4948 2
    endloop
  endfacet
  facet normal 0 0 1
    outer loop
      vertex 107.751 -36.4921 2
      vertex 111.5 -32.5 2
      vertex 107.751 36.4921 2
    endloop
  endfacet
  facet normal 0 0 1
    outer loop
      vertex 107.751 36.4921 2
      vertex 111.374 33.4948 2
      vertex 111.219 33.9725 2
    endloop
  endfacet
  facet normal 0 0 1
    outer loop
      vertex 111.5 -32.5 2
      vertex 107.751 -36.4921 2
      vertex 111.468 -33.0013 2
    endloop
  endfacet
  facet normal 0 0 1
    outer loop
      vertex 107.751 36.4921 2
      vertex 111.219 33.9725 2
      vertex 111.005 34.427 2
    endloop
  endfacet
  facet normal 0 0 1
    outer loop
      vertex 111.468 -33.0013 2
      vertex 107.751 -36.4921 2
      vertex 111.374 -33.4948 2
    endloop
  endfacet
  facet normal 0 0 1
    outer loop
      vertex 107.751 36.4921 2
      vertex 111.005 34.427 2
      vertex 110.736 34.8511 2
    endloop
  endfacet
  facet normal 0 0 1
    outer loop
      vertex 111.374 -33.4948 2
      vertex 107.751 -36.4921 2
      vertex 111.219 -33.9725 2
    endloop
  endfacet
  facet normal 0 0 1
    outer loop
      vertex 107.751 36.4921 2
      vertex 110.736 34.8511 2
      vertex 110.416 35.2382 2
    endloop
  endfacet
  facet normal 0 0 1
    outer loop
      vertex 111.219 -33.9725 2
      vertex 107.751 -36.4921 2
      vertex 111.005 -34.427 2
    endloop
  endfacet
  facet normal 0 0 1
    outer loop
      vertex 107.751 36.4921 2
      vertex 110.416 35.2382 2
      vertex 110.05 35.5821 2
    endloop
  endfacet
  facet normal 0 0 1
    outer loop
      vertex 111.005 -34.427 2
      vertex 107.751 -36.4921 2
      vertex 110.736 -34.8511 2
    endloop
  endfacet
  facet normal 0 0 1
    outer loop
      vertex 107.751 36.4921 2
      vertex 110.05 35.5821 2
      vertex 109.643 35.8773 2
    endloop
  endfacet
  facet normal 0 0 1
    outer loop
      vertex 110.736 -34.8511 2
      vertex 107.751 -36.4921 2
      vertex 110.416 -35.2382 2
    endloop
  endfacet
  facet normal 0 0 1
    outer loop
      vertex 107.751 36.4921 2
      vertex 109.643 35.8773 2
      vertex 109.203 36.1193 2
    endloop
  endfacet
  facet normal 0 0 1
    outer loop
      vertex 110.416 -35.2382 2
      vertex 107.751 -36.4921 2
      vertex 110.05 -35.5821 2
    endloop
  endfacet
  facet normal 0 0 1
    outer loop
      vertex 107.751 36.4921 2
      vertex 109.203 36.1193 2
      vertex 108.736 36.3042 2
    endloop
  endfacet
  facet normal 0 0 1
    outer loop
      vertex 110.05 -35.5821 2
      vertex 107.751 -36.4921 2
      vertex 109.643 -35.8773 2
    endloop
  endfacet
  facet normal 0 0 1
    outer loop
      vertex 107.751 36.4921 2
      vertex 108.736 36.3042 2
      vertex 108.25 36.4291 2
    endloop
  endfacet
  facet normal 0 0 1
    outer loop
      vertex 109.643 -35.8773 2
      vertex 107.751 -36.4921 2
      vertex 109.203 -36.1193 2
    endloop
  endfacet
  facet normal 0 0 1
    outer loop
      vertex 109.203 -36.1193 2
      vertex 107.751 -36.4921 2
      vertex 108.736 -36.3042 2
    endloop
  endfacet
  facet normal 0 0 1
    outer loop
      vertex 108.736 -36.3042 2
      vertex 107.751 -36.4921 2
      vertex 108.25 -36.4291 2
    endloop
  endfacet
  facet normal -0 0 1
    outer loop
      vertex -107.751 36.4921 2
      vertex 107.751 -36.4921 2
      vertex 107.751 36.4921 2
    endloop
  endfacet
  facet normal 0 0 1
    outer loop
      vertex -107.751 36.4921 2
      vertex -107.751 -36.4921 2
      vertex 107.751 -36.4921 2
    endloop
  endfacet
  facet normal 0 0 1
    outer loop
      vertex -111.5 32.5 2
      vertex -107.751 36.4921 2
      vertex -108.25 36.4291 2
    endloop
  endfacet
  facet normal 0 0 1
    outer loop
      vertex -107.751 36.4921 2
      vertex -111.5 32.5 2
      vertex -107.751 -36.4921 2
    endloop
  endfacet
  facet normal 0 0 1
    outer loop
      vertex -111.5 32.5 2
      vertex -108.25 36.4291 2
      vertex -108.736 36.3042 2
    endloop
  endfacet
  facet normal -0 0 1
    outer loop
      vertex -111.5 -32.5 2
      vertex -107.751 -36.4921 2
      vertex -111.5 32.5 2
    endloop
  endfacet
  facet normal 0 0 1
    outer loop
      vertex -111.5 32.5 2
      vertex -108.736 36.3042 2
      vertex -109.203 36.1193 2
    endloop
  endfacet
  facet normal 0 0 1
    outer loop
      vertex -107.751 -36.4921 2
      vertex -111.5 -32.5 2
      vertex -108.25 -36.4291 2
    endloop
  endfacet
  facet normal 0 0 1
    outer loop
      vertex -111.5 32.5 2
      vertex -109.203 36.1193 2
      vertex -109.643 35.8773 2
    endloop
  endfacet
  facet normal 0 0 1
    outer loop
      vertex -108.25 -36.4291 2
      vertex -111.5 -32.5 2
      vertex -108.736 -36.3042 2
    endloop
  endfacet
  facet normal 0 0 1
    outer loop
      vertex -111.5 32.5 2
      vertex -109.643 35.8773 2
      vertex -110.05 35.5821 2
    endloop
  endfacet
  facet normal 0 0 1
    outer loop
      vertex -108.736 -36.3042 2
      vertex -111.5 -32.5 2
      vertex -109.203 -36.1193 2
    endloop
  endfacet
  facet normal 0 0 1
    outer loop
      vertex -111.5 32.5 2
      vertex -110.05 35.5821 2
      vertex -110.416 35.2382 2
    endloop
  endfacet
  facet normal 0 0 1
    outer loop
      vertex -109.203 -36.1193 2
      vertex -111.5 -32.5 2
      vertex -109.643 -35.8773 2
    endloop
  endfacet
  facet normal 0 0 1
    outer loop
      vertex -111.5 32.5 2
      vertex -110.416 35.2382 2
      vertex -110.736 34.8511 2
    endloop
  endfacet
  facet normal 0 0 1
    outer loop
      vertex -109.643 -35.8773 2
      vertex -111.5 -32.5 2
      vertex -110.05 -35.5821 2
    endloop
  endfacet
  facet normal 0 0 1
    outer loop
      vertex -111.5 32.5 2
      vertex -110.736 34.8511 2
      vertex -111.005 34.427 2
    endloop
  endfacet
  facet normal 0 0 1
    outer loop
      vertex -110.05 -35.5821 2
      vertex -111.5 -32.5 2
      vertex -110.416 -35.2382 2
    endloop
  endfacet
  facet normal 0 0 1
    outer loop
      vertex -111.5 32.5 2
      vertex -111.005 34.427 2
      vertex -111.219 33.9725 2
    endloop
  endfacet
  facet normal 0 0 1
    outer loop
      vertex -110.416 -35.2382 2
      vertex -111.5 -32.5 2
      vertex -110.736 -34.8511 2
    endloop
  endfacet
  facet normal 0 0 1
    outer loop
      vertex -111.5 32.5 2
      vertex -111.219 33.9725 2
      vertex -111.374 33.4948 2
    endloop
  endfacet
  facet normal 0 0 1
    outer loop
      vertex -110.736 -34.8511 2
      vertex -111.5 -32.5 2
      vertex -111.005 -34.427 2
    endloop
  endfacet
  facet normal 0 0 1
    outer loop
      vertex -111.5 32.5 2
      vertex -111.374 33.4948 2
      vertex -111.468 33.0013 2
    endloop
  endfacet
  facet normal 0 0 1
    outer loop
      vertex -111.005 -34.427 2
      vertex -111.5 -32.5 2
      vertex -111.219 -33.9725 2
    endloop
  endfacet
  facet normal 0 0 1
    outer loop
      vertex -111.219 -33.9725 2
      vertex -111.5 -32.5 2
      vertex -111.374 -33.4948 2
    endloop
  endfacet
  facet normal 0 0 1
    outer loop
      vertex -111.374 -33.4948 2
      vertex -111.5 -32.5 2
      vertex -111.468 -33.0013 2
    endloop
  endfacet
  facet normal 0.125258 0.992124 -0
    outer loop
      vertex -107.751 -36.4921 2
      vertex -108.25 -36.4291 12
      vertex -107.751 -36.4921 12
    endloop
  endfacet
  facet normal 0.125258 0.992124 0
    outer loop
      vertex -108.25 -36.4291 12
      vertex -107.751 -36.4921 2
      vertex -108.25 -36.4291 2
    endloop
  endfacet
  facet normal 0.904728 -0.425989 0
    outer loop
      vertex -111.219 33.9725 12
      vertex -111.005 34.427 2
      vertex -111.005 34.427 12
    endloop
  endfacet
  facet normal 0.904728 -0.425989 0
    outer loop
      vertex -111.005 34.427 2
      vertex -111.219 33.9725 12
      vertex -111.219 33.9725 2
    endloop
  endfacet
  facet normal 0.770745 -0.637144 0
    outer loop
      vertex -110.736 34.8511 12
      vertex -110.416 35.2382 2
      vertex -110.416 35.2382 12
    endloop
  endfacet
  facet normal 0.770745 -0.637144 0
    outer loop
      vertex -110.416 35.2382 2
      vertex -110.736 34.8511 12
      vertex -110.736 34.8511 2
    endloop
  endfacet
  facet normal -0.982339 -0.187112 0
    outer loop
      vertex 111.468 33.0013 2
      vertex 111.374 33.4948 12
      vertex 111.374 33.4948 2
    endloop
  endfacet
  facet normal -0.982339 -0.187112 0
    outer loop
      vertex 111.374 33.4948 12
      vertex 111.468 33.0013 2
      vertex 111.468 33.0013 12
    endloop
  endfacet
  facet normal -0.997969 -0.0637044 0
    outer loop
      vertex 111.5 32.5 2
      vertex 111.468 33.0013 12
      vertex 111.468 33.0013 2
    endloop
  endfacet
  facet normal -0.997969 -0.0637044 0
    outer loop
      vertex 111.468 33.0013 12
      vertex 111.5 32.5 2
      vertex 111.5 32.5 12
    endloop
  endfacet
  facet normal -0.904728 0.425989 0
    outer loop
      vertex 111.005 -34.427 2
      vertex 111.219 -33.9725 12
      vertex 111.219 -33.9725 2
    endloop
  endfacet
  facet normal -0.904728 0.425989 0
    outer loop
      vertex 111.219 -33.9725 12
      vertex 111.005 -34.427 2
      vertex 111.005 -34.427 12
    endloop
  endfacet
  facet normal -0.844456 0.535625 0
    outer loop
      vertex 110.736 -34.8511 2
      vertex 111.005 -34.427 12
      vertex 111.005 -34.427 2
    endloop
  endfacet
  facet normal -0.844456 0.535625 0
    outer loop
      vertex 111.005 -34.427 12
      vertex 110.736 -34.8511 2
      vertex 110.736 -34.8511 12
    endloop
  endfacet
  facet normal -0.997969 0.0637044 0
    outer loop
      vertex 111.468 -33.0013 2
      vertex 111.5 -32.5 12
      vertex 111.5 -32.5 2
    endloop
  endfacet
  facet normal -0.997969 0.0637044 0
    outer loop
      vertex 111.5 -32.5 12
      vertex 111.468 -33.0013 2
      vertex 111.468 -33.0013 12
    endloop
  endfacet
  facet normal -0.684762 0.728767 0
    outer loop
      vertex 110.416 -35.2382 2
      vertex 110.05 -35.5821 12
      vertex 110.416 -35.2382 12
    endloop
  endfacet
  facet normal -0.684762 0.728767 0
    outer loop
      vertex 110.05 -35.5821 12
      vertex 110.416 -35.2382 2
      vertex 110.05 -35.5821 2
    endloop
  endfacet
  facet normal -0.368127 0.929775 0
    outer loop
      vertex 109.203 -36.1193 2
      vertex 108.736 -36.3042 12
      vertex 109.203 -36.1193 12
    endloop
  endfacet
  facet normal -0.368127 0.929775 0
    outer loop
      vertex 108.736 -36.3042 12
      vertex 109.203 -36.1193 2
      vertex 108.736 -36.3042 2
    endloop
  endfacet
  facet normal 0.844456 0.535625 0
    outer loop
      vertex -110.736 -34.8511 12
      vertex -111.005 -34.427 2
      vertex -111.005 -34.427 12
    endloop
  endfacet
  facet normal 0.844456 0.535625 0
    outer loop
      vertex -111.005 -34.427 2
      vertex -110.736 -34.8511 12
      vertex -110.736 -34.8511 2
    endloop
  endfacet
  facet normal 0.982339 0.187112 0
    outer loop
      vertex -111.374 -33.4948 12
      vertex -111.468 -33.0013 2
      vertex -111.468 -33.0013 12
    endloop
  endfacet
  facet normal 0.982339 0.187112 0
    outer loop
      vertex -111.468 -33.0013 2
      vertex -111.374 -33.4948 12
      vertex -111.374 -33.4948 2
    endloop
  endfacet
  facet normal 0.587131 0.809492 -0
    outer loop
      vertex -109.643 -35.8773 2
      vertex -110.05 -35.5821 12
      vertex -109.643 -35.8773 12
    endloop
  endfacet
  facet normal 0.587131 0.809492 0
    outer loop
      vertex -110.05 -35.5821 12
      vertex -109.643 -35.8773 2
      vertex -110.05 -35.5821 2
    endloop
  endfacet
  facet normal 0.982339 -0.187112 0
    outer loop
      vertex -111.468 33.0013 12
      vertex -111.374 33.4948 2
      vertex -111.374 33.4948 12
    endloop
  endfacet
  facet normal 0.982339 -0.187112 0
    outer loop
      vertex -111.374 33.4948 2
      vertex -111.468 33.0013 12
      vertex -111.468 33.0013 2
    endloop
  endfacet
  facet normal -0.248908 0.968527 0
    outer loop
      vertex 108.736 -36.3042 2
      vertex 108.25 -36.4291 12
      vertex 108.736 -36.3042 12
    endloop
  endfacet
  facet normal -0.248908 0.968527 0
    outer loop
      vertex 108.25 -36.4291 12
      vertex 108.736 -36.3042 2
      vertex 108.25 -36.4291 2
    endloop
  endfacet
  facet normal -0.125258 0.992124 0
    outer loop
      vertex 108.25 -36.4291 2
      vertex 107.751 -36.4921 12
      vertex 108.25 -36.4291 12
    endloop
  endfacet
  facet normal -0.125258 0.992124 0
    outer loop
      vertex 107.751 -36.4921 12
      vertex 108.25 -36.4291 2
      vertex 107.751 -36.4921 2
    endloop
  endfacet
  facet normal 0.844456 -0.535625 0
    outer loop
      vertex -111.005 34.427 12
      vertex -110.736 34.8511 2
      vertex -110.736 34.8511 12
    endloop
  endfacet
  facet normal 0.844456 -0.535625 0
    outer loop
      vertex -110.736 34.8511 2
      vertex -111.005 34.427 12
      vertex -111.005 34.427 2
    endloop
  endfacet
endsolid OpenSCAD_Model
