solid OpenSCAD_Model
  facet normal -0.998069 0.0621106 0
    outer loop
      vertex -112.5 85 0
      vertex -112.461 85.6267 24
      vertex -112.461 85.6267 0
    endloop
  endfacet
  facet normal -0.998069 0.0621106 0
    outer loop
      vertex -112.461 85.6267 24
      vertex -112.5 85 0
      vertex -112.5 85 24
    endloop
  endfacet
  facet normal -1 0 0
    outer loop
      vertex -112.5 -85 0
      vertex -112.5 85 24
      vertex -112.5 85 0
    endloop
  endfacet
  facet normal -1 -0 0
    outer loop
      vertex -112.5 85 24
      vertex -112.5 -85 0
      vertex -112.5 -85 24
    endloop
  endfacet
  facet normal 1 -0 0
    outer loop
      vertex 112.5 -85 24
      vertex 112.5 85 0
      vertex 112.5 85 24
    endloop
  endfacet
  facet normal 1 0 0
    outer loop
      vertex 112.5 85 0
      vertex 112.5 -85 24
      vertex 112.5 -85 0
    endloop
  endfacet
  facet normal 0 0 1
    outer loop
      vertex 111.5 85 24
      vertex 112.5 85 24
      vertex 112.461 85.6267 24
    endloop
  endfacet
  facet normal 0 0 1
    outer loop
      vertex 112.5 85 24
      vertex 111.5 85 24
      vertex 112.5 -85 24
    endloop
  endfacet
  facet normal 0 0 1
    outer loop
      vertex 111.468 85.5013 24
      vertex 112.461 85.6267 24
      vertex 112.343 86.2434 24
    endloop
  endfacet
  facet normal 0 0 1
    outer loop
      vertex 111.5 -85 24
      vertex 112.5 -85 24
      vertex 111.5 85 24
    endloop
  endfacet
  facet normal 0 0 1
    outer loop
      vertex 111.374 85.9948 24
      vertex 112.343 86.2434 24
      vertex 112.149 86.8406 24
    endloop
  endfacet
  facet normal 0 0 1
    outer loop
      vertex 112.5 -85 24
      vertex 111.5 -85 24
      vertex 112.461 -85.6267 24
    endloop
  endfacet
  facet normal 0 0 1
    outer loop
      vertex 111.219 86.4725 24
      vertex 112.149 86.8406 24
      vertex 111.882 87.4088 24
    endloop
  endfacet
  facet normal -0 0 1
    outer loop
      vertex 111.468 -85.5013 24
      vertex 112.461 -85.6267 24
      vertex 111.5 -85 24
    endloop
  endfacet
  facet normal 0 0 1
    outer loop
      vertex 111.005 86.927 24
      vertex 111.882 87.4088 24
      vertex 111.545 87.9389 24
    endloop
  endfacet
  facet normal 0 0 1
    outer loop
      vertex 112.461 -85.6267 24
      vertex 111.468 -85.5013 24
      vertex 112.343 -86.2434 24
    endloop
  endfacet
  facet normal -0 0 1
    outer loop
      vertex 111.374 -85.9948 24
      vertex 112.343 -86.2434 24
      vertex 111.468 -85.5013 24
    endloop
  endfacet
  facet normal 0 0 1
    outer loop
      vertex 112.461 85.6267 24
      vertex 111.468 85.5013 24
      vertex 111.5 85 24
    endloop
  endfacet
  facet normal 0 0 1
    outer loop
      vertex 112.343 86.2434 24
      vertex 111.374 85.9948 24
      vertex 111.468 85.5013 24
    endloop
  endfacet
  facet normal 0 0 1
    outer loop
      vertex 112.149 86.8406 24
      vertex 111.219 86.4725 24
      vertex 111.374 85.9948 24
    endloop
  endfacet
  facet normal 0 0 1
    outer loop
      vertex 110.736 87.3511 24
      vertex 111.545 87.9389 24
      vertex 111.145 88.4227 24
    endloop
  endfacet
  facet normal 0 0 1
    outer loop
      vertex 111.882 87.4088 24
      vertex 111.005 86.927 24
      vertex 111.219 86.4725 24
    endloop
  endfacet
  facet normal 0 0 1
    outer loop
      vertex 111.545 87.9389 24
      vertex 110.736 87.3511 24
      vertex 111.005 86.927 24
    endloop
  endfacet
  facet normal 0 0 1
    outer loop
      vertex 110.416 87.7382 24
      vertex 111.145 88.4227 24
      vertex 110.687 88.8526 24
    endloop
  endfacet
  facet normal 0 0 1
    outer loop
      vertex 111.145 88.4227 24
      vertex 110.416 87.7382 24
      vertex 110.736 87.3511 24
    endloop
  endfacet
  facet normal 0 0 1
    outer loop
      vertex 110.05 88.0821 24
      vertex 110.687 88.8526 24
      vertex 110.179 89.2216 24
    endloop
  endfacet
  facet normal 0 0 1
    outer loop
      vertex 110.687 88.8526 24
      vertex 110.05 88.0821 24
      vertex 110.416 87.7382 24
    endloop
  endfacet
  facet normal 0 0 1
    outer loop
      vertex 110.179 89.2216 24
      vertex 109.643 88.3773 24
      vertex 110.05 88.0821 24
    endloop
  endfacet
  facet normal 0 0 1
    outer loop
      vertex 109.629 89.5241 24
      vertex 109.643 88.3773 24
      vertex 110.179 89.2216 24
    endloop
  endfacet
  facet normal 0 0 1
    outer loop
      vertex 109.629 89.5241 24
      vertex 109.203 88.6193 24
      vertex 109.643 88.3773 24
    endloop
  endfacet
  facet normal 0 0 1
    outer loop
      vertex 109.045 89.7553 24
      vertex 109.203 88.6193 24
      vertex 109.629 89.5241 24
    endloop
  endfacet
  facet normal 0 0 1
    outer loop
      vertex 109.045 89.7553 24
      vertex 108.736 88.8042 24
      vertex 109.203 88.6193 24
    endloop
  endfacet
  facet normal 0 0 1
    outer loop
      vertex 108.437 89.9114 24
      vertex 108.736 88.8042 24
      vertex 109.045 89.7553 24
    endloop
  endfacet
  facet normal 0 0 1
    outer loop
      vertex 108.437 89.9114 24
      vertex 108.25 88.9291 24
      vertex 108.736 88.8042 24
    endloop
  endfacet
  facet normal 0 0 1
    outer loop
      vertex 107.814 89.9901 24
      vertex 108.25 88.9291 24
      vertex 108.437 89.9114 24
    endloop
  endfacet
  facet normal 0 0 1
    outer loop
      vertex 107.814 89.9901 24
      vertex 107.751 88.9921 24
      vertex 108.25 88.9291 24
    endloop
  endfacet
  facet normal 0 0 1
    outer loop
      vertex 107.814 89.9901 24
      vertex -107.751 88.9921 24
      vertex 107.751 88.9921 24
    endloop
  endfacet
  facet normal -0 0 1
    outer loop
      vertex -107.814 89.9901 24
      vertex -107.751 88.9921 24
      vertex 107.814 89.9901 24
    endloop
  endfacet
  facet normal 0 0 1
    outer loop
      vertex -107.814 89.9901 24
      vertex -108.25 88.9291 24
      vertex -107.751 88.9921 24
    endloop
  endfacet
  facet normal -0 0 1
    outer loop
      vertex -108.437 89.9114 24
      vertex -108.25 88.9291 24
      vertex -107.814 89.9901 24
    endloop
  endfacet
  facet normal 0 0 1
    outer loop
      vertex -108.437 89.9114 24
      vertex -108.736 88.8042 24
      vertex -108.25 88.9291 24
    endloop
  endfacet
  facet normal -0 0 1
    outer loop
      vertex -109.045 89.7553 24
      vertex -108.736 88.8042 24
      vertex -108.437 89.9114 24
    endloop
  endfacet
  facet normal 0 0 1
    outer loop
      vertex -109.045 89.7553 24
      vertex -109.203 88.6193 24
      vertex -108.736 88.8042 24
    endloop
  endfacet
  facet normal -0 0 1
    outer loop
      vertex -109.629 89.5241 24
      vertex -109.203 88.6193 24
      vertex -109.045 89.7553 24
    endloop
  endfacet
  facet normal 0 0 1
    outer loop
      vertex -109.629 89.5241 24
      vertex -109.643 88.3773 24
      vertex -109.203 88.6193 24
    endloop
  endfacet
  facet normal -0 0 1
    outer loop
      vertex -110.179 89.2216 24
      vertex -109.643 88.3773 24
      vertex -109.629 89.5241 24
    endloop
  endfacet
  facet normal 0 0 1
    outer loop
      vertex -109.643 88.3773 24
      vertex -110.179 89.2216 24
      vertex -110.05 88.0821 24
    endloop
  endfacet
  facet normal -0 0 1
    outer loop
      vertex -110.687 88.8526 24
      vertex -110.05 88.0821 24
      vertex -110.179 89.2216 24
    endloop
  endfacet
  facet normal 0 0 1
    outer loop
      vertex -110.05 88.0821 24
      vertex -110.687 88.8526 24
      vertex -110.416 87.7382 24
    endloop
  endfacet
  facet normal -0 0 1
    outer loop
      vertex -111.145 88.4227 24
      vertex -110.416 87.7382 24
      vertex -110.687 88.8526 24
    endloop
  endfacet
  facet normal 0 0 1
    outer loop
      vertex -110.416 87.7382 24
      vertex -111.145 88.4227 24
      vertex -110.736 87.3511 24
    endloop
  endfacet
  facet normal -0 0 1
    outer loop
      vertex -111.545 87.9389 24
      vertex -110.736 87.3511 24
      vertex -111.145 88.4227 24
    endloop
  endfacet
  facet normal 0 0 1
    outer loop
      vertex -110.736 87.3511 24
      vertex -111.545 87.9389 24
      vertex -111.005 86.927 24
    endloop
  endfacet
  facet normal -0 0 1
    outer loop
      vertex -111.882 87.4088 24
      vertex -111.005 86.927 24
      vertex -111.545 87.9389 24
    endloop
  endfacet
  facet normal 0 0 1
    outer loop
      vertex -111.005 86.927 24
      vertex -111.882 87.4088 24
      vertex -111.219 86.4725 24
    endloop
  endfacet
  facet normal -0 0 1
    outer loop
      vertex -112.343 86.2434 24
      vertex -111.374 85.9948 24
      vertex -112.149 86.8406 24
    endloop
  endfacet
  facet normal 0 0 1
    outer loop
      vertex -111.219 86.4725 24
      vertex -112.149 86.8406 24
      vertex -111.374 85.9948 24
    endloop
  endfacet
  facet normal -0 0 1
    outer loop
      vertex -112.149 86.8406 24
      vertex -111.219 86.4725 24
      vertex -111.882 87.4088 24
    endloop
  endfacet
  facet normal 0 0 1
    outer loop
      vertex 112.343 -86.2434 24
      vertex 111.374 -85.9948 24
      vertex 112.149 -86.8406 24
    endloop
  endfacet
  facet normal -0 0 1
    outer loop
      vertex 111.219 -86.4725 24
      vertex 112.149 -86.8406 24
      vertex 111.374 -85.9948 24
    endloop
  endfacet
  facet normal 0 0 1
    outer loop
      vertex 112.149 -86.8406 24
      vertex 111.219 -86.4725 24
      vertex 111.882 -87.4088 24
    endloop
  endfacet
  facet normal -0 0 1
    outer loop
      vertex 111.005 -86.927 24
      vertex 111.882 -87.4088 24
      vertex 111.219 -86.4725 24
    endloop
  endfacet
  facet normal 0 0 1
    outer loop
      vertex 111.882 -87.4088 24
      vertex 111.005 -86.927 24
      vertex 111.545 -87.9389 24
    endloop
  endfacet
  facet normal -0 0 1
    outer loop
      vertex 110.736 -87.3511 24
      vertex 111.545 -87.9389 24
      vertex 111.005 -86.927 24
    endloop
  endfacet
  facet normal 0 0 1
    outer loop
      vertex 111.545 -87.9389 24
      vertex 110.736 -87.3511 24
      vertex 111.145 -88.4227 24
    endloop
  endfacet
  facet normal -0 0 1
    outer loop
      vertex 110.416 -87.7382 24
      vertex 111.145 -88.4227 24
      vertex 110.736 -87.3511 24
    endloop
  endfacet
  facet normal 0 0 1
    outer loop
      vertex 111.145 -88.4227 24
      vertex 110.416 -87.7382 24
      vertex 110.687 -88.8526 24
    endloop
  endfacet
  facet normal -0 0 1
    outer loop
      vertex 110.05 -88.0821 24
      vertex 110.687 -88.8526 24
      vertex 110.416 -87.7382 24
    endloop
  endfacet
  facet normal 0 0 1
    outer loop
      vertex 110.687 -88.8526 24
      vertex 110.05 -88.0821 24
      vertex 110.179 -89.2216 24
    endloop
  endfacet
  facet normal -0 0 1
    outer loop
      vertex 109.643 -88.3773 24
      vertex 110.179 -89.2216 24
      vertex 110.05 -88.0821 24
    endloop
  endfacet
  facet normal 0 0 1
    outer loop
      vertex 109.643 -88.3773 24
      vertex 109.629 -89.5241 24
      vertex 110.179 -89.2216 24
    endloop
  endfacet
  facet normal -0 0 1
    outer loop
      vertex 109.203 -88.6193 24
      vertex 109.629 -89.5241 24
      vertex 109.643 -88.3773 24
    endloop
  endfacet
  facet normal 0 0 1
    outer loop
      vertex 109.203 -88.6193 24
      vertex 109.045 -89.7553 24
      vertex 109.629 -89.5241 24
    endloop
  endfacet
  facet normal -0 0 1
    outer loop
      vertex 108.736 -88.8042 24
      vertex 109.045 -89.7553 24
      vertex 109.203 -88.6193 24
    endloop
  endfacet
  facet normal 0 0 1
    outer loop
      vertex 108.736 -88.8042 24
      vertex 108.437 -89.9114 24
      vertex 109.045 -89.7553 24
    endloop
  endfacet
  facet normal -0 0 1
    outer loop
      vertex 108.25 -88.9291 24
      vertex 108.437 -89.9114 24
      vertex 108.736 -88.8042 24
    endloop
  endfacet
  facet normal 0 0 1
    outer loop
      vertex 108.25 -88.9291 24
      vertex 107.814 -89.9901 24
      vertex 108.437 -89.9114 24
    endloop
  endfacet
  facet normal -0 0 1
    outer loop
      vertex 107.751 -88.9921 24
      vertex 107.814 -89.9901 24
      vertex 108.25 -88.9291 24
    endloop
  endfacet
  facet normal -0 0 1
    outer loop
      vertex -107.751 -88.9921 24
      vertex 107.814 -89.9901 24
      vertex 107.751 -88.9921 24
    endloop
  endfacet
  facet normal 0 0 1
    outer loop
      vertex -107.751 -88.9921 24
      vertex -107.814 -89.9901 24
      vertex 107.814 -89.9901 24
    endloop
  endfacet
  facet normal 0 0 1
    outer loop
      vertex -108.25 -88.9291 24
      vertex -107.814 -89.9901 24
      vertex -107.751 -88.9921 24
    endloop
  endfacet
  facet normal 0 0 1
    outer loop
      vertex -108.25 -88.9291 24
      vertex -108.437 -89.9114 24
      vertex -107.814 -89.9901 24
    endloop
  endfacet
  facet normal 0 0 1
    outer loop
      vertex -108.736 -88.8042 24
      vertex -108.437 -89.9114 24
      vertex -108.25 -88.9291 24
    endloop
  endfacet
  facet normal 0 0 1
    outer loop
      vertex -108.736 -88.8042 24
      vertex -109.045 -89.7553 24
      vertex -108.437 -89.9114 24
    endloop
  endfacet
  facet normal 0 0 1
    outer loop
      vertex -109.203 -88.6193 24
      vertex -109.045 -89.7553 24
      vertex -108.736 -88.8042 24
    endloop
  endfacet
  facet normal 0 0 1
    outer loop
      vertex -109.203 -88.6193 24
      vertex -109.629 -89.5241 24
      vertex -109.045 -89.7553 24
    endloop
  endfacet
  facet normal 0 0 1
    outer loop
      vertex -109.643 -88.3773 24
      vertex -109.629 -89.5241 24
      vertex -109.203 -88.6193 24
    endloop
  endfacet
  facet normal 0 0 1
    outer loop
      vertex -110.179 -89.2216 24
      vertex -109.643 -88.3773 24
      vertex -110.05 -88.0821 24
    endloop
  endfacet
  facet normal 0 0 1
    outer loop
      vertex -109.643 -88.3773 24
      vertex -110.179 -89.2216 24
      vertex -109.629 -89.5241 24
    endloop
  endfacet
  facet normal 0 0 1
    outer loop
      vertex -110.687 -88.8526 24
      vertex -110.05 -88.0821 24
      vertex -110.416 -87.7382 24
    endloop
  endfacet
  facet normal 0 0 1
    outer loop
      vertex -110.05 -88.0821 24
      vertex -110.687 -88.8526 24
      vertex -110.179 -89.2216 24
    endloop
  endfacet
  facet normal 0 0 1
    outer loop
      vertex -111.145 -88.4227 24
      vertex -110.416 -87.7382 24
      vertex -110.736 -87.3511 24
    endloop
  endfacet
  facet normal 0 0 1
    outer loop
      vertex -111.545 -87.9389 24
      vertex -110.736 -87.3511 24
      vertex -111.005 -86.927 24
    endloop
  endfacet
  facet normal 0 0 1
    outer loop
      vertex -110.416 -87.7382 24
      vertex -111.145 -88.4227 24
      vertex -110.687 -88.8526 24
    endloop
  endfacet
  facet normal 0 0 1
    outer loop
      vertex -111.882 -87.4088 24
      vertex -111.005 -86.927 24
      vertex -111.219 -86.4725 24
    endloop
  endfacet
  facet normal 0 0 1
    outer loop
      vertex -112.149 -86.8406 24
      vertex -111.219 -86.4725 24
      vertex -111.374 -85.9948 24
    endloop
  endfacet
  facet normal 0 0 1
    outer loop
      vertex -112.343 -86.2434 24
      vertex -111.374 -85.9948 24
      vertex -111.468 -85.5013 24
    endloop
  endfacet
  facet normal 0 0 1
    outer loop
      vertex -110.736 -87.3511 24
      vertex -111.545 -87.9389 24
      vertex -111.145 -88.4227 24
    endloop
  endfacet
  facet normal 0 0 1
    outer loop
      vertex -112.461 -85.6267 24
      vertex -111.468 -85.5013 24
      vertex -111.5 -85 24
    endloop
  endfacet
  facet normal 0 0 1
    outer loop
      vertex -111.5 85 24
      vertex -112.5 85 24
      vertex -111.5 -85 24
    endloop
  endfacet
  facet normal 0 0 1
    outer loop
      vertex -111.374 85.9948 24
      vertex -112.343 86.2434 24
      vertex -111.468 85.5013 24
    endloop
  endfacet
  facet normal 0 0 1
    outer loop
      vertex -112.5 -85 24
      vertex -111.5 -85 24
      vertex -112.5 85 24
    endloop
  endfacet
  facet normal -0 0 1
    outer loop
      vertex -112.461 85.6267 24
      vertex -111.468 85.5013 24
      vertex -112.343 86.2434 24
    endloop
  endfacet
  facet normal 0 -0 1
    outer loop
      vertex -112.461 -85.6267 24
      vertex -111.5 -85 24
      vertex -112.5 -85 24
    endloop
  endfacet
  facet normal 0 0 1
    outer loop
      vertex -111.468 85.5013 24
      vertex -112.461 85.6267 24
      vertex -111.5 85 24
    endloop
  endfacet
  facet normal 0 0 1
    outer loop
      vertex -111.005 -86.927 24
      vertex -111.882 -87.4088 24
      vertex -111.545 -87.9389 24
    endloop
  endfacet
  facet normal 0 0 1
    outer loop
      vertex -111.5 85 24
      vertex -112.461 85.6267 24
      vertex -112.5 85 24
    endloop
  endfacet
  facet normal 0 0 1
    outer loop
      vertex -111.219 -86.4725 24
      vertex -112.149 -86.8406 24
      vertex -111.882 -87.4088 24
    endloop
  endfacet
  facet normal 0 0 1
    outer loop
      vertex -111.374 -85.9948 24
      vertex -112.343 -86.2434 24
      vertex -112.149 -86.8406 24
    endloop
  endfacet
  facet normal 0 0 1
    outer loop
      vertex -111.468 -85.5013 24
      vertex -112.461 -85.6267 24
      vertex -112.343 -86.2434 24
    endloop
  endfacet
  facet normal 0 1 -0
    outer loop
      vertex 107.814 89.9901 0
      vertex -107.814 89.9901 24
      vertex 107.814 89.9901 24
    endloop
  endfacet
  facet normal 0 1 0
    outer loop
      vertex -107.814 89.9901 24
      vertex 107.814 89.9901 0
      vertex -107.814 89.9901 0
    endloop
  endfacet
  facet normal -0.982182 -0.187932 0
    outer loop
      vertex -112.343 -86.2434 0
      vertex -112.461 -85.6267 24
      vertex -112.461 -85.6267 0
    endloop
  endfacet
  facet normal -0.982182 -0.187932 0
    outer loop
      vertex -112.461 -85.6267 24
      vertex -112.343 -86.2434 0
      vertex -112.343 -86.2434 24
    endloop
  endfacet
  facet normal 0 0 -1
    outer loop
      vertex 107.814 -89.9901 0
      vertex 112.5 -85 0
      vertex 112.461 -85.6267 0
    endloop
  endfacet
  facet normal -0 0 -1
    outer loop
      vertex 112.5 -85 0
      vertex 107.814 -89.9901 0
      vertex 112.5 85 0
    endloop
  endfacet
  facet normal 0 0 -1
    outer loop
      vertex 107.814 -89.9901 0
      vertex 112.461 -85.6267 0
      vertex 112.343 -86.2434 0
    endloop
  endfacet
  facet normal 0 0 -1
    outer loop
      vertex 107.814 89.9901 0
      vertex 112.5 85 0
      vertex 107.814 -89.9901 0
    endloop
  endfacet
  facet normal 0 0 -1
    outer loop
      vertex 107.814 -89.9901 0
      vertex 112.343 -86.2434 0
      vertex 112.149 -86.8406 0
    endloop
  endfacet
  facet normal 0 0 -1
    outer loop
      vertex 112.5 85 0
      vertex 107.814 89.9901 0
      vertex 112.461 85.6267 0
    endloop
  endfacet
  facet normal 0 0 -1
    outer loop
      vertex 107.814 -89.9901 0
      vertex 112.149 -86.8406 0
      vertex 111.882 -87.4088 0
    endloop
  endfacet
  facet normal 0 0 -1
    outer loop
      vertex 112.461 85.6267 0
      vertex 107.814 89.9901 0
      vertex 112.343 86.2434 0
    endloop
  endfacet
  facet normal 0 0 -1
    outer loop
      vertex 107.814 -89.9901 0
      vertex 111.882 -87.4088 0
      vertex 111.545 -87.9389 0
    endloop
  endfacet
  facet normal 0 0 -1
    outer loop
      vertex 112.343 86.2434 0
      vertex 107.814 89.9901 0
      vertex 112.149 86.8406 0
    endloop
  endfacet
  facet normal 0 0 -1
    outer loop
      vertex 107.814 -89.9901 0
      vertex 111.545 -87.9389 0
      vertex 111.145 -88.4227 0
    endloop
  endfacet
  facet normal 0 0 -1
    outer loop
      vertex 112.149 86.8406 0
      vertex 107.814 89.9901 0
      vertex 111.882 87.4088 0
    endloop
  endfacet
  facet normal 0 0 -1
    outer loop
      vertex 107.814 -89.9901 0
      vertex 111.145 -88.4227 0
      vertex 110.687 -88.8526 0
    endloop
  endfacet
  facet normal 0 0 -1
    outer loop
      vertex 111.882 87.4088 0
      vertex 107.814 89.9901 0
      vertex 111.545 87.9389 0
    endloop
  endfacet
  facet normal 0 0 -1
    outer loop
      vertex 107.814 -89.9901 0
      vertex 110.687 -88.8526 0
      vertex 110.179 -89.2216 0
    endloop
  endfacet
  facet normal 0 0 -1
    outer loop
      vertex 111.545 87.9389 0
      vertex 107.814 89.9901 0
      vertex 111.145 88.4227 0
    endloop
  endfacet
  facet normal 0 0 -1
    outer loop
      vertex 107.814 -89.9901 0
      vertex 110.179 -89.2216 0
      vertex 109.629 -89.5241 0
    endloop
  endfacet
  facet normal 0 0 -1
    outer loop
      vertex 111.145 88.4227 0
      vertex 107.814 89.9901 0
      vertex 110.687 88.8526 0
    endloop
  endfacet
  facet normal 0 0 -1
    outer loop
      vertex 107.814 -89.9901 0
      vertex 109.629 -89.5241 0
      vertex 109.045 -89.7553 0
    endloop
  endfacet
  facet normal 0 0 -1
    outer loop
      vertex 110.687 88.8526 0
      vertex 107.814 89.9901 0
      vertex 110.179 89.2216 0
    endloop
  endfacet
  facet normal 0 0 -1
    outer loop
      vertex 107.814 -89.9901 0
      vertex 109.045 -89.7553 0
      vertex 108.437 -89.9114 0
    endloop
  endfacet
  facet normal 0 0 -1
    outer loop
      vertex 110.179 89.2216 0
      vertex 107.814 89.9901 0
      vertex 109.629 89.5241 0
    endloop
  endfacet
  facet normal 0 0 -1
    outer loop
      vertex 109.629 89.5241 0
      vertex 107.814 89.9901 0
      vertex 109.045 89.7553 0
    endloop
  endfacet
  facet normal 0 0 -1
    outer loop
      vertex 109.045 89.7553 0
      vertex 107.814 89.9901 0
      vertex 108.437 89.9114 0
    endloop
  endfacet
  facet normal 0 0 -1
    outer loop
      vertex -107.814 -89.9901 0
      vertex 107.814 89.9901 0
      vertex 107.814 -89.9901 0
    endloop
  endfacet
  facet normal 0 0 -1
    outer loop
      vertex -107.814 -89.9901 0
      vertex -107.814 89.9901 0
      vertex 107.814 89.9901 0
    endloop
  endfacet
  facet normal 0 0 -1
    outer loop
      vertex -112.5 -85 0
      vertex -107.814 -89.9901 0
      vertex -108.437 -89.9114 0
    endloop
  endfacet
  facet normal 0 0 -1
    outer loop
      vertex -107.814 -89.9901 0
      vertex -112.5 -85 0
      vertex -107.814 89.9901 0
    endloop
  endfacet
  facet normal 0 0 -1
    outer loop
      vertex -112.5 -85 0
      vertex -108.437 -89.9114 0
      vertex -109.045 -89.7553 0
    endloop
  endfacet
  facet normal 0 0 -1
    outer loop
      vertex -112.5 85 0
      vertex -107.814 89.9901 0
      vertex -112.5 -85 0
    endloop
  endfacet
  facet normal 0 0 -1
    outer loop
      vertex -112.5 -85 0
      vertex -109.045 -89.7553 0
      vertex -109.629 -89.5241 0
    endloop
  endfacet
  facet normal 0 0 -1
    outer loop
      vertex -107.814 89.9901 0
      vertex -112.5 85 0
      vertex -108.437 89.9114 0
    endloop
  endfacet
  facet normal 0 0 -1
    outer loop
      vertex -112.5 -85 0
      vertex -109.629 -89.5241 0
      vertex -110.179 -89.2216 0
    endloop
  endfacet
  facet normal 0 0 -1
    outer loop
      vertex -108.437 89.9114 0
      vertex -112.5 85 0
      vertex -109.045 89.7553 0
    endloop
  endfacet
  facet normal 0 0 -1
    outer loop
      vertex -112.5 -85 0
      vertex -110.179 -89.2216 0
      vertex -110.687 -88.8526 0
    endloop
  endfacet
  facet normal 0 0 -1
    outer loop
      vertex -109.045 89.7553 0
      vertex -112.5 85 0
      vertex -109.629 89.5241 0
    endloop
  endfacet
  facet normal 0 0 -1
    outer loop
      vertex -112.5 -85 0
      vertex -110.687 -88.8526 0
      vertex -111.145 -88.4227 0
    endloop
  endfacet
  facet normal 0 0 -1
    outer loop
      vertex -109.629 89.5241 0
      vertex -112.5 85 0
      vertex -110.179 89.2216 0
    endloop
  endfacet
  facet normal 0 0 -1
    outer loop
      vertex -112.5 -85 0
      vertex -111.145 -88.4227 0
      vertex -111.545 -87.9389 0
    endloop
  endfacet
  facet normal 0 0 -1
    outer loop
      vertex -110.179 89.2216 0
      vertex -112.5 85 0
      vertex -110.687 88.8526 0
    endloop
  endfacet
  facet normal 0 0 -1
    outer loop
      vertex -112.5 -85 0
      vertex -111.545 -87.9389 0
      vertex -111.882 -87.4088 0
    endloop
  endfacet
  facet normal 0 0 -1
    outer loop
      vertex -110.687 88.8526 0
      vertex -112.5 85 0
      vertex -111.145 88.4227 0
    endloop
  endfacet
  facet normal 0 0 -1
    outer loop
      vertex -112.5 -85 0
      vertex -111.882 -87.4088 0
      vertex -112.149 -86.8406 0
    endloop
  endfacet
  facet normal 0 0 -1
    outer loop
      vertex -111.145 88.4227 0
      vertex -112.5 85 0
      vertex -111.545 87.9389 0
    endloop
  endfacet
  facet normal 0 0 -1
    outer loop
      vertex -112.5 -85 0
      vertex -112.149 -86.8406 0
      vertex -112.343 -86.2434 0
    endloop
  endfacet
  facet normal 0 0 -1
    outer loop
      vertex -111.545 87.9389 0
      vertex -112.5 85 0
      vertex -111.882 87.4088 0
    endloop
  endfacet
  facet normal 0 0 -1
    outer loop
      vertex -112.5 -85 0
      vertex -112.343 -86.2434 0
      vertex -112.461 -85.6267 0
    endloop
  endfacet
  facet normal 0 0 -1
    outer loop
      vertex -111.882 87.4088 0
      vertex -112.5 85 0
      vertex -112.149 86.8406 0
    endloop
  endfacet
  facet normal 0 0 -1
    outer loop
      vertex -112.149 86.8406 0
      vertex -112.5 85 0
      vertex -112.343 86.2434 0
    endloop
  endfacet
  facet normal 0 0 -1
    outer loop
      vertex -112.343 86.2434 0
      vertex -112.5 85 0
      vertex -112.461 85.6267 0
    endloop
  endfacet
  facet normal 0.481919 -0.876216 0
    outer loop
      vertex 109.629 -89.5241 0
      vertex 110.179 -89.2216 24
      vertex 109.629 -89.5241 24
    endloop
  endfacet
  facet normal 0.481919 -0.876216 0
    outer loop
      vertex 110.179 -89.2216 24
      vertex 109.629 -89.5241 0
      vertex 110.179 -89.2216 0
    endloop
  endfacet
  facet normal 0 -1 0
    outer loop
      vertex -107.814 -89.9901 0
      vertex 107.814 -89.9901 24
      vertex -107.814 -89.9901 24
    endloop
  endfacet
  facet normal 0 -1 -0
    outer loop
      vertex 107.814 -89.9901 24
      vertex -107.814 -89.9901 0
      vertex 107.814 -89.9901 0
    endloop
  endfacet
  facet normal 0.998069 0.0621106 0
    outer loop
      vertex 112.5 85 24
      vertex 112.461 85.6267 0
      vertex 112.461 85.6267 24
    endloop
  endfacet
  facet normal 0.998069 0.0621106 0
    outer loop
      vertex 112.461 85.6267 0
      vertex 112.5 85 24
      vertex 112.5 85 0
    endloop
  endfacet
  facet normal 0.125328 0.992115 -0
    outer loop
      vertex 108.437 89.9114 0
      vertex 107.814 89.9901 24
      vertex 108.437 89.9114 24
    endloop
  endfacet
  facet normal 0.125328 0.992115 0
    outer loop
      vertex 107.814 89.9901 24
      vertex 108.437 89.9114 0
      vertex 107.814 89.9901 0
    endloop
  endfacet
  facet normal -0.368094 0.929788 0
    outer loop
      vertex -109.045 89.7553 0
      vertex -109.629 89.5241 24
      vertex -109.045 89.7553 24
    endloop
  endfacet
  facet normal -0.368094 0.929788 0
    outer loop
      vertex -109.629 89.5241 24
      vertex -109.045 89.7553 0
      vertex -109.629 89.5241 0
    endloop
  endfacet
  facet normal -0.770696 0.637202 0
    outer loop
      vertex -111.545 87.9389 0
      vertex -111.145 88.4227 24
      vertex -111.145 88.4227 0
    endloop
  endfacet
  facet normal -0.770696 0.637202 0
    outer loop
      vertex -111.145 88.4227 24
      vertex -111.545 87.9389 0
      vertex -111.545 87.9389 24
    endloop
  endfacet
  facet normal -0.982182 0.187932 0
    outer loop
      vertex -112.461 85.6267 0
      vertex -112.343 86.2434 24
      vertex -112.343 86.2434 0
    endloop
  endfacet
  facet normal -0.982182 0.187932 0
    outer loop
      vertex -112.343 86.2434 24
      vertex -112.461 85.6267 0
      vertex -112.461 85.6267 24
    endloop
  endfacet
  facet normal -0.843904 -0.536494 0
    outer loop
      vertex -111.545 -87.9389 0
      vertex -111.882 -87.4088 24
      vertex -111.882 -87.4088 0
    endloop
  endfacet
  facet normal -0.843904 -0.536494 0
    outer loop
      vertex -111.882 -87.4088 24
      vertex -111.545 -87.9389 0
      vertex -111.545 -87.9389 24
    endloop
  endfacet
  facet normal -0.905057 -0.425291 0
    outer loop
      vertex -111.882 -87.4088 0
      vertex -112.149 -86.8406 24
      vertex -112.149 -86.8406 0
    endloop
  endfacet
  facet normal -0.905057 -0.425291 0
    outer loop
      vertex -112.149 -86.8406 24
      vertex -111.882 -87.4088 0
      vertex -111.882 -87.4088 24
    endloop
  endfacet
  facet normal -0.770696 -0.637202 0
    outer loop
      vertex -111.145 -88.4227 0
      vertex -111.545 -87.9389 24
      vertex -111.545 -87.9389 0
    endloop
  endfacet
  facet normal -0.770696 -0.637202 0
    outer loop
      vertex -111.545 -87.9389 24
      vertex -111.145 -88.4227 0
      vertex -111.145 -88.4227 24
    endloop
  endfacet
  facet normal -0.951076 -0.308956 0
    outer loop
      vertex -112.149 -86.8406 0
      vertex -112.343 -86.2434 24
      vertex -112.343 -86.2434 0
    endloop
  endfacet
  facet normal -0.951076 -0.308956 0
    outer loop
      vertex -112.343 -86.2434 24
      vertex -112.149 -86.8406 0
      vertex -112.149 -86.8406 24
    endloop
  endfacet
  facet normal -0.998069 -0.0621106 0
    outer loop
      vertex -112.461 -85.6267 0
      vertex -112.5 -85 24
      vertex -112.5 -85 0
    endloop
  endfacet
  facet normal -0.998069 -0.0621106 0
    outer loop
      vertex -112.5 -85 24
      vertex -112.461 -85.6267 0
      vertex -112.461 -85.6267 24
    endloop
  endfacet
  facet normal 0.368094 -0.929788 0
    outer loop
      vertex 109.045 -89.7553 0
      vertex 109.629 -89.5241 24
      vertex 109.045 -89.7553 24
    endloop
  endfacet
  facet normal 0.368094 -0.929788 0
    outer loop
      vertex 109.629 -89.5241 24
      vertex 109.045 -89.7553 0
      vertex 109.629 -89.5241 0
    endloop
  endfacet
  facet normal 0.770696 -0.637202 0
    outer loop
      vertex 111.145 -88.4227 24
      vertex 111.545 -87.9389 0
      vertex 111.545 -87.9389 24
    endloop
  endfacet
  facet normal 0.770696 -0.637202 0
    outer loop
      vertex 111.545 -87.9389 0
      vertex 111.145 -88.4227 24
      vertex 111.145 -88.4227 0
    endloop
  endfacet
  facet normal 0.951076 -0.308956 0
    outer loop
      vertex 112.149 -86.8406 24
      vertex 112.343 -86.2434 0
      vertex 112.343 -86.2434 24
    endloop
  endfacet
  facet normal 0.951076 -0.308956 0
    outer loop
      vertex 112.343 -86.2434 0
      vertex 112.149 -86.8406 24
      vertex 112.149 -86.8406 0
    endloop
  endfacet
  facet normal -0.248678 -0.968586 0
    outer loop
      vertex -109.045 -89.7553 0
      vertex -108.437 -89.9114 24
      vertex -109.045 -89.7553 24
    endloop
  endfacet
  facet normal -0.248678 -0.968586 -0
    outer loop
      vertex -108.437 -89.9114 24
      vertex -109.045 -89.7553 0
      vertex -108.437 -89.9114 0
    endloop
  endfacet
  facet normal -0.125328 -0.992115 0
    outer loop
      vertex -108.437 -89.9114 0
      vertex -107.814 -89.9901 24
      vertex -108.437 -89.9114 24
    endloop
  endfacet
  facet normal -0.125328 -0.992115 -0
    outer loop
      vertex -107.814 -89.9901 24
      vertex -108.437 -89.9114 0
      vertex -107.814 -89.9901 0
    endloop
  endfacet
  facet normal 0.951076 0.308956 0
    outer loop
      vertex 112.343 86.2434 24
      vertex 112.149 86.8406 0
      vertex 112.149 86.8406 24
    endloop
  endfacet
  facet normal 0.951076 0.308956 0
    outer loop
      vertex 112.149 86.8406 0
      vertex 112.343 86.2434 24
      vertex 112.343 86.2434 0
    endloop
  endfacet
  facet normal 0.982182 0.187932 0
    outer loop
      vertex 112.461 85.6267 24
      vertex 112.343 86.2434 0
      vertex 112.343 86.2434 24
    endloop
  endfacet
  facet normal 0.982182 0.187932 0
    outer loop
      vertex 112.343 86.2434 0
      vertex 112.461 85.6267 24
      vertex 112.461 85.6267 0
    endloop
  endfacet
  facet normal 0.843904 0.536494 0
    outer loop
      vertex 111.882 87.4088 24
      vertex 111.545 87.9389 0
      vertex 111.545 87.9389 24
    endloop
  endfacet
  facet normal 0.843904 0.536494 0
    outer loop
      vertex 111.545 87.9389 0
      vertex 111.882 87.4088 24
      vertex 111.882 87.4088 0
    endloop
  endfacet
  facet normal 0.905057 0.425291 0
    outer loop
      vertex 112.149 86.8406 24
      vertex 111.882 87.4088 0
      vertex 111.882 87.4088 24
    endloop
  endfacet
  facet normal 0.905057 0.425291 0
    outer loop
      vertex 111.882 87.4088 0
      vertex 112.149 86.8406 24
      vertex 112.149 86.8406 0
    endloop
  endfacet
  facet normal 0.684386 0.72912 -0
    outer loop
      vertex 111.145 88.4227 0
      vertex 110.687 88.8526 24
      vertex 111.145 88.4227 24
    endloop
  endfacet
  facet normal 0.684386 0.72912 0
    outer loop
      vertex 110.687 88.8526 24
      vertex 111.145 88.4227 0
      vertex 110.687 88.8526 0
    endloop
  endfacet
  facet normal 0.368094 0.929788 -0
    outer loop
      vertex 109.629 89.5241 0
      vertex 109.045 89.7553 24
      vertex 109.629 89.5241 24
    endloop
  endfacet
  facet normal 0.368094 0.929788 0
    outer loop
      vertex 109.045 89.7553 24
      vertex 109.629 89.5241 0
      vertex 109.045 89.7553 0
    endloop
  endfacet
  facet normal 0.248678 0.968586 -0
    outer loop
      vertex 109.045 89.7553 0
      vertex 108.437 89.9114 24
      vertex 109.045 89.7553 24
    endloop
  endfacet
  facet normal 0.248678 0.968586 0
    outer loop
      vertex 108.437 89.9114 24
      vertex 109.045 89.7553 0
      vertex 108.437 89.9114 0
    endloop
  endfacet
  facet normal -0.248678 0.968586 0
    outer loop
      vertex -108.437 89.9114 0
      vertex -109.045 89.7553 24
      vertex -108.437 89.9114 24
    endloop
  endfacet
  facet normal -0.248678 0.968586 0
    outer loop
      vertex -109.045 89.7553 24
      vertex -108.437 89.9114 0
      vertex -109.045 89.7553 0
    endloop
  endfacet
  facet normal -0.684386 0.72912 0
    outer loop
      vertex -110.687 88.8526 0
      vertex -111.145 88.4227 24
      vertex -110.687 88.8526 24
    endloop
  endfacet
  facet normal -0.684386 0.72912 0
    outer loop
      vertex -111.145 88.4227 24
      vertex -110.687 88.8526 0
      vertex -111.145 88.4227 0
    endloop
  endfacet
  facet normal -0.125328 0.992115 0
    outer loop
      vertex -107.814 89.9901 0
      vertex -108.437 89.9114 24
      vertex -107.814 89.9901 24
    endloop
  endfacet
  facet normal -0.125328 0.992115 0
    outer loop
      vertex -108.437 89.9114 24
      vertex -107.814 89.9901 0
      vertex -108.437 89.9114 0
    endloop
  endfacet
  facet normal -0.905057 0.425291 0
    outer loop
      vertex -112.149 86.8406 0
      vertex -111.882 87.4088 24
      vertex -111.882 87.4088 0
    endloop
  endfacet
  facet normal -0.905057 0.425291 0
    outer loop
      vertex -111.882 87.4088 24
      vertex -112.149 86.8406 0
      vertex -112.149 86.8406 24
    endloop
  endfacet
  facet normal -0.951076 0.308956 0
    outer loop
      vertex -112.343 86.2434 0
      vertex -112.149 86.8406 24
      vertex -112.149 86.8406 0
    endloop
  endfacet
  facet normal -0.951076 0.308956 0
    outer loop
      vertex -112.149 86.8406 24
      vertex -112.343 86.2434 0
      vertex -112.343 86.2434 24
    endloop
  endfacet
  facet normal -0.684386 -0.72912 0
    outer loop
      vertex -111.145 -88.4227 0
      vertex -110.687 -88.8526 24
      vertex -111.145 -88.4227 24
    endloop
  endfacet
  facet normal -0.684386 -0.72912 -0
    outer loop
      vertex -110.687 -88.8526 24
      vertex -111.145 -88.4227 0
      vertex -110.687 -88.8526 0
    endloop
  endfacet
  facet normal 0.125328 -0.992115 0
    outer loop
      vertex 107.814 -89.9901 0
      vertex 108.437 -89.9114 24
      vertex 107.814 -89.9901 24
    endloop
  endfacet
  facet normal 0.125328 -0.992115 0
    outer loop
      vertex 108.437 -89.9114 24
      vertex 107.814 -89.9901 0
      vertex 108.437 -89.9114 0
    endloop
  endfacet
  facet normal 0.248678 -0.968586 0
    outer loop
      vertex 108.437 -89.9114 0
      vertex 109.045 -89.7553 24
      vertex 108.437 -89.9114 24
    endloop
  endfacet
  facet normal 0.248678 -0.968586 0
    outer loop
      vertex 109.045 -89.7553 24
      vertex 108.437 -89.9114 0
      vertex 109.045 -89.7553 0
    endloop
  endfacet
  facet normal 0.684386 -0.72912 0
    outer loop
      vertex 110.687 -88.8526 0
      vertex 111.145 -88.4227 24
      vertex 110.687 -88.8526 24
    endloop
  endfacet
  facet normal 0.684386 -0.72912 0
    outer loop
      vertex 111.145 -88.4227 24
      vertex 110.687 -88.8526 0
      vertex 111.145 -88.4227 0
    endloop
  endfacet
  facet normal 0.843904 -0.536494 0
    outer loop
      vertex 111.545 -87.9389 24
      vertex 111.882 -87.4088 0
      vertex 111.882 -87.4088 24
    endloop
  endfacet
  facet normal 0.843904 -0.536494 0
    outer loop
      vertex 111.882 -87.4088 0
      vertex 111.545 -87.9389 24
      vertex 111.545 -87.9389 0
    endloop
  endfacet
  facet normal 0.982182 -0.187932 0
    outer loop
      vertex 112.343 -86.2434 24
      vertex 112.461 -85.6267 0
      vertex 112.461 -85.6267 24
    endloop
  endfacet
  facet normal 0.982182 -0.187932 0
    outer loop
      vertex 112.461 -85.6267 0
      vertex 112.343 -86.2434 24
      vertex 112.343 -86.2434 0
    endloop
  endfacet
  facet normal -0.368094 -0.929788 0
    outer loop
      vertex -109.629 -89.5241 0
      vertex -109.045 -89.7553 24
      vertex -109.629 -89.5241 24
    endloop
  endfacet
  facet normal -0.368094 -0.929788 -0
    outer loop
      vertex -109.045 -89.7553 24
      vertex -109.629 -89.5241 0
      vertex -109.045 -89.7553 0
    endloop
  endfacet
  facet normal -0.587698 -0.80908 0
    outer loop
      vertex -110.687 -88.8526 0
      vertex -110.179 -89.2216 24
      vertex -110.687 -88.8526 24
    endloop
  endfacet
  facet normal -0.587698 -0.80908 -0
    outer loop
      vertex -110.179 -89.2216 24
      vertex -110.687 -88.8526 0
      vertex -110.179 -89.2216 0
    endloop
  endfacet
  facet normal 0.770696 0.637202 0
    outer loop
      vertex 111.545 87.9389 24
      vertex 111.145 88.4227 0
      vertex 111.145 88.4227 24
    endloop
  endfacet
  facet normal 0.770696 0.637202 0
    outer loop
      vertex 111.145 88.4227 0
      vertex 111.545 87.9389 24
      vertex 111.545 87.9389 0
    endloop
  endfacet
  facet normal 0.481919 0.876216 -0
    outer loop
      vertex 110.179 89.2216 0
      vertex 109.629 89.5241 24
      vertex 110.179 89.2216 24
    endloop
  endfacet
  facet normal 0.481919 0.876216 0
    outer loop
      vertex 109.629 89.5241 24
      vertex 110.179 89.2216 0
      vertex 109.629 89.5241 0
    endloop
  endfacet
  facet normal 0.587698 0.80908 -0
    outer loop
      vertex 110.687 88.8526 0
      vertex 110.179 89.2216 24
      vertex 110.687 88.8526 24
    endloop
  endfacet
  facet normal 0.587698 0.80908 0
    outer loop
      vertex 110.179 89.2216 24
      vertex 110.687 88.8526 0
      vertex 110.179 89.2216 0
    endloop
  endfacet
  facet normal -0.587698 0.80908 0
    outer loop
      vertex -110.179 89.2216 0
      vertex -110.687 88.8526 24
      vertex -110.179 89.2216 24
    endloop
  endfacet
  facet normal -0.587698 0.80908 0
    outer loop
      vertex -110.687 88.8526 24
      vertex -110.179 89.2216 0
      vertex -110.687 88.8526 0
    endloop
  endfacet
  facet normal -0.481919 0.876216 0
    outer loop
      vertex -109.629 89.5241 0
      vertex -110.179 89.2216 24
      vertex -109.629 89.5241 24
    endloop
  endfacet
  facet normal -0.481919 0.876216 0
    outer loop
      vertex -110.179 89.2216 24
      vertex -109.629 89.5241 0
      vertex -110.179 89.2216 0
    endloop
  endfacet
  facet normal -0.843904 0.536494 0
    outer loop
      vertex -111.882 87.4088 0
      vertex -111.545 87.9389 24
      vertex -111.545 87.9389 0
    endloop
  endfacet
  facet normal -0.843904 0.536494 0
    outer loop
      vertex -111.545 87.9389 24
      vertex -111.882 87.4088 0
      vertex -111.882 87.4088 24
    endloop
  endfacet
  facet normal 0.587698 -0.80908 0
    outer loop
      vertex 110.179 -89.2216 0
      vertex 110.687 -88.8526 24
      vertex 110.179 -89.2216 24
    endloop
  endfacet
  facet normal 0.587698 -0.80908 0
    outer loop
      vertex 110.687 -88.8526 24
      vertex 110.179 -89.2216 0
      vertex 110.687 -88.8526 0
    endloop
  endfacet
  facet normal 0.905057 -0.425291 0
    outer loop
      vertex 111.882 -87.4088 24
      vertex 112.149 -86.8406 0
      vertex 112.149 -86.8406 24
    endloop
  endfacet
  facet normal 0.905057 -0.425291 0
    outer loop
      vertex 112.149 -86.8406 0
      vertex 111.882 -87.4088 24
      vertex 111.882 -87.4088 0
    endloop
  endfacet
  facet normal 0.998069 -0.0621106 0
    outer loop
      vertex 112.461 -85.6267 24
      vertex 112.5 -85 0
      vertex 112.5 -85 24
    endloop
  endfacet
  facet normal 0.998069 -0.0621106 0
    outer loop
      vertex 112.5 -85 0
      vertex 112.461 -85.6267 24
      vertex 112.461 -85.6267 0
    endloop
  endfacet
  facet normal -0.481919 -0.876216 0
    outer loop
      vertex -110.179 -89.2216 0
      vertex -109.629 -89.5241 24
      vertex -110.179 -89.2216 24
    endloop
  endfacet
  facet normal -0.481919 -0.876216 -0
    outer loop
      vertex -109.629 -89.5241 24
      vertex -110.179 -89.2216 0
      vertex -109.629 -89.5241 0
    endloop
  endfacet
  facet normal -0.125258 0.992124 0
    outer loop
      vertex 108.25 -88.9291 2
      vertex 107.751 -88.9921 24
      vertex 108.25 -88.9291 24
    endloop
  endfacet
  facet normal -0.125258 0.992124 0
    outer loop
      vertex 107.751 -88.9921 24
      vertex 108.25 -88.9291 2
      vertex 107.751 -88.9921 2
    endloop
  endfacet
  facet normal 0 -1 0
    outer loop
      vertex -107.751 88.9921 2
      vertex 107.751 88.9921 24
      vertex -107.751 88.9921 24
    endloop
  endfacet
  facet normal 0 -1 -0
    outer loop
      vertex 107.751 88.9921 24
      vertex -107.751 88.9921 2
      vertex 107.751 88.9921 2
    endloop
  endfacet
  facet normal 0.587131 0.809492 -0
    outer loop
      vertex -109.643 -88.3773 2
      vertex -110.05 -88.0821 24
      vertex -109.643 -88.3773 24
    endloop
  endfacet
  facet normal 0.587131 0.809492 0
    outer loop
      vertex -110.05 -88.0821 24
      vertex -109.643 -88.3773 2
      vertex -110.05 -88.0821 2
    endloop
  endfacet
  facet normal 0 1 -0
    outer loop
      vertex 107.751 -88.9921 2
      vertex -107.751 -88.9921 24
      vertex 107.751 -88.9921 24
    endloop
  endfacet
  facet normal 0 1 0
    outer loop
      vertex -107.751 -88.9921 24
      vertex 107.751 -88.9921 2
      vertex -107.751 -88.9921 2
    endloop
  endfacet
  facet normal -1 0 0
    outer loop
      vertex 111.5 -85 2
      vertex 111.5 85 24
      vertex 111.5 85 2
    endloop
  endfacet
  facet normal -1 -0 0
    outer loop
      vertex 111.5 85 24
      vertex 111.5 -85 2
      vertex 111.5 -85 24
    endloop
  endfacet
  facet normal -0.684762 -0.728767 0
    outer loop
      vertex 110.05 88.0821 2
      vertex 110.416 87.7382 24
      vertex 110.05 88.0821 24
    endloop
  endfacet
  facet normal -0.684762 -0.728767 -0
    outer loop
      vertex 110.416 87.7382 24
      vertex 110.05 88.0821 2
      vertex 110.416 87.7382 2
    endloop
  endfacet
  facet normal 0.248908 0.968527 -0
    outer loop
      vertex -108.25 -88.9291 2
      vertex -108.736 -88.8042 24
      vertex -108.25 -88.9291 24
    endloop
  endfacet
  facet normal 0.248908 0.968527 0
    outer loop
      vertex -108.736 -88.8042 24
      vertex -108.25 -88.9291 2
      vertex -108.736 -88.8042 2
    endloop
  endfacet
  facet normal 0.125258 0.992124 -0
    outer loop
      vertex -107.751 -88.9921 2
      vertex -108.25 -88.9291 24
      vertex -107.751 -88.9921 24
    endloop
  endfacet
  facet normal 0.125258 0.992124 0
    outer loop
      vertex -108.25 -88.9291 24
      vertex -107.751 -88.9921 2
      vertex -108.25 -88.9291 2
    endloop
  endfacet
  facet normal 1 -0 0
    outer loop
      vertex -111.5 -85 24
      vertex -111.5 85 2
      vertex -111.5 85 24
    endloop
  endfacet
  facet normal 1 0 0
    outer loop
      vertex -111.5 85 2
      vertex -111.5 -85 24
      vertex -111.5 -85 2
    endloop
  endfacet
  facet normal 0.904728 0.425989 0
    outer loop
      vertex -111.005 -86.927 24
      vertex -111.219 -86.4725 2
      vertex -111.219 -86.4725 24
    endloop
  endfacet
  facet normal 0.904728 0.425989 0
    outer loop
      vertex -111.219 -86.4725 2
      vertex -111.005 -86.927 24
      vertex -111.005 -86.927 2
    endloop
  endfacet
  facet normal -0.770745 0.637144 0
    outer loop
      vertex 110.416 -87.7382 2
      vertex 110.736 -87.3511 24
      vertex 110.736 -87.3511 2
    endloop
  endfacet
  facet normal -0.770745 0.637144 0
    outer loop
      vertex 110.736 -87.3511 24
      vertex 110.416 -87.7382 2
      vertex 110.416 -87.7382 24
    endloop
  endfacet
  facet normal -0.125258 -0.992124 0
    outer loop
      vertex 107.751 88.9921 2
      vertex 108.25 88.9291 24
      vertex 107.751 88.9921 24
    endloop
  endfacet
  facet normal -0.125258 -0.992124 -0
    outer loop
      vertex 108.25 88.9291 24
      vertex 107.751 88.9921 2
      vertex 108.25 88.9291 2
    endloop
  endfacet
  facet normal -0.997969 0.0637044 0
    outer loop
      vertex 111.468 -85.5013 2
      vertex 111.5 -85 24
      vertex 111.5 -85 2
    endloop
  endfacet
  facet normal -0.997969 0.0637044 0
    outer loop
      vertex 111.5 -85 24
      vertex 111.468 -85.5013 2
      vertex 111.468 -85.5013 24
    endloop
  endfacet
  facet normal 0.368127 0.929775 -0
    outer loop
      vertex -108.736 -88.8042 2
      vertex -109.203 -88.6193 24
      vertex -108.736 -88.8042 24
    endloop
  endfacet
  facet normal 0.368127 0.929775 0
    outer loop
      vertex -109.203 -88.6193 24
      vertex -108.736 -88.8042 2
      vertex -109.203 -88.6193 2
    endloop
  endfacet
  facet normal 0.481919 0.876216 -0
    outer loop
      vertex -109.203 -88.6193 2
      vertex -109.643 -88.3773 24
      vertex -109.203 -88.6193 24
    endloop
  endfacet
  facet normal 0.481919 0.876216 0
    outer loop
      vertex -109.643 -88.3773 24
      vertex -109.203 -88.6193 2
      vertex -109.643 -88.3773 2
    endloop
  endfacet
  facet normal 0.770745 0.637144 0
    outer loop
      vertex -110.416 -87.7382 24
      vertex -110.736 -87.3511 2
      vertex -110.736 -87.3511 24
    endloop
  endfacet
  facet normal 0.770745 0.637144 0
    outer loop
      vertex -110.736 -87.3511 2
      vertex -110.416 -87.7382 24
      vertex -110.416 -87.7382 2
    endloop
  endfacet
  facet normal 0.368127 -0.929775 0
    outer loop
      vertex -109.203 88.6193 2
      vertex -108.736 88.8042 24
      vertex -109.203 88.6193 24
    endloop
  endfacet
  facet normal 0.368127 -0.929775 0
    outer loop
      vertex -108.736 88.8042 24
      vertex -109.203 88.6193 2
      vertex -108.736 88.8042 2
    endloop
  endfacet
  facet normal -0.481919 0.876216 0
    outer loop
      vertex 109.643 -88.3773 2
      vertex 109.203 -88.6193 24
      vertex 109.643 -88.3773 24
    endloop
  endfacet
  facet normal -0.481919 0.876216 0
    outer loop
      vertex 109.203 -88.6193 24
      vertex 109.643 -88.3773 2
      vertex 109.203 -88.6193 2
    endloop
  endfacet
  facet normal -0.368127 -0.929775 0
    outer loop
      vertex 108.736 88.8042 2
      vertex 109.203 88.6193 24
      vertex 108.736 88.8042 24
    endloop
  endfacet
  facet normal -0.368127 -0.929775 -0
    outer loop
      vertex 109.203 88.6193 24
      vertex 108.736 88.8042 2
      vertex 109.203 88.6193 2
    endloop
  endfacet
  facet normal -0.587131 -0.809492 0
    outer loop
      vertex 109.643 88.3773 2
      vertex 110.05 88.0821 24
      vertex 109.643 88.3773 24
    endloop
  endfacet
  facet normal -0.587131 -0.809492 -0
    outer loop
      vertex 110.05 88.0821 24
      vertex 109.643 88.3773 2
      vertex 110.05 88.0821 2
    endloop
  endfacet
  facet normal -0.248908 -0.968527 0
    outer loop
      vertex 108.25 88.9291 2
      vertex 108.736 88.8042 24
      vertex 108.25 88.9291 24
    endloop
  endfacet
  facet normal -0.248908 -0.968527 -0
    outer loop
      vertex 108.736 88.8042 24
      vertex 108.25 88.9291 2
      vertex 108.736 88.8042 2
    endloop
  endfacet
  facet normal -0.951182 0.308631 0
    outer loop
      vertex 111.219 -86.4725 2
      vertex 111.374 -85.9948 24
      vertex 111.374 -85.9948 2
    endloop
  endfacet
  facet normal -0.951182 0.308631 0
    outer loop
      vertex 111.374 -85.9948 24
      vertex 111.219 -86.4725 2
      vertex 111.219 -86.4725 24
    endloop
  endfacet
  facet normal -0.684762 0.728767 0
    outer loop
      vertex 110.416 -87.7382 2
      vertex 110.05 -88.0821 24
      vertex 110.416 -87.7382 24
    endloop
  endfacet
  facet normal -0.684762 0.728767 0
    outer loop
      vertex 110.05 -88.0821 24
      vertex 110.416 -87.7382 2
      vertex 110.05 -88.0821 2
    endloop
  endfacet
  facet normal 0.951182 0.308631 0
    outer loop
      vertex -111.219 -86.4725 24
      vertex -111.374 -85.9948 2
      vertex -111.374 -85.9948 24
    endloop
  endfacet
  facet normal 0.951182 0.308631 0
    outer loop
      vertex -111.374 -85.9948 2
      vertex -111.219 -86.4725 24
      vertex -111.219 -86.4725 2
    endloop
  endfacet
  facet normal 0 0 1
    outer loop
      vertex 107.751 88.9921 2
      vertex 111.5 85 2
      vertex 111.468 85.5013 2
    endloop
  endfacet
  facet normal 0 0 1
    outer loop
      vertex 111.5 85 2
      vertex 107.751 88.9921 2
      vertex 111.5 -85 2
    endloop
  endfacet
  facet normal 0 0 1
    outer loop
      vertex 107.751 88.9921 2
      vertex 111.468 85.5013 2
      vertex 111.374 85.9948 2
    endloop
  endfacet
  facet normal 0 0 1
    outer loop
      vertex 107.751 -88.9921 2
      vertex 111.5 -85 2
      vertex 107.751 88.9921 2
    endloop
  endfacet
  facet normal 0 0 1
    outer loop
      vertex 107.751 88.9921 2
      vertex 111.374 85.9948 2
      vertex 111.219 86.4725 2
    endloop
  endfacet
  facet normal 0 0 1
    outer loop
      vertex 111.5 -85 2
      vertex 107.751 -88.9921 2
      vertex 111.468 -85.5013 2
    endloop
  endfacet
  facet normal 0 0 1
    outer loop
      vertex 107.751 88.9921 2
      vertex 111.219 86.4725 2
      vertex 111.005 86.927 2
    endloop
  endfacet
  facet normal 0 0 1
    outer loop
      vertex 111.468 -85.5013 2
      vertex 107.751 -88.9921 2
      vertex 111.374 -85.9948 2
    endloop
  endfacet
  facet normal 0 0 1
    outer loop
      vertex 107.751 88.9921 2
      vertex 111.005 86.927 2
      vertex 110.736 87.3511 2
    endloop
  endfacet
  facet normal 0 0 1
    outer loop
      vertex 111.374 -85.9948 2
      vertex 107.751 -88.9921 2
      vertex 111.219 -86.4725 2
    endloop
  endfacet
  facet normal 0 0 1
    outer loop
      vertex 107.751 88.9921 2
      vertex 110.736 87.3511 2
      vertex 110.416 87.7382 2
    endloop
  endfacet
  facet normal 0 0 1
    outer loop
      vertex 111.219 -86.4725 2
      vertex 107.751 -88.9921 2
      vertex 111.005 -86.927 2
    endloop
  endfacet
  facet normal 0 0 1
    outer loop
      vertex 107.751 88.9921 2
      vertex 110.416 87.7382 2
      vertex 110.05 88.0821 2
    endloop
  endfacet
  facet normal 0 0 1
    outer loop
      vertex 111.005 -86.927 2
      vertex 107.751 -88.9921 2
      vertex 110.736 -87.3511 2
    endloop
  endfacet
  facet normal 0 0 1
    outer loop
      vertex 107.751 88.9921 2
      vertex 110.05 88.0821 2
      vertex 109.643 88.3773 2
    endloop
  endfacet
  facet normal 0 0 1
    outer loop
      vertex 110.736 -87.3511 2
      vertex 107.751 -88.9921 2
      vertex 110.416 -87.7382 2
    endloop
  endfacet
  facet normal 0 0 1
    outer loop
      vertex 107.751 88.9921 2
      vertex 109.643 88.3773 2
      vertex 109.203 88.6193 2
    endloop
  endfacet
  facet normal 0 0 1
    outer loop
      vertex 110.416 -87.7382 2
      vertex 107.751 -88.9921 2
      vertex 110.05 -88.0821 2
    endloop
  endfacet
  facet normal 0 0 1
    outer loop
      vertex 107.751 88.9921 2
      vertex 109.203 88.6193 2
      vertex 108.736 88.8042 2
    endloop
  endfacet
  facet normal 0 0 1
    outer loop
      vertex 110.05 -88.0821 2
      vertex 107.751 -88.9921 2
      vertex 109.643 -88.3773 2
    endloop
  endfacet
  facet normal 0 0 1
    outer loop
      vertex 107.751 88.9921 2
      vertex 108.736 88.8042 2
      vertex 108.25 88.9291 2
    endloop
  endfacet
  facet normal 0 0 1
    outer loop
      vertex 109.643 -88.3773 2
      vertex 107.751 -88.9921 2
      vertex 109.203 -88.6193 2
    endloop
  endfacet
  facet normal 0 0 1
    outer loop
      vertex 109.203 -88.6193 2
      vertex 107.751 -88.9921 2
      vertex 108.736 -88.8042 2
    endloop
  endfacet
  facet normal 0 0 1
    outer loop
      vertex 108.736 -88.8042 2
      vertex 107.751 -88.9921 2
      vertex 108.25 -88.9291 2
    endloop
  endfacet
  facet normal -0 0 1
    outer loop
      vertex -107.751 88.9921 2
      vertex 107.751 -88.9921 2
      vertex 107.751 88.9921 2
    endloop
  endfacet
  facet normal 0 0 1
    outer loop
      vertex -107.751 88.9921 2
      vertex -107.751 -88.9921 2
      vertex 107.751 -88.9921 2
    endloop
  endfacet
  facet normal 0 0 1
    outer loop
      vertex -111.5 85 2
      vertex -107.751 88.9921 2
      vertex -108.25 88.9291 2
    endloop
  endfacet
  facet normal 0 0 1
    outer loop
      vertex -107.751 88.9921 2
      vertex -111.5 85 2
      vertex -107.751 -88.9921 2
    endloop
  endfacet
  facet normal 0 0 1
    outer loop
      vertex -111.5 85 2
      vertex -108.25 88.9291 2
      vertex -108.736 88.8042 2
    endloop
  endfacet
  facet normal -0 0 1
    outer loop
      vertex -111.5 -85 2
      vertex -107.751 -88.9921 2
      vertex -111.5 85 2
    endloop
  endfacet
  facet normal 0 0 1
    outer loop
      vertex -111.5 85 2
      vertex -108.736 88.8042 2
      vertex -109.203 88.6193 2
    endloop
  endfacet
  facet normal 0 0 1
    outer loop
      vertex -107.751 -88.9921 2
      vertex -111.5 -85 2
      vertex -108.25 -88.9291 2
    endloop
  endfacet
  facet normal 0 0 1
    outer loop
      vertex -111.5 85 2
      vertex -109.203 88.6193 2
      vertex -109.643 88.3773 2
    endloop
  endfacet
  facet normal 0 0 1
    outer loop
      vertex -108.25 -88.9291 2
      vertex -111.5 -85 2
      vertex -108.736 -88.8042 2
    endloop
  endfacet
  facet normal 0 0 1
    outer loop
      vertex -111.5 85 2
      vertex -109.643 88.3773 2
      vertex -110.05 88.0821 2
    endloop
  endfacet
  facet normal 0 0 1
    outer loop
      vertex -108.736 -88.8042 2
      vertex -111.5 -85 2
      vertex -109.203 -88.6193 2
    endloop
  endfacet
  facet normal 0 0 1
    outer loop
      vertex -111.5 85 2
      vertex -110.05 88.0821 2
      vertex -110.416 87.7382 2
    endloop
  endfacet
  facet normal 0 0 1
    outer loop
      vertex -109.203 -88.6193 2
      vertex -111.5 -85 2
      vertex -109.643 -88.3773 2
    endloop
  endfacet
  facet normal 0 0 1
    outer loop
      vertex -111.5 85 2
      vertex -110.416 87.7382 2
      vertex -110.736 87.3511 2
    endloop
  endfacet
  facet normal 0 0 1
    outer loop
      vertex -109.643 -88.3773 2
      vertex -111.5 -85 2
      vertex -110.05 -88.0821 2
    endloop
  endfacet
  facet normal 0 0 1
    outer loop
      vertex -111.5 85 2
      vertex -110.736 87.3511 2
      vertex -111.005 86.927 2
    endloop
  endfacet
  facet normal 0 0 1
    outer loop
      vertex -110.05 -88.0821 2
      vertex -111.5 -85 2
      vertex -110.416 -87.7382 2
    endloop
  endfacet
  facet normal 0 0 1
    outer loop
      vertex -111.5 85 2
      vertex -111.005 86.927 2
      vertex -111.219 86.4725 2
    endloop
  endfacet
  facet normal 0 0 1
    outer loop
      vertex -110.416 -87.7382 2
      vertex -111.5 -85 2
      vertex -110.736 -87.3511 2
    endloop
  endfacet
  facet normal 0 0 1
    outer loop
      vertex -111.5 85 2
      vertex -111.219 86.4725 2
      vertex -111.374 85.9948 2
    endloop
  endfacet
  facet normal 0 0 1
    outer loop
      vertex -110.736 -87.3511 2
      vertex -111.5 -85 2
      vertex -111.005 -86.927 2
    endloop
  endfacet
  facet normal 0 0 1
    outer loop
      vertex -111.5 85 2
      vertex -111.374 85.9948 2
      vertex -111.468 85.5013 2
    endloop
  endfacet
  facet normal 0 0 1
    outer loop
      vertex -111.005 -86.927 2
      vertex -111.5 -85 2
      vertex -111.219 -86.4725 2
    endloop
  endfacet
  facet normal 0 0 1
    outer loop
      vertex -111.219 -86.4725 2
      vertex -111.5 -85 2
      vertex -111.374 -85.9948 2
    endloop
  endfacet
  facet normal 0 0 1
    outer loop
      vertex -111.374 -85.9948 2
      vertex -111.5 -85 2
      vertex -111.468 -85.5013 2
    endloop
  endfacet
  facet normal 0.684762 0.728767 -0
    outer loop
      vertex -110.05 -88.0821 2
      vertex -110.416 -87.7382 24
      vertex -110.05 -88.0821 24
    endloop
  endfacet
  facet normal 0.684762 0.728767 0
    outer loop
      vertex -110.416 -87.7382 24
      vertex -110.05 -88.0821 2
      vertex -110.416 -87.7382 2
    endloop
  endfacet
  facet normal 0.951182 -0.308631 0
    outer loop
      vertex -111.374 85.9948 24
      vertex -111.219 86.4725 2
      vertex -111.219 86.4725 24
    endloop
  endfacet
  facet normal 0.951182 -0.308631 0
    outer loop
      vertex -111.219 86.4725 2
      vertex -111.374 85.9948 24
      vertex -111.374 85.9948 2
    endloop
  endfacet
  facet normal 0.982339 -0.187112 0
    outer loop
      vertex -111.468 85.5013 24
      vertex -111.374 85.9948 2
      vertex -111.374 85.9948 24
    endloop
  endfacet
  facet normal 0.982339 -0.187112 0
    outer loop
      vertex -111.374 85.9948 2
      vertex -111.468 85.5013 24
      vertex -111.468 85.5013 2
    endloop
  endfacet
  facet normal 0.770745 -0.637144 0
    outer loop
      vertex -110.736 87.3511 24
      vertex -110.416 87.7382 2
      vertex -110.416 87.7382 24
    endloop
  endfacet
  facet normal 0.770745 -0.637144 0
    outer loop
      vertex -110.416 87.7382 2
      vertex -110.736 87.3511 24
      vertex -110.736 87.3511 2
    endloop
  endfacet
  facet normal 0.481919 -0.876216 0
    outer loop
      vertex -109.643 88.3773 2
      vertex -109.203 88.6193 24
      vertex -109.643 88.3773 24
    endloop
  endfacet
  facet normal 0.481919 -0.876216 0
    outer loop
      vertex -109.203 88.6193 24
      vertex -109.643 88.3773 2
      vertex -109.203 88.6193 2
    endloop
  endfacet
  facet normal 0.248908 -0.968527 0
    outer loop
      vertex -108.736 88.8042 2
      vertex -108.25 88.9291 24
      vertex -108.736 88.8042 24
    endloop
  endfacet
  facet normal 0.248908 -0.968527 0
    outer loop
      vertex -108.25 88.9291 24
      vertex -108.736 88.8042 2
      vertex -108.25 88.9291 2
    endloop
  endfacet
  facet normal 0.125258 -0.992124 0
    outer loop
      vertex -108.25 88.9291 2
      vertex -107.751 88.9921 24
      vertex -108.25 88.9291 24
    endloop
  endfacet
  facet normal 0.125258 -0.992124 0
    outer loop
      vertex -107.751 88.9921 24
      vertex -108.25 88.9291 2
      vertex -107.751 88.9921 2
    endloop
  endfacet
  facet normal -0.368127 0.929775 0
    outer loop
      vertex 109.203 -88.6193 2
      vertex 108.736 -88.8042 24
      vertex 109.203 -88.6193 24
    endloop
  endfacet
  facet normal -0.368127 0.929775 0
    outer loop
      vertex 108.736 -88.8042 24
      vertex 109.203 -88.6193 2
      vertex 108.736 -88.8042 2
    endloop
  endfacet
  facet normal -0.481919 -0.876216 0
    outer loop
      vertex 109.203 88.6193 2
      vertex 109.643 88.3773 24
      vertex 109.203 88.6193 24
    endloop
  endfacet
  facet normal -0.481919 -0.876216 -0
    outer loop
      vertex 109.643 88.3773 24
      vertex 109.203 88.6193 2
      vertex 109.643 88.3773 2
    endloop
  endfacet
  facet normal -0.951182 -0.308631 0
    outer loop
      vertex 111.374 85.9948 2
      vertex 111.219 86.4725 24
      vertex 111.219 86.4725 2
    endloop
  endfacet
  facet normal -0.951182 -0.308631 0
    outer loop
      vertex 111.219 86.4725 24
      vertex 111.374 85.9948 2
      vertex 111.374 85.9948 24
    endloop
  endfacet
  facet normal -0.982339 0.187112 0
    outer loop
      vertex 111.374 -85.9948 2
      vertex 111.468 -85.5013 24
      vertex 111.468 -85.5013 2
    endloop
  endfacet
  facet normal -0.982339 0.187112 0
    outer loop
      vertex 111.468 -85.5013 24
      vertex 111.374 -85.9948 2
      vertex 111.374 -85.9948 24
    endloop
  endfacet
  facet normal -0.844456 0.535625 0
    outer loop
      vertex 110.736 -87.3511 2
      vertex 111.005 -86.927 24
      vertex 111.005 -86.927 2
    endloop
  endfacet
  facet normal -0.844456 0.535625 0
    outer loop
      vertex 111.005 -86.927 24
      vertex 110.736 -87.3511 2
      vertex 110.736 -87.3511 24
    endloop
  endfacet
  facet normal -0.904728 0.425989 0
    outer loop
      vertex 111.005 -86.927 2
      vertex 111.219 -86.4725 24
      vertex 111.219 -86.4725 2
    endloop
  endfacet
  facet normal -0.904728 0.425989 0
    outer loop
      vertex 111.219 -86.4725 24
      vertex 111.005 -86.927 2
      vertex 111.005 -86.927 24
    endloop
  endfacet
  facet normal -0.587131 0.809492 0
    outer loop
      vertex 110.05 -88.0821 2
      vertex 109.643 -88.3773 24
      vertex 110.05 -88.0821 24
    endloop
  endfacet
  facet normal -0.587131 0.809492 0
    outer loop
      vertex 109.643 -88.3773 24
      vertex 110.05 -88.0821 2
      vertex 109.643 -88.3773 2
    endloop
  endfacet
  facet normal 0.982339 0.187112 0
    outer loop
      vertex -111.374 -85.9948 24
      vertex -111.468 -85.5013 2
      vertex -111.468 -85.5013 24
    endloop
  endfacet
  facet normal 0.982339 0.187112 0
    outer loop
      vertex -111.468 -85.5013 2
      vertex -111.374 -85.9948 24
      vertex -111.374 -85.9948 2
    endloop
  endfacet
  facet normal 0.997969 0.0637044 0
    outer loop
      vertex -111.468 -85.5013 24
      vertex -111.5 -85 2
      vertex -111.5 -85 24
    endloop
  endfacet
  facet normal 0.997969 0.0637044 0
    outer loop
      vertex -111.5 -85 2
      vertex -111.468 -85.5013 24
      vertex -111.468 -85.5013 2
    endloop
  endfacet
  facet normal 0.844456 0.535625 0
    outer loop
      vertex -110.736 -87.3511 24
      vertex -111.005 -86.927 2
      vertex -111.005 -86.927 24
    endloop
  endfacet
  facet normal 0.844456 0.535625 0
    outer loop
      vertex -111.005 -86.927 2
      vertex -110.736 -87.3511 24
      vertex -110.736 -87.3511 2
    endloop
  endfacet
  facet normal 0.904728 -0.425989 0
    outer loop
      vertex -111.219 86.4725 24
      vertex -111.005 86.927 2
      vertex -111.005 86.927 24
    endloop
  endfacet
  facet normal 0.904728 -0.425989 0
    outer loop
      vertex -111.005 86.927 2
      vertex -111.219 86.4725 24
      vertex -111.219 86.4725 2
    endloop
  endfacet
  facet normal 0.844456 -0.535625 0
    outer loop
      vertex -111.005 86.927 24
      vertex -110.736 87.3511 2
      vertex -110.736 87.3511 24
    endloop
  endfacet
  facet normal 0.844456 -0.535625 0
    outer loop
      vertex -110.736 87.3511 2
      vertex -111.005 86.927 24
      vertex -111.005 86.927 2
    endloop
  endfacet
  facet normal 0.997969 -0.0637044 0
    outer loop
      vertex -111.5 85 24
      vertex -111.468 85.5013 2
      vertex -111.468 85.5013 24
    endloop
  endfacet
  facet normal 0.997969 -0.0637044 0
    outer loop
      vertex -111.468 85.5013 2
      vertex -111.5 85 24
      vertex -111.5 85 2
    endloop
  endfacet
  facet normal 0.684762 -0.728767 0
    outer loop
      vertex -110.416 87.7382 2
      vertex -110.05 88.0821 24
      vertex -110.416 87.7382 24
    endloop
  endfacet
  facet normal 0.684762 -0.728767 0
    outer loop
      vertex -110.05 88.0821 24
      vertex -110.416 87.7382 2
      vertex -110.05 88.0821 2
    endloop
  endfacet
  facet normal -0.770745 -0.637144 0
    outer loop
      vertex 110.736 87.3511 2
      vertex 110.416 87.7382 24
      vertex 110.416 87.7382 2
    endloop
  endfacet
  facet normal -0.770745 -0.637144 0
    outer loop
      vertex 110.416 87.7382 24
      vertex 110.736 87.3511 2
      vertex 110.736 87.3511 24
    endloop
  endfacet
  facet normal -0.844456 -0.535625 0
    outer loop
      vertex 111.005 86.927 2
      vertex 110.736 87.3511 24
      vertex 110.736 87.3511 2
    endloop
  endfacet
  facet normal -0.844456 -0.535625 0
    outer loop
      vertex 110.736 87.3511 24
      vertex 111.005 86.927 2
      vertex 111.005 86.927 24
    endloop
  endfacet
  facet normal -0.904728 -0.425989 0
    outer loop
      vertex 111.219 86.4725 2
      vertex 111.005 86.927 24
      vertex 111.005 86.927 2
    endloop
  endfacet
  facet normal -0.904728 -0.425989 0
    outer loop
      vertex 111.005 86.927 24
      vertex 111.219 86.4725 2
      vertex 111.219 86.4725 24
    endloop
  endfacet
  facet normal -0.982339 -0.187112 0
    outer loop
      vertex 111.468 85.5013 2
      vertex 111.374 85.9948 24
      vertex 111.374 85.9948 2
    endloop
  endfacet
  facet normal -0.982339 -0.187112 0
    outer loop
      vertex 111.374 85.9948 24
      vertex 111.468 85.5013 2
      vertex 111.468 85.5013 24
    endloop
  endfacet
  facet normal -0.997969 -0.0637044 0
    outer loop
      vertex 111.5 85 2
      vertex 111.468 85.5013 24
      vertex 111.468 85.5013 2
    endloop
  endfacet
  facet normal -0.997969 -0.0637044 0
    outer loop
      vertex 111.468 85.5013 24
      vertex 111.5 85 2
      vertex 111.5 85 24
    endloop
  endfacet
  facet normal -0.248908 0.968527 0
    outer loop
      vertex 108.736 -88.8042 2
      vertex 108.25 -88.9291 24
      vertex 108.736 -88.8042 24
    endloop
  endfacet
  facet normal -0.248908 0.968527 0
    outer loop
      vertex 108.25 -88.9291 24
      vertex 108.736 -88.8042 2
      vertex 108.25 -88.9291 2
    endloop
  endfacet
  facet normal 0.587131 -0.809492 0
    outer loop
      vertex -110.05 88.0821 2
      vertex -109.643 88.3773 24
      vertex -110.05 88.0821 24
    endloop
  endfacet
  facet normal 0.587131 -0.809492 0
    outer loop
      vertex -109.643 88.3773 24
      vertex -110.05 88.0821 2
      vertex -109.643 88.3773 2
    endloop
  endfacet
endsolid OpenSCAD_Model
