solid OpenSCAD_Model
  facet normal -1 0 0
    outer loop
      vertex -45 -10 0
      vertex -45 10 24
      vertex -45 10 0
    endloop
  endfacet
  facet normal -1 -0 0
    outer loop
      vertex -45 10 24
      vertex -45 -10 0
      vertex -45 -10 24
    endloop
  endfacet
  facet normal -0.99803 -0.0627451 0
    outer loop
      vertex -44.9606 -10.6267 0
      vertex -45 -10 24
      vertex -45 -10 0
    endloop
  endfacet
  facet normal -0.99803 -0.0627451 0
    outer loop
      vertex -45 -10 24
      vertex -44.9606 -10.6267 0
      vertex -44.9606 -10.6267 24
    endloop
  endfacet
  facet normal 0.770462 0.637486 0
    outer loop
      vertex 44.0451 12.9389 24
      vertex 43.6448 13.4227 0
      vertex 43.6448 13.4227 24
    endloop
  endfacet
  facet normal 0.770462 0.637486 0
    outer loop
      vertex 43.6448 13.4227 0
      vertex 44.0451 12.9389 24
      vertex 44.0451 12.9389 0
    endloop
  endfacet
  facet normal -0.99803 0.0627451 0
    outer loop
      vertex -45 10 0
      vertex -44.9606 10.6267 24
      vertex -44.9606 10.6267 0
    endloop
  endfacet
  facet normal -0.99803 0.0627451 0
    outer loop
      vertex -44.9606 10.6267 24
      vertex -45 10 0
      vertex -45 10 24
    endloop
  endfacet
  facet normal 0 0 1
    outer loop
      vertex 44 10 24
      vertex 45 10 24
      vertex 44.9606 10.6267 24
    endloop
  endfacet
  facet normal 0 0 1
    outer loop
      vertex 45 10 24
      vertex 44 10 24
      vertex 45 -10 24
    endloop
  endfacet
  facet normal 0 0 1
    outer loop
      vertex 43.9685 10.5013 24
      vertex 44.9606 10.6267 24
      vertex 44.8429 11.2434 24
    endloop
  endfacet
  facet normal 0 0 1
    outer loop
      vertex 44 -10 24
      vertex 45 -10 24
      vertex 44 10 24
    endloop
  endfacet
  facet normal 0 0 1
    outer loop
      vertex 43.8743 10.9948 24
      vertex 44.8429 11.2434 24
      vertex 44.6489 11.8406 24
    endloop
  endfacet
  facet normal 0 0 1
    outer loop
      vertex 45 -10 24
      vertex 44 -10 24
      vertex 44.9606 -10.6267 24
    endloop
  endfacet
  facet normal 0 0 1
    outer loop
      vertex 43.7191 11.4725 24
      vertex 44.6489 11.8406 24
      vertex 44.3815 12.4088 24
    endloop
  endfacet
  facet normal -0 0 1
    outer loop
      vertex 43.9685 -10.5013 24
      vertex 44.9606 -10.6267 24
      vertex 44 -10 24
    endloop
  endfacet
  facet normal 0 0 1
    outer loop
      vertex 43.5052 11.927 24
      vertex 44.3815 12.4088 24
      vertex 44.0451 12.9389 24
    endloop
  endfacet
  facet normal 0 0 1
    outer loop
      vertex 44.9606 -10.6267 24
      vertex 43.9685 -10.5013 24
      vertex 44.8429 -11.2434 24
    endloop
  endfacet
  facet normal -0 0 1
    outer loop
      vertex 43.8743 -10.9948 24
      vertex 44.8429 -11.2434 24
      vertex 43.9685 -10.5013 24
    endloop
  endfacet
  facet normal 0 0 1
    outer loop
      vertex 44.9606 10.6267 24
      vertex 43.9685 10.5013 24
      vertex 44 10 24
    endloop
  endfacet
  facet normal 0 0 1
    outer loop
      vertex 44.8429 11.2434 24
      vertex 43.8743 10.9948 24
      vertex 43.9685 10.5013 24
    endloop
  endfacet
  facet normal 0 0 1
    outer loop
      vertex 44.6489 11.8406 24
      vertex 43.7191 11.4725 24
      vertex 43.8743 10.9948 24
    endloop
  endfacet
  facet normal 0 0 1
    outer loop
      vertex 43.2361 12.3511 24
      vertex 44.0451 12.9389 24
      vertex 43.6448 13.4227 24
    endloop
  endfacet
  facet normal 0 0 1
    outer loop
      vertex 44.3815 12.4088 24
      vertex 43.5052 11.927 24
      vertex 43.7191 11.4725 24
    endloop
  endfacet
  facet normal 0 0 1
    outer loop
      vertex 44.0451 12.9389 24
      vertex 43.2361 12.3511 24
      vertex 43.5052 11.927 24
    endloop
  endfacet
  facet normal 0 0 1
    outer loop
      vertex 42.9159 12.7382 24
      vertex 43.6448 13.4227 24
      vertex 43.1871 13.8526 24
    endloop
  endfacet
  facet normal 0 0 1
    outer loop
      vertex 43.6448 13.4227 24
      vertex 42.9159 12.7382 24
      vertex 43.2361 12.3511 24
    endloop
  endfacet
  facet normal 0 0 1
    outer loop
      vertex 42.5497 13.0821 24
      vertex 43.1871 13.8526 24
      vertex 42.6791 14.2216 24
    endloop
  endfacet
  facet normal 0 0 1
    outer loop
      vertex 43.1871 13.8526 24
      vertex 42.5497 13.0821 24
      vertex 42.9159 12.7382 24
    endloop
  endfacet
  facet normal 0 0 1
    outer loop
      vertex 42.6791 14.2216 24
      vertex 42.1433 13.3773 24
      vertex 42.5497 13.0821 24
    endloop
  endfacet
  facet normal 0 0 1
    outer loop
      vertex 42.1289 14.5241 24
      vertex 42.1433 13.3773 24
      vertex 42.6791 14.2216 24
    endloop
  endfacet
  facet normal 0 0 1
    outer loop
      vertex 42.1289 14.5241 24
      vertex 41.7031 13.6193 24
      vertex 42.1433 13.3773 24
    endloop
  endfacet
  facet normal 0 0 1
    outer loop
      vertex 41.5451 14.7553 24
      vertex 41.7031 13.6193 24
      vertex 42.1289 14.5241 24
    endloop
  endfacet
  facet normal 0 0 1
    outer loop
      vertex 41.5451 14.7553 24
      vertex 41.2361 13.8042 24
      vertex 41.7031 13.6193 24
    endloop
  endfacet
  facet normal 0 0 1
    outer loop
      vertex 40.9369 14.9114 24
      vertex 41.2361 13.8042 24
      vertex 41.5451 14.7553 24
    endloop
  endfacet
  facet normal 0 0 1
    outer loop
      vertex 40.9369 14.9114 24
      vertex 40.7495 13.9291 24
      vertex 41.2361 13.8042 24
    endloop
  endfacet
  facet normal 0 0 1
    outer loop
      vertex 40.314 14.9901 24
      vertex 40.7495 13.9291 24
      vertex 40.9369 14.9114 24
    endloop
  endfacet
  facet normal 0 0 1
    outer loop
      vertex 40.314 14.9901 24
      vertex 40.2512 13.9921 24
      vertex 40.7495 13.9291 24
    endloop
  endfacet
  facet normal 0 0 1
    outer loop
      vertex 40.314 14.9901 24
      vertex -40.2512 13.9921 24
      vertex 40.2512 13.9921 24
    endloop
  endfacet
  facet normal -0 0 1
    outer loop
      vertex -40.314 14.9901 24
      vertex -40.2512 13.9921 24
      vertex 40.314 14.9901 24
    endloop
  endfacet
  facet normal 0 0 1
    outer loop
      vertex -40.314 14.9901 24
      vertex -40.7495 13.9291 24
      vertex -40.2512 13.9921 24
    endloop
  endfacet
  facet normal -0 0 1
    outer loop
      vertex -40.9369 14.9114 24
      vertex -40.7495 13.9291 24
      vertex -40.314 14.9901 24
    endloop
  endfacet
  facet normal 0 0 1
    outer loop
      vertex -40.9369 14.9114 24
      vertex -41.2361 13.8042 24
      vertex -40.7495 13.9291 24
    endloop
  endfacet
  facet normal -0 0 1
    outer loop
      vertex -41.5451 14.7553 24
      vertex -41.2361 13.8042 24
      vertex -40.9369 14.9114 24
    endloop
  endfacet
  facet normal 0 0 1
    outer loop
      vertex -41.5451 14.7553 24
      vertex -41.7031 13.6193 24
      vertex -41.2361 13.8042 24
    endloop
  endfacet
  facet normal -0 0 1
    outer loop
      vertex -42.1289 14.5241 24
      vertex -41.7031 13.6193 24
      vertex -41.5451 14.7553 24
    endloop
  endfacet
  facet normal 0 0 1
    outer loop
      vertex -42.1289 14.5241 24
      vertex -42.1433 13.3773 24
      vertex -41.7031 13.6193 24
    endloop
  endfacet
  facet normal -0 0 1
    outer loop
      vertex -42.6791 14.2216 24
      vertex -42.1433 13.3773 24
      vertex -42.1289 14.5241 24
    endloop
  endfacet
  facet normal 0 0 1
    outer loop
      vertex -42.1433 13.3773 24
      vertex -42.6791 14.2216 24
      vertex -42.5497 13.0821 24
    endloop
  endfacet
  facet normal -0 0 1
    outer loop
      vertex -43.1871 13.8526 24
      vertex -42.5497 13.0821 24
      vertex -42.6791 14.2216 24
    endloop
  endfacet
  facet normal 0 0 1
    outer loop
      vertex -42.5497 13.0821 24
      vertex -43.1871 13.8526 24
      vertex -42.9159 12.7382 24
    endloop
  endfacet
  facet normal -0 0 1
    outer loop
      vertex -43.6448 13.4227 24
      vertex -42.9159 12.7382 24
      vertex -43.1871 13.8526 24
    endloop
  endfacet
  facet normal 0 0 1
    outer loop
      vertex -42.9159 12.7382 24
      vertex -43.6448 13.4227 24
      vertex -43.2361 12.3511 24
    endloop
  endfacet
  facet normal -0 0 1
    outer loop
      vertex -44.0451 12.9389 24
      vertex -43.2361 12.3511 24
      vertex -43.6448 13.4227 24
    endloop
  endfacet
  facet normal 0 0 1
    outer loop
      vertex -43.2361 12.3511 24
      vertex -44.0451 12.9389 24
      vertex -43.5052 11.927 24
    endloop
  endfacet
  facet normal -0 0 1
    outer loop
      vertex -44.3815 12.4088 24
      vertex -43.5052 11.927 24
      vertex -44.0451 12.9389 24
    endloop
  endfacet
  facet normal 0 0 1
    outer loop
      vertex -43.5052 11.927 24
      vertex -44.3815 12.4088 24
      vertex -43.7191 11.4725 24
    endloop
  endfacet
  facet normal -0 0 1
    outer loop
      vertex -44.8429 11.2434 24
      vertex -43.8743 10.9948 24
      vertex -44.6489 11.8406 24
    endloop
  endfacet
  facet normal 0 0 1
    outer loop
      vertex -43.7191 11.4725 24
      vertex -44.6489 11.8406 24
      vertex -43.8743 10.9948 24
    endloop
  endfacet
  facet normal -0 0 1
    outer loop
      vertex -44.6489 11.8406 24
      vertex -43.7191 11.4725 24
      vertex -44.3815 12.4088 24
    endloop
  endfacet
  facet normal 0 0 1
    outer loop
      vertex 44.8429 -11.2434 24
      vertex 43.8743 -10.9948 24
      vertex 44.6489 -11.8406 24
    endloop
  endfacet
  facet normal -0 0 1
    outer loop
      vertex 43.7191 -11.4725 24
      vertex 44.6489 -11.8406 24
      vertex 43.8743 -10.9948 24
    endloop
  endfacet
  facet normal 0 0 1
    outer loop
      vertex 44.6489 -11.8406 24
      vertex 43.7191 -11.4725 24
      vertex 44.3815 -12.4088 24
    endloop
  endfacet
  facet normal -0 0 1
    outer loop
      vertex 43.5052 -11.927 24
      vertex 44.3815 -12.4088 24
      vertex 43.7191 -11.4725 24
    endloop
  endfacet
  facet normal 0 0 1
    outer loop
      vertex 44.3815 -12.4088 24
      vertex 43.5052 -11.927 24
      vertex 44.0451 -12.9389 24
    endloop
  endfacet
  facet normal -0 0 1
    outer loop
      vertex 43.2361 -12.3511 24
      vertex 44.0451 -12.9389 24
      vertex 43.5052 -11.927 24
    endloop
  endfacet
  facet normal 0 0 1
    outer loop
      vertex 44.0451 -12.9389 24
      vertex 43.2361 -12.3511 24
      vertex 43.6448 -13.4227 24
    endloop
  endfacet
  facet normal -0 0 1
    outer loop
      vertex 42.9159 -12.7382 24
      vertex 43.6448 -13.4227 24
      vertex 43.2361 -12.3511 24
    endloop
  endfacet
  facet normal 0 0 1
    outer loop
      vertex 43.6448 -13.4227 24
      vertex 42.9159 -12.7382 24
      vertex 43.1871 -13.8526 24
    endloop
  endfacet
  facet normal -0 0 1
    outer loop
      vertex 42.5497 -13.0821 24
      vertex 43.1871 -13.8526 24
      vertex 42.9159 -12.7382 24
    endloop
  endfacet
  facet normal 0 0 1
    outer loop
      vertex 43.1871 -13.8526 24
      vertex 42.5497 -13.0821 24
      vertex 42.6791 -14.2216 24
    endloop
  endfacet
  facet normal -0 0 1
    outer loop
      vertex 42.1433 -13.3773 24
      vertex 42.6791 -14.2216 24
      vertex 42.5497 -13.0821 24
    endloop
  endfacet
  facet normal 0 0 1
    outer loop
      vertex 42.1433 -13.3773 24
      vertex 42.1289 -14.5241 24
      vertex 42.6791 -14.2216 24
    endloop
  endfacet
  facet normal -0 0 1
    outer loop
      vertex 41.7031 -13.6193 24
      vertex 42.1289 -14.5241 24
      vertex 42.1433 -13.3773 24
    endloop
  endfacet
  facet normal 0 0 1
    outer loop
      vertex 41.7031 -13.6193 24
      vertex 41.5451 -14.7553 24
      vertex 42.1289 -14.5241 24
    endloop
  endfacet
  facet normal -0 0 1
    outer loop
      vertex 41.2361 -13.8042 24
      vertex 41.5451 -14.7553 24
      vertex 41.7031 -13.6193 24
    endloop
  endfacet
  facet normal 0 0 1
    outer loop
      vertex 41.2361 -13.8042 24
      vertex 40.9369 -14.9114 24
      vertex 41.5451 -14.7553 24
    endloop
  endfacet
  facet normal -0 0 1
    outer loop
      vertex 40.7495 -13.9291 24
      vertex 40.9369 -14.9114 24
      vertex 41.2361 -13.8042 24
    endloop
  endfacet
  facet normal 0 0 1
    outer loop
      vertex 40.7495 -13.9291 24
      vertex 40.314 -14.9901 24
      vertex 40.9369 -14.9114 24
    endloop
  endfacet
  facet normal -0 0 1
    outer loop
      vertex 40.2512 -13.9921 24
      vertex 40.314 -14.9901 24
      vertex 40.7495 -13.9291 24
    endloop
  endfacet
  facet normal -0 0 1
    outer loop
      vertex -40.2512 -13.9921 24
      vertex 40.314 -14.9901 24
      vertex 40.2512 -13.9921 24
    endloop
  endfacet
  facet normal 0 0 1
    outer loop
      vertex -40.2512 -13.9921 24
      vertex -40.314 -14.9901 24
      vertex 40.314 -14.9901 24
    endloop
  endfacet
  facet normal 0 0 1
    outer loop
      vertex -40.7495 -13.9291 24
      vertex -40.314 -14.9901 24
      vertex -40.2512 -13.9921 24
    endloop
  endfacet
  facet normal 0 0 1
    outer loop
      vertex -40.7495 -13.9291 24
      vertex -40.9369 -14.9114 24
      vertex -40.314 -14.9901 24
    endloop
  endfacet
  facet normal 0 0 1
    outer loop
      vertex -41.2361 -13.8042 24
      vertex -40.9369 -14.9114 24
      vertex -40.7495 -13.9291 24
    endloop
  endfacet
  facet normal 0 0 1
    outer loop
      vertex -41.2361 -13.8042 24
      vertex -41.5451 -14.7553 24
      vertex -40.9369 -14.9114 24
    endloop
  endfacet
  facet normal 0 0 1
    outer loop
      vertex -41.7031 -13.6193 24
      vertex -41.5451 -14.7553 24
      vertex -41.2361 -13.8042 24
    endloop
  endfacet
  facet normal 0 0 1
    outer loop
      vertex -41.7031 -13.6193 24
      vertex -42.1289 -14.5241 24
      vertex -41.5451 -14.7553 24
    endloop
  endfacet
  facet normal 0 0 1
    outer loop
      vertex -42.1433 -13.3773 24
      vertex -42.1289 -14.5241 24
      vertex -41.7031 -13.6193 24
    endloop
  endfacet
  facet normal 0 0 1
    outer loop
      vertex -42.6791 -14.2216 24
      vertex -42.1433 -13.3773 24
      vertex -42.5497 -13.0821 24
    endloop
  endfacet
  facet normal 0 0 1
    outer loop
      vertex -42.1433 -13.3773 24
      vertex -42.6791 -14.2216 24
      vertex -42.1289 -14.5241 24
    endloop
  endfacet
  facet normal 0 0 1
    outer loop
      vertex -43.1871 -13.8526 24
      vertex -42.5497 -13.0821 24
      vertex -42.9159 -12.7382 24
    endloop
  endfacet
  facet normal 0 0 1
    outer loop
      vertex -42.5497 -13.0821 24
      vertex -43.1871 -13.8526 24
      vertex -42.6791 -14.2216 24
    endloop
  endfacet
  facet normal 0 0 1
    outer loop
      vertex -43.6448 -13.4227 24
      vertex -42.9159 -12.7382 24
      vertex -43.2361 -12.3511 24
    endloop
  endfacet
  facet normal 0 0 1
    outer loop
      vertex -44.0451 -12.9389 24
      vertex -43.2361 -12.3511 24
      vertex -43.5052 -11.927 24
    endloop
  endfacet
  facet normal 0 0 1
    outer loop
      vertex -42.9159 -12.7382 24
      vertex -43.6448 -13.4227 24
      vertex -43.1871 -13.8526 24
    endloop
  endfacet
  facet normal 0 0 1
    outer loop
      vertex -44.3815 -12.4088 24
      vertex -43.5052 -11.927 24
      vertex -43.7191 -11.4725 24
    endloop
  endfacet
  facet normal 0 0 1
    outer loop
      vertex -44.6489 -11.8406 24
      vertex -43.7191 -11.4725 24
      vertex -43.8743 -10.9948 24
    endloop
  endfacet
  facet normal 0 0 1
    outer loop
      vertex -44.8429 -11.2434 24
      vertex -43.8743 -10.9948 24
      vertex -43.9685 -10.5013 24
    endloop
  endfacet
  facet normal 0 0 1
    outer loop
      vertex -43.2361 -12.3511 24
      vertex -44.0451 -12.9389 24
      vertex -43.6448 -13.4227 24
    endloop
  endfacet
  facet normal 0 0 1
    outer loop
      vertex -44.9606 -10.6267 24
      vertex -43.9685 -10.5013 24
      vertex -44 -10 24
    endloop
  endfacet
  facet normal 0 0 1
    outer loop
      vertex -44 10 24
      vertex -45 10 24
      vertex -44 -10 24
    endloop
  endfacet
  facet normal 0 0 1
    outer loop
      vertex -43.8743 10.9948 24
      vertex -44.8429 11.2434 24
      vertex -43.9685 10.5013 24
    endloop
  endfacet
  facet normal 0 0 1
    outer loop
      vertex -45 -10 24
      vertex -44 -10 24
      vertex -45 10 24
    endloop
  endfacet
  facet normal -0 0 1
    outer loop
      vertex -44.9606 10.6267 24
      vertex -43.9685 10.5013 24
      vertex -44.8429 11.2434 24
    endloop
  endfacet
  facet normal 0 -0 1
    outer loop
      vertex -44.9606 -10.6267 24
      vertex -44 -10 24
      vertex -45 -10 24
    endloop
  endfacet
  facet normal 0 0 1
    outer loop
      vertex -43.9685 10.5013 24
      vertex -44.9606 10.6267 24
      vertex -44 10 24
    endloop
  endfacet
  facet normal 0 0 1
    outer loop
      vertex -43.5052 -11.927 24
      vertex -44.3815 -12.4088 24
      vertex -44.0451 -12.9389 24
    endloop
  endfacet
  facet normal 0 0 1
    outer loop
      vertex -44 10 24
      vertex -44.9606 10.6267 24
      vertex -45 10 24
    endloop
  endfacet
  facet normal 0 0 1
    outer loop
      vertex -43.7191 -11.4725 24
      vertex -44.6489 -11.8406 24
      vertex -44.3815 -12.4088 24
    endloop
  endfacet
  facet normal 0 0 1
    outer loop
      vertex -43.8743 -10.9948 24
      vertex -44.8429 -11.2434 24
      vertex -44.6489 -11.8406 24
    endloop
  endfacet
  facet normal 0 0 1
    outer loop
      vertex -43.9685 -10.5013 24
      vertex -44.9606 -10.6267 24
      vertex -44.8429 -11.2434 24
    endloop
  endfacet
  facet normal -0.248601 0.968606 0
    outer loop
      vertex -40.9369 14.9114 0
      vertex -41.5451 14.7553 24
      vertex -40.9369 14.9114 24
    endloop
  endfacet
  facet normal -0.248601 0.968606 0
    outer loop
      vertex -41.5451 14.7553 24
      vertex -40.9369 14.9114 0
      vertex -41.5451 14.7553 0
    endloop
  endfacet
  facet normal 0 -1 0
    outer loop
      vertex -40.314 -14.9901 0
      vertex 40.314 -14.9901 24
      vertex -40.314 -14.9901 24
    endloop
  endfacet
  facet normal 0 -1 -0
    outer loop
      vertex 40.314 -14.9901 24
      vertex -40.314 -14.9901 0
      vertex 40.314 -14.9901 0
    endloop
  endfacet
  facet normal 0.125348 -0.992113 0
    outer loop
      vertex 40.314 -14.9901 0
      vertex 40.9369 -14.9114 24
      vertex 40.314 -14.9901 24
    endloop
  endfacet
  facet normal 0.125348 -0.992113 0
    outer loop
      vertex 40.9369 -14.9114 24
      vertex 40.314 -14.9901 0
      vertex 40.9369 -14.9114 0
    endloop
  endfacet
  facet normal 0.99803 -0.0627451 0
    outer loop
      vertex 44.9606 -10.6267 24
      vertex 45 -10 0
      vertex 45 -10 24
    endloop
  endfacet
  facet normal 0.99803 -0.0627451 0
    outer loop
      vertex 45 -10 0
      vertex 44.9606 -10.6267 24
      vertex 44.9606 -10.6267 0
    endloop
  endfacet
  facet normal 0.951076 0.308956 0
    outer loop
      vertex 44.8429 11.2434 24
      vertex 44.6489 11.8406 0
      vertex 44.6489 11.8406 24
    endloop
  endfacet
  facet normal 0.951076 0.308956 0
    outer loop
      vertex 44.6489 11.8406 0
      vertex 44.8429 11.2434 24
      vertex 44.8429 11.2434 0
    endloop
  endfacet
  facet normal 1 -0 0
    outer loop
      vertex 45 -10 24
      vertex 45 10 0
      vertex 45 10 24
    endloop
  endfacet
  facet normal 1 0 0
    outer loop
      vertex 45 10 0
      vertex 45 -10 24
      vertex 45 -10 0
    endloop
  endfacet
  facet normal -0.125348 0.992113 0
    outer loop
      vertex -40.314 14.9901 0
      vertex -40.9369 14.9114 24
      vertex -40.314 14.9901 24
    endloop
  endfacet
  facet normal -0.125348 0.992113 0
    outer loop
      vertex -40.9369 14.9114 24
      vertex -40.314 14.9901 0
      vertex -40.9369 14.9114 0
    endloop
  endfacet
  facet normal 0 1 -0
    outer loop
      vertex 40.314 14.9901 0
      vertex -40.314 14.9901 24
      vertex 40.314 14.9901 24
    endloop
  endfacet
  facet normal 0 1 0
    outer loop
      vertex -40.314 14.9901 24
      vertex 40.314 14.9901 0
      vertex -40.314 14.9901 0
    endloop
  endfacet
  facet normal -0.684624 0.728896 0
    outer loop
      vertex -43.1871 13.8526 0
      vertex -43.6448 13.4227 24
      vertex -43.1871 13.8526 24
    endloop
  endfacet
  facet normal -0.684624 0.728896 0
    outer loop
      vertex -43.6448 13.4227 24
      vertex -43.1871 13.8526 0
      vertex -43.6448 13.4227 0
    endloop
  endfacet
  facet normal -0.368203 -0.929745 0
    outer loop
      vertex -42.1289 -14.5241 0
      vertex -41.5451 -14.7553 24
      vertex -42.1289 -14.5241 24
    endloop
  endfacet
  facet normal -0.368203 -0.929745 -0
    outer loop
      vertex -41.5451 -14.7553 24
      vertex -42.1289 -14.5241 0
      vertex -41.5451 -14.7553 0
    endloop
  endfacet
  facet normal -0.125348 -0.992113 0
    outer loop
      vertex -40.9369 -14.9114 0
      vertex -40.314 -14.9901 24
      vertex -40.9369 -14.9114 24
    endloop
  endfacet
  facet normal -0.125348 -0.992113 -0
    outer loop
      vertex -40.314 -14.9901 24
      vertex -40.9369 -14.9114 0
      vertex -40.314 -14.9901 0
    endloop
  endfacet
  facet normal -0.481784 -0.87629 0
    outer loop
      vertex -42.6791 -14.2216 0
      vertex -42.1289 -14.5241 24
      vertex -42.6791 -14.2216 24
    endloop
  endfacet
  facet normal -0.481784 -0.87629 -0
    outer loop
      vertex -42.1289 -14.5241 24
      vertex -42.6791 -14.2216 0
      vertex -42.1289 -14.5241 0
    endloop
  endfacet
  facet normal -0.684624 -0.728896 0
    outer loop
      vertex -43.6448 -13.4227 0
      vertex -43.1871 -13.8526 24
      vertex -43.6448 -13.4227 24
    endloop
  endfacet
  facet normal -0.684624 -0.728896 -0
    outer loop
      vertex -43.1871 -13.8526 24
      vertex -43.6448 -13.4227 0
      vertex -43.1871 -13.8526 0
    endloop
  endfacet
  facet normal 0.904811 0.425812 0
    outer loop
      vertex 44.6489 11.8406 24
      vertex 44.3815 12.4088 0
      vertex 44.3815 12.4088 24
    endloop
  endfacet
  facet normal 0.904811 0.425812 0
    outer loop
      vertex 44.3815 12.4088 0
      vertex 44.6489 11.8406 24
      vertex 44.6489 11.8406 0
    endloop
  endfacet
  facet normal 0.125348 0.992113 -0
    outer loop
      vertex 40.9369 14.9114 0
      vertex 40.314 14.9901 24
      vertex 40.9369 14.9114 24
    endloop
  endfacet
  facet normal 0.125348 0.992113 0
    outer loop
      vertex 40.314 14.9901 24
      vertex 40.9369 14.9114 0
      vertex 40.314 14.9901 0
    endloop
  endfacet
  facet normal -0.951076 0.308956 0
    outer loop
      vertex -44.8429 11.2434 0
      vertex -44.6489 11.8406 24
      vertex -44.6489 11.8406 0
    endloop
  endfacet
  facet normal -0.951076 0.308956 0
    outer loop
      vertex -44.6489 11.8406 24
      vertex -44.8429 11.2434 0
      vertex -44.8429 11.2434 24
    endloop
  endfacet
  facet normal -0.368203 0.929745 0
    outer loop
      vertex -41.5451 14.7553 0
      vertex -42.1289 14.5241 24
      vertex -41.5451 14.7553 24
    endloop
  endfacet
  facet normal -0.368203 0.929745 0
    outer loop
      vertex -42.1289 14.5241 24
      vertex -41.5451 14.7553 0
      vertex -42.1289 14.5241 0
    endloop
  endfacet
  facet normal 0 0 -1
    outer loop
      vertex 40.314 -14.9901 0
      vertex 45 -10 0
      vertex 44.9606 -10.6267 0
    endloop
  endfacet
  facet normal -0 0 -1
    outer loop
      vertex 45 -10 0
      vertex 40.314 -14.9901 0
      vertex 45 10 0
    endloop
  endfacet
  facet normal 0 0 -1
    outer loop
      vertex 40.314 -14.9901 0
      vertex 44.9606 -10.6267 0
      vertex 44.8429 -11.2434 0
    endloop
  endfacet
  facet normal 0 0 -1
    outer loop
      vertex 40.314 14.9901 0
      vertex 45 10 0
      vertex 40.314 -14.9901 0
    endloop
  endfacet
  facet normal 0 0 -1
    outer loop
      vertex 40.314 -14.9901 0
      vertex 44.8429 -11.2434 0
      vertex 44.6489 -11.8406 0
    endloop
  endfacet
  facet normal 0 0 -1
    outer loop
      vertex 45 10 0
      vertex 40.314 14.9901 0
      vertex 44.9606 10.6267 0
    endloop
  endfacet
  facet normal 0 0 -1
    outer loop
      vertex 40.314 -14.9901 0
      vertex 44.6489 -11.8406 0
      vertex 44.3815 -12.4088 0
    endloop
  endfacet
  facet normal 0 0 -1
    outer loop
      vertex 44.9606 10.6267 0
      vertex 40.314 14.9901 0
      vertex 44.8429 11.2434 0
    endloop
  endfacet
  facet normal 0 0 -1
    outer loop
      vertex 40.314 -14.9901 0
      vertex 44.3815 -12.4088 0
      vertex 44.0451 -12.9389 0
    endloop
  endfacet
  facet normal 0 0 -1
    outer loop
      vertex 44.8429 11.2434 0
      vertex 40.314 14.9901 0
      vertex 44.6489 11.8406 0
    endloop
  endfacet
  facet normal 0 0 -1
    outer loop
      vertex 40.314 -14.9901 0
      vertex 44.0451 -12.9389 0
      vertex 43.6448 -13.4227 0
    endloop
  endfacet
  facet normal 0 0 -1
    outer loop
      vertex 44.6489 11.8406 0
      vertex 40.314 14.9901 0
      vertex 44.3815 12.4088 0
    endloop
  endfacet
  facet normal 0 0 -1
    outer loop
      vertex 40.314 -14.9901 0
      vertex 43.6448 -13.4227 0
      vertex 43.1871 -13.8526 0
    endloop
  endfacet
  facet normal 0 0 -1
    outer loop
      vertex 44.3815 12.4088 0
      vertex 40.314 14.9901 0
      vertex 44.0451 12.9389 0
    endloop
  endfacet
  facet normal 0 0 -1
    outer loop
      vertex 40.314 -14.9901 0
      vertex 43.1871 -13.8526 0
      vertex 42.6791 -14.2216 0
    endloop
  endfacet
  facet normal 0 0 -1
    outer loop
      vertex 44.0451 12.9389 0
      vertex 40.314 14.9901 0
      vertex 43.6448 13.4227 0
    endloop
  endfacet
  facet normal 0 0 -1
    outer loop
      vertex 40.314 -14.9901 0
      vertex 42.6791 -14.2216 0
      vertex 42.1289 -14.5241 0
    endloop
  endfacet
  facet normal 0 0 -1
    outer loop
      vertex 43.6448 13.4227 0
      vertex 40.314 14.9901 0
      vertex 43.1871 13.8526 0
    endloop
  endfacet
  facet normal 0 0 -1
    outer loop
      vertex 40.314 -14.9901 0
      vertex 42.1289 -14.5241 0
      vertex 41.5451 -14.7553 0
    endloop
  endfacet
  facet normal 0 0 -1
    outer loop
      vertex 43.1871 13.8526 0
      vertex 40.314 14.9901 0
      vertex 42.6791 14.2216 0
    endloop
  endfacet
  facet normal 0 0 -1
    outer loop
      vertex 40.314 -14.9901 0
      vertex 41.5451 -14.7553 0
      vertex 40.9369 -14.9114 0
    endloop
  endfacet
  facet normal 0 0 -1
    outer loop
      vertex 42.6791 14.2216 0
      vertex 40.314 14.9901 0
      vertex 42.1289 14.5241 0
    endloop
  endfacet
  facet normal 0 0 -1
    outer loop
      vertex 42.1289 14.5241 0
      vertex 40.314 14.9901 0
      vertex 41.5451 14.7553 0
    endloop
  endfacet
  facet normal 0 0 -1
    outer loop
      vertex 41.5451 14.7553 0
      vertex 40.314 14.9901 0
      vertex 40.9369 14.9114 0
    endloop
  endfacet
  facet normal 0 0 -1
    outer loop
      vertex -40.314 -14.9901 0
      vertex 40.314 14.9901 0
      vertex 40.314 -14.9901 0
    endloop
  endfacet
  facet normal 0 0 -1
    outer loop
      vertex -40.314 -14.9901 0
      vertex -40.314 14.9901 0
      vertex 40.314 14.9901 0
    endloop
  endfacet
  facet normal 0 0 -1
    outer loop
      vertex -45 -10 0
      vertex -40.314 -14.9901 0
      vertex -40.9369 -14.9114 0
    endloop
  endfacet
  facet normal 0 0 -1
    outer loop
      vertex -40.314 -14.9901 0
      vertex -45 -10 0
      vertex -40.314 14.9901 0
    endloop
  endfacet
  facet normal 0 0 -1
    outer loop
      vertex -45 -10 0
      vertex -40.9369 -14.9114 0
      vertex -41.5451 -14.7553 0
    endloop
  endfacet
  facet normal 0 0 -1
    outer loop
      vertex -45 10 0
      vertex -40.314 14.9901 0
      vertex -45 -10 0
    endloop
  endfacet
  facet normal 0 0 -1
    outer loop
      vertex -45 -10 0
      vertex -41.5451 -14.7553 0
      vertex -42.1289 -14.5241 0
    endloop
  endfacet
  facet normal 0 0 -1
    outer loop
      vertex -40.314 14.9901 0
      vertex -45 10 0
      vertex -40.9369 14.9114 0
    endloop
  endfacet
  facet normal 0 0 -1
    outer loop
      vertex -45 -10 0
      vertex -42.1289 -14.5241 0
      vertex -42.6791 -14.2216 0
    endloop
  endfacet
  facet normal 0 0 -1
    outer loop
      vertex -40.9369 14.9114 0
      vertex -45 10 0
      vertex -41.5451 14.7553 0
    endloop
  endfacet
  facet normal 0 0 -1
    outer loop
      vertex -45 -10 0
      vertex -42.6791 -14.2216 0
      vertex -43.1871 -13.8526 0
    endloop
  endfacet
  facet normal 0 0 -1
    outer loop
      vertex -41.5451 14.7553 0
      vertex -45 10 0
      vertex -42.1289 14.5241 0
    endloop
  endfacet
  facet normal 0 0 -1
    outer loop
      vertex -45 -10 0
      vertex -43.1871 -13.8526 0
      vertex -43.6448 -13.4227 0
    endloop
  endfacet
  facet normal 0 0 -1
    outer loop
      vertex -42.1289 14.5241 0
      vertex -45 10 0
      vertex -42.6791 14.2216 0
    endloop
  endfacet
  facet normal 0 0 -1
    outer loop
      vertex -45 -10 0
      vertex -43.6448 -13.4227 0
      vertex -44.0451 -12.9389 0
    endloop
  endfacet
  facet normal 0 0 -1
    outer loop
      vertex -42.6791 14.2216 0
      vertex -45 10 0
      vertex -43.1871 13.8526 0
    endloop
  endfacet
  facet normal 0 0 -1
    outer loop
      vertex -45 -10 0
      vertex -44.0451 -12.9389 0
      vertex -44.3815 -12.4088 0
    endloop
  endfacet
  facet normal 0 0 -1
    outer loop
      vertex -43.1871 13.8526 0
      vertex -45 10 0
      vertex -43.6448 13.4227 0
    endloop
  endfacet
  facet normal 0 0 -1
    outer loop
      vertex -45 -10 0
      vertex -44.3815 -12.4088 0
      vertex -44.6489 -11.8406 0
    endloop
  endfacet
  facet normal 0 0 -1
    outer loop
      vertex -43.6448 13.4227 0
      vertex -45 10 0
      vertex -44.0451 12.9389 0
    endloop
  endfacet
  facet normal 0 0 -1
    outer loop
      vertex -45 -10 0
      vertex -44.6489 -11.8406 0
      vertex -44.8429 -11.2434 0
    endloop
  endfacet
  facet normal 0 0 -1
    outer loop
      vertex -44.0451 12.9389 0
      vertex -45 10 0
      vertex -44.3815 12.4088 0
    endloop
  endfacet
  facet normal 0 0 -1
    outer loop
      vertex -45 -10 0
      vertex -44.8429 -11.2434 0
      vertex -44.9606 -10.6267 0
    endloop
  endfacet
  facet normal 0 0 -1
    outer loop
      vertex -44.3815 12.4088 0
      vertex -45 10 0
      vertex -44.6489 11.8406 0
    endloop
  endfacet
  facet normal 0 0 -1
    outer loop
      vertex -44.6489 11.8406 0
      vertex -45 10 0
      vertex -44.8429 11.2434 0
    endloop
  endfacet
  facet normal 0 0 -1
    outer loop
      vertex -44.8429 11.2434 0
      vertex -45 10 0
      vertex -44.9606 10.6267 0
    endloop
  endfacet
  facet normal -0.951076 -0.308956 0
    outer loop
      vertex -44.6489 -11.8406 0
      vertex -44.8429 -11.2434 24
      vertex -44.8429 -11.2434 0
    endloop
  endfacet
  facet normal -0.951076 -0.308956 0
    outer loop
      vertex -44.8429 -11.2434 24
      vertex -44.6489 -11.8406 0
      vertex -44.6489 -11.8406 24
    endloop
  endfacet
  facet normal -0.904811 -0.425812 0
    outer loop
      vertex -44.3815 -12.4088 0
      vertex -44.6489 -11.8406 24
      vertex -44.6489 -11.8406 0
    endloop
  endfacet
  facet normal -0.904811 -0.425812 0
    outer loop
      vertex -44.6489 -11.8406 24
      vertex -44.3815 -12.4088 0
      vertex -44.3815 -12.4088 24
    endloop
  endfacet
  facet normal -0.770462 -0.637486 0
    outer loop
      vertex -43.6448 -13.4227 0
      vertex -44.0451 -12.9389 24
      vertex -44.0451 -12.9389 0
    endloop
  endfacet
  facet normal -0.770462 -0.637486 0
    outer loop
      vertex -44.0451 -12.9389 24
      vertex -43.6448 -13.4227 0
      vertex -43.6448 -13.4227 24
    endloop
  endfacet
  facet normal -0.844336 -0.535814 0
    outer loop
      vertex -44.0451 -12.9389 0
      vertex -44.3815 -12.4088 24
      vertex -44.3815 -12.4088 0
    endloop
  endfacet
  facet normal -0.844336 -0.535814 0
    outer loop
      vertex -44.3815 -12.4088 24
      vertex -44.0451 -12.9389 0
      vertex -44.0451 -12.9389 24
    endloop
  endfacet
  facet normal -0.248601 -0.968606 0
    outer loop
      vertex -41.5451 -14.7553 0
      vertex -40.9369 -14.9114 24
      vertex -41.5451 -14.7553 24
    endloop
  endfacet
  facet normal -0.248601 -0.968606 -0
    outer loop
      vertex -40.9369 -14.9114 24
      vertex -41.5451 -14.7553 0
      vertex -40.9369 -14.9114 0
    endloop
  endfacet
  facet normal -0.587698 -0.80908 0
    outer loop
      vertex -43.1871 -13.8526 0
      vertex -42.6791 -14.2216 24
      vertex -43.1871 -13.8526 24
    endloop
  endfacet
  facet normal -0.587698 -0.80908 -0
    outer loop
      vertex -42.6791 -14.2216 24
      vertex -43.1871 -13.8526 0
      vertex -42.6791 -14.2216 0
    endloop
  endfacet
  facet normal 0.98227 -0.187471 0
    outer loop
      vertex 44.8429 -11.2434 24
      vertex 44.9606 -10.6267 0
      vertex 44.9606 -10.6267 24
    endloop
  endfacet
  facet normal 0.98227 -0.187471 0
    outer loop
      vertex 44.9606 -10.6267 0
      vertex 44.8429 -11.2434 24
      vertex 44.8429 -11.2434 0
    endloop
  endfacet
  facet normal 0.770462 -0.637486 0
    outer loop
      vertex 43.6448 -13.4227 24
      vertex 44.0451 -12.9389 0
      vertex 44.0451 -12.9389 24
    endloop
  endfacet
  facet normal 0.770462 -0.637486 0
    outer loop
      vertex 44.0451 -12.9389 0
      vertex 43.6448 -13.4227 24
      vertex 43.6448 -13.4227 0
    endloop
  endfacet
  facet normal 0.951076 -0.308956 0
    outer loop
      vertex 44.6489 -11.8406 24
      vertex 44.8429 -11.2434 0
      vertex 44.8429 -11.2434 24
    endloop
  endfacet
  facet normal 0.951076 -0.308956 0
    outer loop
      vertex 44.8429 -11.2434 0
      vertex 44.6489 -11.8406 24
      vertex 44.6489 -11.8406 0
    endloop
  endfacet
  facet normal 0.99803 0.0627451 0
    outer loop
      vertex 45 10 24
      vertex 44.9606 10.6267 0
      vertex 44.9606 10.6267 24
    endloop
  endfacet
  facet normal 0.99803 0.0627451 0
    outer loop
      vertex 44.9606 10.6267 0
      vertex 45 10 24
      vertex 45 10 0
    endloop
  endfacet
  facet normal 0.98227 0.187471 0
    outer loop
      vertex 44.9606 10.6267 24
      vertex 44.8429 11.2434 0
      vertex 44.8429 11.2434 24
    endloop
  endfacet
  facet normal 0.98227 0.187471 0
    outer loop
      vertex 44.8429 11.2434 0
      vertex 44.9606 10.6267 24
      vertex 44.9606 10.6267 0
    endloop
  endfacet
  facet normal 0.844336 0.535814 0
    outer loop
      vertex 44.3815 12.4088 24
      vertex 44.0451 12.9389 0
      vertex 44.0451 12.9389 24
    endloop
  endfacet
  facet normal 0.844336 0.535814 0
    outer loop
      vertex 44.0451 12.9389 0
      vertex 44.3815 12.4088 24
      vertex 44.3815 12.4088 0
    endloop
  endfacet
  facet normal 0.587698 0.80908 -0
    outer loop
      vertex 43.1871 13.8526 0
      vertex 42.6791 14.2216 24
      vertex 43.1871 13.8526 24
    endloop
  endfacet
  facet normal 0.587698 0.80908 0
    outer loop
      vertex 42.6791 14.2216 24
      vertex 43.1871 13.8526 0
      vertex 42.6791 14.2216 0
    endloop
  endfacet
  facet normal 0.684624 0.728896 -0
    outer loop
      vertex 43.6448 13.4227 0
      vertex 43.1871 13.8526 24
      vertex 43.6448 13.4227 24
    endloop
  endfacet
  facet normal 0.684624 0.728896 0
    outer loop
      vertex 43.1871 13.8526 24
      vertex 43.6448 13.4227 0
      vertex 43.1871 13.8526 0
    endloop
  endfacet
  facet normal 0.368203 0.929745 -0
    outer loop
      vertex 42.1289 14.5241 0
      vertex 41.5451 14.7553 24
      vertex 42.1289 14.5241 24
    endloop
  endfacet
  facet normal 0.368203 0.929745 0
    outer loop
      vertex 41.5451 14.7553 24
      vertex 42.1289 14.5241 0
      vertex 41.5451 14.7553 0
    endloop
  endfacet
  facet normal -0.98227 0.187471 0
    outer loop
      vertex -44.9606 10.6267 0
      vertex -44.8429 11.2434 24
      vertex -44.8429 11.2434 0
    endloop
  endfacet
  facet normal -0.98227 0.187471 0
    outer loop
      vertex -44.8429 11.2434 24
      vertex -44.9606 10.6267 0
      vertex -44.9606 10.6267 24
    endloop
  endfacet
  facet normal -0.481784 0.87629 0
    outer loop
      vertex -42.1289 14.5241 0
      vertex -42.6791 14.2216 24
      vertex -42.1289 14.5241 24
    endloop
  endfacet
  facet normal -0.481784 0.87629 0
    outer loop
      vertex -42.6791 14.2216 24
      vertex -42.1289 14.5241 0
      vertex -42.6791 14.2216 0
    endloop
  endfacet
  facet normal -0.587698 0.80908 0
    outer loop
      vertex -42.6791 14.2216 0
      vertex -43.1871 13.8526 24
      vertex -42.6791 14.2216 24
    endloop
  endfacet
  facet normal -0.587698 0.80908 0
    outer loop
      vertex -43.1871 13.8526 24
      vertex -42.6791 14.2216 0
      vertex -43.1871 13.8526 0
    endloop
  endfacet
  facet normal -0.98227 -0.187471 0
    outer loop
      vertex -44.8429 -11.2434 0
      vertex -44.9606 -10.6267 24
      vertex -44.9606 -10.6267 0
    endloop
  endfacet
  facet normal -0.98227 -0.187471 0
    outer loop
      vertex -44.9606 -10.6267 24
      vertex -44.8429 -11.2434 0
      vertex -44.8429 -11.2434 24
    endloop
  endfacet
  facet normal 0.248601 -0.968606 0
    outer loop
      vertex 40.9369 -14.9114 0
      vertex 41.5451 -14.7553 24
      vertex 40.9369 -14.9114 24
    endloop
  endfacet
  facet normal 0.248601 -0.968606 0
    outer loop
      vertex 41.5451 -14.7553 24
      vertex 40.9369 -14.9114 0
      vertex 41.5451 -14.7553 0
    endloop
  endfacet
  facet normal 0.844336 -0.535814 0
    outer loop
      vertex 44.0451 -12.9389 24
      vertex 44.3815 -12.4088 0
      vertex 44.3815 -12.4088 24
    endloop
  endfacet
  facet normal 0.844336 -0.535814 0
    outer loop
      vertex 44.3815 -12.4088 0
      vertex 44.0451 -12.9389 24
      vertex 44.0451 -12.9389 0
    endloop
  endfacet
  facet normal 0.481784 0.87629 -0
    outer loop
      vertex 42.6791 14.2216 0
      vertex 42.1289 14.5241 24
      vertex 42.6791 14.2216 24
    endloop
  endfacet
  facet normal 0.481784 0.87629 0
    outer loop
      vertex 42.1289 14.5241 24
      vertex 42.6791 14.2216 0
      vertex 42.1289 14.5241 0
    endloop
  endfacet
  facet normal 0.248601 0.968606 -0
    outer loop
      vertex 41.5451 14.7553 0
      vertex 40.9369 14.9114 24
      vertex 41.5451 14.7553 24
    endloop
  endfacet
  facet normal 0.248601 0.968606 0
    outer loop
      vertex 40.9369 14.9114 24
      vertex 41.5451 14.7553 0
      vertex 40.9369 14.9114 0
    endloop
  endfacet
  facet normal -0.770462 0.637486 0
    outer loop
      vertex -44.0451 12.9389 0
      vertex -43.6448 13.4227 24
      vertex -43.6448 13.4227 0
    endloop
  endfacet
  facet normal -0.770462 0.637486 0
    outer loop
      vertex -43.6448 13.4227 24
      vertex -44.0451 12.9389 0
      vertex -44.0451 12.9389 24
    endloop
  endfacet
  facet normal 0.684624 -0.728896 0
    outer loop
      vertex 43.1871 -13.8526 0
      vertex 43.6448 -13.4227 24
      vertex 43.1871 -13.8526 24
    endloop
  endfacet
  facet normal 0.684624 -0.728896 0
    outer loop
      vertex 43.6448 -13.4227 24
      vertex 43.1871 -13.8526 0
      vertex 43.6448 -13.4227 0
    endloop
  endfacet
  facet normal 0.368203 -0.929745 0
    outer loop
      vertex 41.5451 -14.7553 0
      vertex 42.1289 -14.5241 24
      vertex 41.5451 -14.7553 24
    endloop
  endfacet
  facet normal 0.368203 -0.929745 0
    outer loop
      vertex 42.1289 -14.5241 24
      vertex 41.5451 -14.7553 0
      vertex 42.1289 -14.5241 0
    endloop
  endfacet
  facet normal 0.904811 -0.425812 0
    outer loop
      vertex 44.3815 -12.4088 24
      vertex 44.6489 -11.8406 0
      vertex 44.6489 -11.8406 24
    endloop
  endfacet
  facet normal 0.904811 -0.425812 0
    outer loop
      vertex 44.6489 -11.8406 0
      vertex 44.3815 -12.4088 24
      vertex 44.3815 -12.4088 0
    endloop
  endfacet
  facet normal -0.904811 0.425812 0
    outer loop
      vertex -44.6489 11.8406 0
      vertex -44.3815 12.4088 24
      vertex -44.3815 12.4088 0
    endloop
  endfacet
  facet normal -0.904811 0.425812 0
    outer loop
      vertex -44.3815 12.4088 24
      vertex -44.6489 11.8406 0
      vertex -44.6489 11.8406 24
    endloop
  endfacet
  facet normal -0.844336 0.535814 0
    outer loop
      vertex -44.3815 12.4088 0
      vertex -44.0451 12.9389 24
      vertex -44.0451 12.9389 0
    endloop
  endfacet
  facet normal -0.844336 0.535814 0
    outer loop
      vertex -44.0451 12.9389 24
      vertex -44.3815 12.4088 0
      vertex -44.3815 12.4088 24
    endloop
  endfacet
  facet normal 0.587698 -0.80908 0
    outer loop
      vertex 42.6791 -14.2216 0
      vertex 43.1871 -13.8526 24
      vertex 42.6791 -14.2216 24
    endloop
  endfacet
  facet normal 0.587698 -0.80908 0
    outer loop
      vertex 43.1871 -13.8526 24
      vertex 42.6791 -14.2216 0
      vertex 43.1871 -13.8526 0
    endloop
  endfacet
  facet normal 0.481784 -0.87629 0
    outer loop
      vertex 42.1289 -14.5241 0
      vertex 42.6791 -14.2216 24
      vertex 42.1289 -14.5241 24
    endloop
  endfacet
  facet normal 0.481784 -0.87629 0
    outer loop
      vertex 42.6791 -14.2216 24
      vertex 42.1289 -14.5241 0
      vertex 42.6791 -14.2216 0
    endloop
  endfacet
  facet normal 1 -0 0
    outer loop
      vertex -44 -10 24
      vertex -44 10 2
      vertex -44 10 24
    endloop
  endfacet
  facet normal 1 0 0
    outer loop
      vertex -44 10 2
      vertex -44 -10 24
      vertex -44 -10 2
    endloop
  endfacet
  facet normal 0.998032 0.0627129 0
    outer loop
      vertex -43.9685 -10.5013 24
      vertex -44 -10 2
      vertex -44 -10 24
    endloop
  endfacet
  facet normal 0.998032 0.0627129 0
    outer loop
      vertex -44 -10 2
      vertex -43.9685 -10.5013 24
      vertex -43.9685 -10.5013 2
    endloop
  endfacet
  facet normal -0.770549 -0.63738 0
    outer loop
      vertex 43.2361 12.3511 2
      vertex 42.9159 12.7382 24
      vertex 42.9159 12.7382 2
    endloop
  endfacet
  facet normal -0.770549 -0.63738 0
    outer loop
      vertex 42.9159 12.7382 24
      vertex 43.2361 12.3511 2
      vertex 43.2361 12.3511 24
    endloop
  endfacet
  facet normal 0.998032 -0.0627129 0
    outer loop
      vertex -44 10 24
      vertex -43.9685 10.5013 2
      vertex -43.9685 10.5013 24
    endloop
  endfacet
  facet normal 0.998032 -0.0627129 0
    outer loop
      vertex -43.9685 10.5013 2
      vertex -44 10 24
      vertex -44 10 2
    endloop
  endfacet
  facet normal 0 1 -0
    outer loop
      vertex 40.2512 -13.9921 2
      vertex -40.2512 -13.9921 24
      vertex 40.2512 -13.9921 24
    endloop
  endfacet
  facet normal 0 1 0
    outer loop
      vertex -40.2512 -13.9921 24
      vertex 40.2512 -13.9921 2
      vertex -40.2512 -13.9921 2
    endloop
  endfacet
  facet normal -0.125431 0.992102 0
    outer loop
      vertex 40.7495 -13.9291 2
      vertex 40.2512 -13.9921 24
      vertex 40.7495 -13.9291 24
    endloop
  endfacet
  facet normal -0.125431 0.992102 0
    outer loop
      vertex 40.2512 -13.9921 24
      vertex 40.7495 -13.9291 2
      vertex 40.2512 -13.9921 2
    endloop
  endfacet
  facet normal 0.24862 -0.968601 0
    outer loop
      vertex -41.2361 13.8042 2
      vertex -40.7495 13.9291 24
      vertex -41.2361 13.8042 24
    endloop
  endfacet
  facet normal 0.24862 -0.968601 0
    outer loop
      vertex -40.7495 13.9291 24
      vertex -41.2361 13.8042 2
      vertex -40.7495 13.9291 2
    endloop
  endfacet
  facet normal -0.481751 -0.876308 0
    outer loop
      vertex 41.7031 13.6193 2
      vertex 42.1433 13.3773 24
      vertex 41.7031 13.6193 24
    endloop
  endfacet
  facet normal -0.481751 -0.876308 -0
    outer loop
      vertex 42.1433 13.3773 24
      vertex 41.7031 13.6193 2
      vertex 42.1433 13.3773 2
    endloop
  endfacet
  facet normal -0.998032 0.0627129 0
    outer loop
      vertex 43.9685 -10.5013 2
      vertex 44 -10 24
      vertex 44 -10 2
    endloop
  endfacet
  facet normal -0.998032 0.0627129 0
    outer loop
      vertex 44 -10 24
      vertex 43.9685 -10.5013 2
      vertex 43.9685 -10.5013 24
    endloop
  endfacet
  facet normal -1 0 0
    outer loop
      vertex 44 -10 2
      vertex 44 10 24
      vertex 44 10 2
    endloop
  endfacet
  facet normal -1 -0 0
    outer loop
      vertex 44 10 24
      vertex 44 -10 2
      vertex 44 -10 24
    endloop
  endfacet
  facet normal 0.125431 -0.992102 0
    outer loop
      vertex -40.7495 13.9291 2
      vertex -40.2512 13.9921 24
      vertex -40.7495 13.9291 24
    endloop
  endfacet
  facet normal 0.125431 -0.992102 0
    outer loop
      vertex -40.2512 13.9921 24
      vertex -40.7495 13.9291 2
      vertex -40.2512 13.9921 2
    endloop
  endfacet
  facet normal 0 -1 0
    outer loop
      vertex -40.2512 13.9921 2
      vertex 40.2512 13.9921 24
      vertex -40.2512 13.9921 24
    endloop
  endfacet
  facet normal 0 -1 -0
    outer loop
      vertex 40.2512 13.9921 24
      vertex -40.2512 13.9921 2
      vertex 40.2512 13.9921 2
    endloop
  endfacet
  facet normal 0.770549 -0.63738 0
    outer loop
      vertex -43.2361 12.3511 24
      vertex -42.9159 12.7382 2
      vertex -42.9159 12.7382 24
    endloop
  endfacet
  facet normal 0.770549 -0.63738 0
    outer loop
      vertex -42.9159 12.7382 2
      vertex -43.2361 12.3511 24
      vertex -43.2361 12.3511 2
    endloop
  endfacet
  facet normal 0.368127 0.929775 -0
    outer loop
      vertex -41.2361 -13.8042 2
      vertex -41.7031 -13.6193 24
      vertex -41.2361 -13.8042 24
    endloop
  endfacet
  facet normal 0.368127 0.929775 0
    outer loop
      vertex -41.7031 -13.6193 24
      vertex -41.2361 -13.8042 2
      vertex -41.7031 -13.6193 2
    endloop
  endfacet
  facet normal -0.951065 -0.308992 0
    outer loop
      vertex 43.8743 10.9948 2
      vertex 43.7191 11.4725 24
      vertex 43.7191 11.4725 2
    endloop
  endfacet
  facet normal -0.951065 -0.308992 0
    outer loop
      vertex 43.7191 11.4725 24
      vertex 43.8743 10.9948 2
      vertex 43.8743 10.9948 24
    endloop
  endfacet
  facet normal -0.481751 0.876308 0
    outer loop
      vertex 42.1433 -13.3773 2
      vertex 41.7031 -13.6193 24
      vertex 42.1433 -13.3773 24
    endloop
  endfacet
  facet normal -0.481751 0.876308 0
    outer loop
      vertex 41.7031 -13.6193 24
      vertex 42.1433 -13.3773 2
      vertex 41.7031 -13.6193 2
    endloop
  endfacet
  facet normal -0.125431 -0.992102 0
    outer loop
      vertex 40.2512 13.9921 2
      vertex 40.7495 13.9291 24
      vertex 40.2512 13.9921 24
    endloop
  endfacet
  facet normal -0.125431 -0.992102 -0
    outer loop
      vertex 40.7495 13.9291 24
      vertex 40.2512 13.9921 2
      vertex 40.7495 13.9291 2
    endloop
  endfacet
  facet normal 0.951065 -0.308992 0
    outer loop
      vertex -43.8743 10.9948 24
      vertex -43.7191 11.4725 2
      vertex -43.7191 11.4725 24
    endloop
  endfacet
  facet normal 0.951065 -0.308992 0
    outer loop
      vertex -43.7191 11.4725 2
      vertex -43.8743 10.9948 24
      vertex -43.8743 10.9948 2
    endloop
  endfacet
  facet normal 0.368127 -0.929775 0
    outer loop
      vertex -41.7031 13.6193 2
      vertex -41.2361 13.8042 24
      vertex -41.7031 13.6193 24
    endloop
  endfacet
  facet normal 0.368127 -0.929775 0
    outer loop
      vertex -41.2361 13.8042 24
      vertex -41.7031 13.6193 2
      vertex -41.2361 13.8042 2
    endloop
  endfacet
  facet normal 0.587698 -0.80908 0
    outer loop
      vertex -42.5497 13.0821 2
      vertex -42.1433 13.3773 24
      vertex -42.5497 13.0821 24
    endloop
  endfacet
  facet normal 0.587698 -0.80908 0
    outer loop
      vertex -42.1433 13.3773 24
      vertex -42.5497 13.0821 2
      vertex -42.1433 13.3773 2
    endloop
  endfacet
  facet normal 0 0 1
    outer loop
      vertex 40.2512 13.9921 2
      vertex 44 10 2
      vertex 43.9685 10.5013 2
    endloop
  endfacet
  facet normal 0 0 1
    outer loop
      vertex 44 10 2
      vertex 40.2512 13.9921 2
      vertex 44 -10 2
    endloop
  endfacet
  facet normal 0 0 1
    outer loop
      vertex 40.2512 13.9921 2
      vertex 43.9685 10.5013 2
      vertex 43.8743 10.9948 2
    endloop
  endfacet
  facet normal 0 0 1
    outer loop
      vertex 40.2512 -13.9921 2
      vertex 44 -10 2
      vertex 40.2512 13.9921 2
    endloop
  endfacet
  facet normal 0 0 1
    outer loop
      vertex 40.2512 13.9921 2
      vertex 43.8743 10.9948 2
      vertex 43.7191 11.4725 2
    endloop
  endfacet
  facet normal 0 0 1
    outer loop
      vertex 44 -10 2
      vertex 40.2512 -13.9921 2
      vertex 43.9685 -10.5013 2
    endloop
  endfacet
  facet normal 0 0 1
    outer loop
      vertex 40.2512 13.9921 2
      vertex 43.7191 11.4725 2
      vertex 43.5052 11.927 2
    endloop
  endfacet
  facet normal 0 0 1
    outer loop
      vertex 43.9685 -10.5013 2
      vertex 40.2512 -13.9921 2
      vertex 43.8743 -10.9948 2
    endloop
  endfacet
  facet normal 0 0 1
    outer loop
      vertex 40.2512 13.9921 2
      vertex 43.5052 11.927 2
      vertex 43.2361 12.3511 2
    endloop
  endfacet
  facet normal 0 0 1
    outer loop
      vertex 43.8743 -10.9948 2
      vertex 40.2512 -13.9921 2
      vertex 43.7191 -11.4725 2
    endloop
  endfacet
  facet normal 0 0 1
    outer loop
      vertex 40.2512 13.9921 2
      vertex 43.2361 12.3511 2
      vertex 42.9159 12.7382 2
    endloop
  endfacet
  facet normal 0 0 1
    outer loop
      vertex 43.7191 -11.4725 2
      vertex 40.2512 -13.9921 2
      vertex 43.5052 -11.927 2
    endloop
  endfacet
  facet normal 0 0 1
    outer loop
      vertex 40.2512 13.9921 2
      vertex 42.9159 12.7382 2
      vertex 42.5497 13.0821 2
    endloop
  endfacet
  facet normal 0 0 1
    outer loop
      vertex 43.5052 -11.927 2
      vertex 40.2512 -13.9921 2
      vertex 43.2361 -12.3511 2
    endloop
  endfacet
  facet normal 0 0 1
    outer loop
      vertex 40.2512 13.9921 2
      vertex 42.5497 13.0821 2
      vertex 42.1433 13.3773 2
    endloop
  endfacet
  facet normal 0 0 1
    outer loop
      vertex 43.2361 -12.3511 2
      vertex 40.2512 -13.9921 2
      vertex 42.9159 -12.7382 2
    endloop
  endfacet
  facet normal 0 0 1
    outer loop
      vertex 40.2512 13.9921 2
      vertex 42.1433 13.3773 2
      vertex 41.7031 13.6193 2
    endloop
  endfacet
  facet normal 0 0 1
    outer loop
      vertex 42.9159 -12.7382 2
      vertex 40.2512 -13.9921 2
      vertex 42.5497 -13.0821 2
    endloop
  endfacet
  facet normal 0 0 1
    outer loop
      vertex 40.2512 13.9921 2
      vertex 41.7031 13.6193 2
      vertex 41.2361 13.8042 2
    endloop
  endfacet
  facet normal 0 0 1
    outer loop
      vertex 42.5497 -13.0821 2
      vertex 40.2512 -13.9921 2
      vertex 42.1433 -13.3773 2
    endloop
  endfacet
  facet normal 0 0 1
    outer loop
      vertex 40.2512 13.9921 2
      vertex 41.2361 13.8042 2
      vertex 40.7495 13.9291 2
    endloop
  endfacet
  facet normal 0 0 1
    outer loop
      vertex 42.1433 -13.3773 2
      vertex 40.2512 -13.9921 2
      vertex 41.7031 -13.6193 2
    endloop
  endfacet
  facet normal 0 0 1
    outer loop
      vertex 41.7031 -13.6193 2
      vertex 40.2512 -13.9921 2
      vertex 41.2361 -13.8042 2
    endloop
  endfacet
  facet normal 0 0 1
    outer loop
      vertex 41.2361 -13.8042 2
      vertex 40.2512 -13.9921 2
      vertex 40.7495 -13.9291 2
    endloop
  endfacet
  facet normal -0 0 1
    outer loop
      vertex -40.2512 13.9921 2
      vertex 40.2512 -13.9921 2
      vertex 40.2512 13.9921 2
    endloop
  endfacet
  facet normal 0 0 1
    outer loop
      vertex -40.2512 13.9921 2
      vertex -40.2512 -13.9921 2
      vertex 40.2512 -13.9921 2
    endloop
  endfacet
  facet normal 0 0 1
    outer loop
      vertex -44 10 2
      vertex -40.2512 13.9921 2
      vertex -40.7495 13.9291 2
    endloop
  endfacet
  facet normal 0 0 1
    outer loop
      vertex -40.2512 13.9921 2
      vertex -44 10 2
      vertex -40.2512 -13.9921 2
    endloop
  endfacet
  facet normal 0 0 1
    outer loop
      vertex -44 10 2
      vertex -40.7495 13.9291 2
      vertex -41.2361 13.8042 2
    endloop
  endfacet
  facet normal -0 0 1
    outer loop
      vertex -44 -10 2
      vertex -40.2512 -13.9921 2
      vertex -44 10 2
    endloop
  endfacet
  facet normal 0 0 1
    outer loop
      vertex -44 10 2
      vertex -41.2361 13.8042 2
      vertex -41.7031 13.6193 2
    endloop
  endfacet
  facet normal 0 0 1
    outer loop
      vertex -40.2512 -13.9921 2
      vertex -44 -10 2
      vertex -40.7495 -13.9291 2
    endloop
  endfacet
  facet normal 0 0 1
    outer loop
      vertex -44 10 2
      vertex -41.7031 13.6193 2
      vertex -42.1433 13.3773 2
    endloop
  endfacet
  facet normal 0 0 1
    outer loop
      vertex -40.7495 -13.9291 2
      vertex -44 -10 2
      vertex -41.2361 -13.8042 2
    endloop
  endfacet
  facet normal 0 0 1
    outer loop
      vertex -44 10 2
      vertex -42.1433 13.3773 2
      vertex -42.5497 13.0821 2
    endloop
  endfacet
  facet normal 0 0 1
    outer loop
      vertex -41.2361 -13.8042 2
      vertex -44 -10 2
      vertex -41.7031 -13.6193 2
    endloop
  endfacet
  facet normal 0 0 1
    outer loop
      vertex -44 10 2
      vertex -42.5497 13.0821 2
      vertex -42.9159 12.7382 2
    endloop
  endfacet
  facet normal 0 0 1
    outer loop
      vertex -41.7031 -13.6193 2
      vertex -44 -10 2
      vertex -42.1433 -13.3773 2
    endloop
  endfacet
  facet normal 0 0 1
    outer loop
      vertex -44 10 2
      vertex -42.9159 12.7382 2
      vertex -43.2361 12.3511 2
    endloop
  endfacet
  facet normal 0 0 1
    outer loop
      vertex -42.1433 -13.3773 2
      vertex -44 -10 2
      vertex -42.5497 -13.0821 2
    endloop
  endfacet
  facet normal 0 0 1
    outer loop
      vertex -44 10 2
      vertex -43.2361 12.3511 2
      vertex -43.5052 11.927 2
    endloop
  endfacet
  facet normal 0 0 1
    outer loop
      vertex -42.5497 -13.0821 2
      vertex -44 -10 2
      vertex -42.9159 -12.7382 2
    endloop
  endfacet
  facet normal 0 0 1
    outer loop
      vertex -44 10 2
      vertex -43.5052 11.927 2
      vertex -43.7191 11.4725 2
    endloop
  endfacet
  facet normal 0 0 1
    outer loop
      vertex -42.9159 -12.7382 2
      vertex -44 -10 2
      vertex -43.2361 -12.3511 2
    endloop
  endfacet
  facet normal 0 0 1
    outer loop
      vertex -44 10 2
      vertex -43.7191 11.4725 2
      vertex -43.8743 10.9948 2
    endloop
  endfacet
  facet normal 0 0 1
    outer loop
      vertex -43.2361 -12.3511 2
      vertex -44 -10 2
      vertex -43.5052 -11.927 2
    endloop
  endfacet
  facet normal 0 0 1
    outer loop
      vertex -44 10 2
      vertex -43.8743 10.9948 2
      vertex -43.9685 10.5013 2
    endloop
  endfacet
  facet normal 0 0 1
    outer loop
      vertex -43.5052 -11.927 2
      vertex -44 -10 2
      vertex -43.7191 -11.4725 2
    endloop
  endfacet
  facet normal 0 0 1
    outer loop
      vertex -43.7191 -11.4725 2
      vertex -44 -10 2
      vertex -43.8743 -10.9948 2
    endloop
  endfacet
  facet normal 0 0 1
    outer loop
      vertex -43.8743 -10.9948 2
      vertex -44 -10 2
      vertex -43.9685 -10.5013 2
    endloop
  endfacet
  facet normal 0.951065 0.308992 0
    outer loop
      vertex -43.7191 -11.4725 24
      vertex -43.8743 -10.9948 2
      vertex -43.8743 -10.9948 24
    endloop
  endfacet
  facet normal 0.951065 0.308992 0
    outer loop
      vertex -43.8743 -10.9948 2
      vertex -43.7191 -11.4725 24
      vertex -43.7191 -11.4725 2
    endloop
  endfacet
  facet normal 0.24862 0.968601 -0
    outer loop
      vertex -40.7495 -13.9291 2
      vertex -41.2361 -13.8042 24
      vertex -40.7495 -13.9291 24
    endloop
  endfacet
  facet normal 0.24862 0.968601 0
    outer loop
      vertex -41.2361 -13.8042 24
      vertex -40.7495 -13.9291 2
      vertex -41.2361 -13.8042 2
    endloop
  endfacet
  facet normal -0.982265 -0.187496 0
    outer loop
      vertex 43.9685 10.5013 2
      vertex 43.8743 10.9948 24
      vertex 43.8743 10.9948 2
    endloop
  endfacet
  facet normal -0.982265 -0.187496 0
    outer loop
      vertex 43.8743 10.9948 24
      vertex 43.9685 10.5013 2
      vertex 43.9685 10.5013 24
    endloop
  endfacet
  facet normal -0.998032 -0.0627129 0
    outer loop
      vertex 44 10 2
      vertex 43.9685 10.5013 24
      vertex 43.9685 10.5013 2
    endloop
  endfacet
  facet normal -0.998032 -0.0627129 0
    outer loop
      vertex 43.9685 10.5013 24
      vertex 44 10 2
      vertex 44 10 24
    endloop
  endfacet
  facet normal -0.904805 -0.425826 0
    outer loop
      vertex 43.7191 11.4725 2
      vertex 43.5052 11.927 24
      vertex 43.5052 11.927 2
    endloop
  endfacet
  facet normal -0.904805 -0.425826 0
    outer loop
      vertex 43.5052 11.927 24
      vertex 43.7191 11.4725 2
      vertex 43.7191 11.4725 24
    endloop
  endfacet
  facet normal -0.844366 -0.535767 0
    outer loop
      vertex 43.5052 11.927 2
      vertex 43.2361 12.3511 24
      vertex 43.2361 12.3511 2
    endloop
  endfacet
  facet normal -0.844366 -0.535767 0
    outer loop
      vertex 43.2361 12.3511 24
      vertex 43.5052 11.927 2
      vertex 43.5052 11.927 24
    endloop
  endfacet
  facet normal -0.368127 -0.929775 0
    outer loop
      vertex 41.2361 13.8042 2
      vertex 41.7031 13.6193 24
      vertex 41.2361 13.8042 24
    endloop
  endfacet
  facet normal -0.368127 -0.929775 -0
    outer loop
      vertex 41.7031 13.6193 24
      vertex 41.2361 13.8042 2
      vertex 41.7031 13.6193 2
    endloop
  endfacet
  facet normal -0.770549 0.63738 0
    outer loop
      vertex 42.9159 -12.7382 2
      vertex 43.2361 -12.3511 24
      vertex 43.2361 -12.3511 2
    endloop
  endfacet
  facet normal -0.770549 0.63738 0
    outer loop
      vertex 43.2361 -12.3511 24
      vertex 42.9159 -12.7382 2
      vertex 42.9159 -12.7382 24
    endloop
  endfacet
  facet normal -0.951065 0.308992 0
    outer loop
      vertex 43.7191 -11.4725 2
      vertex 43.8743 -10.9948 24
      vertex 43.8743 -10.9948 2
    endloop
  endfacet
  facet normal -0.951065 0.308992 0
    outer loop
      vertex 43.8743 -10.9948 24
      vertex 43.7191 -11.4725 2
      vertex 43.7191 -11.4725 24
    endloop
  endfacet
  facet normal -0.24862 0.968601 0
    outer loop
      vertex 41.2361 -13.8042 2
      vertex 40.7495 -13.9291 24
      vertex 41.2361 -13.8042 24
    endloop
  endfacet
  facet normal -0.24862 0.968601 0
    outer loop
      vertex 40.7495 -13.9291 24
      vertex 41.2361 -13.8042 2
      vertex 40.7495 -13.9291 2
    endloop
  endfacet
  facet normal 0.982265 -0.187496 0
    outer loop
      vertex -43.9685 10.5013 24
      vertex -43.8743 10.9948 2
      vertex -43.8743 10.9948 24
    endloop
  endfacet
  facet normal 0.982265 -0.187496 0
    outer loop
      vertex -43.8743 10.9948 2
      vertex -43.9685 10.5013 24
      vertex -43.9685 10.5013 2
    endloop
  endfacet
  facet normal 0.481751 -0.876308 0
    outer loop
      vertex -42.1433 13.3773 2
      vertex -41.7031 13.6193 24
      vertex -42.1433 13.3773 24
    endloop
  endfacet
  facet normal 0.481751 -0.876308 0
    outer loop
      vertex -41.7031 13.6193 24
      vertex -42.1433 13.3773 2
      vertex -41.7031 13.6193 2
    endloop
  endfacet
  facet normal 0.770549 0.63738 0
    outer loop
      vertex -42.9159 -12.7382 24
      vertex -43.2361 -12.3511 2
      vertex -43.2361 -12.3511 24
    endloop
  endfacet
  facet normal 0.770549 0.63738 0
    outer loop
      vertex -43.2361 -12.3511 2
      vertex -42.9159 -12.7382 24
      vertex -42.9159 -12.7382 2
    endloop
  endfacet
  facet normal 0.982265 0.187496 0
    outer loop
      vertex -43.8743 -10.9948 24
      vertex -43.9685 -10.5013 2
      vertex -43.9685 -10.5013 24
    endloop
  endfacet
  facet normal 0.982265 0.187496 0
    outer loop
      vertex -43.9685 -10.5013 2
      vertex -43.8743 -10.9948 24
      vertex -43.8743 -10.9948 2
    endloop
  endfacet
  facet normal 0.125431 0.992102 -0
    outer loop
      vertex -40.2512 -13.9921 2
      vertex -40.7495 -13.9291 24
      vertex -40.2512 -13.9921 24
    endloop
  endfacet
  facet normal 0.125431 0.992102 0
    outer loop
      vertex -40.7495 -13.9291 24
      vertex -40.2512 -13.9921 2
      vertex -40.7495 -13.9291 2
    endloop
  endfacet
  facet normal -0.587698 -0.80908 0
    outer loop
      vertex 42.1433 13.3773 2
      vertex 42.5497 13.0821 24
      vertex 42.1433 13.3773 24
    endloop
  endfacet
  facet normal -0.587698 -0.80908 -0
    outer loop
      vertex 42.5497 13.0821 24
      vertex 42.1433 13.3773 2
      vertex 42.5497 13.0821 2
    endloop
  endfacet
  facet normal -0.684563 -0.728953 0
    outer loop
      vertex 42.5497 13.0821 2
      vertex 42.9159 12.7382 24
      vertex 42.5497 13.0821 24
    endloop
  endfacet
  facet normal -0.684563 -0.728953 -0
    outer loop
      vertex 42.9159 12.7382 24
      vertex 42.5497 13.0821 2
      vertex 42.9159 12.7382 2
    endloop
  endfacet
  facet normal -0.24862 -0.968601 0
    outer loop
      vertex 40.7495 13.9291 2
      vertex 41.2361 13.8042 24
      vertex 40.7495 13.9291 24
    endloop
  endfacet
  facet normal -0.24862 -0.968601 -0
    outer loop
      vertex 41.2361 13.8042 24
      vertex 40.7495 13.9291 2
      vertex 41.2361 13.8042 2
    endloop
  endfacet
  facet normal -0.904805 0.425826 0
    outer loop
      vertex 43.5052 -11.927 2
      vertex 43.7191 -11.4725 24
      vertex 43.7191 -11.4725 2
    endloop
  endfacet
  facet normal -0.904805 0.425826 0
    outer loop
      vertex 43.7191 -11.4725 24
      vertex 43.5052 -11.927 2
      vertex 43.5052 -11.927 24
    endloop
  endfacet
  facet normal -0.844366 0.535767 0
    outer loop
      vertex 43.2361 -12.3511 2
      vertex 43.5052 -11.927 24
      vertex 43.5052 -11.927 2
    endloop
  endfacet
  facet normal -0.844366 0.535767 0
    outer loop
      vertex 43.5052 -11.927 24
      vertex 43.2361 -12.3511 2
      vertex 43.2361 -12.3511 24
    endloop
  endfacet
  facet normal -0.982265 0.187496 0
    outer loop
      vertex 43.8743 -10.9948 2
      vertex 43.9685 -10.5013 24
      vertex 43.9685 -10.5013 2
    endloop
  endfacet
  facet normal -0.982265 0.187496 0
    outer loop
      vertex 43.9685 -10.5013 24
      vertex 43.8743 -10.9948 2
      vertex 43.8743 -10.9948 24
    endloop
  endfacet
  facet normal -0.368127 0.929775 0
    outer loop
      vertex 41.7031 -13.6193 2
      vertex 41.2361 -13.8042 24
      vertex 41.7031 -13.6193 24
    endloop
  endfacet
  facet normal -0.368127 0.929775 0
    outer loop
      vertex 41.2361 -13.8042 24
      vertex 41.7031 -13.6193 2
      vertex 41.2361 -13.8042 2
    endloop
  endfacet
  facet normal 0.904805 -0.425826 0
    outer loop
      vertex -43.7191 11.4725 24
      vertex -43.5052 11.927 2
      vertex -43.5052 11.927 24
    endloop
  endfacet
  facet normal 0.904805 -0.425826 0
    outer loop
      vertex -43.5052 11.927 2
      vertex -43.7191 11.4725 24
      vertex -43.7191 11.4725 2
    endloop
  endfacet
  facet normal 0.844366 -0.535767 0
    outer loop
      vertex -43.5052 11.927 24
      vertex -43.2361 12.3511 2
      vertex -43.2361 12.3511 24
    endloop
  endfacet
  facet normal 0.844366 -0.535767 0
    outer loop
      vertex -43.2361 12.3511 2
      vertex -43.5052 11.927 24
      vertex -43.5052 11.927 2
    endloop
  endfacet
  facet normal 0.684563 -0.728953 0
    outer loop
      vertex -42.9159 12.7382 2
      vertex -42.5497 13.0821 24
      vertex -42.9159 12.7382 24
    endloop
  endfacet
  facet normal 0.684563 -0.728953 0
    outer loop
      vertex -42.5497 13.0821 24
      vertex -42.9159 12.7382 2
      vertex -42.5497 13.0821 2
    endloop
  endfacet
  facet normal 0.904805 0.425826 0
    outer loop
      vertex -43.5052 -11.927 24
      vertex -43.7191 -11.4725 2
      vertex -43.7191 -11.4725 24
    endloop
  endfacet
  facet normal 0.904805 0.425826 0
    outer loop
      vertex -43.7191 -11.4725 2
      vertex -43.5052 -11.927 24
      vertex -43.5052 -11.927 2
    endloop
  endfacet
  facet normal 0.684563 0.728953 -0
    outer loop
      vertex -42.5497 -13.0821 2
      vertex -42.9159 -12.7382 24
      vertex -42.5497 -13.0821 24
    endloop
  endfacet
  facet normal 0.684563 0.728953 0
    outer loop
      vertex -42.9159 -12.7382 24
      vertex -42.5497 -13.0821 2
      vertex -42.9159 -12.7382 2
    endloop
  endfacet
  facet normal 0.481751 0.876308 -0
    outer loop
      vertex -41.7031 -13.6193 2
      vertex -42.1433 -13.3773 24
      vertex -41.7031 -13.6193 24
    endloop
  endfacet
  facet normal 0.481751 0.876308 0
    outer loop
      vertex -42.1433 -13.3773 24
      vertex -41.7031 -13.6193 2
      vertex -42.1433 -13.3773 2
    endloop
  endfacet
  facet normal 0.587698 0.80908 -0
    outer loop
      vertex -42.1433 -13.3773 2
      vertex -42.5497 -13.0821 24
      vertex -42.1433 -13.3773 24
    endloop
  endfacet
  facet normal 0.587698 0.80908 0
    outer loop
      vertex -42.5497 -13.0821 24
      vertex -42.1433 -13.3773 2
      vertex -42.5497 -13.0821 2
    endloop
  endfacet
  facet normal -0.684563 0.728953 0
    outer loop
      vertex 42.9159 -12.7382 2
      vertex 42.5497 -13.0821 24
      vertex 42.9159 -12.7382 24
    endloop
  endfacet
  facet normal -0.684563 0.728953 0
    outer loop
      vertex 42.5497 -13.0821 24
      vertex 42.9159 -12.7382 2
      vertex 42.5497 -13.0821 2
    endloop
  endfacet
  facet normal -0.587698 0.80908 0
    outer loop
      vertex 42.5497 -13.0821 2
      vertex 42.1433 -13.3773 24
      vertex 42.5497 -13.0821 24
    endloop
  endfacet
  facet normal -0.587698 0.80908 0
    outer loop
      vertex 42.1433 -13.3773 24
      vertex 42.5497 -13.0821 2
      vertex 42.1433 -13.3773 2
    endloop
  endfacet
  facet normal 0.844366 0.535767 0
    outer loop
      vertex -43.2361 -12.3511 24
      vertex -43.5052 -11.927 2
      vertex -43.5052 -11.927 24
    endloop
  endfacet
  facet normal 0.844366 0.535767 0
    outer loop
      vertex -43.5052 -11.927 2
      vertex -43.2361 -12.3511 24
      vertex -43.2361 -12.3511 2
    endloop
  endfacet
endsolid OpenSCAD_Model
