solid OpenSCAD_Model
  facet normal 0 0 1
    outer loop
      vertex 104 62.5 21
      vertex 105 62.5 21
      vertex 104.961 63.1267 21
    endloop
  endfacet
  facet normal 0 0 1
    outer loop
      vertex 105 62.5 21
      vertex 104 62.5 21
      vertex 105 -62.5 21
    endloop
  endfacet
  facet normal 0 0 1
    outer loop
      vertex 103.968 63.0013 21
      vertex 104.961 63.1267 21
      vertex 104.843 63.7435 21
    endloop
  endfacet
  facet normal 0 0 1
    outer loop
      vertex 104 -62.5 21
      vertex 105 -62.5 21
      vertex 104 62.5 21
    endloop
  endfacet
  facet normal 0 0 1
    outer loop
      vertex 103.874 63.4948 21
      vertex 104.843 63.7435 21
      vertex 104.649 64.3406 21
    endloop
  endfacet
  facet normal 0 0 1
    outer loop
      vertex 105 -62.5 21
      vertex 104 -62.5 21
      vertex 104.961 -63.1267 21
    endloop
  endfacet
  facet normal 0 0 1
    outer loop
      vertex 103.719 63.9725 21
      vertex 104.649 64.3406 21
      vertex 104.382 64.9088 21
    endloop
  endfacet
  facet normal -0 0 1
    outer loop
      vertex 103.968 -63.0013 21
      vertex 104.961 -63.1267 21
      vertex 104 -62.5 21
    endloop
  endfacet
  facet normal 0 0 1
    outer loop
      vertex 103.505 64.427 21
      vertex 104.382 64.9088 21
      vertex 104.045 65.4389 21
    endloop
  endfacet
  facet normal 0 0 1
    outer loop
      vertex 104.961 -63.1267 21
      vertex 103.968 -63.0013 21
      vertex 104.843 -63.7435 21
    endloop
  endfacet
  facet normal -0 0 1
    outer loop
      vertex 103.874 -63.4948 21
      vertex 104.843 -63.7435 21
      vertex 103.968 -63.0013 21
    endloop
  endfacet
  facet normal 0 0 1
    outer loop
      vertex 104.961 63.1267 21
      vertex 103.968 63.0013 21
      vertex 104 62.5 21
    endloop
  endfacet
  facet normal 0 0 1
    outer loop
      vertex 104.843 63.7435 21
      vertex 103.874 63.4948 21
      vertex 103.968 63.0013 21
    endloop
  endfacet
  facet normal 0 0 1
    outer loop
      vertex 104.649 64.3406 21
      vertex 103.719 63.9725 21
      vertex 103.874 63.4948 21
    endloop
  endfacet
  facet normal 0 0 1
    outer loop
      vertex 103.236 64.8511 21
      vertex 104.045 65.4389 21
      vertex 103.645 65.9227 21
    endloop
  endfacet
  facet normal 0 0 1
    outer loop
      vertex 104.382 64.9088 21
      vertex 103.505 64.427 21
      vertex 103.719 63.9725 21
    endloop
  endfacet
  facet normal 0 0 1
    outer loop
      vertex 104.045 65.4389 21
      vertex 103.236 64.8511 21
      vertex 103.505 64.427 21
    endloop
  endfacet
  facet normal 0 0 1
    outer loop
      vertex 102.916 65.2382 21
      vertex 103.645 65.9227 21
      vertex 103.187 66.3526 21
    endloop
  endfacet
  facet normal 0 0 1
    outer loop
      vertex 103.645 65.9227 21
      vertex 102.916 65.2382 21
      vertex 103.236 64.8511 21
    endloop
  endfacet
  facet normal 0 0 1
    outer loop
      vertex 102.55 65.5821 21
      vertex 103.187 66.3526 21
      vertex 102.679 66.7216 21
    endloop
  endfacet
  facet normal 0 0 1
    outer loop
      vertex 103.187 66.3526 21
      vertex 102.55 65.5821 21
      vertex 102.916 65.2382 21
    endloop
  endfacet
  facet normal 0 0 1
    outer loop
      vertex 102.679 66.7216 21
      vertex 102.143 65.8773 21
      vertex 102.55 65.5821 21
    endloop
  endfacet
  facet normal 0 0 1
    outer loop
      vertex 102.129 67.0241 21
      vertex 102.143 65.8773 21
      vertex 102.679 66.7216 21
    endloop
  endfacet
  facet normal 0 0 1
    outer loop
      vertex 102.129 67.0241 21
      vertex 101.703 66.1193 21
      vertex 102.143 65.8773 21
    endloop
  endfacet
  facet normal 0 0 1
    outer loop
      vertex 101.545 67.2553 21
      vertex 101.703 66.1193 21
      vertex 102.129 67.0241 21
    endloop
  endfacet
  facet normal 0 0 1
    outer loop
      vertex 101.545 67.2553 21
      vertex 101.236 66.3042 21
      vertex 101.703 66.1193 21
    endloop
  endfacet
  facet normal 0 0 1
    outer loop
      vertex 100.937 67.4114 21
      vertex 101.236 66.3042 21
      vertex 101.545 67.2553 21
    endloop
  endfacet
  facet normal 0 0 1
    outer loop
      vertex 100.937 67.4114 21
      vertex 100.75 66.4291 21
      vertex 101.236 66.3042 21
    endloop
  endfacet
  facet normal 0 0 1
    outer loop
      vertex 100.314 67.4901 21
      vertex 100.75 66.4291 21
      vertex 100.937 67.4114 21
    endloop
  endfacet
  facet normal 0 0 1
    outer loop
      vertex 100.314 67.4901 21
      vertex 100.251 66.4921 21
      vertex 100.75 66.4291 21
    endloop
  endfacet
  facet normal 0 0 1
    outer loop
      vertex 100.314 67.4901 21
      vertex -100.251 66.4921 21
      vertex 100.251 66.4921 21
    endloop
  endfacet
  facet normal -0 0 1
    outer loop
      vertex -100.314 67.4901 21
      vertex -100.251 66.4921 21
      vertex 100.314 67.4901 21
    endloop
  endfacet
  facet normal 0 0 1
    outer loop
      vertex -100.314 67.4901 21
      vertex -100.75 66.4291 21
      vertex -100.251 66.4921 21
    endloop
  endfacet
  facet normal -0 0 1
    outer loop
      vertex -100.937 67.4114 21
      vertex -100.75 66.4291 21
      vertex -100.314 67.4901 21
    endloop
  endfacet
  facet normal 0 0 1
    outer loop
      vertex -100.937 67.4114 21
      vertex -101.236 66.3042 21
      vertex -100.75 66.4291 21
    endloop
  endfacet
  facet normal -0 0 1
    outer loop
      vertex -101.545 67.2553 21
      vertex -101.236 66.3042 21
      vertex -100.937 67.4114 21
    endloop
  endfacet
  facet normal 0 0 1
    outer loop
      vertex -101.545 67.2553 21
      vertex -101.703 66.1193 21
      vertex -101.236 66.3042 21
    endloop
  endfacet
  facet normal -0 0 1
    outer loop
      vertex -102.129 67.0241 21
      vertex -101.703 66.1193 21
      vertex -101.545 67.2553 21
    endloop
  endfacet
  facet normal 0 0 1
    outer loop
      vertex -102.129 67.0241 21
      vertex -102.143 65.8773 21
      vertex -101.703 66.1193 21
    endloop
  endfacet
  facet normal -0 0 1
    outer loop
      vertex -102.679 66.7216 21
      vertex -102.143 65.8773 21
      vertex -102.129 67.0241 21
    endloop
  endfacet
  facet normal 0 0 1
    outer loop
      vertex -102.143 65.8773 21
      vertex -102.679 66.7216 21
      vertex -102.55 65.5821 21
    endloop
  endfacet
  facet normal -0 0 1
    outer loop
      vertex -103.187 66.3526 21
      vertex -102.55 65.5821 21
      vertex -102.679 66.7216 21
    endloop
  endfacet
  facet normal 0 0 1
    outer loop
      vertex -102.55 65.5821 21
      vertex -103.187 66.3526 21
      vertex -102.916 65.2382 21
    endloop
  endfacet
  facet normal -0 0 1
    outer loop
      vertex -103.645 65.9227 21
      vertex -102.916 65.2382 21
      vertex -103.187 66.3526 21
    endloop
  endfacet
  facet normal 0 0 1
    outer loop
      vertex -102.916 65.2382 21
      vertex -103.645 65.9227 21
      vertex -103.236 64.8511 21
    endloop
  endfacet
  facet normal -0 0 1
    outer loop
      vertex -104.045 65.4389 21
      vertex -103.236 64.8511 21
      vertex -103.645 65.9227 21
    endloop
  endfacet
  facet normal 0 0 1
    outer loop
      vertex -103.236 64.8511 21
      vertex -104.045 65.4389 21
      vertex -103.505 64.427 21
    endloop
  endfacet
  facet normal -0 0 1
    outer loop
      vertex -104.382 64.9088 21
      vertex -103.505 64.427 21
      vertex -104.045 65.4389 21
    endloop
  endfacet
  facet normal 0 0 1
    outer loop
      vertex -103.505 64.427 21
      vertex -104.382 64.9088 21
      vertex -103.719 63.9725 21
    endloop
  endfacet
  facet normal -0 0 1
    outer loop
      vertex -104.843 63.7435 21
      vertex -103.874 63.4948 21
      vertex -104.649 64.3406 21
    endloop
  endfacet
  facet normal 0 0 1
    outer loop
      vertex -103.719 63.9725 21
      vertex -104.649 64.3406 21
      vertex -103.874 63.4948 21
    endloop
  endfacet
  facet normal -0 0 1
    outer loop
      vertex -104.649 64.3406 21
      vertex -103.719 63.9725 21
      vertex -104.382 64.9088 21
    endloop
  endfacet
  facet normal 0 0 1
    outer loop
      vertex 104.843 -63.7435 21
      vertex 103.874 -63.4948 21
      vertex 104.649 -64.3406 21
    endloop
  endfacet
  facet normal -0 0 1
    outer loop
      vertex 103.719 -63.9725 21
      vertex 104.649 -64.3406 21
      vertex 103.874 -63.4948 21
    endloop
  endfacet
  facet normal 0 0 1
    outer loop
      vertex 104.649 -64.3406 21
      vertex 103.719 -63.9725 21
      vertex 104.382 -64.9088 21
    endloop
  endfacet
  facet normal -0 0 1
    outer loop
      vertex 103.505 -64.427 21
      vertex 104.382 -64.9088 21
      vertex 103.719 -63.9725 21
    endloop
  endfacet
  facet normal 0 0 1
    outer loop
      vertex 104.382 -64.9088 21
      vertex 103.505 -64.427 21
      vertex 104.045 -65.4389 21
    endloop
  endfacet
  facet normal -0 0 1
    outer loop
      vertex 103.236 -64.8511 21
      vertex 104.045 -65.4389 21
      vertex 103.505 -64.427 21
    endloop
  endfacet
  facet normal 0 0 1
    outer loop
      vertex 104.045 -65.4389 21
      vertex 103.236 -64.8511 21
      vertex 103.645 -65.9227 21
    endloop
  endfacet
  facet normal -0 0 1
    outer loop
      vertex 102.916 -65.2382 21
      vertex 103.645 -65.9227 21
      vertex 103.236 -64.8511 21
    endloop
  endfacet
  facet normal 0 0 1
    outer loop
      vertex 103.645 -65.9227 21
      vertex 102.916 -65.2382 21
      vertex 103.187 -66.3526 21
    endloop
  endfacet
  facet normal -0 0 1
    outer loop
      vertex 102.55 -65.5821 21
      vertex 103.187 -66.3526 21
      vertex 102.916 -65.2382 21
    endloop
  endfacet
  facet normal 0 0 1
    outer loop
      vertex 103.187 -66.3526 21
      vertex 102.55 -65.5821 21
      vertex 102.679 -66.7216 21
    endloop
  endfacet
  facet normal -0 0 1
    outer loop
      vertex 102.143 -65.8773 21
      vertex 102.679 -66.7216 21
      vertex 102.55 -65.5821 21
    endloop
  endfacet
  facet normal 0 0 1
    outer loop
      vertex 102.143 -65.8773 21
      vertex 102.129 -67.0241 21
      vertex 102.679 -66.7216 21
    endloop
  endfacet
  facet normal -0 0 1
    outer loop
      vertex 101.703 -66.1193 21
      vertex 102.129 -67.0241 21
      vertex 102.143 -65.8773 21
    endloop
  endfacet
  facet normal 0 0 1
    outer loop
      vertex 101.703 -66.1193 21
      vertex 101.545 -67.2553 21
      vertex 102.129 -67.0241 21
    endloop
  endfacet
  facet normal -0 0 1
    outer loop
      vertex 101.236 -66.3042 21
      vertex 101.545 -67.2553 21
      vertex 101.703 -66.1193 21
    endloop
  endfacet
  facet normal 0 0 1
    outer loop
      vertex 101.236 -66.3042 21
      vertex 100.937 -67.4114 21
      vertex 101.545 -67.2553 21
    endloop
  endfacet
  facet normal -0 0 1
    outer loop
      vertex 100.75 -66.4291 21
      vertex 100.937 -67.4114 21
      vertex 101.236 -66.3042 21
    endloop
  endfacet
  facet normal 0 0 1
    outer loop
      vertex 100.75 -66.4291 21
      vertex 100.314 -67.4901 21
      vertex 100.937 -67.4114 21
    endloop
  endfacet
  facet normal -0 0 1
    outer loop
      vertex 100.251 -66.4921 21
      vertex 100.314 -67.4901 21
      vertex 100.75 -66.4291 21
    endloop
  endfacet
  facet normal -0 0 1
    outer loop
      vertex -100.251 -66.4921 21
      vertex 100.314 -67.4901 21
      vertex 100.251 -66.4921 21
    endloop
  endfacet
  facet normal 0 0 1
    outer loop
      vertex -100.251 -66.4921 21
      vertex -100.314 -67.4901 21
      vertex 100.314 -67.4901 21
    endloop
  endfacet
  facet normal 0 0 1
    outer loop
      vertex -100.75 -66.4291 21
      vertex -100.314 -67.4901 21
      vertex -100.251 -66.4921 21
    endloop
  endfacet
  facet normal 0 0 1
    outer loop
      vertex -100.75 -66.4291 21
      vertex -100.937 -67.4114 21
      vertex -100.314 -67.4901 21
    endloop
  endfacet
  facet normal 0 0 1
    outer loop
      vertex -101.236 -66.3042 21
      vertex -100.937 -67.4114 21
      vertex -100.75 -66.4291 21
    endloop
  endfacet
  facet normal 0 0 1
    outer loop
      vertex -101.236 -66.3042 21
      vertex -101.545 -67.2553 21
      vertex -100.937 -67.4114 21
    endloop
  endfacet
  facet normal 0 0 1
    outer loop
      vertex -101.703 -66.1193 21
      vertex -101.545 -67.2553 21
      vertex -101.236 -66.3042 21
    endloop
  endfacet
  facet normal 0 0 1
    outer loop
      vertex -101.703 -66.1193 21
      vertex -102.129 -67.0241 21
      vertex -101.545 -67.2553 21
    endloop
  endfacet
  facet normal 0 0 1
    outer loop
      vertex -102.143 -65.8773 21
      vertex -102.129 -67.0241 21
      vertex -101.703 -66.1193 21
    endloop
  endfacet
  facet normal 0 0 1
    outer loop
      vertex -102.679 -66.7216 21
      vertex -102.143 -65.8773 21
      vertex -102.55 -65.5821 21
    endloop
  endfacet
  facet normal 0 0 1
    outer loop
      vertex -102.143 -65.8773 21
      vertex -102.679 -66.7216 21
      vertex -102.129 -67.0241 21
    endloop
  endfacet
  facet normal 0 0 1
    outer loop
      vertex -103.187 -66.3526 21
      vertex -102.55 -65.5821 21
      vertex -102.916 -65.2382 21
    endloop
  endfacet
  facet normal 0 0 1
    outer loop
      vertex -102.55 -65.5821 21
      vertex -103.187 -66.3526 21
      vertex -102.679 -66.7216 21
    endloop
  endfacet
  facet normal 0 0 1
    outer loop
      vertex -103.645 -65.9227 21
      vertex -102.916 -65.2382 21
      vertex -103.236 -64.8511 21
    endloop
  endfacet
  facet normal 0 0 1
    outer loop
      vertex -104.045 -65.4389 21
      vertex -103.236 -64.8511 21
      vertex -103.505 -64.427 21
    endloop
  endfacet
  facet normal 0 0 1
    outer loop
      vertex -102.916 -65.2382 21
      vertex -103.645 -65.9227 21
      vertex -103.187 -66.3526 21
    endloop
  endfacet
  facet normal 0 0 1
    outer loop
      vertex -104.382 -64.9088 21
      vertex -103.505 -64.427 21
      vertex -103.719 -63.9725 21
    endloop
  endfacet
  facet normal 0 0 1
    outer loop
      vertex -104.649 -64.3406 21
      vertex -103.719 -63.9725 21
      vertex -103.874 -63.4948 21
    endloop
  endfacet
  facet normal 0 0 1
    outer loop
      vertex -104.843 -63.7435 21
      vertex -103.874 -63.4948 21
      vertex -103.968 -63.0013 21
    endloop
  endfacet
  facet normal 0 0 1
    outer loop
      vertex -103.236 -64.8511 21
      vertex -104.045 -65.4389 21
      vertex -103.645 -65.9227 21
    endloop
  endfacet
  facet normal 0 0 1
    outer loop
      vertex -104.961 -63.1267 21
      vertex -103.968 -63.0013 21
      vertex -104 -62.5 21
    endloop
  endfacet
  facet normal 0 0 1
    outer loop
      vertex -104 62.5 21
      vertex -105 62.5 21
      vertex -104 -62.5 21
    endloop
  endfacet
  facet normal 0 0 1
    outer loop
      vertex -103.874 63.4948 21
      vertex -104.843 63.7435 21
      vertex -103.968 63.0013 21
    endloop
  endfacet
  facet normal 0 0 1
    outer loop
      vertex -105 -62.5 21
      vertex -104 -62.5 21
      vertex -105 62.5 21
    endloop
  endfacet
  facet normal -0 0 1
    outer loop
      vertex -104.961 63.1267 21
      vertex -103.968 63.0013 21
      vertex -104.843 63.7435 21
    endloop
  endfacet
  facet normal 0 -0 1
    outer loop
      vertex -104.961 -63.1267 21
      vertex -104 -62.5 21
      vertex -105 -62.5 21
    endloop
  endfacet
  facet normal 0 0 1
    outer loop
      vertex -103.968 63.0013 21
      vertex -104.961 63.1267 21
      vertex -104 62.5 21
    endloop
  endfacet
  facet normal 0 0 1
    outer loop
      vertex -103.505 -64.427 21
      vertex -104.382 -64.9088 21
      vertex -104.045 -65.4389 21
    endloop
  endfacet
  facet normal 0 0 1
    outer loop
      vertex -104 62.5 21
      vertex -104.961 63.1267 21
      vertex -105 62.5 21
    endloop
  endfacet
  facet normal 0 0 1
    outer loop
      vertex -103.719 -63.9725 21
      vertex -104.649 -64.3406 21
      vertex -104.382 -64.9088 21
    endloop
  endfacet
  facet normal 0 0 1
    outer loop
      vertex -103.874 -63.4948 21
      vertex -104.843 -63.7435 21
      vertex -104.649 -64.3406 21
    endloop
  endfacet
  facet normal 0 0 1
    outer loop
      vertex -103.968 -63.0013 21
      vertex -104.961 -63.1267 21
      vertex -104.843 -63.7435 21
    endloop
  endfacet
  facet normal 0 1 -0
    outer loop
      vertex 100.314 67.4901 0
      vertex -100.314 67.4901 21
      vertex 100.314 67.4901 21
    endloop
  endfacet
  facet normal 0 1 0
    outer loop
      vertex -100.314 67.4901 21
      vertex 100.314 67.4901 0
      vertex -100.314 67.4901 0
    endloop
  endfacet
  facet normal 0.684386 0.72912 -0
    outer loop
      vertex 103.645 65.9227 0
      vertex 103.187 66.3526 21
      vertex 103.645 65.9227 21
    endloop
  endfacet
  facet normal 0.684386 0.72912 0
    outer loop
      vertex 103.187 66.3526 21
      vertex 103.645 65.9227 0
      vertex 103.187 66.3526 0
    endloop
  endfacet
  facet normal -0.125328 0.992115 0
    outer loop
      vertex -100.314 67.4901 0
      vertex -100.937 67.4114 21
      vertex -100.314 67.4901 21
    endloop
  endfacet
  facet normal -0.125328 0.992115 0
    outer loop
      vertex -100.937 67.4114 21
      vertex -100.314 67.4901 0
      vertex -100.937 67.4114 0
    endloop
  endfacet
  facet normal 0 -1 0
    outer loop
      vertex -100.314 -67.4901 0
      vertex 100.314 -67.4901 21
      vertex -100.314 -67.4901 21
    endloop
  endfacet
  facet normal 0 -1 -0
    outer loop
      vertex 100.314 -67.4901 21
      vertex -100.314 -67.4901 0
      vertex 100.314 -67.4901 0
    endloop
  endfacet
  facet normal 0.125328 0.992115 -0
    outer loop
      vertex 100.937 67.4114 0
      vertex 100.314 67.4901 21
      vertex 100.937 67.4114 21
    endloop
  endfacet
  facet normal 0.125328 0.992115 0
    outer loop
      vertex 100.314 67.4901 21
      vertex 100.937 67.4114 0
      vertex 100.314 67.4901 0
    endloop
  endfacet
  facet normal 0.998069 0.0621106 0
    outer loop
      vertex 105 62.5 21
      vertex 104.961 63.1267 0
      vertex 104.961 63.1267 21
    endloop
  endfacet
  facet normal 0.998069 0.0621106 0
    outer loop
      vertex 104.961 63.1267 0
      vertex 105 62.5 21
      vertex 105 62.5 0
    endloop
  endfacet
  facet normal 1 -0 0
    outer loop
      vertex 105 -62.5 21
      vertex 105 62.5 0
      vertex 105 62.5 21
    endloop
  endfacet
  facet normal 1 0 0
    outer loop
      vertex 105 62.5 0
      vertex 105 -62.5 21
      vertex 105 -62.5 0
    endloop
  endfacet
  facet normal -0.587698 -0.80908 0
    outer loop
      vertex -103.187 -66.3526 0
      vertex -102.679 -66.7216 21
      vertex -103.187 -66.3526 21
    endloop
  endfacet
  facet normal -0.587698 -0.80908 -0
    outer loop
      vertex -102.679 -66.7216 21
      vertex -103.187 -66.3526 0
      vertex -102.679 -66.7216 0
    endloop
  endfacet
  facet normal -0.481919 -0.876216 0
    outer loop
      vertex -102.679 -66.7216 0
      vertex -102.129 -67.0241 21
      vertex -102.679 -66.7216 21
    endloop
  endfacet
  facet normal -0.481919 -0.876216 -0
    outer loop
      vertex -102.129 -67.0241 21
      vertex -102.679 -66.7216 0
      vertex -102.129 -67.0241 0
    endloop
  endfacet
  facet normal -0.368094 0.929788 0
    outer loop
      vertex -101.545 67.2553 0
      vertex -102.129 67.0241 21
      vertex -101.545 67.2553 21
    endloop
  endfacet
  facet normal -0.368094 0.929788 0
    outer loop
      vertex -102.129 67.0241 21
      vertex -101.545 67.2553 0
      vertex -102.129 67.0241 0
    endloop
  endfacet
  facet normal 0.951061 0.309003 0
    outer loop
      vertex 104.843 63.7435 21
      vertex 104.649 64.3406 0
      vertex 104.649 64.3406 21
    endloop
  endfacet
  facet normal 0.951061 0.309003 0
    outer loop
      vertex 104.649 64.3406 0
      vertex 104.843 63.7435 21
      vertex 104.843 63.7435 0
    endloop
  endfacet
  facet normal -0.684386 0.72912 0
    outer loop
      vertex -103.187 66.3526 0
      vertex -103.645 65.9227 21
      vertex -103.187 66.3526 21
    endloop
  endfacet
  facet normal -0.684386 0.72912 0
    outer loop
      vertex -103.645 65.9227 21
      vertex -103.187 66.3526 0
      vertex -103.645 65.9227 0
    endloop
  endfacet
  facet normal -0.998069 -0.0621106 0
    outer loop
      vertex -104.961 -63.1267 0
      vertex -105 -62.5 21
      vertex -105 -62.5 0
    endloop
  endfacet
  facet normal -0.998069 -0.0621106 0
    outer loop
      vertex -105 -62.5 21
      vertex -104.961 -63.1267 0
      vertex -104.961 -63.1267 21
    endloop
  endfacet
  facet normal -1 0 0
    outer loop
      vertex -105 -62.5 0
      vertex -105 62.5 21
      vertex -105 62.5 0
    endloop
  endfacet
  facet normal -1 -0 0
    outer loop
      vertex -105 62.5 21
      vertex -105 -62.5 0
      vertex -105 -62.5 21
    endloop
  endfacet
  facet normal -0.998069 0.0621106 0
    outer loop
      vertex -105 62.5 0
      vertex -104.961 63.1267 21
      vertex -104.961 63.1267 0
    endloop
  endfacet
  facet normal -0.998069 0.0621106 0
    outer loop
      vertex -104.961 63.1267 21
      vertex -105 62.5 0
      vertex -105 62.5 21
    endloop
  endfacet
  facet normal -0.951061 0.309003 0
    outer loop
      vertex -104.843 63.7435 0
      vertex -104.649 64.3406 21
      vertex -104.649 64.3406 0
    endloop
  endfacet
  facet normal -0.951061 0.309003 0
    outer loop
      vertex -104.649 64.3406 21
      vertex -104.843 63.7435 0
      vertex -104.843 63.7435 21
    endloop
  endfacet
  facet normal 0.770696 0.637202 0
    outer loop
      vertex 104.045 65.4389 21
      vertex 103.645 65.9227 0
      vertex 103.645 65.9227 21
    endloop
  endfacet
  facet normal 0.770696 0.637202 0
    outer loop
      vertex 103.645 65.9227 0
      vertex 104.045 65.4389 21
      vertex 104.045 65.4389 0
    endloop
  endfacet
  facet normal 0.982188 0.187902 0
    outer loop
      vertex 104.961 63.1267 21
      vertex 104.843 63.7435 0
      vertex 104.843 63.7435 21
    endloop
  endfacet
  facet normal 0.982188 0.187902 0
    outer loop
      vertex 104.843 63.7435 0
      vertex 104.961 63.1267 21
      vertex 104.961 63.1267 0
    endloop
  endfacet
  facet normal -0.248678 0.968586 0
    outer loop
      vertex -100.937 67.4114 0
      vertex -101.545 67.2553 21
      vertex -100.937 67.4114 21
    endloop
  endfacet
  facet normal -0.248678 0.968586 0
    outer loop
      vertex -101.545 67.2553 21
      vertex -100.937 67.4114 0
      vertex -101.545 67.2553 0
    endloop
  endfacet
  facet normal 0.770696 -0.637202 0
    outer loop
      vertex 103.645 -65.9227 21
      vertex 104.045 -65.4389 0
      vertex 104.045 -65.4389 21
    endloop
  endfacet
  facet normal 0.770696 -0.637202 0
    outer loop
      vertex 104.045 -65.4389 0
      vertex 103.645 -65.9227 21
      vertex 103.645 -65.9227 0
    endloop
  endfacet
  facet normal 0.951061 -0.309003 0
    outer loop
      vertex 104.649 -64.3406 21
      vertex 104.843 -63.7435 0
      vertex 104.843 -63.7435 21
    endloop
  endfacet
  facet normal 0.951061 -0.309003 0
    outer loop
      vertex 104.843 -63.7435 0
      vertex 104.649 -64.3406 21
      vertex 104.649 -64.3406 0
    endloop
  endfacet
  facet normal -0.125328 -0.992115 0
    outer loop
      vertex -100.937 -67.4114 0
      vertex -100.314 -67.4901 21
      vertex -100.937 -67.4114 21
    endloop
  endfacet
  facet normal -0.125328 -0.992115 -0
    outer loop
      vertex -100.314 -67.4901 21
      vertex -100.937 -67.4114 0
      vertex -100.314 -67.4901 0
    endloop
  endfacet
  facet normal 0.248678 0.968586 -0
    outer loop
      vertex 101.545 67.2553 0
      vertex 100.937 67.4114 21
      vertex 101.545 67.2553 21
    endloop
  endfacet
  facet normal 0.248678 0.968586 0
    outer loop
      vertex 100.937 67.4114 21
      vertex 101.545 67.2553 0
      vertex 100.937 67.4114 0
    endloop
  endfacet
  facet normal 0.368094 0.929788 -0
    outer loop
      vertex 102.129 67.0241 0
      vertex 101.545 67.2553 21
      vertex 102.129 67.0241 21
    endloop
  endfacet
  facet normal 0.368094 0.929788 0
    outer loop
      vertex 101.545 67.2553 21
      vertex 102.129 67.0241 0
      vertex 101.545 67.2553 0
    endloop
  endfacet
  facet normal 0.843904 0.536494 0
    outer loop
      vertex 104.382 64.9088 21
      vertex 104.045 65.4389 0
      vertex 104.045 65.4389 21
    endloop
  endfacet
  facet normal 0.843904 0.536494 0
    outer loop
      vertex 104.045 65.4389 0
      vertex 104.382 64.9088 21
      vertex 104.382 64.9088 0
    endloop
  endfacet
  facet normal 0.905057 0.425291 0
    outer loop
      vertex 104.649 64.3406 21
      vertex 104.382 64.9088 0
      vertex 104.382 64.9088 21
    endloop
  endfacet
  facet normal 0.905057 0.425291 0
    outer loop
      vertex 104.382 64.9088 0
      vertex 104.649 64.3406 21
      vertex 104.649 64.3406 0
    endloop
  endfacet
  facet normal 0.982188 -0.187902 0
    outer loop
      vertex 104.843 -63.7435 21
      vertex 104.961 -63.1267 0
      vertex 104.961 -63.1267 21
    endloop
  endfacet
  facet normal 0.982188 -0.187902 0
    outer loop
      vertex 104.961 -63.1267 0
      vertex 104.843 -63.7435 21
      vertex 104.843 -63.7435 0
    endloop
  endfacet
  facet normal 0.481919 -0.876216 0
    outer loop
      vertex 102.129 -67.0241 0
      vertex 102.679 -66.7216 21
      vertex 102.129 -67.0241 21
    endloop
  endfacet
  facet normal 0.481919 -0.876216 0
    outer loop
      vertex 102.679 -66.7216 21
      vertex 102.129 -67.0241 0
      vertex 102.679 -66.7216 0
    endloop
  endfacet
  facet normal 0.684386 -0.72912 0
    outer loop
      vertex 103.187 -66.3526 0
      vertex 103.645 -65.9227 21
      vertex 103.187 -66.3526 21
    endloop
  endfacet
  facet normal 0.684386 -0.72912 0
    outer loop
      vertex 103.645 -65.9227 21
      vertex 103.187 -66.3526 0
      vertex 103.645 -65.9227 0
    endloop
  endfacet
  facet normal -0.684386 -0.72912 0
    outer loop
      vertex -103.645 -65.9227 0
      vertex -103.187 -66.3526 21
      vertex -103.645 -65.9227 21
    endloop
  endfacet
  facet normal -0.684386 -0.72912 -0
    outer loop
      vertex -103.187 -66.3526 21
      vertex -103.645 -65.9227 0
      vertex -103.187 -66.3526 0
    endloop
  endfacet
  facet normal -0.368094 -0.929788 0
    outer loop
      vertex -102.129 -67.0241 0
      vertex -101.545 -67.2553 21
      vertex -102.129 -67.0241 21
    endloop
  endfacet
  facet normal -0.368094 -0.929788 -0
    outer loop
      vertex -101.545 -67.2553 21
      vertex -102.129 -67.0241 0
      vertex -101.545 -67.2553 0
    endloop
  endfacet
  facet normal -0.248678 -0.968586 0
    outer loop
      vertex -101.545 -67.2553 0
      vertex -100.937 -67.4114 21
      vertex -101.545 -67.2553 21
    endloop
  endfacet
  facet normal -0.248678 -0.968586 -0
    outer loop
      vertex -100.937 -67.4114 21
      vertex -101.545 -67.2553 0
      vertex -100.937 -67.4114 0
    endloop
  endfacet
  facet normal -0.770696 -0.637202 0
    outer loop
      vertex -103.645 -65.9227 0
      vertex -104.045 -65.4389 21
      vertex -104.045 -65.4389 0
    endloop
  endfacet
  facet normal -0.770696 -0.637202 0
    outer loop
      vertex -104.045 -65.4389 21
      vertex -103.645 -65.9227 0
      vertex -103.645 -65.9227 21
    endloop
  endfacet
  facet normal -0.951061 -0.309003 0
    outer loop
      vertex -104.649 -64.3406 0
      vertex -104.843 -63.7435 21
      vertex -104.843 -63.7435 0
    endloop
  endfacet
  facet normal -0.951061 -0.309003 0
    outer loop
      vertex -104.843 -63.7435 21
      vertex -104.649 -64.3406 0
      vertex -104.649 -64.3406 21
    endloop
  endfacet
  facet normal 0 0 -1
    outer loop
      vertex 100.314 -67.4901 0
      vertex 105 -62.5 0
      vertex 104.961 -63.1267 0
    endloop
  endfacet
  facet normal -0 0 -1
    outer loop
      vertex 105 -62.5 0
      vertex 100.314 -67.4901 0
      vertex 105 62.5 0
    endloop
  endfacet
  facet normal 0 0 -1
    outer loop
      vertex 100.314 -67.4901 0
      vertex 104.961 -63.1267 0
      vertex 104.843 -63.7435 0
    endloop
  endfacet
  facet normal 0 0 -1
    outer loop
      vertex 100.314 67.4901 0
      vertex 105 62.5 0
      vertex 100.314 -67.4901 0
    endloop
  endfacet
  facet normal 0 0 -1
    outer loop
      vertex 100.314 -67.4901 0
      vertex 104.843 -63.7435 0
      vertex 104.649 -64.3406 0
    endloop
  endfacet
  facet normal 0 0 -1
    outer loop
      vertex 105 62.5 0
      vertex 100.314 67.4901 0
      vertex 104.961 63.1267 0
    endloop
  endfacet
  facet normal 0 0 -1
    outer loop
      vertex 100.314 -67.4901 0
      vertex 104.649 -64.3406 0
      vertex 104.382 -64.9088 0
    endloop
  endfacet
  facet normal 0 0 -1
    outer loop
      vertex 104.961 63.1267 0
      vertex 100.314 67.4901 0
      vertex 104.843 63.7435 0
    endloop
  endfacet
  facet normal 0 0 -1
    outer loop
      vertex 100.314 -67.4901 0
      vertex 104.382 -64.9088 0
      vertex 104.045 -65.4389 0
    endloop
  endfacet
  facet normal 0 0 -1
    outer loop
      vertex 104.843 63.7435 0
      vertex 100.314 67.4901 0
      vertex 104.649 64.3406 0
    endloop
  endfacet
  facet normal 0 0 -1
    outer loop
      vertex 100.314 -67.4901 0
      vertex 104.045 -65.4389 0
      vertex 103.645 -65.9227 0
    endloop
  endfacet
  facet normal 0 0 -1
    outer loop
      vertex 104.649 64.3406 0
      vertex 100.314 67.4901 0
      vertex 104.382 64.9088 0
    endloop
  endfacet
  facet normal 0 0 -1
    outer loop
      vertex 100.314 -67.4901 0
      vertex 103.645 -65.9227 0
      vertex 103.187 -66.3526 0
    endloop
  endfacet
  facet normal 0 0 -1
    outer loop
      vertex 104.382 64.9088 0
      vertex 100.314 67.4901 0
      vertex 104.045 65.4389 0
    endloop
  endfacet
  facet normal 0 0 -1
    outer loop
      vertex 100.314 -67.4901 0
      vertex 103.187 -66.3526 0
      vertex 102.679 -66.7216 0
    endloop
  endfacet
  facet normal 0 0 -1
    outer loop
      vertex 104.045 65.4389 0
      vertex 100.314 67.4901 0
      vertex 103.645 65.9227 0
    endloop
  endfacet
  facet normal 0 0 -1
    outer loop
      vertex 100.314 -67.4901 0
      vertex 102.679 -66.7216 0
      vertex 102.129 -67.0241 0
    endloop
  endfacet
  facet normal 0 0 -1
    outer loop
      vertex 103.645 65.9227 0
      vertex 100.314 67.4901 0
      vertex 103.187 66.3526 0
    endloop
  endfacet
  facet normal 0 0 -1
    outer loop
      vertex 100.314 -67.4901 0
      vertex 102.129 -67.0241 0
      vertex 101.545 -67.2553 0
    endloop
  endfacet
  facet normal 0 0 -1
    outer loop
      vertex 103.187 66.3526 0
      vertex 100.314 67.4901 0
      vertex 102.679 66.7216 0
    endloop
  endfacet
  facet normal 0 0 -1
    outer loop
      vertex 100.314 -67.4901 0
      vertex 101.545 -67.2553 0
      vertex 100.937 -67.4114 0
    endloop
  endfacet
  facet normal 0 0 -1
    outer loop
      vertex 102.679 66.7216 0
      vertex 100.314 67.4901 0
      vertex 102.129 67.0241 0
    endloop
  endfacet
  facet normal 0 0 -1
    outer loop
      vertex 102.129 67.0241 0
      vertex 100.314 67.4901 0
      vertex 101.545 67.2553 0
    endloop
  endfacet
  facet normal 0 0 -1
    outer loop
      vertex 101.545 67.2553 0
      vertex 100.314 67.4901 0
      vertex 100.937 67.4114 0
    endloop
  endfacet
  facet normal 0 0 -1
    outer loop
      vertex -100.314 -67.4901 0
      vertex 100.314 67.4901 0
      vertex 100.314 -67.4901 0
    endloop
  endfacet
  facet normal 0 0 -1
    outer loop
      vertex -100.314 -67.4901 0
      vertex -100.314 67.4901 0
      vertex 100.314 67.4901 0
    endloop
  endfacet
  facet normal 0 0 -1
    outer loop
      vertex -105 -62.5 0
      vertex -100.314 -67.4901 0
      vertex -100.937 -67.4114 0
    endloop
  endfacet
  facet normal 0 0 -1
    outer loop
      vertex -100.314 -67.4901 0
      vertex -105 -62.5 0
      vertex -100.314 67.4901 0
    endloop
  endfacet
  facet normal 0 0 -1
    outer loop
      vertex -105 -62.5 0
      vertex -100.937 -67.4114 0
      vertex -101.545 -67.2553 0
    endloop
  endfacet
  facet normal 0 0 -1
    outer loop
      vertex -105 62.5 0
      vertex -100.314 67.4901 0
      vertex -105 -62.5 0
    endloop
  endfacet
  facet normal 0 0 -1
    outer loop
      vertex -105 -62.5 0
      vertex -101.545 -67.2553 0
      vertex -102.129 -67.0241 0
    endloop
  endfacet
  facet normal 0 0 -1
    outer loop
      vertex -100.314 67.4901 0
      vertex -105 62.5 0
      vertex -100.937 67.4114 0
    endloop
  endfacet
  facet normal 0 0 -1
    outer loop
      vertex -105 -62.5 0
      vertex -102.129 -67.0241 0
      vertex -102.679 -66.7216 0
    endloop
  endfacet
  facet normal 0 0 -1
    outer loop
      vertex -100.937 67.4114 0
      vertex -105 62.5 0
      vertex -101.545 67.2553 0
    endloop
  endfacet
  facet normal 0 0 -1
    outer loop
      vertex -105 -62.5 0
      vertex -102.679 -66.7216 0
      vertex -103.187 -66.3526 0
    endloop
  endfacet
  facet normal 0 0 -1
    outer loop
      vertex -101.545 67.2553 0
      vertex -105 62.5 0
      vertex -102.129 67.0241 0
    endloop
  endfacet
  facet normal 0 0 -1
    outer loop
      vertex -105 -62.5 0
      vertex -103.187 -66.3526 0
      vertex -103.645 -65.9227 0
    endloop
  endfacet
  facet normal 0 0 -1
    outer loop
      vertex -102.129 67.0241 0
      vertex -105 62.5 0
      vertex -102.679 66.7216 0
    endloop
  endfacet
  facet normal 0 0 -1
    outer loop
      vertex -105 -62.5 0
      vertex -103.645 -65.9227 0
      vertex -104.045 -65.4389 0
    endloop
  endfacet
  facet normal 0 0 -1
    outer loop
      vertex -102.679 66.7216 0
      vertex -105 62.5 0
      vertex -103.187 66.3526 0
    endloop
  endfacet
  facet normal 0 0 -1
    outer loop
      vertex -105 -62.5 0
      vertex -104.045 -65.4389 0
      vertex -104.382 -64.9088 0
    endloop
  endfacet
  facet normal 0 0 -1
    outer loop
      vertex -103.187 66.3526 0
      vertex -105 62.5 0
      vertex -103.645 65.9227 0
    endloop
  endfacet
  facet normal 0 0 -1
    outer loop
      vertex -105 -62.5 0
      vertex -104.382 -64.9088 0
      vertex -104.649 -64.3406 0
    endloop
  endfacet
  facet normal 0 0 -1
    outer loop
      vertex -103.645 65.9227 0
      vertex -105 62.5 0
      vertex -104.045 65.4389 0
    endloop
  endfacet
  facet normal 0 0 -1
    outer loop
      vertex -105 -62.5 0
      vertex -104.649 -64.3406 0
      vertex -104.843 -63.7435 0
    endloop
  endfacet
  facet normal 0 0 -1
    outer loop
      vertex -104.045 65.4389 0
      vertex -105 62.5 0
      vertex -104.382 64.9088 0
    endloop
  endfacet
  facet normal 0 0 -1
    outer loop
      vertex -105 -62.5 0
      vertex -104.843 -63.7435 0
      vertex -104.961 -63.1267 0
    endloop
  endfacet
  facet normal 0 0 -1
    outer loop
      vertex -104.382 64.9088 0
      vertex -105 62.5 0
      vertex -104.649 64.3406 0
    endloop
  endfacet
  facet normal 0 0 -1
    outer loop
      vertex -104.649 64.3406 0
      vertex -105 62.5 0
      vertex -104.843 63.7435 0
    endloop
  endfacet
  facet normal 0 0 -1
    outer loop
      vertex -104.843 63.7435 0
      vertex -105 62.5 0
      vertex -104.961 63.1267 0
    endloop
  endfacet
  facet normal -0.905057 0.425291 0
    outer loop
      vertex -104.649 64.3406 0
      vertex -104.382 64.9088 21
      vertex -104.382 64.9088 0
    endloop
  endfacet
  facet normal -0.905057 0.425291 0
    outer loop
      vertex -104.382 64.9088 21
      vertex -104.649 64.3406 0
      vertex -104.649 64.3406 21
    endloop
  endfacet
  facet normal -0.770696 0.637202 0
    outer loop
      vertex -104.045 65.4389 0
      vertex -103.645 65.9227 21
      vertex -103.645 65.9227 0
    endloop
  endfacet
  facet normal -0.770696 0.637202 0
    outer loop
      vertex -103.645 65.9227 21
      vertex -104.045 65.4389 0
      vertex -104.045 65.4389 21
    endloop
  endfacet
  facet normal 0.481919 0.876216 -0
    outer loop
      vertex 102.679 66.7216 0
      vertex 102.129 67.0241 21
      vertex 102.679 66.7216 21
    endloop
  endfacet
  facet normal 0.481919 0.876216 0
    outer loop
      vertex 102.129 67.0241 21
      vertex 102.679 66.7216 0
      vertex 102.129 67.0241 0
    endloop
  endfacet
  facet normal 0.587698 0.80908 -0
    outer loop
      vertex 103.187 66.3526 0
      vertex 102.679 66.7216 21
      vertex 103.187 66.3526 21
    endloop
  endfacet
  facet normal 0.587698 0.80908 0
    outer loop
      vertex 102.679 66.7216 21
      vertex 103.187 66.3526 0
      vertex 102.679 66.7216 0
    endloop
  endfacet
  facet normal 0.905057 -0.425291 0
    outer loop
      vertex 104.382 -64.9088 21
      vertex 104.649 -64.3406 0
      vertex 104.649 -64.3406 21
    endloop
  endfacet
  facet normal 0.905057 -0.425291 0
    outer loop
      vertex 104.649 -64.3406 0
      vertex 104.382 -64.9088 21
      vertex 104.382 -64.9088 0
    endloop
  endfacet
  facet normal 0.843904 -0.536494 0
    outer loop
      vertex 104.045 -65.4389 21
      vertex 104.382 -64.9088 0
      vertex 104.382 -64.9088 21
    endloop
  endfacet
  facet normal 0.843904 -0.536494 0
    outer loop
      vertex 104.382 -64.9088 0
      vertex 104.045 -65.4389 21
      vertex 104.045 -65.4389 0
    endloop
  endfacet
  facet normal 0.998069 -0.0621106 0
    outer loop
      vertex 104.961 -63.1267 21
      vertex 105 -62.5 0
      vertex 105 -62.5 21
    endloop
  endfacet
  facet normal 0.998069 -0.0621106 0
    outer loop
      vertex 105 -62.5 0
      vertex 104.961 -63.1267 21
      vertex 104.961 -63.1267 0
    endloop
  endfacet
  facet normal 0.368094 -0.929788 0
    outer loop
      vertex 101.545 -67.2553 0
      vertex 102.129 -67.0241 21
      vertex 101.545 -67.2553 21
    endloop
  endfacet
  facet normal 0.368094 -0.929788 0
    outer loop
      vertex 102.129 -67.0241 21
      vertex 101.545 -67.2553 0
      vertex 102.129 -67.0241 0
    endloop
  endfacet
  facet normal -0.905057 -0.425291 0
    outer loop
      vertex -104.382 -64.9088 0
      vertex -104.649 -64.3406 21
      vertex -104.649 -64.3406 0
    endloop
  endfacet
  facet normal -0.905057 -0.425291 0
    outer loop
      vertex -104.649 -64.3406 21
      vertex -104.382 -64.9088 0
      vertex -104.382 -64.9088 21
    endloop
  endfacet
  facet normal -0.982188 -0.187902 0
    outer loop
      vertex -104.843 -63.7435 0
      vertex -104.961 -63.1267 21
      vertex -104.961 -63.1267 0
    endloop
  endfacet
  facet normal -0.982188 -0.187902 0
    outer loop
      vertex -104.961 -63.1267 21
      vertex -104.843 -63.7435 0
      vertex -104.843 -63.7435 21
    endloop
  endfacet
  facet normal -0.481919 0.876216 0
    outer loop
      vertex -102.129 67.0241 0
      vertex -102.679 66.7216 21
      vertex -102.129 67.0241 21
    endloop
  endfacet
  facet normal -0.481919 0.876216 0
    outer loop
      vertex -102.679 66.7216 21
      vertex -102.129 67.0241 0
      vertex -102.679 66.7216 0
    endloop
  endfacet
  facet normal -0.587698 0.80908 0
    outer loop
      vertex -102.679 66.7216 0
      vertex -103.187 66.3526 21
      vertex -102.679 66.7216 21
    endloop
  endfacet
  facet normal -0.587698 0.80908 0
    outer loop
      vertex -103.187 66.3526 21
      vertex -102.679 66.7216 0
      vertex -103.187 66.3526 0
    endloop
  endfacet
  facet normal 0.587698 -0.80908 0
    outer loop
      vertex 102.679 -66.7216 0
      vertex 103.187 -66.3526 21
      vertex 102.679 -66.7216 21
    endloop
  endfacet
  facet normal 0.587698 -0.80908 0
    outer loop
      vertex 103.187 -66.3526 21
      vertex 102.679 -66.7216 0
      vertex 103.187 -66.3526 0
    endloop
  endfacet
  facet normal 0.248678 -0.968586 0
    outer loop
      vertex 100.937 -67.4114 0
      vertex 101.545 -67.2553 21
      vertex 100.937 -67.4114 21
    endloop
  endfacet
  facet normal 0.248678 -0.968586 0
    outer loop
      vertex 101.545 -67.2553 21
      vertex 100.937 -67.4114 0
      vertex 101.545 -67.2553 0
    endloop
  endfacet
  facet normal 0.125328 -0.992115 0
    outer loop
      vertex 100.314 -67.4901 0
      vertex 100.937 -67.4114 21
      vertex 100.314 -67.4901 21
    endloop
  endfacet
  facet normal 0.125328 -0.992115 0
    outer loop
      vertex 100.937 -67.4114 21
      vertex 100.314 -67.4901 0
      vertex 100.937 -67.4114 0
    endloop
  endfacet
  facet normal -0.843904 -0.536494 0
    outer loop
      vertex -104.045 -65.4389 0
      vertex -104.382 -64.9088 21
      vertex -104.382 -64.9088 0
    endloop
  endfacet
  facet normal -0.843904 -0.536494 0
    outer loop
      vertex -104.382 -64.9088 21
      vertex -104.045 -65.4389 0
      vertex -104.045 -65.4389 21
    endloop
  endfacet
  facet normal -0.843904 0.536494 0
    outer loop
      vertex -104.382 64.9088 0
      vertex -104.045 65.4389 21
      vertex -104.045 65.4389 0
    endloop
  endfacet
  facet normal -0.843904 0.536494 0
    outer loop
      vertex -104.045 65.4389 21
      vertex -104.382 64.9088 0
      vertex -104.382 64.9088 21
    endloop
  endfacet
  facet normal -0.982188 0.187902 0
    outer loop
      vertex -104.961 63.1267 0
      vertex -104.843 63.7435 21
      vertex -104.843 63.7435 0
    endloop
  endfacet
  facet normal -0.982188 0.187902 0
    outer loop
      vertex -104.843 63.7435 21
      vertex -104.961 63.1267 0
      vertex -104.961 63.1267 21
    endloop
  endfacet
  facet normal -0.125258 -0.992124 0
    outer loop
      vertex 100.251 66.4921 2
      vertex 100.75 66.4291 21
      vertex 100.251 66.4921 21
    endloop
  endfacet
  facet normal -0.125258 -0.992124 -0
    outer loop
      vertex 100.75 66.4291 21
      vertex 100.251 66.4921 2
      vertex 100.75 66.4291 2
    endloop
  endfacet
  facet normal 0 -1 0
    outer loop
      vertex -100.251 66.4921 2
      vertex 100.251 66.4921 21
      vertex -100.251 66.4921 21
    endloop
  endfacet
  facet normal 0 -1 -0
    outer loop
      vertex 100.251 66.4921 21
      vertex -100.251 66.4921 2
      vertex 100.251 66.4921 2
    endloop
  endfacet
  facet normal -0.684762 -0.728767 0
    outer loop
      vertex 102.55 65.5821 2
      vertex 102.916 65.2382 21
      vertex 102.55 65.5821 21
    endloop
  endfacet
  facet normal -0.684762 -0.728767 -0
    outer loop
      vertex 102.916 65.2382 21
      vertex 102.55 65.5821 2
      vertex 102.916 65.2382 2
    endloop
  endfacet
  facet normal 0.125258 -0.992124 0
    outer loop
      vertex -100.75 66.4291 2
      vertex -100.251 66.4921 21
      vertex -100.75 66.4291 21
    endloop
  endfacet
  facet normal 0.125258 -0.992124 0
    outer loop
      vertex -100.251 66.4921 21
      vertex -100.75 66.4291 2
      vertex -100.251 66.4921 2
    endloop
  endfacet
  facet normal -0.770745 -0.637144 0
    outer loop
      vertex 103.236 64.8511 2
      vertex 102.916 65.2382 21
      vertex 102.916 65.2382 2
    endloop
  endfacet
  facet normal -0.770745 -0.637144 0
    outer loop
      vertex 102.916 65.2382 21
      vertex 103.236 64.8511 2
      vertex 103.236 64.8511 21
    endloop
  endfacet
  facet normal 0 1 -0
    outer loop
      vertex 100.251 -66.4921 2
      vertex -100.251 -66.4921 21
      vertex 100.251 -66.4921 21
    endloop
  endfacet
  facet normal 0 1 0
    outer loop
      vertex -100.251 -66.4921 21
      vertex 100.251 -66.4921 2
      vertex -100.251 -66.4921 2
    endloop
  endfacet
  facet normal 0.770745 -0.637144 0
    outer loop
      vertex -103.236 64.8511 21
      vertex -102.916 65.2382 2
      vertex -102.916 65.2382 21
    endloop
  endfacet
  facet normal 0.770745 -0.637144 0
    outer loop
      vertex -102.916 65.2382 2
      vertex -103.236 64.8511 21
      vertex -103.236 64.8511 2
    endloop
  endfacet
  facet normal -1 0 0
    outer loop
      vertex 104 -62.5 2
      vertex 104 62.5 21
      vertex 104 62.5 2
    endloop
  endfacet
  facet normal -1 -0 0
    outer loop
      vertex 104 62.5 21
      vertex 104 -62.5 2
      vertex 104 -62.5 21
    endloop
  endfacet
  facet normal 0.368127 -0.929775 0
    outer loop
      vertex -101.703 66.1193 2
      vertex -101.236 66.3042 21
      vertex -101.703 66.1193 21
    endloop
  endfacet
  facet normal 0.368127 -0.929775 0
    outer loop
      vertex -101.236 66.3042 21
      vertex -101.703 66.1193 2
      vertex -101.236 66.3042 2
    endloop
  endfacet
  facet normal 0.481919 -0.876216 0
    outer loop
      vertex -102.143 65.8773 2
      vertex -101.703 66.1193 21
      vertex -102.143 65.8773 21
    endloop
  endfacet
  facet normal 0.481919 -0.876216 0
    outer loop
      vertex -101.703 66.1193 21
      vertex -102.143 65.8773 2
      vertex -101.703 66.1193 2
    endloop
  endfacet
  facet normal 0.684762 -0.728767 0
    outer loop
      vertex -102.916 65.2382 2
      vertex -102.55 65.5821 21
      vertex -102.916 65.2382 21
    endloop
  endfacet
  facet normal 0.684762 -0.728767 0
    outer loop
      vertex -102.55 65.5821 21
      vertex -102.916 65.2382 2
      vertex -102.55 65.5821 2
    endloop
  endfacet
  facet normal -0.368127 -0.929775 0
    outer loop
      vertex 101.236 66.3042 2
      vertex 101.703 66.1193 21
      vertex 101.236 66.3042 21
    endloop
  endfacet
  facet normal -0.368127 -0.929775 -0
    outer loop
      vertex 101.703 66.1193 21
      vertex 101.236 66.3042 2
      vertex 101.703 66.1193 2
    endloop
  endfacet
  facet normal 0.248908 0.968527 -0
    outer loop
      vertex -100.75 -66.4291 2
      vertex -101.236 -66.3042 21
      vertex -100.75 -66.4291 21
    endloop
  endfacet
  facet normal 0.248908 0.968527 0
    outer loop
      vertex -101.236 -66.3042 21
      vertex -100.75 -66.4291 2
      vertex -101.236 -66.3042 2
    endloop
  endfacet
  facet normal 0.770745 0.637144 0
    outer loop
      vertex -102.916 -65.2382 21
      vertex -103.236 -64.8511 2
      vertex -103.236 -64.8511 21
    endloop
  endfacet
  facet normal 0.770745 0.637144 0
    outer loop
      vertex -103.236 -64.8511 2
      vertex -102.916 -65.2382 21
      vertex -102.916 -65.2382 2
    endloop
  endfacet
  facet normal 1 -0 0
    outer loop
      vertex -104 -62.5 21
      vertex -104 62.5 2
      vertex -104 62.5 21
    endloop
  endfacet
  facet normal 1 0 0
    outer loop
      vertex -104 62.5 2
      vertex -104 -62.5 21
      vertex -104 -62.5 2
    endloop
  endfacet
  facet normal 0.997969 -0.0637044 0
    outer loop
      vertex -104 62.5 21
      vertex -103.968 63.0013 2
      vertex -103.968 63.0013 21
    endloop
  endfacet
  facet normal 0.997969 -0.0637044 0
    outer loop
      vertex -103.968 63.0013 2
      vertex -104 62.5 21
      vertex -104 62.5 2
    endloop
  endfacet
  facet normal -0.248908 -0.968527 0
    outer loop
      vertex 100.75 66.4291 2
      vertex 101.236 66.3042 21
      vertex 100.75 66.4291 21
    endloop
  endfacet
  facet normal -0.248908 -0.968527 -0
    outer loop
      vertex 101.236 66.3042 21
      vertex 100.75 66.4291 2
      vertex 101.236 66.3042 2
    endloop
  endfacet
  facet normal -0.481919 -0.876216 0
    outer loop
      vertex 101.703 66.1193 2
      vertex 102.143 65.8773 21
      vertex 101.703 66.1193 21
    endloop
  endfacet
  facet normal -0.481919 -0.876216 -0
    outer loop
      vertex 102.143 65.8773 21
      vertex 101.703 66.1193 2
      vertex 102.143 65.8773 2
    endloop
  endfacet
  facet normal -0.844456 -0.535625 0
    outer loop
      vertex 103.505 64.427 2
      vertex 103.236 64.8511 21
      vertex 103.236 64.8511 2
    endloop
  endfacet
  facet normal -0.844456 -0.535625 0
    outer loop
      vertex 103.236 64.8511 21
      vertex 103.505 64.427 2
      vertex 103.505 64.427 21
    endloop
  endfacet
  facet normal -0.982339 -0.187112 0
    outer loop
      vertex 103.968 63.0013 2
      vertex 103.874 63.4948 21
      vertex 103.874 63.4948 2
    endloop
  endfacet
  facet normal -0.982339 -0.187112 0
    outer loop
      vertex 103.874 63.4948 21
      vertex 103.968 63.0013 2
      vertex 103.968 63.0013 21
    endloop
  endfacet
  facet normal -0.951182 -0.308631 0
    outer loop
      vertex 103.874 63.4948 2
      vertex 103.719 63.9725 21
      vertex 103.719 63.9725 2
    endloop
  endfacet
  facet normal -0.951182 -0.308631 0
    outer loop
      vertex 103.719 63.9725 21
      vertex 103.874 63.4948 2
      vertex 103.874 63.4948 21
    endloop
  endfacet
  facet normal -0.951182 0.308631 0
    outer loop
      vertex 103.719 -63.9725 2
      vertex 103.874 -63.4948 21
      vertex 103.874 -63.4948 2
    endloop
  endfacet
  facet normal -0.951182 0.308631 0
    outer loop
      vertex 103.874 -63.4948 21
      vertex 103.719 -63.9725 2
      vertex 103.719 -63.9725 21
    endloop
  endfacet
  facet normal -0.684762 0.728767 0
    outer loop
      vertex 102.916 -65.2382 2
      vertex 102.55 -65.5821 21
      vertex 102.916 -65.2382 21
    endloop
  endfacet
  facet normal -0.684762 0.728767 0
    outer loop
      vertex 102.55 -65.5821 21
      vertex 102.916 -65.2382 2
      vertex 102.55 -65.5821 2
    endloop
  endfacet
  facet normal 0.587131 -0.809492 0
    outer loop
      vertex -102.55 65.5821 2
      vertex -102.143 65.8773 21
      vertex -102.55 65.5821 21
    endloop
  endfacet
  facet normal 0.587131 -0.809492 0
    outer loop
      vertex -102.143 65.8773 21
      vertex -102.55 65.5821 2
      vertex -102.143 65.8773 2
    endloop
  endfacet
  facet normal -0.587131 -0.809492 0
    outer loop
      vertex 102.143 65.8773 2
      vertex 102.55 65.5821 21
      vertex 102.143 65.8773 21
    endloop
  endfacet
  facet normal -0.587131 -0.809492 -0
    outer loop
      vertex 102.55 65.5821 21
      vertex 102.143 65.8773 2
      vertex 102.55 65.5821 2
    endloop
  endfacet
  facet normal -0.904728 -0.425989 0
    outer loop
      vertex 103.719 63.9725 2
      vertex 103.505 64.427 21
      vertex 103.505 64.427 2
    endloop
  endfacet
  facet normal -0.904728 -0.425989 0
    outer loop
      vertex 103.505 64.427 21
      vertex 103.719 63.9725 2
      vertex 103.719 63.9725 21
    endloop
  endfacet
  facet normal -0.997969 -0.0637044 0
    outer loop
      vertex 104 62.5 2
      vertex 103.968 63.0013 21
      vertex 103.968 63.0013 2
    endloop
  endfacet
  facet normal -0.997969 -0.0637044 0
    outer loop
      vertex 103.968 63.0013 21
      vertex 104 62.5 2
      vertex 104 62.5 21
    endloop
  endfacet
  facet normal -0.982339 0.187112 0
    outer loop
      vertex 103.874 -63.4948 2
      vertex 103.968 -63.0013 21
      vertex 103.968 -63.0013 2
    endloop
  endfacet
  facet normal -0.982339 0.187112 0
    outer loop
      vertex 103.968 -63.0013 21
      vertex 103.874 -63.4948 2
      vertex 103.874 -63.4948 21
    endloop
  endfacet
  facet normal -0.770745 0.637144 0
    outer loop
      vertex 102.916 -65.2382 2
      vertex 103.236 -64.8511 21
      vertex 103.236 -64.8511 2
    endloop
  endfacet
  facet normal -0.770745 0.637144 0
    outer loop
      vertex 103.236 -64.8511 21
      vertex 102.916 -65.2382 2
      vertex 102.916 -65.2382 21
    endloop
  endfacet
  facet normal -0.481919 0.876216 0
    outer loop
      vertex 102.143 -65.8773 2
      vertex 101.703 -66.1193 21
      vertex 102.143 -65.8773 21
    endloop
  endfacet
  facet normal -0.481919 0.876216 0
    outer loop
      vertex 101.703 -66.1193 21
      vertex 102.143 -65.8773 2
      vertex 101.703 -66.1193 2
    endloop
  endfacet
  facet normal 0.481919 0.876216 -0
    outer loop
      vertex -101.703 -66.1193 2
      vertex -102.143 -65.8773 21
      vertex -101.703 -66.1193 21
    endloop
  endfacet
  facet normal 0.481919 0.876216 0
    outer loop
      vertex -102.143 -65.8773 21
      vertex -101.703 -66.1193 2
      vertex -102.143 -65.8773 2
    endloop
  endfacet
  facet normal 0.368127 0.929775 -0
    outer loop
      vertex -101.236 -66.3042 2
      vertex -101.703 -66.1193 21
      vertex -101.236 -66.3042 21
    endloop
  endfacet
  facet normal 0.368127 0.929775 0
    outer loop
      vertex -101.703 -66.1193 21
      vertex -101.236 -66.3042 2
      vertex -101.703 -66.1193 2
    endloop
  endfacet
  facet normal 0.125258 0.992124 -0
    outer loop
      vertex -100.251 -66.4921 2
      vertex -100.75 -66.4291 21
      vertex -100.251 -66.4921 21
    endloop
  endfacet
  facet normal 0.125258 0.992124 0
    outer loop
      vertex -100.75 -66.4291 21
      vertex -100.251 -66.4921 2
      vertex -100.75 -66.4291 2
    endloop
  endfacet
  facet normal 0.997969 0.0637044 0
    outer loop
      vertex -103.968 -63.0013 21
      vertex -104 -62.5 2
      vertex -104 -62.5 21
    endloop
  endfacet
  facet normal 0.997969 0.0637044 0
    outer loop
      vertex -104 -62.5 2
      vertex -103.968 -63.0013 21
      vertex -103.968 -63.0013 2
    endloop
  endfacet
  facet normal 0.248908 -0.968527 0
    outer loop
      vertex -101.236 66.3042 2
      vertex -100.75 66.4291 21
      vertex -101.236 66.3042 21
    endloop
  endfacet
  facet normal 0.248908 -0.968527 0
    outer loop
      vertex -100.75 66.4291 21
      vertex -101.236 66.3042 2
      vertex -100.75 66.4291 2
    endloop
  endfacet
  facet normal 0.844456 -0.535625 0
    outer loop
      vertex -103.505 64.427 21
      vertex -103.236 64.8511 2
      vertex -103.236 64.8511 21
    endloop
  endfacet
  facet normal 0.844456 -0.535625 0
    outer loop
      vertex -103.236 64.8511 2
      vertex -103.505 64.427 21
      vertex -103.505 64.427 2
    endloop
  endfacet
  facet normal 0.951182 -0.308631 0
    outer loop
      vertex -103.874 63.4948 21
      vertex -103.719 63.9725 2
      vertex -103.719 63.9725 21
    endloop
  endfacet
  facet normal 0.951182 -0.308631 0
    outer loop
      vertex -103.719 63.9725 2
      vertex -103.874 63.4948 21
      vertex -103.874 63.4948 2
    endloop
  endfacet
  facet normal -0.844456 0.535625 0
    outer loop
      vertex 103.236 -64.8511 2
      vertex 103.505 -64.427 21
      vertex 103.505 -64.427 2
    endloop
  endfacet
  facet normal -0.844456 0.535625 0
    outer loop
      vertex 103.505 -64.427 21
      vertex 103.236 -64.8511 2
      vertex 103.236 -64.8511 21
    endloop
  endfacet
  facet normal -0.904728 0.425989 0
    outer loop
      vertex 103.505 -64.427 2
      vertex 103.719 -63.9725 21
      vertex 103.719 -63.9725 2
    endloop
  endfacet
  facet normal -0.904728 0.425989 0
    outer loop
      vertex 103.719 -63.9725 21
      vertex 103.505 -64.427 2
      vertex 103.505 -64.427 21
    endloop
  endfacet
  facet normal -0.587131 0.809492 0
    outer loop
      vertex 102.55 -65.5821 2
      vertex 102.143 -65.8773 21
      vertex 102.55 -65.5821 21
    endloop
  endfacet
  facet normal -0.587131 0.809492 0
    outer loop
      vertex 102.143 -65.8773 21
      vertex 102.55 -65.5821 2
      vertex 102.143 -65.8773 2
    endloop
  endfacet
  facet normal -0.125258 0.992124 0
    outer loop
      vertex 100.75 -66.4291 2
      vertex 100.251 -66.4921 21
      vertex 100.75 -66.4291 21
    endloop
  endfacet
  facet normal -0.125258 0.992124 0
    outer loop
      vertex 100.251 -66.4921 21
      vertex 100.75 -66.4291 2
      vertex 100.251 -66.4921 2
    endloop
  endfacet
  facet normal -0.368127 0.929775 0
    outer loop
      vertex 101.703 -66.1193 2
      vertex 101.236 -66.3042 21
      vertex 101.703 -66.1193 21
    endloop
  endfacet
  facet normal -0.368127 0.929775 0
    outer loop
      vertex 101.236 -66.3042 21
      vertex 101.703 -66.1193 2
      vertex 101.236 -66.3042 2
    endloop
  endfacet
  facet normal 0.904728 0.425989 0
    outer loop
      vertex -103.505 -64.427 21
      vertex -103.719 -63.9725 2
      vertex -103.719 -63.9725 21
    endloop
  endfacet
  facet normal 0.904728 0.425989 0
    outer loop
      vertex -103.719 -63.9725 2
      vertex -103.505 -64.427 21
      vertex -103.505 -64.427 2
    endloop
  endfacet
  facet normal 0.844456 0.535625 0
    outer loop
      vertex -103.236 -64.8511 21
      vertex -103.505 -64.427 2
      vertex -103.505 -64.427 21
    endloop
  endfacet
  facet normal 0.844456 0.535625 0
    outer loop
      vertex -103.505 -64.427 2
      vertex -103.236 -64.8511 21
      vertex -103.236 -64.8511 2
    endloop
  endfacet
  facet normal 0.951182 0.308631 0
    outer loop
      vertex -103.719 -63.9725 21
      vertex -103.874 -63.4948 2
      vertex -103.874 -63.4948 21
    endloop
  endfacet
  facet normal 0.951182 0.308631 0
    outer loop
      vertex -103.874 -63.4948 2
      vertex -103.719 -63.9725 21
      vertex -103.719 -63.9725 2
    endloop
  endfacet
  facet normal 0.904728 -0.425989 0
    outer loop
      vertex -103.719 63.9725 21
      vertex -103.505 64.427 2
      vertex -103.505 64.427 21
    endloop
  endfacet
  facet normal 0.904728 -0.425989 0
    outer loop
      vertex -103.505 64.427 2
      vertex -103.719 63.9725 21
      vertex -103.719 63.9725 2
    endloop
  endfacet
  facet normal -0.997969 0.0637044 0
    outer loop
      vertex 103.968 -63.0013 2
      vertex 104 -62.5 21
      vertex 104 -62.5 2
    endloop
  endfacet
  facet normal -0.997969 0.0637044 0
    outer loop
      vertex 104 -62.5 21
      vertex 103.968 -63.0013 2
      vertex 103.968 -63.0013 21
    endloop
  endfacet
  facet normal -0.248908 0.968527 0
    outer loop
      vertex 101.236 -66.3042 2
      vertex 100.75 -66.4291 21
      vertex 101.236 -66.3042 21
    endloop
  endfacet
  facet normal -0.248908 0.968527 0
    outer loop
      vertex 100.75 -66.4291 21
      vertex 101.236 -66.3042 2
      vertex 100.75 -66.4291 2
    endloop
  endfacet
  facet normal 0.587131 0.809492 -0
    outer loop
      vertex -102.143 -65.8773 2
      vertex -102.55 -65.5821 21
      vertex -102.143 -65.8773 21
    endloop
  endfacet
  facet normal 0.587131 0.809492 0
    outer loop
      vertex -102.55 -65.5821 21
      vertex -102.143 -65.8773 2
      vertex -102.55 -65.5821 2
    endloop
  endfacet
  facet normal 0.684762 0.728767 -0
    outer loop
      vertex -102.55 -65.5821 2
      vertex -102.916 -65.2382 21
      vertex -102.55 -65.5821 21
    endloop
  endfacet
  facet normal 0.684762 0.728767 0
    outer loop
      vertex -102.916 -65.2382 21
      vertex -102.55 -65.5821 2
      vertex -102.916 -65.2382 2
    endloop
  endfacet
  facet normal 0 0 1
    outer loop
      vertex 100.251 66.4921 2
      vertex 104 62.5 2
      vertex 103.968 63.0013 2
    endloop
  endfacet
  facet normal 0 0 1
    outer loop
      vertex 104 62.5 2
      vertex 100.251 66.4921 2
      vertex 104 -62.5 2
    endloop
  endfacet
  facet normal 0 0 1
    outer loop
      vertex 100.251 66.4921 2
      vertex 103.968 63.0013 2
      vertex 103.874 63.4948 2
    endloop
  endfacet
  facet normal 0 0 1
    outer loop
      vertex 100.251 -66.4921 2
      vertex 104 -62.5 2
      vertex 100.251 66.4921 2
    endloop
  endfacet
  facet normal 0 0 1
    outer loop
      vertex 100.251 66.4921 2
      vertex 103.874 63.4948 2
      vertex 103.719 63.9725 2
    endloop
  endfacet
  facet normal 0 0 1
    outer loop
      vertex 104 -62.5 2
      vertex 100.251 -66.4921 2
      vertex 103.968 -63.0013 2
    endloop
  endfacet
  facet normal 0 0 1
    outer loop
      vertex 100.251 66.4921 2
      vertex 103.719 63.9725 2
      vertex 103.505 64.427 2
    endloop
  endfacet
  facet normal 0 0 1
    outer loop
      vertex 103.968 -63.0013 2
      vertex 100.251 -66.4921 2
      vertex 103.874 -63.4948 2
    endloop
  endfacet
  facet normal 0 0 1
    outer loop
      vertex 100.251 66.4921 2
      vertex 103.505 64.427 2
      vertex 103.236 64.8511 2
    endloop
  endfacet
  facet normal 0 0 1
    outer loop
      vertex 103.874 -63.4948 2
      vertex 100.251 -66.4921 2
      vertex 103.719 -63.9725 2
    endloop
  endfacet
  facet normal 0 0 1
    outer loop
      vertex 100.251 66.4921 2
      vertex 103.236 64.8511 2
      vertex 102.916 65.2382 2
    endloop
  endfacet
  facet normal 0 0 1
    outer loop
      vertex 103.719 -63.9725 2
      vertex 100.251 -66.4921 2
      vertex 103.505 -64.427 2
    endloop
  endfacet
  facet normal 0 0 1
    outer loop
      vertex 100.251 66.4921 2
      vertex 102.916 65.2382 2
      vertex 102.55 65.5821 2
    endloop
  endfacet
  facet normal 0 0 1
    outer loop
      vertex 103.505 -64.427 2
      vertex 100.251 -66.4921 2
      vertex 103.236 -64.8511 2
    endloop
  endfacet
  facet normal 0 0 1
    outer loop
      vertex 100.251 66.4921 2
      vertex 102.55 65.5821 2
      vertex 102.143 65.8773 2
    endloop
  endfacet
  facet normal 0 0 1
    outer loop
      vertex 103.236 -64.8511 2
      vertex 100.251 -66.4921 2
      vertex 102.916 -65.2382 2
    endloop
  endfacet
  facet normal 0 0 1
    outer loop
      vertex 100.251 66.4921 2
      vertex 102.143 65.8773 2
      vertex 101.703 66.1193 2
    endloop
  endfacet
  facet normal 0 0 1
    outer loop
      vertex 102.916 -65.2382 2
      vertex 100.251 -66.4921 2
      vertex 102.55 -65.5821 2
    endloop
  endfacet
  facet normal 0 0 1
    outer loop
      vertex 100.251 66.4921 2
      vertex 101.703 66.1193 2
      vertex 101.236 66.3042 2
    endloop
  endfacet
  facet normal 0 0 1
    outer loop
      vertex 102.55 -65.5821 2
      vertex 100.251 -66.4921 2
      vertex 102.143 -65.8773 2
    endloop
  endfacet
  facet normal 0 0 1
    outer loop
      vertex 100.251 66.4921 2
      vertex 101.236 66.3042 2
      vertex 100.75 66.4291 2
    endloop
  endfacet
  facet normal 0 0 1
    outer loop
      vertex 102.143 -65.8773 2
      vertex 100.251 -66.4921 2
      vertex 101.703 -66.1193 2
    endloop
  endfacet
  facet normal 0 0 1
    outer loop
      vertex 101.703 -66.1193 2
      vertex 100.251 -66.4921 2
      vertex 101.236 -66.3042 2
    endloop
  endfacet
  facet normal 0 0 1
    outer loop
      vertex 101.236 -66.3042 2
      vertex 100.251 -66.4921 2
      vertex 100.75 -66.4291 2
    endloop
  endfacet
  facet normal -0 0 1
    outer loop
      vertex -100.251 66.4921 2
      vertex 100.251 -66.4921 2
      vertex 100.251 66.4921 2
    endloop
  endfacet
  facet normal 0 0 1
    outer loop
      vertex -100.251 66.4921 2
      vertex -100.251 -66.4921 2
      vertex 100.251 -66.4921 2
    endloop
  endfacet
  facet normal 0 0 1
    outer loop
      vertex -104 62.5 2
      vertex -100.251 66.4921 2
      vertex -100.75 66.4291 2
    endloop
  endfacet
  facet normal 0 0 1
    outer loop
      vertex -100.251 66.4921 2
      vertex -104 62.5 2
      vertex -100.251 -66.4921 2
    endloop
  endfacet
  facet normal 0 0 1
    outer loop
      vertex -104 62.5 2
      vertex -100.75 66.4291 2
      vertex -101.236 66.3042 2
    endloop
  endfacet
  facet normal -0 0 1
    outer loop
      vertex -104 -62.5 2
      vertex -100.251 -66.4921 2
      vertex -104 62.5 2
    endloop
  endfacet
  facet normal 0 0 1
    outer loop
      vertex -104 62.5 2
      vertex -101.236 66.3042 2
      vertex -101.703 66.1193 2
    endloop
  endfacet
  facet normal 0 0 1
    outer loop
      vertex -100.251 -66.4921 2
      vertex -104 -62.5 2
      vertex -100.75 -66.4291 2
    endloop
  endfacet
  facet normal 0 0 1
    outer loop
      vertex -104 62.5 2
      vertex -101.703 66.1193 2
      vertex -102.143 65.8773 2
    endloop
  endfacet
  facet normal 0 0 1
    outer loop
      vertex -100.75 -66.4291 2
      vertex -104 -62.5 2
      vertex -101.236 -66.3042 2
    endloop
  endfacet
  facet normal 0 0 1
    outer loop
      vertex -104 62.5 2
      vertex -102.143 65.8773 2
      vertex -102.55 65.5821 2
    endloop
  endfacet
  facet normal 0 0 1
    outer loop
      vertex -101.236 -66.3042 2
      vertex -104 -62.5 2
      vertex -101.703 -66.1193 2
    endloop
  endfacet
  facet normal 0 0 1
    outer loop
      vertex -104 62.5 2
      vertex -102.55 65.5821 2
      vertex -102.916 65.2382 2
    endloop
  endfacet
  facet normal 0 0 1
    outer loop
      vertex -101.703 -66.1193 2
      vertex -104 -62.5 2
      vertex -102.143 -65.8773 2
    endloop
  endfacet
  facet normal 0 0 1
    outer loop
      vertex -104 62.5 2
      vertex -102.916 65.2382 2
      vertex -103.236 64.8511 2
    endloop
  endfacet
  facet normal 0 0 1
    outer loop
      vertex -102.143 -65.8773 2
      vertex -104 -62.5 2
      vertex -102.55 -65.5821 2
    endloop
  endfacet
  facet normal 0 0 1
    outer loop
      vertex -104 62.5 2
      vertex -103.236 64.8511 2
      vertex -103.505 64.427 2
    endloop
  endfacet
  facet normal 0 0 1
    outer loop
      vertex -102.55 -65.5821 2
      vertex -104 -62.5 2
      vertex -102.916 -65.2382 2
    endloop
  endfacet
  facet normal 0 0 1
    outer loop
      vertex -104 62.5 2
      vertex -103.505 64.427 2
      vertex -103.719 63.9725 2
    endloop
  endfacet
  facet normal 0 0 1
    outer loop
      vertex -102.916 -65.2382 2
      vertex -104 -62.5 2
      vertex -103.236 -64.8511 2
    endloop
  endfacet
  facet normal 0 0 1
    outer loop
      vertex -104 62.5 2
      vertex -103.719 63.9725 2
      vertex -103.874 63.4948 2
    endloop
  endfacet
  facet normal 0 0 1
    outer loop
      vertex -103.236 -64.8511 2
      vertex -104 -62.5 2
      vertex -103.505 -64.427 2
    endloop
  endfacet
  facet normal 0 0 1
    outer loop
      vertex -104 62.5 2
      vertex -103.874 63.4948 2
      vertex -103.968 63.0013 2
    endloop
  endfacet
  facet normal 0 0 1
    outer loop
      vertex -103.505 -64.427 2
      vertex -104 -62.5 2
      vertex -103.719 -63.9725 2
    endloop
  endfacet
  facet normal 0 0 1
    outer loop
      vertex -103.719 -63.9725 2
      vertex -104 -62.5 2
      vertex -103.874 -63.4948 2
    endloop
  endfacet
  facet normal 0 0 1
    outer loop
      vertex -103.874 -63.4948 2
      vertex -104 -62.5 2
      vertex -103.968 -63.0013 2
    endloop
  endfacet
  facet normal 0.982339 0.187112 0
    outer loop
      vertex -103.874 -63.4948 21
      vertex -103.968 -63.0013 2
      vertex -103.968 -63.0013 21
    endloop
  endfacet
  facet normal 0.982339 0.187112 0
    outer loop
      vertex -103.968 -63.0013 2
      vertex -103.874 -63.4948 21
      vertex -103.874 -63.4948 2
    endloop
  endfacet
  facet normal 0.982339 -0.187112 0
    outer loop
      vertex -103.968 63.0013 21
      vertex -103.874 63.4948 2
      vertex -103.874 63.4948 21
    endloop
  endfacet
  facet normal 0.982339 -0.187112 0
    outer loop
      vertex -103.874 63.4948 2
      vertex -103.968 63.0013 21
      vertex -103.968 63.0013 2
    endloop
  endfacet
endsolid OpenSCAD_Model
