solid OpenSCAD_Model
  facet normal -1 0 0
    outer loop
      vertex -45 -2.5 0
      vertex -45 2.5 12
      vertex -45 2.5 0
    endloop
  endfacet
  facet normal -1 -0 0
    outer loop
      vertex -45 2.5 12
      vertex -45 -2.5 0
      vertex -45 -2.5 12
    endloop
  endfacet
  facet normal -0.998029 -0.0627481 0
    outer loop
      vertex -44.9606 -3.12667 0
      vertex -45 -2.5 12
      vertex -45 -2.5 0
    endloop
  endfacet
  facet normal -0.998029 -0.0627481 0
    outer loop
      vertex -45 -2.5 12
      vertex -44.9606 -3.12667 0
      vertex -44.9606 -3.12667 12
    endloop
  endfacet
  facet normal 0 1 -0
    outer loop
      vertex 40.314 7.49013 0
      vertex -40.314 7.49013 12
      vertex 40.314 7.49013 12
    endloop
  endfacet
  facet normal 0 1 0
    outer loop
      vertex -40.314 7.49013 12
      vertex 40.314 7.49013 0
      vertex -40.314 7.49013 0
    endloop
  endfacet
  facet normal 0 0 1
    outer loop
      vertex 44 2.5 12
      vertex 45 2.5 12
      vertex 44.9606 3.12667 12
    endloop
  endfacet
  facet normal 0 0 1
    outer loop
      vertex 45 2.5 12
      vertex 44 2.5 12
      vertex 45 -2.5 12
    endloop
  endfacet
  facet normal 0 0 1
    outer loop
      vertex 43.9685 3.00133 12
      vertex 44.9606 3.12667 12
      vertex 44.8429 3.74345 12
    endloop
  endfacet
  facet normal 0 0 1
    outer loop
      vertex 44 -2.5 12
      vertex 45 -2.5 12
      vertex 44 2.5 12
    endloop
  endfacet
  facet normal 0 0 1
    outer loop
      vertex 43.8743 3.49476 12
      vertex 44.8429 3.74345 12
      vertex 44.6489 4.34062 12
    endloop
  endfacet
  facet normal 0 0 1
    outer loop
      vertex 45 -2.5 12
      vertex 44 -2.5 12
      vertex 44.9606 -3.12667 12
    endloop
  endfacet
  facet normal 0 0 1
    outer loop
      vertex 43.7191 3.9725 12
      vertex 44.6489 4.34062 12
      vertex 44.3815 4.90877 12
    endloop
  endfacet
  facet normal -0 0 1
    outer loop
      vertex 43.9685 -3.00133 12
      vertex 44.9606 -3.12667 12
      vertex 44 -2.5 12
    endloop
  endfacet
  facet normal 0 0 1
    outer loop
      vertex 43.5052 4.42701 12
      vertex 44.3815 4.90877 12
      vertex 44.0451 5.43893 12
    endloop
  endfacet
  facet normal 0 0 1
    outer loop
      vertex 44.9606 -3.12667 12
      vertex 43.9685 -3.00133 12
      vertex 44.8429 -3.74345 12
    endloop
  endfacet
  facet normal -0 0 1
    outer loop
      vertex 43.8743 -3.49476 12
      vertex 44.8429 -3.74345 12
      vertex 43.9685 -3.00133 12
    endloop
  endfacet
  facet normal 0 0 1
    outer loop
      vertex 44.9606 3.12667 12
      vertex 43.9685 3.00133 12
      vertex 44 2.5 12
    endloop
  endfacet
  facet normal 0 0 1
    outer loop
      vertex 44.8429 3.74345 12
      vertex 43.8743 3.49476 12
      vertex 43.9685 3.00133 12
    endloop
  endfacet
  facet normal 0 0 1
    outer loop
      vertex 44.6489 4.34062 12
      vertex 43.7191 3.9725 12
      vertex 43.8743 3.49476 12
    endloop
  endfacet
  facet normal 0 0 1
    outer loop
      vertex 43.2361 4.85114 12
      vertex 44.0451 5.43893 12
      vertex 43.6448 5.92274 12
    endloop
  endfacet
  facet normal 0 0 1
    outer loop
      vertex 44.3815 4.90877 12
      vertex 43.5052 4.42701 12
      vertex 43.7191 3.9725 12
    endloop
  endfacet
  facet normal 0 0 1
    outer loop
      vertex 44.0451 5.43893 12
      vertex 43.2361 4.85114 12
      vertex 43.5052 4.42701 12
    endloop
  endfacet
  facet normal 0 0 1
    outer loop
      vertex 42.9159 5.23819 12
      vertex 43.6448 5.92274 12
      vertex 43.1871 6.35257 12
    endloop
  endfacet
  facet normal 0 0 1
    outer loop
      vertex 43.6448 5.92274 12
      vertex 42.9159 5.23819 12
      vertex 43.2361 4.85114 12
    endloop
  endfacet
  facet normal 0 0 1
    outer loop
      vertex 42.5497 5.58205 12
      vertex 43.1871 6.35257 12
      vertex 42.6791 6.72164 12
    endloop
  endfacet
  facet normal 0 0 1
    outer loop
      vertex 43.1871 6.35257 12
      vertex 42.5497 5.58205 12
      vertex 42.9159 5.23819 12
    endloop
  endfacet
  facet normal 0 0 1
    outer loop
      vertex 42.6791 6.72164 12
      vertex 42.1433 5.87731 12
      vertex 42.5497 5.58205 12
    endloop
  endfacet
  facet normal 0 0 1
    outer loop
      vertex 42.1289 7.02413 12
      vertex 42.1433 5.87731 12
      vertex 42.6791 6.72164 12
    endloop
  endfacet
  facet normal 0 0 1
    outer loop
      vertex 42.1289 7.02413 12
      vertex 41.7031 6.11931 12
      vertex 42.1433 5.87731 12
    endloop
  endfacet
  facet normal 0 0 1
    outer loop
      vertex 41.5451 7.25528 12
      vertex 41.7031 6.11931 12
      vertex 42.1289 7.02413 12
    endloop
  endfacet
  facet normal 0 0 1
    outer loop
      vertex 41.5451 7.25528 12
      vertex 41.2361 6.30423 12
      vertex 41.7031 6.11931 12
    endloop
  endfacet
  facet normal 0 0 1
    outer loop
      vertex 40.9369 7.41144 12
      vertex 41.2361 6.30423 12
      vertex 41.5451 7.25528 12
    endloop
  endfacet
  facet normal 0 0 1
    outer loop
      vertex 40.9369 7.41144 12
      vertex 40.7495 6.42915 12
      vertex 41.2361 6.30423 12
    endloop
  endfacet
  facet normal 0 0 1
    outer loop
      vertex 40.314 7.49013 12
      vertex 40.7495 6.42915 12
      vertex 40.9369 7.41144 12
    endloop
  endfacet
  facet normal 0 0 1
    outer loop
      vertex 40.314 7.49013 12
      vertex 40.2512 6.49211 12
      vertex 40.7495 6.42915 12
    endloop
  endfacet
  facet normal 0 0 1
    outer loop
      vertex 40.314 7.49013 12
      vertex -40.2512 6.49211 12
      vertex 40.2512 6.49211 12
    endloop
  endfacet
  facet normal -0 0 1
    outer loop
      vertex -40.314 7.49013 12
      vertex -40.2512 6.49211 12
      vertex 40.314 7.49013 12
    endloop
  endfacet
  facet normal 0 0 1
    outer loop
      vertex -40.314 7.49013 12
      vertex -40.7495 6.42915 12
      vertex -40.2512 6.49211 12
    endloop
  endfacet
  facet normal -0 0 1
    outer loop
      vertex -40.9369 7.41144 12
      vertex -40.7495 6.42915 12
      vertex -40.314 7.49013 12
    endloop
  endfacet
  facet normal 0 0 1
    outer loop
      vertex -40.9369 7.41144 12
      vertex -41.2361 6.30423 12
      vertex -40.7495 6.42915 12
    endloop
  endfacet
  facet normal -0 0 1
    outer loop
      vertex -41.5451 7.25528 12
      vertex -41.2361 6.30423 12
      vertex -40.9369 7.41144 12
    endloop
  endfacet
  facet normal 0 0 1
    outer loop
      vertex -41.5451 7.25528 12
      vertex -41.7031 6.11931 12
      vertex -41.2361 6.30423 12
    endloop
  endfacet
  facet normal -0 0 1
    outer loop
      vertex -42.1289 7.02413 12
      vertex -41.7031 6.11931 12
      vertex -41.5451 7.25528 12
    endloop
  endfacet
  facet normal 0 0 1
    outer loop
      vertex -42.1289 7.02413 12
      vertex -42.1433 5.87731 12
      vertex -41.7031 6.11931 12
    endloop
  endfacet
  facet normal -0 0 1
    outer loop
      vertex -42.6791 6.72164 12
      vertex -42.1433 5.87731 12
      vertex -42.1289 7.02413 12
    endloop
  endfacet
  facet normal 0 0 1
    outer loop
      vertex -42.1433 5.87731 12
      vertex -42.6791 6.72164 12
      vertex -42.5497 5.58205 12
    endloop
  endfacet
  facet normal -0 0 1
    outer loop
      vertex -43.1871 6.35257 12
      vertex -42.5497 5.58205 12
      vertex -42.6791 6.72164 12
    endloop
  endfacet
  facet normal 0 0 1
    outer loop
      vertex -42.5497 5.58205 12
      vertex -43.1871 6.35257 12
      vertex -42.9159 5.23819 12
    endloop
  endfacet
  facet normal -0 0 1
    outer loop
      vertex -43.6448 5.92274 12
      vertex -42.9159 5.23819 12
      vertex -43.1871 6.35257 12
    endloop
  endfacet
  facet normal 0 0 1
    outer loop
      vertex -42.9159 5.23819 12
      vertex -43.6448 5.92274 12
      vertex -43.2361 4.85114 12
    endloop
  endfacet
  facet normal -0 0 1
    outer loop
      vertex -44.0451 5.43893 12
      vertex -43.2361 4.85114 12
      vertex -43.6448 5.92274 12
    endloop
  endfacet
  facet normal 0 0 1
    outer loop
      vertex -43.2361 4.85114 12
      vertex -44.0451 5.43893 12
      vertex -43.5052 4.42701 12
    endloop
  endfacet
  facet normal -0 0 1
    outer loop
      vertex -44.3815 4.90877 12
      vertex -43.5052 4.42701 12
      vertex -44.0451 5.43893 12
    endloop
  endfacet
  facet normal 0 0 1
    outer loop
      vertex -43.5052 4.42701 12
      vertex -44.3815 4.90877 12
      vertex -43.7191 3.9725 12
    endloop
  endfacet
  facet normal -0 0 1
    outer loop
      vertex -44.8429 3.74345 12
      vertex -43.8743 3.49476 12
      vertex -44.6489 4.34062 12
    endloop
  endfacet
  facet normal 0 0 1
    outer loop
      vertex -43.7191 3.9725 12
      vertex -44.6489 4.34062 12
      vertex -43.8743 3.49476 12
    endloop
  endfacet
  facet normal -0 0 1
    outer loop
      vertex -44.6489 4.34062 12
      vertex -43.7191 3.9725 12
      vertex -44.3815 4.90877 12
    endloop
  endfacet
  facet normal 0 0 1
    outer loop
      vertex 44.8429 -3.74345 12
      vertex 43.8743 -3.49476 12
      vertex 44.6489 -4.34062 12
    endloop
  endfacet
  facet normal -0 0 1
    outer loop
      vertex 43.7191 -3.9725 12
      vertex 44.6489 -4.34062 12
      vertex 43.8743 -3.49476 12
    endloop
  endfacet
  facet normal 0 0 1
    outer loop
      vertex 44.6489 -4.34062 12
      vertex 43.7191 -3.9725 12
      vertex 44.3815 -4.90877 12
    endloop
  endfacet
  facet normal -0 0 1
    outer loop
      vertex 43.5052 -4.42701 12
      vertex 44.3815 -4.90877 12
      vertex 43.7191 -3.9725 12
    endloop
  endfacet
  facet normal 0 0 1
    outer loop
      vertex 44.3815 -4.90877 12
      vertex 43.5052 -4.42701 12
      vertex 44.0451 -5.43893 12
    endloop
  endfacet
  facet normal -0 0 1
    outer loop
      vertex 43.2361 -4.85114 12
      vertex 44.0451 -5.43893 12
      vertex 43.5052 -4.42701 12
    endloop
  endfacet
  facet normal 0 0 1
    outer loop
      vertex 44.0451 -5.43893 12
      vertex 43.2361 -4.85114 12
      vertex 43.6448 -5.92274 12
    endloop
  endfacet
  facet normal -0 0 1
    outer loop
      vertex 42.9159 -5.23819 12
      vertex 43.6448 -5.92274 12
      vertex 43.2361 -4.85114 12
    endloop
  endfacet
  facet normal 0 0 1
    outer loop
      vertex 43.6448 -5.92274 12
      vertex 42.9159 -5.23819 12
      vertex 43.1871 -6.35257 12
    endloop
  endfacet
  facet normal -0 0 1
    outer loop
      vertex 42.5497 -5.58205 12
      vertex 43.1871 -6.35257 12
      vertex 42.9159 -5.23819 12
    endloop
  endfacet
  facet normal 0 0 1
    outer loop
      vertex 43.1871 -6.35257 12
      vertex 42.5497 -5.58205 12
      vertex 42.6791 -6.72164 12
    endloop
  endfacet
  facet normal -0 0 1
    outer loop
      vertex 42.1433 -5.87731 12
      vertex 42.6791 -6.72164 12
      vertex 42.5497 -5.58205 12
    endloop
  endfacet
  facet normal 0 0 1
    outer loop
      vertex 42.1433 -5.87731 12
      vertex 42.1289 -7.02413 12
      vertex 42.6791 -6.72164 12
    endloop
  endfacet
  facet normal -0 0 1
    outer loop
      vertex 41.7031 -6.11931 12
      vertex 42.1289 -7.02413 12
      vertex 42.1433 -5.87731 12
    endloop
  endfacet
  facet normal 0 0 1
    outer loop
      vertex 41.7031 -6.11931 12
      vertex 41.5451 -7.25528 12
      vertex 42.1289 -7.02413 12
    endloop
  endfacet
  facet normal -0 0 1
    outer loop
      vertex 41.2361 -6.30423 12
      vertex 41.5451 -7.25528 12
      vertex 41.7031 -6.11931 12
    endloop
  endfacet
  facet normal 0 0 1
    outer loop
      vertex 41.2361 -6.30423 12
      vertex 40.9369 -7.41144 12
      vertex 41.5451 -7.25528 12
    endloop
  endfacet
  facet normal -0 0 1
    outer loop
      vertex 40.7495 -6.42915 12
      vertex 40.9369 -7.41144 12
      vertex 41.2361 -6.30423 12
    endloop
  endfacet
  facet normal 0 0 1
    outer loop
      vertex 40.7495 -6.42915 12
      vertex 40.314 -7.49013 12
      vertex 40.9369 -7.41144 12
    endloop
  endfacet
  facet normal -0 0 1
    outer loop
      vertex 40.2512 -6.49211 12
      vertex 40.314 -7.49013 12
      vertex 40.7495 -6.42915 12
    endloop
  endfacet
  facet normal -0 0 1
    outer loop
      vertex -40.2512 -6.49211 12
      vertex 40.314 -7.49013 12
      vertex 40.2512 -6.49211 12
    endloop
  endfacet
  facet normal 0 0 1
    outer loop
      vertex -40.2512 -6.49211 12
      vertex -40.314 -7.49013 12
      vertex 40.314 -7.49013 12
    endloop
  endfacet
  facet normal 0 0 1
    outer loop
      vertex -40.7495 -6.42915 12
      vertex -40.314 -7.49013 12
      vertex -40.2512 -6.49211 12
    endloop
  endfacet
  facet normal 0 0 1
    outer loop
      vertex -40.7495 -6.42915 12
      vertex -40.9369 -7.41144 12
      vertex -40.314 -7.49013 12
    endloop
  endfacet
  facet normal 0 0 1
    outer loop
      vertex -41.2361 -6.30423 12
      vertex -40.9369 -7.41144 12
      vertex -40.7495 -6.42915 12
    endloop
  endfacet
  facet normal 0 0 1
    outer loop
      vertex -41.2361 -6.30423 12
      vertex -41.5451 -7.25528 12
      vertex -40.9369 -7.41144 12
    endloop
  endfacet
  facet normal 0 0 1
    outer loop
      vertex -41.7031 -6.11931 12
      vertex -41.5451 -7.25528 12
      vertex -41.2361 -6.30423 12
    endloop
  endfacet
  facet normal 0 0 1
    outer loop
      vertex -41.7031 -6.11931 12
      vertex -42.1289 -7.02413 12
      vertex -41.5451 -7.25528 12
    endloop
  endfacet
  facet normal 0 0 1
    outer loop
      vertex -42.1433 -5.87731 12
      vertex -42.1289 -7.02413 12
      vertex -41.7031 -6.11931 12
    endloop
  endfacet
  facet normal 0 0 1
    outer loop
      vertex -42.6791 -6.72164 12
      vertex -42.1433 -5.87731 12
      vertex -42.5497 -5.58205 12
    endloop
  endfacet
  facet normal 0 0 1
    outer loop
      vertex -42.1433 -5.87731 12
      vertex -42.6791 -6.72164 12
      vertex -42.1289 -7.02413 12
    endloop
  endfacet
  facet normal 0 0 1
    outer loop
      vertex -43.1871 -6.35257 12
      vertex -42.5497 -5.58205 12
      vertex -42.9159 -5.23819 12
    endloop
  endfacet
  facet normal 0 0 1
    outer loop
      vertex -42.5497 -5.58205 12
      vertex -43.1871 -6.35257 12
      vertex -42.6791 -6.72164 12
    endloop
  endfacet
  facet normal 0 0 1
    outer loop
      vertex -43.6448 -5.92274 12
      vertex -42.9159 -5.23819 12
      vertex -43.2361 -4.85114 12
    endloop
  endfacet
  facet normal 0 0 1
    outer loop
      vertex -44.0451 -5.43893 12
      vertex -43.2361 -4.85114 12
      vertex -43.5052 -4.42701 12
    endloop
  endfacet
  facet normal 0 0 1
    outer loop
      vertex -42.9159 -5.23819 12
      vertex -43.6448 -5.92274 12
      vertex -43.1871 -6.35257 12
    endloop
  endfacet
  facet normal 0 0 1
    outer loop
      vertex -44.3815 -4.90877 12
      vertex -43.5052 -4.42701 12
      vertex -43.7191 -3.9725 12
    endloop
  endfacet
  facet normal 0 0 1
    outer loop
      vertex -44.6489 -4.34062 12
      vertex -43.7191 -3.9725 12
      vertex -43.8743 -3.49476 12
    endloop
  endfacet
  facet normal 0 0 1
    outer loop
      vertex -44.8429 -3.74345 12
      vertex -43.8743 -3.49476 12
      vertex -43.9685 -3.00133 12
    endloop
  endfacet
  facet normal 0 0 1
    outer loop
      vertex -43.2361 -4.85114 12
      vertex -44.0451 -5.43893 12
      vertex -43.6448 -5.92274 12
    endloop
  endfacet
  facet normal 0 0 1
    outer loop
      vertex -44.9606 -3.12667 12
      vertex -43.9685 -3.00133 12
      vertex -44 -2.5 12
    endloop
  endfacet
  facet normal 0 0 1
    outer loop
      vertex -44 2.5 12
      vertex -45 2.5 12
      vertex -44 -2.5 12
    endloop
  endfacet
  facet normal 0 0 1
    outer loop
      vertex -43.8743 3.49476 12
      vertex -44.8429 3.74345 12
      vertex -43.9685 3.00133 12
    endloop
  endfacet
  facet normal 0 0 1
    outer loop
      vertex -45 -2.5 12
      vertex -44 -2.5 12
      vertex -45 2.5 12
    endloop
  endfacet
  facet normal -0 0 1
    outer loop
      vertex -44.9606 3.12667 12
      vertex -43.9685 3.00133 12
      vertex -44.8429 3.74345 12
    endloop
  endfacet
  facet normal 0 -0 1
    outer loop
      vertex -44.9606 -3.12667 12
      vertex -44 -2.5 12
      vertex -45 -2.5 12
    endloop
  endfacet
  facet normal 0 0 1
    outer loop
      vertex -43.9685 3.00133 12
      vertex -44.9606 3.12667 12
      vertex -44 2.5 12
    endloop
  endfacet
  facet normal 0 0 1
    outer loop
      vertex -43.5052 -4.42701 12
      vertex -44.3815 -4.90877 12
      vertex -44.0451 -5.43893 12
    endloop
  endfacet
  facet normal 0 0 1
    outer loop
      vertex -44 2.5 12
      vertex -44.9606 3.12667 12
      vertex -45 2.5 12
    endloop
  endfacet
  facet normal 0 0 1
    outer loop
      vertex -43.7191 -3.9725 12
      vertex -44.6489 -4.34062 12
      vertex -44.3815 -4.90877 12
    endloop
  endfacet
  facet normal 0 0 1
    outer loop
      vertex -43.8743 -3.49476 12
      vertex -44.8429 -3.74345 12
      vertex -44.6489 -4.34062 12
    endloop
  endfacet
  facet normal 0 0 1
    outer loop
      vertex -43.9685 -3.00133 12
      vertex -44.9606 -3.12667 12
      vertex -44.8429 -3.74345 12
    endloop
  endfacet
  facet normal 0 -1 0
    outer loop
      vertex -40.314 -7.49013 0
      vertex 40.314 -7.49013 12
      vertex -40.314 -7.49013 12
    endloop
  endfacet
  facet normal 0 -1 -0
    outer loop
      vertex 40.314 -7.49013 12
      vertex -40.314 -7.49013 0
      vertex 40.314 -7.49013 0
    endloop
  endfacet
  facet normal 0.951072 -0.30897 0
    outer loop
      vertex 44.6489 -4.34062 12
      vertex 44.8429 -3.74345 0
      vertex 44.8429 -3.74345 12
    endloop
  endfacet
  facet normal 0.951072 -0.30897 0
    outer loop
      vertex 44.8429 -3.74345 0
      vertex 44.6489 -4.34062 12
      vertex 44.6489 -4.34062 0
    endloop
  endfacet
  facet normal 1 -0 0
    outer loop
      vertex 45 -2.5 12
      vertex 45 2.5 0
      vertex 45 2.5 12
    endloop
  endfacet
  facet normal 1 0 0
    outer loop
      vertex 45 2.5 0
      vertex 45 -2.5 12
      vertex 45 -2.5 0
    endloop
  endfacet
  facet normal -0.998029 0.0627481 0
    outer loop
      vertex -45 2.5 0
      vertex -44.9606 3.12667 12
      vertex -44.9606 3.12667 0
    endloop
  endfacet
  facet normal -0.998029 0.0627481 0
    outer loop
      vertex -44.9606 3.12667 12
      vertex -45 2.5 0
      vertex -45 2.5 12
    endloop
  endfacet
  facet normal -0.368135 -0.929773 0
    outer loop
      vertex -42.1289 -7.02413 0
      vertex -41.5451 -7.25528 12
      vertex -42.1289 -7.02413 12
    endloop
  endfacet
  facet normal -0.368135 -0.929773 -0
    outer loop
      vertex -41.5451 -7.25528 12
      vertex -42.1289 -7.02413 0
      vertex -41.5451 -7.25528 0
    endloop
  endfacet
  facet normal -0.125332 -0.992115 0
    outer loop
      vertex -40.9369 -7.41144 0
      vertex -40.314 -7.49013 12
      vertex -40.9369 -7.41144 12
    endloop
  endfacet
  facet normal -0.125332 -0.992115 -0
    outer loop
      vertex -40.314 -7.49013 12
      vertex -40.9369 -7.41144 0
      vertex -40.314 -7.49013 0
    endloop
  endfacet
  facet normal -0.481772 -0.876297 0
    outer loop
      vertex -42.6791 -6.72164 0
      vertex -42.1289 -7.02413 12
      vertex -42.6791 -6.72164 12
    endloop
  endfacet
  facet normal -0.481772 -0.876297 -0
    outer loop
      vertex -42.1289 -7.02413 12
      vertex -42.6791 -6.72164 0
      vertex -42.1289 -7.02413 0
    endloop
  endfacet
  facet normal -0.684565 -0.728952 0
    outer loop
      vertex -43.6448 -5.92274 0
      vertex -43.1871 -6.35257 12
      vertex -43.6448 -5.92274 12
    endloop
  endfacet
  facet normal -0.684565 -0.728952 -0
    outer loop
      vertex -43.1871 -6.35257 12
      vertex -43.6448 -5.92274 0
      vertex -43.1871 -6.35257 0
    endloop
  endfacet
  facet normal 0.481772 -0.876297 0
    outer loop
      vertex 42.1289 -7.02413 0
      vertex 42.6791 -6.72164 12
      vertex 42.1289 -7.02413 12
    endloop
  endfacet
  facet normal 0.481772 -0.876297 0
    outer loop
      vertex 42.6791 -6.72164 12
      vertex 42.1289 -7.02413 0
      vertex 42.6791 -6.72164 0
    endloop
  endfacet
  facet normal 0.951072 0.30897 0
    outer loop
      vertex 44.8429 3.74345 12
      vertex 44.6489 4.34062 0
      vertex 44.6489 4.34062 12
    endloop
  endfacet
  facet normal 0.951072 0.30897 0
    outer loop
      vertex 44.6489 4.34062 0
      vertex 44.8429 3.74345 12
      vertex 44.8429 3.74345 0
    endloop
  endfacet
  facet normal 0.684565 0.728952 -0
    outer loop
      vertex 43.6448 5.92274 0
      vertex 43.1871 6.35257 12
      vertex 43.6448 5.92274 12
    endloop
  endfacet
  facet normal 0.684565 0.728952 0
    outer loop
      vertex 43.1871 6.35257 12
      vertex 43.6448 5.92274 0
      vertex 43.1871 6.35257 0
    endloop
  endfacet
  facet normal 0.368135 0.929773 -0
    outer loop
      vertex 42.1289 7.02413 0
      vertex 41.5451 7.25528 12
      vertex 42.1289 7.02413 12
    endloop
  endfacet
  facet normal 0.368135 0.929773 0
    outer loop
      vertex 41.5451 7.25528 12
      vertex 42.1289 7.02413 0
      vertex 41.5451 7.25528 0
    endloop
  endfacet
  facet normal 0.248691 0.968583 -0
    outer loop
      vertex 41.5451 7.25528 0
      vertex 40.9369 7.41144 12
      vertex 41.5451 7.25528 12
    endloop
  endfacet
  facet normal 0.248691 0.968583 0
    outer loop
      vertex 40.9369 7.41144 12
      vertex 41.5451 7.25528 0
      vertex 40.9369 7.41144 0
    endloop
  endfacet
  facet normal 0.125332 0.992115 -0
    outer loop
      vertex 40.9369 7.41144 0
      vertex 40.314 7.49013 12
      vertex 40.9369 7.41144 12
    endloop
  endfacet
  facet normal 0.125332 0.992115 0
    outer loop
      vertex 40.314 7.49013 12
      vertex 40.9369 7.41144 0
      vertex 40.314 7.49013 0
    endloop
  endfacet
  facet normal -0.587771 0.809027 0
    outer loop
      vertex -42.6791 6.72164 0
      vertex -43.1871 6.35257 12
      vertex -42.6791 6.72164 12
    endloop
  endfacet
  facet normal -0.587771 0.809027 0
    outer loop
      vertex -43.1871 6.35257 12
      vertex -42.6791 6.72164 0
      vertex -43.1871 6.35257 0
    endloop
  endfacet
  facet normal -0.368135 0.929773 0
    outer loop
      vertex -41.5451 7.25528 0
      vertex -42.1289 7.02413 12
      vertex -41.5451 7.25528 12
    endloop
  endfacet
  facet normal -0.368135 0.929773 0
    outer loop
      vertex -42.1289 7.02413 12
      vertex -41.5451 7.25528 0
      vertex -42.1289 7.02413 0
    endloop
  endfacet
  facet normal -0.951072 0.30897 0
    outer loop
      vertex -44.8429 3.74345 0
      vertex -44.6489 4.34062 12
      vertex -44.6489 4.34062 0
    endloop
  endfacet
  facet normal -0.951072 0.30897 0
    outer loop
      vertex -44.6489 4.34062 12
      vertex -44.8429 3.74345 0
      vertex -44.8429 3.74345 12
    endloop
  endfacet
  facet normal 0 0 -1
    outer loop
      vertex 40.314 -7.49013 0
      vertex 45 -2.5 0
      vertex 44.9606 -3.12667 0
    endloop
  endfacet
  facet normal -0 0 -1
    outer loop
      vertex 45 -2.5 0
      vertex 40.314 -7.49013 0
      vertex 45 2.5 0
    endloop
  endfacet
  facet normal 0 0 -1
    outer loop
      vertex 40.314 -7.49013 0
      vertex 44.9606 -3.12667 0
      vertex 44.8429 -3.74345 0
    endloop
  endfacet
  facet normal 0 0 -1
    outer loop
      vertex 40.314 7.49013 0
      vertex 45 2.5 0
      vertex 40.314 -7.49013 0
    endloop
  endfacet
  facet normal 0 0 -1
    outer loop
      vertex 40.314 -7.49013 0
      vertex 44.8429 -3.74345 0
      vertex 44.6489 -4.34062 0
    endloop
  endfacet
  facet normal 0 0 -1
    outer loop
      vertex 45 2.5 0
      vertex 40.314 7.49013 0
      vertex 44.9606 3.12667 0
    endloop
  endfacet
  facet normal 0 0 -1
    outer loop
      vertex 40.314 -7.49013 0
      vertex 44.6489 -4.34062 0
      vertex 44.3815 -4.90877 0
    endloop
  endfacet
  facet normal 0 0 -1
    outer loop
      vertex 44.9606 3.12667 0
      vertex 40.314 7.49013 0
      vertex 44.8429 3.74345 0
    endloop
  endfacet
  facet normal 0 0 -1
    outer loop
      vertex 40.314 -7.49013 0
      vertex 44.3815 -4.90877 0
      vertex 44.0451 -5.43893 0
    endloop
  endfacet
  facet normal 0 0 -1
    outer loop
      vertex 44.8429 3.74345 0
      vertex 40.314 7.49013 0
      vertex 44.6489 4.34062 0
    endloop
  endfacet
  facet normal 0 0 -1
    outer loop
      vertex 40.314 -7.49013 0
      vertex 44.0451 -5.43893 0
      vertex 43.6448 -5.92274 0
    endloop
  endfacet
  facet normal 0 0 -1
    outer loop
      vertex 44.6489 4.34062 0
      vertex 40.314 7.49013 0
      vertex 44.3815 4.90877 0
    endloop
  endfacet
  facet normal 0 0 -1
    outer loop
      vertex 40.314 -7.49013 0
      vertex 43.6448 -5.92274 0
      vertex 43.1871 -6.35257 0
    endloop
  endfacet
  facet normal 0 0 -1
    outer loop
      vertex 44.3815 4.90877 0
      vertex 40.314 7.49013 0
      vertex 44.0451 5.43893 0
    endloop
  endfacet
  facet normal 0 0 -1
    outer loop
      vertex 40.314 -7.49013 0
      vertex 43.1871 -6.35257 0
      vertex 42.6791 -6.72164 0
    endloop
  endfacet
  facet normal 0 0 -1
    outer loop
      vertex 44.0451 5.43893 0
      vertex 40.314 7.49013 0
      vertex 43.6448 5.92274 0
    endloop
  endfacet
  facet normal 0 0 -1
    outer loop
      vertex 40.314 -7.49013 0
      vertex 42.6791 -6.72164 0
      vertex 42.1289 -7.02413 0
    endloop
  endfacet
  facet normal 0 0 -1
    outer loop
      vertex 43.6448 5.92274 0
      vertex 40.314 7.49013 0
      vertex 43.1871 6.35257 0
    endloop
  endfacet
  facet normal 0 0 -1
    outer loop
      vertex 40.314 -7.49013 0
      vertex 42.1289 -7.02413 0
      vertex 41.5451 -7.25528 0
    endloop
  endfacet
  facet normal 0 0 -1
    outer loop
      vertex 43.1871 6.35257 0
      vertex 40.314 7.49013 0
      vertex 42.6791 6.72164 0
    endloop
  endfacet
  facet normal 0 0 -1
    outer loop
      vertex 40.314 -7.49013 0
      vertex 41.5451 -7.25528 0
      vertex 40.9369 -7.41144 0
    endloop
  endfacet
  facet normal 0 0 -1
    outer loop
      vertex 42.6791 6.72164 0
      vertex 40.314 7.49013 0
      vertex 42.1289 7.02413 0
    endloop
  endfacet
  facet normal 0 0 -1
    outer loop
      vertex 42.1289 7.02413 0
      vertex 40.314 7.49013 0
      vertex 41.5451 7.25528 0
    endloop
  endfacet
  facet normal 0 0 -1
    outer loop
      vertex 41.5451 7.25528 0
      vertex 40.314 7.49013 0
      vertex 40.9369 7.41144 0
    endloop
  endfacet
  facet normal 0 0 -1
    outer loop
      vertex -40.314 -7.49013 0
      vertex 40.314 7.49013 0
      vertex 40.314 -7.49013 0
    endloop
  endfacet
  facet normal 0 0 -1
    outer loop
      vertex -40.314 -7.49013 0
      vertex -40.314 7.49013 0
      vertex 40.314 7.49013 0
    endloop
  endfacet
  facet normal 0 0 -1
    outer loop
      vertex -45 -2.5 0
      vertex -40.314 -7.49013 0
      vertex -40.9369 -7.41144 0
    endloop
  endfacet
  facet normal 0 0 -1
    outer loop
      vertex -40.314 -7.49013 0
      vertex -45 -2.5 0
      vertex -40.314 7.49013 0
    endloop
  endfacet
  facet normal 0 0 -1
    outer loop
      vertex -45 -2.5 0
      vertex -40.9369 -7.41144 0
      vertex -41.5451 -7.25528 0
    endloop
  endfacet
  facet normal 0 0 -1
    outer loop
      vertex -45 2.5 0
      vertex -40.314 7.49013 0
      vertex -45 -2.5 0
    endloop
  endfacet
  facet normal 0 0 -1
    outer loop
      vertex -45 -2.5 0
      vertex -41.5451 -7.25528 0
      vertex -42.1289 -7.02413 0
    endloop
  endfacet
  facet normal 0 0 -1
    outer loop
      vertex -40.314 7.49013 0
      vertex -45 2.5 0
      vertex -40.9369 7.41144 0
    endloop
  endfacet
  facet normal 0 0 -1
    outer loop
      vertex -45 -2.5 0
      vertex -42.1289 -7.02413 0
      vertex -42.6791 -6.72164 0
    endloop
  endfacet
  facet normal 0 0 -1
    outer loop
      vertex -40.9369 7.41144 0
      vertex -45 2.5 0
      vertex -41.5451 7.25528 0
    endloop
  endfacet
  facet normal 0 0 -1
    outer loop
      vertex -45 -2.5 0
      vertex -42.6791 -6.72164 0
      vertex -43.1871 -6.35257 0
    endloop
  endfacet
  facet normal 0 0 -1
    outer loop
      vertex -41.5451 7.25528 0
      vertex -45 2.5 0
      vertex -42.1289 7.02413 0
    endloop
  endfacet
  facet normal 0 0 -1
    outer loop
      vertex -45 -2.5 0
      vertex -43.1871 -6.35257 0
      vertex -43.6448 -5.92274 0
    endloop
  endfacet
  facet normal 0 0 -1
    outer loop
      vertex -42.1289 7.02413 0
      vertex -45 2.5 0
      vertex -42.6791 6.72164 0
    endloop
  endfacet
  facet normal 0 0 -1
    outer loop
      vertex -45 -2.5 0
      vertex -43.6448 -5.92274 0
      vertex -44.0451 -5.43893 0
    endloop
  endfacet
  facet normal 0 0 -1
    outer loop
      vertex -42.6791 6.72164 0
      vertex -45 2.5 0
      vertex -43.1871 6.35257 0
    endloop
  endfacet
  facet normal 0 0 -1
    outer loop
      vertex -45 -2.5 0
      vertex -44.0451 -5.43893 0
      vertex -44.3815 -4.90877 0
    endloop
  endfacet
  facet normal 0 0 -1
    outer loop
      vertex -43.1871 6.35257 0
      vertex -45 2.5 0
      vertex -43.6448 5.92274 0
    endloop
  endfacet
  facet normal 0 0 -1
    outer loop
      vertex -45 -2.5 0
      vertex -44.3815 -4.90877 0
      vertex -44.6489 -4.34062 0
    endloop
  endfacet
  facet normal 0 0 -1
    outer loop
      vertex -43.6448 5.92274 0
      vertex -45 2.5 0
      vertex -44.0451 5.43893 0
    endloop
  endfacet
  facet normal 0 0 -1
    outer loop
      vertex -45 -2.5 0
      vertex -44.6489 -4.34062 0
      vertex -44.8429 -3.74345 0
    endloop
  endfacet
  facet normal 0 0 -1
    outer loop
      vertex -44.0451 5.43893 0
      vertex -45 2.5 0
      vertex -44.3815 4.90877 0
    endloop
  endfacet
  facet normal 0 0 -1
    outer loop
      vertex -45 -2.5 0
      vertex -44.8429 -3.74345 0
      vertex -44.9606 -3.12667 0
    endloop
  endfacet
  facet normal 0 0 -1
    outer loop
      vertex -44.3815 4.90877 0
      vertex -45 2.5 0
      vertex -44.6489 4.34062 0
    endloop
  endfacet
  facet normal 0 0 -1
    outer loop
      vertex -44.6489 4.34062 0
      vertex -45 2.5 0
      vertex -44.8429 3.74345 0
    endloop
  endfacet
  facet normal 0 0 -1
    outer loop
      vertex -44.8429 3.74345 0
      vertex -45 2.5 0
      vertex -44.9606 3.12667 0
    endloop
  endfacet
  facet normal -0.951072 -0.30897 0
    outer loop
      vertex -44.6489 -4.34062 0
      vertex -44.8429 -3.74345 12
      vertex -44.8429 -3.74345 0
    endloop
  endfacet
  facet normal -0.951072 -0.30897 0
    outer loop
      vertex -44.8429 -3.74345 12
      vertex -44.6489 -4.34062 0
      vertex -44.6489 -4.34062 12
    endloop
  endfacet
  facet normal -0.904797 -0.425843 0
    outer loop
      vertex -44.3815 -4.90877 0
      vertex -44.6489 -4.34062 12
      vertex -44.6489 -4.34062 0
    endloop
  endfacet
  facet normal -0.904797 -0.425843 0
    outer loop
      vertex -44.6489 -4.34062 12
      vertex -44.3815 -4.90877 0
      vertex -44.3815 -4.90877 12
    endloop
  endfacet
  facet normal -0.770468 -0.637478 0
    outer loop
      vertex -43.6448 -5.92274 0
      vertex -44.0451 -5.43893 12
      vertex -44.0451 -5.43893 0
    endloop
  endfacet
  facet normal -0.770468 -0.637478 0
    outer loop
      vertex -44.0451 -5.43893 12
      vertex -43.6448 -5.92274 0
      vertex -43.6448 -5.92274 12
    endloop
  endfacet
  facet normal -0.844364 -0.53577 0
    outer loop
      vertex -44.0451 -5.43893 0
      vertex -44.3815 -4.90877 12
      vertex -44.3815 -4.90877 0
    endloop
  endfacet
  facet normal -0.844364 -0.53577 0
    outer loop
      vertex -44.3815 -4.90877 12
      vertex -44.0451 -5.43893 0
      vertex -44.0451 -5.43893 12
    endloop
  endfacet
  facet normal -0.248691 -0.968583 0
    outer loop
      vertex -41.5451 -7.25528 0
      vertex -40.9369 -7.41144 12
      vertex -41.5451 -7.25528 12
    endloop
  endfacet
  facet normal -0.248691 -0.968583 -0
    outer loop
      vertex -40.9369 -7.41144 12
      vertex -41.5451 -7.25528 0
      vertex -40.9369 -7.41144 0
    endloop
  endfacet
  facet normal -0.587771 -0.809027 0
    outer loop
      vertex -43.1871 -6.35257 0
      vertex -42.6791 -6.72164 12
      vertex -43.1871 -6.35257 12
    endloop
  endfacet
  facet normal -0.587771 -0.809027 -0
    outer loop
      vertex -42.6791 -6.72164 12
      vertex -43.1871 -6.35257 0
      vertex -42.6791 -6.72164 0
    endloop
  endfacet
  facet normal 0.982275 -0.187447 0
    outer loop
      vertex 44.8429 -3.74345 12
      vertex 44.9606 -3.12667 0
      vertex 44.9606 -3.12667 12
    endloop
  endfacet
  facet normal 0.982275 -0.187447 0
    outer loop
      vertex 44.9606 -3.12667 0
      vertex 44.8429 -3.74345 12
      vertex 44.8429 -3.74345 0
    endloop
  endfacet
  facet normal 0.998029 -0.0627481 0
    outer loop
      vertex 44.9606 -3.12667 12
      vertex 45 -2.5 0
      vertex 45 -2.5 12
    endloop
  endfacet
  facet normal 0.998029 -0.0627481 0
    outer loop
      vertex 45 -2.5 0
      vertex 44.9606 -3.12667 12
      vertex 44.9606 -3.12667 0
    endloop
  endfacet
  facet normal 0.770468 -0.637478 0
    outer loop
      vertex 43.6448 -5.92274 12
      vertex 44.0451 -5.43893 0
      vertex 44.0451 -5.43893 12
    endloop
  endfacet
  facet normal 0.770468 -0.637478 0
    outer loop
      vertex 44.0451 -5.43893 0
      vertex 43.6448 -5.92274 12
      vertex 43.6448 -5.92274 0
    endloop
  endfacet
  facet normal 0.684565 -0.728952 0
    outer loop
      vertex 43.1871 -6.35257 0
      vertex 43.6448 -5.92274 12
      vertex 43.1871 -6.35257 12
    endloop
  endfacet
  facet normal 0.684565 -0.728952 0
    outer loop
      vertex 43.6448 -5.92274 12
      vertex 43.1871 -6.35257 0
      vertex 43.6448 -5.92274 0
    endloop
  endfacet
  facet normal 0.844364 -0.53577 0
    outer loop
      vertex 44.0451 -5.43893 12
      vertex 44.3815 -4.90877 0
      vertex 44.3815 -4.90877 12
    endloop
  endfacet
  facet normal 0.844364 -0.53577 0
    outer loop
      vertex 44.3815 -4.90877 0
      vertex 44.0451 -5.43893 12
      vertex 44.0451 -5.43893 0
    endloop
  endfacet
  facet normal 0.248691 -0.968583 0
    outer loop
      vertex 40.9369 -7.41144 0
      vertex 41.5451 -7.25528 12
      vertex 40.9369 -7.41144 12
    endloop
  endfacet
  facet normal 0.248691 -0.968583 0
    outer loop
      vertex 41.5451 -7.25528 12
      vertex 40.9369 -7.41144 0
      vertex 41.5451 -7.25528 0
    endloop
  endfacet
  facet normal 0.368135 -0.929773 0
    outer loop
      vertex 41.5451 -7.25528 0
      vertex 42.1289 -7.02413 12
      vertex 41.5451 -7.25528 12
    endloop
  endfacet
  facet normal 0.368135 -0.929773 0
    outer loop
      vertex 42.1289 -7.02413 12
      vertex 41.5451 -7.25528 0
      vertex 42.1289 -7.02413 0
    endloop
  endfacet
  facet normal 0.125332 -0.992115 0
    outer loop
      vertex 40.314 -7.49013 0
      vertex 40.9369 -7.41144 12
      vertex 40.314 -7.49013 12
    endloop
  endfacet
  facet normal 0.125332 -0.992115 0
    outer loop
      vertex 40.9369 -7.41144 12
      vertex 40.314 -7.49013 0
      vertex 40.9369 -7.41144 0
    endloop
  endfacet
  facet normal 0.770468 0.637478 0
    outer loop
      vertex 44.0451 5.43893 12
      vertex 43.6448 5.92274 0
      vertex 43.6448 5.92274 12
    endloop
  endfacet
  facet normal 0.770468 0.637478 0
    outer loop
      vertex 43.6448 5.92274 0
      vertex 44.0451 5.43893 12
      vertex 44.0451 5.43893 0
    endloop
  endfacet
  facet normal 0.587771 0.809027 -0
    outer loop
      vertex 43.1871 6.35257 0
      vertex 42.6791 6.72164 12
      vertex 43.1871 6.35257 12
    endloop
  endfacet
  facet normal 0.587771 0.809027 0
    outer loop
      vertex 42.6791 6.72164 12
      vertex 43.1871 6.35257 0
      vertex 42.6791 6.72164 0
    endloop
  endfacet
  facet normal 0.481772 0.876297 -0
    outer loop
      vertex 42.6791 6.72164 0
      vertex 42.1289 7.02413 12
      vertex 42.6791 6.72164 12
    endloop
  endfacet
  facet normal 0.481772 0.876297 0
    outer loop
      vertex 42.1289 7.02413 12
      vertex 42.6791 6.72164 0
      vertex 42.1289 7.02413 0
    endloop
  endfacet
  facet normal -0.684565 0.728952 0
    outer loop
      vertex -43.1871 6.35257 0
      vertex -43.6448 5.92274 12
      vertex -43.1871 6.35257 12
    endloop
  endfacet
  facet normal -0.684565 0.728952 0
    outer loop
      vertex -43.6448 5.92274 12
      vertex -43.1871 6.35257 0
      vertex -43.6448 5.92274 0
    endloop
  endfacet
  facet normal -0.770468 0.637478 0
    outer loop
      vertex -44.0451 5.43893 0
      vertex -43.6448 5.92274 12
      vertex -43.6448 5.92274 0
    endloop
  endfacet
  facet normal -0.770468 0.637478 0
    outer loop
      vertex -43.6448 5.92274 12
      vertex -44.0451 5.43893 0
      vertex -44.0451 5.43893 12
    endloop
  endfacet
  facet normal -0.844364 0.53577 0
    outer loop
      vertex -44.3815 4.90877 0
      vertex -44.0451 5.43893 12
      vertex -44.0451 5.43893 0
    endloop
  endfacet
  facet normal -0.844364 0.53577 0
    outer loop
      vertex -44.0451 5.43893 12
      vertex -44.3815 4.90877 0
      vertex -44.3815 4.90877 12
    endloop
  endfacet
  facet normal -0.125332 0.992115 0
    outer loop
      vertex -40.314 7.49013 0
      vertex -40.9369 7.41144 12
      vertex -40.314 7.49013 12
    endloop
  endfacet
  facet normal -0.125332 0.992115 0
    outer loop
      vertex -40.9369 7.41144 12
      vertex -40.314 7.49013 0
      vertex -40.9369 7.41144 0
    endloop
  endfacet
  facet normal -0.982275 0.187447 0
    outer loop
      vertex -44.9606 3.12667 0
      vertex -44.8429 3.74345 12
      vertex -44.8429 3.74345 0
    endloop
  endfacet
  facet normal -0.982275 0.187447 0
    outer loop
      vertex -44.8429 3.74345 12
      vertex -44.9606 3.12667 0
      vertex -44.9606 3.12667 12
    endloop
  endfacet
  facet normal -0.982275 -0.187447 0
    outer loop
      vertex -44.8429 -3.74345 0
      vertex -44.9606 -3.12667 12
      vertex -44.9606 -3.12667 0
    endloop
  endfacet
  facet normal -0.982275 -0.187447 0
    outer loop
      vertex -44.9606 -3.12667 12
      vertex -44.8429 -3.74345 0
      vertex -44.8429 -3.74345 12
    endloop
  endfacet
  facet normal 0.904797 -0.425843 0
    outer loop
      vertex 44.3815 -4.90877 12
      vertex 44.6489 -4.34062 0
      vertex 44.6489 -4.34062 12
    endloop
  endfacet
  facet normal 0.904797 -0.425843 0
    outer loop
      vertex 44.6489 -4.34062 0
      vertex 44.3815 -4.90877 12
      vertex 44.3815 -4.90877 0
    endloop
  endfacet
  facet normal 0.587771 -0.809027 0
    outer loop
      vertex 42.6791 -6.72164 0
      vertex 43.1871 -6.35257 12
      vertex 42.6791 -6.72164 12
    endloop
  endfacet
  facet normal 0.587771 -0.809027 0
    outer loop
      vertex 43.1871 -6.35257 12
      vertex 42.6791 -6.72164 0
      vertex 43.1871 -6.35257 0
    endloop
  endfacet
  facet normal 0.844364 0.53577 0
    outer loop
      vertex 44.3815 4.90877 12
      vertex 44.0451 5.43893 0
      vertex 44.0451 5.43893 12
    endloop
  endfacet
  facet normal 0.844364 0.53577 0
    outer loop
      vertex 44.0451 5.43893 0
      vertex 44.3815 4.90877 12
      vertex 44.3815 4.90877 0
    endloop
  endfacet
  facet normal 0.998029 0.0627481 0
    outer loop
      vertex 45 2.5 12
      vertex 44.9606 3.12667 0
      vertex 44.9606 3.12667 12
    endloop
  endfacet
  facet normal 0.998029 0.0627481 0
    outer loop
      vertex 44.9606 3.12667 0
      vertex 45 2.5 12
      vertex 45 2.5 0
    endloop
  endfacet
  facet normal 0.982275 0.187447 0
    outer loop
      vertex 44.9606 3.12667 12
      vertex 44.8429 3.74345 0
      vertex 44.8429 3.74345 12
    endloop
  endfacet
  facet normal 0.982275 0.187447 0
    outer loop
      vertex 44.8429 3.74345 0
      vertex 44.9606 3.12667 12
      vertex 44.9606 3.12667 0
    endloop
  endfacet
  facet normal -0.248691 0.968583 0
    outer loop
      vertex -40.9369 7.41144 0
      vertex -41.5451 7.25528 12
      vertex -40.9369 7.41144 12
    endloop
  endfacet
  facet normal -0.248691 0.968583 0
    outer loop
      vertex -41.5451 7.25528 12
      vertex -40.9369 7.41144 0
      vertex -41.5451 7.25528 0
    endloop
  endfacet
  facet normal -0.481772 0.876297 0
    outer loop
      vertex -42.1289 7.02413 0
      vertex -42.6791 6.72164 12
      vertex -42.1289 7.02413 12
    endloop
  endfacet
  facet normal -0.481772 0.876297 0
    outer loop
      vertex -42.6791 6.72164 12
      vertex -42.1289 7.02413 0
      vertex -42.6791 6.72164 0
    endloop
  endfacet
  facet normal -0.904797 0.425843 0
    outer loop
      vertex -44.6489 4.34062 0
      vertex -44.3815 4.90877 12
      vertex -44.3815 4.90877 0
    endloop
  endfacet
  facet normal -0.904797 0.425843 0
    outer loop
      vertex -44.3815 4.90877 12
      vertex -44.6489 4.34062 0
      vertex -44.6489 4.34062 12
    endloop
  endfacet
  facet normal 0.904797 0.425843 0
    outer loop
      vertex 44.6489 4.34062 12
      vertex 44.3815 4.90877 0
      vertex 44.3815 4.90877 12
    endloop
  endfacet
  facet normal 0.904797 0.425843 0
    outer loop
      vertex 44.3815 4.90877 0
      vertex 44.6489 4.34062 12
      vertex 44.6489 4.34062 0
    endloop
  endfacet
  facet normal 1 -0 0
    outer loop
      vertex -44 -2.5 12
      vertex -44 2.5 2
      vertex -44 2.5 12
    endloop
  endfacet
  facet normal 1 0 0
    outer loop
      vertex -44 2.5 2
      vertex -44 -2.5 12
      vertex -44 -2.5 2
    endloop
  endfacet
  facet normal 0.998032 0.0627092 0
    outer loop
      vertex -43.9685 -3.00133 12
      vertex -44 -2.5 2
      vertex -44 -2.5 12
    endloop
  endfacet
  facet normal 0.998032 0.0627092 0
    outer loop
      vertex -44 -2.5 2
      vertex -43.9685 -3.00133 12
      vertex -43.9685 -3.00133 2
    endloop
  endfacet
  facet normal 0.998032 -0.0627092 0
    outer loop
      vertex -44 2.5 12
      vertex -43.9685 3.00133 2
      vertex -43.9685 3.00133 12
    endloop
  endfacet
  facet normal 0.998032 -0.0627092 0
    outer loop
      vertex -43.9685 3.00133 2
      vertex -44 2.5 12
      vertex -44 2.5 2
    endloop
  endfacet
  facet normal 0 -1 0
    outer loop
      vertex -40.2512 6.49211 2
      vertex 40.2512 6.49211 12
      vertex -40.2512 6.49211 12
    endloop
  endfacet
  facet normal 0 -1 -0
    outer loop
      vertex 40.2512 6.49211 12
      vertex -40.2512 6.49211 2
      vertex 40.2512 6.49211 2
    endloop
  endfacet
  facet normal 0 1 -0
    outer loop
      vertex 40.2512 -6.49211 2
      vertex -40.2512 -6.49211 12
      vertex 40.2512 -6.49211 12
    endloop
  endfacet
  facet normal 0 1 0
    outer loop
      vertex -40.2512 -6.49211 12
      vertex 40.2512 -6.49211 2
      vertex -40.2512 -6.49211 2
    endloop
  endfacet
  facet normal -1 0 0
    outer loop
      vertex 44 -2.5 2
      vertex 44 2.5 12
      vertex 44 2.5 2
    endloop
  endfacet
  facet normal -1 -0 0
    outer loop
      vertex 44 2.5 12
      vertex 44 -2.5 2
      vertex 44 -2.5 12
    endloop
  endfacet
  facet normal -0.770509 0.637429 0
    outer loop
      vertex 42.9159 -5.23819 2
      vertex 43.2361 -4.85114 12
      vertex 43.2361 -4.85114 2
    endloop
  endfacet
  facet normal -0.770509 0.637429 0
    outer loop
      vertex 43.2361 -4.85114 12
      vertex 42.9159 -5.23819 2
      vertex 42.9159 -5.23819 12
    endloop
  endfacet
  facet normal -0.951072 -0.308968 0
    outer loop
      vertex 43.8743 3.49476 2
      vertex 43.7191 3.9725 12
      vertex 43.7191 3.9725 2
    endloop
  endfacet
  facet normal -0.951072 -0.308968 0
    outer loop
      vertex 43.7191 3.9725 12
      vertex 43.8743 3.49476 2
      vertex 43.8743 3.49476 12
    endloop
  endfacet
  facet normal -0.770509 -0.637429 0
    outer loop
      vertex 43.2361 4.85114 2
      vertex 42.9159 5.23819 12
      vertex 42.9159 5.23819 2
    endloop
  endfacet
  facet normal -0.770509 -0.637429 0
    outer loop
      vertex 42.9159 5.23819 12
      vertex 43.2361 4.85114 2
      vertex 43.2361 4.85114 12
    endloop
  endfacet
  facet normal -0.998032 0.0627092 0
    outer loop
      vertex 43.9685 -3.00133 2
      vertex 44 -2.5 12
      vertex 44 -2.5 2
    endloop
  endfacet
  facet normal -0.998032 0.0627092 0
    outer loop
      vertex 44 -2.5 12
      vertex 43.9685 -3.00133 2
      vertex 43.9685 -3.00133 12
    endloop
  endfacet
  facet normal 0.368162 0.929762 -0
    outer loop
      vertex -41.2361 -6.30423 2
      vertex -41.7031 -6.11931 12
      vertex -41.2361 -6.30423 12
    endloop
  endfacet
  facet normal 0.368162 0.929762 0
    outer loop
      vertex -41.7031 -6.11931 12
      vertex -41.2361 -6.30423 2
      vertex -41.7031 -6.11931 2
    endloop
  endfacet
  facet normal -0.481751 0.876308 0
    outer loop
      vertex 42.1433 -5.87731 2
      vertex 41.7031 -6.11931 12
      vertex 42.1433 -5.87731 12
    endloop
  endfacet
  facet normal -0.481751 0.876308 0
    outer loop
      vertex 41.7031 -6.11931 12
      vertex 42.1433 -5.87731 2
      vertex 41.7031 -6.11931 2
    endloop
  endfacet
  facet normal -0.481751 -0.876308 0
    outer loop
      vertex 41.7031 6.11931 2
      vertex 42.1433 5.87731 12
      vertex 41.7031 6.11931 12
    endloop
  endfacet
  facet normal -0.481751 -0.876308 -0
    outer loop
      vertex 42.1433 5.87731 12
      vertex 41.7031 6.11931 2
      vertex 42.1433 5.87731 2
    endloop
  endfacet
  facet normal -0.125353 -0.992112 0
    outer loop
      vertex 40.2512 6.49211 2
      vertex 40.7495 6.42915 12
      vertex 40.2512 6.49211 12
    endloop
  endfacet
  facet normal -0.125353 -0.992112 -0
    outer loop
      vertex 40.7495 6.42915 12
      vertex 40.2512 6.49211 2
      vertex 40.7495 6.42915 2
    endloop
  endfacet
  facet normal -0.998032 -0.0627092 0
    outer loop
      vertex 44 2.5 2
      vertex 43.9685 3.00133 12
      vertex 43.9685 3.00133 2
    endloop
  endfacet
  facet normal -0.998032 -0.0627092 0
    outer loop
      vertex 43.9685 3.00133 12
      vertex 44 2.5 2
      vertex 44 2.5 12
    endloop
  endfacet
  facet normal -0.951072 0.308968 0
    outer loop
      vertex 43.7191 -3.9725 2
      vertex 43.8743 -3.49476 12
      vertex 43.8743 -3.49476 2
    endloop
  endfacet
  facet normal -0.951072 0.308968 0
    outer loop
      vertex 43.8743 -3.49476 12
      vertex 43.7191 -3.9725 2
      vertex 43.7191 -3.9725 12
    endloop
  endfacet
  facet normal 0.844383 -0.53574 0
    outer loop
      vertex -43.5052 4.42701 12
      vertex -43.2361 4.85114 2
      vertex -43.2361 4.85114 12
    endloop
  endfacet
  facet normal 0.844383 -0.53574 0
    outer loop
      vertex -43.2361 4.85114 2
      vertex -43.5052 4.42701 12
      vertex -43.5052 4.42701 2
    endloop
  endfacet
  facet normal 0.368162 -0.929762 0
    outer loop
      vertex -41.7031 6.11931 2
      vertex -41.2361 6.30423 12
      vertex -41.7031 6.11931 12
    endloop
  endfacet
  facet normal 0.368162 -0.929762 0
    outer loop
      vertex -41.2361 6.30423 12
      vertex -41.7031 6.11931 2
      vertex -41.2361 6.30423 2
    endloop
  endfacet
  facet normal 0 0 1
    outer loop
      vertex 40.2512 6.49211 2
      vertex 44 2.5 2
      vertex 43.9685 3.00133 2
    endloop
  endfacet
  facet normal 0 0 1
    outer loop
      vertex 44 2.5 2
      vertex 40.2512 6.49211 2
      vertex 44 -2.5 2
    endloop
  endfacet
  facet normal 0 0 1
    outer loop
      vertex 40.2512 6.49211 2
      vertex 43.9685 3.00133 2
      vertex 43.8743 3.49476 2
    endloop
  endfacet
  facet normal 0 0 1
    outer loop
      vertex 40.2512 -6.49211 2
      vertex 44 -2.5 2
      vertex 40.2512 6.49211 2
    endloop
  endfacet
  facet normal 0 0 1
    outer loop
      vertex 40.2512 6.49211 2
      vertex 43.8743 3.49476 2
      vertex 43.7191 3.9725 2
    endloop
  endfacet
  facet normal 0 0 1
    outer loop
      vertex 44 -2.5 2
      vertex 40.2512 -6.49211 2
      vertex 43.9685 -3.00133 2
    endloop
  endfacet
  facet normal 0 0 1
    outer loop
      vertex 40.2512 6.49211 2
      vertex 43.7191 3.9725 2
      vertex 43.5052 4.42701 2
    endloop
  endfacet
  facet normal 0 0 1
    outer loop
      vertex 43.9685 -3.00133 2
      vertex 40.2512 -6.49211 2
      vertex 43.8743 -3.49476 2
    endloop
  endfacet
  facet normal 0 0 1
    outer loop
      vertex 40.2512 6.49211 2
      vertex 43.5052 4.42701 2
      vertex 43.2361 4.85114 2
    endloop
  endfacet
  facet normal 0 0 1
    outer loop
      vertex 43.8743 -3.49476 2
      vertex 40.2512 -6.49211 2
      vertex 43.7191 -3.9725 2
    endloop
  endfacet
  facet normal 0 0 1
    outer loop
      vertex 40.2512 6.49211 2
      vertex 43.2361 4.85114 2
      vertex 42.9159 5.23819 2
    endloop
  endfacet
  facet normal 0 0 1
    outer loop
      vertex 43.7191 -3.9725 2
      vertex 40.2512 -6.49211 2
      vertex 43.5052 -4.42701 2
    endloop
  endfacet
  facet normal 0 0 1
    outer loop
      vertex 40.2512 6.49211 2
      vertex 42.9159 5.23819 2
      vertex 42.5497 5.58205 2
    endloop
  endfacet
  facet normal 0 0 1
    outer loop
      vertex 43.5052 -4.42701 2
      vertex 40.2512 -6.49211 2
      vertex 43.2361 -4.85114 2
    endloop
  endfacet
  facet normal 0 0 1
    outer loop
      vertex 40.2512 6.49211 2
      vertex 42.5497 5.58205 2
      vertex 42.1433 5.87731 2
    endloop
  endfacet
  facet normal 0 0 1
    outer loop
      vertex 43.2361 -4.85114 2
      vertex 40.2512 -6.49211 2
      vertex 42.9159 -5.23819 2
    endloop
  endfacet
  facet normal 0 0 1
    outer loop
      vertex 40.2512 6.49211 2
      vertex 42.1433 5.87731 2
      vertex 41.7031 6.11931 2
    endloop
  endfacet
  facet normal 0 0 1
    outer loop
      vertex 42.9159 -5.23819 2
      vertex 40.2512 -6.49211 2
      vertex 42.5497 -5.58205 2
    endloop
  endfacet
  facet normal 0 0 1
    outer loop
      vertex 40.2512 6.49211 2
      vertex 41.7031 6.11931 2
      vertex 41.2361 6.30423 2
    endloop
  endfacet
  facet normal 0 0 1
    outer loop
      vertex 42.5497 -5.58205 2
      vertex 40.2512 -6.49211 2
      vertex 42.1433 -5.87731 2
    endloop
  endfacet
  facet normal 0 0 1
    outer loop
      vertex 40.2512 6.49211 2
      vertex 41.2361 6.30423 2
      vertex 40.7495 6.42915 2
    endloop
  endfacet
  facet normal 0 0 1
    outer loop
      vertex 42.1433 -5.87731 2
      vertex 40.2512 -6.49211 2
      vertex 41.7031 -6.11931 2
    endloop
  endfacet
  facet normal 0 0 1
    outer loop
      vertex 41.7031 -6.11931 2
      vertex 40.2512 -6.49211 2
      vertex 41.2361 -6.30423 2
    endloop
  endfacet
  facet normal 0 0 1
    outer loop
      vertex 41.2361 -6.30423 2
      vertex 40.2512 -6.49211 2
      vertex 40.7495 -6.42915 2
    endloop
  endfacet
  facet normal -0 0 1
    outer loop
      vertex -40.2512 6.49211 2
      vertex 40.2512 -6.49211 2
      vertex 40.2512 6.49211 2
    endloop
  endfacet
  facet normal 0 0 1
    outer loop
      vertex -40.2512 6.49211 2
      vertex -40.2512 -6.49211 2
      vertex 40.2512 -6.49211 2
    endloop
  endfacet
  facet normal 0 0 1
    outer loop
      vertex -44 2.5 2
      vertex -40.2512 6.49211 2
      vertex -40.7495 6.42915 2
    endloop
  endfacet
  facet normal 0 0 1
    outer loop
      vertex -40.2512 6.49211 2
      vertex -44 2.5 2
      vertex -40.2512 -6.49211 2
    endloop
  endfacet
  facet normal 0 0 1
    outer loop
      vertex -44 2.5 2
      vertex -40.7495 6.42915 2
      vertex -41.2361 6.30423 2
    endloop
  endfacet
  facet normal -0 0 1
    outer loop
      vertex -44 -2.5 2
      vertex -40.2512 -6.49211 2
      vertex -44 2.5 2
    endloop
  endfacet
  facet normal 0 0 1
    outer loop
      vertex -44 2.5 2
      vertex -41.2361 6.30423 2
      vertex -41.7031 6.11931 2
    endloop
  endfacet
  facet normal 0 0 1
    outer loop
      vertex -40.2512 -6.49211 2
      vertex -44 -2.5 2
      vertex -40.7495 -6.42915 2
    endloop
  endfacet
  facet normal 0 0 1
    outer loop
      vertex -44 2.5 2
      vertex -41.7031 6.11931 2
      vertex -42.1433 5.87731 2
    endloop
  endfacet
  facet normal 0 0 1
    outer loop
      vertex -40.7495 -6.42915 2
      vertex -44 -2.5 2
      vertex -41.2361 -6.30423 2
    endloop
  endfacet
  facet normal 0 0 1
    outer loop
      vertex -44 2.5 2
      vertex -42.1433 5.87731 2
      vertex -42.5497 5.58205 2
    endloop
  endfacet
  facet normal 0 0 1
    outer loop
      vertex -41.2361 -6.30423 2
      vertex -44 -2.5 2
      vertex -41.7031 -6.11931 2
    endloop
  endfacet
  facet normal 0 0 1
    outer loop
      vertex -44 2.5 2
      vertex -42.5497 5.58205 2
      vertex -42.9159 5.23819 2
    endloop
  endfacet
  facet normal 0 0 1
    outer loop
      vertex -41.7031 -6.11931 2
      vertex -44 -2.5 2
      vertex -42.1433 -5.87731 2
    endloop
  endfacet
  facet normal 0 0 1
    outer loop
      vertex -44 2.5 2
      vertex -42.9159 5.23819 2
      vertex -43.2361 4.85114 2
    endloop
  endfacet
  facet normal 0 0 1
    outer loop
      vertex -42.1433 -5.87731 2
      vertex -44 -2.5 2
      vertex -42.5497 -5.58205 2
    endloop
  endfacet
  facet normal 0 0 1
    outer loop
      vertex -44 2.5 2
      vertex -43.2361 4.85114 2
      vertex -43.5052 4.42701 2
    endloop
  endfacet
  facet normal 0 0 1
    outer loop
      vertex -42.5497 -5.58205 2
      vertex -44 -2.5 2
      vertex -42.9159 -5.23819 2
    endloop
  endfacet
  facet normal 0 0 1
    outer loop
      vertex -44 2.5 2
      vertex -43.5052 4.42701 2
      vertex -43.7191 3.9725 2
    endloop
  endfacet
  facet normal 0 0 1
    outer loop
      vertex -42.9159 -5.23819 2
      vertex -44 -2.5 2
      vertex -43.2361 -4.85114 2
    endloop
  endfacet
  facet normal 0 0 1
    outer loop
      vertex -44 2.5 2
      vertex -43.7191 3.9725 2
      vertex -43.8743 3.49476 2
    endloop
  endfacet
  facet normal 0 0 1
    outer loop
      vertex -43.2361 -4.85114 2
      vertex -44 -2.5 2
      vertex -43.5052 -4.42701 2
    endloop
  endfacet
  facet normal 0 0 1
    outer loop
      vertex -44 2.5 2
      vertex -43.8743 3.49476 2
      vertex -43.9685 3.00133 2
    endloop
  endfacet
  facet normal 0 0 1
    outer loop
      vertex -43.5052 -4.42701 2
      vertex -44 -2.5 2
      vertex -43.7191 -3.9725 2
    endloop
  endfacet
  facet normal 0 0 1
    outer loop
      vertex -43.7191 -3.9725 2
      vertex -44 -2.5 2
      vertex -43.8743 -3.49476 2
    endloop
  endfacet
  facet normal 0 0 1
    outer loop
      vertex -43.8743 -3.49476 2
      vertex -44 -2.5 2
      vertex -43.9685 -3.00133 2
    endloop
  endfacet
  facet normal 0.951072 0.308968 0
    outer loop
      vertex -43.7191 -3.9725 12
      vertex -43.8743 -3.49476 2
      vertex -43.8743 -3.49476 12
    endloop
  endfacet
  facet normal 0.951072 0.308968 0
    outer loop
      vertex -43.8743 -3.49476 2
      vertex -43.7191 -3.9725 12
      vertex -43.7191 -3.9725 2
    endloop
  endfacet
  facet normal 0.248657 0.968592 -0
    outer loop
      vertex -40.7495 -6.42915 2
      vertex -41.2361 -6.30423 12
      vertex -40.7495 -6.42915 12
    endloop
  endfacet
  facet normal 0.248657 0.968592 0
    outer loop
      vertex -41.2361 -6.30423 12
      vertex -40.7495 -6.42915 2
      vertex -41.2361 -6.30423 2
    endloop
  endfacet
  facet normal -0.368162 0.929762 0
    outer loop
      vertex 41.7031 -6.11931 2
      vertex 41.2361 -6.30423 12
      vertex 41.7031 -6.11931 12
    endloop
  endfacet
  facet normal -0.368162 0.929762 0
    outer loop
      vertex 41.2361 -6.30423 12
      vertex 41.7031 -6.11931 2
      vertex 41.2361 -6.30423 2
    endloop
  endfacet
  facet normal -0.368162 -0.929762 0
    outer loop
      vertex 41.2361 6.30423 2
      vertex 41.7031 6.11931 12
      vertex 41.2361 6.30423 12
    endloop
  endfacet
  facet normal -0.368162 -0.929762 -0
    outer loop
      vertex 41.7031 6.11931 12
      vertex 41.2361 6.30423 2
      vertex 41.7031 6.11931 2
    endloop
  endfacet
  facet normal -0.98226 -0.187522 0
    outer loop
      vertex 43.9685 3.00133 2
      vertex 43.8743 3.49476 12
      vertex 43.8743 3.49476 2
    endloop
  endfacet
  facet normal -0.98226 -0.187522 0
    outer loop
      vertex 43.8743 3.49476 12
      vertex 43.9685 3.00133 2
      vertex 43.9685 3.00133 12
    endloop
  endfacet
  facet normal -0.844383 0.53574 0
    outer loop
      vertex 43.2361 -4.85114 2
      vertex 43.5052 -4.42701 12
      vertex 43.5052 -4.42701 2
    endloop
  endfacet
  facet normal -0.844383 0.53574 0
    outer loop
      vertex 43.5052 -4.42701 12
      vertex 43.2361 -4.85114 2
      vertex 43.2361 -4.85114 12
    endloop
  endfacet
  facet normal -0.98226 0.187522 0
    outer loop
      vertex 43.8743 -3.49476 2
      vertex 43.9685 -3.00133 12
      vertex 43.9685 -3.00133 2
    endloop
  endfacet
  facet normal -0.98226 0.187522 0
    outer loop
      vertex 43.9685 -3.00133 12
      vertex 43.8743 -3.49476 2
      vertex 43.8743 -3.49476 12
    endloop
  endfacet
  facet normal 0.951072 -0.308968 0
    outer loop
      vertex -43.8743 3.49476 12
      vertex -43.7191 3.9725 2
      vertex -43.7191 3.9725 12
    endloop
  endfacet
  facet normal 0.951072 -0.308968 0
    outer loop
      vertex -43.7191 3.9725 2
      vertex -43.8743 3.49476 12
      vertex -43.8743 3.49476 2
    endloop
  endfacet
  facet normal 0.904809 -0.425818 0
    outer loop
      vertex -43.7191 3.9725 12
      vertex -43.5052 4.42701 2
      vertex -43.5052 4.42701 12
    endloop
  endfacet
  facet normal 0.904809 -0.425818 0
    outer loop
      vertex -43.5052 4.42701 2
      vertex -43.7191 3.9725 12
      vertex -43.7191 3.9725 2
    endloop
  endfacet
  facet normal 0.770509 0.637429 0
    outer loop
      vertex -42.9159 -5.23819 12
      vertex -43.2361 -4.85114 2
      vertex -43.2361 -4.85114 12
    endloop
  endfacet
  facet normal 0.770509 0.637429 0
    outer loop
      vertex -43.2361 -4.85114 2
      vertex -42.9159 -5.23819 12
      vertex -42.9159 -5.23819 2
    endloop
  endfacet
  facet normal 0.98226 0.187522 0
    outer loop
      vertex -43.8743 -3.49476 12
      vertex -43.9685 -3.00133 2
      vertex -43.9685 -3.00133 12
    endloop
  endfacet
  facet normal 0.98226 0.187522 0
    outer loop
      vertex -43.9685 -3.00133 2
      vertex -43.8743 -3.49476 12
      vertex -43.8743 -3.49476 2
    endloop
  endfacet
  facet normal 0.125353 0.992112 -0
    outer loop
      vertex -40.2512 -6.49211 2
      vertex -40.7495 -6.42915 12
      vertex -40.2512 -6.49211 12
    endloop
  endfacet
  facet normal 0.125353 0.992112 0
    outer loop
      vertex -40.7495 -6.42915 12
      vertex -40.2512 -6.49211 2
      vertex -40.7495 -6.42915 2
    endloop
  endfacet
  facet normal -0.684521 0.728993 0
    outer loop
      vertex 42.9159 -5.23819 2
      vertex 42.5497 -5.58205 12
      vertex 42.9159 -5.23819 12
    endloop
  endfacet
  facet normal -0.684521 0.728993 0
    outer loop
      vertex 42.5497 -5.58205 12
      vertex 42.9159 -5.23819 2
      vertex 42.5497 -5.58205 2
    endloop
  endfacet
  facet normal -0.587776 0.809024 0
    outer loop
      vertex 42.5497 -5.58205 2
      vertex 42.1433 -5.87731 12
      vertex 42.5497 -5.58205 12
    endloop
  endfacet
  facet normal -0.587776 0.809024 0
    outer loop
      vertex 42.1433 -5.87731 12
      vertex 42.5497 -5.58205 2
      vertex 42.1433 -5.87731 2
    endloop
  endfacet
  facet normal -0.248657 0.968592 0
    outer loop
      vertex 41.2361 -6.30423 2
      vertex 40.7495 -6.42915 12
      vertex 41.2361 -6.30423 12
    endloop
  endfacet
  facet normal -0.248657 0.968592 0
    outer loop
      vertex 40.7495 -6.42915 12
      vertex 41.2361 -6.30423 2
      vertex 40.7495 -6.42915 2
    endloop
  endfacet
  facet normal -0.125353 0.992112 0
    outer loop
      vertex 40.7495 -6.42915 2
      vertex 40.2512 -6.49211 12
      vertex 40.7495 -6.42915 12
    endloop
  endfacet
  facet normal -0.125353 0.992112 0
    outer loop
      vertex 40.2512 -6.49211 12
      vertex 40.7495 -6.42915 2
      vertex 40.2512 -6.49211 2
    endloop
  endfacet
  facet normal -0.248657 -0.968592 0
    outer loop
      vertex 40.7495 6.42915 2
      vertex 41.2361 6.30423 12
      vertex 40.7495 6.42915 12
    endloop
  endfacet
  facet normal -0.248657 -0.968592 -0
    outer loop
      vertex 41.2361 6.30423 12
      vertex 40.7495 6.42915 2
      vertex 41.2361 6.30423 2
    endloop
  endfacet
  facet normal -0.844383 -0.53574 0
    outer loop
      vertex 43.5052 4.42701 2
      vertex 43.2361 4.85114 12
      vertex 43.2361 4.85114 2
    endloop
  endfacet
  facet normal -0.844383 -0.53574 0
    outer loop
      vertex 43.2361 4.85114 12
      vertex 43.5052 4.42701 2
      vertex 43.5052 4.42701 12
    endloop
  endfacet
  facet normal -0.904809 -0.425818 0
    outer loop
      vertex 43.7191 3.9725 2
      vertex 43.5052 4.42701 12
      vertex 43.5052 4.42701 2
    endloop
  endfacet
  facet normal -0.904809 -0.425818 0
    outer loop
      vertex 43.5052 4.42701 12
      vertex 43.7191 3.9725 2
      vertex 43.7191 3.9725 12
    endloop
  endfacet
  facet normal -0.904809 0.425818 0
    outer loop
      vertex 43.5052 -4.42701 2
      vertex 43.7191 -3.9725 12
      vertex 43.7191 -3.9725 2
    endloop
  endfacet
  facet normal -0.904809 0.425818 0
    outer loop
      vertex 43.7191 -3.9725 12
      vertex 43.5052 -4.42701 2
      vertex 43.5052 -4.42701 12
    endloop
  endfacet
  facet normal 0.98226 -0.187522 0
    outer loop
      vertex -43.9685 3.00133 12
      vertex -43.8743 3.49476 2
      vertex -43.8743 3.49476 12
    endloop
  endfacet
  facet normal 0.98226 -0.187522 0
    outer loop
      vertex -43.8743 3.49476 2
      vertex -43.9685 3.00133 12
      vertex -43.9685 3.00133 2
    endloop
  endfacet
  facet normal 0.587776 -0.809024 0
    outer loop
      vertex -42.5497 5.58205 2
      vertex -42.1433 5.87731 12
      vertex -42.5497 5.58205 12
    endloop
  endfacet
  facet normal 0.587776 -0.809024 0
    outer loop
      vertex -42.1433 5.87731 12
      vertex -42.5497 5.58205 2
      vertex -42.1433 5.87731 2
    endloop
  endfacet
  facet normal 0.248657 -0.968592 0
    outer loop
      vertex -41.2361 6.30423 2
      vertex -40.7495 6.42915 12
      vertex -41.2361 6.30423 12
    endloop
  endfacet
  facet normal 0.248657 -0.968592 0
    outer loop
      vertex -40.7495 6.42915 12
      vertex -41.2361 6.30423 2
      vertex -40.7495 6.42915 2
    endloop
  endfacet
  facet normal 0.125353 -0.992112 0
    outer loop
      vertex -40.7495 6.42915 2
      vertex -40.2512 6.49211 12
      vertex -40.7495 6.42915 12
    endloop
  endfacet
  facet normal 0.125353 -0.992112 0
    outer loop
      vertex -40.2512 6.49211 12
      vertex -40.7495 6.42915 2
      vertex -40.2512 6.49211 2
    endloop
  endfacet
  facet normal 0.904809 0.425818 0
    outer loop
      vertex -43.5052 -4.42701 12
      vertex -43.7191 -3.9725 2
      vertex -43.7191 -3.9725 12
    endloop
  endfacet
  facet normal 0.904809 0.425818 0
    outer loop
      vertex -43.7191 -3.9725 2
      vertex -43.5052 -4.42701 12
      vertex -43.5052 -4.42701 2
    endloop
  endfacet
  facet normal 0.684521 0.728993 -0
    outer loop
      vertex -42.5497 -5.58205 2
      vertex -42.9159 -5.23819 12
      vertex -42.5497 -5.58205 12
    endloop
  endfacet
  facet normal 0.684521 0.728993 0
    outer loop
      vertex -42.9159 -5.23819 12
      vertex -42.5497 -5.58205 2
      vertex -42.9159 -5.23819 2
    endloop
  endfacet
  facet normal 0.481751 0.876308 -0
    outer loop
      vertex -41.7031 -6.11931 2
      vertex -42.1433 -5.87731 12
      vertex -41.7031 -6.11931 12
    endloop
  endfacet
  facet normal 0.481751 0.876308 0
    outer loop
      vertex -42.1433 -5.87731 12
      vertex -41.7031 -6.11931 2
      vertex -42.1433 -5.87731 2
    endloop
  endfacet
  facet normal 0.587776 0.809024 -0
    outer loop
      vertex -42.1433 -5.87731 2
      vertex -42.5497 -5.58205 12
      vertex -42.1433 -5.87731 12
    endloop
  endfacet
  facet normal 0.587776 0.809024 0
    outer loop
      vertex -42.5497 -5.58205 12
      vertex -42.1433 -5.87731 2
      vertex -42.5497 -5.58205 2
    endloop
  endfacet
  facet normal -0.587776 -0.809024 0
    outer loop
      vertex 42.1433 5.87731 2
      vertex 42.5497 5.58205 12
      vertex 42.1433 5.87731 12
    endloop
  endfacet
  facet normal -0.587776 -0.809024 -0
    outer loop
      vertex 42.5497 5.58205 12
      vertex 42.1433 5.87731 2
      vertex 42.5497 5.58205 2
    endloop
  endfacet
  facet normal -0.684521 -0.728993 0
    outer loop
      vertex 42.5497 5.58205 2
      vertex 42.9159 5.23819 12
      vertex 42.5497 5.58205 12
    endloop
  endfacet
  facet normal -0.684521 -0.728993 -0
    outer loop
      vertex 42.9159 5.23819 12
      vertex 42.5497 5.58205 2
      vertex 42.9159 5.23819 2
    endloop
  endfacet
  facet normal 0.770509 -0.637429 0
    outer loop
      vertex -43.2361 4.85114 12
      vertex -42.9159 5.23819 2
      vertex -42.9159 5.23819 12
    endloop
  endfacet
  facet normal 0.770509 -0.637429 0
    outer loop
      vertex -42.9159 5.23819 2
      vertex -43.2361 4.85114 12
      vertex -43.2361 4.85114 2
    endloop
  endfacet
  facet normal 0.684521 -0.728993 0
    outer loop
      vertex -42.9159 5.23819 2
      vertex -42.5497 5.58205 12
      vertex -42.9159 5.23819 12
    endloop
  endfacet
  facet normal 0.684521 -0.728993 0
    outer loop
      vertex -42.5497 5.58205 12
      vertex -42.9159 5.23819 2
      vertex -42.5497 5.58205 2
    endloop
  endfacet
  facet normal 0.481751 -0.876308 0
    outer loop
      vertex -42.1433 5.87731 2
      vertex -41.7031 6.11931 12
      vertex -42.1433 5.87731 12
    endloop
  endfacet
  facet normal 0.481751 -0.876308 0
    outer loop
      vertex -41.7031 6.11931 12
      vertex -42.1433 5.87731 2
      vertex -41.7031 6.11931 2
    endloop
  endfacet
  facet normal 0.844383 0.53574 0
    outer loop
      vertex -43.2361 -4.85114 12
      vertex -43.5052 -4.42701 2
      vertex -43.5052 -4.42701 12
    endloop
  endfacet
  facet normal 0.844383 0.53574 0
    outer loop
      vertex -43.5052 -4.42701 2
      vertex -43.2361 -4.85114 12
      vertex -43.2361 -4.85114 2
    endloop
  endfacet
endsolid OpenSCAD_Model
