solid OpenSCAD_Model
  facet normal -0.99803 0.0627451 0
    outer loop
      vertex -90 92.5 0
      vertex -89.9606 93.1267 18
      vertex -89.9606 93.1267 0
    endloop
  endfacet
  facet normal -0.99803 0.0627451 0
    outer loop
      vertex -89.9606 93.1267 18
      vertex -90 92.5 0
      vertex -90 92.5 18
    endloop
  endfacet
  facet normal -1 0 0
    outer loop
      vertex -90 -92.5 0
      vertex -90 92.5 18
      vertex -90 92.5 0
    endloop
  endfacet
  facet normal -1 -0 0
    outer loop
      vertex -90 92.5 18
      vertex -90 -92.5 0
      vertex -90 -92.5 18
    endloop
  endfacet
  facet normal 0.99803 -0.0627451 0
    outer loop
      vertex 89.9606 -93.1267 18
      vertex 90 -92.5 0
      vertex 90 -92.5 18
    endloop
  endfacet
  facet normal 0.99803 -0.0627451 0
    outer loop
      vertex 90 -92.5 0
      vertex 89.9606 -93.1267 18
      vertex 89.9606 -93.1267 0
    endloop
  endfacet
  facet normal 1 -0 0
    outer loop
      vertex 90 -92.5 18
      vertex 90 92.5 0
      vertex 90 92.5 18
    endloop
  endfacet
  facet normal 1 0 0
    outer loop
      vertex 90 92.5 0
      vertex 90 -92.5 18
      vertex 90 -92.5 0
    endloop
  endfacet
  facet normal 0 0 1
    outer loop
      vertex 89 92.5 18
      vertex 90 92.5 18
      vertex 89.9606 93.1267 18
    endloop
  endfacet
  facet normal 0 0 1
    outer loop
      vertex 90 92.5 18
      vertex 89 92.5 18
      vertex 90 -92.5 18
    endloop
  endfacet
  facet normal 0 0 1
    outer loop
      vertex 88.9685 93.0013 18
      vertex 89.9606 93.1267 18
      vertex 89.8429 93.7434 18
    endloop
  endfacet
  facet normal 0 0 1
    outer loop
      vertex 89 -92.5 18
      vertex 90 -92.5 18
      vertex 89 92.5 18
    endloop
  endfacet
  facet normal 0 0 1
    outer loop
      vertex 88.8743 93.4948 18
      vertex 89.8429 93.7434 18
      vertex 89.6489 94.3406 18
    endloop
  endfacet
  facet normal 0 0 1
    outer loop
      vertex 90 -92.5 18
      vertex 89 -92.5 18
      vertex 89.9606 -93.1267 18
    endloop
  endfacet
  facet normal 0 0 1
    outer loop
      vertex 88.7191 93.9725 18
      vertex 89.6489 94.3406 18
      vertex 89.3815 94.9088 18
    endloop
  endfacet
  facet normal -0 0 1
    outer loop
      vertex 88.9685 -93.0013 18
      vertex 89.9606 -93.1267 18
      vertex 89 -92.5 18
    endloop
  endfacet
  facet normal 0 0 1
    outer loop
      vertex 88.5052 94.427 18
      vertex 89.3815 94.9088 18
      vertex 89.0451 95.4389 18
    endloop
  endfacet
  facet normal 0 0 1
    outer loop
      vertex 89.9606 -93.1267 18
      vertex 88.9685 -93.0013 18
      vertex 89.8429 -93.7434 18
    endloop
  endfacet
  facet normal -0 0 1
    outer loop
      vertex 88.8743 -93.4948 18
      vertex 89.8429 -93.7434 18
      vertex 88.9685 -93.0013 18
    endloop
  endfacet
  facet normal 0 0 1
    outer loop
      vertex 89.9606 93.1267 18
      vertex 88.9685 93.0013 18
      vertex 89 92.5 18
    endloop
  endfacet
  facet normal 0 0 1
    outer loop
      vertex 89.8429 93.7434 18
      vertex 88.8743 93.4948 18
      vertex 88.9685 93.0013 18
    endloop
  endfacet
  facet normal 0 0 1
    outer loop
      vertex 89.6489 94.3406 18
      vertex 88.7191 93.9725 18
      vertex 88.8743 93.4948 18
    endloop
  endfacet
  facet normal 0 0 1
    outer loop
      vertex 88.2361 94.8511 18
      vertex 89.0451 95.4389 18
      vertex 88.6448 95.9227 18
    endloop
  endfacet
  facet normal 0 0 1
    outer loop
      vertex 89.3815 94.9088 18
      vertex 88.5052 94.427 18
      vertex 88.7191 93.9725 18
    endloop
  endfacet
  facet normal 0 0 1
    outer loop
      vertex 89.0451 95.4389 18
      vertex 88.2361 94.8511 18
      vertex 88.5052 94.427 18
    endloop
  endfacet
  facet normal 0 0 1
    outer loop
      vertex 87.9159 95.2382 18
      vertex 88.6448 95.9227 18
      vertex 88.1871 96.3526 18
    endloop
  endfacet
  facet normal 0 0 1
    outer loop
      vertex 88.6448 95.9227 18
      vertex 87.9159 95.2382 18
      vertex 88.2361 94.8511 18
    endloop
  endfacet
  facet normal 0 0 1
    outer loop
      vertex 87.5497 95.5821 18
      vertex 88.1871 96.3526 18
      vertex 87.6791 96.7216 18
    endloop
  endfacet
  facet normal 0 0 1
    outer loop
      vertex 88.1871 96.3526 18
      vertex 87.5497 95.5821 18
      vertex 87.9159 95.2382 18
    endloop
  endfacet
  facet normal 0 0 1
    outer loop
      vertex 87.6791 96.7216 18
      vertex 87.1433 95.8773 18
      vertex 87.5497 95.5821 18
    endloop
  endfacet
  facet normal 0 0 1
    outer loop
      vertex 87.1289 97.0241 18
      vertex 87.1433 95.8773 18
      vertex 87.6791 96.7216 18
    endloop
  endfacet
  facet normal 0 0 1
    outer loop
      vertex 87.1289 97.0241 18
      vertex 86.7031 96.1193 18
      vertex 87.1433 95.8773 18
    endloop
  endfacet
  facet normal 0 0 1
    outer loop
      vertex 86.5451 97.2553 18
      vertex 86.7031 96.1193 18
      vertex 87.1289 97.0241 18
    endloop
  endfacet
  facet normal 0 0 1
    outer loop
      vertex 86.5451 97.2553 18
      vertex 86.2361 96.3042 18
      vertex 86.7031 96.1193 18
    endloop
  endfacet
  facet normal 0 0 1
    outer loop
      vertex 85.9369 97.4114 18
      vertex 86.2361 96.3042 18
      vertex 86.5451 97.2553 18
    endloop
  endfacet
  facet normal 0 0 1
    outer loop
      vertex 85.9369 97.4114 18
      vertex 85.7495 96.4291 18
      vertex 86.2361 96.3042 18
    endloop
  endfacet
  facet normal 0 0 1
    outer loop
      vertex 85.3139 97.4901 18
      vertex 85.7495 96.4291 18
      vertex 85.9369 97.4114 18
    endloop
  endfacet
  facet normal 0 0 1
    outer loop
      vertex 85.3139 97.4901 18
      vertex 85.2512 96.4921 18
      vertex 85.7495 96.4291 18
    endloop
  endfacet
  facet normal 0 0 1
    outer loop
      vertex 85.3139 97.4901 18
      vertex -85.2512 96.4921 18
      vertex 85.2512 96.4921 18
    endloop
  endfacet
  facet normal -0 0 1
    outer loop
      vertex -85.3139 97.4901 18
      vertex -85.2512 96.4921 18
      vertex 85.3139 97.4901 18
    endloop
  endfacet
  facet normal 0 0 1
    outer loop
      vertex -85.3139 97.4901 18
      vertex -85.7495 96.4291 18
      vertex -85.2512 96.4921 18
    endloop
  endfacet
  facet normal -0 0 1
    outer loop
      vertex -85.9369 97.4114 18
      vertex -85.7495 96.4291 18
      vertex -85.3139 97.4901 18
    endloop
  endfacet
  facet normal 0 0 1
    outer loop
      vertex -85.9369 97.4114 18
      vertex -86.2361 96.3042 18
      vertex -85.7495 96.4291 18
    endloop
  endfacet
  facet normal -0 0 1
    outer loop
      vertex -86.5451 97.2553 18
      vertex -86.2361 96.3042 18
      vertex -85.9369 97.4114 18
    endloop
  endfacet
  facet normal 0 0 1
    outer loop
      vertex -86.5451 97.2553 18
      vertex -86.7031 96.1193 18
      vertex -86.2361 96.3042 18
    endloop
  endfacet
  facet normal -0 0 1
    outer loop
      vertex -87.1289 97.0241 18
      vertex -86.7031 96.1193 18
      vertex -86.5451 97.2553 18
    endloop
  endfacet
  facet normal 0 0 1
    outer loop
      vertex -87.1289 97.0241 18
      vertex -87.1433 95.8773 18
      vertex -86.7031 96.1193 18
    endloop
  endfacet
  facet normal -0 0 1
    outer loop
      vertex -87.6791 96.7216 18
      vertex -87.1433 95.8773 18
      vertex -87.1289 97.0241 18
    endloop
  endfacet
  facet normal 0 0 1
    outer loop
      vertex -87.1433 95.8773 18
      vertex -87.6791 96.7216 18
      vertex -87.5497 95.5821 18
    endloop
  endfacet
  facet normal -0 0 1
    outer loop
      vertex -88.1871 96.3526 18
      vertex -87.5497 95.5821 18
      vertex -87.6791 96.7216 18
    endloop
  endfacet
  facet normal 0 0 1
    outer loop
      vertex -87.5497 95.5821 18
      vertex -88.1871 96.3526 18
      vertex -87.9159 95.2382 18
    endloop
  endfacet
  facet normal -0 0 1
    outer loop
      vertex -88.6448 95.9227 18
      vertex -87.9159 95.2382 18
      vertex -88.1871 96.3526 18
    endloop
  endfacet
  facet normal 0 0 1
    outer loop
      vertex -87.9159 95.2382 18
      vertex -88.6448 95.9227 18
      vertex -88.2361 94.8511 18
    endloop
  endfacet
  facet normal -0 0 1
    outer loop
      vertex -89.0451 95.4389 18
      vertex -88.2361 94.8511 18
      vertex -88.6448 95.9227 18
    endloop
  endfacet
  facet normal 0 0 1
    outer loop
      vertex -88.2361 94.8511 18
      vertex -89.0451 95.4389 18
      vertex -88.5052 94.427 18
    endloop
  endfacet
  facet normal -0 0 1
    outer loop
      vertex -89.3815 94.9088 18
      vertex -88.5052 94.427 18
      vertex -89.0451 95.4389 18
    endloop
  endfacet
  facet normal 0 0 1
    outer loop
      vertex -88.5052 94.427 18
      vertex -89.3815 94.9088 18
      vertex -88.7191 93.9725 18
    endloop
  endfacet
  facet normal -0 0 1
    outer loop
      vertex -89.8429 93.7434 18
      vertex -88.8743 93.4948 18
      vertex -89.6489 94.3406 18
    endloop
  endfacet
  facet normal 0 0 1
    outer loop
      vertex -88.7191 93.9725 18
      vertex -89.6489 94.3406 18
      vertex -88.8743 93.4948 18
    endloop
  endfacet
  facet normal -0 0 1
    outer loop
      vertex -89.6489 94.3406 18
      vertex -88.7191 93.9725 18
      vertex -89.3815 94.9088 18
    endloop
  endfacet
  facet normal 0 0 1
    outer loop
      vertex 89.8429 -93.7434 18
      vertex 88.8743 -93.4948 18
      vertex 89.6489 -94.3406 18
    endloop
  endfacet
  facet normal -0 0 1
    outer loop
      vertex 88.7191 -93.9725 18
      vertex 89.6489 -94.3406 18
      vertex 88.8743 -93.4948 18
    endloop
  endfacet
  facet normal 0 0 1
    outer loop
      vertex 89.6489 -94.3406 18
      vertex 88.7191 -93.9725 18
      vertex 89.3815 -94.9088 18
    endloop
  endfacet
  facet normal -0 0 1
    outer loop
      vertex 88.5052 -94.427 18
      vertex 89.3815 -94.9088 18
      vertex 88.7191 -93.9725 18
    endloop
  endfacet
  facet normal 0 0 1
    outer loop
      vertex 89.3815 -94.9088 18
      vertex 88.5052 -94.427 18
      vertex 89.0451 -95.4389 18
    endloop
  endfacet
  facet normal -0 0 1
    outer loop
      vertex 88.2361 -94.8511 18
      vertex 89.0451 -95.4389 18
      vertex 88.5052 -94.427 18
    endloop
  endfacet
  facet normal 0 0 1
    outer loop
      vertex 89.0451 -95.4389 18
      vertex 88.2361 -94.8511 18
      vertex 88.6448 -95.9227 18
    endloop
  endfacet
  facet normal -0 0 1
    outer loop
      vertex 87.9159 -95.2382 18
      vertex 88.6448 -95.9227 18
      vertex 88.2361 -94.8511 18
    endloop
  endfacet
  facet normal 0 0 1
    outer loop
      vertex 88.6448 -95.9227 18
      vertex 87.9159 -95.2382 18
      vertex 88.1871 -96.3526 18
    endloop
  endfacet
  facet normal -0 0 1
    outer loop
      vertex 87.5497 -95.5821 18
      vertex 88.1871 -96.3526 18
      vertex 87.9159 -95.2382 18
    endloop
  endfacet
  facet normal 0 0 1
    outer loop
      vertex 88.1871 -96.3526 18
      vertex 87.5497 -95.5821 18
      vertex 87.6791 -96.7216 18
    endloop
  endfacet
  facet normal -0 0 1
    outer loop
      vertex 87.1433 -95.8773 18
      vertex 87.6791 -96.7216 18
      vertex 87.5497 -95.5821 18
    endloop
  endfacet
  facet normal 0 0 1
    outer loop
      vertex 87.1433 -95.8773 18
      vertex 87.1289 -97.0241 18
      vertex 87.6791 -96.7216 18
    endloop
  endfacet
  facet normal -0 0 1
    outer loop
      vertex 86.7031 -96.1193 18
      vertex 87.1289 -97.0241 18
      vertex 87.1433 -95.8773 18
    endloop
  endfacet
  facet normal 0 0 1
    outer loop
      vertex 86.7031 -96.1193 18
      vertex 86.5451 -97.2553 18
      vertex 87.1289 -97.0241 18
    endloop
  endfacet
  facet normal -0 0 1
    outer loop
      vertex 86.2361 -96.3042 18
      vertex 86.5451 -97.2553 18
      vertex 86.7031 -96.1193 18
    endloop
  endfacet
  facet normal 0 0 1
    outer loop
      vertex 86.2361 -96.3042 18
      vertex 85.9369 -97.4114 18
      vertex 86.5451 -97.2553 18
    endloop
  endfacet
  facet normal -0 0 1
    outer loop
      vertex 85.7495 -96.4291 18
      vertex 85.9369 -97.4114 18
      vertex 86.2361 -96.3042 18
    endloop
  endfacet
  facet normal 0 0 1
    outer loop
      vertex 85.7495 -96.4291 18
      vertex 85.3139 -97.4901 18
      vertex 85.9369 -97.4114 18
    endloop
  endfacet
  facet normal -0 0 1
    outer loop
      vertex 85.2512 -96.4921 18
      vertex 85.3139 -97.4901 18
      vertex 85.7495 -96.4291 18
    endloop
  endfacet
  facet normal -0 0 1
    outer loop
      vertex -85.2512 -96.4921 18
      vertex 85.3139 -97.4901 18
      vertex 85.2512 -96.4921 18
    endloop
  endfacet
  facet normal 0 0 1
    outer loop
      vertex -85.2512 -96.4921 18
      vertex -85.3139 -97.4901 18
      vertex 85.3139 -97.4901 18
    endloop
  endfacet
  facet normal 0 0 1
    outer loop
      vertex -85.7495 -96.4291 18
      vertex -85.3139 -97.4901 18
      vertex -85.2512 -96.4921 18
    endloop
  endfacet
  facet normal 0 0 1
    outer loop
      vertex -85.7495 -96.4291 18
      vertex -85.9369 -97.4114 18
      vertex -85.3139 -97.4901 18
    endloop
  endfacet
  facet normal 0 0 1
    outer loop
      vertex -86.2361 -96.3042 18
      vertex -85.9369 -97.4114 18
      vertex -85.7495 -96.4291 18
    endloop
  endfacet
  facet normal 0 0 1
    outer loop
      vertex -86.2361 -96.3042 18
      vertex -86.5451 -97.2553 18
      vertex -85.9369 -97.4114 18
    endloop
  endfacet
  facet normal 0 0 1
    outer loop
      vertex -86.7031 -96.1193 18
      vertex -86.5451 -97.2553 18
      vertex -86.2361 -96.3042 18
    endloop
  endfacet
  facet normal 0 0 1
    outer loop
      vertex -86.7031 -96.1193 18
      vertex -87.1289 -97.0241 18
      vertex -86.5451 -97.2553 18
    endloop
  endfacet
  facet normal 0 0 1
    outer loop
      vertex -87.1433 -95.8773 18
      vertex -87.1289 -97.0241 18
      vertex -86.7031 -96.1193 18
    endloop
  endfacet
  facet normal 0 0 1
    outer loop
      vertex -87.6791 -96.7216 18
      vertex -87.1433 -95.8773 18
      vertex -87.5497 -95.5821 18
    endloop
  endfacet
  facet normal 0 0 1
    outer loop
      vertex -87.1433 -95.8773 18
      vertex -87.6791 -96.7216 18
      vertex -87.1289 -97.0241 18
    endloop
  endfacet
  facet normal 0 0 1
    outer loop
      vertex -88.1871 -96.3526 18
      vertex -87.5497 -95.5821 18
      vertex -87.9159 -95.2382 18
    endloop
  endfacet
  facet normal 0 0 1
    outer loop
      vertex -87.5497 -95.5821 18
      vertex -88.1871 -96.3526 18
      vertex -87.6791 -96.7216 18
    endloop
  endfacet
  facet normal 0 0 1
    outer loop
      vertex -88.6448 -95.9227 18
      vertex -87.9159 -95.2382 18
      vertex -88.2361 -94.8511 18
    endloop
  endfacet
  facet normal 0 0 1
    outer loop
      vertex -89.0451 -95.4389 18
      vertex -88.2361 -94.8511 18
      vertex -88.5052 -94.427 18
    endloop
  endfacet
  facet normal 0 0 1
    outer loop
      vertex -87.9159 -95.2382 18
      vertex -88.6448 -95.9227 18
      vertex -88.1871 -96.3526 18
    endloop
  endfacet
  facet normal 0 0 1
    outer loop
      vertex -89.3815 -94.9088 18
      vertex -88.5052 -94.427 18
      vertex -88.7191 -93.9725 18
    endloop
  endfacet
  facet normal 0 0 1
    outer loop
      vertex -89.6489 -94.3406 18
      vertex -88.7191 -93.9725 18
      vertex -88.8743 -93.4948 18
    endloop
  endfacet
  facet normal 0 0 1
    outer loop
      vertex -89.8429 -93.7434 18
      vertex -88.8743 -93.4948 18
      vertex -88.9685 -93.0013 18
    endloop
  endfacet
  facet normal 0 0 1
    outer loop
      vertex -88.2361 -94.8511 18
      vertex -89.0451 -95.4389 18
      vertex -88.6448 -95.9227 18
    endloop
  endfacet
  facet normal 0 0 1
    outer loop
      vertex -89.9606 -93.1267 18
      vertex -88.9685 -93.0013 18
      vertex -89 -92.5 18
    endloop
  endfacet
  facet normal 0 0 1
    outer loop
      vertex -89 92.5 18
      vertex -90 92.5 18
      vertex -89 -92.5 18
    endloop
  endfacet
  facet normal 0 0 1
    outer loop
      vertex -88.8743 93.4948 18
      vertex -89.8429 93.7434 18
      vertex -88.9685 93.0013 18
    endloop
  endfacet
  facet normal 0 0 1
    outer loop
      vertex -90 -92.5 18
      vertex -89 -92.5 18
      vertex -90 92.5 18
    endloop
  endfacet
  facet normal -0 0 1
    outer loop
      vertex -89.9606 93.1267 18
      vertex -88.9685 93.0013 18
      vertex -89.8429 93.7434 18
    endloop
  endfacet
  facet normal 0 -0 1
    outer loop
      vertex -89.9606 -93.1267 18
      vertex -89 -92.5 18
      vertex -90 -92.5 18
    endloop
  endfacet
  facet normal 0 0 1
    outer loop
      vertex -88.9685 93.0013 18
      vertex -89.9606 93.1267 18
      vertex -89 92.5 18
    endloop
  endfacet
  facet normal 0 0 1
    outer loop
      vertex -88.5052 -94.427 18
      vertex -89.3815 -94.9088 18
      vertex -89.0451 -95.4389 18
    endloop
  endfacet
  facet normal 0 0 1
    outer loop
      vertex -89 92.5 18
      vertex -89.9606 93.1267 18
      vertex -90 92.5 18
    endloop
  endfacet
  facet normal 0 0 1
    outer loop
      vertex -88.7191 -93.9725 18
      vertex -89.6489 -94.3406 18
      vertex -89.3815 -94.9088 18
    endloop
  endfacet
  facet normal 0 0 1
    outer loop
      vertex -88.8743 -93.4948 18
      vertex -89.8429 -93.7434 18
      vertex -89.6489 -94.3406 18
    endloop
  endfacet
  facet normal 0 0 1
    outer loop
      vertex -88.9685 -93.0013 18
      vertex -89.9606 -93.1267 18
      vertex -89.8429 -93.7434 18
    endloop
  endfacet
  facet normal 0 1 -0
    outer loop
      vertex 85.3139 97.4901 0
      vertex -85.3139 97.4901 18
      vertex 85.3139 97.4901 18
    endloop
  endfacet
  facet normal 0 1 0
    outer loop
      vertex -85.3139 97.4901 18
      vertex 85.3139 97.4901 0
      vertex -85.3139 97.4901 0
    endloop
  endfacet
  facet normal 0 0 -1
    outer loop
      vertex 85.3139 -97.4901 0
      vertex 90 -92.5 0
      vertex 89.9606 -93.1267 0
    endloop
  endfacet
  facet normal 0 0 -1
    outer loop
      vertex 90 -92.5 0
      vertex -90 -92.5 0
      vertex 90 92.5 0
    endloop
  endfacet
  facet normal 0 0 -1
    outer loop
      vertex 85.3139 -97.4901 0
      vertex 89.9606 -93.1267 0
      vertex 89.8429 -93.7434 0
    endloop
  endfacet
  facet normal -0 0 -1
    outer loop
      vertex 90 -92.5 0
      vertex 85.3139 -97.4901 0
      vertex -90 -92.5 0
    endloop
  endfacet
  facet normal 0 0 -1
    outer loop
      vertex 85.3139 -97.4901 0
      vertex 89.8429 -93.7434 0
      vertex 89.6489 -94.3406 0
    endloop
  endfacet
  facet normal 0 0 -1
    outer loop
      vertex -90 92.5 0
      vertex 90 92.5 0
      vertex -90 -92.5 0
    endloop
  endfacet
  facet normal 0 0 -1
    outer loop
      vertex 85.3139 -97.4901 0
      vertex 89.6489 -94.3406 0
      vertex 89.3815 -94.9088 0
    endloop
  endfacet
  facet normal 0 0 -1
    outer loop
      vertex 89.9606 93.1267 0
      vertex 85.3139 97.4901 0
      vertex 89.8429 93.7434 0
    endloop
  endfacet
  facet normal 0 0 -1
    outer loop
      vertex 85.3139 -97.4901 0
      vertex 89.3815 -94.9088 0
      vertex 89.0451 -95.4389 0
    endloop
  endfacet
  facet normal 0 0 -1
    outer loop
      vertex 89.8429 93.7434 0
      vertex 85.3139 97.4901 0
      vertex 89.6489 94.3406 0
    endloop
  endfacet
  facet normal 0 0 -1
    outer loop
      vertex 85.3139 -97.4901 0
      vertex 89.0451 -95.4389 0
      vertex 88.6448 -95.9227 0
    endloop
  endfacet
  facet normal 0 0 -1
    outer loop
      vertex 89.6489 94.3406 0
      vertex 85.3139 97.4901 0
      vertex 89.3815 94.9088 0
    endloop
  endfacet
  facet normal 0 0 -1
    outer loop
      vertex 85.3139 -97.4901 0
      vertex 88.6448 -95.9227 0
      vertex 88.1871 -96.3526 0
    endloop
  endfacet
  facet normal 0 0 -1
    outer loop
      vertex 89.3815 94.9088 0
      vertex 85.3139 97.4901 0
      vertex 89.0451 95.4389 0
    endloop
  endfacet
  facet normal 0 0 -1
    outer loop
      vertex 85.3139 -97.4901 0
      vertex 88.1871 -96.3526 0
      vertex 87.6791 -96.7216 0
    endloop
  endfacet
  facet normal 0 0 -1
    outer loop
      vertex 89.0451 95.4389 0
      vertex 85.3139 97.4901 0
      vertex 88.6448 95.9227 0
    endloop
  endfacet
  facet normal 0 0 -1
    outer loop
      vertex 85.3139 -97.4901 0
      vertex 87.6791 -96.7216 0
      vertex 87.1289 -97.0241 0
    endloop
  endfacet
  facet normal 0 0 -1
    outer loop
      vertex 88.6448 95.9227 0
      vertex 85.3139 97.4901 0
      vertex 88.1871 96.3526 0
    endloop
  endfacet
  facet normal 0 0 -1
    outer loop
      vertex 85.3139 -97.4901 0
      vertex 87.1289 -97.0241 0
      vertex 86.5451 -97.2553 0
    endloop
  endfacet
  facet normal 0 0 -1
    outer loop
      vertex 88.1871 96.3526 0
      vertex 85.3139 97.4901 0
      vertex 87.6791 96.7216 0
    endloop
  endfacet
  facet normal 0 0 -1
    outer loop
      vertex 85.3139 -97.4901 0
      vertex 86.5451 -97.2553 0
      vertex 85.9369 -97.4114 0
    endloop
  endfacet
  facet normal 0 0 -1
    outer loop
      vertex 87.6791 96.7216 0
      vertex 85.3139 97.4901 0
      vertex 87.1289 97.0241 0
    endloop
  endfacet
  facet normal 0 0 -1
    outer loop
      vertex 87.1289 97.0241 0
      vertex 85.3139 97.4901 0
      vertex 86.5451 97.2553 0
    endloop
  endfacet
  facet normal 0 0 -1
    outer loop
      vertex 86.5451 97.2553 0
      vertex 85.3139 97.4901 0
      vertex 85.9369 97.4114 0
    endloop
  endfacet
  facet normal 0 0 -1
    outer loop
      vertex -90 -92.5 0
      vertex 85.3139 -97.4901 0
      vertex -85.3139 -97.4901 0
    endloop
  endfacet
  facet normal 0 -0 -1
    outer loop
      vertex 85.3139 97.4901 0
      vertex 90 92.5 0
      vertex -90 92.5 0
    endloop
  endfacet
  facet normal 0 0 -1
    outer loop
      vertex -90 -92.5 0
      vertex -85.3139 -97.4901 0
      vertex -85.9369 -97.4114 0
    endloop
  endfacet
  facet normal 0 0 -1
    outer loop
      vertex 90 92.5 0
      vertex 85.3139 97.4901 0
      vertex 89.9606 93.1267 0
    endloop
  endfacet
  facet normal 0 0 -1
    outer loop
      vertex -90 -92.5 0
      vertex -85.9369 -97.4114 0
      vertex -86.5451 -97.2553 0
    endloop
  endfacet
  facet normal -0 0 -1
    outer loop
      vertex 85.3139 97.4901 0
      vertex -90 92.5 0
      vertex -85.3139 97.4901 0
    endloop
  endfacet
  facet normal 0 0 -1
    outer loop
      vertex -90 -92.5 0
      vertex -86.5451 -97.2553 0
      vertex -87.1289 -97.0241 0
    endloop
  endfacet
  facet normal 0 0 -1
    outer loop
      vertex -85.3139 97.4901 0
      vertex -90 92.5 0
      vertex -85.9369 97.4114 0
    endloop
  endfacet
  facet normal 0 0 -1
    outer loop
      vertex -90 -92.5 0
      vertex -87.1289 -97.0241 0
      vertex -87.6791 -96.7216 0
    endloop
  endfacet
  facet normal 0 0 -1
    outer loop
      vertex -85.9369 97.4114 0
      vertex -90 92.5 0
      vertex -86.5451 97.2553 0
    endloop
  endfacet
  facet normal 0 0 -1
    outer loop
      vertex -90 -92.5 0
      vertex -87.6791 -96.7216 0
      vertex -88.1871 -96.3526 0
    endloop
  endfacet
  facet normal 0 0 -1
    outer loop
      vertex -86.5451 97.2553 0
      vertex -90 92.5 0
      vertex -87.1289 97.0241 0
    endloop
  endfacet
  facet normal 0 0 -1
    outer loop
      vertex -90 -92.5 0
      vertex -88.1871 -96.3526 0
      vertex -88.6448 -95.9227 0
    endloop
  endfacet
  facet normal 0 0 -1
    outer loop
      vertex -87.1289 97.0241 0
      vertex -90 92.5 0
      vertex -87.6791 96.7216 0
    endloop
  endfacet
  facet normal 0 0 -1
    outer loop
      vertex -90 -92.5 0
      vertex -88.6448 -95.9227 0
      vertex -89.0451 -95.4389 0
    endloop
  endfacet
  facet normal 0 0 -1
    outer loop
      vertex -87.6791 96.7216 0
      vertex -90 92.5 0
      vertex -88.1871 96.3526 0
    endloop
  endfacet
  facet normal 0 0 -1
    outer loop
      vertex -90 -92.5 0
      vertex -89.0451 -95.4389 0
      vertex -89.3815 -94.9088 0
    endloop
  endfacet
  facet normal 0 0 -1
    outer loop
      vertex -88.1871 96.3526 0
      vertex -90 92.5 0
      vertex -88.6448 95.9227 0
    endloop
  endfacet
  facet normal 0 0 -1
    outer loop
      vertex -90 -92.5 0
      vertex -89.3815 -94.9088 0
      vertex -89.6489 -94.3406 0
    endloop
  endfacet
  facet normal 0 0 -1
    outer loop
      vertex -88.6448 95.9227 0
      vertex -90 92.5 0
      vertex -89.0451 95.4389 0
    endloop
  endfacet
  facet normal 0 0 -1
    outer loop
      vertex -90 -92.5 0
      vertex -89.6489 -94.3406 0
      vertex -89.8429 -93.7434 0
    endloop
  endfacet
  facet normal 0 0 -1
    outer loop
      vertex -89.0451 95.4389 0
      vertex -90 92.5 0
      vertex -89.3815 94.9088 0
    endloop
  endfacet
  facet normal 0 0 -1
    outer loop
      vertex -90 -92.5 0
      vertex -89.8429 -93.7434 0
      vertex -89.9606 -93.1267 0
    endloop
  endfacet
  facet normal 0 0 -1
    outer loop
      vertex -89.3815 94.9088 0
      vertex -90 92.5 0
      vertex -89.6489 94.3406 0
    endloop
  endfacet
  facet normal 0 0 -1
    outer loop
      vertex -89.6489 94.3406 0
      vertex -90 92.5 0
      vertex -89.8429 93.7434 0
    endloop
  endfacet
  facet normal 0 0 -1
    outer loop
      vertex -89.8429 93.7434 0
      vertex -90 92.5 0
      vertex -89.9606 93.1267 0
    endloop
  endfacet
  facet normal 0 -1 0
    outer loop
      vertex -85.3139 -97.4901 0
      vertex 85.3139 -97.4901 18
      vertex -85.3139 -97.4901 18
    endloop
  endfacet
  facet normal 0 -1 -0
    outer loop
      vertex 85.3139 -97.4901 18
      vertex -85.3139 -97.4901 0
      vertex 85.3139 -97.4901 0
    endloop
  endfacet
  facet normal 0.770462 0.637486 0
    outer loop
      vertex 89.0451 95.4389 18
      vertex 88.6448 95.9227 0
      vertex 88.6448 95.9227 18
    endloop
  endfacet
  facet normal 0.770462 0.637486 0
    outer loop
      vertex 88.6448 95.9227 0
      vertex 89.0451 95.4389 18
      vertex 89.0451 95.4389 0
    endloop
  endfacet
  facet normal 0.125328 0.992115 -0
    outer loop
      vertex 85.9369 97.4114 0
      vertex 85.3139 97.4901 18
      vertex 85.9369 97.4114 18
    endloop
  endfacet
  facet normal 0.125328 0.992115 0
    outer loop
      vertex 85.3139 97.4901 18
      vertex 85.9369 97.4114 0
      vertex 85.3139 97.4901 0
    endloop
  endfacet
  facet normal -0.684624 0.728896 0
    outer loop
      vertex -88.1871 96.3526 0
      vertex -88.6448 95.9227 18
      vertex -88.1871 96.3526 18
    endloop
  endfacet
  facet normal -0.684624 0.728896 0
    outer loop
      vertex -88.6448 95.9227 18
      vertex -88.1871 96.3526 0
      vertex -88.6448 95.9227 0
    endloop
  endfacet
  facet normal -0.98227 0.187471 0
    outer loop
      vertex -89.9606 93.1267 0
      vertex -89.8429 93.7434 18
      vertex -89.8429 93.7434 0
    endloop
  endfacet
  facet normal -0.98227 0.187471 0
    outer loop
      vertex -89.8429 93.7434 18
      vertex -89.9606 93.1267 0
      vertex -89.9606 93.1267 18
    endloop
  endfacet
  facet normal -0.904811 -0.425812 0
    outer loop
      vertex -89.3815 -94.9088 0
      vertex -89.6489 -94.3406 18
      vertex -89.6489 -94.3406 0
    endloop
  endfacet
  facet normal -0.904811 -0.425812 0
    outer loop
      vertex -89.6489 -94.3406 18
      vertex -89.3815 -94.9088 0
      vertex -89.3815 -94.9088 18
    endloop
  endfacet
  facet normal -0.770462 -0.637486 0
    outer loop
      vertex -88.6448 -95.9227 0
      vertex -89.0451 -95.4389 18
      vertex -89.0451 -95.4389 0
    endloop
  endfacet
  facet normal -0.770462 -0.637486 0
    outer loop
      vertex -89.0451 -95.4389 18
      vertex -88.6448 -95.9227 0
      vertex -88.6448 -95.9227 18
    endloop
  endfacet
  facet normal -0.951076 -0.308956 0
    outer loop
      vertex -89.6489 -94.3406 0
      vertex -89.8429 -93.7434 18
      vertex -89.8429 -93.7434 0
    endloop
  endfacet
  facet normal -0.951076 -0.308956 0
    outer loop
      vertex -89.8429 -93.7434 18
      vertex -89.6489 -94.3406 0
      vertex -89.6489 -94.3406 18
    endloop
  endfacet
  facet normal -0.99803 -0.0627451 0
    outer loop
      vertex -89.9606 -93.1267 0
      vertex -90 -92.5 18
      vertex -90 -92.5 0
    endloop
  endfacet
  facet normal -0.99803 -0.0627451 0
    outer loop
      vertex -90 -92.5 18
      vertex -89.9606 -93.1267 0
      vertex -89.9606 -93.1267 18
    endloop
  endfacet
  facet normal 0.770462 -0.637486 0
    outer loop
      vertex 88.6448 -95.9227 18
      vertex 89.0451 -95.4389 0
      vertex 89.0451 -95.4389 18
    endloop
  endfacet
  facet normal 0.770462 -0.637486 0
    outer loop
      vertex 89.0451 -95.4389 0
      vertex 88.6448 -95.9227 18
      vertex 88.6448 -95.9227 0
    endloop
  endfacet
  facet normal 0.951076 -0.308956 0
    outer loop
      vertex 89.6489 -94.3406 18
      vertex 89.8429 -93.7434 0
      vertex 89.8429 -93.7434 18
    endloop
  endfacet
  facet normal 0.951076 -0.308956 0
    outer loop
      vertex 89.8429 -93.7434 0
      vertex 89.6489 -94.3406 18
      vertex 89.6489 -94.3406 0
    endloop
  endfacet
  facet normal -0.368203 -0.929745 0
    outer loop
      vertex -87.1289 -97.0241 0
      vertex -86.5451 -97.2553 18
      vertex -87.1289 -97.0241 18
    endloop
  endfacet
  facet normal -0.368203 -0.929745 -0
    outer loop
      vertex -86.5451 -97.2553 18
      vertex -87.1289 -97.0241 0
      vertex -86.5451 -97.2553 0
    endloop
  endfacet
  facet normal -0.684624 -0.728896 0
    outer loop
      vertex -88.6448 -95.9227 0
      vertex -88.1871 -96.3526 18
      vertex -88.6448 -95.9227 18
    endloop
  endfacet
  facet normal -0.684624 -0.728896 -0
    outer loop
      vertex -88.1871 -96.3526 18
      vertex -88.6448 -95.9227 0
      vertex -88.1871 -96.3526 0
    endloop
  endfacet
  facet normal 0.951076 0.308956 0
    outer loop
      vertex 89.8429 93.7434 18
      vertex 89.6489 94.3406 0
      vertex 89.6489 94.3406 18
    endloop
  endfacet
  facet normal 0.951076 0.308956 0
    outer loop
      vertex 89.6489 94.3406 0
      vertex 89.8429 93.7434 18
      vertex 89.8429 93.7434 0
    endloop
  endfacet
  facet normal 0.368203 0.929745 -0
    outer loop
      vertex 87.1289 97.0241 0
      vertex 86.5451 97.2553 18
      vertex 87.1289 97.0241 18
    endloop
  endfacet
  facet normal 0.368203 0.929745 0
    outer loop
      vertex 86.5451 97.2553 18
      vertex 87.1289 97.0241 0
      vertex 86.5451 97.2553 0
    endloop
  endfacet
  facet normal 0.481784 0.87629 -0
    outer loop
      vertex 87.6791 96.7216 0
      vertex 87.1289 97.0241 18
      vertex 87.6791 96.7216 18
    endloop
  endfacet
  facet normal 0.481784 0.87629 0
    outer loop
      vertex 87.1289 97.0241 18
      vertex 87.6791 96.7216 0
      vertex 87.1289 97.0241 0
    endloop
  endfacet
  facet normal 0.684624 0.728896 -0
    outer loop
      vertex 88.6448 95.9227 0
      vertex 88.1871 96.3526 18
      vertex 88.6448 95.9227 18
    endloop
  endfacet
  facet normal 0.684624 0.728896 0
    outer loop
      vertex 88.1871 96.3526 18
      vertex 88.6448 95.9227 0
      vertex 88.1871 96.3526 0
    endloop
  endfacet
  facet normal -0.368203 0.929745 0
    outer loop
      vertex -86.5451 97.2553 0
      vertex -87.1289 97.0241 18
      vertex -86.5451 97.2553 18
    endloop
  endfacet
  facet normal -0.368203 0.929745 0
    outer loop
      vertex -87.1289 97.0241 18
      vertex -86.5451 97.2553 0
      vertex -87.1289 97.0241 0
    endloop
  endfacet
  facet normal -0.904811 0.425812 0
    outer loop
      vertex -89.6489 94.3406 0
      vertex -89.3815 94.9088 18
      vertex -89.3815 94.9088 0
    endloop
  endfacet
  facet normal -0.904811 0.425812 0
    outer loop
      vertex -89.3815 94.9088 18
      vertex -89.6489 94.3406 0
      vertex -89.6489 94.3406 18
    endloop
  endfacet
  facet normal -0.770462 0.637486 0
    outer loop
      vertex -89.0451 95.4389 0
      vertex -88.6448 95.9227 18
      vertex -88.6448 95.9227 0
    endloop
  endfacet
  facet normal -0.770462 0.637486 0
    outer loop
      vertex -88.6448 95.9227 18
      vertex -89.0451 95.4389 0
      vertex -89.0451 95.4389 18
    endloop
  endfacet
  facet normal -0.951076 0.308956 0
    outer loop
      vertex -89.8429 93.7434 0
      vertex -89.6489 94.3406 18
      vertex -89.6489 94.3406 0
    endloop
  endfacet
  facet normal -0.951076 0.308956 0
    outer loop
      vertex -89.6489 94.3406 18
      vertex -89.8429 93.7434 0
      vertex -89.8429 93.7434 18
    endloop
  endfacet
  facet normal -0.844336 -0.535814 0
    outer loop
      vertex -89.0451 -95.4389 0
      vertex -89.3815 -94.9088 18
      vertex -89.3815 -94.9088 0
    endloop
  endfacet
  facet normal -0.844336 -0.535814 0
    outer loop
      vertex -89.3815 -94.9088 18
      vertex -89.0451 -95.4389 0
      vertex -89.0451 -95.4389 18
    endloop
  endfacet
  facet normal -0.98227 -0.187471 0
    outer loop
      vertex -89.8429 -93.7434 0
      vertex -89.9606 -93.1267 18
      vertex -89.9606 -93.1267 0
    endloop
  endfacet
  facet normal -0.98227 -0.187471 0
    outer loop
      vertex -89.9606 -93.1267 18
      vertex -89.8429 -93.7434 0
      vertex -89.8429 -93.7434 18
    endloop
  endfacet
  facet normal 0.125328 -0.992115 0
    outer loop
      vertex 85.3139 -97.4901 0
      vertex 85.9369 -97.4114 18
      vertex 85.3139 -97.4901 18
    endloop
  endfacet
  facet normal 0.125328 -0.992115 0
    outer loop
      vertex 85.9369 -97.4114 18
      vertex 85.3139 -97.4901 0
      vertex 85.9369 -97.4114 0
    endloop
  endfacet
  facet normal 0.368203 -0.929745 0
    outer loop
      vertex 86.5451 -97.2553 0
      vertex 87.1289 -97.0241 18
      vertex 86.5451 -97.2553 18
    endloop
  endfacet
  facet normal 0.368203 -0.929745 0
    outer loop
      vertex 87.1289 -97.0241 18
      vertex 86.5451 -97.2553 0
      vertex 87.1289 -97.0241 0
    endloop
  endfacet
  facet normal 0.684624 -0.728896 0
    outer loop
      vertex 88.1871 -96.3526 0
      vertex 88.6448 -95.9227 18
      vertex 88.1871 -96.3526 18
    endloop
  endfacet
  facet normal 0.684624 -0.728896 0
    outer loop
      vertex 88.6448 -95.9227 18
      vertex 88.1871 -96.3526 0
      vertex 88.6448 -95.9227 0
    endloop
  endfacet
  facet normal 0.481784 -0.87629 0
    outer loop
      vertex 87.1289 -97.0241 0
      vertex 87.6791 -96.7216 18
      vertex 87.1289 -97.0241 18
    endloop
  endfacet
  facet normal 0.481784 -0.87629 0
    outer loop
      vertex 87.6791 -96.7216 18
      vertex 87.1289 -97.0241 0
      vertex 87.6791 -96.7216 0
    endloop
  endfacet
  facet normal 0.844336 -0.535814 0
    outer loop
      vertex 89.0451 -95.4389 18
      vertex 89.3815 -94.9088 0
      vertex 89.3815 -94.9088 18
    endloop
  endfacet
  facet normal 0.844336 -0.535814 0
    outer loop
      vertex 89.3815 -94.9088 0
      vertex 89.0451 -95.4389 18
      vertex 89.0451 -95.4389 0
    endloop
  endfacet
  facet normal 0.98227 -0.187471 0
    outer loop
      vertex 89.8429 -93.7434 18
      vertex 89.9606 -93.1267 0
      vertex 89.9606 -93.1267 18
    endloop
  endfacet
  facet normal 0.98227 -0.187471 0
    outer loop
      vertex 89.9606 -93.1267 0
      vertex 89.8429 -93.7434 18
      vertex 89.8429 -93.7434 0
    endloop
  endfacet
  facet normal -0.248601 -0.968606 0
    outer loop
      vertex -86.5451 -97.2553 0
      vertex -85.9369 -97.4114 18
      vertex -86.5451 -97.2553 18
    endloop
  endfacet
  facet normal -0.248601 -0.968606 -0
    outer loop
      vertex -85.9369 -97.4114 18
      vertex -86.5451 -97.2553 0
      vertex -85.9369 -97.4114 0
    endloop
  endfacet
  facet normal -0.587698 -0.80908 0
    outer loop
      vertex -88.1871 -96.3526 0
      vertex -87.6791 -96.7216 18
      vertex -88.1871 -96.3526 18
    endloop
  endfacet
  facet normal -0.587698 -0.80908 -0
    outer loop
      vertex -87.6791 -96.7216 18
      vertex -88.1871 -96.3526 0
      vertex -87.6791 -96.7216 0
    endloop
  endfacet
  facet normal 0.98227 0.187471 0
    outer loop
      vertex 89.9606 93.1267 18
      vertex 89.8429 93.7434 0
      vertex 89.8429 93.7434 18
    endloop
  endfacet
  facet normal 0.98227 0.187471 0
    outer loop
      vertex 89.8429 93.7434 0
      vertex 89.9606 93.1267 18
      vertex 89.9606 93.1267 0
    endloop
  endfacet
  facet normal 0.99803 0.0627451 0
    outer loop
      vertex 90 92.5 18
      vertex 89.9606 93.1267 0
      vertex 89.9606 93.1267 18
    endloop
  endfacet
  facet normal 0.99803 0.0627451 0
    outer loop
      vertex 89.9606 93.1267 0
      vertex 90 92.5 18
      vertex 90 92.5 0
    endloop
  endfacet
  facet normal 0.844336 0.535814 0
    outer loop
      vertex 89.3815 94.9088 18
      vertex 89.0451 95.4389 0
      vertex 89.0451 95.4389 18
    endloop
  endfacet
  facet normal 0.844336 0.535814 0
    outer loop
      vertex 89.0451 95.4389 0
      vertex 89.3815 94.9088 18
      vertex 89.3815 94.9088 0
    endloop
  endfacet
  facet normal 0.904811 0.425812 0
    outer loop
      vertex 89.6489 94.3406 18
      vertex 89.3815 94.9088 0
      vertex 89.3815 94.9088 18
    endloop
  endfacet
  facet normal 0.904811 0.425812 0
    outer loop
      vertex 89.3815 94.9088 0
      vertex 89.6489 94.3406 18
      vertex 89.6489 94.3406 0
    endloop
  endfacet
  facet normal 0.248601 0.968606 -0
    outer loop
      vertex 86.5451 97.2553 0
      vertex 85.9369 97.4114 18
      vertex 86.5451 97.2553 18
    endloop
  endfacet
  facet normal 0.248601 0.968606 0
    outer loop
      vertex 85.9369 97.4114 18
      vertex 86.5451 97.2553 0
      vertex 85.9369 97.4114 0
    endloop
  endfacet
  facet normal 0.587698 0.80908 -0
    outer loop
      vertex 88.1871 96.3526 0
      vertex 87.6791 96.7216 18
      vertex 88.1871 96.3526 18
    endloop
  endfacet
  facet normal 0.587698 0.80908 0
    outer loop
      vertex 87.6791 96.7216 18
      vertex 88.1871 96.3526 0
      vertex 87.6791 96.7216 0
    endloop
  endfacet
  facet normal -0.587698 0.80908 0
    outer loop
      vertex -87.6791 96.7216 0
      vertex -88.1871 96.3526 18
      vertex -87.6791 96.7216 18
    endloop
  endfacet
  facet normal -0.587698 0.80908 0
    outer loop
      vertex -88.1871 96.3526 18
      vertex -87.6791 96.7216 0
      vertex -88.1871 96.3526 0
    endloop
  endfacet
  facet normal -0.481784 0.87629 0
    outer loop
      vertex -87.1289 97.0241 0
      vertex -87.6791 96.7216 18
      vertex -87.1289 97.0241 18
    endloop
  endfacet
  facet normal -0.481784 0.87629 0
    outer loop
      vertex -87.6791 96.7216 18
      vertex -87.1289 97.0241 0
      vertex -87.6791 96.7216 0
    endloop
  endfacet
  facet normal -0.248601 0.968606 0
    outer loop
      vertex -85.9369 97.4114 0
      vertex -86.5451 97.2553 18
      vertex -85.9369 97.4114 18
    endloop
  endfacet
  facet normal -0.248601 0.968606 0
    outer loop
      vertex -86.5451 97.2553 18
      vertex -85.9369 97.4114 0
      vertex -86.5451 97.2553 0
    endloop
  endfacet
  facet normal -0.125328 0.992115 0
    outer loop
      vertex -85.3139 97.4901 0
      vertex -85.9369 97.4114 18
      vertex -85.3139 97.4901 18
    endloop
  endfacet
  facet normal -0.125328 0.992115 0
    outer loop
      vertex -85.9369 97.4114 18
      vertex -85.3139 97.4901 0
      vertex -85.9369 97.4114 0
    endloop
  endfacet
  facet normal -0.844336 0.535814 0
    outer loop
      vertex -89.3815 94.9088 0
      vertex -89.0451 95.4389 18
      vertex -89.0451 95.4389 0
    endloop
  endfacet
  facet normal -0.844336 0.535814 0
    outer loop
      vertex -89.0451 95.4389 18
      vertex -89.3815 94.9088 0
      vertex -89.3815 94.9088 18
    endloop
  endfacet
  facet normal 0.248601 -0.968606 0
    outer loop
      vertex 85.9369 -97.4114 0
      vertex 86.5451 -97.2553 18
      vertex 85.9369 -97.4114 18
    endloop
  endfacet
  facet normal 0.248601 -0.968606 0
    outer loop
      vertex 86.5451 -97.2553 18
      vertex 85.9369 -97.4114 0
      vertex 86.5451 -97.2553 0
    endloop
  endfacet
  facet normal 0.587698 -0.80908 0
    outer loop
      vertex 87.6791 -96.7216 0
      vertex 88.1871 -96.3526 18
      vertex 87.6791 -96.7216 18
    endloop
  endfacet
  facet normal 0.587698 -0.80908 0
    outer loop
      vertex 88.1871 -96.3526 18
      vertex 87.6791 -96.7216 0
      vertex 88.1871 -96.3526 0
    endloop
  endfacet
  facet normal 0.904811 -0.425812 0
    outer loop
      vertex 89.3815 -94.9088 18
      vertex 89.6489 -94.3406 0
      vertex 89.6489 -94.3406 18
    endloop
  endfacet
  facet normal 0.904811 -0.425812 0
    outer loop
      vertex 89.6489 -94.3406 0
      vertex 89.3815 -94.9088 18
      vertex 89.3815 -94.9088 0
    endloop
  endfacet
  facet normal -0.125328 -0.992115 0
    outer loop
      vertex -85.9369 -97.4114 0
      vertex -85.3139 -97.4901 18
      vertex -85.9369 -97.4114 18
    endloop
  endfacet
  facet normal -0.125328 -0.992115 -0
    outer loop
      vertex -85.3139 -97.4901 18
      vertex -85.9369 -97.4114 0
      vertex -85.3139 -97.4901 0
    endloop
  endfacet
  facet normal -0.481784 -0.87629 0
    outer loop
      vertex -87.6791 -96.7216 0
      vertex -87.1289 -97.0241 18
      vertex -87.6791 -96.7216 18
    endloop
  endfacet
  facet normal -0.481784 -0.87629 -0
    outer loop
      vertex -87.1289 -97.0241 18
      vertex -87.6791 -96.7216 0
      vertex -87.1289 -97.0241 0
    endloop
  endfacet
  facet normal 0.125431 -0.992102 0
    outer loop
      vertex -85.7495 96.4291 2
      vertex -85.2512 96.4921 18
      vertex -85.7495 96.4291 18
    endloop
  endfacet
  facet normal 0.125431 -0.992102 0
    outer loop
      vertex -85.2512 96.4921 18
      vertex -85.7495 96.4291 2
      vertex -85.2512 96.4921 2
    endloop
  endfacet
  facet normal 0 -1 0
    outer loop
      vertex -85.2512 96.4921 2
      vertex 85.2512 96.4921 18
      vertex -85.2512 96.4921 18
    endloop
  endfacet
  facet normal 0 -1 -0
    outer loop
      vertex 85.2512 96.4921 18
      vertex -85.2512 96.4921 2
      vertex 85.2512 96.4921 2
    endloop
  endfacet
  facet normal 0.684563 0.728953 -0
    outer loop
      vertex -87.5497 -95.5821 2
      vertex -87.9159 -95.2382 18
      vertex -87.5497 -95.5821 18
    endloop
  endfacet
  facet normal 0.684563 0.728953 0
    outer loop
      vertex -87.9159 -95.2382 18
      vertex -87.5497 -95.5821 2
      vertex -87.9159 -95.2382 2
    endloop
  endfacet
  facet normal 0 1 -0
    outer loop
      vertex 85.2512 -96.4921 2
      vertex -85.2512 -96.4921 18
      vertex 85.2512 -96.4921 18
    endloop
  endfacet
  facet normal 0 1 0
    outer loop
      vertex -85.2512 -96.4921 18
      vertex 85.2512 -96.4921 2
      vertex -85.2512 -96.4921 2
    endloop
  endfacet
  facet normal 0.998032 0.0627129 0
    outer loop
      vertex -88.9685 -93.0013 18
      vertex -89 -92.5 2
      vertex -89 -92.5 18
    endloop
  endfacet
  facet normal 0.998032 0.0627129 0
    outer loop
      vertex -89 -92.5 2
      vertex -88.9685 -93.0013 18
      vertex -88.9685 -93.0013 2
    endloop
  endfacet
  facet normal -1 0 0
    outer loop
      vertex 89 -92.5 2
      vertex 89 92.5 18
      vertex 89 92.5 2
    endloop
  endfacet
  facet normal -1 -0 0
    outer loop
      vertex 89 92.5 18
      vertex 89 -92.5 2
      vertex 89 -92.5 18
    endloop
  endfacet
  facet normal -0.770549 -0.63738 0
    outer loop
      vertex 88.2361 94.8511 2
      vertex 87.9159 95.2382 18
      vertex 87.9159 95.2382 2
    endloop
  endfacet
  facet normal -0.770549 -0.63738 0
    outer loop
      vertex 87.9159 95.2382 18
      vertex 88.2361 94.8511 2
      vertex 88.2361 94.8511 18
    endloop
  endfacet
  facet normal 0.368127 0.929775 -0
    outer loop
      vertex -86.2361 -96.3042 2
      vertex -86.7031 -96.1193 18
      vertex -86.2361 -96.3042 18
    endloop
  endfacet
  facet normal 0.368127 0.929775 0
    outer loop
      vertex -86.7031 -96.1193 18
      vertex -86.2361 -96.3042 2
      vertex -86.7031 -96.1193 2
    endloop
  endfacet
  facet normal 0.125431 0.992102 -0
    outer loop
      vertex -85.2512 -96.4921 2
      vertex -85.7495 -96.4291 18
      vertex -85.2512 -96.4921 18
    endloop
  endfacet
  facet normal 0.125431 0.992102 0
    outer loop
      vertex -85.7495 -96.4291 18
      vertex -85.2512 -96.4921 2
      vertex -85.7495 -96.4291 2
    endloop
  endfacet
  facet normal 1 -0 0
    outer loop
      vertex -89 -92.5 18
      vertex -89 92.5 2
      vertex -89 92.5 18
    endloop
  endfacet
  facet normal 1 0 0
    outer loop
      vertex -89 92.5 2
      vertex -89 -92.5 18
      vertex -89 -92.5 2
    endloop
  endfacet
  facet normal -0.951065 0.308992 0
    outer loop
      vertex 88.7191 -93.9725 2
      vertex 88.8743 -93.4948 18
      vertex 88.8743 -93.4948 2
    endloop
  endfacet
  facet normal -0.951065 0.308992 0
    outer loop
      vertex 88.8743 -93.4948 18
      vertex 88.7191 -93.9725 2
      vertex 88.7191 -93.9725 18
    endloop
  endfacet
  facet normal 0.481751 0.876308 -0
    outer loop
      vertex -86.7031 -96.1193 2
      vertex -87.1433 -95.8773 18
      vertex -86.7031 -96.1193 18
    endloop
  endfacet
  facet normal 0.481751 0.876308 0
    outer loop
      vertex -87.1433 -95.8773 18
      vertex -86.7031 -96.1193 2
      vertex -87.1433 -95.8773 2
    endloop
  endfacet
  facet normal 0.24862 0.968601 -0
    outer loop
      vertex -85.7495 -96.4291 2
      vertex -86.2361 -96.3042 18
      vertex -85.7495 -96.4291 18
    endloop
  endfacet
  facet normal 0.24862 0.968601 0
    outer loop
      vertex -86.2361 -96.3042 18
      vertex -85.7495 -96.4291 2
      vertex -86.2361 -96.3042 2
    endloop
  endfacet
  facet normal 0.770549 0.63738 0
    outer loop
      vertex -87.9159 -95.2382 18
      vertex -88.2361 -94.8511 2
      vertex -88.2361 -94.8511 18
    endloop
  endfacet
  facet normal 0.770549 0.63738 0
    outer loop
      vertex -88.2361 -94.8511 2
      vertex -87.9159 -95.2382 18
      vertex -87.9159 -95.2382 2
    endloop
  endfacet
  facet normal 0.684563 -0.728953 0
    outer loop
      vertex -87.9159 95.2382 2
      vertex -87.5497 95.5821 18
      vertex -87.9159 95.2382 18
    endloop
  endfacet
  facet normal 0.684563 -0.728953 0
    outer loop
      vertex -87.5497 95.5821 18
      vertex -87.9159 95.2382 2
      vertex -87.5497 95.5821 2
    endloop
  endfacet
  facet normal 0.481751 -0.876308 0
    outer loop
      vertex -87.1433 95.8773 2
      vertex -86.7031 96.1193 18
      vertex -87.1433 95.8773 18
    endloop
  endfacet
  facet normal 0.481751 -0.876308 0
    outer loop
      vertex -86.7031 96.1193 18
      vertex -87.1433 95.8773 2
      vertex -86.7031 96.1193 2
    endloop
  endfacet
  facet normal -0.481751 0.876308 0
    outer loop
      vertex 87.1433 -95.8773 2
      vertex 86.7031 -96.1193 18
      vertex 87.1433 -95.8773 18
    endloop
  endfacet
  facet normal -0.481751 0.876308 0
    outer loop
      vertex 86.7031 -96.1193 18
      vertex 87.1433 -95.8773 2
      vertex 86.7031 -96.1193 2
    endloop
  endfacet
  facet normal -0.481751 -0.876308 0
    outer loop
      vertex 86.7031 96.1193 2
      vertex 87.1433 95.8773 18
      vertex 86.7031 96.1193 18
    endloop
  endfacet
  facet normal -0.481751 -0.876308 -0
    outer loop
      vertex 87.1433 95.8773 18
      vertex 86.7031 96.1193 2
      vertex 87.1433 95.8773 2
    endloop
  endfacet
  facet normal -0.368127 -0.929775 0
    outer loop
      vertex 86.2361 96.3042 2
      vertex 86.7031 96.1193 18
      vertex 86.2361 96.3042 18
    endloop
  endfacet
  facet normal -0.368127 -0.929775 -0
    outer loop
      vertex 86.7031 96.1193 18
      vertex 86.2361 96.3042 2
      vertex 86.7031 96.1193 2
    endloop
  endfacet
  facet normal -0.951065 -0.308992 0
    outer loop
      vertex 88.8743 93.4948 2
      vertex 88.7191 93.9725 18
      vertex 88.7191 93.9725 2
    endloop
  endfacet
  facet normal -0.951065 -0.308992 0
    outer loop
      vertex 88.7191 93.9725 18
      vertex 88.8743 93.4948 2
      vertex 88.8743 93.4948 18
    endloop
  endfacet
  facet normal -0.770549 0.63738 0
    outer loop
      vertex 87.9159 -95.2382 2
      vertex 88.2361 -94.8511 18
      vertex 88.2361 -94.8511 2
    endloop
  endfacet
  facet normal -0.770549 0.63738 0
    outer loop
      vertex 88.2361 -94.8511 18
      vertex 87.9159 -95.2382 2
      vertex 87.9159 -95.2382 18
    endloop
  endfacet
  facet normal -0.904805 0.425826 0
    outer loop
      vertex 88.5052 -94.427 2
      vertex 88.7191 -93.9725 18
      vertex 88.7191 -93.9725 2
    endloop
  endfacet
  facet normal -0.904805 0.425826 0
    outer loop
      vertex 88.7191 -93.9725 18
      vertex 88.5052 -94.427 2
      vertex 88.5052 -94.427 18
    endloop
  endfacet
  facet normal 0.587698 0.80908 -0
    outer loop
      vertex -87.1433 -95.8773 2
      vertex -87.5497 -95.5821 18
      vertex -87.1433 -95.8773 18
    endloop
  endfacet
  facet normal 0.587698 0.80908 0
    outer loop
      vertex -87.5497 -95.5821 18
      vertex -87.1433 -95.8773 2
      vertex -87.5497 -95.5821 2
    endloop
  endfacet
  facet normal 0.951065 0.308992 0
    outer loop
      vertex -88.7191 -93.9725 18
      vertex -88.8743 -93.4948 2
      vertex -88.8743 -93.4948 18
    endloop
  endfacet
  facet normal 0.951065 0.308992 0
    outer loop
      vertex -88.8743 -93.4948 2
      vertex -88.7191 -93.9725 18
      vertex -88.7191 -93.9725 2
    endloop
  endfacet
  facet normal 0.904805 0.425826 0
    outer loop
      vertex -88.5052 -94.427 18
      vertex -88.7191 -93.9725 2
      vertex -88.7191 -93.9725 18
    endloop
  endfacet
  facet normal 0.904805 0.425826 0
    outer loop
      vertex -88.7191 -93.9725 2
      vertex -88.5052 -94.427 18
      vertex -88.5052 -94.427 2
    endloop
  endfacet
  facet normal 0.904805 -0.425826 0
    outer loop
      vertex -88.7191 93.9725 18
      vertex -88.5052 94.427 2
      vertex -88.5052 94.427 18
    endloop
  endfacet
  facet normal 0.904805 -0.425826 0
    outer loop
      vertex -88.5052 94.427 2
      vertex -88.7191 93.9725 18
      vertex -88.7191 93.9725 2
    endloop
  endfacet
  facet normal 0.951065 -0.308992 0
    outer loop
      vertex -88.8743 93.4948 18
      vertex -88.7191 93.9725 2
      vertex -88.7191 93.9725 18
    endloop
  endfacet
  facet normal 0.951065 -0.308992 0
    outer loop
      vertex -88.7191 93.9725 2
      vertex -88.8743 93.4948 18
      vertex -88.8743 93.4948 2
    endloop
  endfacet
  facet normal 0.770549 -0.63738 0
    outer loop
      vertex -88.2361 94.8511 18
      vertex -87.9159 95.2382 2
      vertex -87.9159 95.2382 18
    endloop
  endfacet
  facet normal 0.770549 -0.63738 0
    outer loop
      vertex -87.9159 95.2382 2
      vertex -88.2361 94.8511 18
      vertex -88.2361 94.8511 2
    endloop
  endfacet
  facet normal 0.24862 -0.968601 0
    outer loop
      vertex -86.2361 96.3042 2
      vertex -85.7495 96.4291 18
      vertex -86.2361 96.3042 18
    endloop
  endfacet
  facet normal 0.24862 -0.968601 0
    outer loop
      vertex -85.7495 96.4291 18
      vertex -86.2361 96.3042 2
      vertex -85.7495 96.4291 2
    endloop
  endfacet
  facet normal -0.368127 0.929775 0
    outer loop
      vertex 86.7031 -96.1193 2
      vertex 86.2361 -96.3042 18
      vertex 86.7031 -96.1193 18
    endloop
  endfacet
  facet normal -0.368127 0.929775 0
    outer loop
      vertex 86.2361 -96.3042 18
      vertex 86.7031 -96.1193 2
      vertex 86.2361 -96.3042 2
    endloop
  endfacet
  facet normal -0.587698 -0.80908 0
    outer loop
      vertex 87.1433 95.8773 2
      vertex 87.5497 95.5821 18
      vertex 87.1433 95.8773 18
    endloop
  endfacet
  facet normal -0.587698 -0.80908 -0
    outer loop
      vertex 87.5497 95.5821 18
      vertex 87.1433 95.8773 2
      vertex 87.5497 95.5821 2
    endloop
  endfacet
  facet normal -0.684563 -0.728953 0
    outer loop
      vertex 87.5497 95.5821 2
      vertex 87.9159 95.2382 18
      vertex 87.5497 95.5821 18
    endloop
  endfacet
  facet normal -0.684563 -0.728953 -0
    outer loop
      vertex 87.9159 95.2382 18
      vertex 87.5497 95.5821 2
      vertex 87.9159 95.2382 2
    endloop
  endfacet
  facet normal -0.125431 -0.992102 0
    outer loop
      vertex 85.2512 96.4921 2
      vertex 85.7495 96.4291 18
      vertex 85.2512 96.4921 18
    endloop
  endfacet
  facet normal -0.125431 -0.992102 -0
    outer loop
      vertex 85.7495 96.4291 18
      vertex 85.2512 96.4921 2
      vertex 85.7495 96.4291 2
    endloop
  endfacet
  facet normal -0.24862 -0.968601 0
    outer loop
      vertex 85.7495 96.4291 2
      vertex 86.2361 96.3042 18
      vertex 85.7495 96.4291 18
    endloop
  endfacet
  facet normal -0.24862 -0.968601 -0
    outer loop
      vertex 86.2361 96.3042 18
      vertex 85.7495 96.4291 2
      vertex 86.2361 96.3042 2
    endloop
  endfacet
  facet normal -0.982265 -0.187496 0
    outer loop
      vertex 88.9685 93.0013 2
      vertex 88.8743 93.4948 18
      vertex 88.8743 93.4948 2
    endloop
  endfacet
  facet normal -0.982265 -0.187496 0
    outer loop
      vertex 88.8743 93.4948 18
      vertex 88.9685 93.0013 2
      vertex 88.9685 93.0013 18
    endloop
  endfacet
  facet normal -0.998032 -0.0627129 0
    outer loop
      vertex 89 92.5 2
      vertex 88.9685 93.0013 18
      vertex 88.9685 93.0013 2
    endloop
  endfacet
  facet normal -0.998032 -0.0627129 0
    outer loop
      vertex 88.9685 93.0013 18
      vertex 89 92.5 2
      vertex 89 92.5 18
    endloop
  endfacet
  facet normal -0.982265 0.187496 0
    outer loop
      vertex 88.8743 -93.4948 2
      vertex 88.9685 -93.0013 18
      vertex 88.9685 -93.0013 2
    endloop
  endfacet
  facet normal -0.982265 0.187496 0
    outer loop
      vertex 88.9685 -93.0013 18
      vertex 88.8743 -93.4948 2
      vertex 88.8743 -93.4948 18
    endloop
  endfacet
  facet normal -0.844366 0.535767 0
    outer loop
      vertex 88.2361 -94.8511 2
      vertex 88.5052 -94.427 18
      vertex 88.5052 -94.427 2
    endloop
  endfacet
  facet normal -0.844366 0.535767 0
    outer loop
      vertex 88.5052 -94.427 18
      vertex 88.2361 -94.8511 2
      vertex 88.2361 -94.8511 18
    endloop
  endfacet
  facet normal -0.587698 0.80908 0
    outer loop
      vertex 87.5497 -95.5821 2
      vertex 87.1433 -95.8773 18
      vertex 87.5497 -95.5821 18
    endloop
  endfacet
  facet normal -0.587698 0.80908 0
    outer loop
      vertex 87.1433 -95.8773 18
      vertex 87.5497 -95.5821 2
      vertex 87.1433 -95.8773 2
    endloop
  endfacet
  facet normal 0 0 1
    outer loop
      vertex 85.2512 96.4921 2
      vertex 89 92.5 2
      vertex 88.9685 93.0013 2
    endloop
  endfacet
  facet normal 0 0 1
    outer loop
      vertex 89 92.5 2
      vertex -89 92.5 2
      vertex 89 -92.5 2
    endloop
  endfacet
  facet normal 0 0 1
    outer loop
      vertex 85.2512 96.4921 2
      vertex 88.9685 93.0013 2
      vertex 88.8743 93.4948 2
    endloop
  endfacet
  facet normal 0 0 1
    outer loop
      vertex 89 92.5 2
      vertex 85.2512 96.4921 2
      vertex -89 92.5 2
    endloop
  endfacet
  facet normal 0 0 1
    outer loop
      vertex 85.2512 96.4921 2
      vertex 88.8743 93.4948 2
      vertex 88.7191 93.9725 2
    endloop
  endfacet
  facet normal 0 0 1
    outer loop
      vertex -89 -92.5 2
      vertex 89 -92.5 2
      vertex -89 92.5 2
    endloop
  endfacet
  facet normal 0 0 1
    outer loop
      vertex 85.2512 96.4921 2
      vertex 88.7191 93.9725 2
      vertex 88.5052 94.427 2
    endloop
  endfacet
  facet normal 0 0 1
    outer loop
      vertex 88.9685 -93.0013 2
      vertex 85.2512 -96.4921 2
      vertex 88.8743 -93.4948 2
    endloop
  endfacet
  facet normal 0 0 1
    outer loop
      vertex 85.2512 96.4921 2
      vertex 88.5052 94.427 2
      vertex 88.2361 94.8511 2
    endloop
  endfacet
  facet normal 0 0 1
    outer loop
      vertex 88.8743 -93.4948 2
      vertex 85.2512 -96.4921 2
      vertex 88.7191 -93.9725 2
    endloop
  endfacet
  facet normal 0 0 1
    outer loop
      vertex 85.2512 96.4921 2
      vertex 88.2361 94.8511 2
      vertex 87.9159 95.2382 2
    endloop
  endfacet
  facet normal 0 0 1
    outer loop
      vertex 88.7191 -93.9725 2
      vertex 85.2512 -96.4921 2
      vertex 88.5052 -94.427 2
    endloop
  endfacet
  facet normal 0 0 1
    outer loop
      vertex 85.2512 96.4921 2
      vertex 87.9159 95.2382 2
      vertex 87.5497 95.5821 2
    endloop
  endfacet
  facet normal 0 0 1
    outer loop
      vertex 88.5052 -94.427 2
      vertex 85.2512 -96.4921 2
      vertex 88.2361 -94.8511 2
    endloop
  endfacet
  facet normal 0 0 1
    outer loop
      vertex 85.2512 96.4921 2
      vertex 87.5497 95.5821 2
      vertex 87.1433 95.8773 2
    endloop
  endfacet
  facet normal 0 0 1
    outer loop
      vertex 88.2361 -94.8511 2
      vertex 85.2512 -96.4921 2
      vertex 87.9159 -95.2382 2
    endloop
  endfacet
  facet normal 0 0 1
    outer loop
      vertex 85.2512 96.4921 2
      vertex 87.1433 95.8773 2
      vertex 86.7031 96.1193 2
    endloop
  endfacet
  facet normal 0 0 1
    outer loop
      vertex 87.9159 -95.2382 2
      vertex 85.2512 -96.4921 2
      vertex 87.5497 -95.5821 2
    endloop
  endfacet
  facet normal 0 0 1
    outer loop
      vertex 85.2512 96.4921 2
      vertex 86.7031 96.1193 2
      vertex 86.2361 96.3042 2
    endloop
  endfacet
  facet normal 0 0 1
    outer loop
      vertex 87.5497 -95.5821 2
      vertex 85.2512 -96.4921 2
      vertex 87.1433 -95.8773 2
    endloop
  endfacet
  facet normal 0 0 1
    outer loop
      vertex 85.2512 96.4921 2
      vertex 86.2361 96.3042 2
      vertex 85.7495 96.4291 2
    endloop
  endfacet
  facet normal 0 0 1
    outer loop
      vertex 87.1433 -95.8773 2
      vertex 85.2512 -96.4921 2
      vertex 86.7031 -96.1193 2
    endloop
  endfacet
  facet normal 0 0 1
    outer loop
      vertex 86.7031 -96.1193 2
      vertex 85.2512 -96.4921 2
      vertex 86.2361 -96.3042 2
    endloop
  endfacet
  facet normal 0 0 1
    outer loop
      vertex 86.2361 -96.3042 2
      vertex 85.2512 -96.4921 2
      vertex 85.7495 -96.4291 2
    endloop
  endfacet
  facet normal 0 0 1
    outer loop
      vertex -89 92.5 2
      vertex 85.2512 96.4921 2
      vertex -85.2512 96.4921 2
    endloop
  endfacet
  facet normal 0 -0 1
    outer loop
      vertex 85.2512 -96.4921 2
      vertex 89 -92.5 2
      vertex -89 -92.5 2
    endloop
  endfacet
  facet normal 0 0 1
    outer loop
      vertex -89 92.5 2
      vertex -85.2512 96.4921 2
      vertex -85.7495 96.4291 2
    endloop
  endfacet
  facet normal 0 0 1
    outer loop
      vertex 89 -92.5 2
      vertex 85.2512 -96.4921 2
      vertex 88.9685 -93.0013 2
    endloop
  endfacet
  facet normal 0 0 1
    outer loop
      vertex -89 92.5 2
      vertex -85.7495 96.4291 2
      vertex -86.2361 96.3042 2
    endloop
  endfacet
  facet normal 0 0 1
    outer loop
      vertex 85.2512 -96.4921 2
      vertex -89 -92.5 2
      vertex -85.2512 -96.4921 2
    endloop
  endfacet
  facet normal 0 0 1
    outer loop
      vertex -89 92.5 2
      vertex -86.2361 96.3042 2
      vertex -86.7031 96.1193 2
    endloop
  endfacet
  facet normal 0 0 1
    outer loop
      vertex -85.2512 -96.4921 2
      vertex -89 -92.5 2
      vertex -85.7495 -96.4291 2
    endloop
  endfacet
  facet normal 0 0 1
    outer loop
      vertex -89 92.5 2
      vertex -86.7031 96.1193 2
      vertex -87.1433 95.8773 2
    endloop
  endfacet
  facet normal 0 0 1
    outer loop
      vertex -85.7495 -96.4291 2
      vertex -89 -92.5 2
      vertex -86.2361 -96.3042 2
    endloop
  endfacet
  facet normal 0 0 1
    outer loop
      vertex -89 92.5 2
      vertex -87.1433 95.8773 2
      vertex -87.5497 95.5821 2
    endloop
  endfacet
  facet normal 0 0 1
    outer loop
      vertex -86.2361 -96.3042 2
      vertex -89 -92.5 2
      vertex -86.7031 -96.1193 2
    endloop
  endfacet
  facet normal 0 0 1
    outer loop
      vertex -89 92.5 2
      vertex -87.5497 95.5821 2
      vertex -87.9159 95.2382 2
    endloop
  endfacet
  facet normal 0 0 1
    outer loop
      vertex -86.7031 -96.1193 2
      vertex -89 -92.5 2
      vertex -87.1433 -95.8773 2
    endloop
  endfacet
  facet normal 0 0 1
    outer loop
      vertex -89 92.5 2
      vertex -87.9159 95.2382 2
      vertex -88.2361 94.8511 2
    endloop
  endfacet
  facet normal 0 0 1
    outer loop
      vertex -87.1433 -95.8773 2
      vertex -89 -92.5 2
      vertex -87.5497 -95.5821 2
    endloop
  endfacet
  facet normal 0 0 1
    outer loop
      vertex -89 92.5 2
      vertex -88.2361 94.8511 2
      vertex -88.5052 94.427 2
    endloop
  endfacet
  facet normal 0 0 1
    outer loop
      vertex -87.5497 -95.5821 2
      vertex -89 -92.5 2
      vertex -87.9159 -95.2382 2
    endloop
  endfacet
  facet normal 0 0 1
    outer loop
      vertex -89 92.5 2
      vertex -88.5052 94.427 2
      vertex -88.7191 93.9725 2
    endloop
  endfacet
  facet normal 0 0 1
    outer loop
      vertex -87.9159 -95.2382 2
      vertex -89 -92.5 2
      vertex -88.2361 -94.8511 2
    endloop
  endfacet
  facet normal 0 0 1
    outer loop
      vertex -89 92.5 2
      vertex -88.7191 93.9725 2
      vertex -88.8743 93.4948 2
    endloop
  endfacet
  facet normal 0 0 1
    outer loop
      vertex -88.2361 -94.8511 2
      vertex -89 -92.5 2
      vertex -88.5052 -94.427 2
    endloop
  endfacet
  facet normal 0 0 1
    outer loop
      vertex -89 92.5 2
      vertex -88.8743 93.4948 2
      vertex -88.9685 93.0013 2
    endloop
  endfacet
  facet normal 0 0 1
    outer loop
      vertex -88.5052 -94.427 2
      vertex -89 -92.5 2
      vertex -88.7191 -93.9725 2
    endloop
  endfacet
  facet normal 0 0 1
    outer loop
      vertex -88.7191 -93.9725 2
      vertex -89 -92.5 2
      vertex -88.8743 -93.4948 2
    endloop
  endfacet
  facet normal 0 0 1
    outer loop
      vertex -88.8743 -93.4948 2
      vertex -89 -92.5 2
      vertex -88.9685 -93.0013 2
    endloop
  endfacet
  facet normal 0.982265 0.187496 0
    outer loop
      vertex -88.8743 -93.4948 18
      vertex -88.9685 -93.0013 2
      vertex -88.9685 -93.0013 18
    endloop
  endfacet
  facet normal 0.982265 0.187496 0
    outer loop
      vertex -88.9685 -93.0013 2
      vertex -88.8743 -93.4948 18
      vertex -88.8743 -93.4948 2
    endloop
  endfacet
  facet normal 0.844366 0.535767 0
    outer loop
      vertex -88.2361 -94.8511 18
      vertex -88.5052 -94.427 2
      vertex -88.5052 -94.427 18
    endloop
  endfacet
  facet normal 0.844366 0.535767 0
    outer loop
      vertex -88.5052 -94.427 2
      vertex -88.2361 -94.8511 18
      vertex -88.2361 -94.8511 2
    endloop
  endfacet
  facet normal 0.844366 -0.535767 0
    outer loop
      vertex -88.5052 94.427 18
      vertex -88.2361 94.8511 2
      vertex -88.2361 94.8511 18
    endloop
  endfacet
  facet normal 0.844366 -0.535767 0
    outer loop
      vertex -88.2361 94.8511 2
      vertex -88.5052 94.427 18
      vertex -88.5052 94.427 2
    endloop
  endfacet
  facet normal 0.982265 -0.187496 0
    outer loop
      vertex -88.9685 93.0013 18
      vertex -88.8743 93.4948 2
      vertex -88.8743 93.4948 18
    endloop
  endfacet
  facet normal 0.982265 -0.187496 0
    outer loop
      vertex -88.8743 93.4948 2
      vertex -88.9685 93.0013 18
      vertex -88.9685 93.0013 2
    endloop
  endfacet
  facet normal 0.998032 -0.0627129 0
    outer loop
      vertex -89 92.5 18
      vertex -88.9685 93.0013 2
      vertex -88.9685 93.0013 18
    endloop
  endfacet
  facet normal 0.998032 -0.0627129 0
    outer loop
      vertex -88.9685 93.0013 2
      vertex -89 92.5 18
      vertex -89 92.5 2
    endloop
  endfacet
  facet normal 0.587698 -0.80908 0
    outer loop
      vertex -87.5497 95.5821 2
      vertex -87.1433 95.8773 18
      vertex -87.5497 95.5821 18
    endloop
  endfacet
  facet normal 0.587698 -0.80908 0
    outer loop
      vertex -87.1433 95.8773 18
      vertex -87.5497 95.5821 2
      vertex -87.1433 95.8773 2
    endloop
  endfacet
  facet normal 0.368127 -0.929775 0
    outer loop
      vertex -86.7031 96.1193 2
      vertex -86.2361 96.3042 18
      vertex -86.7031 96.1193 18
    endloop
  endfacet
  facet normal 0.368127 -0.929775 0
    outer loop
      vertex -86.2361 96.3042 18
      vertex -86.7031 96.1193 2
      vertex -86.2361 96.3042 2
    endloop
  endfacet
  facet normal -0.844366 -0.535767 0
    outer loop
      vertex 88.5052 94.427 2
      vertex 88.2361 94.8511 18
      vertex 88.2361 94.8511 2
    endloop
  endfacet
  facet normal -0.844366 -0.535767 0
    outer loop
      vertex 88.2361 94.8511 18
      vertex 88.5052 94.427 2
      vertex 88.5052 94.427 18
    endloop
  endfacet
  facet normal -0.904805 -0.425826 0
    outer loop
      vertex 88.7191 93.9725 2
      vertex 88.5052 94.427 18
      vertex 88.5052 94.427 2
    endloop
  endfacet
  facet normal -0.904805 -0.425826 0
    outer loop
      vertex 88.5052 94.427 18
      vertex 88.7191 93.9725 2
      vertex 88.7191 93.9725 18
    endloop
  endfacet
  facet normal -0.998032 0.0627129 0
    outer loop
      vertex 88.9685 -93.0013 2
      vertex 89 -92.5 18
      vertex 89 -92.5 2
    endloop
  endfacet
  facet normal -0.998032 0.0627129 0
    outer loop
      vertex 89 -92.5 18
      vertex 88.9685 -93.0013 2
      vertex 88.9685 -93.0013 18
    endloop
  endfacet
  facet normal -0.684563 0.728953 0
    outer loop
      vertex 87.9159 -95.2382 2
      vertex 87.5497 -95.5821 18
      vertex 87.9159 -95.2382 18
    endloop
  endfacet
  facet normal -0.684563 0.728953 0
    outer loop
      vertex 87.5497 -95.5821 18
      vertex 87.9159 -95.2382 2
      vertex 87.5497 -95.5821 2
    endloop
  endfacet
  facet normal -0.24862 0.968601 0
    outer loop
      vertex 86.2361 -96.3042 2
      vertex 85.7495 -96.4291 18
      vertex 86.2361 -96.3042 18
    endloop
  endfacet
  facet normal -0.24862 0.968601 0
    outer loop
      vertex 85.7495 -96.4291 18
      vertex 86.2361 -96.3042 2
      vertex 85.7495 -96.4291 2
    endloop
  endfacet
  facet normal -0.125431 0.992102 0
    outer loop
      vertex 85.7495 -96.4291 2
      vertex 85.2512 -96.4921 18
      vertex 85.7495 -96.4291 18
    endloop
  endfacet
  facet normal -0.125431 0.992102 0
    outer loop
      vertex 85.2512 -96.4921 18
      vertex 85.7495 -96.4291 2
      vertex 85.2512 -96.4921 2
    endloop
  endfacet
endsolid OpenSCAD_Model
