solid OpenSCAD_Model
  facet normal -1 0 0
    outer loop
      vertex -90 -6.25 0
      vertex -90 6.25 24
      vertex -90 6.25 0
    endloop
  endfacet
  facet normal -1 -0 0
    outer loop
      vertex -90 6.25 24
      vertex -90 -6.25 0
      vertex -90 -6.25 24
    endloop
  endfacet
  facet normal -0.998029 -0.0627481 0
    outer loop
      vertex -89.9606 -6.87667 0
      vertex -90 -6.25 24
      vertex -90 -6.25 0
    endloop
  endfacet
  facet normal -0.998029 -0.0627481 0
    outer loop
      vertex -90 -6.25 24
      vertex -89.9606 -6.87667 0
      vertex -89.9606 -6.87667 24
    endloop
  endfacet
  facet normal -0.998029 0.0627481 0
    outer loop
      vertex -90 6.25 0
      vertex -89.9606 6.87667 24
      vertex -89.9606 6.87667 0
    endloop
  endfacet
  facet normal -0.998029 0.0627481 0
    outer loop
      vertex -89.9606 6.87667 24
      vertex -90 6.25 0
      vertex -90 6.25 24
    endloop
  endfacet
  facet normal 0 1 -0
    outer loop
      vertex 85.3139 11.2401 0
      vertex -85.3139 11.2401 24
      vertex 85.3139 11.2401 24
    endloop
  endfacet
  facet normal 0 1 0
    outer loop
      vertex -85.3139 11.2401 24
      vertex 85.3139 11.2401 0
      vertex -85.3139 11.2401 0
    endloop
  endfacet
  facet normal 0 0 1
    outer loop
      vertex 89 6.25 24
      vertex 90 6.25 24
      vertex 89.9606 6.87667 24
    endloop
  endfacet
  facet normal 0 0 1
    outer loop
      vertex 90 6.25 24
      vertex 89 6.25 24
      vertex 90 -6.25 24
    endloop
  endfacet
  facet normal 0 0 1
    outer loop
      vertex 88.9685 6.75133 24
      vertex 89.9606 6.87667 24
      vertex 89.8429 7.49345 24
    endloop
  endfacet
  facet normal 0 0 1
    outer loop
      vertex 89 -6.25 24
      vertex 90 -6.25 24
      vertex 89 6.25 24
    endloop
  endfacet
  facet normal 0 0 1
    outer loop
      vertex 88.8743 7.24476 24
      vertex 89.8429 7.49345 24
      vertex 89.6489 8.09062 24
    endloop
  endfacet
  facet normal 0 0 1
    outer loop
      vertex 90 -6.25 24
      vertex 89 -6.25 24
      vertex 89.9606 -6.87667 24
    endloop
  endfacet
  facet normal 0 0 1
    outer loop
      vertex 88.7191 7.7225 24
      vertex 89.6489 8.09062 24
      vertex 89.3815 8.65877 24
    endloop
  endfacet
  facet normal -0 0 1
    outer loop
      vertex 88.9685 -6.75133 24
      vertex 89.9606 -6.87667 24
      vertex 89 -6.25 24
    endloop
  endfacet
  facet normal 0 0 1
    outer loop
      vertex 88.5052 8.17701 24
      vertex 89.3815 8.65877 24
      vertex 89.0451 9.18893 24
    endloop
  endfacet
  facet normal 0 0 1
    outer loop
      vertex 89.9606 -6.87667 24
      vertex 88.9685 -6.75133 24
      vertex 89.8429 -7.49345 24
    endloop
  endfacet
  facet normal -0 0 1
    outer loop
      vertex 88.8743 -7.24476 24
      vertex 89.8429 -7.49345 24
      vertex 88.9685 -6.75133 24
    endloop
  endfacet
  facet normal 0 0 1
    outer loop
      vertex 89.9606 6.87667 24
      vertex 88.9685 6.75133 24
      vertex 89 6.25 24
    endloop
  endfacet
  facet normal 0 0 1
    outer loop
      vertex 89.8429 7.49345 24
      vertex 88.8743 7.24476 24
      vertex 88.9685 6.75133 24
    endloop
  endfacet
  facet normal 0 0 1
    outer loop
      vertex 89.6489 8.09062 24
      vertex 88.7191 7.7225 24
      vertex 88.8743 7.24476 24
    endloop
  endfacet
  facet normal 0 0 1
    outer loop
      vertex 88.2361 8.60114 24
      vertex 89.0451 9.18893 24
      vertex 88.6448 9.67274 24
    endloop
  endfacet
  facet normal 0 0 1
    outer loop
      vertex 89.3815 8.65877 24
      vertex 88.5052 8.17701 24
      vertex 88.7191 7.7225 24
    endloop
  endfacet
  facet normal 0 0 1
    outer loop
      vertex 89.0451 9.18893 24
      vertex 88.2361 8.60114 24
      vertex 88.5052 8.17701 24
    endloop
  endfacet
  facet normal 0 0 1
    outer loop
      vertex 87.9159 8.98819 24
      vertex 88.6448 9.67274 24
      vertex 88.1871 10.1026 24
    endloop
  endfacet
  facet normal 0 0 1
    outer loop
      vertex 88.6448 9.67274 24
      vertex 87.9159 8.98819 24
      vertex 88.2361 8.60114 24
    endloop
  endfacet
  facet normal 0 0 1
    outer loop
      vertex 87.5497 9.33205 24
      vertex 88.1871 10.1026 24
      vertex 87.6791 10.4716 24
    endloop
  endfacet
  facet normal 0 0 1
    outer loop
      vertex 88.1871 10.1026 24
      vertex 87.5497 9.33205 24
      vertex 87.9159 8.98819 24
    endloop
  endfacet
  facet normal 0 0 1
    outer loop
      vertex 87.6791 10.4716 24
      vertex 87.1433 9.62731 24
      vertex 87.5497 9.33205 24
    endloop
  endfacet
  facet normal 0 0 1
    outer loop
      vertex 87.1289 10.7741 24
      vertex 87.1433 9.62731 24
      vertex 87.6791 10.4716 24
    endloop
  endfacet
  facet normal 0 0 1
    outer loop
      vertex 87.1289 10.7741 24
      vertex 86.7031 9.86931 24
      vertex 87.1433 9.62731 24
    endloop
  endfacet
  facet normal 0 0 1
    outer loop
      vertex 86.5451 11.0053 24
      vertex 86.7031 9.86931 24
      vertex 87.1289 10.7741 24
    endloop
  endfacet
  facet normal 0 0 1
    outer loop
      vertex 86.5451 11.0053 24
      vertex 86.2361 10.0542 24
      vertex 86.7031 9.86931 24
    endloop
  endfacet
  facet normal 0 0 1
    outer loop
      vertex 85.9369 11.1614 24
      vertex 86.2361 10.0542 24
      vertex 86.5451 11.0053 24
    endloop
  endfacet
  facet normal 0 0 1
    outer loop
      vertex 85.9369 11.1614 24
      vertex 85.7495 10.1791 24
      vertex 86.2361 10.0542 24
    endloop
  endfacet
  facet normal 0 0 1
    outer loop
      vertex 85.3139 11.2401 24
      vertex 85.7495 10.1791 24
      vertex 85.9369 11.1614 24
    endloop
  endfacet
  facet normal 0 0 1
    outer loop
      vertex 85.3139 11.2401 24
      vertex 85.2512 10.2421 24
      vertex 85.7495 10.1791 24
    endloop
  endfacet
  facet normal 0 0 1
    outer loop
      vertex 85.3139 11.2401 24
      vertex -85.2512 10.2421 24
      vertex 85.2512 10.2421 24
    endloop
  endfacet
  facet normal -0 0 1
    outer loop
      vertex -85.3139 11.2401 24
      vertex -85.2512 10.2421 24
      vertex 85.3139 11.2401 24
    endloop
  endfacet
  facet normal 0 0 1
    outer loop
      vertex -85.3139 11.2401 24
      vertex -85.7495 10.1791 24
      vertex -85.2512 10.2421 24
    endloop
  endfacet
  facet normal -0 0 1
    outer loop
      vertex -85.9369 11.1614 24
      vertex -85.7495 10.1791 24
      vertex -85.3139 11.2401 24
    endloop
  endfacet
  facet normal 0 0 1
    outer loop
      vertex -85.9369 11.1614 24
      vertex -86.2361 10.0542 24
      vertex -85.7495 10.1791 24
    endloop
  endfacet
  facet normal -0 0 1
    outer loop
      vertex -86.5451 11.0053 24
      vertex -86.2361 10.0542 24
      vertex -85.9369 11.1614 24
    endloop
  endfacet
  facet normal 0 0 1
    outer loop
      vertex -86.5451 11.0053 24
      vertex -86.7031 9.86931 24
      vertex -86.2361 10.0542 24
    endloop
  endfacet
  facet normal -0 0 1
    outer loop
      vertex -87.1289 10.7741 24
      vertex -86.7031 9.86931 24
      vertex -86.5451 11.0053 24
    endloop
  endfacet
  facet normal 0 0 1
    outer loop
      vertex -87.1289 10.7741 24
      vertex -87.1433 9.62731 24
      vertex -86.7031 9.86931 24
    endloop
  endfacet
  facet normal -0 0 1
    outer loop
      vertex -87.6791 10.4716 24
      vertex -87.1433 9.62731 24
      vertex -87.1289 10.7741 24
    endloop
  endfacet
  facet normal 0 0 1
    outer loop
      vertex -87.1433 9.62731 24
      vertex -87.6791 10.4716 24
      vertex -87.5497 9.33205 24
    endloop
  endfacet
  facet normal -0 0 1
    outer loop
      vertex -88.1871 10.1026 24
      vertex -87.5497 9.33205 24
      vertex -87.6791 10.4716 24
    endloop
  endfacet
  facet normal 0 0 1
    outer loop
      vertex -87.5497 9.33205 24
      vertex -88.1871 10.1026 24
      vertex -87.9159 8.98819 24
    endloop
  endfacet
  facet normal -0 0 1
    outer loop
      vertex -88.6448 9.67274 24
      vertex -87.9159 8.98819 24
      vertex -88.1871 10.1026 24
    endloop
  endfacet
  facet normal 0 0 1
    outer loop
      vertex -87.9159 8.98819 24
      vertex -88.6448 9.67274 24
      vertex -88.2361 8.60114 24
    endloop
  endfacet
  facet normal -0 0 1
    outer loop
      vertex -89.0451 9.18893 24
      vertex -88.2361 8.60114 24
      vertex -88.6448 9.67274 24
    endloop
  endfacet
  facet normal 0 0 1
    outer loop
      vertex -88.2361 8.60114 24
      vertex -89.0451 9.18893 24
      vertex -88.5052 8.17701 24
    endloop
  endfacet
  facet normal -0 0 1
    outer loop
      vertex -89.3815 8.65877 24
      vertex -88.5052 8.17701 24
      vertex -89.0451 9.18893 24
    endloop
  endfacet
  facet normal 0 0 1
    outer loop
      vertex -88.5052 8.17701 24
      vertex -89.3815 8.65877 24
      vertex -88.7191 7.7225 24
    endloop
  endfacet
  facet normal -0 0 1
    outer loop
      vertex -89.8429 7.49345 24
      vertex -88.8743 7.24476 24
      vertex -89.6489 8.09062 24
    endloop
  endfacet
  facet normal 0 0 1
    outer loop
      vertex -88.7191 7.7225 24
      vertex -89.6489 8.09062 24
      vertex -88.8743 7.24476 24
    endloop
  endfacet
  facet normal -0 0 1
    outer loop
      vertex -89.6489 8.09062 24
      vertex -88.7191 7.7225 24
      vertex -89.3815 8.65877 24
    endloop
  endfacet
  facet normal 0 0 1
    outer loop
      vertex 89.8429 -7.49345 24
      vertex 88.8743 -7.24476 24
      vertex 89.6489 -8.09062 24
    endloop
  endfacet
  facet normal -0 0 1
    outer loop
      vertex 88.7191 -7.7225 24
      vertex 89.6489 -8.09062 24
      vertex 88.8743 -7.24476 24
    endloop
  endfacet
  facet normal 0 0 1
    outer loop
      vertex 89.6489 -8.09062 24
      vertex 88.7191 -7.7225 24
      vertex 89.3815 -8.65877 24
    endloop
  endfacet
  facet normal -0 0 1
    outer loop
      vertex 88.5052 -8.17701 24
      vertex 89.3815 -8.65877 24
      vertex 88.7191 -7.7225 24
    endloop
  endfacet
  facet normal 0 0 1
    outer loop
      vertex 89.3815 -8.65877 24
      vertex 88.5052 -8.17701 24
      vertex 89.0451 -9.18893 24
    endloop
  endfacet
  facet normal -0 0 1
    outer loop
      vertex 88.2361 -8.60114 24
      vertex 89.0451 -9.18893 24
      vertex 88.5052 -8.17701 24
    endloop
  endfacet
  facet normal 0 0 1
    outer loop
      vertex 89.0451 -9.18893 24
      vertex 88.2361 -8.60114 24
      vertex 88.6448 -9.67274 24
    endloop
  endfacet
  facet normal -0 0 1
    outer loop
      vertex 87.9159 -8.98819 24
      vertex 88.6448 -9.67274 24
      vertex 88.2361 -8.60114 24
    endloop
  endfacet
  facet normal 0 0 1
    outer loop
      vertex 88.6448 -9.67274 24
      vertex 87.9159 -8.98819 24
      vertex 88.1871 -10.1026 24
    endloop
  endfacet
  facet normal -0 0 1
    outer loop
      vertex 87.5497 -9.33205 24
      vertex 88.1871 -10.1026 24
      vertex 87.9159 -8.98819 24
    endloop
  endfacet
  facet normal 0 0 1
    outer loop
      vertex 88.1871 -10.1026 24
      vertex 87.5497 -9.33205 24
      vertex 87.6791 -10.4716 24
    endloop
  endfacet
  facet normal -0 0 1
    outer loop
      vertex 87.1433 -9.62731 24
      vertex 87.6791 -10.4716 24
      vertex 87.5497 -9.33205 24
    endloop
  endfacet
  facet normal 0 0 1
    outer loop
      vertex 87.1433 -9.62731 24
      vertex 87.1289 -10.7741 24
      vertex 87.6791 -10.4716 24
    endloop
  endfacet
  facet normal -0 0 1
    outer loop
      vertex 86.7031 -9.86931 24
      vertex 87.1289 -10.7741 24
      vertex 87.1433 -9.62731 24
    endloop
  endfacet
  facet normal 0 0 1
    outer loop
      vertex 86.7031 -9.86931 24
      vertex 86.5451 -11.0053 24
      vertex 87.1289 -10.7741 24
    endloop
  endfacet
  facet normal -0 0 1
    outer loop
      vertex 86.2361 -10.0542 24
      vertex 86.5451 -11.0053 24
      vertex 86.7031 -9.86931 24
    endloop
  endfacet
  facet normal 0 0 1
    outer loop
      vertex 86.2361 -10.0542 24
      vertex 85.9369 -11.1614 24
      vertex 86.5451 -11.0053 24
    endloop
  endfacet
  facet normal -0 0 1
    outer loop
      vertex 85.7495 -10.1791 24
      vertex 85.9369 -11.1614 24
      vertex 86.2361 -10.0542 24
    endloop
  endfacet
  facet normal 0 0 1
    outer loop
      vertex 85.7495 -10.1791 24
      vertex 85.3139 -11.2401 24
      vertex 85.9369 -11.1614 24
    endloop
  endfacet
  facet normal -0 0 1
    outer loop
      vertex 85.2512 -10.2421 24
      vertex 85.3139 -11.2401 24
      vertex 85.7495 -10.1791 24
    endloop
  endfacet
  facet normal -0 0 1
    outer loop
      vertex -85.2512 -10.2421 24
      vertex 85.3139 -11.2401 24
      vertex 85.2512 -10.2421 24
    endloop
  endfacet
  facet normal 0 0 1
    outer loop
      vertex -85.2512 -10.2421 24
      vertex -85.3139 -11.2401 24
      vertex 85.3139 -11.2401 24
    endloop
  endfacet
  facet normal 0 0 1
    outer loop
      vertex -85.7495 -10.1791 24
      vertex -85.3139 -11.2401 24
      vertex -85.2512 -10.2421 24
    endloop
  endfacet
  facet normal 0 0 1
    outer loop
      vertex -85.7495 -10.1791 24
      vertex -85.9369 -11.1614 24
      vertex -85.3139 -11.2401 24
    endloop
  endfacet
  facet normal 0 0 1
    outer loop
      vertex -86.2361 -10.0542 24
      vertex -85.9369 -11.1614 24
      vertex -85.7495 -10.1791 24
    endloop
  endfacet
  facet normal 0 0 1
    outer loop
      vertex -86.2361 -10.0542 24
      vertex -86.5451 -11.0053 24
      vertex -85.9369 -11.1614 24
    endloop
  endfacet
  facet normal 0 0 1
    outer loop
      vertex -86.7031 -9.86931 24
      vertex -86.5451 -11.0053 24
      vertex -86.2361 -10.0542 24
    endloop
  endfacet
  facet normal 0 0 1
    outer loop
      vertex -86.7031 -9.86931 24
      vertex -87.1289 -10.7741 24
      vertex -86.5451 -11.0053 24
    endloop
  endfacet
  facet normal 0 0 1
    outer loop
      vertex -87.1433 -9.62731 24
      vertex -87.1289 -10.7741 24
      vertex -86.7031 -9.86931 24
    endloop
  endfacet
  facet normal 0 0 1
    outer loop
      vertex -87.6791 -10.4716 24
      vertex -87.1433 -9.62731 24
      vertex -87.5497 -9.33205 24
    endloop
  endfacet
  facet normal 0 0 1
    outer loop
      vertex -87.1433 -9.62731 24
      vertex -87.6791 -10.4716 24
      vertex -87.1289 -10.7741 24
    endloop
  endfacet
  facet normal 0 0 1
    outer loop
      vertex -88.1871 -10.1026 24
      vertex -87.5497 -9.33205 24
      vertex -87.9159 -8.98819 24
    endloop
  endfacet
  facet normal 0 0 1
    outer loop
      vertex -87.5497 -9.33205 24
      vertex -88.1871 -10.1026 24
      vertex -87.6791 -10.4716 24
    endloop
  endfacet
  facet normal 0 0 1
    outer loop
      vertex -88.6448 -9.67274 24
      vertex -87.9159 -8.98819 24
      vertex -88.2361 -8.60114 24
    endloop
  endfacet
  facet normal 0 0 1
    outer loop
      vertex -89.0451 -9.18893 24
      vertex -88.2361 -8.60114 24
      vertex -88.5052 -8.17701 24
    endloop
  endfacet
  facet normal 0 0 1
    outer loop
      vertex -87.9159 -8.98819 24
      vertex -88.6448 -9.67274 24
      vertex -88.1871 -10.1026 24
    endloop
  endfacet
  facet normal 0 0 1
    outer loop
      vertex -89.3815 -8.65877 24
      vertex -88.5052 -8.17701 24
      vertex -88.7191 -7.7225 24
    endloop
  endfacet
  facet normal 0 0 1
    outer loop
      vertex -89.6489 -8.09062 24
      vertex -88.7191 -7.7225 24
      vertex -88.8743 -7.24476 24
    endloop
  endfacet
  facet normal 0 0 1
    outer loop
      vertex -89.8429 -7.49345 24
      vertex -88.8743 -7.24476 24
      vertex -88.9685 -6.75133 24
    endloop
  endfacet
  facet normal 0 0 1
    outer loop
      vertex -88.2361 -8.60114 24
      vertex -89.0451 -9.18893 24
      vertex -88.6448 -9.67274 24
    endloop
  endfacet
  facet normal 0 0 1
    outer loop
      vertex -89.9606 -6.87667 24
      vertex -88.9685 -6.75133 24
      vertex -89 -6.25 24
    endloop
  endfacet
  facet normal 0 0 1
    outer loop
      vertex -89 6.25 24
      vertex -90 6.25 24
      vertex -89 -6.25 24
    endloop
  endfacet
  facet normal 0 0 1
    outer loop
      vertex -88.8743 7.24476 24
      vertex -89.8429 7.49345 24
      vertex -88.9685 6.75133 24
    endloop
  endfacet
  facet normal 0 0 1
    outer loop
      vertex -90 -6.25 24
      vertex -89 -6.25 24
      vertex -90 6.25 24
    endloop
  endfacet
  facet normal -0 0 1
    outer loop
      vertex -89.9606 6.87667 24
      vertex -88.9685 6.75133 24
      vertex -89.8429 7.49345 24
    endloop
  endfacet
  facet normal 0 -0 1
    outer loop
      vertex -89.9606 -6.87667 24
      vertex -89 -6.25 24
      vertex -90 -6.25 24
    endloop
  endfacet
  facet normal 0 0 1
    outer loop
      vertex -88.9685 6.75133 24
      vertex -89.9606 6.87667 24
      vertex -89 6.25 24
    endloop
  endfacet
  facet normal 0 0 1
    outer loop
      vertex -88.5052 -8.17701 24
      vertex -89.3815 -8.65877 24
      vertex -89.0451 -9.18893 24
    endloop
  endfacet
  facet normal 0 0 1
    outer loop
      vertex -89 6.25 24
      vertex -89.9606 6.87667 24
      vertex -90 6.25 24
    endloop
  endfacet
  facet normal 0 0 1
    outer loop
      vertex -88.7191 -7.7225 24
      vertex -89.6489 -8.09062 24
      vertex -89.3815 -8.65877 24
    endloop
  endfacet
  facet normal 0 0 1
    outer loop
      vertex -88.8743 -7.24476 24
      vertex -89.8429 -7.49345 24
      vertex -89.6489 -8.09062 24
    endloop
  endfacet
  facet normal 0 0 1
    outer loop
      vertex -88.9685 -6.75133 24
      vertex -89.9606 -6.87667 24
      vertex -89.8429 -7.49345 24
    endloop
  endfacet
  facet normal 0 -1 0
    outer loop
      vertex -85.3139 -11.2401 0
      vertex 85.3139 -11.2401 24
      vertex -85.3139 -11.2401 24
    endloop
  endfacet
  facet normal 0 -1 -0
    outer loop
      vertex 85.3139 -11.2401 24
      vertex -85.3139 -11.2401 0
      vertex 85.3139 -11.2401 0
    endloop
  endfacet
  facet normal 0.587698 -0.80908 0
    outer loop
      vertex 87.6791 -10.4716 0
      vertex 88.1871 -10.1026 24
      vertex 87.6791 -10.4716 24
    endloop
  endfacet
  facet normal 0.587698 -0.80908 0
    outer loop
      vertex 88.1871 -10.1026 24
      vertex 87.6791 -10.4716 0
      vertex 88.1871 -10.1026 0
    endloop
  endfacet
  facet normal 0.982275 0.187447 0
    outer loop
      vertex 89.9606 6.87667 24
      vertex 89.8429 7.49345 0
      vertex 89.8429 7.49345 24
    endloop
  endfacet
  facet normal 0.982275 0.187447 0
    outer loop
      vertex 89.8429 7.49345 0
      vertex 89.9606 6.87667 24
      vertex 89.9606 6.87667 0
    endloop
  endfacet
  facet normal 0.982275 -0.187447 0
    outer loop
      vertex 89.8429 -7.49345 24
      vertex 89.9606 -6.87667 0
      vertex 89.9606 -6.87667 24
    endloop
  endfacet
  facet normal 0.982275 -0.187447 0
    outer loop
      vertex 89.9606 -6.87667 0
      vertex 89.8429 -7.49345 24
      vertex 89.8429 -7.49345 0
    endloop
  endfacet
  facet normal 1 -0 0
    outer loop
      vertex 90 -6.25 24
      vertex 90 6.25 0
      vertex 90 6.25 24
    endloop
  endfacet
  facet normal 1 0 0
    outer loop
      vertex 90 6.25 0
      vertex 90 -6.25 24
      vertex 90 -6.25 0
    endloop
  endfacet
  facet normal -0.368203 -0.929745 0
    outer loop
      vertex -87.1289 -10.7741 0
      vertex -86.5451 -11.0053 24
      vertex -87.1289 -10.7741 24
    endloop
  endfacet
  facet normal -0.368203 -0.929745 -0
    outer loop
      vertex -86.5451 -11.0053 24
      vertex -87.1289 -10.7741 0
      vertex -86.5451 -11.0053 0
    endloop
  endfacet
  facet normal -0.68459 -0.728928 0
    outer loop
      vertex -88.6448 -9.67274 0
      vertex -88.1871 -10.1026 24
      vertex -88.6448 -9.67274 24
    endloop
  endfacet
  facet normal -0.68459 -0.728928 -0
    outer loop
      vertex -88.1871 -10.1026 24
      vertex -88.6448 -9.67274 0
      vertex -88.1871 -10.1026 0
    endloop
  endfacet
  facet normal 0.951072 0.30897 0
    outer loop
      vertex 89.8429 7.49345 24
      vertex 89.6489 8.09062 0
      vertex 89.6489 8.09062 24
    endloop
  endfacet
  facet normal 0.951072 0.30897 0
    outer loop
      vertex 89.6489 8.09062 0
      vertex 89.8429 7.49345 24
      vertex 89.8429 7.49345 0
    endloop
  endfacet
  facet normal 0.68459 0.728928 -0
    outer loop
      vertex 88.6448 9.67274 0
      vertex 88.1871 10.1026 24
      vertex 88.6448 9.67274 24
    endloop
  endfacet
  facet normal 0.68459 0.728928 0
    outer loop
      vertex 88.1871 10.1026 24
      vertex 88.6448 9.67274 0
      vertex 88.1871 10.1026 0
    endloop
  endfacet
  facet normal 0.368203 0.929745 -0
    outer loop
      vertex 87.1289 10.7741 0
      vertex 86.5451 11.0053 24
      vertex 87.1289 10.7741 24
    endloop
  endfacet
  facet normal 0.368203 0.929745 0
    outer loop
      vertex 86.5451 11.0053 24
      vertex 87.1289 10.7741 0
      vertex 86.5451 11.0053 0
    endloop
  endfacet
  facet normal 0.248601 0.968606 -0
    outer loop
      vertex 86.5451 11.0053 0
      vertex 85.9369 11.1614 24
      vertex 86.5451 11.0053 24
    endloop
  endfacet
  facet normal 0.248601 0.968606 0
    outer loop
      vertex 85.9369 11.1614 24
      vertex 86.5451 11.0053 0
      vertex 85.9369 11.1614 0
    endloop
  endfacet
  facet normal 0.125328 0.992115 -0
    outer loop
      vertex 85.9369 11.1614 0
      vertex 85.3139 11.2401 24
      vertex 85.9369 11.1614 24
    endloop
  endfacet
  facet normal 0.125328 0.992115 0
    outer loop
      vertex 85.3139 11.2401 24
      vertex 85.9369 11.1614 0
      vertex 85.3139 11.2401 0
    endloop
  endfacet
  facet normal -0.248601 0.968606 0
    outer loop
      vertex -85.9369 11.1614 0
      vertex -86.5451 11.0053 24
      vertex -85.9369 11.1614 24
    endloop
  endfacet
  facet normal -0.248601 0.968606 0
    outer loop
      vertex -86.5451 11.0053 24
      vertex -85.9369 11.1614 0
      vertex -86.5451 11.0053 0
    endloop
  endfacet
  facet normal 0 0 -1
    outer loop
      vertex 85.3139 -11.2401 0
      vertex 90 -6.25 0
      vertex 89.9606 -6.87667 0
    endloop
  endfacet
  facet normal -0 0 -1
    outer loop
      vertex 90 -6.25 0
      vertex 85.3139 -11.2401 0
      vertex 90 6.25 0
    endloop
  endfacet
  facet normal 0 0 -1
    outer loop
      vertex 85.3139 -11.2401 0
      vertex 89.9606 -6.87667 0
      vertex 89.8429 -7.49345 0
    endloop
  endfacet
  facet normal 0 0 -1
    outer loop
      vertex 85.3139 11.2401 0
      vertex 90 6.25 0
      vertex 85.3139 -11.2401 0
    endloop
  endfacet
  facet normal 0 0 -1
    outer loop
      vertex 85.3139 -11.2401 0
      vertex 89.8429 -7.49345 0
      vertex 89.6489 -8.09062 0
    endloop
  endfacet
  facet normal 0 0 -1
    outer loop
      vertex 90 6.25 0
      vertex 85.3139 11.2401 0
      vertex 89.9606 6.87667 0
    endloop
  endfacet
  facet normal 0 0 -1
    outer loop
      vertex 85.3139 -11.2401 0
      vertex 89.6489 -8.09062 0
      vertex 89.3815 -8.65877 0
    endloop
  endfacet
  facet normal 0 0 -1
    outer loop
      vertex 89.9606 6.87667 0
      vertex 85.3139 11.2401 0
      vertex 89.8429 7.49345 0
    endloop
  endfacet
  facet normal 0 0 -1
    outer loop
      vertex 85.3139 -11.2401 0
      vertex 89.3815 -8.65877 0
      vertex 89.0451 -9.18893 0
    endloop
  endfacet
  facet normal 0 0 -1
    outer loop
      vertex 89.8429 7.49345 0
      vertex 85.3139 11.2401 0
      vertex 89.6489 8.09062 0
    endloop
  endfacet
  facet normal 0 0 -1
    outer loop
      vertex 85.3139 -11.2401 0
      vertex 89.0451 -9.18893 0
      vertex 88.6448 -9.67274 0
    endloop
  endfacet
  facet normal 0 0 -1
    outer loop
      vertex 89.6489 8.09062 0
      vertex 85.3139 11.2401 0
      vertex 89.3815 8.65877 0
    endloop
  endfacet
  facet normal 0 0 -1
    outer loop
      vertex 85.3139 -11.2401 0
      vertex 88.6448 -9.67274 0
      vertex 88.1871 -10.1026 0
    endloop
  endfacet
  facet normal 0 0 -1
    outer loop
      vertex 89.3815 8.65877 0
      vertex 85.3139 11.2401 0
      vertex 89.0451 9.18893 0
    endloop
  endfacet
  facet normal 0 0 -1
    outer loop
      vertex 85.3139 -11.2401 0
      vertex 88.1871 -10.1026 0
      vertex 87.6791 -10.4716 0
    endloop
  endfacet
  facet normal 0 0 -1
    outer loop
      vertex 89.0451 9.18893 0
      vertex 85.3139 11.2401 0
      vertex 88.6448 9.67274 0
    endloop
  endfacet
  facet normal 0 0 -1
    outer loop
      vertex 85.3139 -11.2401 0
      vertex 87.6791 -10.4716 0
      vertex 87.1289 -10.7741 0
    endloop
  endfacet
  facet normal 0 0 -1
    outer loop
      vertex 88.6448 9.67274 0
      vertex 85.3139 11.2401 0
      vertex 88.1871 10.1026 0
    endloop
  endfacet
  facet normal 0 0 -1
    outer loop
      vertex 85.3139 -11.2401 0
      vertex 87.1289 -10.7741 0
      vertex 86.5451 -11.0053 0
    endloop
  endfacet
  facet normal 0 0 -1
    outer loop
      vertex 88.1871 10.1026 0
      vertex 85.3139 11.2401 0
      vertex 87.6791 10.4716 0
    endloop
  endfacet
  facet normal 0 0 -1
    outer loop
      vertex 85.3139 -11.2401 0
      vertex 86.5451 -11.0053 0
      vertex 85.9369 -11.1614 0
    endloop
  endfacet
  facet normal 0 0 -1
    outer loop
      vertex 87.6791 10.4716 0
      vertex 85.3139 11.2401 0
      vertex 87.1289 10.7741 0
    endloop
  endfacet
  facet normal 0 0 -1
    outer loop
      vertex 87.1289 10.7741 0
      vertex 85.3139 11.2401 0
      vertex 86.5451 11.0053 0
    endloop
  endfacet
  facet normal 0 0 -1
    outer loop
      vertex 86.5451 11.0053 0
      vertex 85.3139 11.2401 0
      vertex 85.9369 11.1614 0
    endloop
  endfacet
  facet normal 0 0 -1
    outer loop
      vertex -85.3139 -11.2401 0
      vertex 85.3139 11.2401 0
      vertex 85.3139 -11.2401 0
    endloop
  endfacet
  facet normal 0 0 -1
    outer loop
      vertex -85.3139 -11.2401 0
      vertex -85.3139 11.2401 0
      vertex 85.3139 11.2401 0
    endloop
  endfacet
  facet normal 0 0 -1
    outer loop
      vertex -90 -6.25 0
      vertex -85.3139 -11.2401 0
      vertex -85.9369 -11.1614 0
    endloop
  endfacet
  facet normal 0 0 -1
    outer loop
      vertex -85.3139 -11.2401 0
      vertex -90 -6.25 0
      vertex -85.3139 11.2401 0
    endloop
  endfacet
  facet normal 0 0 -1
    outer loop
      vertex -90 -6.25 0
      vertex -85.9369 -11.1614 0
      vertex -86.5451 -11.0053 0
    endloop
  endfacet
  facet normal 0 0 -1
    outer loop
      vertex -90 6.25 0
      vertex -85.3139 11.2401 0
      vertex -90 -6.25 0
    endloop
  endfacet
  facet normal 0 0 -1
    outer loop
      vertex -90 -6.25 0
      vertex -86.5451 -11.0053 0
      vertex -87.1289 -10.7741 0
    endloop
  endfacet
  facet normal 0 0 -1
    outer loop
      vertex -85.3139 11.2401 0
      vertex -90 6.25 0
      vertex -85.9369 11.1614 0
    endloop
  endfacet
  facet normal 0 0 -1
    outer loop
      vertex -90 -6.25 0
      vertex -87.1289 -10.7741 0
      vertex -87.6791 -10.4716 0
    endloop
  endfacet
  facet normal 0 0 -1
    outer loop
      vertex -85.9369 11.1614 0
      vertex -90 6.25 0
      vertex -86.5451 11.0053 0
    endloop
  endfacet
  facet normal 0 0 -1
    outer loop
      vertex -90 -6.25 0
      vertex -87.6791 -10.4716 0
      vertex -88.1871 -10.1026 0
    endloop
  endfacet
  facet normal 0 0 -1
    outer loop
      vertex -86.5451 11.0053 0
      vertex -90 6.25 0
      vertex -87.1289 10.7741 0
    endloop
  endfacet
  facet normal 0 0 -1
    outer loop
      vertex -90 -6.25 0
      vertex -88.1871 -10.1026 0
      vertex -88.6448 -9.67274 0
    endloop
  endfacet
  facet normal 0 0 -1
    outer loop
      vertex -87.1289 10.7741 0
      vertex -90 6.25 0
      vertex -87.6791 10.4716 0
    endloop
  endfacet
  facet normal 0 0 -1
    outer loop
      vertex -90 -6.25 0
      vertex -88.6448 -9.67274 0
      vertex -89.0451 -9.18893 0
    endloop
  endfacet
  facet normal 0 0 -1
    outer loop
      vertex -87.6791 10.4716 0
      vertex -90 6.25 0
      vertex -88.1871 10.1026 0
    endloop
  endfacet
  facet normal 0 0 -1
    outer loop
      vertex -90 -6.25 0
      vertex -89.0451 -9.18893 0
      vertex -89.3815 -8.65877 0
    endloop
  endfacet
  facet normal 0 0 -1
    outer loop
      vertex -88.1871 10.1026 0
      vertex -90 6.25 0
      vertex -88.6448 9.67274 0
    endloop
  endfacet
  facet normal 0 0 -1
    outer loop
      vertex -90 -6.25 0
      vertex -89.3815 -8.65877 0
      vertex -89.6489 -8.09062 0
    endloop
  endfacet
  facet normal 0 0 -1
    outer loop
      vertex -88.6448 9.67274 0
      vertex -90 6.25 0
      vertex -89.0451 9.18893 0
    endloop
  endfacet
  facet normal 0 0 -1
    outer loop
      vertex -90 -6.25 0
      vertex -89.6489 -8.09062 0
      vertex -89.8429 -7.49345 0
    endloop
  endfacet
  facet normal 0 0 -1
    outer loop
      vertex -89.0451 9.18893 0
      vertex -90 6.25 0
      vertex -89.3815 8.65877 0
    endloop
  endfacet
  facet normal 0 0 -1
    outer loop
      vertex -90 -6.25 0
      vertex -89.8429 -7.49345 0
      vertex -89.9606 -6.87667 0
    endloop
  endfacet
  facet normal 0 0 -1
    outer loop
      vertex -89.3815 8.65877 0
      vertex -90 6.25 0
      vertex -89.6489 8.09062 0
    endloop
  endfacet
  facet normal 0 0 -1
    outer loop
      vertex -89.6489 8.09062 0
      vertex -90 6.25 0
      vertex -89.8429 7.49345 0
    endloop
  endfacet
  facet normal 0 0 -1
    outer loop
      vertex -89.8429 7.49345 0
      vertex -90 6.25 0
      vertex -89.9606 6.87667 0
    endloop
  endfacet
  facet normal -0.951072 -0.30897 0
    outer loop
      vertex -89.6489 -8.09062 0
      vertex -89.8429 -7.49345 24
      vertex -89.8429 -7.49345 0
    endloop
  endfacet
  facet normal -0.951072 -0.30897 0
    outer loop
      vertex -89.8429 -7.49345 24
      vertex -89.6489 -8.09062 0
      vertex -89.6489 -8.09062 24
    endloop
  endfacet
  facet normal -0.770468 -0.637478 0
    outer loop
      vertex -88.6448 -9.67274 0
      vertex -89.0451 -9.18893 24
      vertex -89.0451 -9.18893 0
    endloop
  endfacet
  facet normal -0.770468 -0.637478 0
    outer loop
      vertex -89.0451 -9.18893 24
      vertex -88.6448 -9.67274 0
      vertex -88.6448 -9.67274 24
    endloop
  endfacet
  facet normal -0.904797 -0.425843 0
    outer loop
      vertex -89.3815 -8.65877 0
      vertex -89.6489 -8.09062 24
      vertex -89.6489 -8.09062 0
    endloop
  endfacet
  facet normal -0.904797 -0.425843 0
    outer loop
      vertex -89.6489 -8.09062 24
      vertex -89.3815 -8.65877 0
      vertex -89.3815 -8.65877 24
    endloop
  endfacet
  facet normal -0.248601 -0.968606 0
    outer loop
      vertex -86.5451 -11.0053 0
      vertex -85.9369 -11.1614 24
      vertex -86.5451 -11.0053 24
    endloop
  endfacet
  facet normal -0.248601 -0.968606 -0
    outer loop
      vertex -85.9369 -11.1614 24
      vertex -86.5451 -11.0053 0
      vertex -85.9369 -11.1614 0
    endloop
  endfacet
  facet normal -0.587698 -0.80908 0
    outer loop
      vertex -88.1871 -10.1026 0
      vertex -87.6791 -10.4716 24
      vertex -88.1871 -10.1026 24
    endloop
  endfacet
  facet normal -0.587698 -0.80908 -0
    outer loop
      vertex -87.6791 -10.4716 24
      vertex -88.1871 -10.1026 0
      vertex -87.6791 -10.4716 0
    endloop
  endfacet
  facet normal 0.998029 -0.0627481 0
    outer loop
      vertex 89.9606 -6.87667 24
      vertex 90 -6.25 0
      vertex 90 -6.25 24
    endloop
  endfacet
  facet normal 0.998029 -0.0627481 0
    outer loop
      vertex 90 -6.25 0
      vertex 89.9606 -6.87667 24
      vertex 89.9606 -6.87667 0
    endloop
  endfacet
  facet normal 0.951072 -0.30897 0
    outer loop
      vertex 89.6489 -8.09062 24
      vertex 89.8429 -7.49345 0
      vertex 89.8429 -7.49345 24
    endloop
  endfacet
  facet normal 0.951072 -0.30897 0
    outer loop
      vertex 89.8429 -7.49345 0
      vertex 89.6489 -8.09062 24
      vertex 89.6489 -8.09062 0
    endloop
  endfacet
  facet normal 0.68459 -0.728928 0
    outer loop
      vertex 88.1871 -10.1026 0
      vertex 88.6448 -9.67274 24
      vertex 88.1871 -10.1026 24
    endloop
  endfacet
  facet normal 0.68459 -0.728928 0
    outer loop
      vertex 88.6448 -9.67274 24
      vertex 88.1871 -10.1026 0
      vertex 88.6448 -9.67274 0
    endloop
  endfacet
  facet normal 0.368203 -0.929745 0
    outer loop
      vertex 86.5451 -11.0053 0
      vertex 87.1289 -10.7741 24
      vertex 86.5451 -11.0053 24
    endloop
  endfacet
  facet normal 0.368203 -0.929745 0
    outer loop
      vertex 87.1289 -10.7741 24
      vertex 86.5451 -11.0053 0
      vertex 87.1289 -10.7741 0
    endloop
  endfacet
  facet normal 0.125328 -0.992115 0
    outer loop
      vertex 85.3139 -11.2401 0
      vertex 85.9369 -11.1614 24
      vertex 85.3139 -11.2401 24
    endloop
  endfacet
  facet normal 0.125328 -0.992115 0
    outer loop
      vertex 85.9369 -11.1614 24
      vertex 85.3139 -11.2401 0
      vertex 85.9369 -11.1614 0
    endloop
  endfacet
  facet normal 0.770468 0.637478 0
    outer loop
      vertex 89.0451 9.18893 24
      vertex 88.6448 9.67274 0
      vertex 88.6448 9.67274 24
    endloop
  endfacet
  facet normal 0.770468 0.637478 0
    outer loop
      vertex 88.6448 9.67274 0
      vertex 89.0451 9.18893 24
      vertex 89.0451 9.18893 0
    endloop
  endfacet
  facet normal 0.998029 0.0627481 0
    outer loop
      vertex 90 6.25 24
      vertex 89.9606 6.87667 0
      vertex 89.9606 6.87667 24
    endloop
  endfacet
  facet normal 0.998029 0.0627481 0
    outer loop
      vertex 89.9606 6.87667 0
      vertex 90 6.25 24
      vertex 90 6.25 0
    endloop
  endfacet
  facet normal 0.587698 0.80908 -0
    outer loop
      vertex 88.1871 10.1026 0
      vertex 87.6791 10.4716 24
      vertex 88.1871 10.1026 24
    endloop
  endfacet
  facet normal 0.587698 0.80908 0
    outer loop
      vertex 87.6791 10.4716 24
      vertex 88.1871 10.1026 0
      vertex 87.6791 10.4716 0
    endloop
  endfacet
  facet normal 0.481784 0.87629 -0
    outer loop
      vertex 87.6791 10.4716 0
      vertex 87.1289 10.7741 24
      vertex 87.6791 10.4716 24
    endloop
  endfacet
  facet normal 0.481784 0.87629 0
    outer loop
      vertex 87.1289 10.7741 24
      vertex 87.6791 10.4716 0
      vertex 87.1289 10.7741 0
    endloop
  endfacet
  facet normal -0.982275 0.187447 0
    outer loop
      vertex -89.9606 6.87667 0
      vertex -89.8429 7.49345 24
      vertex -89.8429 7.49345 0
    endloop
  endfacet
  facet normal -0.982275 0.187447 0
    outer loop
      vertex -89.8429 7.49345 24
      vertex -89.9606 6.87667 0
      vertex -89.9606 6.87667 24
    endloop
  endfacet
  facet normal -0.951072 0.30897 0
    outer loop
      vertex -89.8429 7.49345 0
      vertex -89.6489 8.09062 24
      vertex -89.6489 8.09062 0
    endloop
  endfacet
  facet normal -0.951072 0.30897 0
    outer loop
      vertex -89.6489 8.09062 24
      vertex -89.8429 7.49345 0
      vertex -89.8429 7.49345 24
    endloop
  endfacet
  facet normal -0.125328 0.992115 0
    outer loop
      vertex -85.3139 11.2401 0
      vertex -85.9369 11.1614 24
      vertex -85.3139 11.2401 24
    endloop
  endfacet
  facet normal -0.125328 0.992115 0
    outer loop
      vertex -85.9369 11.1614 24
      vertex -85.3139 11.2401 0
      vertex -85.9369 11.1614 0
    endloop
  endfacet
  facet normal -0.770468 0.637478 0
    outer loop
      vertex -89.0451 9.18893 0
      vertex -88.6448 9.67274 24
      vertex -88.6448 9.67274 0
    endloop
  endfacet
  facet normal -0.770468 0.637478 0
    outer loop
      vertex -88.6448 9.67274 24
      vertex -89.0451 9.18893 0
      vertex -89.0451 9.18893 24
    endloop
  endfacet
  facet normal -0.982275 -0.187447 0
    outer loop
      vertex -89.8429 -7.49345 0
      vertex -89.9606 -6.87667 24
      vertex -89.9606 -6.87667 0
    endloop
  endfacet
  facet normal -0.982275 -0.187447 0
    outer loop
      vertex -89.9606 -6.87667 24
      vertex -89.8429 -7.49345 0
      vertex -89.8429 -7.49345 24
    endloop
  endfacet
  facet normal -0.844364 -0.53577 0
    outer loop
      vertex -89.0451 -9.18893 0
      vertex -89.3815 -8.65877 24
      vertex -89.3815 -8.65877 0
    endloop
  endfacet
  facet normal -0.844364 -0.53577 0
    outer loop
      vertex -89.3815 -8.65877 24
      vertex -89.0451 -9.18893 0
      vertex -89.0451 -9.18893 24
    endloop
  endfacet
  facet normal -0.125328 -0.992115 0
    outer loop
      vertex -85.9369 -11.1614 0
      vertex -85.3139 -11.2401 24
      vertex -85.9369 -11.1614 24
    endloop
  endfacet
  facet normal -0.125328 -0.992115 -0
    outer loop
      vertex -85.3139 -11.2401 24
      vertex -85.9369 -11.1614 0
      vertex -85.3139 -11.2401 0
    endloop
  endfacet
  facet normal -0.481784 -0.87629 0
    outer loop
      vertex -87.6791 -10.4716 0
      vertex -87.1289 -10.7741 24
      vertex -87.6791 -10.4716 24
    endloop
  endfacet
  facet normal -0.481784 -0.87629 -0
    outer loop
      vertex -87.1289 -10.7741 24
      vertex -87.6791 -10.4716 0
      vertex -87.1289 -10.7741 0
    endloop
  endfacet
  facet normal 0.770468 -0.637478 0
    outer loop
      vertex 88.6448 -9.67274 24
      vertex 89.0451 -9.18893 0
      vertex 89.0451 -9.18893 24
    endloop
  endfacet
  facet normal 0.770468 -0.637478 0
    outer loop
      vertex 89.0451 -9.18893 0
      vertex 88.6448 -9.67274 24
      vertex 88.6448 -9.67274 0
    endloop
  endfacet
  facet normal 0.481784 -0.87629 0
    outer loop
      vertex 87.1289 -10.7741 0
      vertex 87.6791 -10.4716 24
      vertex 87.1289 -10.7741 24
    endloop
  endfacet
  facet normal 0.481784 -0.87629 0
    outer loop
      vertex 87.6791 -10.4716 24
      vertex 87.1289 -10.7741 0
      vertex 87.6791 -10.4716 0
    endloop
  endfacet
  facet normal 0.248601 -0.968606 0
    outer loop
      vertex 85.9369 -11.1614 0
      vertex 86.5451 -11.0053 24
      vertex 85.9369 -11.1614 24
    endloop
  endfacet
  facet normal 0.248601 -0.968606 0
    outer loop
      vertex 86.5451 -11.0053 24
      vertex 85.9369 -11.1614 0
      vertex 86.5451 -11.0053 0
    endloop
  endfacet
  facet normal 0.844364 0.53577 0
    outer loop
      vertex 89.3815 8.65877 24
      vertex 89.0451 9.18893 0
      vertex 89.0451 9.18893 24
    endloop
  endfacet
  facet normal 0.844364 0.53577 0
    outer loop
      vertex 89.0451 9.18893 0
      vertex 89.3815 8.65877 24
      vertex 89.3815 8.65877 0
    endloop
  endfacet
  facet normal -0.844364 0.53577 0
    outer loop
      vertex -89.3815 8.65877 0
      vertex -89.0451 9.18893 24
      vertex -89.0451 9.18893 0
    endloop
  endfacet
  facet normal -0.844364 0.53577 0
    outer loop
      vertex -89.0451 9.18893 24
      vertex -89.3815 8.65877 0
      vertex -89.3815 8.65877 24
    endloop
  endfacet
  facet normal -0.904797 0.425843 0
    outer loop
      vertex -89.6489 8.09062 0
      vertex -89.3815 8.65877 24
      vertex -89.3815 8.65877 0
    endloop
  endfacet
  facet normal -0.904797 0.425843 0
    outer loop
      vertex -89.3815 8.65877 24
      vertex -89.6489 8.09062 0
      vertex -89.6489 8.09062 24
    endloop
  endfacet
  facet normal -0.368203 0.929745 0
    outer loop
      vertex -86.5451 11.0053 0
      vertex -87.1289 10.7741 24
      vertex -86.5451 11.0053 24
    endloop
  endfacet
  facet normal -0.368203 0.929745 0
    outer loop
      vertex -87.1289 10.7741 24
      vertex -86.5451 11.0053 0
      vertex -87.1289 10.7741 0
    endloop
  endfacet
  facet normal -0.587698 0.80908 0
    outer loop
      vertex -87.6791 10.4716 0
      vertex -88.1871 10.1026 24
      vertex -87.6791 10.4716 24
    endloop
  endfacet
  facet normal -0.587698 0.80908 0
    outer loop
      vertex -88.1871 10.1026 24
      vertex -87.6791 10.4716 0
      vertex -88.1871 10.1026 0
    endloop
  endfacet
  facet normal -0.68459 0.728928 0
    outer loop
      vertex -88.1871 10.1026 0
      vertex -88.6448 9.67274 24
      vertex -88.1871 10.1026 24
    endloop
  endfacet
  facet normal -0.68459 0.728928 0
    outer loop
      vertex -88.6448 9.67274 24
      vertex -88.1871 10.1026 0
      vertex -88.6448 9.67274 0
    endloop
  endfacet
  facet normal 0.904797 -0.425843 0
    outer loop
      vertex 89.3815 -8.65877 24
      vertex 89.6489 -8.09062 0
      vertex 89.6489 -8.09062 24
    endloop
  endfacet
  facet normal 0.904797 -0.425843 0
    outer loop
      vertex 89.6489 -8.09062 0
      vertex 89.3815 -8.65877 24
      vertex 89.3815 -8.65877 0
    endloop
  endfacet
  facet normal 0.844364 -0.53577 0
    outer loop
      vertex 89.0451 -9.18893 24
      vertex 89.3815 -8.65877 0
      vertex 89.3815 -8.65877 24
    endloop
  endfacet
  facet normal 0.844364 -0.53577 0
    outer loop
      vertex 89.3815 -8.65877 0
      vertex 89.0451 -9.18893 24
      vertex 89.0451 -9.18893 0
    endloop
  endfacet
  facet normal 0.904797 0.425843 0
    outer loop
      vertex 89.6489 8.09062 24
      vertex 89.3815 8.65877 0
      vertex 89.3815 8.65877 24
    endloop
  endfacet
  facet normal 0.904797 0.425843 0
    outer loop
      vertex 89.3815 8.65877 0
      vertex 89.6489 8.09062 24
      vertex 89.6489 8.09062 0
    endloop
  endfacet
  facet normal -0.481784 0.87629 0
    outer loop
      vertex -87.1289 10.7741 0
      vertex -87.6791 10.4716 24
      vertex -87.1289 10.7741 24
    endloop
  endfacet
  facet normal -0.481784 0.87629 0
    outer loop
      vertex -87.6791 10.4716 24
      vertex -87.1289 10.7741 0
      vertex -87.6791 10.4716 0
    endloop
  endfacet
  facet normal 1 -0 0
    outer loop
      vertex -89 -6.25 24
      vertex -89 6.25 2
      vertex -89 6.25 24
    endloop
  endfacet
  facet normal 1 0 0
    outer loop
      vertex -89 6.25 2
      vertex -89 -6.25 24
      vertex -89 -6.25 2
    endloop
  endfacet
  facet normal 0.998032 0.0627092 0
    outer loop
      vertex -88.9685 -6.75133 24
      vertex -89 -6.25 2
      vertex -89 -6.25 24
    endloop
  endfacet
  facet normal 0.998032 0.0627092 0
    outer loop
      vertex -89 -6.25 2
      vertex -88.9685 -6.75133 24
      vertex -88.9685 -6.75133 2
    endloop
  endfacet
  facet normal 0.998032 -0.0627092 0
    outer loop
      vertex -89 6.25 24
      vertex -88.9685 6.75133 2
      vertex -88.9685 6.75133 24
    endloop
  endfacet
  facet normal 0.998032 -0.0627092 0
    outer loop
      vertex -88.9685 6.75133 2
      vertex -89 6.25 24
      vertex -89 6.25 2
    endloop
  endfacet
  facet normal 0 -1 0
    outer loop
      vertex -85.2512 10.2421 2
      vertex 85.2512 10.2421 24
      vertex -85.2512 10.2421 24
    endloop
  endfacet
  facet normal 0 -1 -0
    outer loop
      vertex 85.2512 10.2421 24
      vertex -85.2512 10.2421 2
      vertex 85.2512 10.2421 2
    endloop
  endfacet
  facet normal 0 1 -0
    outer loop
      vertex 85.2512 -10.2421 2
      vertex -85.2512 -10.2421 24
      vertex 85.2512 -10.2421 24
    endloop
  endfacet
  facet normal 0 1 0
    outer loop
      vertex -85.2512 -10.2421 24
      vertex 85.2512 -10.2421 2
      vertex -85.2512 -10.2421 2
    endloop
  endfacet
  facet normal -0.770509 0.637429 0
    outer loop
      vertex 87.9159 -8.98819 2
      vertex 88.2361 -8.60114 24
      vertex 88.2361 -8.60114 2
    endloop
  endfacet
  facet normal -0.770509 0.637429 0
    outer loop
      vertex 88.2361 -8.60114 24
      vertex 87.9159 -8.98819 2
      vertex 87.9159 -8.98819 24
    endloop
  endfacet
  facet normal -0.98226 -0.187522 0
    outer loop
      vertex 88.9685 6.75133 2
      vertex 88.8743 7.24476 24
      vertex 88.8743 7.24476 2
    endloop
  endfacet
  facet normal -0.98226 -0.187522 0
    outer loop
      vertex 88.8743 7.24476 24
      vertex 88.9685 6.75133 2
      vertex 88.9685 6.75133 24
    endloop
  endfacet
  facet normal -0.998032 0.0627092 0
    outer loop
      vertex 88.9685 -6.75133 2
      vertex 89 -6.25 24
      vertex 89 -6.25 2
    endloop
  endfacet
  facet normal -0.998032 0.0627092 0
    outer loop
      vertex 89 -6.25 24
      vertex 88.9685 -6.75133 2
      vertex 88.9685 -6.75133 24
    endloop
  endfacet
  facet normal 0.36811 0.929782 -0
    outer loop
      vertex -86.2361 -10.0542 2
      vertex -86.7031 -9.86931 24
      vertex -86.2361 -10.0542 24
    endloop
  endfacet
  facet normal 0.36811 0.929782 0
    outer loop
      vertex -86.7031 -9.86931 24
      vertex -86.2361 -10.0542 2
      vertex -86.7031 -9.86931 2
    endloop
  endfacet
  facet normal -0.481751 0.876308 0
    outer loop
      vertex 87.1433 -9.62731 2
      vertex 86.7031 -9.86931 24
      vertex 87.1433 -9.62731 24
    endloop
  endfacet
  facet normal -0.481751 0.876308 0
    outer loop
      vertex 86.7031 -9.86931 24
      vertex 87.1433 -9.62731 2
      vertex 86.7031 -9.86931 2
    endloop
  endfacet
  facet normal -0.587776 0.809024 0
    outer loop
      vertex 87.5497 -9.33205 2
      vertex 87.1433 -9.62731 24
      vertex 87.5497 -9.33205 24
    endloop
  endfacet
  facet normal -0.587776 0.809024 0
    outer loop
      vertex 87.1433 -9.62731 24
      vertex 87.5497 -9.33205 2
      vertex 87.1433 -9.62731 2
    endloop
  endfacet
  facet normal -0.904809 0.425818 0
    outer loop
      vertex 88.5052 -8.17701 2
      vertex 88.7191 -7.7225 24
      vertex 88.7191 -7.7225 2
    endloop
  endfacet
  facet normal -0.904809 0.425818 0
    outer loop
      vertex 88.7191 -7.7225 24
      vertex 88.5052 -8.17701 2
      vertex 88.5052 -8.17701 24
    endloop
  endfacet
  facet normal -0.125431 -0.992102 0
    outer loop
      vertex 85.2512 10.2421 2
      vertex 85.7495 10.1791 24
      vertex 85.2512 10.2421 24
    endloop
  endfacet
  facet normal -0.125431 -0.992102 -0
    outer loop
      vertex 85.7495 10.1791 24
      vertex 85.2512 10.2421 2
      vertex 85.7495 10.1791 2
    endloop
  endfacet
  facet normal -0.998032 -0.0627092 0
    outer loop
      vertex 89 6.25 2
      vertex 88.9685 6.75133 24
      vertex 88.9685 6.75133 2
    endloop
  endfacet
  facet normal -0.998032 -0.0627092 0
    outer loop
      vertex 88.9685 6.75133 24
      vertex 89 6.25 2
      vertex 89 6.25 24
    endloop
  endfacet
  facet normal -1 0 0
    outer loop
      vertex 89 -6.25 2
      vertex 89 6.25 24
      vertex 89 6.25 2
    endloop
  endfacet
  facet normal -1 -0 0
    outer loop
      vertex 89 6.25 24
      vertex 89 -6.25 2
      vertex 89 -6.25 24
    endloop
  endfacet
  facet normal -0.844383 -0.53574 0
    outer loop
      vertex 88.5052 8.17701 2
      vertex 88.2361 8.60114 24
      vertex 88.2361 8.60114 2
    endloop
  endfacet
  facet normal -0.844383 -0.53574 0
    outer loop
      vertex 88.2361 8.60114 24
      vertex 88.5052 8.17701 2
      vertex 88.5052 8.17701 24
    endloop
  endfacet
  facet normal -0.951072 0.308968 0
    outer loop
      vertex 88.7191 -7.7225 2
      vertex 88.8743 -7.24476 24
      vertex 88.8743 -7.24476 2
    endloop
  endfacet
  facet normal -0.951072 0.308968 0
    outer loop
      vertex 88.8743 -7.24476 24
      vertex 88.7191 -7.7225 2
      vertex 88.7191 -7.7225 24
    endloop
  endfacet
  facet normal 0.24862 -0.968601 0
    outer loop
      vertex -86.2361 10.0542 2
      vertex -85.7495 10.1791 24
      vertex -86.2361 10.0542 24
    endloop
  endfacet
  facet normal 0.24862 -0.968601 0
    outer loop
      vertex -85.7495 10.1791 24
      vertex -86.2361 10.0542 2
      vertex -85.7495 10.1791 2
    endloop
  endfacet
  facet normal 0 0 1
    outer loop
      vertex 85.2512 10.2421 2
      vertex 89 6.25 2
      vertex 88.9685 6.75133 2
    endloop
  endfacet
  facet normal 0 0 1
    outer loop
      vertex 89 6.25 2
      vertex 85.2512 10.2421 2
      vertex 89 -6.25 2
    endloop
  endfacet
  facet normal 0 0 1
    outer loop
      vertex 85.2512 10.2421 2
      vertex 88.9685 6.75133 2
      vertex 88.8743 7.24476 2
    endloop
  endfacet
  facet normal 0 0 1
    outer loop
      vertex 85.2512 -10.2421 2
      vertex 89 -6.25 2
      vertex 85.2512 10.2421 2
    endloop
  endfacet
  facet normal 0 0 1
    outer loop
      vertex 85.2512 10.2421 2
      vertex 88.8743 7.24476 2
      vertex 88.7191 7.7225 2
    endloop
  endfacet
  facet normal 0 0 1
    outer loop
      vertex 89 -6.25 2
      vertex 85.2512 -10.2421 2
      vertex 88.9685 -6.75133 2
    endloop
  endfacet
  facet normal 0 0 1
    outer loop
      vertex 85.2512 10.2421 2
      vertex 88.7191 7.7225 2
      vertex 88.5052 8.17701 2
    endloop
  endfacet
  facet normal 0 0 1
    outer loop
      vertex 88.9685 -6.75133 2
      vertex 85.2512 -10.2421 2
      vertex 88.8743 -7.24476 2
    endloop
  endfacet
  facet normal 0 0 1
    outer loop
      vertex 85.2512 10.2421 2
      vertex 88.5052 8.17701 2
      vertex 88.2361 8.60114 2
    endloop
  endfacet
  facet normal 0 0 1
    outer loop
      vertex 88.8743 -7.24476 2
      vertex 85.2512 -10.2421 2
      vertex 88.7191 -7.7225 2
    endloop
  endfacet
  facet normal 0 0 1
    outer loop
      vertex 85.2512 10.2421 2
      vertex 88.2361 8.60114 2
      vertex 87.9159 8.98819 2
    endloop
  endfacet
  facet normal 0 0 1
    outer loop
      vertex 88.7191 -7.7225 2
      vertex 85.2512 -10.2421 2
      vertex 88.5052 -8.17701 2
    endloop
  endfacet
  facet normal 0 0 1
    outer loop
      vertex 85.2512 10.2421 2
      vertex 87.9159 8.98819 2
      vertex 87.5497 9.33205 2
    endloop
  endfacet
  facet normal 0 0 1
    outer loop
      vertex 88.5052 -8.17701 2
      vertex 85.2512 -10.2421 2
      vertex 88.2361 -8.60114 2
    endloop
  endfacet
  facet normal 0 0 1
    outer loop
      vertex 85.2512 10.2421 2
      vertex 87.5497 9.33205 2
      vertex 87.1433 9.62731 2
    endloop
  endfacet
  facet normal 0 0 1
    outer loop
      vertex 88.2361 -8.60114 2
      vertex 85.2512 -10.2421 2
      vertex 87.9159 -8.98819 2
    endloop
  endfacet
  facet normal 0 0 1
    outer loop
      vertex 85.2512 10.2421 2
      vertex 87.1433 9.62731 2
      vertex 86.7031 9.86931 2
    endloop
  endfacet
  facet normal 0 0 1
    outer loop
      vertex 87.9159 -8.98819 2
      vertex 85.2512 -10.2421 2
      vertex 87.5497 -9.33205 2
    endloop
  endfacet
  facet normal 0 0 1
    outer loop
      vertex 85.2512 10.2421 2
      vertex 86.7031 9.86931 2
      vertex 86.2361 10.0542 2
    endloop
  endfacet
  facet normal 0 0 1
    outer loop
      vertex 87.5497 -9.33205 2
      vertex 85.2512 -10.2421 2
      vertex 87.1433 -9.62731 2
    endloop
  endfacet
  facet normal 0 0 1
    outer loop
      vertex 85.2512 10.2421 2
      vertex 86.2361 10.0542 2
      vertex 85.7495 10.1791 2
    endloop
  endfacet
  facet normal 0 0 1
    outer loop
      vertex 87.1433 -9.62731 2
      vertex 85.2512 -10.2421 2
      vertex 86.7031 -9.86931 2
    endloop
  endfacet
  facet normal 0 0 1
    outer loop
      vertex 86.7031 -9.86931 2
      vertex 85.2512 -10.2421 2
      vertex 86.2361 -10.0542 2
    endloop
  endfacet
  facet normal 0 0 1
    outer loop
      vertex 86.2361 -10.0542 2
      vertex 85.2512 -10.2421 2
      vertex 85.7495 -10.1791 2
    endloop
  endfacet
  facet normal -0 0 1
    outer loop
      vertex -85.2512 10.2421 2
      vertex 85.2512 -10.2421 2
      vertex 85.2512 10.2421 2
    endloop
  endfacet
  facet normal 0 0 1
    outer loop
      vertex -85.2512 10.2421 2
      vertex -85.2512 -10.2421 2
      vertex 85.2512 -10.2421 2
    endloop
  endfacet
  facet normal 0 0 1
    outer loop
      vertex -89 6.25 2
      vertex -85.2512 10.2421 2
      vertex -85.7495 10.1791 2
    endloop
  endfacet
  facet normal 0 0 1
    outer loop
      vertex -85.2512 10.2421 2
      vertex -89 6.25 2
      vertex -85.2512 -10.2421 2
    endloop
  endfacet
  facet normal 0 0 1
    outer loop
      vertex -89 6.25 2
      vertex -85.7495 10.1791 2
      vertex -86.2361 10.0542 2
    endloop
  endfacet
  facet normal -0 0 1
    outer loop
      vertex -89 -6.25 2
      vertex -85.2512 -10.2421 2
      vertex -89 6.25 2
    endloop
  endfacet
  facet normal 0 0 1
    outer loop
      vertex -89 6.25 2
      vertex -86.2361 10.0542 2
      vertex -86.7031 9.86931 2
    endloop
  endfacet
  facet normal 0 0 1
    outer loop
      vertex -85.2512 -10.2421 2
      vertex -89 -6.25 2
      vertex -85.7495 -10.1791 2
    endloop
  endfacet
  facet normal 0 0 1
    outer loop
      vertex -89 6.25 2
      vertex -86.7031 9.86931 2
      vertex -87.1433 9.62731 2
    endloop
  endfacet
  facet normal 0 0 1
    outer loop
      vertex -85.7495 -10.1791 2
      vertex -89 -6.25 2
      vertex -86.2361 -10.0542 2
    endloop
  endfacet
  facet normal 0 0 1
    outer loop
      vertex -89 6.25 2
      vertex -87.1433 9.62731 2
      vertex -87.5497 9.33205 2
    endloop
  endfacet
  facet normal 0 0 1
    outer loop
      vertex -86.2361 -10.0542 2
      vertex -89 -6.25 2
      vertex -86.7031 -9.86931 2
    endloop
  endfacet
  facet normal 0 0 1
    outer loop
      vertex -89 6.25 2
      vertex -87.5497 9.33205 2
      vertex -87.9159 8.98819 2
    endloop
  endfacet
  facet normal 0 0 1
    outer loop
      vertex -86.7031 -9.86931 2
      vertex -89 -6.25 2
      vertex -87.1433 -9.62731 2
    endloop
  endfacet
  facet normal 0 0 1
    outer loop
      vertex -89 6.25 2
      vertex -87.9159 8.98819 2
      vertex -88.2361 8.60114 2
    endloop
  endfacet
  facet normal 0 0 1
    outer loop
      vertex -87.1433 -9.62731 2
      vertex -89 -6.25 2
      vertex -87.5497 -9.33205 2
    endloop
  endfacet
  facet normal 0 0 1
    outer loop
      vertex -89 6.25 2
      vertex -88.2361 8.60114 2
      vertex -88.5052 8.17701 2
    endloop
  endfacet
  facet normal 0 0 1
    outer loop
      vertex -87.5497 -9.33205 2
      vertex -89 -6.25 2
      vertex -87.9159 -8.98819 2
    endloop
  endfacet
  facet normal 0 0 1
    outer loop
      vertex -89 6.25 2
      vertex -88.5052 8.17701 2
      vertex -88.7191 7.7225 2
    endloop
  endfacet
  facet normal 0 0 1
    outer loop
      vertex -87.9159 -8.98819 2
      vertex -89 -6.25 2
      vertex -88.2361 -8.60114 2
    endloop
  endfacet
  facet normal 0 0 1
    outer loop
      vertex -89 6.25 2
      vertex -88.7191 7.7225 2
      vertex -88.8743 7.24476 2
    endloop
  endfacet
  facet normal 0 0 1
    outer loop
      vertex -88.2361 -8.60114 2
      vertex -89 -6.25 2
      vertex -88.5052 -8.17701 2
    endloop
  endfacet
  facet normal 0 0 1
    outer loop
      vertex -89 6.25 2
      vertex -88.8743 7.24476 2
      vertex -88.9685 6.75133 2
    endloop
  endfacet
  facet normal 0 0 1
    outer loop
      vertex -88.5052 -8.17701 2
      vertex -89 -6.25 2
      vertex -88.7191 -7.7225 2
    endloop
  endfacet
  facet normal 0 0 1
    outer loop
      vertex -88.7191 -7.7225 2
      vertex -89 -6.25 2
      vertex -88.8743 -7.24476 2
    endloop
  endfacet
  facet normal 0 0 1
    outer loop
      vertex -88.8743 -7.24476 2
      vertex -89 -6.25 2
      vertex -88.9685 -6.75133 2
    endloop
  endfacet
  facet normal 0.951072 0.308968 0
    outer loop
      vertex -88.7191 -7.7225 24
      vertex -88.8743 -7.24476 2
      vertex -88.8743 -7.24476 24
    endloop
  endfacet
  facet normal 0.951072 0.308968 0
    outer loop
      vertex -88.8743 -7.24476 2
      vertex -88.7191 -7.7225 24
      vertex -88.7191 -7.7225 2
    endloop
  endfacet
  facet normal 0.125431 0.992102 -0
    outer loop
      vertex -85.2512 -10.2421 2
      vertex -85.7495 -10.1791 24
      vertex -85.2512 -10.2421 24
    endloop
  endfacet
  facet normal 0.125431 0.992102 0
    outer loop
      vertex -85.7495 -10.1791 24
      vertex -85.2512 -10.2421 2
      vertex -85.7495 -10.1791 2
    endloop
  endfacet
  facet normal 0.24862 0.968601 -0
    outer loop
      vertex -85.7495 -10.1791 2
      vertex -86.2361 -10.0542 24
      vertex -85.7495 -10.1791 24
    endloop
  endfacet
  facet normal 0.24862 0.968601 0
    outer loop
      vertex -86.2361 -10.0542 24
      vertex -85.7495 -10.1791 2
      vertex -86.2361 -10.0542 2
    endloop
  endfacet
  facet normal -0.684521 0.728993 0
    outer loop
      vertex 87.9159 -8.98819 2
      vertex 87.5497 -9.33205 24
      vertex 87.9159 -8.98819 24
    endloop
  endfacet
  facet normal -0.684521 0.728993 0
    outer loop
      vertex 87.5497 -9.33205 24
      vertex 87.9159 -8.98819 2
      vertex 87.5497 -9.33205 2
    endloop
  endfacet
  facet normal -0.36811 0.929782 0
    outer loop
      vertex 86.7031 -9.86931 2
      vertex 86.2361 -10.0542 24
      vertex 86.7031 -9.86931 24
    endloop
  endfacet
  facet normal -0.36811 0.929782 0
    outer loop
      vertex 86.2361 -10.0542 24
      vertex 86.7031 -9.86931 2
      vertex 86.2361 -10.0542 2
    endloop
  endfacet
  facet normal -0.125431 0.992102 0
    outer loop
      vertex 85.7495 -10.1791 2
      vertex 85.2512 -10.2421 24
      vertex 85.7495 -10.1791 24
    endloop
  endfacet
  facet normal -0.125431 0.992102 0
    outer loop
      vertex 85.2512 -10.2421 24
      vertex 85.7495 -10.1791 2
      vertex 85.2512 -10.2421 2
    endloop
  endfacet
  facet normal -0.770509 -0.637429 0
    outer loop
      vertex 88.2361 8.60114 2
      vertex 87.9159 8.98819 24
      vertex 87.9159 8.98819 2
    endloop
  endfacet
  facet normal -0.770509 -0.637429 0
    outer loop
      vertex 87.9159 8.98819 24
      vertex 88.2361 8.60114 2
      vertex 88.2361 8.60114 24
    endloop
  endfacet
  facet normal -0.36811 -0.929782 0
    outer loop
      vertex 86.2361 10.0542 2
      vertex 86.7031 9.86931 24
      vertex 86.2361 10.0542 24
    endloop
  endfacet
  facet normal -0.36811 -0.929782 -0
    outer loop
      vertex 86.7031 9.86931 24
      vertex 86.2361 10.0542 2
      vertex 86.7031 9.86931 2
    endloop
  endfacet
  facet normal -0.587776 -0.809024 0
    outer loop
      vertex 87.1433 9.62731 2
      vertex 87.5497 9.33205 24
      vertex 87.1433 9.62731 24
    endloop
  endfacet
  facet normal -0.587776 -0.809024 -0
    outer loop
      vertex 87.5497 9.33205 24
      vertex 87.1433 9.62731 2
      vertex 87.5497 9.33205 2
    endloop
  endfacet
  facet normal -0.24862 -0.968601 0
    outer loop
      vertex 85.7495 10.1791 2
      vertex 86.2361 10.0542 24
      vertex 85.7495 10.1791 24
    endloop
  endfacet
  facet normal -0.24862 -0.968601 -0
    outer loop
      vertex 86.2361 10.0542 24
      vertex 85.7495 10.1791 2
      vertex 86.2361 10.0542 2
    endloop
  endfacet
  facet normal -0.844383 0.53574 0
    outer loop
      vertex 88.2361 -8.60114 2
      vertex 88.5052 -8.17701 24
      vertex 88.5052 -8.17701 2
    endloop
  endfacet
  facet normal -0.844383 0.53574 0
    outer loop
      vertex 88.5052 -8.17701 24
      vertex 88.2361 -8.60114 2
      vertex 88.2361 -8.60114 24
    endloop
  endfacet
  facet normal -0.98226 0.187522 0
    outer loop
      vertex 88.8743 -7.24476 2
      vertex 88.9685 -6.75133 24
      vertex 88.9685 -6.75133 2
    endloop
  endfacet
  facet normal -0.98226 0.187522 0
    outer loop
      vertex 88.9685 -6.75133 24
      vertex 88.8743 -7.24476 2
      vertex 88.8743 -7.24476 24
    endloop
  endfacet
  facet normal 0.951072 -0.308968 0
    outer loop
      vertex -88.8743 7.24476 24
      vertex -88.7191 7.7225 2
      vertex -88.7191 7.7225 24
    endloop
  endfacet
  facet normal 0.951072 -0.308968 0
    outer loop
      vertex -88.7191 7.7225 2
      vertex -88.8743 7.24476 24
      vertex -88.8743 7.24476 2
    endloop
  endfacet
  facet normal 0.125431 -0.992102 0
    outer loop
      vertex -85.7495 10.1791 2
      vertex -85.2512 10.2421 24
      vertex -85.7495 10.1791 24
    endloop
  endfacet
  facet normal 0.125431 -0.992102 0
    outer loop
      vertex -85.2512 10.2421 24
      vertex -85.7495 10.1791 2
      vertex -85.2512 10.2421 2
    endloop
  endfacet
  facet normal 0.770509 -0.637429 0
    outer loop
      vertex -88.2361 8.60114 24
      vertex -87.9159 8.98819 2
      vertex -87.9159 8.98819 24
    endloop
  endfacet
  facet normal 0.770509 -0.637429 0
    outer loop
      vertex -87.9159 8.98819 2
      vertex -88.2361 8.60114 24
      vertex -88.2361 8.60114 2
    endloop
  endfacet
  facet normal 0.904809 0.425818 0
    outer loop
      vertex -88.5052 -8.17701 24
      vertex -88.7191 -7.7225 2
      vertex -88.7191 -7.7225 24
    endloop
  endfacet
  facet normal 0.904809 0.425818 0
    outer loop
      vertex -88.7191 -7.7225 2
      vertex -88.5052 -8.17701 24
      vertex -88.5052 -8.17701 2
    endloop
  endfacet
  facet normal 0.770509 0.637429 0
    outer loop
      vertex -87.9159 -8.98819 24
      vertex -88.2361 -8.60114 2
      vertex -88.2361 -8.60114 24
    endloop
  endfacet
  facet normal 0.770509 0.637429 0
    outer loop
      vertex -88.2361 -8.60114 2
      vertex -87.9159 -8.98819 24
      vertex -87.9159 -8.98819 2
    endloop
  endfacet
  facet normal 0.844383 0.53574 0
    outer loop
      vertex -88.2361 -8.60114 24
      vertex -88.5052 -8.17701 2
      vertex -88.5052 -8.17701 24
    endloop
  endfacet
  facet normal 0.844383 0.53574 0
    outer loop
      vertex -88.5052 -8.17701 2
      vertex -88.2361 -8.60114 24
      vertex -88.2361 -8.60114 2
    endloop
  endfacet
  facet normal 0.481751 0.876308 -0
    outer loop
      vertex -86.7031 -9.86931 2
      vertex -87.1433 -9.62731 24
      vertex -86.7031 -9.86931 24
    endloop
  endfacet
  facet normal 0.481751 0.876308 0
    outer loop
      vertex -87.1433 -9.62731 24
      vertex -86.7031 -9.86931 2
      vertex -87.1433 -9.62731 2
    endloop
  endfacet
  facet normal 0.98226 0.187522 0
    outer loop
      vertex -88.8743 -7.24476 24
      vertex -88.9685 -6.75133 2
      vertex -88.9685 -6.75133 24
    endloop
  endfacet
  facet normal 0.98226 0.187522 0
    outer loop
      vertex -88.9685 -6.75133 2
      vertex -88.8743 -7.24476 24
      vertex -88.8743 -7.24476 2
    endloop
  endfacet
  facet normal -0.24862 0.968601 0
    outer loop
      vertex 86.2361 -10.0542 2
      vertex 85.7495 -10.1791 24
      vertex 86.2361 -10.0542 24
    endloop
  endfacet
  facet normal -0.24862 0.968601 0
    outer loop
      vertex 85.7495 -10.1791 24
      vertex 86.2361 -10.0542 2
      vertex 85.7495 -10.1791 2
    endloop
  endfacet
  facet normal -0.684521 -0.728993 0
    outer loop
      vertex 87.5497 9.33205 2
      vertex 87.9159 8.98819 24
      vertex 87.5497 9.33205 24
    endloop
  endfacet
  facet normal -0.684521 -0.728993 -0
    outer loop
      vertex 87.9159 8.98819 24
      vertex 87.5497 9.33205 2
      vertex 87.9159 8.98819 2
    endloop
  endfacet
  facet normal -0.904809 -0.425818 0
    outer loop
      vertex 88.7191 7.7225 2
      vertex 88.5052 8.17701 24
      vertex 88.5052 8.17701 2
    endloop
  endfacet
  facet normal -0.904809 -0.425818 0
    outer loop
      vertex 88.5052 8.17701 24
      vertex 88.7191 7.7225 2
      vertex 88.7191 7.7225 24
    endloop
  endfacet
  facet normal -0.951072 -0.308968 0
    outer loop
      vertex 88.8743 7.24476 2
      vertex 88.7191 7.7225 24
      vertex 88.7191 7.7225 2
    endloop
  endfacet
  facet normal -0.951072 -0.308968 0
    outer loop
      vertex 88.7191 7.7225 24
      vertex 88.8743 7.24476 2
      vertex 88.8743 7.24476 24
    endloop
  endfacet
  facet normal -0.481751 -0.876308 0
    outer loop
      vertex 86.7031 9.86931 2
      vertex 87.1433 9.62731 24
      vertex 86.7031 9.86931 24
    endloop
  endfacet
  facet normal -0.481751 -0.876308 -0
    outer loop
      vertex 87.1433 9.62731 24
      vertex 86.7031 9.86931 2
      vertex 87.1433 9.62731 2
    endloop
  endfacet
  facet normal 0.98226 -0.187522 0
    outer loop
      vertex -88.9685 6.75133 24
      vertex -88.8743 7.24476 2
      vertex -88.8743 7.24476 24
    endloop
  endfacet
  facet normal 0.98226 -0.187522 0
    outer loop
      vertex -88.8743 7.24476 2
      vertex -88.9685 6.75133 24
      vertex -88.9685 6.75133 2
    endloop
  endfacet
  facet normal 0.904809 -0.425818 0
    outer loop
      vertex -88.7191 7.7225 24
      vertex -88.5052 8.17701 2
      vertex -88.5052 8.17701 24
    endloop
  endfacet
  facet normal 0.904809 -0.425818 0
    outer loop
      vertex -88.5052 8.17701 2
      vertex -88.7191 7.7225 24
      vertex -88.7191 7.7225 2
    endloop
  endfacet
  facet normal 0.844383 -0.53574 0
    outer loop
      vertex -88.5052 8.17701 24
      vertex -88.2361 8.60114 2
      vertex -88.2361 8.60114 24
    endloop
  endfacet
  facet normal 0.844383 -0.53574 0
    outer loop
      vertex -88.2361 8.60114 2
      vertex -88.5052 8.17701 24
      vertex -88.5052 8.17701 2
    endloop
  endfacet
  facet normal 0.36811 -0.929782 0
    outer loop
      vertex -86.7031 9.86931 2
      vertex -86.2361 10.0542 24
      vertex -86.7031 9.86931 24
    endloop
  endfacet
  facet normal 0.36811 -0.929782 0
    outer loop
      vertex -86.2361 10.0542 24
      vertex -86.7031 9.86931 2
      vertex -86.2361 10.0542 2
    endloop
  endfacet
  facet normal 0.684521 -0.728993 0
    outer loop
      vertex -87.9159 8.98819 2
      vertex -87.5497 9.33205 24
      vertex -87.9159 8.98819 24
    endloop
  endfacet
  facet normal 0.684521 -0.728993 0
    outer loop
      vertex -87.5497 9.33205 24
      vertex -87.9159 8.98819 2
      vertex -87.5497 9.33205 2
    endloop
  endfacet
  facet normal 0.587776 -0.809024 0
    outer loop
      vertex -87.5497 9.33205 2
      vertex -87.1433 9.62731 24
      vertex -87.5497 9.33205 24
    endloop
  endfacet
  facet normal 0.587776 -0.809024 0
    outer loop
      vertex -87.1433 9.62731 24
      vertex -87.5497 9.33205 2
      vertex -87.1433 9.62731 2
    endloop
  endfacet
  facet normal 0.481751 -0.876308 0
    outer loop
      vertex -87.1433 9.62731 2
      vertex -86.7031 9.86931 24
      vertex -87.1433 9.62731 24
    endloop
  endfacet
  facet normal 0.481751 -0.876308 0
    outer loop
      vertex -86.7031 9.86931 24
      vertex -87.1433 9.62731 2
      vertex -86.7031 9.86931 2
    endloop
  endfacet
  facet normal 0.684521 0.728993 -0
    outer loop
      vertex -87.5497 -9.33205 2
      vertex -87.9159 -8.98819 24
      vertex -87.5497 -9.33205 24
    endloop
  endfacet
  facet normal 0.684521 0.728993 0
    outer loop
      vertex -87.9159 -8.98819 24
      vertex -87.5497 -9.33205 2
      vertex -87.9159 -8.98819 2
    endloop
  endfacet
  facet normal 0.587776 0.809024 -0
    outer loop
      vertex -87.1433 -9.62731 2
      vertex -87.5497 -9.33205 24
      vertex -87.1433 -9.62731 24
    endloop
  endfacet
  facet normal 0.587776 0.809024 0
    outer loop
      vertex -87.5497 -9.33205 24
      vertex -87.1433 -9.62731 2
      vertex -87.5497 -9.33205 2
    endloop
  endfacet
endsolid OpenSCAD_Model
