solid OpenSCAD_Model
  facet normal -0.125336 0.992114 0
    outer loop
      vertex -6.56395 37.4901 0
      vertex -7.18691 37.4114 24
      vertex -6.56395 37.4901 24
    endloop
  endfacet
  facet normal -0.125336 0.992114 0
    outer loop
      vertex -7.18691 37.4114 24
      vertex -6.56395 37.4901 0
      vertex -7.18691 37.4114 0
    endloop
  endfacet
  facet normal 0.125336 0.992114 -0
    outer loop
      vertex 7.18691 37.4114 0
      vertex 6.56395 37.4901 24
      vertex 7.18691 37.4114 24
    endloop
  endfacet
  facet normal 0.125336 0.992114 0
    outer loop
      vertex 6.56395 37.4901 24
      vertex 7.18691 37.4114 0
      vertex 6.56395 37.4901 0
    endloop
  endfacet
  facet normal -0.248613 0.968603 0
    outer loop
      vertex -7.18691 37.4114 0
      vertex -7.79508 37.2553 24
      vertex -7.18691 37.4114 24
    endloop
  endfacet
  facet normal -0.248613 0.968603 0
    outer loop
      vertex -7.79508 37.2553 24
      vertex -7.18691 37.4114 0
      vertex -7.79508 37.2553 0
    endloop
  endfacet
  facet normal 0 1 -0
    outer loop
      vertex 6.56395 37.4901 0
      vertex -6.56395 37.4901 24
      vertex 6.56395 37.4901 24
    endloop
  endfacet
  facet normal 0 1 0
    outer loop
      vertex -6.56395 37.4901 24
      vertex 6.56395 37.4901 0
      vertex -6.56395 37.4901 0
    endloop
  endfacet
  facet normal -0.982276 -0.187441 0
    outer loop
      vertex -11.0929 -33.7435 0
      vertex -11.2106 -33.1267 24
      vertex -11.2106 -33.1267 0
    endloop
  endfacet
  facet normal -0.982276 -0.187441 0
    outer loop
      vertex -11.2106 -33.1267 24
      vertex -11.0929 -33.7435 0
      vertex -11.0929 -33.7435 24
    endloop
  endfacet
  facet normal 0.982276 -0.187441 0
    outer loop
      vertex 11.0929 -33.7435 24
      vertex 11.2106 -33.1267 0
      vertex 11.2106 -33.1267 24
    endloop
  endfacet
  facet normal 0.982276 -0.187441 0
    outer loop
      vertex 11.2106 -33.1267 0
      vertex 11.0929 -33.7435 24
      vertex 11.0929 -33.7435 0
    endloop
  endfacet
  facet normal 0.481764 -0.876301 0
    outer loop
      vertex 8.3789 -37.0241 0
      vertex 8.92913 -36.7216 24
      vertex 8.3789 -37.0241 24
    endloop
  endfacet
  facet normal 0.481764 -0.876301 0
    outer loop
      vertex 8.92913 -36.7216 24
      vertex 8.3789 -37.0241 0
      vertex 8.92913 -36.7216 0
    endloop
  endfacet
  facet normal -0.684608 0.728911 0
    outer loop
      vertex -9.43712 36.3526 0
      vertex -9.89484 35.9227 24
      vertex -9.43712 36.3526 24
    endloop
  endfacet
  facet normal -0.684608 0.728911 0
    outer loop
      vertex -9.89484 35.9227 24
      vertex -9.43712 36.3526 0
      vertex -9.89484 35.9227 0
    endloop
  endfacet
  facet normal 0.684608 0.728911 -0
    outer loop
      vertex 9.89484 35.9227 0
      vertex 9.43712 36.3526 24
      vertex 9.89484 35.9227 24
    endloop
  endfacet
  facet normal 0.684608 0.728911 0
    outer loop
      vertex 9.43712 36.3526 24
      vertex 9.89484 35.9227 0
      vertex 9.43712 36.3526 0
    endloop
  endfacet
  facet normal -0.368192 0.92975 0
    outer loop
      vertex -7.79508 37.2553 0
      vertex -8.3789 37.0241 24
      vertex -7.79508 37.2553 24
    endloop
  endfacet
  facet normal -0.368192 0.92975 0
    outer loop
      vertex -8.3789 37.0241 24
      vertex -7.79508 37.2553 0
      vertex -8.3789 37.0241 0
    endloop
  endfacet
  facet normal 1 -0 0
    outer loop
      vertex 11.25 -32.5 24
      vertex 11.25 32.5 0
      vertex 11.25 32.5 24
    endloop
  endfacet
  facet normal 1 0 0
    outer loop
      vertex 11.25 32.5 0
      vertex 11.25 -32.5 24
      vertex 11.25 -32.5 0
    endloop
  endfacet
  facet normal -1 0 0
    outer loop
      vertex -11.25 -32.5 0
      vertex -11.25 32.5 24
      vertex -11.25 32.5 0
    endloop
  endfacet
  facet normal -1 -0 0
    outer loop
      vertex -11.25 32.5 24
      vertex -11.25 -32.5 0
      vertex -11.25 -32.5 24
    endloop
  endfacet
  facet normal -0.99803 0.0627451 0
    outer loop
      vertex -11.25 32.5 0
      vertex -11.2106 33.1267 24
      vertex -11.2106 33.1267 0
    endloop
  endfacet
  facet normal -0.99803 0.0627451 0
    outer loop
      vertex -11.2106 33.1267 24
      vertex -11.25 32.5 0
      vertex -11.25 32.5 24
    endloop
  endfacet
  facet normal -0.982276 0.187441 0
    outer loop
      vertex -11.2106 33.1267 0
      vertex -11.0929 33.7435 24
      vertex -11.0929 33.7435 0
    endloop
  endfacet
  facet normal -0.982276 0.187441 0
    outer loop
      vertex -11.0929 33.7435 24
      vertex -11.2106 33.1267 0
      vertex -11.2106 33.1267 24
    endloop
  endfacet
  facet normal 0.368192 0.92975 -0
    outer loop
      vertex 8.3789 37.0241 0
      vertex 7.79508 37.2553 24
      vertex 8.3789 37.0241 24
    endloop
  endfacet
  facet normal 0.368192 0.92975 0
    outer loop
      vertex 7.79508 37.2553 24
      vertex 8.3789 37.0241 0
      vertex 7.79508 37.2553 0
    endloop
  endfacet
  facet normal 0.481764 0.876301 -0
    outer loop
      vertex 8.92913 36.7216 0
      vertex 8.3789 37.0241 24
      vertex 8.92913 36.7216 24
    endloop
  endfacet
  facet normal 0.481764 0.876301 0
    outer loop
      vertex 8.3789 37.0241 24
      vertex 8.92913 36.7216 0
      vertex 8.3789 37.0241 0
    endloop
  endfacet
  facet normal -0.248613 -0.968603 0
    outer loop
      vertex -7.79508 -37.2553 0
      vertex -7.18691 -37.4114 24
      vertex -7.79508 -37.2553 24
    endloop
  endfacet
  facet normal -0.248613 -0.968603 -0
    outer loop
      vertex -7.18691 -37.4114 24
      vertex -7.79508 -37.2553 0
      vertex -7.18691 -37.4114 0
    endloop
  endfacet
  facet normal 0.99803 -0.0627451 0
    outer loop
      vertex 11.2106 -33.1267 24
      vertex 11.25 -32.5 0
      vertex 11.25 -32.5 24
    endloop
  endfacet
  facet normal 0.99803 -0.0627451 0
    outer loop
      vertex 11.25 -32.5 0
      vertex 11.2106 -33.1267 24
      vertex 11.2106 -33.1267 0
    endloop
  endfacet
  facet normal 0.951061 0.309003 0
    outer loop
      vertex 11.0929 33.7435 24
      vertex 10.8989 34.3406 0
      vertex 10.8989 34.3406 24
    endloop
  endfacet
  facet normal 0.951061 0.309003 0
    outer loop
      vertex 10.8989 34.3406 0
      vertex 11.0929 33.7435 24
      vertex 11.0929 33.7435 0
    endloop
  endfacet
  facet normal 0.770493 0.637448 0
    outer loop
      vertex 10.2951 35.4389 24
      vertex 9.89484 35.9227 0
      vertex 9.89484 35.9227 24
    endloop
  endfacet
  facet normal 0.770493 0.637448 0
    outer loop
      vertex 9.89484 35.9227 0
      vertex 10.2951 35.4389 24
      vertex 10.2951 35.4389 0
    endloop
  endfacet
  facet normal 0.904811 -0.425812 0
    outer loop
      vertex 10.6315 -34.9088 24
      vertex 10.8989 -34.3406 0
      vertex 10.8989 -34.3406 24
    endloop
  endfacet
  facet normal 0.904811 -0.425812 0
    outer loop
      vertex 10.8989 -34.3406 0
      vertex 10.6315 -34.9088 24
      vertex 10.6315 -34.9088 0
    endloop
  endfacet
  facet normal 0.125336 -0.992114 0
    outer loop
      vertex 6.56395 -37.4901 0
      vertex 7.18691 -37.4114 24
      vertex 6.56395 -37.4901 24
    endloop
  endfacet
  facet normal 0.125336 -0.992114 0
    outer loop
      vertex 7.18691 -37.4114 24
      vertex 6.56395 -37.4901 0
      vertex 7.18691 -37.4114 0
    endloop
  endfacet
  facet normal 0 -1 0
    outer loop
      vertex -6.56395 -37.4901 0
      vertex 6.56395 -37.4901 24
      vertex -6.56395 -37.4901 24
    endloop
  endfacet
  facet normal 0 -1 -0
    outer loop
      vertex 6.56395 -37.4901 24
      vertex -6.56395 -37.4901 0
      vertex 6.56395 -37.4901 0
    endloop
  endfacet
  facet normal -0.99803 -0.0627451 0
    outer loop
      vertex -11.2106 -33.1267 0
      vertex -11.25 -32.5 24
      vertex -11.25 -32.5 0
    endloop
  endfacet
  facet normal -0.99803 -0.0627451 0
    outer loop
      vertex -11.25 -32.5 24
      vertex -11.2106 -33.1267 0
      vertex -11.2106 -33.1267 24
    endloop
  endfacet
  facet normal 0 0 1
    outer loop
      vertex 10.25 32.5 24
      vertex 11.25 32.5 24
      vertex 11.2106 33.1267 24
    endloop
  endfacet
  facet normal 0 0 1
    outer loop
      vertex 11.25 32.5 24
      vertex 10.25 32.5 24
      vertex 11.25 -32.5 24
    endloop
  endfacet
  facet normal 0 0 1
    outer loop
      vertex 10.2185 33.0013 24
      vertex 11.2106 33.1267 24
      vertex 11.0929 33.7435 24
    endloop
  endfacet
  facet normal 0 0 1
    outer loop
      vertex 10.25 -32.5 24
      vertex 11.25 -32.5 24
      vertex 10.25 32.5 24
    endloop
  endfacet
  facet normal 0 0 1
    outer loop
      vertex 10.1243 33.4948 24
      vertex 11.0929 33.7435 24
      vertex 10.8989 34.3406 24
    endloop
  endfacet
  facet normal 0 0 1
    outer loop
      vertex 11.25 -32.5 24
      vertex 10.25 -32.5 24
      vertex 11.2106 -33.1267 24
    endloop
  endfacet
  facet normal 0 0 1
    outer loop
      vertex 9.96911 33.9725 24
      vertex 10.8989 34.3406 24
      vertex 10.6315 34.9088 24
    endloop
  endfacet
  facet normal -0 0 1
    outer loop
      vertex 10.2185 -33.0013 24
      vertex 11.2106 -33.1267 24
      vertex 10.25 -32.5 24
    endloop
  endfacet
  facet normal 0 0 1
    outer loop
      vertex 9.75523 34.427 24
      vertex 10.6315 34.9088 24
      vertex 10.2951 35.4389 24
    endloop
  endfacet
  facet normal 0 0 1
    outer loop
      vertex 11.2106 -33.1267 24
      vertex 10.2185 -33.0013 24
      vertex 11.0929 -33.7435 24
    endloop
  endfacet
  facet normal -0 0 1
    outer loop
      vertex 10.1243 -33.4948 24
      vertex 11.0929 -33.7435 24
      vertex 10.2185 -33.0013 24
    endloop
  endfacet
  facet normal 0 0 1
    outer loop
      vertex 11.2106 33.1267 24
      vertex 10.2185 33.0013 24
      vertex 10.25 32.5 24
    endloop
  endfacet
  facet normal 0 0 1
    outer loop
      vertex 11.0929 33.7435 24
      vertex 10.1243 33.4948 24
      vertex 10.2185 33.0013 24
    endloop
  endfacet
  facet normal 0 0 1
    outer loop
      vertex 10.8989 34.3406 24
      vertex 9.96911 33.9725 24
      vertex 10.1243 33.4948 24
    endloop
  endfacet
  facet normal 0 0 1
    outer loop
      vertex 9.48607 34.8511 24
      vertex 10.2951 35.4389 24
      vertex 9.89484 35.9227 24
    endloop
  endfacet
  facet normal 0 0 1
    outer loop
      vertex 10.6315 34.9088 24
      vertex 9.75523 34.427 24
      vertex 9.96911 33.9725 24
    endloop
  endfacet
  facet normal 0 0 1
    outer loop
      vertex 10.2951 35.4389 24
      vertex 9.48607 34.8511 24
      vertex 9.75523 34.427 24
    endloop
  endfacet
  facet normal 0 0 1
    outer loop
      vertex 9.16587 35.2382 24
      vertex 9.89484 35.9227 24
      vertex 9.43712 36.3526 24
    endloop
  endfacet
  facet normal 0 0 1
    outer loop
      vertex 9.89484 35.9227 24
      vertex 9.16587 35.2382 24
      vertex 9.48607 34.8511 24
    endloop
  endfacet
  facet normal 0 0 1
    outer loop
      vertex 8.7997 35.5821 24
      vertex 9.43712 36.3526 24
      vertex 8.92913 36.7216 24
    endloop
  endfacet
  facet normal 0 0 1
    outer loop
      vertex 9.43712 36.3526 24
      vertex 8.7997 35.5821 24
      vertex 9.16587 35.2382 24
    endloop
  endfacet
  facet normal 0 0 1
    outer loop
      vertex 8.92913 36.7216 24
      vertex 8.39331 35.8773 24
      vertex 8.7997 35.5821 24
    endloop
  endfacet
  facet normal 0 0 1
    outer loop
      vertex 8.3789 37.0241 24
      vertex 8.39331 35.8773 24
      vertex 8.92913 36.7216 24
    endloop
  endfacet
  facet normal 0 0 1
    outer loop
      vertex 8.3789 37.0241 24
      vertex 7.95312 36.1193 24
      vertex 8.39331 35.8773 24
    endloop
  endfacet
  facet normal 0 0 1
    outer loop
      vertex 7.79508 37.2553 24
      vertex 7.95312 36.1193 24
      vertex 8.3789 37.0241 24
    endloop
  endfacet
  facet normal 0 0 1
    outer loop
      vertex 7.79508 37.2553 24
      vertex 7.48607 36.3042 24
      vertex 7.95312 36.1193 24
    endloop
  endfacet
  facet normal 0 0 1
    outer loop
      vertex 7.18691 37.4114 24
      vertex 7.48607 36.3042 24
      vertex 7.79508 37.2553 24
    endloop
  endfacet
  facet normal 0 0 1
    outer loop
      vertex 7.18691 37.4114 24
      vertex 6.99953 36.4291 24
      vertex 7.48607 36.3042 24
    endloop
  endfacet
  facet normal 0 0 1
    outer loop
      vertex 6.56395 37.4901 24
      vertex 6.99953 36.4291 24
      vertex 7.18691 37.4114 24
    endloop
  endfacet
  facet normal 0 0 1
    outer loop
      vertex 6.56395 37.4901 24
      vertex 6.50116 36.4921 24
      vertex 6.99953 36.4291 24
    endloop
  endfacet
  facet normal 0 0 1
    outer loop
      vertex 6.56395 37.4901 24
      vertex -6.50116 36.4921 24
      vertex 6.50116 36.4921 24
    endloop
  endfacet
  facet normal -0 0 1
    outer loop
      vertex -6.56395 37.4901 24
      vertex -6.50116 36.4921 24
      vertex 6.56395 37.4901 24
    endloop
  endfacet
  facet normal 0 0 1
    outer loop
      vertex -6.56395 37.4901 24
      vertex -6.99953 36.4291 24
      vertex -6.50116 36.4921 24
    endloop
  endfacet
  facet normal -0 0 1
    outer loop
      vertex -7.18691 37.4114 24
      vertex -6.99953 36.4291 24
      vertex -6.56395 37.4901 24
    endloop
  endfacet
  facet normal 0 0 1
    outer loop
      vertex -7.18691 37.4114 24
      vertex -7.48607 36.3042 24
      vertex -6.99953 36.4291 24
    endloop
  endfacet
  facet normal -0 0 1
    outer loop
      vertex -7.79508 37.2553 24
      vertex -7.48607 36.3042 24
      vertex -7.18691 37.4114 24
    endloop
  endfacet
  facet normal 0 0 1
    outer loop
      vertex -7.79508 37.2553 24
      vertex -7.95312 36.1193 24
      vertex -7.48607 36.3042 24
    endloop
  endfacet
  facet normal -0 0 1
    outer loop
      vertex -8.3789 37.0241 24
      vertex -7.95312 36.1193 24
      vertex -7.79508 37.2553 24
    endloop
  endfacet
  facet normal 0 0 1
    outer loop
      vertex -8.3789 37.0241 24
      vertex -8.39331 35.8773 24
      vertex -7.95312 36.1193 24
    endloop
  endfacet
  facet normal -0 0 1
    outer loop
      vertex -8.92913 36.7216 24
      vertex -8.39331 35.8773 24
      vertex -8.3789 37.0241 24
    endloop
  endfacet
  facet normal 0 0 1
    outer loop
      vertex -8.39331 35.8773 24
      vertex -8.92913 36.7216 24
      vertex -8.7997 35.5821 24
    endloop
  endfacet
  facet normal -0 0 1
    outer loop
      vertex -9.43712 36.3526 24
      vertex -8.7997 35.5821 24
      vertex -8.92913 36.7216 24
    endloop
  endfacet
  facet normal 0 0 1
    outer loop
      vertex -8.7997 35.5821 24
      vertex -9.43712 36.3526 24
      vertex -9.16587 35.2382 24
    endloop
  endfacet
  facet normal -0 0 1
    outer loop
      vertex -9.89484 35.9227 24
      vertex -9.16587 35.2382 24
      vertex -9.43712 36.3526 24
    endloop
  endfacet
  facet normal 0 0 1
    outer loop
      vertex -9.16587 35.2382 24
      vertex -9.89484 35.9227 24
      vertex -9.48607 34.8511 24
    endloop
  endfacet
  facet normal -0 0 1
    outer loop
      vertex -10.2951 35.4389 24
      vertex -9.48607 34.8511 24
      vertex -9.89484 35.9227 24
    endloop
  endfacet
  facet normal 0 0 1
    outer loop
      vertex -9.48607 34.8511 24
      vertex -10.2951 35.4389 24
      vertex -9.75523 34.427 24
    endloop
  endfacet
  facet normal -0 0 1
    outer loop
      vertex -10.6315 34.9088 24
      vertex -9.75523 34.427 24
      vertex -10.2951 35.4389 24
    endloop
  endfacet
  facet normal 0 0 1
    outer loop
      vertex -9.75523 34.427 24
      vertex -10.6315 34.9088 24
      vertex -9.96911 33.9725 24
    endloop
  endfacet
  facet normal -0 0 1
    outer loop
      vertex -11.0929 33.7435 24
      vertex -10.1243 33.4948 24
      vertex -10.8989 34.3406 24
    endloop
  endfacet
  facet normal 0 0 1
    outer loop
      vertex -9.96911 33.9725 24
      vertex -10.8989 34.3406 24
      vertex -10.1243 33.4948 24
    endloop
  endfacet
  facet normal -0 0 1
    outer loop
      vertex -10.8989 34.3406 24
      vertex -9.96911 33.9725 24
      vertex -10.6315 34.9088 24
    endloop
  endfacet
  facet normal 0 0 1
    outer loop
      vertex 11.0929 -33.7435 24
      vertex 10.1243 -33.4948 24
      vertex 10.8989 -34.3406 24
    endloop
  endfacet
  facet normal -0 0 1
    outer loop
      vertex 9.96911 -33.9725 24
      vertex 10.8989 -34.3406 24
      vertex 10.1243 -33.4948 24
    endloop
  endfacet
  facet normal 0 0 1
    outer loop
      vertex 10.8989 -34.3406 24
      vertex 9.96911 -33.9725 24
      vertex 10.6315 -34.9088 24
    endloop
  endfacet
  facet normal -0 0 1
    outer loop
      vertex 9.75523 -34.427 24
      vertex 10.6315 -34.9088 24
      vertex 9.96911 -33.9725 24
    endloop
  endfacet
  facet normal 0 0 1
    outer loop
      vertex 10.6315 -34.9088 24
      vertex 9.75523 -34.427 24
      vertex 10.2951 -35.4389 24
    endloop
  endfacet
  facet normal -0 0 1
    outer loop
      vertex 9.48607 -34.8511 24
      vertex 10.2951 -35.4389 24
      vertex 9.75523 -34.427 24
    endloop
  endfacet
  facet normal 0 0 1
    outer loop
      vertex 10.2951 -35.4389 24
      vertex 9.48607 -34.8511 24
      vertex 9.89484 -35.9227 24
    endloop
  endfacet
  facet normal -0 0 1
    outer loop
      vertex 9.16587 -35.2382 24
      vertex 9.89484 -35.9227 24
      vertex 9.48607 -34.8511 24
    endloop
  endfacet
  facet normal 0 0 1
    outer loop
      vertex 9.89484 -35.9227 24
      vertex 9.16587 -35.2382 24
      vertex 9.43712 -36.3526 24
    endloop
  endfacet
  facet normal -0 0 1
    outer loop
      vertex 8.7997 -35.5821 24
      vertex 9.43712 -36.3526 24
      vertex 9.16587 -35.2382 24
    endloop
  endfacet
  facet normal 0 0 1
    outer loop
      vertex 9.43712 -36.3526 24
      vertex 8.7997 -35.5821 24
      vertex 8.92913 -36.7216 24
    endloop
  endfacet
  facet normal -0 0 1
    outer loop
      vertex 8.39331 -35.8773 24
      vertex 8.92913 -36.7216 24
      vertex 8.7997 -35.5821 24
    endloop
  endfacet
  facet normal 0 0 1
    outer loop
      vertex 8.39331 -35.8773 24
      vertex 8.3789 -37.0241 24
      vertex 8.92913 -36.7216 24
    endloop
  endfacet
  facet normal -0 0 1
    outer loop
      vertex 7.95312 -36.1193 24
      vertex 8.3789 -37.0241 24
      vertex 8.39331 -35.8773 24
    endloop
  endfacet
  facet normal 0 0 1
    outer loop
      vertex 7.95312 -36.1193 24
      vertex 7.79508 -37.2553 24
      vertex 8.3789 -37.0241 24
    endloop
  endfacet
  facet normal -0 0 1
    outer loop
      vertex 7.48607 -36.3042 24
      vertex 7.79508 -37.2553 24
      vertex 7.95312 -36.1193 24
    endloop
  endfacet
  facet normal 0 0 1
    outer loop
      vertex 7.48607 -36.3042 24
      vertex 7.18691 -37.4114 24
      vertex 7.79508 -37.2553 24
    endloop
  endfacet
  facet normal -0 0 1
    outer loop
      vertex 6.99953 -36.4291 24
      vertex 7.18691 -37.4114 24
      vertex 7.48607 -36.3042 24
    endloop
  endfacet
  facet normal 0 0 1
    outer loop
      vertex 6.99953 -36.4291 24
      vertex 6.56395 -37.4901 24
      vertex 7.18691 -37.4114 24
    endloop
  endfacet
  facet normal -0 0 1
    outer loop
      vertex 6.50116 -36.4921 24
      vertex 6.56395 -37.4901 24
      vertex 6.99953 -36.4291 24
    endloop
  endfacet
  facet normal -0 0 1
    outer loop
      vertex -6.50116 -36.4921 24
      vertex 6.56395 -37.4901 24
      vertex 6.50116 -36.4921 24
    endloop
  endfacet
  facet normal 0 0 1
    outer loop
      vertex -6.50116 -36.4921 24
      vertex -6.56395 -37.4901 24
      vertex 6.56395 -37.4901 24
    endloop
  endfacet
  facet normal 0 0 1
    outer loop
      vertex -6.99953 -36.4291 24
      vertex -6.56395 -37.4901 24
      vertex -6.50116 -36.4921 24
    endloop
  endfacet
  facet normal 0 0 1
    outer loop
      vertex -6.99953 -36.4291 24
      vertex -7.18691 -37.4114 24
      vertex -6.56395 -37.4901 24
    endloop
  endfacet
  facet normal 0 0 1
    outer loop
      vertex -7.48607 -36.3042 24
      vertex -7.18691 -37.4114 24
      vertex -6.99953 -36.4291 24
    endloop
  endfacet
  facet normal 0 0 1
    outer loop
      vertex -7.48607 -36.3042 24
      vertex -7.79508 -37.2553 24
      vertex -7.18691 -37.4114 24
    endloop
  endfacet
  facet normal 0 0 1
    outer loop
      vertex -7.95312 -36.1193 24
      vertex -7.79508 -37.2553 24
      vertex -7.48607 -36.3042 24
    endloop
  endfacet
  facet normal 0 0 1
    outer loop
      vertex -7.95312 -36.1193 24
      vertex -8.3789 -37.0241 24
      vertex -7.79508 -37.2553 24
    endloop
  endfacet
  facet normal 0 0 1
    outer loop
      vertex -8.39331 -35.8773 24
      vertex -8.3789 -37.0241 24
      vertex -7.95312 -36.1193 24
    endloop
  endfacet
  facet normal 0 0 1
    outer loop
      vertex -8.92913 -36.7216 24
      vertex -8.39331 -35.8773 24
      vertex -8.7997 -35.5821 24
    endloop
  endfacet
  facet normal 0 0 1
    outer loop
      vertex -8.39331 -35.8773 24
      vertex -8.92913 -36.7216 24
      vertex -8.3789 -37.0241 24
    endloop
  endfacet
  facet normal 0 0 1
    outer loop
      vertex -9.43712 -36.3526 24
      vertex -8.7997 -35.5821 24
      vertex -9.16587 -35.2382 24
    endloop
  endfacet
  facet normal 0 0 1
    outer loop
      vertex -8.7997 -35.5821 24
      vertex -9.43712 -36.3526 24
      vertex -8.92913 -36.7216 24
    endloop
  endfacet
  facet normal 0 0 1
    outer loop
      vertex -9.89484 -35.9227 24
      vertex -9.16587 -35.2382 24
      vertex -9.48607 -34.8511 24
    endloop
  endfacet
  facet normal 0 0 1
    outer loop
      vertex -10.2951 -35.4389 24
      vertex -9.48607 -34.8511 24
      vertex -9.75523 -34.427 24
    endloop
  endfacet
  facet normal 0 0 1
    outer loop
      vertex -9.16587 -35.2382 24
      vertex -9.89484 -35.9227 24
      vertex -9.43712 -36.3526 24
    endloop
  endfacet
  facet normal 0 0 1
    outer loop
      vertex -10.6315 -34.9088 24
      vertex -9.75523 -34.427 24
      vertex -9.96911 -33.9725 24
    endloop
  endfacet
  facet normal 0 0 1
    outer loop
      vertex -10.8989 -34.3406 24
      vertex -9.96911 -33.9725 24
      vertex -10.1243 -33.4948 24
    endloop
  endfacet
  facet normal 0 0 1
    outer loop
      vertex -11.0929 -33.7435 24
      vertex -10.1243 -33.4948 24
      vertex -10.2185 -33.0013 24
    endloop
  endfacet
  facet normal 0 0 1
    outer loop
      vertex -9.48607 -34.8511 24
      vertex -10.2951 -35.4389 24
      vertex -9.89484 -35.9227 24
    endloop
  endfacet
  facet normal 0 0 1
    outer loop
      vertex -11.2106 -33.1267 24
      vertex -10.2185 -33.0013 24
      vertex -10.25 -32.5 24
    endloop
  endfacet
  facet normal 0 0 1
    outer loop
      vertex -10.25 32.5 24
      vertex -11.25 32.5 24
      vertex -10.25 -32.5 24
    endloop
  endfacet
  facet normal 0 0 1
    outer loop
      vertex -10.1243 33.4948 24
      vertex -11.0929 33.7435 24
      vertex -10.2185 33.0013 24
    endloop
  endfacet
  facet normal 0 0 1
    outer loop
      vertex -11.25 -32.5 24
      vertex -10.25 -32.5 24
      vertex -11.25 32.5 24
    endloop
  endfacet
  facet normal -0 0 1
    outer loop
      vertex -11.2106 33.1267 24
      vertex -10.2185 33.0013 24
      vertex -11.0929 33.7435 24
    endloop
  endfacet
  facet normal 0 -0 1
    outer loop
      vertex -11.2106 -33.1267 24
      vertex -10.25 -32.5 24
      vertex -11.25 -32.5 24
    endloop
  endfacet
  facet normal 0 0 1
    outer loop
      vertex -10.2185 33.0013 24
      vertex -11.2106 33.1267 24
      vertex -10.25 32.5 24
    endloop
  endfacet
  facet normal 0 0 1
    outer loop
      vertex -9.75523 -34.427 24
      vertex -10.6315 -34.9088 24
      vertex -10.2951 -35.4389 24
    endloop
  endfacet
  facet normal 0 0 1
    outer loop
      vertex -10.25 32.5 24
      vertex -11.2106 33.1267 24
      vertex -11.25 32.5 24
    endloop
  endfacet
  facet normal 0 0 1
    outer loop
      vertex -9.96911 -33.9725 24
      vertex -10.8989 -34.3406 24
      vertex -10.6315 -34.9088 24
    endloop
  endfacet
  facet normal 0 0 1
    outer loop
      vertex -10.1243 -33.4948 24
      vertex -11.0929 -33.7435 24
      vertex -10.8989 -34.3406 24
    endloop
  endfacet
  facet normal 0 0 1
    outer loop
      vertex -10.2185 -33.0013 24
      vertex -11.2106 -33.1267 24
      vertex -11.0929 -33.7435 24
    endloop
  endfacet
  facet normal 0 0 -1
    outer loop
      vertex 6.56395 -37.4901 0
      vertex 11.25 -32.5 0
      vertex 11.2106 -33.1267 0
    endloop
  endfacet
  facet normal 0 0 -1
    outer loop
      vertex 11.25 -32.5 0
      vertex -11.25 -32.5 0
      vertex 11.25 32.5 0
    endloop
  endfacet
  facet normal 0 0 -1
    outer loop
      vertex 6.56395 -37.4901 0
      vertex 11.2106 -33.1267 0
      vertex 11.0929 -33.7435 0
    endloop
  endfacet
  facet normal 0 0 -1
    outer loop
      vertex -11.25 32.5 0
      vertex 11.25 32.5 0
      vertex -11.25 -32.5 0
    endloop
  endfacet
  facet normal 0 0 -1
    outer loop
      vertex 6.56395 -37.4901 0
      vertex 11.0929 -33.7435 0
      vertex 10.8989 -34.3406 0
    endloop
  endfacet
  facet normal 0 -0 -1
    outer loop
      vertex 6.56395 37.4901 0
      vertex 11.25 32.5 0
      vertex -11.25 32.5 0
    endloop
  endfacet
  facet normal 0 0 -1
    outer loop
      vertex 6.56395 -37.4901 0
      vertex 10.8989 -34.3406 0
      vertex 10.6315 -34.9088 0
    endloop
  endfacet
  facet normal 0 0 -1
    outer loop
      vertex 11.25 32.5 0
      vertex 6.56395 37.4901 0
      vertex 11.2106 33.1267 0
    endloop
  endfacet
  facet normal 0 0 -1
    outer loop
      vertex 6.56395 -37.4901 0
      vertex 10.6315 -34.9088 0
      vertex 10.2951 -35.4389 0
    endloop
  endfacet
  facet normal 0 0 -1
    outer loop
      vertex 11.2106 33.1267 0
      vertex 6.56395 37.4901 0
      vertex 11.0929 33.7435 0
    endloop
  endfacet
  facet normal 0 0 -1
    outer loop
      vertex 6.56395 -37.4901 0
      vertex 10.2951 -35.4389 0
      vertex 9.89484 -35.9227 0
    endloop
  endfacet
  facet normal 0 0 -1
    outer loop
      vertex 11.0929 33.7435 0
      vertex 6.56395 37.4901 0
      vertex 10.8989 34.3406 0
    endloop
  endfacet
  facet normal 0 0 -1
    outer loop
      vertex 6.56395 -37.4901 0
      vertex 9.89484 -35.9227 0
      vertex 9.43712 -36.3526 0
    endloop
  endfacet
  facet normal 0 0 -1
    outer loop
      vertex 10.8989 34.3406 0
      vertex 6.56395 37.4901 0
      vertex 10.6315 34.9088 0
    endloop
  endfacet
  facet normal 0 0 -1
    outer loop
      vertex 6.56395 -37.4901 0
      vertex 9.43712 -36.3526 0
      vertex 8.92913 -36.7216 0
    endloop
  endfacet
  facet normal 0 0 -1
    outer loop
      vertex 10.6315 34.9088 0
      vertex 6.56395 37.4901 0
      vertex 10.2951 35.4389 0
    endloop
  endfacet
  facet normal 0 0 -1
    outer loop
      vertex 6.56395 -37.4901 0
      vertex 8.92913 -36.7216 0
      vertex 8.3789 -37.0241 0
    endloop
  endfacet
  facet normal 0 0 -1
    outer loop
      vertex 10.2951 35.4389 0
      vertex 6.56395 37.4901 0
      vertex 9.89484 35.9227 0
    endloop
  endfacet
  facet normal 0 0 -1
    outer loop
      vertex 6.56395 -37.4901 0
      vertex 8.3789 -37.0241 0
      vertex 7.79508 -37.2553 0
    endloop
  endfacet
  facet normal 0 0 -1
    outer loop
      vertex 9.89484 35.9227 0
      vertex 6.56395 37.4901 0
      vertex 9.43712 36.3526 0
    endloop
  endfacet
  facet normal 0 0 -1
    outer loop
      vertex 6.56395 -37.4901 0
      vertex 7.79508 -37.2553 0
      vertex 7.18691 -37.4114 0
    endloop
  endfacet
  facet normal 0 0 -1
    outer loop
      vertex 9.43712 36.3526 0
      vertex 6.56395 37.4901 0
      vertex 8.92913 36.7216 0
    endloop
  endfacet
  facet normal -0 0 -1
    outer loop
      vertex 11.25 -32.5 0
      vertex 6.56395 -37.4901 0
      vertex -11.25 -32.5 0
    endloop
  endfacet
  facet normal 0 0 -1
    outer loop
      vertex 8.92913 36.7216 0
      vertex 6.56395 37.4901 0
      vertex 8.3789 37.0241 0
    endloop
  endfacet
  facet normal 0 0 -1
    outer loop
      vertex -11.25 -32.5 0
      vertex 6.56395 -37.4901 0
      vertex -6.56395 -37.4901 0
    endloop
  endfacet
  facet normal 0 0 -1
    outer loop
      vertex 8.3789 37.0241 0
      vertex 6.56395 37.4901 0
      vertex 7.79508 37.2553 0
    endloop
  endfacet
  facet normal 0 0 -1
    outer loop
      vertex -11.25 -32.5 0
      vertex -6.56395 -37.4901 0
      vertex -7.18691 -37.4114 0
    endloop
  endfacet
  facet normal 0 0 -1
    outer loop
      vertex 7.79508 37.2553 0
      vertex 6.56395 37.4901 0
      vertex 7.18691 37.4114 0
    endloop
  endfacet
  facet normal 0 0 -1
    outer loop
      vertex -11.25 -32.5 0
      vertex -7.18691 -37.4114 0
      vertex -7.79508 -37.2553 0
    endloop
  endfacet
  facet normal -0 0 -1
    outer loop
      vertex 6.56395 37.4901 0
      vertex -11.25 32.5 0
      vertex -6.56395 37.4901 0
    endloop
  endfacet
  facet normal 0 0 -1
    outer loop
      vertex -11.25 -32.5 0
      vertex -7.79508 -37.2553 0
      vertex -8.3789 -37.0241 0
    endloop
  endfacet
  facet normal 0 0 -1
    outer loop
      vertex -6.56395 37.4901 0
      vertex -11.25 32.5 0
      vertex -7.18691 37.4114 0
    endloop
  endfacet
  facet normal 0 0 -1
    outer loop
      vertex -11.25 -32.5 0
      vertex -8.3789 -37.0241 0
      vertex -8.92913 -36.7216 0
    endloop
  endfacet
  facet normal 0 0 -1
    outer loop
      vertex -7.18691 37.4114 0
      vertex -11.25 32.5 0
      vertex -7.79508 37.2553 0
    endloop
  endfacet
  facet normal 0 0 -1
    outer loop
      vertex -11.25 -32.5 0
      vertex -8.92913 -36.7216 0
      vertex -9.43712 -36.3526 0
    endloop
  endfacet
  facet normal 0 0 -1
    outer loop
      vertex -7.79508 37.2553 0
      vertex -11.25 32.5 0
      vertex -8.3789 37.0241 0
    endloop
  endfacet
  facet normal 0 0 -1
    outer loop
      vertex -11.25 -32.5 0
      vertex -9.43712 -36.3526 0
      vertex -9.89484 -35.9227 0
    endloop
  endfacet
  facet normal 0 0 -1
    outer loop
      vertex -8.3789 37.0241 0
      vertex -11.25 32.5 0
      vertex -8.92913 36.7216 0
    endloop
  endfacet
  facet normal 0 0 -1
    outer loop
      vertex -11.25 -32.5 0
      vertex -9.89484 -35.9227 0
      vertex -10.2951 -35.4389 0
    endloop
  endfacet
  facet normal 0 0 -1
    outer loop
      vertex -8.92913 36.7216 0
      vertex -11.25 32.5 0
      vertex -9.43712 36.3526 0
    endloop
  endfacet
  facet normal 0 0 -1
    outer loop
      vertex -11.25 -32.5 0
      vertex -10.2951 -35.4389 0
      vertex -10.6315 -34.9088 0
    endloop
  endfacet
  facet normal 0 0 -1
    outer loop
      vertex -9.43712 36.3526 0
      vertex -11.25 32.5 0
      vertex -9.89484 35.9227 0
    endloop
  endfacet
  facet normal 0 0 -1
    outer loop
      vertex -11.25 -32.5 0
      vertex -10.6315 -34.9088 0
      vertex -10.8989 -34.3406 0
    endloop
  endfacet
  facet normal 0 0 -1
    outer loop
      vertex -9.89484 35.9227 0
      vertex -11.25 32.5 0
      vertex -10.2951 35.4389 0
    endloop
  endfacet
  facet normal 0 0 -1
    outer loop
      vertex -11.25 -32.5 0
      vertex -10.8989 -34.3406 0
      vertex -11.0929 -33.7435 0
    endloop
  endfacet
  facet normal 0 0 -1
    outer loop
      vertex -10.2951 35.4389 0
      vertex -11.25 32.5 0
      vertex -10.6315 34.9088 0
    endloop
  endfacet
  facet normal 0 0 -1
    outer loop
      vertex -11.25 -32.5 0
      vertex -11.0929 -33.7435 0
      vertex -11.2106 -33.1267 0
    endloop
  endfacet
  facet normal 0 0 -1
    outer loop
      vertex -10.6315 34.9088 0
      vertex -11.25 32.5 0
      vertex -10.8989 34.3406 0
    endloop
  endfacet
  facet normal 0 0 -1
    outer loop
      vertex -10.8989 34.3406 0
      vertex -11.25 32.5 0
      vertex -11.0929 33.7435 0
    endloop
  endfacet
  facet normal 0 0 -1
    outer loop
      vertex -11.0929 33.7435 0
      vertex -11.25 32.5 0
      vertex -11.2106 33.1267 0
    endloop
  endfacet
  facet normal -0.587706 0.809075 0
    outer loop
      vertex -8.92913 36.7216 0
      vertex -9.43712 36.3526 24
      vertex -8.92913 36.7216 24
    endloop
  endfacet
  facet normal -0.587706 0.809075 0
    outer loop
      vertex -9.43712 36.3526 24
      vertex -8.92913 36.7216 0
      vertex -9.43712 36.3526 0
    endloop
  endfacet
  facet normal -0.481764 0.876301 0
    outer loop
      vertex -8.3789 37.0241 0
      vertex -8.92913 36.7216 24
      vertex -8.3789 37.0241 24
    endloop
  endfacet
  facet normal -0.481764 0.876301 0
    outer loop
      vertex -8.92913 36.7216 24
      vertex -8.3789 37.0241 0
      vertex -8.92913 36.7216 0
    endloop
  endfacet
  facet normal 0.248613 0.968603 -0
    outer loop
      vertex 7.79508 37.2553 0
      vertex 7.18691 37.4114 24
      vertex 7.79508 37.2553 24
    endloop
  endfacet
  facet normal 0.248613 0.968603 0
    outer loop
      vertex 7.18691 37.4114 24
      vertex 7.79508 37.2553 0
      vertex 7.18691 37.4114 0
    endloop
  endfacet
  facet normal -0.587706 -0.809075 0
    outer loop
      vertex -9.43712 -36.3526 0
      vertex -8.92913 -36.7216 24
      vertex -9.43712 -36.3526 24
    endloop
  endfacet
  facet normal -0.587706 -0.809075 -0
    outer loop
      vertex -8.92913 -36.7216 24
      vertex -9.43712 -36.3526 0
      vertex -8.92913 -36.7216 0
    endloop
  endfacet
  facet normal -0.125336 -0.992114 0
    outer loop
      vertex -7.18691 -37.4114 0
      vertex -6.56395 -37.4901 24
      vertex -7.18691 -37.4114 24
    endloop
  endfacet
  facet normal -0.125336 -0.992114 -0
    outer loop
      vertex -6.56395 -37.4901 24
      vertex -7.18691 -37.4114 0
      vertex -6.56395 -37.4901 0
    endloop
  endfacet
  facet normal 0.951061 -0.309003 0
    outer loop
      vertex 10.8989 -34.3406 24
      vertex 11.0929 -33.7435 0
      vertex 11.0929 -33.7435 24
    endloop
  endfacet
  facet normal 0.951061 -0.309003 0
    outer loop
      vertex 11.0929 -33.7435 0
      vertex 10.8989 -34.3406 24
      vertex 10.8989 -34.3406 0
    endloop
  endfacet
  facet normal 0.770493 -0.637448 0
    outer loop
      vertex 9.89484 -35.9227 24
      vertex 10.2951 -35.4389 0
      vertex 10.2951 -35.4389 24
    endloop
  endfacet
  facet normal 0.770493 -0.637448 0
    outer loop
      vertex 10.2951 -35.4389 0
      vertex 9.89484 -35.9227 24
      vertex 9.89484 -35.9227 0
    endloop
  endfacet
  facet normal 0.684608 -0.728911 0
    outer loop
      vertex 9.43712 -36.3526 0
      vertex 9.89484 -35.9227 24
      vertex 9.43712 -36.3526 24
    endloop
  endfacet
  facet normal 0.684608 -0.728911 0
    outer loop
      vertex 9.89484 -35.9227 24
      vertex 9.43712 -36.3526 0
      vertex 9.89484 -35.9227 0
    endloop
  endfacet
  facet normal 0.368192 -0.92975 0
    outer loop
      vertex 7.79508 -37.2553 0
      vertex 8.3789 -37.0241 24
      vertex 7.79508 -37.2553 24
    endloop
  endfacet
  facet normal 0.368192 -0.92975 0
    outer loop
      vertex 8.3789 -37.0241 24
      vertex 7.79508 -37.2553 0
      vertex 8.3789 -37.0241 0
    endloop
  endfacet
  facet normal 0.248613 -0.968603 0
    outer loop
      vertex 7.18691 -37.4114 0
      vertex 7.79508 -37.2553 24
      vertex 7.18691 -37.4114 24
    endloop
  endfacet
  facet normal 0.248613 -0.968603 0
    outer loop
      vertex 7.79508 -37.2553 24
      vertex 7.18691 -37.4114 0
      vertex 7.79508 -37.2553 0
    endloop
  endfacet
  facet normal -0.684608 -0.728911 0
    outer loop
      vertex -9.89484 -35.9227 0
      vertex -9.43712 -36.3526 24
      vertex -9.89484 -35.9227 24
    endloop
  endfacet
  facet normal -0.684608 -0.728911 -0
    outer loop
      vertex -9.43712 -36.3526 24
      vertex -9.89484 -35.9227 0
      vertex -9.43712 -36.3526 0
    endloop
  endfacet
  facet normal -0.951061 0.309003 0
    outer loop
      vertex -11.0929 33.7435 0
      vertex -10.8989 34.3406 24
      vertex -10.8989 34.3406 0
    endloop
  endfacet
  facet normal -0.951061 0.309003 0
    outer loop
      vertex -10.8989 34.3406 24
      vertex -11.0929 33.7435 0
      vertex -11.0929 33.7435 24
    endloop
  endfacet
  facet normal -0.904811 0.425812 0
    outer loop
      vertex -10.8989 34.3406 0
      vertex -10.6315 34.9088 24
      vertex -10.6315 34.9088 0
    endloop
  endfacet
  facet normal -0.904811 0.425812 0
    outer loop
      vertex -10.6315 34.9088 24
      vertex -10.8989 34.3406 0
      vertex -10.8989 34.3406 24
    endloop
  endfacet
  facet normal -0.770493 0.637448 0
    outer loop
      vertex -10.2951 35.4389 0
      vertex -9.89484 35.9227 24
      vertex -9.89484 35.9227 0
    endloop
  endfacet
  facet normal -0.770493 0.637448 0
    outer loop
      vertex -9.89484 35.9227 24
      vertex -10.2951 35.4389 0
      vertex -10.2951 35.4389 24
    endloop
  endfacet
  facet normal 0.587706 0.809075 -0
    outer loop
      vertex 9.43712 36.3526 0
      vertex 8.92913 36.7216 24
      vertex 9.43712 36.3526 24
    endloop
  endfacet
  facet normal 0.587706 0.809075 0
    outer loop
      vertex 8.92913 36.7216 24
      vertex 9.43712 36.3526 0
      vertex 8.92913 36.7216 0
    endloop
  endfacet
  facet normal -0.368192 -0.92975 0
    outer loop
      vertex -8.3789 -37.0241 0
      vertex -7.79508 -37.2553 24
      vertex -8.3789 -37.0241 24
    endloop
  endfacet
  facet normal -0.368192 -0.92975 -0
    outer loop
      vertex -7.79508 -37.2553 24
      vertex -8.3789 -37.0241 0
      vertex -7.79508 -37.2553 0
    endloop
  endfacet
  facet normal 0.982276 0.187441 0
    outer loop
      vertex 11.2106 33.1267 24
      vertex 11.0929 33.7435 0
      vertex 11.0929 33.7435 24
    endloop
  endfacet
  facet normal 0.982276 0.187441 0
    outer loop
      vertex 11.0929 33.7435 0
      vertex 11.2106 33.1267 24
      vertex 11.2106 33.1267 0
    endloop
  endfacet
  facet normal 0.99803 0.0627451 0
    outer loop
      vertex 11.25 32.5 24
      vertex 11.2106 33.1267 0
      vertex 11.2106 33.1267 24
    endloop
  endfacet
  facet normal 0.99803 0.0627451 0
    outer loop
      vertex 11.2106 33.1267 0
      vertex 11.25 32.5 24
      vertex 11.25 32.5 0
    endloop
  endfacet
  facet normal 0.844336 0.535814 0
    outer loop
      vertex 10.6315 34.9088 24
      vertex 10.2951 35.4389 0
      vertex 10.2951 35.4389 24
    endloop
  endfacet
  facet normal 0.844336 0.535814 0
    outer loop
      vertex 10.2951 35.4389 0
      vertex 10.6315 34.9088 24
      vertex 10.6315 34.9088 0
    endloop
  endfacet
  facet normal 0.904811 0.425812 0
    outer loop
      vertex 10.8989 34.3406 24
      vertex 10.6315 34.9088 0
      vertex 10.6315 34.9088 24
    endloop
  endfacet
  facet normal 0.904811 0.425812 0
    outer loop
      vertex 10.6315 34.9088 0
      vertex 10.8989 34.3406 24
      vertex 10.8989 34.3406 0
    endloop
  endfacet
  facet normal 0.844336 -0.535814 0
    outer loop
      vertex 10.2951 -35.4389 24
      vertex 10.6315 -34.9088 0
      vertex 10.6315 -34.9088 24
    endloop
  endfacet
  facet normal 0.844336 -0.535814 0
    outer loop
      vertex 10.6315 -34.9088 0
      vertex 10.2951 -35.4389 24
      vertex 10.2951 -35.4389 0
    endloop
  endfacet
  facet normal 0.587706 -0.809075 0
    outer loop
      vertex 8.92913 -36.7216 0
      vertex 9.43712 -36.3526 24
      vertex 8.92913 -36.7216 24
    endloop
  endfacet
  facet normal 0.587706 -0.809075 0
    outer loop
      vertex 9.43712 -36.3526 24
      vertex 8.92913 -36.7216 0
      vertex 9.43712 -36.3526 0
    endloop
  endfacet
  facet normal -0.844336 -0.535814 0
    outer loop
      vertex -10.2951 -35.4389 0
      vertex -10.6315 -34.9088 24
      vertex -10.6315 -34.9088 0
    endloop
  endfacet
  facet normal -0.844336 -0.535814 0
    outer loop
      vertex -10.6315 -34.9088 24
      vertex -10.2951 -35.4389 0
      vertex -10.2951 -35.4389 24
    endloop
  endfacet
  facet normal -0.844336 0.535814 0
    outer loop
      vertex -10.6315 34.9088 0
      vertex -10.2951 35.4389 24
      vertex -10.2951 35.4389 0
    endloop
  endfacet
  facet normal -0.844336 0.535814 0
    outer loop
      vertex -10.2951 35.4389 24
      vertex -10.6315 34.9088 0
      vertex -10.6315 34.9088 24
    endloop
  endfacet
  facet normal -0.481764 -0.876301 0
    outer loop
      vertex -8.92913 -36.7216 0
      vertex -8.3789 -37.0241 24
      vertex -8.92913 -36.7216 24
    endloop
  endfacet
  facet normal -0.481764 -0.876301 -0
    outer loop
      vertex -8.3789 -37.0241 24
      vertex -8.92913 -36.7216 0
      vertex -8.3789 -37.0241 0
    endloop
  endfacet
  facet normal -0.904811 -0.425812 0
    outer loop
      vertex -10.6315 -34.9088 0
      vertex -10.8989 -34.3406 24
      vertex -10.8989 -34.3406 0
    endloop
  endfacet
  facet normal -0.904811 -0.425812 0
    outer loop
      vertex -10.8989 -34.3406 24
      vertex -10.6315 -34.9088 0
      vertex -10.6315 -34.9088 24
    endloop
  endfacet
  facet normal -0.951061 -0.309003 0
    outer loop
      vertex -10.8989 -34.3406 0
      vertex -11.0929 -33.7435 24
      vertex -11.0929 -33.7435 0
    endloop
  endfacet
  facet normal -0.951061 -0.309003 0
    outer loop
      vertex -11.0929 -33.7435 24
      vertex -10.8989 -34.3406 0
      vertex -10.8989 -34.3406 24
    endloop
  endfacet
  facet normal -0.770493 -0.637448 0
    outer loop
      vertex -9.89484 -35.9227 0
      vertex -10.2951 -35.4389 24
      vertex -10.2951 -35.4389 0
    endloop
  endfacet
  facet normal -0.770493 -0.637448 0
    outer loop
      vertex -10.2951 -35.4389 24
      vertex -9.89484 -35.9227 0
      vertex -9.89484 -35.9227 24
    endloop
  endfacet
  facet normal -0.125414 -0.992104 0
    outer loop
      vertex 6.50116 36.4921 2
      vertex 6.99953 36.4291 24
      vertex 6.50116 36.4921 24
    endloop
  endfacet
  facet normal -0.125414 -0.992104 -0
    outer loop
      vertex 6.99953 36.4291 24
      vertex 6.50116 36.4921 2
      vertex 6.99953 36.4291 2
    endloop
  endfacet
  facet normal -0.998032 0.0627129 0
    outer loop
      vertex 10.2185 -33.0013 2
      vertex 10.25 -32.5 24
      vertex 10.25 -32.5 2
    endloop
  endfacet
  facet normal -0.998032 0.0627129 0
    outer loop
      vertex 10.25 -32.5 24
      vertex 10.2185 -33.0013 2
      vertex 10.2185 -33.0013 24
    endloop
  endfacet
  facet normal 0.248648 -0.968594 0
    outer loop
      vertex -7.48607 36.3042 2
      vertex -6.99953 36.4291 24
      vertex -7.48607 36.3042 24
    endloop
  endfacet
  facet normal 0.248648 -0.968594 0
    outer loop
      vertex -6.99953 36.4291 24
      vertex -7.48607 36.3042 2
      vertex -6.99953 36.4291 2
    endloop
  endfacet
  facet normal -0.998032 -0.0627129 0
    outer loop
      vertex 10.25 32.5 2
      vertex 10.2185 33.0013 24
      vertex 10.2185 33.0013 2
    endloop
  endfacet
  facet normal -0.998032 -0.0627129 0
    outer loop
      vertex 10.2185 33.0013 24
      vertex 10.25 32.5 2
      vertex 10.25 32.5 24
    endloop
  endfacet
  facet normal 0.125414 -0.992104 0
    outer loop
      vertex -6.99953 36.4291 2
      vertex -6.50116 36.4921 24
      vertex -6.99953 36.4291 24
    endloop
  endfacet
  facet normal 0.125414 -0.992104 0
    outer loop
      vertex -6.50116 36.4921 24
      vertex -6.99953 36.4291 2
      vertex -6.50116 36.4921 2
    endloop
  endfacet
  facet normal 0 -1 0
    outer loop
      vertex -6.50116 36.4921 2
      vertex 6.50116 36.4921 24
      vertex -6.50116 36.4921 24
    endloop
  endfacet
  facet normal 0 -1 -0
    outer loop
      vertex 6.50116 36.4921 24
      vertex -6.50116 36.4921 2
      vertex 6.50116 36.4921 2
    endloop
  endfacet
  facet normal -0.770549 -0.63738 0
    outer loop
      vertex 9.48607 34.8511 2
      vertex 9.16587 35.2382 24
      vertex 9.16587 35.2382 2
    endloop
  endfacet
  facet normal -0.770549 -0.63738 0
    outer loop
      vertex 9.16587 35.2382 24
      vertex 9.48607 34.8511 2
      vertex 9.48607 34.8511 24
    endloop
  endfacet
  facet normal 0.982265 0.187496 0
    outer loop
      vertex -10.1243 -33.4948 24
      vertex -10.2185 -33.0013 2
      vertex -10.2185 -33.0013 24
    endloop
  endfacet
  facet normal 0.982265 0.187496 0
    outer loop
      vertex -10.2185 -33.0013 2
      vertex -10.1243 -33.4948 24
      vertex -10.1243 -33.4948 2
    endloop
  endfacet
  facet normal 0.368093 -0.929789 0
    outer loop
      vertex -7.95312 36.1193 2
      vertex -7.48607 36.3042 24
      vertex -7.95312 36.1193 24
    endloop
  endfacet
  facet normal 0.368093 -0.929789 0
    outer loop
      vertex -7.48607 36.3042 24
      vertex -7.95312 36.1193 2
      vertex -7.48607 36.3042 2
    endloop
  endfacet
  facet normal 0.684593 -0.728925 0
    outer loop
      vertex -9.16587 35.2382 2
      vertex -8.7997 35.5821 24
      vertex -9.16587 35.2382 24
    endloop
  endfacet
  facet normal 0.684593 -0.728925 0
    outer loop
      vertex -8.7997 35.5821 24
      vertex -9.16587 35.2382 2
      vertex -8.7997 35.5821 2
    endloop
  endfacet
  facet normal -0.481759 -0.876304 0
    outer loop
      vertex 7.95312 36.1193 2
      vertex 8.39331 35.8773 24
      vertex 7.95312 36.1193 24
    endloop
  endfacet
  facet normal -0.481759 -0.876304 -0
    outer loop
      vertex 8.39331 35.8773 24
      vertex 7.95312 36.1193 2
      vertex 8.39331 35.8773 2
    endloop
  endfacet
  facet normal -0.368093 -0.929789 0
    outer loop
      vertex 7.48607 36.3042 2
      vertex 7.95312 36.1193 24
      vertex 7.48607 36.3042 24
    endloop
  endfacet
  facet normal -0.368093 -0.929789 -0
    outer loop
      vertex 7.95312 36.1193 24
      vertex 7.48607 36.3042 2
      vertex 7.95312 36.1193 2
    endloop
  endfacet
  facet normal -0.951071 -0.308974 0
    outer loop
      vertex 10.1243 33.4948 2
      vertex 9.96911 33.9725 24
      vertex 9.96911 33.9725 2
    endloop
  endfacet
  facet normal -0.951071 -0.308974 0
    outer loop
      vertex 9.96911 33.9725 24
      vertex 10.1243 33.4948 2
      vertex 10.1243 33.4948 24
    endloop
  endfacet
  facet normal 0.125414 0.992104 -0
    outer loop
      vertex -6.50116 -36.4921 2
      vertex -6.99953 -36.4291 24
      vertex -6.50116 -36.4921 24
    endloop
  endfacet
  facet normal 0.125414 0.992104 0
    outer loop
      vertex -6.99953 -36.4291 24
      vertex -6.50116 -36.4921 2
      vertex -6.99953 -36.4291 2
    endloop
  endfacet
  facet normal -1 0 0
    outer loop
      vertex 10.25 -32.5 2
      vertex 10.25 32.5 24
      vertex 10.25 32.5 2
    endloop
  endfacet
  facet normal -1 -0 0
    outer loop
      vertex 10.25 32.5 24
      vertex 10.25 -32.5 2
      vertex 10.25 -32.5 24
    endloop
  endfacet
  facet normal 0.770549 0.63738 0
    outer loop
      vertex -9.16587 -35.2382 24
      vertex -9.48607 -34.8511 2
      vertex -9.48607 -34.8511 24
    endloop
  endfacet
  facet normal 0.770549 0.63738 0
    outer loop
      vertex -9.48607 -34.8511 2
      vertex -9.16587 -35.2382 24
      vertex -9.16587 -35.2382 2
    endloop
  endfacet
  facet normal 1 -0 0
    outer loop
      vertex -10.25 -32.5 24
      vertex -10.25 32.5 2
      vertex -10.25 32.5 24
    endloop
  endfacet
  facet normal 1 0 0
    outer loop
      vertex -10.25 32.5 2
      vertex -10.25 -32.5 24
      vertex -10.25 -32.5 2
    endloop
  endfacet
  facet normal 0.998032 -0.0627129 0
    outer loop
      vertex -10.25 32.5 24
      vertex -10.2185 33.0013 2
      vertex -10.2185 33.0013 24
    endloop
  endfacet
  facet normal 0.998032 -0.0627129 0
    outer loop
      vertex -10.2185 33.0013 2
      vertex -10.25 32.5 24
      vertex -10.25 32.5 2
    endloop
  endfacet
  facet normal 0.951071 -0.308974 0
    outer loop
      vertex -10.1243 33.4948 24
      vertex -9.96911 33.9725 2
      vertex -9.96911 33.9725 24
    endloop
  endfacet
  facet normal 0.951071 -0.308974 0
    outer loop
      vertex -9.96911 33.9725 2
      vertex -10.1243 33.4948 24
      vertex -10.1243 33.4948 2
    endloop
  endfacet
  facet normal -0.248648 -0.968594 0
    outer loop
      vertex 6.99953 36.4291 2
      vertex 7.48607 36.3042 24
      vertex 6.99953 36.4291 24
    endloop
  endfacet
  facet normal -0.248648 -0.968594 -0
    outer loop
      vertex 7.48607 36.3042 24
      vertex 6.99953 36.4291 2
      vertex 7.48607 36.3042 2
    endloop
  endfacet
  facet normal -0.587708 -0.809073 0
    outer loop
      vertex 8.39331 35.8773 2
      vertex 8.7997 35.5821 24
      vertex 8.39331 35.8773 24
    endloop
  endfacet
  facet normal -0.587708 -0.809073 -0
    outer loop
      vertex 8.7997 35.5821 24
      vertex 8.39331 35.8773 2
      vertex 8.7997 35.5821 2
    endloop
  endfacet
  facet normal -0.684593 -0.728925 0
    outer loop
      vertex 8.7997 35.5821 2
      vertex 9.16587 35.2382 24
      vertex 8.7997 35.5821 24
    endloop
  endfacet
  facet normal -0.684593 -0.728925 -0
    outer loop
      vertex 9.16587 35.2382 24
      vertex 8.7997 35.5821 2
      vertex 9.16587 35.2382 2
    endloop
  endfacet
  facet normal -0.982265 -0.187496 0
    outer loop
      vertex 10.2185 33.0013 2
      vertex 10.1243 33.4948 24
      vertex 10.1243 33.4948 2
    endloop
  endfacet
  facet normal -0.982265 -0.187496 0
    outer loop
      vertex 10.1243 33.4948 24
      vertex 10.2185 33.0013 2
      vertex 10.2185 33.0013 24
    endloop
  endfacet
  facet normal -0.904821 -0.425793 0
    outer loop
      vertex 9.96911 33.9725 2
      vertex 9.75523 34.427 24
      vertex 9.75523 34.427 2
    endloop
  endfacet
  facet normal -0.904821 -0.425793 0
    outer loop
      vertex 9.75523 34.427 24
      vertex 9.96911 33.9725 2
      vertex 9.96911 33.9725 24
    endloop
  endfacet
  facet normal -0.844312 -0.535852 0
    outer loop
      vertex 9.75523 34.427 2
      vertex 9.48607 34.8511 24
      vertex 9.48607 34.8511 2
    endloop
  endfacet
  facet normal -0.844312 -0.535852 0
    outer loop
      vertex 9.48607 34.8511 24
      vertex 9.75523 34.427 2
      vertex 9.75523 34.427 24
    endloop
  endfacet
  facet normal -0.844312 0.535852 0
    outer loop
      vertex 9.48607 -34.8511 2
      vertex 9.75523 -34.427 24
      vertex 9.75523 -34.427 2
    endloop
  endfacet
  facet normal -0.844312 0.535852 0
    outer loop
      vertex 9.75523 -34.427 24
      vertex 9.48607 -34.8511 2
      vertex 9.48607 -34.8511 24
    endloop
  endfacet
  facet normal -0.982265 0.187496 0
    outer loop
      vertex 10.1243 -33.4948 2
      vertex 10.2185 -33.0013 24
      vertex 10.2185 -33.0013 2
    endloop
  endfacet
  facet normal -0.982265 0.187496 0
    outer loop
      vertex 10.2185 -33.0013 24
      vertex 10.1243 -33.4948 2
      vertex 10.1243 -33.4948 24
    endloop
  endfacet
  facet normal 0.481759 0.876304 -0
    outer loop
      vertex -7.95312 -36.1193 2
      vertex -8.39331 -35.8773 24
      vertex -7.95312 -36.1193 24
    endloop
  endfacet
  facet normal 0.481759 0.876304 0
    outer loop
      vertex -8.39331 -35.8773 24
      vertex -7.95312 -36.1193 2
      vertex -8.39331 -35.8773 2
    endloop
  endfacet
  facet normal 0.998032 0.0627129 0
    outer loop
      vertex -10.2185 -33.0013 24
      vertex -10.25 -32.5 2
      vertex -10.25 -32.5 24
    endloop
  endfacet
  facet normal 0.998032 0.0627129 0
    outer loop
      vertex -10.25 -32.5 2
      vertex -10.2185 -33.0013 24
      vertex -10.2185 -33.0013 2
    endloop
  endfacet
  facet normal 0 0 1
    outer loop
      vertex 6.50116 36.4921 2
      vertex 10.25 32.5 2
      vertex 10.2185 33.0013 2
    endloop
  endfacet
  facet normal 0 0 1
    outer loop
      vertex 10.25 32.5 2
      vertex -10.25 32.5 2
      vertex 10.25 -32.5 2
    endloop
  endfacet
  facet normal 0 0 1
    outer loop
      vertex 6.50116 36.4921 2
      vertex 10.2185 33.0013 2
      vertex 10.1243 33.4948 2
    endloop
  endfacet
  facet normal 0 0 1
    outer loop
      vertex -10.25 -32.5 2
      vertex 10.25 -32.5 2
      vertex -10.25 32.5 2
    endloop
  endfacet
  facet normal 0 0 1
    outer loop
      vertex 6.50116 36.4921 2
      vertex 10.1243 33.4948 2
      vertex 9.96911 33.9725 2
    endloop
  endfacet
  facet normal 0 -0 1
    outer loop
      vertex 6.50116 -36.4921 2
      vertex 10.25 -32.5 2
      vertex -10.25 -32.5 2
    endloop
  endfacet
  facet normal 0 0 1
    outer loop
      vertex 6.50116 36.4921 2
      vertex 9.96911 33.9725 2
      vertex 9.75523 34.427 2
    endloop
  endfacet
  facet normal 0 0 1
    outer loop
      vertex 10.25 -32.5 2
      vertex 6.50116 -36.4921 2
      vertex 10.2185 -33.0013 2
    endloop
  endfacet
  facet normal 0 0 1
    outer loop
      vertex 6.50116 36.4921 2
      vertex 9.75523 34.427 2
      vertex 9.48607 34.8511 2
    endloop
  endfacet
  facet normal 0 0 1
    outer loop
      vertex 10.2185 -33.0013 2
      vertex 6.50116 -36.4921 2
      vertex 10.1243 -33.4948 2
    endloop
  endfacet
  facet normal 0 0 1
    outer loop
      vertex 6.50116 36.4921 2
      vertex 9.48607 34.8511 2
      vertex 9.16587 35.2382 2
    endloop
  endfacet
  facet normal 0 0 1
    outer loop
      vertex 10.1243 -33.4948 2
      vertex 6.50116 -36.4921 2
      vertex 9.96911 -33.9725 2
    endloop
  endfacet
  facet normal 0 0 1
    outer loop
      vertex 6.50116 36.4921 2
      vertex 9.16587 35.2382 2
      vertex 8.7997 35.5821 2
    endloop
  endfacet
  facet normal 0 0 1
    outer loop
      vertex 9.96911 -33.9725 2
      vertex 6.50116 -36.4921 2
      vertex 9.75523 -34.427 2
    endloop
  endfacet
  facet normal 0 0 1
    outer loop
      vertex 6.50116 36.4921 2
      vertex 8.7997 35.5821 2
      vertex 8.39331 35.8773 2
    endloop
  endfacet
  facet normal 0 0 1
    outer loop
      vertex 9.75523 -34.427 2
      vertex 6.50116 -36.4921 2
      vertex 9.48607 -34.8511 2
    endloop
  endfacet
  facet normal 0 0 1
    outer loop
      vertex 6.50116 36.4921 2
      vertex 8.39331 35.8773 2
      vertex 7.95312 36.1193 2
    endloop
  endfacet
  facet normal 0 0 1
    outer loop
      vertex 9.48607 -34.8511 2
      vertex 6.50116 -36.4921 2
      vertex 9.16587 -35.2382 2
    endloop
  endfacet
  facet normal 0 0 1
    outer loop
      vertex 6.50116 36.4921 2
      vertex 7.95312 36.1193 2
      vertex 7.48607 36.3042 2
    endloop
  endfacet
  facet normal 0 0 1
    outer loop
      vertex 9.16587 -35.2382 2
      vertex 6.50116 -36.4921 2
      vertex 8.7997 -35.5821 2
    endloop
  endfacet
  facet normal 0 0 1
    outer loop
      vertex 6.50116 36.4921 2
      vertex 7.48607 36.3042 2
      vertex 6.99953 36.4291 2
    endloop
  endfacet
  facet normal 0 0 1
    outer loop
      vertex 8.7997 -35.5821 2
      vertex 6.50116 -36.4921 2
      vertex 8.39331 -35.8773 2
    endloop
  endfacet
  facet normal 0 0 1
    outer loop
      vertex 10.25 32.5 2
      vertex 6.50116 36.4921 2
      vertex -10.25 32.5 2
    endloop
  endfacet
  facet normal 0 0 1
    outer loop
      vertex 8.39331 -35.8773 2
      vertex 6.50116 -36.4921 2
      vertex 7.95312 -36.1193 2
    endloop
  endfacet
  facet normal 0 0 1
    outer loop
      vertex -10.25 32.5 2
      vertex 6.50116 36.4921 2
      vertex -6.50116 36.4921 2
    endloop
  endfacet
  facet normal 0 0 1
    outer loop
      vertex 7.95312 -36.1193 2
      vertex 6.50116 -36.4921 2
      vertex 7.48607 -36.3042 2
    endloop
  endfacet
  facet normal 0 0 1
    outer loop
      vertex -10.25 32.5 2
      vertex -6.50116 36.4921 2
      vertex -6.99953 36.4291 2
    endloop
  endfacet
  facet normal 0 0 1
    outer loop
      vertex 7.48607 -36.3042 2
      vertex 6.50116 -36.4921 2
      vertex 6.99953 -36.4291 2
    endloop
  endfacet
  facet normal 0 0 1
    outer loop
      vertex -10.25 32.5 2
      vertex -6.99953 36.4291 2
      vertex -7.48607 36.3042 2
    endloop
  endfacet
  facet normal 0 0 1
    outer loop
      vertex 6.50116 -36.4921 2
      vertex -10.25 -32.5 2
      vertex -6.50116 -36.4921 2
    endloop
  endfacet
  facet normal 0 0 1
    outer loop
      vertex -10.25 32.5 2
      vertex -7.48607 36.3042 2
      vertex -7.95312 36.1193 2
    endloop
  endfacet
  facet normal 0 0 1
    outer loop
      vertex -6.50116 -36.4921 2
      vertex -10.25 -32.5 2
      vertex -6.99953 -36.4291 2
    endloop
  endfacet
  facet normal 0 0 1
    outer loop
      vertex -10.25 32.5 2
      vertex -7.95312 36.1193 2
      vertex -8.39331 35.8773 2
    endloop
  endfacet
  facet normal 0 0 1
    outer loop
      vertex -6.99953 -36.4291 2
      vertex -10.25 -32.5 2
      vertex -7.48607 -36.3042 2
    endloop
  endfacet
  facet normal 0 0 1
    outer loop
      vertex -10.25 32.5 2
      vertex -8.39331 35.8773 2
      vertex -8.7997 35.5821 2
    endloop
  endfacet
  facet normal 0 0 1
    outer loop
      vertex -7.48607 -36.3042 2
      vertex -10.25 -32.5 2
      vertex -7.95312 -36.1193 2
    endloop
  endfacet
  facet normal 0 0 1
    outer loop
      vertex -10.25 32.5 2
      vertex -8.7997 35.5821 2
      vertex -9.16587 35.2382 2
    endloop
  endfacet
  facet normal 0 0 1
    outer loop
      vertex -7.95312 -36.1193 2
      vertex -10.25 -32.5 2
      vertex -8.39331 -35.8773 2
    endloop
  endfacet
  facet normal 0 0 1
    outer loop
      vertex -10.25 32.5 2
      vertex -9.16587 35.2382 2
      vertex -9.48607 34.8511 2
    endloop
  endfacet
  facet normal 0 0 1
    outer loop
      vertex -8.39331 -35.8773 2
      vertex -10.25 -32.5 2
      vertex -8.7997 -35.5821 2
    endloop
  endfacet
  facet normal 0 0 1
    outer loop
      vertex -10.25 32.5 2
      vertex -9.48607 34.8511 2
      vertex -9.75523 34.427 2
    endloop
  endfacet
  facet normal 0 0 1
    outer loop
      vertex -8.7997 -35.5821 2
      vertex -10.25 -32.5 2
      vertex -9.16587 -35.2382 2
    endloop
  endfacet
  facet normal 0 0 1
    outer loop
      vertex -10.25 32.5 2
      vertex -9.75523 34.427 2
      vertex -9.96911 33.9725 2
    endloop
  endfacet
  facet normal 0 0 1
    outer loop
      vertex -9.16587 -35.2382 2
      vertex -10.25 -32.5 2
      vertex -9.48607 -34.8511 2
    endloop
  endfacet
  facet normal 0 0 1
    outer loop
      vertex -10.25 32.5 2
      vertex -9.96911 33.9725 2
      vertex -10.1243 33.4948 2
    endloop
  endfacet
  facet normal 0 0 1
    outer loop
      vertex -9.48607 -34.8511 2
      vertex -10.25 -32.5 2
      vertex -9.75523 -34.427 2
    endloop
  endfacet
  facet normal 0 0 1
    outer loop
      vertex -10.25 32.5 2
      vertex -10.1243 33.4948 2
      vertex -10.2185 33.0013 2
    endloop
  endfacet
  facet normal 0 0 1
    outer loop
      vertex -9.75523 -34.427 2
      vertex -10.25 -32.5 2
      vertex -9.96911 -33.9725 2
    endloop
  endfacet
  facet normal 0 0 1
    outer loop
      vertex -9.96911 -33.9725 2
      vertex -10.25 -32.5 2
      vertex -10.1243 -33.4948 2
    endloop
  endfacet
  facet normal 0 0 1
    outer loop
      vertex -10.1243 -33.4948 2
      vertex -10.25 -32.5 2
      vertex -10.2185 -33.0013 2
    endloop
  endfacet
  facet normal 0.982265 -0.187496 0
    outer loop
      vertex -10.2185 33.0013 24
      vertex -10.1243 33.4948 2
      vertex -10.1243 33.4948 24
    endloop
  endfacet
  facet normal 0.982265 -0.187496 0
    outer loop
      vertex -10.1243 33.4948 2
      vertex -10.2185 33.0013 24
      vertex -10.2185 33.0013 2
    endloop
  endfacet
  facet normal 0.481759 -0.876304 0
    outer loop
      vertex -8.39331 35.8773 2
      vertex -7.95312 36.1193 24
      vertex -8.39331 35.8773 24
    endloop
  endfacet
  facet normal 0.481759 -0.876304 0
    outer loop
      vertex -7.95312 36.1193 24
      vertex -8.39331 35.8773 2
      vertex -7.95312 36.1193 2
    endloop
  endfacet
  facet normal -0.248648 0.968594 0
    outer loop
      vertex 7.48607 -36.3042 2
      vertex 6.99953 -36.4291 24
      vertex 7.48607 -36.3042 24
    endloop
  endfacet
  facet normal -0.248648 0.968594 0
    outer loop
      vertex 6.99953 -36.4291 24
      vertex 7.48607 -36.3042 2
      vertex 6.99953 -36.4291 2
    endloop
  endfacet
  facet normal -0.125414 0.992104 0
    outer loop
      vertex 6.99953 -36.4291 2
      vertex 6.50116 -36.4921 24
      vertex 6.99953 -36.4291 24
    endloop
  endfacet
  facet normal -0.125414 0.992104 0
    outer loop
      vertex 6.50116 -36.4921 24
      vertex 6.99953 -36.4291 2
      vertex 6.50116 -36.4921 2
    endloop
  endfacet
  facet normal 0 1 -0
    outer loop
      vertex 6.50116 -36.4921 2
      vertex -6.50116 -36.4921 24
      vertex 6.50116 -36.4921 24
    endloop
  endfacet
  facet normal 0 1 0
    outer loop
      vertex -6.50116 -36.4921 24
      vertex 6.50116 -36.4921 2
      vertex -6.50116 -36.4921 2
    endloop
  endfacet
  facet normal -0.951071 0.308974 0
    outer loop
      vertex 9.96911 -33.9725 2
      vertex 10.1243 -33.4948 24
      vertex 10.1243 -33.4948 2
    endloop
  endfacet
  facet normal -0.951071 0.308974 0
    outer loop
      vertex 10.1243 -33.4948 24
      vertex 9.96911 -33.9725 2
      vertex 9.96911 -33.9725 24
    endloop
  endfacet
  facet normal -0.770549 0.63738 0
    outer loop
      vertex 9.16587 -35.2382 2
      vertex 9.48607 -34.8511 24
      vertex 9.48607 -34.8511 2
    endloop
  endfacet
  facet normal -0.770549 0.63738 0
    outer loop
      vertex 9.48607 -34.8511 24
      vertex 9.16587 -35.2382 2
      vertex 9.16587 -35.2382 24
    endloop
  endfacet
  facet normal 0.248648 0.968594 -0
    outer loop
      vertex -6.99953 -36.4291 2
      vertex -7.48607 -36.3042 24
      vertex -6.99953 -36.4291 24
    endloop
  endfacet
  facet normal 0.248648 0.968594 0
    outer loop
      vertex -7.48607 -36.3042 24
      vertex -6.99953 -36.4291 2
      vertex -7.48607 -36.3042 2
    endloop
  endfacet
  facet normal 0.904821 -0.425793 0
    outer loop
      vertex -9.96911 33.9725 24
      vertex -9.75523 34.427 2
      vertex -9.75523 34.427 24
    endloop
  endfacet
  facet normal 0.904821 -0.425793 0
    outer loop
      vertex -9.75523 34.427 2
      vertex -9.96911 33.9725 24
      vertex -9.96911 33.9725 2
    endloop
  endfacet
  facet normal 0.844312 -0.535852 0
    outer loop
      vertex -9.75523 34.427 24
      vertex -9.48607 34.8511 2
      vertex -9.48607 34.8511 24
    endloop
  endfacet
  facet normal 0.844312 -0.535852 0
    outer loop
      vertex -9.48607 34.8511 2
      vertex -9.75523 34.427 24
      vertex -9.75523 34.427 2
    endloop
  endfacet
  facet normal 0.770549 -0.63738 0
    outer loop
      vertex -9.48607 34.8511 24
      vertex -9.16587 35.2382 2
      vertex -9.16587 35.2382 24
    endloop
  endfacet
  facet normal 0.770549 -0.63738 0
    outer loop
      vertex -9.16587 35.2382 2
      vertex -9.48607 34.8511 24
      vertex -9.48607 34.8511 2
    endloop
  endfacet
  facet normal 0.587708 -0.809073 0
    outer loop
      vertex -8.7997 35.5821 2
      vertex -8.39331 35.8773 24
      vertex -8.7997 35.5821 24
    endloop
  endfacet
  facet normal 0.587708 -0.809073 0
    outer loop
      vertex -8.39331 35.8773 24
      vertex -8.7997 35.5821 2
      vertex -8.39331 35.8773 2
    endloop
  endfacet
  facet normal -0.904821 0.425793 0
    outer loop
      vertex 9.75523 -34.427 2
      vertex 9.96911 -33.9725 24
      vertex 9.96911 -33.9725 2
    endloop
  endfacet
  facet normal -0.904821 0.425793 0
    outer loop
      vertex 9.96911 -33.9725 24
      vertex 9.75523 -34.427 2
      vertex 9.75523 -34.427 24
    endloop
  endfacet
  facet normal -0.368093 0.929789 0
    outer loop
      vertex 7.95312 -36.1193 2
      vertex 7.48607 -36.3042 24
      vertex 7.95312 -36.1193 24
    endloop
  endfacet
  facet normal -0.368093 0.929789 0
    outer loop
      vertex 7.48607 -36.3042 24
      vertex 7.95312 -36.1193 2
      vertex 7.48607 -36.3042 2
    endloop
  endfacet
  facet normal 0.844312 0.535852 0
    outer loop
      vertex -9.48607 -34.8511 24
      vertex -9.75523 -34.427 2
      vertex -9.75523 -34.427 24
    endloop
  endfacet
  facet normal 0.844312 0.535852 0
    outer loop
      vertex -9.75523 -34.427 2
      vertex -9.48607 -34.8511 24
      vertex -9.48607 -34.8511 2
    endloop
  endfacet
  facet normal 0.904821 0.425793 0
    outer loop
      vertex -9.75523 -34.427 24
      vertex -9.96911 -33.9725 2
      vertex -9.96911 -33.9725 24
    endloop
  endfacet
  facet normal 0.904821 0.425793 0
    outer loop
      vertex -9.96911 -33.9725 2
      vertex -9.75523 -34.427 24
      vertex -9.75523 -34.427 2
    endloop
  endfacet
  facet normal 0.951071 0.308974 0
    outer loop
      vertex -9.96911 -33.9725 24
      vertex -10.1243 -33.4948 2
      vertex -10.1243 -33.4948 24
    endloop
  endfacet
  facet normal 0.951071 0.308974 0
    outer loop
      vertex -10.1243 -33.4948 2
      vertex -9.96911 -33.9725 24
      vertex -9.96911 -33.9725 2
    endloop
  endfacet
  facet normal -0.587708 0.809073 0
    outer loop
      vertex 8.7997 -35.5821 2
      vertex 8.39331 -35.8773 24
      vertex 8.7997 -35.5821 24
    endloop
  endfacet
  facet normal -0.587708 0.809073 0
    outer loop
      vertex 8.39331 -35.8773 24
      vertex 8.7997 -35.5821 2
      vertex 8.39331 -35.8773 2
    endloop
  endfacet
  facet normal -0.481759 0.876304 0
    outer loop
      vertex 8.39331 -35.8773 2
      vertex 7.95312 -36.1193 24
      vertex 8.39331 -35.8773 24
    endloop
  endfacet
  facet normal -0.481759 0.876304 0
    outer loop
      vertex 7.95312 -36.1193 24
      vertex 8.39331 -35.8773 2
      vertex 7.95312 -36.1193 2
    endloop
  endfacet
  facet normal -0.684593 0.728925 0
    outer loop
      vertex 9.16587 -35.2382 2
      vertex 8.7997 -35.5821 24
      vertex 9.16587 -35.2382 24
    endloop
  endfacet
  facet normal -0.684593 0.728925 0
    outer loop
      vertex 8.7997 -35.5821 24
      vertex 9.16587 -35.2382 2
      vertex 8.7997 -35.5821 2
    endloop
  endfacet
  facet normal 0.684593 0.728925 -0
    outer loop
      vertex -8.7997 -35.5821 2
      vertex -9.16587 -35.2382 24
      vertex -8.7997 -35.5821 24
    endloop
  endfacet
  facet normal 0.684593 0.728925 0
    outer loop
      vertex -9.16587 -35.2382 24
      vertex -8.7997 -35.5821 2
      vertex -9.16587 -35.2382 2
    endloop
  endfacet
  facet normal 0.587708 0.809073 -0
    outer loop
      vertex -8.39331 -35.8773 2
      vertex -8.7997 -35.5821 24
      vertex -8.39331 -35.8773 24
    endloop
  endfacet
  facet normal 0.587708 0.809073 0
    outer loop
      vertex -8.7997 -35.5821 24
      vertex -8.39331 -35.8773 2
      vertex -8.7997 -35.5821 2
    endloop
  endfacet
  facet normal 0.368093 0.929789 -0
    outer loop
      vertex -7.48607 -36.3042 2
      vertex -7.95312 -36.1193 24
      vertex -7.48607 -36.3042 24
    endloop
  endfacet
  facet normal 0.368093 0.929789 0
    outer loop
      vertex -7.95312 -36.1193 24
      vertex -7.48607 -36.3042 2
      vertex -7.95312 -36.1193 2
    endloop
  endfacet
endsolid OpenSCAD_Model
