solid OpenSCAD_Model
  facet normal 0 0 1
    outer loop
      vertex 111.5 55 18
      vertex 112.5 55 18
      vertex 112.461 55.6267 18
    endloop
  endfacet
  facet normal 0 0 1
    outer loop
      vertex 112.5 55 18
      vertex 111.5 55 18
      vertex 112.5 -55 18
    endloop
  endfacet
  facet normal 0 0 1
    outer loop
      vertex 111.468 55.5013 18
      vertex 112.461 55.6267 18
      vertex 112.343 56.2435 18
    endloop
  endfacet
  facet normal 0 0 1
    outer loop
      vertex 111.5 -55 18
      vertex 112.5 -55 18
      vertex 111.5 55 18
    endloop
  endfacet
  facet normal 0 0 1
    outer loop
      vertex 111.374 55.9948 18
      vertex 112.343 56.2435 18
      vertex 112.149 56.8406 18
    endloop
  endfacet
  facet normal 0 0 1
    outer loop
      vertex 112.5 -55 18
      vertex 111.5 -55 18
      vertex 112.461 -55.6267 18
    endloop
  endfacet
  facet normal 0 0 1
    outer loop
      vertex 111.219 56.4725 18
      vertex 112.149 56.8406 18
      vertex 111.882 57.4088 18
    endloop
  endfacet
  facet normal -0 0 1
    outer loop
      vertex 111.468 -55.5013 18
      vertex 112.461 -55.6267 18
      vertex 111.5 -55 18
    endloop
  endfacet
  facet normal 0 0 1
    outer loop
      vertex 111.005 56.927 18
      vertex 111.882 57.4088 18
      vertex 111.545 57.9389 18
    endloop
  endfacet
  facet normal 0 0 1
    outer loop
      vertex 112.461 -55.6267 18
      vertex 111.468 -55.5013 18
      vertex 112.343 -56.2435 18
    endloop
  endfacet
  facet normal -0 0 1
    outer loop
      vertex 111.374 -55.9948 18
      vertex 112.343 -56.2435 18
      vertex 111.468 -55.5013 18
    endloop
  endfacet
  facet normal 0 0 1
    outer loop
      vertex 112.461 55.6267 18
      vertex 111.468 55.5013 18
      vertex 111.5 55 18
    endloop
  endfacet
  facet normal 0 0 1
    outer loop
      vertex 112.343 56.2435 18
      vertex 111.374 55.9948 18
      vertex 111.468 55.5013 18
    endloop
  endfacet
  facet normal 0 0 1
    outer loop
      vertex 112.149 56.8406 18
      vertex 111.219 56.4725 18
      vertex 111.374 55.9948 18
    endloop
  endfacet
  facet normal 0 0 1
    outer loop
      vertex 110.736 57.3511 18
      vertex 111.545 57.9389 18
      vertex 111.145 58.4227 18
    endloop
  endfacet
  facet normal 0 0 1
    outer loop
      vertex 111.882 57.4088 18
      vertex 111.005 56.927 18
      vertex 111.219 56.4725 18
    endloop
  endfacet
  facet normal 0 0 1
    outer loop
      vertex 111.545 57.9389 18
      vertex 110.736 57.3511 18
      vertex 111.005 56.927 18
    endloop
  endfacet
  facet normal 0 0 1
    outer loop
      vertex 110.416 57.7382 18
      vertex 111.145 58.4227 18
      vertex 110.687 58.8526 18
    endloop
  endfacet
  facet normal 0 0 1
    outer loop
      vertex 111.145 58.4227 18
      vertex 110.416 57.7382 18
      vertex 110.736 57.3511 18
    endloop
  endfacet
  facet normal 0 0 1
    outer loop
      vertex 110.05 58.0821 18
      vertex 110.687 58.8526 18
      vertex 110.179 59.2216 18
    endloop
  endfacet
  facet normal 0 0 1
    outer loop
      vertex 110.687 58.8526 18
      vertex 110.05 58.0821 18
      vertex 110.416 57.7382 18
    endloop
  endfacet
  facet normal 0 0 1
    outer loop
      vertex 110.179 59.2216 18
      vertex 109.643 58.3773 18
      vertex 110.05 58.0821 18
    endloop
  endfacet
  facet normal 0 0 1
    outer loop
      vertex 109.629 59.5241 18
      vertex 109.643 58.3773 18
      vertex 110.179 59.2216 18
    endloop
  endfacet
  facet normal 0 0 1
    outer loop
      vertex 109.629 59.5241 18
      vertex 109.203 58.6193 18
      vertex 109.643 58.3773 18
    endloop
  endfacet
  facet normal 0 0 1
    outer loop
      vertex 109.045 59.7553 18
      vertex 109.203 58.6193 18
      vertex 109.629 59.5241 18
    endloop
  endfacet
  facet normal 0 0 1
    outer loop
      vertex 109.045 59.7553 18
      vertex 108.736 58.8042 18
      vertex 109.203 58.6193 18
    endloop
  endfacet
  facet normal 0 0 1
    outer loop
      vertex 108.437 59.9114 18
      vertex 108.736 58.8042 18
      vertex 109.045 59.7553 18
    endloop
  endfacet
  facet normal 0 0 1
    outer loop
      vertex 108.437 59.9114 18
      vertex 108.25 58.9291 18
      vertex 108.736 58.8042 18
    endloop
  endfacet
  facet normal 0 0 1
    outer loop
      vertex 107.814 59.9901 18
      vertex 108.25 58.9291 18
      vertex 108.437 59.9114 18
    endloop
  endfacet
  facet normal 0 0 1
    outer loop
      vertex 107.814 59.9901 18
      vertex 107.751 58.9921 18
      vertex 108.25 58.9291 18
    endloop
  endfacet
  facet normal 0 0 1
    outer loop
      vertex 107.814 59.9901 18
      vertex -107.751 58.9921 18
      vertex 107.751 58.9921 18
    endloop
  endfacet
  facet normal -0 0 1
    outer loop
      vertex -107.814 59.9901 18
      vertex -107.751 58.9921 18
      vertex 107.814 59.9901 18
    endloop
  endfacet
  facet normal 0 0 1
    outer loop
      vertex -107.814 59.9901 18
      vertex -108.25 58.9291 18
      vertex -107.751 58.9921 18
    endloop
  endfacet
  facet normal -0 0 1
    outer loop
      vertex -108.437 59.9114 18
      vertex -108.25 58.9291 18
      vertex -107.814 59.9901 18
    endloop
  endfacet
  facet normal 0 0 1
    outer loop
      vertex -108.437 59.9114 18
      vertex -108.736 58.8042 18
      vertex -108.25 58.9291 18
    endloop
  endfacet
  facet normal -0 0 1
    outer loop
      vertex -109.045 59.7553 18
      vertex -108.736 58.8042 18
      vertex -108.437 59.9114 18
    endloop
  endfacet
  facet normal 0 0 1
    outer loop
      vertex -109.045 59.7553 18
      vertex -109.203 58.6193 18
      vertex -108.736 58.8042 18
    endloop
  endfacet
  facet normal -0 0 1
    outer loop
      vertex -109.629 59.5241 18
      vertex -109.203 58.6193 18
      vertex -109.045 59.7553 18
    endloop
  endfacet
  facet normal 0 0 1
    outer loop
      vertex -109.629 59.5241 18
      vertex -109.643 58.3773 18
      vertex -109.203 58.6193 18
    endloop
  endfacet
  facet normal -0 0 1
    outer loop
      vertex -110.179 59.2216 18
      vertex -109.643 58.3773 18
      vertex -109.629 59.5241 18
    endloop
  endfacet
  facet normal 0 0 1
    outer loop
      vertex -109.643 58.3773 18
      vertex -110.179 59.2216 18
      vertex -110.05 58.0821 18
    endloop
  endfacet
  facet normal -0 0 1
    outer loop
      vertex -110.687 58.8526 18
      vertex -110.05 58.0821 18
      vertex -110.179 59.2216 18
    endloop
  endfacet
  facet normal 0 0 1
    outer loop
      vertex -110.05 58.0821 18
      vertex -110.687 58.8526 18
      vertex -110.416 57.7382 18
    endloop
  endfacet
  facet normal -0 0 1
    outer loop
      vertex -111.145 58.4227 18
      vertex -110.416 57.7382 18
      vertex -110.687 58.8526 18
    endloop
  endfacet
  facet normal 0 0 1
    outer loop
      vertex -110.416 57.7382 18
      vertex -111.145 58.4227 18
      vertex -110.736 57.3511 18
    endloop
  endfacet
  facet normal -0 0 1
    outer loop
      vertex -111.545 57.9389 18
      vertex -110.736 57.3511 18
      vertex -111.145 58.4227 18
    endloop
  endfacet
  facet normal 0 0 1
    outer loop
      vertex -110.736 57.3511 18
      vertex -111.545 57.9389 18
      vertex -111.005 56.927 18
    endloop
  endfacet
  facet normal -0 0 1
    outer loop
      vertex -111.882 57.4088 18
      vertex -111.005 56.927 18
      vertex -111.545 57.9389 18
    endloop
  endfacet
  facet normal 0 0 1
    outer loop
      vertex -111.005 56.927 18
      vertex -111.882 57.4088 18
      vertex -111.219 56.4725 18
    endloop
  endfacet
  facet normal -0 0 1
    outer loop
      vertex -112.343 56.2435 18
      vertex -111.374 55.9948 18
      vertex -112.149 56.8406 18
    endloop
  endfacet
  facet normal 0 0 1
    outer loop
      vertex -111.219 56.4725 18
      vertex -112.149 56.8406 18
      vertex -111.374 55.9948 18
    endloop
  endfacet
  facet normal -0 0 1
    outer loop
      vertex -112.149 56.8406 18
      vertex -111.219 56.4725 18
      vertex -111.882 57.4088 18
    endloop
  endfacet
  facet normal 0 0 1
    outer loop
      vertex 112.343 -56.2435 18
      vertex 111.374 -55.9948 18
      vertex 112.149 -56.8406 18
    endloop
  endfacet
  facet normal -0 0 1
    outer loop
      vertex 111.219 -56.4725 18
      vertex 112.149 -56.8406 18
      vertex 111.374 -55.9948 18
    endloop
  endfacet
  facet normal 0 0 1
    outer loop
      vertex 112.149 -56.8406 18
      vertex 111.219 -56.4725 18
      vertex 111.882 -57.4088 18
    endloop
  endfacet
  facet normal -0 0 1
    outer loop
      vertex 111.005 -56.927 18
      vertex 111.882 -57.4088 18
      vertex 111.219 -56.4725 18
    endloop
  endfacet
  facet normal 0 0 1
    outer loop
      vertex 111.882 -57.4088 18
      vertex 111.005 -56.927 18
      vertex 111.545 -57.9389 18
    endloop
  endfacet
  facet normal -0 0 1
    outer loop
      vertex 110.736 -57.3511 18
      vertex 111.545 -57.9389 18
      vertex 111.005 -56.927 18
    endloop
  endfacet
  facet normal 0 0 1
    outer loop
      vertex 111.545 -57.9389 18
      vertex 110.736 -57.3511 18
      vertex 111.145 -58.4227 18
    endloop
  endfacet
  facet normal -0 0 1
    outer loop
      vertex 110.416 -57.7382 18
      vertex 111.145 -58.4227 18
      vertex 110.736 -57.3511 18
    endloop
  endfacet
  facet normal 0 0 1
    outer loop
      vertex 111.145 -58.4227 18
      vertex 110.416 -57.7382 18
      vertex 110.687 -58.8526 18
    endloop
  endfacet
  facet normal -0 0 1
    outer loop
      vertex 110.05 -58.0821 18
      vertex 110.687 -58.8526 18
      vertex 110.416 -57.7382 18
    endloop
  endfacet
  facet normal 0 0 1
    outer loop
      vertex 110.687 -58.8526 18
      vertex 110.05 -58.0821 18
      vertex 110.179 -59.2216 18
    endloop
  endfacet
  facet normal -0 0 1
    outer loop
      vertex 109.643 -58.3773 18
      vertex 110.179 -59.2216 18
      vertex 110.05 -58.0821 18
    endloop
  endfacet
  facet normal 0 0 1
    outer loop
      vertex 109.643 -58.3773 18
      vertex 109.629 -59.5241 18
      vertex 110.179 -59.2216 18
    endloop
  endfacet
  facet normal -0 0 1
    outer loop
      vertex 109.203 -58.6193 18
      vertex 109.629 -59.5241 18
      vertex 109.643 -58.3773 18
    endloop
  endfacet
  facet normal 0 0 1
    outer loop
      vertex 109.203 -58.6193 18
      vertex 109.045 -59.7553 18
      vertex 109.629 -59.5241 18
    endloop
  endfacet
  facet normal -0 0 1
    outer loop
      vertex 108.736 -58.8042 18
      vertex 109.045 -59.7553 18
      vertex 109.203 -58.6193 18
    endloop
  endfacet
  facet normal 0 0 1
    outer loop
      vertex 108.736 -58.8042 18
      vertex 108.437 -59.9114 18
      vertex 109.045 -59.7553 18
    endloop
  endfacet
  facet normal -0 0 1
    outer loop
      vertex 108.25 -58.9291 18
      vertex 108.437 -59.9114 18
      vertex 108.736 -58.8042 18
    endloop
  endfacet
  facet normal 0 0 1
    outer loop
      vertex 108.25 -58.9291 18
      vertex 107.814 -59.9901 18
      vertex 108.437 -59.9114 18
    endloop
  endfacet
  facet normal -0 0 1
    outer loop
      vertex 107.751 -58.9921 18
      vertex 107.814 -59.9901 18
      vertex 108.25 -58.9291 18
    endloop
  endfacet
  facet normal -0 0 1
    outer loop
      vertex -107.751 -58.9921 18
      vertex 107.814 -59.9901 18
      vertex 107.751 -58.9921 18
    endloop
  endfacet
  facet normal 0 0 1
    outer loop
      vertex -107.751 -58.9921 18
      vertex -107.814 -59.9901 18
      vertex 107.814 -59.9901 18
    endloop
  endfacet
  facet normal 0 0 1
    outer loop
      vertex -108.25 -58.9291 18
      vertex -107.814 -59.9901 18
      vertex -107.751 -58.9921 18
    endloop
  endfacet
  facet normal 0 0 1
    outer loop
      vertex -108.25 -58.9291 18
      vertex -108.437 -59.9114 18
      vertex -107.814 -59.9901 18
    endloop
  endfacet
  facet normal 0 0 1
    outer loop
      vertex -108.736 -58.8042 18
      vertex -108.437 -59.9114 18
      vertex -108.25 -58.9291 18
    endloop
  endfacet
  facet normal 0 0 1
    outer loop
      vertex -108.736 -58.8042 18
      vertex -109.045 -59.7553 18
      vertex -108.437 -59.9114 18
    endloop
  endfacet
  facet normal 0 0 1
    outer loop
      vertex -109.203 -58.6193 18
      vertex -109.045 -59.7553 18
      vertex -108.736 -58.8042 18
    endloop
  endfacet
  facet normal 0 0 1
    outer loop
      vertex -109.203 -58.6193 18
      vertex -109.629 -59.5241 18
      vertex -109.045 -59.7553 18
    endloop
  endfacet
  facet normal 0 0 1
    outer loop
      vertex -109.643 -58.3773 18
      vertex -109.629 -59.5241 18
      vertex -109.203 -58.6193 18
    endloop
  endfacet
  facet normal 0 0 1
    outer loop
      vertex -110.179 -59.2216 18
      vertex -109.643 -58.3773 18
      vertex -110.05 -58.0821 18
    endloop
  endfacet
  facet normal 0 0 1
    outer loop
      vertex -109.643 -58.3773 18
      vertex -110.179 -59.2216 18
      vertex -109.629 -59.5241 18
    endloop
  endfacet
  facet normal 0 0 1
    outer loop
      vertex -110.687 -58.8526 18
      vertex -110.05 -58.0821 18
      vertex -110.416 -57.7382 18
    endloop
  endfacet
  facet normal 0 0 1
    outer loop
      vertex -110.05 -58.0821 18
      vertex -110.687 -58.8526 18
      vertex -110.179 -59.2216 18
    endloop
  endfacet
  facet normal 0 0 1
    outer loop
      vertex -111.145 -58.4227 18
      vertex -110.416 -57.7382 18
      vertex -110.736 -57.3511 18
    endloop
  endfacet
  facet normal 0 0 1
    outer loop
      vertex -111.545 -57.9389 18
      vertex -110.736 -57.3511 18
      vertex -111.005 -56.927 18
    endloop
  endfacet
  facet normal 0 0 1
    outer loop
      vertex -110.416 -57.7382 18
      vertex -111.145 -58.4227 18
      vertex -110.687 -58.8526 18
    endloop
  endfacet
  facet normal 0 0 1
    outer loop
      vertex -111.882 -57.4088 18
      vertex -111.005 -56.927 18
      vertex -111.219 -56.4725 18
    endloop
  endfacet
  facet normal 0 0 1
    outer loop
      vertex -112.149 -56.8406 18
      vertex -111.219 -56.4725 18
      vertex -111.374 -55.9948 18
    endloop
  endfacet
  facet normal 0 0 1
    outer loop
      vertex -112.343 -56.2435 18
      vertex -111.374 -55.9948 18
      vertex -111.468 -55.5013 18
    endloop
  endfacet
  facet normal 0 0 1
    outer loop
      vertex -110.736 -57.3511 18
      vertex -111.545 -57.9389 18
      vertex -111.145 -58.4227 18
    endloop
  endfacet
  facet normal 0 0 1
    outer loop
      vertex -112.461 -55.6267 18
      vertex -111.468 -55.5013 18
      vertex -111.5 -55 18
    endloop
  endfacet
  facet normal 0 0 1
    outer loop
      vertex -111.5 55 18
      vertex -112.5 55 18
      vertex -111.5 -55 18
    endloop
  endfacet
  facet normal 0 0 1
    outer loop
      vertex -111.374 55.9948 18
      vertex -112.343 56.2435 18
      vertex -111.468 55.5013 18
    endloop
  endfacet
  facet normal 0 0 1
    outer loop
      vertex -112.5 -55 18
      vertex -111.5 -55 18
      vertex -112.5 55 18
    endloop
  endfacet
  facet normal -0 0 1
    outer loop
      vertex -112.461 55.6267 18
      vertex -111.468 55.5013 18
      vertex -112.343 56.2435 18
    endloop
  endfacet
  facet normal 0 -0 1
    outer loop
      vertex -112.461 -55.6267 18
      vertex -111.5 -55 18
      vertex -112.5 -55 18
    endloop
  endfacet
  facet normal 0 0 1
    outer loop
      vertex -111.468 55.5013 18
      vertex -112.461 55.6267 18
      vertex -111.5 55 18
    endloop
  endfacet
  facet normal 0 0 1
    outer loop
      vertex -111.005 -56.927 18
      vertex -111.882 -57.4088 18
      vertex -111.545 -57.9389 18
    endloop
  endfacet
  facet normal 0 0 1
    outer loop
      vertex -111.5 55 18
      vertex -112.461 55.6267 18
      vertex -112.5 55 18
    endloop
  endfacet
  facet normal 0 0 1
    outer loop
      vertex -111.219 -56.4725 18
      vertex -112.149 -56.8406 18
      vertex -111.882 -57.4088 18
    endloop
  endfacet
  facet normal 0 0 1
    outer loop
      vertex -111.374 -55.9948 18
      vertex -112.343 -56.2435 18
      vertex -112.149 -56.8406 18
    endloop
  endfacet
  facet normal 0 0 1
    outer loop
      vertex -111.468 -55.5013 18
      vertex -112.461 -55.6267 18
      vertex -112.343 -56.2435 18
    endloop
  endfacet
  facet normal 0 1 -0
    outer loop
      vertex 107.814 59.9901 0
      vertex -107.814 59.9901 18
      vertex 107.814 59.9901 18
    endloop
  endfacet
  facet normal 0 1 0
    outer loop
      vertex -107.814 59.9901 18
      vertex 107.814 59.9901 0
      vertex -107.814 59.9901 0
    endloop
  endfacet
  facet normal 0.684386 0.72912 -0
    outer loop
      vertex 111.145 58.4227 0
      vertex 110.687 58.8526 18
      vertex 111.145 58.4227 18
    endloop
  endfacet
  facet normal 0.684386 0.72912 0
    outer loop
      vertex 110.687 58.8526 18
      vertex 111.145 58.4227 0
      vertex 110.687 58.8526 0
    endloop
  endfacet
  facet normal -0.125328 0.992115 0
    outer loop
      vertex -107.814 59.9901 0
      vertex -108.437 59.9114 18
      vertex -107.814 59.9901 18
    endloop
  endfacet
  facet normal -0.125328 0.992115 0
    outer loop
      vertex -108.437 59.9114 18
      vertex -107.814 59.9901 0
      vertex -108.437 59.9114 0
    endloop
  endfacet
  facet normal 0 -1 0
    outer loop
      vertex -107.814 -59.9901 0
      vertex 107.814 -59.9901 18
      vertex -107.814 -59.9901 18
    endloop
  endfacet
  facet normal 0 -1 -0
    outer loop
      vertex 107.814 -59.9901 18
      vertex -107.814 -59.9901 0
      vertex 107.814 -59.9901 0
    endloop
  endfacet
  facet normal 0.125328 0.992115 -0
    outer loop
      vertex 108.437 59.9114 0
      vertex 107.814 59.9901 18
      vertex 108.437 59.9114 18
    endloop
  endfacet
  facet normal 0.125328 0.992115 0
    outer loop
      vertex 107.814 59.9901 18
      vertex 108.437 59.9114 0
      vertex 107.814 59.9901 0
    endloop
  endfacet
  facet normal 0.998069 0.0621106 0
    outer loop
      vertex 112.5 55 18
      vertex 112.461 55.6267 0
      vertex 112.461 55.6267 18
    endloop
  endfacet
  facet normal 0.998069 0.0621106 0
    outer loop
      vertex 112.461 55.6267 0
      vertex 112.5 55 18
      vertex 112.5 55 0
    endloop
  endfacet
  facet normal 1 -0 0
    outer loop
      vertex 112.5 -55 18
      vertex 112.5 55 0
      vertex 112.5 55 18
    endloop
  endfacet
  facet normal 1 0 0
    outer loop
      vertex 112.5 55 0
      vertex 112.5 -55 18
      vertex 112.5 -55 0
    endloop
  endfacet
  facet normal -0.368094 0.929788 0
    outer loop
      vertex -109.045 59.7553 0
      vertex -109.629 59.5241 18
      vertex -109.045 59.7553 18
    endloop
  endfacet
  facet normal -0.368094 0.929788 0
    outer loop
      vertex -109.629 59.5241 18
      vertex -109.045 59.7553 0
      vertex -109.629 59.5241 0
    endloop
  endfacet
  facet normal 0.951061 0.309003 0
    outer loop
      vertex 112.343 56.2435 18
      vertex 112.149 56.8406 0
      vertex 112.149 56.8406 18
    endloop
  endfacet
  facet normal 0.951061 0.309003 0
    outer loop
      vertex 112.149 56.8406 0
      vertex 112.343 56.2435 18
      vertex 112.343 56.2435 0
    endloop
  endfacet
  facet normal -0.684386 0.72912 0
    outer loop
      vertex -110.687 58.8526 0
      vertex -111.145 58.4227 18
      vertex -110.687 58.8526 18
    endloop
  endfacet
  facet normal -0.684386 0.72912 0
    outer loop
      vertex -111.145 58.4227 18
      vertex -110.687 58.8526 0
      vertex -111.145 58.4227 0
    endloop
  endfacet
  facet normal -0.368094 -0.929788 0
    outer loop
      vertex -109.629 -59.5241 0
      vertex -109.045 -59.7553 18
      vertex -109.629 -59.5241 18
    endloop
  endfacet
  facet normal -0.368094 -0.929788 -0
    outer loop
      vertex -109.045 -59.7553 18
      vertex -109.629 -59.5241 0
      vertex -109.045 -59.7553 0
    endloop
  endfacet
  facet normal -1 0 0
    outer loop
      vertex -112.5 -55 0
      vertex -112.5 55 18
      vertex -112.5 55 0
    endloop
  endfacet
  facet normal -1 -0 0
    outer loop
      vertex -112.5 55 18
      vertex -112.5 -55 0
      vertex -112.5 -55 18
    endloop
  endfacet
  facet normal -0.998069 0.0621106 0
    outer loop
      vertex -112.5 55 0
      vertex -112.461 55.6267 18
      vertex -112.461 55.6267 0
    endloop
  endfacet
  facet normal -0.998069 0.0621106 0
    outer loop
      vertex -112.461 55.6267 18
      vertex -112.5 55 0
      vertex -112.5 55 18
    endloop
  endfacet
  facet normal -0.951061 0.309003 0
    outer loop
      vertex -112.343 56.2435 0
      vertex -112.149 56.8406 18
      vertex -112.149 56.8406 0
    endloop
  endfacet
  facet normal -0.951061 0.309003 0
    outer loop
      vertex -112.149 56.8406 18
      vertex -112.343 56.2435 0
      vertex -112.343 56.2435 18
    endloop
  endfacet
  facet normal 0.770696 0.637202 0
    outer loop
      vertex 111.545 57.9389 18
      vertex 111.145 58.4227 0
      vertex 111.145 58.4227 18
    endloop
  endfacet
  facet normal 0.770696 0.637202 0
    outer loop
      vertex 111.145 58.4227 0
      vertex 111.545 57.9389 18
      vertex 111.545 57.9389 0
    endloop
  endfacet
  facet normal 0.982188 0.187902 0
    outer loop
      vertex 112.461 55.6267 18
      vertex 112.343 56.2435 0
      vertex 112.343 56.2435 18
    endloop
  endfacet
  facet normal 0.982188 0.187902 0
    outer loop
      vertex 112.343 56.2435 0
      vertex 112.461 55.6267 18
      vertex 112.461 55.6267 0
    endloop
  endfacet
  facet normal -0.248678 0.968586 0
    outer loop
      vertex -108.437 59.9114 0
      vertex -109.045 59.7553 18
      vertex -108.437 59.9114 18
    endloop
  endfacet
  facet normal -0.248678 0.968586 0
    outer loop
      vertex -109.045 59.7553 18
      vertex -108.437 59.9114 0
      vertex -109.045 59.7553 0
    endloop
  endfacet
  facet normal 0.770696 -0.637202 0
    outer loop
      vertex 111.145 -58.4227 18
      vertex 111.545 -57.9389 0
      vertex 111.545 -57.9389 18
    endloop
  endfacet
  facet normal 0.770696 -0.637202 0
    outer loop
      vertex 111.545 -57.9389 0
      vertex 111.145 -58.4227 18
      vertex 111.145 -58.4227 0
    endloop
  endfacet
  facet normal 0.951061 -0.309003 0
    outer loop
      vertex 112.149 -56.8406 18
      vertex 112.343 -56.2435 0
      vertex 112.343 -56.2435 18
    endloop
  endfacet
  facet normal 0.951061 -0.309003 0
    outer loop
      vertex 112.343 -56.2435 0
      vertex 112.149 -56.8406 18
      vertex 112.149 -56.8406 0
    endloop
  endfacet
  facet normal -0.125328 -0.992115 0
    outer loop
      vertex -108.437 -59.9114 0
      vertex -107.814 -59.9901 18
      vertex -108.437 -59.9114 18
    endloop
  endfacet
  facet normal -0.125328 -0.992115 -0
    outer loop
      vertex -107.814 -59.9901 18
      vertex -108.437 -59.9114 0
      vertex -107.814 -59.9901 0
    endloop
  endfacet
  facet normal -0.905057 -0.425291 0
    outer loop
      vertex -111.882 -57.4088 0
      vertex -112.149 -56.8406 18
      vertex -112.149 -56.8406 0
    endloop
  endfacet
  facet normal -0.905057 -0.425291 0
    outer loop
      vertex -112.149 -56.8406 18
      vertex -111.882 -57.4088 0
      vertex -111.882 -57.4088 18
    endloop
  endfacet
  facet normal -0.684386 -0.72912 0
    outer loop
      vertex -111.145 -58.4227 0
      vertex -110.687 -58.8526 18
      vertex -111.145 -58.4227 18
    endloop
  endfacet
  facet normal -0.684386 -0.72912 -0
    outer loop
      vertex -110.687 -58.8526 18
      vertex -111.145 -58.4227 0
      vertex -110.687 -58.8526 0
    endloop
  endfacet
  facet normal -0.770696 -0.637202 0
    outer loop
      vertex -111.145 -58.4227 0
      vertex -111.545 -57.9389 18
      vertex -111.545 -57.9389 0
    endloop
  endfacet
  facet normal -0.770696 -0.637202 0
    outer loop
      vertex -111.545 -57.9389 18
      vertex -111.145 -58.4227 0
      vertex -111.145 -58.4227 18
    endloop
  endfacet
  facet normal -0.248678 -0.968586 0
    outer loop
      vertex -109.045 -59.7553 0
      vertex -108.437 -59.9114 18
      vertex -109.045 -59.7553 18
    endloop
  endfacet
  facet normal -0.248678 -0.968586 -0
    outer loop
      vertex -108.437 -59.9114 18
      vertex -109.045 -59.7553 0
      vertex -108.437 -59.9114 0
    endloop
  endfacet
  facet normal 0.248678 0.968586 -0
    outer loop
      vertex 109.045 59.7553 0
      vertex 108.437 59.9114 18
      vertex 109.045 59.7553 18
    endloop
  endfacet
  facet normal 0.248678 0.968586 0
    outer loop
      vertex 108.437 59.9114 18
      vertex 109.045 59.7553 0
      vertex 108.437 59.9114 0
    endloop
  endfacet
  facet normal 0.368094 0.929788 -0
    outer loop
      vertex 109.629 59.5241 0
      vertex 109.045 59.7553 18
      vertex 109.629 59.5241 18
    endloop
  endfacet
  facet normal 0.368094 0.929788 0
    outer loop
      vertex 109.045 59.7553 18
      vertex 109.629 59.5241 0
      vertex 109.045 59.7553 0
    endloop
  endfacet
  facet normal 0.843904 0.536494 0
    outer loop
      vertex 111.882 57.4088 18
      vertex 111.545 57.9389 0
      vertex 111.545 57.9389 18
    endloop
  endfacet
  facet normal 0.843904 0.536494 0
    outer loop
      vertex 111.545 57.9389 0
      vertex 111.882 57.4088 18
      vertex 111.882 57.4088 0
    endloop
  endfacet
  facet normal 0.905057 0.425291 0
    outer loop
      vertex 112.149 56.8406 18
      vertex 111.882 57.4088 0
      vertex 111.882 57.4088 18
    endloop
  endfacet
  facet normal 0.905057 0.425291 0
    outer loop
      vertex 111.882 57.4088 0
      vertex 112.149 56.8406 18
      vertex 112.149 56.8406 0
    endloop
  endfacet
  facet normal 0.982188 -0.187902 0
    outer loop
      vertex 112.343 -56.2435 18
      vertex 112.461 -55.6267 0
      vertex 112.461 -55.6267 18
    endloop
  endfacet
  facet normal 0.982188 -0.187902 0
    outer loop
      vertex 112.461 -55.6267 0
      vertex 112.343 -56.2435 18
      vertex 112.343 -56.2435 0
    endloop
  endfacet
  facet normal 0.481919 -0.876216 0
    outer loop
      vertex 109.629 -59.5241 0
      vertex 110.179 -59.2216 18
      vertex 109.629 -59.5241 18
    endloop
  endfacet
  facet normal 0.481919 -0.876216 0
    outer loop
      vertex 110.179 -59.2216 18
      vertex 109.629 -59.5241 0
      vertex 110.179 -59.2216 0
    endloop
  endfacet
  facet normal 0.684386 -0.72912 0
    outer loop
      vertex 110.687 -58.8526 0
      vertex 111.145 -58.4227 18
      vertex 110.687 -58.8526 18
    endloop
  endfacet
  facet normal 0.684386 -0.72912 0
    outer loop
      vertex 111.145 -58.4227 18
      vertex 110.687 -58.8526 0
      vertex 111.145 -58.4227 0
    endloop
  endfacet
  facet normal -0.951061 -0.309003 0
    outer loop
      vertex -112.149 -56.8406 0
      vertex -112.343 -56.2435 18
      vertex -112.343 -56.2435 0
    endloop
  endfacet
  facet normal -0.951061 -0.309003 0
    outer loop
      vertex -112.343 -56.2435 18
      vertex -112.149 -56.8406 0
      vertex -112.149 -56.8406 18
    endloop
  endfacet
  facet normal -0.587698 -0.80908 0
    outer loop
      vertex -110.687 -58.8526 0
      vertex -110.179 -59.2216 18
      vertex -110.687 -58.8526 18
    endloop
  endfacet
  facet normal -0.587698 -0.80908 -0
    outer loop
      vertex -110.179 -59.2216 18
      vertex -110.687 -58.8526 0
      vertex -110.179 -59.2216 0
    endloop
  endfacet
  facet normal 0 0 -1
    outer loop
      vertex 107.814 -59.9901 0
      vertex 112.5 -55 0
      vertex 112.461 -55.6267 0
    endloop
  endfacet
  facet normal -0 0 -1
    outer loop
      vertex 112.5 -55 0
      vertex 107.814 -59.9901 0
      vertex 112.5 55 0
    endloop
  endfacet
  facet normal 0 0 -1
    outer loop
      vertex 107.814 -59.9901 0
      vertex 112.461 -55.6267 0
      vertex 112.343 -56.2435 0
    endloop
  endfacet
  facet normal 0 0 -1
    outer loop
      vertex 107.814 59.9901 0
      vertex 112.5 55 0
      vertex 107.814 -59.9901 0
    endloop
  endfacet
  facet normal 0 0 -1
    outer loop
      vertex 107.814 -59.9901 0
      vertex 112.343 -56.2435 0
      vertex 112.149 -56.8406 0
    endloop
  endfacet
  facet normal 0 0 -1
    outer loop
      vertex 112.5 55 0
      vertex 107.814 59.9901 0
      vertex 112.461 55.6267 0
    endloop
  endfacet
  facet normal 0 0 -1
    outer loop
      vertex 107.814 -59.9901 0
      vertex 112.149 -56.8406 0
      vertex 111.882 -57.4088 0
    endloop
  endfacet
  facet normal 0 0 -1
    outer loop
      vertex 112.461 55.6267 0
      vertex 107.814 59.9901 0
      vertex 112.343 56.2435 0
    endloop
  endfacet
  facet normal 0 0 -1
    outer loop
      vertex 107.814 -59.9901 0
      vertex 111.882 -57.4088 0
      vertex 111.545 -57.9389 0
    endloop
  endfacet
  facet normal 0 0 -1
    outer loop
      vertex 112.343 56.2435 0
      vertex 107.814 59.9901 0
      vertex 112.149 56.8406 0
    endloop
  endfacet
  facet normal 0 0 -1
    outer loop
      vertex 107.814 -59.9901 0
      vertex 111.545 -57.9389 0
      vertex 111.145 -58.4227 0
    endloop
  endfacet
  facet normal 0 0 -1
    outer loop
      vertex 112.149 56.8406 0
      vertex 107.814 59.9901 0
      vertex 111.882 57.4088 0
    endloop
  endfacet
  facet normal 0 0 -1
    outer loop
      vertex 107.814 -59.9901 0
      vertex 111.145 -58.4227 0
      vertex 110.687 -58.8526 0
    endloop
  endfacet
  facet normal 0 0 -1
    outer loop
      vertex 111.882 57.4088 0
      vertex 107.814 59.9901 0
      vertex 111.545 57.9389 0
    endloop
  endfacet
  facet normal 0 0 -1
    outer loop
      vertex 107.814 -59.9901 0
      vertex 110.687 -58.8526 0
      vertex 110.179 -59.2216 0
    endloop
  endfacet
  facet normal 0 0 -1
    outer loop
      vertex 111.545 57.9389 0
      vertex 107.814 59.9901 0
      vertex 111.145 58.4227 0
    endloop
  endfacet
  facet normal 0 0 -1
    outer loop
      vertex 107.814 -59.9901 0
      vertex 110.179 -59.2216 0
      vertex 109.629 -59.5241 0
    endloop
  endfacet
  facet normal 0 0 -1
    outer loop
      vertex 111.145 58.4227 0
      vertex 107.814 59.9901 0
      vertex 110.687 58.8526 0
    endloop
  endfacet
  facet normal 0 0 -1
    outer loop
      vertex 107.814 -59.9901 0
      vertex 109.629 -59.5241 0
      vertex 109.045 -59.7553 0
    endloop
  endfacet
  facet normal 0 0 -1
    outer loop
      vertex 110.687 58.8526 0
      vertex 107.814 59.9901 0
      vertex 110.179 59.2216 0
    endloop
  endfacet
  facet normal 0 0 -1
    outer loop
      vertex 107.814 -59.9901 0
      vertex 109.045 -59.7553 0
      vertex 108.437 -59.9114 0
    endloop
  endfacet
  facet normal 0 0 -1
    outer loop
      vertex 110.179 59.2216 0
      vertex 107.814 59.9901 0
      vertex 109.629 59.5241 0
    endloop
  endfacet
  facet normal 0 0 -1
    outer loop
      vertex 109.629 59.5241 0
      vertex 107.814 59.9901 0
      vertex 109.045 59.7553 0
    endloop
  endfacet
  facet normal 0 0 -1
    outer loop
      vertex 109.045 59.7553 0
      vertex 107.814 59.9901 0
      vertex 108.437 59.9114 0
    endloop
  endfacet
  facet normal 0 0 -1
    outer loop
      vertex -107.814 -59.9901 0
      vertex 107.814 59.9901 0
      vertex 107.814 -59.9901 0
    endloop
  endfacet
  facet normal 0 0 -1
    outer loop
      vertex -107.814 -59.9901 0
      vertex -107.814 59.9901 0
      vertex 107.814 59.9901 0
    endloop
  endfacet
  facet normal 0 0 -1
    outer loop
      vertex -112.5 -55 0
      vertex -107.814 -59.9901 0
      vertex -108.437 -59.9114 0
    endloop
  endfacet
  facet normal 0 0 -1
    outer loop
      vertex -107.814 -59.9901 0
      vertex -112.5 -55 0
      vertex -107.814 59.9901 0
    endloop
  endfacet
  facet normal 0 0 -1
    outer loop
      vertex -112.5 -55 0
      vertex -108.437 -59.9114 0
      vertex -109.045 -59.7553 0
    endloop
  endfacet
  facet normal 0 0 -1
    outer loop
      vertex -112.5 55 0
      vertex -107.814 59.9901 0
      vertex -112.5 -55 0
    endloop
  endfacet
  facet normal 0 0 -1
    outer loop
      vertex -112.5 -55 0
      vertex -109.045 -59.7553 0
      vertex -109.629 -59.5241 0
    endloop
  endfacet
  facet normal 0 0 -1
    outer loop
      vertex -107.814 59.9901 0
      vertex -112.5 55 0
      vertex -108.437 59.9114 0
    endloop
  endfacet
  facet normal 0 0 -1
    outer loop
      vertex -112.5 -55 0
      vertex -109.629 -59.5241 0
      vertex -110.179 -59.2216 0
    endloop
  endfacet
  facet normal 0 0 -1
    outer loop
      vertex -108.437 59.9114 0
      vertex -112.5 55 0
      vertex -109.045 59.7553 0
    endloop
  endfacet
  facet normal 0 0 -1
    outer loop
      vertex -112.5 -55 0
      vertex -110.179 -59.2216 0
      vertex -110.687 -58.8526 0
    endloop
  endfacet
  facet normal 0 0 -1
    outer loop
      vertex -109.045 59.7553 0
      vertex -112.5 55 0
      vertex -109.629 59.5241 0
    endloop
  endfacet
  facet normal 0 0 -1
    outer loop
      vertex -112.5 -55 0
      vertex -110.687 -58.8526 0
      vertex -111.145 -58.4227 0
    endloop
  endfacet
  facet normal 0 0 -1
    outer loop
      vertex -109.629 59.5241 0
      vertex -112.5 55 0
      vertex -110.179 59.2216 0
    endloop
  endfacet
  facet normal 0 0 -1
    outer loop
      vertex -112.5 -55 0
      vertex -111.145 -58.4227 0
      vertex -111.545 -57.9389 0
    endloop
  endfacet
  facet normal 0 0 -1
    outer loop
      vertex -110.179 59.2216 0
      vertex -112.5 55 0
      vertex -110.687 58.8526 0
    endloop
  endfacet
  facet normal 0 0 -1
    outer loop
      vertex -112.5 -55 0
      vertex -111.545 -57.9389 0
      vertex -111.882 -57.4088 0
    endloop
  endfacet
  facet normal 0 0 -1
    outer loop
      vertex -110.687 58.8526 0
      vertex -112.5 55 0
      vertex -111.145 58.4227 0
    endloop
  endfacet
  facet normal 0 0 -1
    outer loop
      vertex -112.5 -55 0
      vertex -111.882 -57.4088 0
      vertex -112.149 -56.8406 0
    endloop
  endfacet
  facet normal 0 0 -1
    outer loop
      vertex -111.145 58.4227 0
      vertex -112.5 55 0
      vertex -111.545 57.9389 0
    endloop
  endfacet
  facet normal 0 0 -1
    outer loop
      vertex -112.5 -55 0
      vertex -112.149 -56.8406 0
      vertex -112.343 -56.2435 0
    endloop
  endfacet
  facet normal 0 0 -1
    outer loop
      vertex -111.545 57.9389 0
      vertex -112.5 55 0
      vertex -111.882 57.4088 0
    endloop
  endfacet
  facet normal 0 0 -1
    outer loop
      vertex -112.5 -55 0
      vertex -112.343 -56.2435 0
      vertex -112.461 -55.6267 0
    endloop
  endfacet
  facet normal 0 0 -1
    outer loop
      vertex -111.882 57.4088 0
      vertex -112.5 55 0
      vertex -112.149 56.8406 0
    endloop
  endfacet
  facet normal 0 0 -1
    outer loop
      vertex -112.149 56.8406 0
      vertex -112.5 55 0
      vertex -112.343 56.2435 0
    endloop
  endfacet
  facet normal 0 0 -1
    outer loop
      vertex -112.343 56.2435 0
      vertex -112.5 55 0
      vertex -112.461 55.6267 0
    endloop
  endfacet
  facet normal -0.905057 0.425291 0
    outer loop
      vertex -112.149 56.8406 0
      vertex -111.882 57.4088 18
      vertex -111.882 57.4088 0
    endloop
  endfacet
  facet normal -0.905057 0.425291 0
    outer loop
      vertex -111.882 57.4088 18
      vertex -112.149 56.8406 0
      vertex -112.149 56.8406 18
    endloop
  endfacet
  facet normal -0.770696 0.637202 0
    outer loop
      vertex -111.545 57.9389 0
      vertex -111.145 58.4227 18
      vertex -111.145 58.4227 0
    endloop
  endfacet
  facet normal -0.770696 0.637202 0
    outer loop
      vertex -111.145 58.4227 18
      vertex -111.545 57.9389 0
      vertex -111.545 57.9389 18
    endloop
  endfacet
  facet normal 0.481919 0.876216 -0
    outer loop
      vertex 110.179 59.2216 0
      vertex 109.629 59.5241 18
      vertex 110.179 59.2216 18
    endloop
  endfacet
  facet normal 0.481919 0.876216 0
    outer loop
      vertex 109.629 59.5241 18
      vertex 110.179 59.2216 0
      vertex 109.629 59.5241 0
    endloop
  endfacet
  facet normal 0.587698 0.80908 -0
    outer loop
      vertex 110.687 58.8526 0
      vertex 110.179 59.2216 18
      vertex 110.687 58.8526 18
    endloop
  endfacet
  facet normal 0.587698 0.80908 0
    outer loop
      vertex 110.179 59.2216 18
      vertex 110.687 58.8526 0
      vertex 110.179 59.2216 0
    endloop
  endfacet
  facet normal 0.905057 -0.425291 0
    outer loop
      vertex 111.882 -57.4088 18
      vertex 112.149 -56.8406 0
      vertex 112.149 -56.8406 18
    endloop
  endfacet
  facet normal 0.905057 -0.425291 0
    outer loop
      vertex 112.149 -56.8406 0
      vertex 111.882 -57.4088 18
      vertex 111.882 -57.4088 0
    endloop
  endfacet
  facet normal 0.843904 -0.536494 0
    outer loop
      vertex 111.545 -57.9389 18
      vertex 111.882 -57.4088 0
      vertex 111.882 -57.4088 18
    endloop
  endfacet
  facet normal 0.843904 -0.536494 0
    outer loop
      vertex 111.882 -57.4088 0
      vertex 111.545 -57.9389 18
      vertex 111.545 -57.9389 0
    endloop
  endfacet
  facet normal 0.998069 -0.0621106 0
    outer loop
      vertex 112.461 -55.6267 18
      vertex 112.5 -55 0
      vertex 112.5 -55 18
    endloop
  endfacet
  facet normal 0.998069 -0.0621106 0
    outer loop
      vertex 112.5 -55 0
      vertex 112.461 -55.6267 18
      vertex 112.461 -55.6267 0
    endloop
  endfacet
  facet normal 0.368094 -0.929788 0
    outer loop
      vertex 109.045 -59.7553 0
      vertex 109.629 -59.5241 18
      vertex 109.045 -59.7553 18
    endloop
  endfacet
  facet normal 0.368094 -0.929788 0
    outer loop
      vertex 109.629 -59.5241 18
      vertex 109.045 -59.7553 0
      vertex 109.629 -59.5241 0
    endloop
  endfacet
  facet normal -0.481919 -0.876216 0
    outer loop
      vertex -110.179 -59.2216 0
      vertex -109.629 -59.5241 18
      vertex -110.179 -59.2216 18
    endloop
  endfacet
  facet normal -0.481919 -0.876216 -0
    outer loop
      vertex -109.629 -59.5241 18
      vertex -110.179 -59.2216 0
      vertex -109.629 -59.5241 0
    endloop
  endfacet
  facet normal -0.843904 -0.536494 0
    outer loop
      vertex -111.545 -57.9389 0
      vertex -111.882 -57.4088 18
      vertex -111.882 -57.4088 0
    endloop
  endfacet
  facet normal -0.843904 -0.536494 0
    outer loop
      vertex -111.882 -57.4088 18
      vertex -111.545 -57.9389 0
      vertex -111.545 -57.9389 18
    endloop
  endfacet
  facet normal -0.982188 -0.187902 0
    outer loop
      vertex -112.343 -56.2435 0
      vertex -112.461 -55.6267 18
      vertex -112.461 -55.6267 0
    endloop
  endfacet
  facet normal -0.982188 -0.187902 0
    outer loop
      vertex -112.461 -55.6267 18
      vertex -112.343 -56.2435 0
      vertex -112.343 -56.2435 18
    endloop
  endfacet
  facet normal -0.998069 -0.0621106 0
    outer loop
      vertex -112.461 -55.6267 0
      vertex -112.5 -55 18
      vertex -112.5 -55 0
    endloop
  endfacet
  facet normal -0.998069 -0.0621106 0
    outer loop
      vertex -112.5 -55 18
      vertex -112.461 -55.6267 0
      vertex -112.461 -55.6267 18
    endloop
  endfacet
  facet normal -0.481919 0.876216 0
    outer loop
      vertex -109.629 59.5241 0
      vertex -110.179 59.2216 18
      vertex -109.629 59.5241 18
    endloop
  endfacet
  facet normal -0.481919 0.876216 0
    outer loop
      vertex -110.179 59.2216 18
      vertex -109.629 59.5241 0
      vertex -110.179 59.2216 0
    endloop
  endfacet
  facet normal -0.587698 0.80908 0
    outer loop
      vertex -110.179 59.2216 0
      vertex -110.687 58.8526 18
      vertex -110.179 59.2216 18
    endloop
  endfacet
  facet normal -0.587698 0.80908 0
    outer loop
      vertex -110.687 58.8526 18
      vertex -110.179 59.2216 0
      vertex -110.687 58.8526 0
    endloop
  endfacet
  facet normal 0.587698 -0.80908 0
    outer loop
      vertex 110.179 -59.2216 0
      vertex 110.687 -58.8526 18
      vertex 110.179 -59.2216 18
    endloop
  endfacet
  facet normal 0.587698 -0.80908 0
    outer loop
      vertex 110.687 -58.8526 18
      vertex 110.179 -59.2216 0
      vertex 110.687 -58.8526 0
    endloop
  endfacet
  facet normal 0.248678 -0.968586 0
    outer loop
      vertex 108.437 -59.9114 0
      vertex 109.045 -59.7553 18
      vertex 108.437 -59.9114 18
    endloop
  endfacet
  facet normal 0.248678 -0.968586 0
    outer loop
      vertex 109.045 -59.7553 18
      vertex 108.437 -59.9114 0
      vertex 109.045 -59.7553 0
    endloop
  endfacet
  facet normal 0.125328 -0.992115 0
    outer loop
      vertex 107.814 -59.9901 0
      vertex 108.437 -59.9114 18
      vertex 107.814 -59.9901 18
    endloop
  endfacet
  facet normal 0.125328 -0.992115 0
    outer loop
      vertex 108.437 -59.9114 18
      vertex 107.814 -59.9901 0
      vertex 108.437 -59.9114 0
    endloop
  endfacet
  facet normal -0.843904 0.536494 0
    outer loop
      vertex -111.882 57.4088 0
      vertex -111.545 57.9389 18
      vertex -111.545 57.9389 0
    endloop
  endfacet
  facet normal -0.843904 0.536494 0
    outer loop
      vertex -111.545 57.9389 18
      vertex -111.882 57.4088 0
      vertex -111.882 57.4088 18
    endloop
  endfacet
  facet normal -0.982188 0.187902 0
    outer loop
      vertex -112.461 55.6267 0
      vertex -112.343 56.2435 18
      vertex -112.343 56.2435 0
    endloop
  endfacet
  facet normal -0.982188 0.187902 0
    outer loop
      vertex -112.343 56.2435 18
      vertex -112.461 55.6267 0
      vertex -112.461 55.6267 18
    endloop
  endfacet
  facet normal -0.125258 -0.992124 0
    outer loop
      vertex 107.751 58.9921 2
      vertex 108.25 58.9291 18
      vertex 107.751 58.9921 18
    endloop
  endfacet
  facet normal -0.125258 -0.992124 -0
    outer loop
      vertex 108.25 58.9291 18
      vertex 107.751 58.9921 2
      vertex 108.25 58.9291 2
    endloop
  endfacet
  facet normal 0 -1 0
    outer loop
      vertex -107.751 58.9921 2
      vertex 107.751 58.9921 18
      vertex -107.751 58.9921 18
    endloop
  endfacet
  facet normal 0 -1 -0
    outer loop
      vertex 107.751 58.9921 18
      vertex -107.751 58.9921 2
      vertex 107.751 58.9921 2
    endloop
  endfacet
  facet normal 0.125258 -0.992124 0
    outer loop
      vertex -108.25 58.9291 2
      vertex -107.751 58.9921 18
      vertex -108.25 58.9291 18
    endloop
  endfacet
  facet normal 0.125258 -0.992124 0
    outer loop
      vertex -107.751 58.9921 18
      vertex -108.25 58.9291 2
      vertex -107.751 58.9921 2
    endloop
  endfacet
  facet normal -0.770745 -0.637144 0
    outer loop
      vertex 110.736 57.3511 2
      vertex 110.416 57.7382 18
      vertex 110.416 57.7382 2
    endloop
  endfacet
  facet normal -0.770745 -0.637144 0
    outer loop
      vertex 110.416 57.7382 18
      vertex 110.736 57.3511 2
      vertex 110.736 57.3511 18
    endloop
  endfacet
  facet normal 0 1 -0
    outer loop
      vertex 107.751 -58.9921 2
      vertex -107.751 -58.9921 18
      vertex 107.751 -58.9921 18
    endloop
  endfacet
  facet normal 0 1 0
    outer loop
      vertex -107.751 -58.9921 18
      vertex 107.751 -58.9921 2
      vertex -107.751 -58.9921 2
    endloop
  endfacet
  facet normal 0.770745 -0.637144 0
    outer loop
      vertex -110.736 57.3511 18
      vertex -110.416 57.7382 2
      vertex -110.416 57.7382 18
    endloop
  endfacet
  facet normal 0.770745 -0.637144 0
    outer loop
      vertex -110.416 57.7382 2
      vertex -110.736 57.3511 18
      vertex -110.736 57.3511 2
    endloop
  endfacet
  facet normal -1 0 0
    outer loop
      vertex 111.5 -55 2
      vertex 111.5 55 18
      vertex 111.5 55 2
    endloop
  endfacet
  facet normal -1 -0 0
    outer loop
      vertex 111.5 55 18
      vertex 111.5 -55 2
      vertex 111.5 -55 18
    endloop
  endfacet
  facet normal 0.481919 0.876216 -0
    outer loop
      vertex -109.203 -58.6193 2
      vertex -109.643 -58.3773 18
      vertex -109.203 -58.6193 18
    endloop
  endfacet
  facet normal 0.481919 0.876216 0
    outer loop
      vertex -109.643 -58.3773 18
      vertex -109.203 -58.6193 2
      vertex -109.643 -58.3773 2
    endloop
  endfacet
  facet normal 0.368127 -0.929775 0
    outer loop
      vertex -109.203 58.6193 2
      vertex -108.736 58.8042 18
      vertex -109.203 58.6193 18
    endloop
  endfacet
  facet normal 0.368127 -0.929775 0
    outer loop
      vertex -108.736 58.8042 18
      vertex -109.203 58.6193 2
      vertex -108.736 58.8042 2
    endloop
  endfacet
  facet normal 0.481919 -0.876216 0
    outer loop
      vertex -109.643 58.3773 2
      vertex -109.203 58.6193 18
      vertex -109.643 58.3773 18
    endloop
  endfacet
  facet normal 0.481919 -0.876216 0
    outer loop
      vertex -109.203 58.6193 18
      vertex -109.643 58.3773 2
      vertex -109.203 58.6193 2
    endloop
  endfacet
  facet normal 0.684762 -0.728767 0
    outer loop
      vertex -110.416 57.7382 2
      vertex -110.05 58.0821 18
      vertex -110.416 57.7382 18
    endloop
  endfacet
  facet normal 0.684762 -0.728767 0
    outer loop
      vertex -110.05 58.0821 18
      vertex -110.416 57.7382 2
      vertex -110.05 58.0821 2
    endloop
  endfacet
  facet normal -0.368127 -0.929775 0
    outer loop
      vertex 108.736 58.8042 2
      vertex 109.203 58.6193 18
      vertex 108.736 58.8042 18
    endloop
  endfacet
  facet normal -0.368127 -0.929775 -0
    outer loop
      vertex 109.203 58.6193 18
      vertex 108.736 58.8042 2
      vertex 109.203 58.6193 2
    endloop
  endfacet
  facet normal -0.481919 -0.876216 0
    outer loop
      vertex 109.203 58.6193 2
      vertex 109.643 58.3773 18
      vertex 109.203 58.6193 18
    endloop
  endfacet
  facet normal -0.481919 -0.876216 -0
    outer loop
      vertex 109.643 58.3773 18
      vertex 109.203 58.6193 2
      vertex 109.643 58.3773 2
    endloop
  endfacet
  facet normal 0.368127 0.929775 -0
    outer loop
      vertex -108.736 -58.8042 2
      vertex -109.203 -58.6193 18
      vertex -108.736 -58.8042 18
    endloop
  endfacet
  facet normal 0.368127 0.929775 0
    outer loop
      vertex -109.203 -58.6193 18
      vertex -108.736 -58.8042 2
      vertex -109.203 -58.6193 2
    endloop
  endfacet
  facet normal 0.125258 0.992124 -0
    outer loop
      vertex -107.751 -58.9921 2
      vertex -108.25 -58.9291 18
      vertex -107.751 -58.9921 18
    endloop
  endfacet
  facet normal 0.125258 0.992124 0
    outer loop
      vertex -108.25 -58.9291 18
      vertex -107.751 -58.9921 2
      vertex -108.25 -58.9291 2
    endloop
  endfacet
  facet normal 1 -0 0
    outer loop
      vertex -111.5 -55 18
      vertex -111.5 55 2
      vertex -111.5 55 18
    endloop
  endfacet
  facet normal 1 0 0
    outer loop
      vertex -111.5 55 2
      vertex -111.5 -55 18
      vertex -111.5 -55 2
    endloop
  endfacet
  facet normal 0.997969 -0.0637044 0
    outer loop
      vertex -111.5 55 18
      vertex -111.468 55.5013 2
      vertex -111.468 55.5013 18
    endloop
  endfacet
  facet normal 0.997969 -0.0637044 0
    outer loop
      vertex -111.468 55.5013 2
      vertex -111.5 55 18
      vertex -111.5 55 2
    endloop
  endfacet
  facet normal 0.951182 -0.308631 0
    outer loop
      vertex -111.374 55.9948 18
      vertex -111.219 56.4725 2
      vertex -111.219 56.4725 18
    endloop
  endfacet
  facet normal 0.951182 -0.308631 0
    outer loop
      vertex -111.219 56.4725 2
      vertex -111.374 55.9948 18
      vertex -111.374 55.9948 2
    endloop
  endfacet
  facet normal -0.248908 -0.968527 0
    outer loop
      vertex 108.25 58.9291 2
      vertex 108.736 58.8042 18
      vertex 108.25 58.9291 18
    endloop
  endfacet
  facet normal -0.248908 -0.968527 -0
    outer loop
      vertex 108.736 58.8042 18
      vertex 108.25 58.9291 2
      vertex 108.736 58.8042 2
    endloop
  endfacet
  facet normal -0.587131 -0.809492 0
    outer loop
      vertex 109.643 58.3773 2
      vertex 110.05 58.0821 18
      vertex 109.643 58.3773 18
    endloop
  endfacet
  facet normal -0.587131 -0.809492 -0
    outer loop
      vertex 110.05 58.0821 18
      vertex 109.643 58.3773 2
      vertex 110.05 58.0821 2
    endloop
  endfacet
  facet normal -0.844456 -0.535625 0
    outer loop
      vertex 111.005 56.927 2
      vertex 110.736 57.3511 18
      vertex 110.736 57.3511 2
    endloop
  endfacet
  facet normal -0.844456 -0.535625 0
    outer loop
      vertex 110.736 57.3511 18
      vertex 111.005 56.927 2
      vertex 111.005 56.927 18
    endloop
  endfacet
  facet normal -0.951182 0.308631 0
    outer loop
      vertex 111.219 -56.4725 2
      vertex 111.374 -55.9948 18
      vertex 111.374 -55.9948 2
    endloop
  endfacet
  facet normal -0.951182 0.308631 0
    outer loop
      vertex 111.374 -55.9948 18
      vertex 111.219 -56.4725 2
      vertex 111.219 -56.4725 18
    endloop
  endfacet
  facet normal -0.684762 0.728767 0
    outer loop
      vertex 110.416 -57.7382 2
      vertex 110.05 -58.0821 18
      vertex 110.416 -57.7382 18
    endloop
  endfacet
  facet normal -0.684762 0.728767 0
    outer loop
      vertex 110.05 -58.0821 18
      vertex 110.416 -57.7382 2
      vertex 110.05 -58.0821 2
    endloop
  endfacet
  facet normal 0.248908 0.968527 -0
    outer loop
      vertex -108.25 -58.9291 2
      vertex -108.736 -58.8042 18
      vertex -108.25 -58.9291 18
    endloop
  endfacet
  facet normal 0.248908 0.968527 0
    outer loop
      vertex -108.736 -58.8042 18
      vertex -108.25 -58.9291 2
      vertex -108.736 -58.8042 2
    endloop
  endfacet
  facet normal -0.684762 -0.728767 0
    outer loop
      vertex 110.05 58.0821 2
      vertex 110.416 57.7382 18
      vertex 110.05 58.0821 18
    endloop
  endfacet
  facet normal -0.684762 -0.728767 -0
    outer loop
      vertex 110.416 57.7382 18
      vertex 110.05 58.0821 2
      vertex 110.416 57.7382 2
    endloop
  endfacet
  facet normal -0.904728 -0.425989 0
    outer loop
      vertex 111.219 56.4725 2
      vertex 111.005 56.927 18
      vertex 111.005 56.927 2
    endloop
  endfacet
  facet normal -0.904728 -0.425989 0
    outer loop
      vertex 111.005 56.927 18
      vertex 111.219 56.4725 2
      vertex 111.219 56.4725 18
    endloop
  endfacet
  facet normal -0.951182 -0.308631 0
    outer loop
      vertex 111.374 55.9948 2
      vertex 111.219 56.4725 18
      vertex 111.219 56.4725 2
    endloop
  endfacet
  facet normal -0.951182 -0.308631 0
    outer loop
      vertex 111.219 56.4725 18
      vertex 111.374 55.9948 2
      vertex 111.374 55.9948 18
    endloop
  endfacet
  facet normal -0.982339 -0.187112 0
    outer loop
      vertex 111.468 55.5013 2
      vertex 111.374 55.9948 18
      vertex 111.374 55.9948 2
    endloop
  endfacet
  facet normal -0.982339 -0.187112 0
    outer loop
      vertex 111.374 55.9948 18
      vertex 111.468 55.5013 2
      vertex 111.468 55.5013 18
    endloop
  endfacet
  facet normal -0.770745 0.637144 0
    outer loop
      vertex 110.416 -57.7382 2
      vertex 110.736 -57.3511 18
      vertex 110.736 -57.3511 2
    endloop
  endfacet
  facet normal -0.770745 0.637144 0
    outer loop
      vertex 110.736 -57.3511 18
      vertex 110.416 -57.7382 2
      vertex 110.416 -57.7382 18
    endloop
  endfacet
  facet normal -0.481919 0.876216 0
    outer loop
      vertex 109.643 -58.3773 2
      vertex 109.203 -58.6193 18
      vertex 109.643 -58.3773 18
    endloop
  endfacet
  facet normal -0.481919 0.876216 0
    outer loop
      vertex 109.203 -58.6193 18
      vertex 109.643 -58.3773 2
      vertex 109.203 -58.6193 2
    endloop
  endfacet
  facet normal 0.997969 0.0637044 0
    outer loop
      vertex -111.468 -55.5013 18
      vertex -111.5 -55 2
      vertex -111.5 -55 18
    endloop
  endfacet
  facet normal 0.997969 0.0637044 0
    outer loop
      vertex -111.5 -55 2
      vertex -111.468 -55.5013 18
      vertex -111.468 -55.5013 2
    endloop
  endfacet
  facet normal 0.684762 0.728767 -0
    outer loop
      vertex -110.05 -58.0821 2
      vertex -110.416 -57.7382 18
      vertex -110.05 -58.0821 18
    endloop
  endfacet
  facet normal 0.684762 0.728767 0
    outer loop
      vertex -110.416 -57.7382 18
      vertex -110.05 -58.0821 2
      vertex -110.416 -57.7382 2
    endloop
  endfacet
  facet normal 0.951182 0.308631 0
    outer loop
      vertex -111.219 -56.4725 18
      vertex -111.374 -55.9948 2
      vertex -111.374 -55.9948 18
    endloop
  endfacet
  facet normal 0.951182 0.308631 0
    outer loop
      vertex -111.374 -55.9948 2
      vertex -111.219 -56.4725 18
      vertex -111.219 -56.4725 2
    endloop
  endfacet
  facet normal 0.770745 0.637144 0
    outer loop
      vertex -110.416 -57.7382 18
      vertex -110.736 -57.3511 2
      vertex -110.736 -57.3511 18
    endloop
  endfacet
  facet normal 0.770745 0.637144 0
    outer loop
      vertex -110.736 -57.3511 2
      vertex -110.416 -57.7382 18
      vertex -110.416 -57.7382 2
    endloop
  endfacet
  facet normal 0.248908 -0.968527 0
    outer loop
      vertex -108.736 58.8042 2
      vertex -108.25 58.9291 18
      vertex -108.736 58.8042 18
    endloop
  endfacet
  facet normal 0.248908 -0.968527 0
    outer loop
      vertex -108.25 58.9291 18
      vertex -108.736 58.8042 2
      vertex -108.25 58.9291 2
    endloop
  endfacet
  facet normal 0.844456 -0.535625 0
    outer loop
      vertex -111.005 56.927 18
      vertex -110.736 57.3511 2
      vertex -110.736 57.3511 18
    endloop
  endfacet
  facet normal 0.844456 -0.535625 0
    outer loop
      vertex -110.736 57.3511 2
      vertex -111.005 56.927 18
      vertex -111.005 56.927 2
    endloop
  endfacet
  facet normal -0.997969 -0.0637044 0
    outer loop
      vertex 111.5 55 2
      vertex 111.468 55.5013 18
      vertex 111.468 55.5013 2
    endloop
  endfacet
  facet normal -0.997969 -0.0637044 0
    outer loop
      vertex 111.468 55.5013 18
      vertex 111.5 55 2
      vertex 111.5 55 18
    endloop
  endfacet
  facet normal -0.844456 0.535625 0
    outer loop
      vertex 110.736 -57.3511 2
      vertex 111.005 -56.927 18
      vertex 111.005 -56.927 2
    endloop
  endfacet
  facet normal -0.844456 0.535625 0
    outer loop
      vertex 111.005 -56.927 18
      vertex 110.736 -57.3511 2
      vertex 110.736 -57.3511 18
    endloop
  endfacet
  facet normal -0.904728 0.425989 0
    outer loop
      vertex 111.005 -56.927 2
      vertex 111.219 -56.4725 18
      vertex 111.219 -56.4725 2
    endloop
  endfacet
  facet normal -0.904728 0.425989 0
    outer loop
      vertex 111.219 -56.4725 18
      vertex 111.005 -56.927 2
      vertex 111.005 -56.927 18
    endloop
  endfacet
  facet normal -0.587131 0.809492 0
    outer loop
      vertex 110.05 -58.0821 2
      vertex 109.643 -58.3773 18
      vertex 110.05 -58.0821 18
    endloop
  endfacet
  facet normal -0.587131 0.809492 0
    outer loop
      vertex 109.643 -58.3773 18
      vertex 110.05 -58.0821 2
      vertex 109.643 -58.3773 2
    endloop
  endfacet
  facet normal -0.125258 0.992124 0
    outer loop
      vertex 108.25 -58.9291 2
      vertex 107.751 -58.9921 18
      vertex 108.25 -58.9291 18
    endloop
  endfacet
  facet normal -0.125258 0.992124 0
    outer loop
      vertex 107.751 -58.9921 18
      vertex 108.25 -58.9291 2
      vertex 107.751 -58.9921 2
    endloop
  endfacet
  facet normal -0.368127 0.929775 0
    outer loop
      vertex 109.203 -58.6193 2
      vertex 108.736 -58.8042 18
      vertex 109.203 -58.6193 18
    endloop
  endfacet
  facet normal -0.368127 0.929775 0
    outer loop
      vertex 108.736 -58.8042 18
      vertex 109.203 -58.6193 2
      vertex 108.736 -58.8042 2
    endloop
  endfacet
  facet normal 0.587131 0.809492 -0
    outer loop
      vertex -109.643 -58.3773 2
      vertex -110.05 -58.0821 18
      vertex -109.643 -58.3773 18
    endloop
  endfacet
  facet normal 0.587131 0.809492 0
    outer loop
      vertex -110.05 -58.0821 18
      vertex -109.643 -58.3773 2
      vertex -110.05 -58.0821 2
    endloop
  endfacet
  facet normal 0 0 1
    outer loop
      vertex 107.751 58.9921 2
      vertex 111.5 55 2
      vertex 111.468 55.5013 2
    endloop
  endfacet
  facet normal 0 0 1
    outer loop
      vertex 111.5 55 2
      vertex 107.751 58.9921 2
      vertex 111.5 -55 2
    endloop
  endfacet
  facet normal 0 0 1
    outer loop
      vertex 107.751 58.9921 2
      vertex 111.468 55.5013 2
      vertex 111.374 55.9948 2
    endloop
  endfacet
  facet normal 0 0 1
    outer loop
      vertex 107.751 -58.9921 2
      vertex 111.5 -55 2
      vertex 107.751 58.9921 2
    endloop
  endfacet
  facet normal 0 0 1
    outer loop
      vertex 107.751 58.9921 2
      vertex 111.374 55.9948 2
      vertex 111.219 56.4725 2
    endloop
  endfacet
  facet normal 0 0 1
    outer loop
      vertex 111.5 -55 2
      vertex 107.751 -58.9921 2
      vertex 111.468 -55.5013 2
    endloop
  endfacet
  facet normal 0 0 1
    outer loop
      vertex 107.751 58.9921 2
      vertex 111.219 56.4725 2
      vertex 111.005 56.927 2
    endloop
  endfacet
  facet normal 0 0 1
    outer loop
      vertex 111.468 -55.5013 2
      vertex 107.751 -58.9921 2
      vertex 111.374 -55.9948 2
    endloop
  endfacet
  facet normal 0 0 1
    outer loop
      vertex 107.751 58.9921 2
      vertex 111.005 56.927 2
      vertex 110.736 57.3511 2
    endloop
  endfacet
  facet normal 0 0 1
    outer loop
      vertex 111.374 -55.9948 2
      vertex 107.751 -58.9921 2
      vertex 111.219 -56.4725 2
    endloop
  endfacet
  facet normal 0 0 1
    outer loop
      vertex 107.751 58.9921 2
      vertex 110.736 57.3511 2
      vertex 110.416 57.7382 2
    endloop
  endfacet
  facet normal 0 0 1
    outer loop
      vertex 111.219 -56.4725 2
      vertex 107.751 -58.9921 2
      vertex 111.005 -56.927 2
    endloop
  endfacet
  facet normal 0 0 1
    outer loop
      vertex 107.751 58.9921 2
      vertex 110.416 57.7382 2
      vertex 110.05 58.0821 2
    endloop
  endfacet
  facet normal 0 0 1
    outer loop
      vertex 111.005 -56.927 2
      vertex 107.751 -58.9921 2
      vertex 110.736 -57.3511 2
    endloop
  endfacet
  facet normal 0 0 1
    outer loop
      vertex 107.751 58.9921 2
      vertex 110.05 58.0821 2
      vertex 109.643 58.3773 2
    endloop
  endfacet
  facet normal 0 0 1
    outer loop
      vertex 110.736 -57.3511 2
      vertex 107.751 -58.9921 2
      vertex 110.416 -57.7382 2
    endloop
  endfacet
  facet normal 0 0 1
    outer loop
      vertex 107.751 58.9921 2
      vertex 109.643 58.3773 2
      vertex 109.203 58.6193 2
    endloop
  endfacet
  facet normal 0 0 1
    outer loop
      vertex 110.416 -57.7382 2
      vertex 107.751 -58.9921 2
      vertex 110.05 -58.0821 2
    endloop
  endfacet
  facet normal 0 0 1
    outer loop
      vertex 107.751 58.9921 2
      vertex 109.203 58.6193 2
      vertex 108.736 58.8042 2
    endloop
  endfacet
  facet normal 0 0 1
    outer loop
      vertex 110.05 -58.0821 2
      vertex 107.751 -58.9921 2
      vertex 109.643 -58.3773 2
    endloop
  endfacet
  facet normal 0 0 1
    outer loop
      vertex 107.751 58.9921 2
      vertex 108.736 58.8042 2
      vertex 108.25 58.9291 2
    endloop
  endfacet
  facet normal 0 0 1
    outer loop
      vertex 109.643 -58.3773 2
      vertex 107.751 -58.9921 2
      vertex 109.203 -58.6193 2
    endloop
  endfacet
  facet normal 0 0 1
    outer loop
      vertex 109.203 -58.6193 2
      vertex 107.751 -58.9921 2
      vertex 108.736 -58.8042 2
    endloop
  endfacet
  facet normal 0 0 1
    outer loop
      vertex 108.736 -58.8042 2
      vertex 107.751 -58.9921 2
      vertex 108.25 -58.9291 2
    endloop
  endfacet
  facet normal -0 0 1
    outer loop
      vertex -107.751 58.9921 2
      vertex 107.751 -58.9921 2
      vertex 107.751 58.9921 2
    endloop
  endfacet
  facet normal 0 0 1
    outer loop
      vertex -107.751 58.9921 2
      vertex -107.751 -58.9921 2
      vertex 107.751 -58.9921 2
    endloop
  endfacet
  facet normal 0 0 1
    outer loop
      vertex -111.5 55 2
      vertex -107.751 58.9921 2
      vertex -108.25 58.9291 2
    endloop
  endfacet
  facet normal 0 0 1
    outer loop
      vertex -107.751 58.9921 2
      vertex -111.5 55 2
      vertex -107.751 -58.9921 2
    endloop
  endfacet
  facet normal 0 0 1
    outer loop
      vertex -111.5 55 2
      vertex -108.25 58.9291 2
      vertex -108.736 58.8042 2
    endloop
  endfacet
  facet normal -0 0 1
    outer loop
      vertex -111.5 -55 2
      vertex -107.751 -58.9921 2
      vertex -111.5 55 2
    endloop
  endfacet
  facet normal 0 0 1
    outer loop
      vertex -111.5 55 2
      vertex -108.736 58.8042 2
      vertex -109.203 58.6193 2
    endloop
  endfacet
  facet normal 0 0 1
    outer loop
      vertex -107.751 -58.9921 2
      vertex -111.5 -55 2
      vertex -108.25 -58.9291 2
    endloop
  endfacet
  facet normal 0 0 1
    outer loop
      vertex -111.5 55 2
      vertex -109.203 58.6193 2
      vertex -109.643 58.3773 2
    endloop
  endfacet
  facet normal 0 0 1
    outer loop
      vertex -108.25 -58.9291 2
      vertex -111.5 -55 2
      vertex -108.736 -58.8042 2
    endloop
  endfacet
  facet normal 0 0 1
    outer loop
      vertex -111.5 55 2
      vertex -109.643 58.3773 2
      vertex -110.05 58.0821 2
    endloop
  endfacet
  facet normal 0 0 1
    outer loop
      vertex -108.736 -58.8042 2
      vertex -111.5 -55 2
      vertex -109.203 -58.6193 2
    endloop
  endfacet
  facet normal 0 0 1
    outer loop
      vertex -111.5 55 2
      vertex -110.05 58.0821 2
      vertex -110.416 57.7382 2
    endloop
  endfacet
  facet normal 0 0 1
    outer loop
      vertex -109.203 -58.6193 2
      vertex -111.5 -55 2
      vertex -109.643 -58.3773 2
    endloop
  endfacet
  facet normal 0 0 1
    outer loop
      vertex -111.5 55 2
      vertex -110.416 57.7382 2
      vertex -110.736 57.3511 2
    endloop
  endfacet
  facet normal 0 0 1
    outer loop
      vertex -109.643 -58.3773 2
      vertex -111.5 -55 2
      vertex -110.05 -58.0821 2
    endloop
  endfacet
  facet normal 0 0 1
    outer loop
      vertex -111.5 55 2
      vertex -110.736 57.3511 2
      vertex -111.005 56.927 2
    endloop
  endfacet
  facet normal 0 0 1
    outer loop
      vertex -110.05 -58.0821 2
      vertex -111.5 -55 2
      vertex -110.416 -57.7382 2
    endloop
  endfacet
  facet normal 0 0 1
    outer loop
      vertex -111.5 55 2
      vertex -111.005 56.927 2
      vertex -111.219 56.4725 2
    endloop
  endfacet
  facet normal 0 0 1
    outer loop
      vertex -110.416 -57.7382 2
      vertex -111.5 -55 2
      vertex -110.736 -57.3511 2
    endloop
  endfacet
  facet normal 0 0 1
    outer loop
      vertex -111.5 55 2
      vertex -111.219 56.4725 2
      vertex -111.374 55.9948 2
    endloop
  endfacet
  facet normal 0 0 1
    outer loop
      vertex -110.736 -57.3511 2
      vertex -111.5 -55 2
      vertex -111.005 -56.927 2
    endloop
  endfacet
  facet normal 0 0 1
    outer loop
      vertex -111.5 55 2
      vertex -111.374 55.9948 2
      vertex -111.468 55.5013 2
    endloop
  endfacet
  facet normal 0 0 1
    outer loop
      vertex -111.005 -56.927 2
      vertex -111.5 -55 2
      vertex -111.219 -56.4725 2
    endloop
  endfacet
  facet normal 0 0 1
    outer loop
      vertex -111.219 -56.4725 2
      vertex -111.5 -55 2
      vertex -111.374 -55.9948 2
    endloop
  endfacet
  facet normal 0 0 1
    outer loop
      vertex -111.374 -55.9948 2
      vertex -111.5 -55 2
      vertex -111.468 -55.5013 2
    endloop
  endfacet
  facet normal 0.982339 0.187112 0
    outer loop
      vertex -111.374 -55.9948 18
      vertex -111.468 -55.5013 2
      vertex -111.468 -55.5013 18
    endloop
  endfacet
  facet normal 0.982339 0.187112 0
    outer loop
      vertex -111.468 -55.5013 2
      vertex -111.374 -55.9948 18
      vertex -111.374 -55.9948 2
    endloop
  endfacet
  facet normal 0.844456 0.535625 0
    outer loop
      vertex -110.736 -57.3511 18
      vertex -111.005 -56.927 2
      vertex -111.005 -56.927 18
    endloop
  endfacet
  facet normal 0.844456 0.535625 0
    outer loop
      vertex -111.005 -56.927 2
      vertex -110.736 -57.3511 18
      vertex -110.736 -57.3511 2
    endloop
  endfacet
  facet normal 0.904728 0.425989 0
    outer loop
      vertex -111.005 -56.927 18
      vertex -111.219 -56.4725 2
      vertex -111.219 -56.4725 18
    endloop
  endfacet
  facet normal 0.904728 0.425989 0
    outer loop
      vertex -111.219 -56.4725 2
      vertex -111.005 -56.927 18
      vertex -111.005 -56.927 2
    endloop
  endfacet
  facet normal 0.587131 -0.809492 0
    outer loop
      vertex -110.05 58.0821 2
      vertex -109.643 58.3773 18
      vertex -110.05 58.0821 18
    endloop
  endfacet
  facet normal 0.587131 -0.809492 0
    outer loop
      vertex -109.643 58.3773 18
      vertex -110.05 58.0821 2
      vertex -109.643 58.3773 2
    endloop
  endfacet
  facet normal 0.904728 -0.425989 0
    outer loop
      vertex -111.219 56.4725 18
      vertex -111.005 56.927 2
      vertex -111.005 56.927 18
    endloop
  endfacet
  facet normal 0.904728 -0.425989 0
    outer loop
      vertex -111.005 56.927 2
      vertex -111.219 56.4725 18
      vertex -111.219 56.4725 2
    endloop
  endfacet
  facet normal -0.997969 0.0637044 0
    outer loop
      vertex 111.468 -55.5013 2
      vertex 111.5 -55 18
      vertex 111.5 -55 2
    endloop
  endfacet
  facet normal -0.997969 0.0637044 0
    outer loop
      vertex 111.5 -55 18
      vertex 111.468 -55.5013 2
      vertex 111.468 -55.5013 18
    endloop
  endfacet
  facet normal -0.982339 0.187112 0
    outer loop
      vertex 111.374 -55.9948 2
      vertex 111.468 -55.5013 18
      vertex 111.468 -55.5013 2
    endloop
  endfacet
  facet normal -0.982339 0.187112 0
    outer loop
      vertex 111.468 -55.5013 18
      vertex 111.374 -55.9948 2
      vertex 111.374 -55.9948 18
    endloop
  endfacet
  facet normal -0.248908 0.968527 0
    outer loop
      vertex 108.736 -58.8042 2
      vertex 108.25 -58.9291 18
      vertex 108.736 -58.8042 18
    endloop
  endfacet
  facet normal -0.248908 0.968527 0
    outer loop
      vertex 108.25 -58.9291 18
      vertex 108.736 -58.8042 2
      vertex 108.25 -58.9291 2
    endloop
  endfacet
  facet normal 0.982339 -0.187112 0
    outer loop
      vertex -111.468 55.5013 18
      vertex -111.374 55.9948 2
      vertex -111.374 55.9948 18
    endloop
  endfacet
  facet normal 0.982339 -0.187112 0
    outer loop
      vertex -111.374 55.9948 2
      vertex -111.468 55.5013 18
      vertex -111.468 55.5013 2
    endloop
  endfacet
endsolid OpenSCAD_Model
