solid OpenSCAD_Model
  facet normal 0 0 1
    outer loop
      vertex 104 70 24
      vertex 105 70 24
      vertex 104.961 70.6267 24
    endloop
  endfacet
  facet normal 0 0 1
    outer loop
      vertex 105 70 24
      vertex 104 70 24
      vertex 105 -70 24
    endloop
  endfacet
  facet normal 0 0 1
    outer loop
      vertex 103.968 70.5013 24
      vertex 104.961 70.6267 24
      vertex 104.843 71.2434 24
    endloop
  endfacet
  facet normal 0 0 1
    outer loop
      vertex 104 -70 24
      vertex 105 -70 24
      vertex 104 70 24
    endloop
  endfacet
  facet normal 0 0 1
    outer loop
      vertex 103.874 70.9948 24
      vertex 104.843 71.2434 24
      vertex 104.649 71.8406 24
    endloop
  endfacet
  facet normal 0 0 1
    outer loop
      vertex 105 -70 24
      vertex 104 -70 24
      vertex 104.961 -70.6267 24
    endloop
  endfacet
  facet normal 0 0 1
    outer loop
      vertex 103.719 71.4725 24
      vertex 104.649 71.8406 24
      vertex 104.382 72.4088 24
    endloop
  endfacet
  facet normal -0 0 1
    outer loop
      vertex 103.968 -70.5013 24
      vertex 104.961 -70.6267 24
      vertex 104 -70 24
    endloop
  endfacet
  facet normal 0 0 1
    outer loop
      vertex 103.505 71.927 24
      vertex 104.382 72.4088 24
      vertex 104.045 72.9389 24
    endloop
  endfacet
  facet normal 0 0 1
    outer loop
      vertex 104.961 -70.6267 24
      vertex 103.968 -70.5013 24
      vertex 104.843 -71.2434 24
    endloop
  endfacet
  facet normal -0 0 1
    outer loop
      vertex 103.874 -70.9948 24
      vertex 104.843 -71.2434 24
      vertex 103.968 -70.5013 24
    endloop
  endfacet
  facet normal 0 0 1
    outer loop
      vertex 104.961 70.6267 24
      vertex 103.968 70.5013 24
      vertex 104 70 24
    endloop
  endfacet
  facet normal 0 0 1
    outer loop
      vertex 104.843 71.2434 24
      vertex 103.874 70.9948 24
      vertex 103.968 70.5013 24
    endloop
  endfacet
  facet normal 0 0 1
    outer loop
      vertex 104.649 71.8406 24
      vertex 103.719 71.4725 24
      vertex 103.874 70.9948 24
    endloop
  endfacet
  facet normal 0 0 1
    outer loop
      vertex 103.236 72.3511 24
      vertex 104.045 72.9389 24
      vertex 103.645 73.4227 24
    endloop
  endfacet
  facet normal 0 0 1
    outer loop
      vertex 104.382 72.4088 24
      vertex 103.505 71.927 24
      vertex 103.719 71.4725 24
    endloop
  endfacet
  facet normal 0 0 1
    outer loop
      vertex 104.045 72.9389 24
      vertex 103.236 72.3511 24
      vertex 103.505 71.927 24
    endloop
  endfacet
  facet normal 0 0 1
    outer loop
      vertex 102.916 72.7382 24
      vertex 103.645 73.4227 24
      vertex 103.187 73.8526 24
    endloop
  endfacet
  facet normal 0 0 1
    outer loop
      vertex 103.645 73.4227 24
      vertex 102.916 72.7382 24
      vertex 103.236 72.3511 24
    endloop
  endfacet
  facet normal 0 0 1
    outer loop
      vertex 102.55 73.0821 24
      vertex 103.187 73.8526 24
      vertex 102.679 74.2216 24
    endloop
  endfacet
  facet normal 0 0 1
    outer loop
      vertex 103.187 73.8526 24
      vertex 102.55 73.0821 24
      vertex 102.916 72.7382 24
    endloop
  endfacet
  facet normal 0 0 1
    outer loop
      vertex 102.679 74.2216 24
      vertex 102.143 73.3773 24
      vertex 102.55 73.0821 24
    endloop
  endfacet
  facet normal 0 0 1
    outer loop
      vertex 102.129 74.5241 24
      vertex 102.143 73.3773 24
      vertex 102.679 74.2216 24
    endloop
  endfacet
  facet normal 0 0 1
    outer loop
      vertex 102.129 74.5241 24
      vertex 101.703 73.6193 24
      vertex 102.143 73.3773 24
    endloop
  endfacet
  facet normal 0 0 1
    outer loop
      vertex 101.545 74.7553 24
      vertex 101.703 73.6193 24
      vertex 102.129 74.5241 24
    endloop
  endfacet
  facet normal 0 0 1
    outer loop
      vertex 101.545 74.7553 24
      vertex 101.236 73.8042 24
      vertex 101.703 73.6193 24
    endloop
  endfacet
  facet normal 0 0 1
    outer loop
      vertex 100.937 74.9114 24
      vertex 101.236 73.8042 24
      vertex 101.545 74.7553 24
    endloop
  endfacet
  facet normal 0 0 1
    outer loop
      vertex 100.937 74.9114 24
      vertex 100.75 73.9291 24
      vertex 101.236 73.8042 24
    endloop
  endfacet
  facet normal 0 0 1
    outer loop
      vertex 100.314 74.9901 24
      vertex 100.75 73.9291 24
      vertex 100.937 74.9114 24
    endloop
  endfacet
  facet normal 0 0 1
    outer loop
      vertex 100.314 74.9901 24
      vertex 100.251 73.9921 24
      vertex 100.75 73.9291 24
    endloop
  endfacet
  facet normal 0 0 1
    outer loop
      vertex 100.314 74.9901 24
      vertex -100.251 73.9921 24
      vertex 100.251 73.9921 24
    endloop
  endfacet
  facet normal -0 0 1
    outer loop
      vertex -100.314 74.9901 24
      vertex -100.251 73.9921 24
      vertex 100.314 74.9901 24
    endloop
  endfacet
  facet normal 0 0 1
    outer loop
      vertex -100.314 74.9901 24
      vertex -100.75 73.9291 24
      vertex -100.251 73.9921 24
    endloop
  endfacet
  facet normal -0 0 1
    outer loop
      vertex -100.937 74.9114 24
      vertex -100.75 73.9291 24
      vertex -100.314 74.9901 24
    endloop
  endfacet
  facet normal 0 0 1
    outer loop
      vertex -100.937 74.9114 24
      vertex -101.236 73.8042 24
      vertex -100.75 73.9291 24
    endloop
  endfacet
  facet normal -0 0 1
    outer loop
      vertex -101.545 74.7553 24
      vertex -101.236 73.8042 24
      vertex -100.937 74.9114 24
    endloop
  endfacet
  facet normal 0 0 1
    outer loop
      vertex -101.545 74.7553 24
      vertex -101.703 73.6193 24
      vertex -101.236 73.8042 24
    endloop
  endfacet
  facet normal -0 0 1
    outer loop
      vertex -102.129 74.5241 24
      vertex -101.703 73.6193 24
      vertex -101.545 74.7553 24
    endloop
  endfacet
  facet normal 0 0 1
    outer loop
      vertex -102.129 74.5241 24
      vertex -102.143 73.3773 24
      vertex -101.703 73.6193 24
    endloop
  endfacet
  facet normal -0 0 1
    outer loop
      vertex -102.679 74.2216 24
      vertex -102.143 73.3773 24
      vertex -102.129 74.5241 24
    endloop
  endfacet
  facet normal 0 0 1
    outer loop
      vertex -102.143 73.3773 24
      vertex -102.679 74.2216 24
      vertex -102.55 73.0821 24
    endloop
  endfacet
  facet normal -0 0 1
    outer loop
      vertex -103.187 73.8526 24
      vertex -102.55 73.0821 24
      vertex -102.679 74.2216 24
    endloop
  endfacet
  facet normal 0 0 1
    outer loop
      vertex -102.55 73.0821 24
      vertex -103.187 73.8526 24
      vertex -102.916 72.7382 24
    endloop
  endfacet
  facet normal -0 0 1
    outer loop
      vertex -103.645 73.4227 24
      vertex -102.916 72.7382 24
      vertex -103.187 73.8526 24
    endloop
  endfacet
  facet normal 0 0 1
    outer loop
      vertex -102.916 72.7382 24
      vertex -103.645 73.4227 24
      vertex -103.236 72.3511 24
    endloop
  endfacet
  facet normal -0 0 1
    outer loop
      vertex -104.045 72.9389 24
      vertex -103.236 72.3511 24
      vertex -103.645 73.4227 24
    endloop
  endfacet
  facet normal 0 0 1
    outer loop
      vertex -103.236 72.3511 24
      vertex -104.045 72.9389 24
      vertex -103.505 71.927 24
    endloop
  endfacet
  facet normal -0 0 1
    outer loop
      vertex -104.382 72.4088 24
      vertex -103.505 71.927 24
      vertex -104.045 72.9389 24
    endloop
  endfacet
  facet normal 0 0 1
    outer loop
      vertex -103.505 71.927 24
      vertex -104.382 72.4088 24
      vertex -103.719 71.4725 24
    endloop
  endfacet
  facet normal -0 0 1
    outer loop
      vertex -104.843 71.2434 24
      vertex -103.874 70.9948 24
      vertex -104.649 71.8406 24
    endloop
  endfacet
  facet normal 0 0 1
    outer loop
      vertex -103.719 71.4725 24
      vertex -104.649 71.8406 24
      vertex -103.874 70.9948 24
    endloop
  endfacet
  facet normal -0 0 1
    outer loop
      vertex -104.649 71.8406 24
      vertex -103.719 71.4725 24
      vertex -104.382 72.4088 24
    endloop
  endfacet
  facet normal 0 0 1
    outer loop
      vertex 104.843 -71.2434 24
      vertex 103.874 -70.9948 24
      vertex 104.649 -71.8406 24
    endloop
  endfacet
  facet normal -0 0 1
    outer loop
      vertex 103.719 -71.4725 24
      vertex 104.649 -71.8406 24
      vertex 103.874 -70.9948 24
    endloop
  endfacet
  facet normal 0 0 1
    outer loop
      vertex 104.649 -71.8406 24
      vertex 103.719 -71.4725 24
      vertex 104.382 -72.4088 24
    endloop
  endfacet
  facet normal -0 0 1
    outer loop
      vertex 103.505 -71.927 24
      vertex 104.382 -72.4088 24
      vertex 103.719 -71.4725 24
    endloop
  endfacet
  facet normal 0 0 1
    outer loop
      vertex 104.382 -72.4088 24
      vertex 103.505 -71.927 24
      vertex 104.045 -72.9389 24
    endloop
  endfacet
  facet normal -0 0 1
    outer loop
      vertex 103.236 -72.3511 24
      vertex 104.045 -72.9389 24
      vertex 103.505 -71.927 24
    endloop
  endfacet
  facet normal 0 0 1
    outer loop
      vertex 104.045 -72.9389 24
      vertex 103.236 -72.3511 24
      vertex 103.645 -73.4227 24
    endloop
  endfacet
  facet normal -0 0 1
    outer loop
      vertex 102.916 -72.7382 24
      vertex 103.645 -73.4227 24
      vertex 103.236 -72.3511 24
    endloop
  endfacet
  facet normal 0 0 1
    outer loop
      vertex 103.645 -73.4227 24
      vertex 102.916 -72.7382 24
      vertex 103.187 -73.8526 24
    endloop
  endfacet
  facet normal -0 0 1
    outer loop
      vertex 102.55 -73.0821 24
      vertex 103.187 -73.8526 24
      vertex 102.916 -72.7382 24
    endloop
  endfacet
  facet normal 0 0 1
    outer loop
      vertex 103.187 -73.8526 24
      vertex 102.55 -73.0821 24
      vertex 102.679 -74.2216 24
    endloop
  endfacet
  facet normal -0 0 1
    outer loop
      vertex 102.143 -73.3773 24
      vertex 102.679 -74.2216 24
      vertex 102.55 -73.0821 24
    endloop
  endfacet
  facet normal 0 0 1
    outer loop
      vertex 102.143 -73.3773 24
      vertex 102.129 -74.5241 24
      vertex 102.679 -74.2216 24
    endloop
  endfacet
  facet normal -0 0 1
    outer loop
      vertex 101.703 -73.6193 24
      vertex 102.129 -74.5241 24
      vertex 102.143 -73.3773 24
    endloop
  endfacet
  facet normal 0 0 1
    outer loop
      vertex 101.703 -73.6193 24
      vertex 101.545 -74.7553 24
      vertex 102.129 -74.5241 24
    endloop
  endfacet
  facet normal -0 0 1
    outer loop
      vertex 101.236 -73.8042 24
      vertex 101.545 -74.7553 24
      vertex 101.703 -73.6193 24
    endloop
  endfacet
  facet normal 0 0 1
    outer loop
      vertex 101.236 -73.8042 24
      vertex 100.937 -74.9114 24
      vertex 101.545 -74.7553 24
    endloop
  endfacet
  facet normal -0 0 1
    outer loop
      vertex 100.75 -73.9291 24
      vertex 100.937 -74.9114 24
      vertex 101.236 -73.8042 24
    endloop
  endfacet
  facet normal 0 0 1
    outer loop
      vertex 100.75 -73.9291 24
      vertex 100.314 -74.9901 24
      vertex 100.937 -74.9114 24
    endloop
  endfacet
  facet normal -0 0 1
    outer loop
      vertex 100.251 -73.9921 24
      vertex 100.314 -74.9901 24
      vertex 100.75 -73.9291 24
    endloop
  endfacet
  facet normal -0 0 1
    outer loop
      vertex -100.251 -73.9921 24
      vertex 100.314 -74.9901 24
      vertex 100.251 -73.9921 24
    endloop
  endfacet
  facet normal 0 0 1
    outer loop
      vertex -100.251 -73.9921 24
      vertex -100.314 -74.9901 24
      vertex 100.314 -74.9901 24
    endloop
  endfacet
  facet normal 0 0 1
    outer loop
      vertex -100.75 -73.9291 24
      vertex -100.314 -74.9901 24
      vertex -100.251 -73.9921 24
    endloop
  endfacet
  facet normal 0 0 1
    outer loop
      vertex -100.75 -73.9291 24
      vertex -100.937 -74.9114 24
      vertex -100.314 -74.9901 24
    endloop
  endfacet
  facet normal 0 0 1
    outer loop
      vertex -101.236 -73.8042 24
      vertex -100.937 -74.9114 24
      vertex -100.75 -73.9291 24
    endloop
  endfacet
  facet normal 0 0 1
    outer loop
      vertex -101.236 -73.8042 24
      vertex -101.545 -74.7553 24
      vertex -100.937 -74.9114 24
    endloop
  endfacet
  facet normal 0 0 1
    outer loop
      vertex -101.703 -73.6193 24
      vertex -101.545 -74.7553 24
      vertex -101.236 -73.8042 24
    endloop
  endfacet
  facet normal 0 0 1
    outer loop
      vertex -101.703 -73.6193 24
      vertex -102.129 -74.5241 24
      vertex -101.545 -74.7553 24
    endloop
  endfacet
  facet normal 0 0 1
    outer loop
      vertex -102.143 -73.3773 24
      vertex -102.129 -74.5241 24
      vertex -101.703 -73.6193 24
    endloop
  endfacet
  facet normal 0 0 1
    outer loop
      vertex -102.679 -74.2216 24
      vertex -102.143 -73.3773 24
      vertex -102.55 -73.0821 24
    endloop
  endfacet
  facet normal 0 0 1
    outer loop
      vertex -102.143 -73.3773 24
      vertex -102.679 -74.2216 24
      vertex -102.129 -74.5241 24
    endloop
  endfacet
  facet normal 0 0 1
    outer loop
      vertex -103.187 -73.8526 24
      vertex -102.55 -73.0821 24
      vertex -102.916 -72.7382 24
    endloop
  endfacet
  facet normal 0 0 1
    outer loop
      vertex -102.55 -73.0821 24
      vertex -103.187 -73.8526 24
      vertex -102.679 -74.2216 24
    endloop
  endfacet
  facet normal 0 0 1
    outer loop
      vertex -103.645 -73.4227 24
      vertex -102.916 -72.7382 24
      vertex -103.236 -72.3511 24
    endloop
  endfacet
  facet normal 0 0 1
    outer loop
      vertex -104.045 -72.9389 24
      vertex -103.236 -72.3511 24
      vertex -103.505 -71.927 24
    endloop
  endfacet
  facet normal 0 0 1
    outer loop
      vertex -102.916 -72.7382 24
      vertex -103.645 -73.4227 24
      vertex -103.187 -73.8526 24
    endloop
  endfacet
  facet normal 0 0 1
    outer loop
      vertex -104.382 -72.4088 24
      vertex -103.505 -71.927 24
      vertex -103.719 -71.4725 24
    endloop
  endfacet
  facet normal 0 0 1
    outer loop
      vertex -104.649 -71.8406 24
      vertex -103.719 -71.4725 24
      vertex -103.874 -70.9948 24
    endloop
  endfacet
  facet normal 0 0 1
    outer loop
      vertex -104.843 -71.2434 24
      vertex -103.874 -70.9948 24
      vertex -103.968 -70.5013 24
    endloop
  endfacet
  facet normal 0 0 1
    outer loop
      vertex -103.236 -72.3511 24
      vertex -104.045 -72.9389 24
      vertex -103.645 -73.4227 24
    endloop
  endfacet
  facet normal 0 0 1
    outer loop
      vertex -104.961 -70.6267 24
      vertex -103.968 -70.5013 24
      vertex -104 -70 24
    endloop
  endfacet
  facet normal 0 0 1
    outer loop
      vertex -104 70 24
      vertex -105 70 24
      vertex -104 -70 24
    endloop
  endfacet
  facet normal 0 0 1
    outer loop
      vertex -103.874 70.9948 24
      vertex -104.843 71.2434 24
      vertex -103.968 70.5013 24
    endloop
  endfacet
  facet normal 0 0 1
    outer loop
      vertex -105 -70 24
      vertex -104 -70 24
      vertex -105 70 24
    endloop
  endfacet
  facet normal -0 0 1
    outer loop
      vertex -104.961 70.6267 24
      vertex -103.968 70.5013 24
      vertex -104.843 71.2434 24
    endloop
  endfacet
  facet normal 0 -0 1
    outer loop
      vertex -104.961 -70.6267 24
      vertex -104 -70 24
      vertex -105 -70 24
    endloop
  endfacet
  facet normal 0 0 1
    outer loop
      vertex -103.968 70.5013 24
      vertex -104.961 70.6267 24
      vertex -104 70 24
    endloop
  endfacet
  facet normal 0 0 1
    outer loop
      vertex -103.505 -71.927 24
      vertex -104.382 -72.4088 24
      vertex -104.045 -72.9389 24
    endloop
  endfacet
  facet normal 0 0 1
    outer loop
      vertex -104 70 24
      vertex -104.961 70.6267 24
      vertex -105 70 24
    endloop
  endfacet
  facet normal 0 0 1
    outer loop
      vertex -103.719 -71.4725 24
      vertex -104.649 -71.8406 24
      vertex -104.382 -72.4088 24
    endloop
  endfacet
  facet normal 0 0 1
    outer loop
      vertex -103.874 -70.9948 24
      vertex -104.843 -71.2434 24
      vertex -104.649 -71.8406 24
    endloop
  endfacet
  facet normal 0 0 1
    outer loop
      vertex -103.968 -70.5013 24
      vertex -104.961 -70.6267 24
      vertex -104.843 -71.2434 24
    endloop
  endfacet
  facet normal 0 1 -0
    outer loop
      vertex 100.314 74.9901 0
      vertex -100.314 74.9901 24
      vertex 100.314 74.9901 24
    endloop
  endfacet
  facet normal 0 1 0
    outer loop
      vertex -100.314 74.9901 24
      vertex 100.314 74.9901 0
      vertex -100.314 74.9901 0
    endloop
  endfacet
  facet normal 0.684386 0.72912 -0
    outer loop
      vertex 103.645 73.4227 0
      vertex 103.187 73.8526 24
      vertex 103.645 73.4227 24
    endloop
  endfacet
  facet normal 0.684386 0.72912 0
    outer loop
      vertex 103.187 73.8526 24
      vertex 103.645 73.4227 0
      vertex 103.187 73.8526 0
    endloop
  endfacet
  facet normal -0.125328 0.992115 0
    outer loop
      vertex -100.314 74.9901 0
      vertex -100.937 74.9114 24
      vertex -100.314 74.9901 24
    endloop
  endfacet
  facet normal -0.125328 0.992115 0
    outer loop
      vertex -100.937 74.9114 24
      vertex -100.314 74.9901 0
      vertex -100.937 74.9114 0
    endloop
  endfacet
  facet normal 0 -1 0
    outer loop
      vertex -100.314 -74.9901 0
      vertex 100.314 -74.9901 24
      vertex -100.314 -74.9901 24
    endloop
  endfacet
  facet normal 0 -1 -0
    outer loop
      vertex 100.314 -74.9901 24
      vertex -100.314 -74.9901 0
      vertex 100.314 -74.9901 0
    endloop
  endfacet
  facet normal 0.125328 0.992115 -0
    outer loop
      vertex 100.937 74.9114 0
      vertex 100.314 74.9901 24
      vertex 100.937 74.9114 24
    endloop
  endfacet
  facet normal 0.125328 0.992115 0
    outer loop
      vertex 100.314 74.9901 24
      vertex 100.937 74.9114 0
      vertex 100.314 74.9901 0
    endloop
  endfacet
  facet normal 0.998069 0.0621106 0
    outer loop
      vertex 105 70 24
      vertex 104.961 70.6267 0
      vertex 104.961 70.6267 24
    endloop
  endfacet
  facet normal 0.998069 0.0621106 0
    outer loop
      vertex 104.961 70.6267 0
      vertex 105 70 24
      vertex 105 70 0
    endloop
  endfacet
  facet normal -0.248678 0.968586 0
    outer loop
      vertex -100.937 74.9114 0
      vertex -101.545 74.7553 24
      vertex -100.937 74.9114 24
    endloop
  endfacet
  facet normal -0.248678 0.968586 0
    outer loop
      vertex -101.545 74.7553 24
      vertex -100.937 74.9114 0
      vertex -101.545 74.7553 0
    endloop
  endfacet
  facet normal -0.770696 0.637202 0
    outer loop
      vertex -104.045 72.9389 0
      vertex -103.645 73.4227 24
      vertex -103.645 73.4227 0
    endloop
  endfacet
  facet normal -0.770696 0.637202 0
    outer loop
      vertex -103.645 73.4227 24
      vertex -104.045 72.9389 0
      vertex -104.045 72.9389 24
    endloop
  endfacet
  facet normal 1 -0 0
    outer loop
      vertex 105 -70 24
      vertex 105 70 0
      vertex 105 70 24
    endloop
  endfacet
  facet normal 1 0 0
    outer loop
      vertex 105 70 0
      vertex 105 -70 24
      vertex 105 -70 0
    endloop
  endfacet
  facet normal -0.368094 0.929788 0
    outer loop
      vertex -101.545 74.7553 0
      vertex -102.129 74.5241 24
      vertex -101.545 74.7553 24
    endloop
  endfacet
  facet normal -0.368094 0.929788 0
    outer loop
      vertex -102.129 74.5241 24
      vertex -101.545 74.7553 0
      vertex -102.129 74.5241 0
    endloop
  endfacet
  facet normal 0.951076 0.308956 0
    outer loop
      vertex 104.843 71.2434 24
      vertex 104.649 71.8406 0
      vertex 104.649 71.8406 24
    endloop
  endfacet
  facet normal 0.951076 0.308956 0
    outer loop
      vertex 104.649 71.8406 0
      vertex 104.843 71.2434 24
      vertex 104.843 71.2434 0
    endloop
  endfacet
  facet normal -0.684386 0.72912 0
    outer loop
      vertex -103.187 73.8526 0
      vertex -103.645 73.4227 24
      vertex -103.187 73.8526 24
    endloop
  endfacet
  facet normal -0.684386 0.72912 0
    outer loop
      vertex -103.645 73.4227 24
      vertex -103.187 73.8526 0
      vertex -103.645 73.4227 0
    endloop
  endfacet
  facet normal -0.248678 -0.968586 0
    outer loop
      vertex -101.545 -74.7553 0
      vertex -100.937 -74.9114 24
      vertex -101.545 -74.7553 24
    endloop
  endfacet
  facet normal -0.248678 -0.968586 -0
    outer loop
      vertex -100.937 -74.9114 24
      vertex -101.545 -74.7553 0
      vertex -100.937 -74.9114 0
    endloop
  endfacet
  facet normal -0.770696 -0.637202 0
    outer loop
      vertex -103.645 -73.4227 0
      vertex -104.045 -72.9389 24
      vertex -104.045 -72.9389 0
    endloop
  endfacet
  facet normal -0.770696 -0.637202 0
    outer loop
      vertex -104.045 -72.9389 24
      vertex -103.645 -73.4227 0
      vertex -103.645 -73.4227 24
    endloop
  endfacet
  facet normal -1 0 0
    outer loop
      vertex -105 -70 0
      vertex -105 70 24
      vertex -105 70 0
    endloop
  endfacet
  facet normal -1 -0 0
    outer loop
      vertex -105 70 24
      vertex -105 -70 0
      vertex -105 -70 24
    endloop
  endfacet
  facet normal -0.998069 0.0621106 0
    outer loop
      vertex -105 70 0
      vertex -104.961 70.6267 24
      vertex -104.961 70.6267 0
    endloop
  endfacet
  facet normal -0.998069 0.0621106 0
    outer loop
      vertex -104.961 70.6267 24
      vertex -105 70 0
      vertex -105 70 24
    endloop
  endfacet
  facet normal 0.770696 0.637202 0
    outer loop
      vertex 104.045 72.9389 24
      vertex 103.645 73.4227 0
      vertex 103.645 73.4227 24
    endloop
  endfacet
  facet normal 0.770696 0.637202 0
    outer loop
      vertex 103.645 73.4227 0
      vertex 104.045 72.9389 24
      vertex 104.045 72.9389 0
    endloop
  endfacet
  facet normal 0.982182 0.187932 0
    outer loop
      vertex 104.961 70.6267 24
      vertex 104.843 71.2434 0
      vertex 104.843 71.2434 24
    endloop
  endfacet
  facet normal 0.982182 0.187932 0
    outer loop
      vertex 104.843 71.2434 0
      vertex 104.961 70.6267 24
      vertex 104.961 70.6267 0
    endloop
  endfacet
  facet normal 0.951076 -0.308956 0
    outer loop
      vertex 104.649 -71.8406 24
      vertex 104.843 -71.2434 0
      vertex 104.843 -71.2434 24
    endloop
  endfacet
  facet normal 0.951076 -0.308956 0
    outer loop
      vertex 104.843 -71.2434 0
      vertex 104.649 -71.8406 24
      vertex 104.649 -71.8406 0
    endloop
  endfacet
  facet normal 0.684386 -0.72912 0
    outer loop
      vertex 103.187 -73.8526 0
      vertex 103.645 -73.4227 24
      vertex 103.187 -73.8526 24
    endloop
  endfacet
  facet normal 0.684386 -0.72912 0
    outer loop
      vertex 103.645 -73.4227 24
      vertex 103.187 -73.8526 0
      vertex 103.645 -73.4227 0
    endloop
  endfacet
  facet normal -0.481919 -0.876216 0
    outer loop
      vertex -102.679 -74.2216 0
      vertex -102.129 -74.5241 24
      vertex -102.679 -74.2216 24
    endloop
  endfacet
  facet normal -0.481919 -0.876216 -0
    outer loop
      vertex -102.129 -74.5241 24
      vertex -102.679 -74.2216 0
      vertex -102.129 -74.5241 0
    endloop
  endfacet
  facet normal -0.481919 0.876216 0
    outer loop
      vertex -102.129 74.5241 0
      vertex -102.679 74.2216 24
      vertex -102.129 74.5241 24
    endloop
  endfacet
  facet normal -0.481919 0.876216 0
    outer loop
      vertex -102.679 74.2216 24
      vertex -102.129 74.5241 0
      vertex -102.679 74.2216 0
    endloop
  endfacet
  facet normal 0.248678 0.968586 -0
    outer loop
      vertex 101.545 74.7553 0
      vertex 100.937 74.9114 24
      vertex 101.545 74.7553 24
    endloop
  endfacet
  facet normal 0.248678 0.968586 0
    outer loop
      vertex 100.937 74.9114 24
      vertex 101.545 74.7553 0
      vertex 100.937 74.9114 0
    endloop
  endfacet
  facet normal 0.368094 0.929788 -0
    outer loop
      vertex 102.129 74.5241 0
      vertex 101.545 74.7553 24
      vertex 102.129 74.5241 24
    endloop
  endfacet
  facet normal 0.368094 0.929788 0
    outer loop
      vertex 101.545 74.7553 24
      vertex 102.129 74.5241 0
      vertex 101.545 74.7553 0
    endloop
  endfacet
  facet normal 0.481919 0.876216 -0
    outer loop
      vertex 102.679 74.2216 0
      vertex 102.129 74.5241 24
      vertex 102.679 74.2216 24
    endloop
  endfacet
  facet normal 0.481919 0.876216 0
    outer loop
      vertex 102.129 74.5241 24
      vertex 102.679 74.2216 0
      vertex 102.129 74.5241 0
    endloop
  endfacet
  facet normal 0.905057 0.425291 0
    outer loop
      vertex 104.649 71.8406 24
      vertex 104.382 72.4088 0
      vertex 104.382 72.4088 24
    endloop
  endfacet
  facet normal 0.905057 0.425291 0
    outer loop
      vertex 104.382 72.4088 0
      vertex 104.649 71.8406 24
      vertex 104.649 71.8406 0
    endloop
  endfacet
  facet normal 0.843904 0.536494 0
    outer loop
      vertex 104.382 72.4088 24
      vertex 104.045 72.9389 0
      vertex 104.045 72.9389 24
    endloop
  endfacet
  facet normal 0.843904 0.536494 0
    outer loop
      vertex 104.045 72.9389 0
      vertex 104.382 72.4088 24
      vertex 104.382 72.4088 0
    endloop
  endfacet
  facet normal 0.770696 -0.637202 0
    outer loop
      vertex 103.645 -73.4227 24
      vertex 104.045 -72.9389 0
      vertex 104.045 -72.9389 24
    endloop
  endfacet
  facet normal 0.770696 -0.637202 0
    outer loop
      vertex 104.045 -72.9389 0
      vertex 103.645 -73.4227 24
      vertex 103.645 -73.4227 0
    endloop
  endfacet
  facet normal -0.368094 -0.929788 0
    outer loop
      vertex -102.129 -74.5241 0
      vertex -101.545 -74.7553 24
      vertex -102.129 -74.5241 24
    endloop
  endfacet
  facet normal -0.368094 -0.929788 -0
    outer loop
      vertex -101.545 -74.7553 24
      vertex -102.129 -74.5241 0
      vertex -101.545 -74.7553 0
    endloop
  endfacet
  facet normal -0.125328 -0.992115 0
    outer loop
      vertex -100.937 -74.9114 0
      vertex -100.314 -74.9901 24
      vertex -100.937 -74.9114 24
    endloop
  endfacet
  facet normal -0.125328 -0.992115 -0
    outer loop
      vertex -100.314 -74.9901 24
      vertex -100.937 -74.9114 0
      vertex -100.314 -74.9901 0
    endloop
  endfacet
  facet normal -0.684386 -0.72912 0
    outer loop
      vertex -103.645 -73.4227 0
      vertex -103.187 -73.8526 24
      vertex -103.645 -73.4227 24
    endloop
  endfacet
  facet normal -0.684386 -0.72912 -0
    outer loop
      vertex -103.187 -73.8526 24
      vertex -103.645 -73.4227 0
      vertex -103.187 -73.8526 0
    endloop
  endfacet
  facet normal -0.998069 -0.0621106 0
    outer loop
      vertex -104.961 -70.6267 0
      vertex -105 -70 24
      vertex -105 -70 0
    endloop
  endfacet
  facet normal -0.998069 -0.0621106 0
    outer loop
      vertex -105 -70 24
      vertex -104.961 -70.6267 0
      vertex -104.961 -70.6267 24
    endloop
  endfacet
  facet normal -0.843904 0.536494 0
    outer loop
      vertex -104.382 72.4088 0
      vertex -104.045 72.9389 24
      vertex -104.045 72.9389 0
    endloop
  endfacet
  facet normal -0.843904 0.536494 0
    outer loop
      vertex -104.045 72.9389 24
      vertex -104.382 72.4088 0
      vertex -104.382 72.4088 24
    endloop
  endfacet
  facet normal -0.951076 0.308956 0
    outer loop
      vertex -104.843 71.2434 0
      vertex -104.649 71.8406 24
      vertex -104.649 71.8406 0
    endloop
  endfacet
  facet normal -0.951076 0.308956 0
    outer loop
      vertex -104.649 71.8406 24
      vertex -104.843 71.2434 0
      vertex -104.843 71.2434 24
    endloop
  endfacet
  facet normal 0.587698 0.80908 -0
    outer loop
      vertex 103.187 73.8526 0
      vertex 102.679 74.2216 24
      vertex 103.187 73.8526 24
    endloop
  endfacet
  facet normal 0.587698 0.80908 0
    outer loop
      vertex 102.679 74.2216 24
      vertex 103.187 73.8526 0
      vertex 102.679 74.2216 0
    endloop
  endfacet
  facet normal 0.843904 -0.536494 0
    outer loop
      vertex 104.045 -72.9389 24
      vertex 104.382 -72.4088 0
      vertex 104.382 -72.4088 24
    endloop
  endfacet
  facet normal 0.843904 -0.536494 0
    outer loop
      vertex 104.382 -72.4088 0
      vertex 104.045 -72.9389 24
      vertex 104.045 -72.9389 0
    endloop
  endfacet
  facet normal 0.905057 -0.425291 0
    outer loop
      vertex 104.382 -72.4088 24
      vertex 104.649 -71.8406 0
      vertex 104.649 -71.8406 24
    endloop
  endfacet
  facet normal 0.905057 -0.425291 0
    outer loop
      vertex 104.649 -71.8406 0
      vertex 104.382 -72.4088 24
      vertex 104.382 -72.4088 0
    endloop
  endfacet
  facet normal 0.125328 -0.992115 0
    outer loop
      vertex 100.314 -74.9901 0
      vertex 100.937 -74.9114 24
      vertex 100.314 -74.9901 24
    endloop
  endfacet
  facet normal 0.125328 -0.992115 0
    outer loop
      vertex 100.937 -74.9114 24
      vertex 100.314 -74.9901 0
      vertex 100.937 -74.9114 0
    endloop
  endfacet
  facet normal 0.368094 -0.929788 0
    outer loop
      vertex 101.545 -74.7553 0
      vertex 102.129 -74.5241 24
      vertex 101.545 -74.7553 24
    endloop
  endfacet
  facet normal 0.368094 -0.929788 0
    outer loop
      vertex 102.129 -74.5241 24
      vertex 101.545 -74.7553 0
      vertex 102.129 -74.5241 0
    endloop
  endfacet
  facet normal -0.587698 -0.80908 0
    outer loop
      vertex -103.187 -73.8526 0
      vertex -102.679 -74.2216 24
      vertex -103.187 -73.8526 24
    endloop
  endfacet
  facet normal -0.587698 -0.80908 -0
    outer loop
      vertex -102.679 -74.2216 24
      vertex -103.187 -73.8526 0
      vertex -102.679 -74.2216 0
    endloop
  endfacet
  facet normal -0.905057 -0.425291 0
    outer loop
      vertex -104.382 -72.4088 0
      vertex -104.649 -71.8406 24
      vertex -104.649 -71.8406 0
    endloop
  endfacet
  facet normal -0.905057 -0.425291 0
    outer loop
      vertex -104.649 -71.8406 24
      vertex -104.382 -72.4088 0
      vertex -104.382 -72.4088 24
    endloop
  endfacet
  facet normal -0.843904 -0.536494 0
    outer loop
      vertex -104.045 -72.9389 0
      vertex -104.382 -72.4088 24
      vertex -104.382 -72.4088 0
    endloop
  endfacet
  facet normal -0.843904 -0.536494 0
    outer loop
      vertex -104.382 -72.4088 24
      vertex -104.045 -72.9389 0
      vertex -104.045 -72.9389 24
    endloop
  endfacet
  facet normal -0.951076 -0.308956 0
    outer loop
      vertex -104.649 -71.8406 0
      vertex -104.843 -71.2434 24
      vertex -104.843 -71.2434 0
    endloop
  endfacet
  facet normal -0.951076 -0.308956 0
    outer loop
      vertex -104.843 -71.2434 24
      vertex -104.649 -71.8406 0
      vertex -104.649 -71.8406 24
    endloop
  endfacet
  facet normal -0.587698 0.80908 0
    outer loop
      vertex -102.679 74.2216 0
      vertex -103.187 73.8526 24
      vertex -102.679 74.2216 24
    endloop
  endfacet
  facet normal -0.587698 0.80908 0
    outer loop
      vertex -103.187 73.8526 24
      vertex -102.679 74.2216 0
      vertex -103.187 73.8526 0
    endloop
  endfacet
  facet normal -0.905057 0.425291 0
    outer loop
      vertex -104.649 71.8406 0
      vertex -104.382 72.4088 24
      vertex -104.382 72.4088 0
    endloop
  endfacet
  facet normal -0.905057 0.425291 0
    outer loop
      vertex -104.382 72.4088 24
      vertex -104.649 71.8406 0
      vertex -104.649 71.8406 24
    endloop
  endfacet
  facet normal 0.998069 -0.0621106 0
    outer loop
      vertex 104.961 -70.6267 24
      vertex 105 -70 0
      vertex 105 -70 24
    endloop
  endfacet
  facet normal 0.998069 -0.0621106 0
    outer loop
      vertex 105 -70 0
      vertex 104.961 -70.6267 24
      vertex 104.961 -70.6267 0
    endloop
  endfacet
  facet normal 0.982182 -0.187932 0
    outer loop
      vertex 104.843 -71.2434 24
      vertex 104.961 -70.6267 0
      vertex 104.961 -70.6267 24
    endloop
  endfacet
  facet normal 0.982182 -0.187932 0
    outer loop
      vertex 104.961 -70.6267 0
      vertex 104.843 -71.2434 24
      vertex 104.843 -71.2434 0
    endloop
  endfacet
  facet normal 0.587698 -0.80908 0
    outer loop
      vertex 102.679 -74.2216 0
      vertex 103.187 -73.8526 24
      vertex 102.679 -74.2216 24
    endloop
  endfacet
  facet normal 0.587698 -0.80908 0
    outer loop
      vertex 103.187 -73.8526 24
      vertex 102.679 -74.2216 0
      vertex 103.187 -73.8526 0
    endloop
  endfacet
  facet normal 0.481919 -0.876216 0
    outer loop
      vertex 102.129 -74.5241 0
      vertex 102.679 -74.2216 24
      vertex 102.129 -74.5241 24
    endloop
  endfacet
  facet normal 0.481919 -0.876216 0
    outer loop
      vertex 102.679 -74.2216 24
      vertex 102.129 -74.5241 0
      vertex 102.679 -74.2216 0
    endloop
  endfacet
  facet normal 0.248678 -0.968586 0
    outer loop
      vertex 100.937 -74.9114 0
      vertex 101.545 -74.7553 24
      vertex 100.937 -74.9114 24
    endloop
  endfacet
  facet normal 0.248678 -0.968586 0
    outer loop
      vertex 101.545 -74.7553 24
      vertex 100.937 -74.9114 0
      vertex 101.545 -74.7553 0
    endloop
  endfacet
  facet normal 0 0 -1
    outer loop
      vertex 100.314 -74.9901 0
      vertex 105 -70 0
      vertex 104.961 -70.6267 0
    endloop
  endfacet
  facet normal -0 0 -1
    outer loop
      vertex 105 -70 0
      vertex 100.314 -74.9901 0
      vertex 105 70 0
    endloop
  endfacet
  facet normal 0 0 -1
    outer loop
      vertex 100.314 -74.9901 0
      vertex 104.961 -70.6267 0
      vertex 104.843 -71.2434 0
    endloop
  endfacet
  facet normal 0 0 -1
    outer loop
      vertex 100.314 74.9901 0
      vertex 105 70 0
      vertex 100.314 -74.9901 0
    endloop
  endfacet
  facet normal 0 0 -1
    outer loop
      vertex 100.314 -74.9901 0
      vertex 104.843 -71.2434 0
      vertex 104.649 -71.8406 0
    endloop
  endfacet
  facet normal 0 0 -1
    outer loop
      vertex 105 70 0
      vertex 100.314 74.9901 0
      vertex 104.961 70.6267 0
    endloop
  endfacet
  facet normal 0 0 -1
    outer loop
      vertex 100.314 -74.9901 0
      vertex 104.649 -71.8406 0
      vertex 104.382 -72.4088 0
    endloop
  endfacet
  facet normal 0 0 -1
    outer loop
      vertex 104.961 70.6267 0
      vertex 100.314 74.9901 0
      vertex 104.843 71.2434 0
    endloop
  endfacet
  facet normal 0 0 -1
    outer loop
      vertex 100.314 -74.9901 0
      vertex 104.382 -72.4088 0
      vertex 104.045 -72.9389 0
    endloop
  endfacet
  facet normal 0 0 -1
    outer loop
      vertex 104.843 71.2434 0
      vertex 100.314 74.9901 0
      vertex 104.649 71.8406 0
    endloop
  endfacet
  facet normal 0 0 -1
    outer loop
      vertex 100.314 -74.9901 0
      vertex 104.045 -72.9389 0
      vertex 103.645 -73.4227 0
    endloop
  endfacet
  facet normal 0 0 -1
    outer loop
      vertex 104.649 71.8406 0
      vertex 100.314 74.9901 0
      vertex 104.382 72.4088 0
    endloop
  endfacet
  facet normal 0 0 -1
    outer loop
      vertex 100.314 -74.9901 0
      vertex 103.645 -73.4227 0
      vertex 103.187 -73.8526 0
    endloop
  endfacet
  facet normal 0 0 -1
    outer loop
      vertex 104.382 72.4088 0
      vertex 100.314 74.9901 0
      vertex 104.045 72.9389 0
    endloop
  endfacet
  facet normal 0 0 -1
    outer loop
      vertex 100.314 -74.9901 0
      vertex 103.187 -73.8526 0
      vertex 102.679 -74.2216 0
    endloop
  endfacet
  facet normal 0 0 -1
    outer loop
      vertex 104.045 72.9389 0
      vertex 100.314 74.9901 0
      vertex 103.645 73.4227 0
    endloop
  endfacet
  facet normal 0 0 -1
    outer loop
      vertex 100.314 -74.9901 0
      vertex 102.679 -74.2216 0
      vertex 102.129 -74.5241 0
    endloop
  endfacet
  facet normal 0 0 -1
    outer loop
      vertex 103.645 73.4227 0
      vertex 100.314 74.9901 0
      vertex 103.187 73.8526 0
    endloop
  endfacet
  facet normal 0 0 -1
    outer loop
      vertex 100.314 -74.9901 0
      vertex 102.129 -74.5241 0
      vertex 101.545 -74.7553 0
    endloop
  endfacet
  facet normal 0 0 -1
    outer loop
      vertex 103.187 73.8526 0
      vertex 100.314 74.9901 0
      vertex 102.679 74.2216 0
    endloop
  endfacet
  facet normal 0 0 -1
    outer loop
      vertex 100.314 -74.9901 0
      vertex 101.545 -74.7553 0
      vertex 100.937 -74.9114 0
    endloop
  endfacet
  facet normal 0 0 -1
    outer loop
      vertex 102.679 74.2216 0
      vertex 100.314 74.9901 0
      vertex 102.129 74.5241 0
    endloop
  endfacet
  facet normal 0 0 -1
    outer loop
      vertex 102.129 74.5241 0
      vertex 100.314 74.9901 0
      vertex 101.545 74.7553 0
    endloop
  endfacet
  facet normal 0 0 -1
    outer loop
      vertex 101.545 74.7553 0
      vertex 100.314 74.9901 0
      vertex 100.937 74.9114 0
    endloop
  endfacet
  facet normal 0 0 -1
    outer loop
      vertex -100.314 -74.9901 0
      vertex 100.314 74.9901 0
      vertex 100.314 -74.9901 0
    endloop
  endfacet
  facet normal 0 0 -1
    outer loop
      vertex -100.314 -74.9901 0
      vertex -100.314 74.9901 0
      vertex 100.314 74.9901 0
    endloop
  endfacet
  facet normal 0 0 -1
    outer loop
      vertex -105 -70 0
      vertex -100.314 -74.9901 0
      vertex -100.937 -74.9114 0
    endloop
  endfacet
  facet normal 0 0 -1
    outer loop
      vertex -100.314 -74.9901 0
      vertex -105 -70 0
      vertex -100.314 74.9901 0
    endloop
  endfacet
  facet normal 0 0 -1
    outer loop
      vertex -105 -70 0
      vertex -100.937 -74.9114 0
      vertex -101.545 -74.7553 0
    endloop
  endfacet
  facet normal 0 0 -1
    outer loop
      vertex -105 70 0
      vertex -100.314 74.9901 0
      vertex -105 -70 0
    endloop
  endfacet
  facet normal 0 0 -1
    outer loop
      vertex -105 -70 0
      vertex -101.545 -74.7553 0
      vertex -102.129 -74.5241 0
    endloop
  endfacet
  facet normal 0 0 -1
    outer loop
      vertex -100.314 74.9901 0
      vertex -105 70 0
      vertex -100.937 74.9114 0
    endloop
  endfacet
  facet normal 0 0 -1
    outer loop
      vertex -105 -70 0
      vertex -102.129 -74.5241 0
      vertex -102.679 -74.2216 0
    endloop
  endfacet
  facet normal 0 0 -1
    outer loop
      vertex -100.937 74.9114 0
      vertex -105 70 0
      vertex -101.545 74.7553 0
    endloop
  endfacet
  facet normal 0 0 -1
    outer loop
      vertex -105 -70 0
      vertex -102.679 -74.2216 0
      vertex -103.187 -73.8526 0
    endloop
  endfacet
  facet normal 0 0 -1
    outer loop
      vertex -101.545 74.7553 0
      vertex -105 70 0
      vertex -102.129 74.5241 0
    endloop
  endfacet
  facet normal 0 0 -1
    outer loop
      vertex -105 -70 0
      vertex -103.187 -73.8526 0
      vertex -103.645 -73.4227 0
    endloop
  endfacet
  facet normal 0 0 -1
    outer loop
      vertex -102.129 74.5241 0
      vertex -105 70 0
      vertex -102.679 74.2216 0
    endloop
  endfacet
  facet normal 0 0 -1
    outer loop
      vertex -105 -70 0
      vertex -103.645 -73.4227 0
      vertex -104.045 -72.9389 0
    endloop
  endfacet
  facet normal 0 0 -1
    outer loop
      vertex -102.679 74.2216 0
      vertex -105 70 0
      vertex -103.187 73.8526 0
    endloop
  endfacet
  facet normal 0 0 -1
    outer loop
      vertex -105 -70 0
      vertex -104.045 -72.9389 0
      vertex -104.382 -72.4088 0
    endloop
  endfacet
  facet normal 0 0 -1
    outer loop
      vertex -103.187 73.8526 0
      vertex -105 70 0
      vertex -103.645 73.4227 0
    endloop
  endfacet
  facet normal 0 0 -1
    outer loop
      vertex -105 -70 0
      vertex -104.382 -72.4088 0
      vertex -104.649 -71.8406 0
    endloop
  endfacet
  facet normal 0 0 -1
    outer loop
      vertex -103.645 73.4227 0
      vertex -105 70 0
      vertex -104.045 72.9389 0
    endloop
  endfacet
  facet normal 0 0 -1
    outer loop
      vertex -105 -70 0
      vertex -104.649 -71.8406 0
      vertex -104.843 -71.2434 0
    endloop
  endfacet
  facet normal 0 0 -1
    outer loop
      vertex -104.045 72.9389 0
      vertex -105 70 0
      vertex -104.382 72.4088 0
    endloop
  endfacet
  facet normal 0 0 -1
    outer loop
      vertex -105 -70 0
      vertex -104.843 -71.2434 0
      vertex -104.961 -70.6267 0
    endloop
  endfacet
  facet normal 0 0 -1
    outer loop
      vertex -104.382 72.4088 0
      vertex -105 70 0
      vertex -104.649 71.8406 0
    endloop
  endfacet
  facet normal 0 0 -1
    outer loop
      vertex -104.649 71.8406 0
      vertex -105 70 0
      vertex -104.843 71.2434 0
    endloop
  endfacet
  facet normal 0 0 -1
    outer loop
      vertex -104.843 71.2434 0
      vertex -105 70 0
      vertex -104.961 70.6267 0
    endloop
  endfacet
  facet normal -0.982182 -0.187932 0
    outer loop
      vertex -104.843 -71.2434 0
      vertex -104.961 -70.6267 24
      vertex -104.961 -70.6267 0
    endloop
  endfacet
  facet normal -0.982182 -0.187932 0
    outer loop
      vertex -104.961 -70.6267 24
      vertex -104.843 -71.2434 0
      vertex -104.843 -71.2434 24
    endloop
  endfacet
  facet normal -0.982182 0.187932 0
    outer loop
      vertex -104.961 70.6267 0
      vertex -104.843 71.2434 24
      vertex -104.843 71.2434 0
    endloop
  endfacet
  facet normal -0.982182 0.187932 0
    outer loop
      vertex -104.843 71.2434 24
      vertex -104.961 70.6267 0
      vertex -104.961 70.6267 24
    endloop
  endfacet
  facet normal 0.125258 -0.992124 0
    outer loop
      vertex -100.75 73.9291 2
      vertex -100.251 73.9921 24
      vertex -100.75 73.9291 24
    endloop
  endfacet
  facet normal 0.125258 -0.992124 0
    outer loop
      vertex -100.251 73.9921 24
      vertex -100.75 73.9291 2
      vertex -100.251 73.9921 2
    endloop
  endfacet
  facet normal 0 -1 0
    outer loop
      vertex -100.251 73.9921 2
      vertex 100.251 73.9921 24
      vertex -100.251 73.9921 24
    endloop
  endfacet
  facet normal 0 -1 -0
    outer loop
      vertex 100.251 73.9921 24
      vertex -100.251 73.9921 2
      vertex 100.251 73.9921 2
    endloop
  endfacet
  facet normal 0.587131 0.809492 -0
    outer loop
      vertex -102.143 -73.3773 2
      vertex -102.55 -73.0821 24
      vertex -102.143 -73.3773 24
    endloop
  endfacet
  facet normal 0.587131 0.809492 0
    outer loop
      vertex -102.55 -73.0821 24
      vertex -102.143 -73.3773 2
      vertex -102.55 -73.0821 2
    endloop
  endfacet
  facet normal 0 1 -0
    outer loop
      vertex 100.251 -73.9921 2
      vertex -100.251 -73.9921 24
      vertex 100.251 -73.9921 24
    endloop
  endfacet
  facet normal 0 1 0
    outer loop
      vertex -100.251 -73.9921 24
      vertex 100.251 -73.9921 2
      vertex -100.251 -73.9921 2
    endloop
  endfacet
  facet normal 0.997969 0.0637044 0
    outer loop
      vertex -103.968 -70.5013 24
      vertex -104 -70 2
      vertex -104 -70 24
    endloop
  endfacet
  facet normal 0.997969 0.0637044 0
    outer loop
      vertex -104 -70 2
      vertex -103.968 -70.5013 24
      vertex -103.968 -70.5013 2
    endloop
  endfacet
  facet normal -1 0 0
    outer loop
      vertex 104 -70 2
      vertex 104 70 24
      vertex 104 70 2
    endloop
  endfacet
  facet normal -1 -0 0
    outer loop
      vertex 104 70 24
      vertex 104 -70 2
      vertex 104 -70 24
    endloop
  endfacet
  facet normal 0.248908 0.968527 -0
    outer loop
      vertex -100.75 -73.9291 2
      vertex -101.236 -73.8042 24
      vertex -100.75 -73.9291 24
    endloop
  endfacet
  facet normal 0.248908 0.968527 0
    outer loop
      vertex -101.236 -73.8042 24
      vertex -100.75 -73.9291 2
      vertex -101.236 -73.8042 2
    endloop
  endfacet
  facet normal 0.125258 0.992124 -0
    outer loop
      vertex -100.251 -73.9921 2
      vertex -100.75 -73.9291 24
      vertex -100.251 -73.9921 24
    endloop
  endfacet
  facet normal 0.125258 0.992124 0
    outer loop
      vertex -100.75 -73.9291 24
      vertex -100.251 -73.9921 2
      vertex -100.75 -73.9291 2
    endloop
  endfacet
  facet normal 1 -0 0
    outer loop
      vertex -104 -70 24
      vertex -104 70 2
      vertex -104 70 24
    endloop
  endfacet
  facet normal 1 0 0
    outer loop
      vertex -104 70 2
      vertex -104 -70 24
      vertex -104 -70 2
    endloop
  endfacet
  facet normal 0.904728 0.425989 0
    outer loop
      vertex -103.505 -71.927 24
      vertex -103.719 -71.4725 2
      vertex -103.719 -71.4725 24
    endloop
  endfacet
  facet normal 0.904728 0.425989 0
    outer loop
      vertex -103.719 -71.4725 2
      vertex -103.505 -71.927 24
      vertex -103.505 -71.927 2
    endloop
  endfacet
  facet normal 0.481919 -0.876216 0
    outer loop
      vertex -102.143 73.3773 2
      vertex -101.703 73.6193 24
      vertex -102.143 73.3773 24
    endloop
  endfacet
  facet normal 0.481919 -0.876216 0
    outer loop
      vertex -101.703 73.6193 24
      vertex -102.143 73.3773 2
      vertex -101.703 73.6193 2
    endloop
  endfacet
  facet normal -0.125258 -0.992124 0
    outer loop
      vertex 100.251 73.9921 2
      vertex 100.75 73.9291 24
      vertex 100.251 73.9921 24
    endloop
  endfacet
  facet normal -0.125258 -0.992124 -0
    outer loop
      vertex 100.75 73.9291 24
      vertex 100.251 73.9921 2
      vertex 100.75 73.9291 2
    endloop
  endfacet
  facet normal -0.951182 0.308631 0
    outer loop
      vertex 103.719 -71.4725 2
      vertex 103.874 -70.9948 24
      vertex 103.874 -70.9948 2
    endloop
  endfacet
  facet normal -0.951182 0.308631 0
    outer loop
      vertex 103.874 -70.9948 24
      vertex 103.719 -71.4725 2
      vertex 103.719 -71.4725 24
    endloop
  endfacet
  facet normal 0.368127 0.929775 -0
    outer loop
      vertex -101.236 -73.8042 2
      vertex -101.703 -73.6193 24
      vertex -101.236 -73.8042 24
    endloop
  endfacet
  facet normal 0.368127 0.929775 0
    outer loop
      vertex -101.703 -73.6193 24
      vertex -101.236 -73.8042 2
      vertex -101.703 -73.6193 2
    endloop
  endfacet
  facet normal 0.481919 0.876216 -0
    outer loop
      vertex -101.703 -73.6193 2
      vertex -102.143 -73.3773 24
      vertex -101.703 -73.6193 24
    endloop
  endfacet
  facet normal 0.481919 0.876216 0
    outer loop
      vertex -102.143 -73.3773 24
      vertex -101.703 -73.6193 2
      vertex -102.143 -73.3773 2
    endloop
  endfacet
  facet normal 0.684762 -0.728767 0
    outer loop
      vertex -102.916 72.7382 2
      vertex -102.55 73.0821 24
      vertex -102.916 72.7382 24
    endloop
  endfacet
  facet normal 0.684762 -0.728767 0
    outer loop
      vertex -102.55 73.0821 24
      vertex -102.916 72.7382 2
      vertex -102.55 73.0821 2
    endloop
  endfacet
  facet normal -0.587131 -0.809492 0
    outer loop
      vertex 102.143 73.3773 2
      vertex 102.55 73.0821 24
      vertex 102.143 73.3773 24
    endloop
  endfacet
  facet normal -0.587131 -0.809492 -0
    outer loop
      vertex 102.55 73.0821 24
      vertex 102.143 73.3773 2
      vertex 102.55 73.0821 2
    endloop
  endfacet
  facet normal -0.481919 -0.876216 0
    outer loop
      vertex 101.703 73.6193 2
      vertex 102.143 73.3773 24
      vertex 101.703 73.6193 24
    endloop
  endfacet
  facet normal -0.481919 -0.876216 -0
    outer loop
      vertex 102.143 73.3773 24
      vertex 101.703 73.6193 2
      vertex 102.143 73.3773 2
    endloop
  endfacet
  facet normal -0.248908 -0.968527 0
    outer loop
      vertex 100.75 73.9291 2
      vertex 101.236 73.8042 24
      vertex 100.75 73.9291 24
    endloop
  endfacet
  facet normal -0.248908 -0.968527 -0
    outer loop
      vertex 101.236 73.8042 24
      vertex 100.75 73.9291 2
      vertex 101.236 73.8042 2
    endloop
  endfacet
  facet normal -0.904728 -0.425989 0
    outer loop
      vertex 103.719 71.4725 2
      vertex 103.505 71.927 24
      vertex 103.505 71.927 2
    endloop
  endfacet
  facet normal -0.904728 -0.425989 0
    outer loop
      vertex 103.505 71.927 24
      vertex 103.719 71.4725 2
      vertex 103.719 71.4725 24
    endloop
  endfacet
  facet normal -0.951182 -0.308631 0
    outer loop
      vertex 103.874 70.9948 2
      vertex 103.719 71.4725 24
      vertex 103.719 71.4725 2
    endloop
  endfacet
  facet normal -0.951182 -0.308631 0
    outer loop
      vertex 103.719 71.4725 24
      vertex 103.874 70.9948 2
      vertex 103.874 70.9948 24
    endloop
  endfacet
  facet normal -0.770745 0.637144 0
    outer loop
      vertex 102.916 -72.7382 2
      vertex 103.236 -72.3511 24
      vertex 103.236 -72.3511 2
    endloop
  endfacet
  facet normal -0.770745 0.637144 0
    outer loop
      vertex 103.236 -72.3511 24
      vertex 102.916 -72.7382 2
      vertex 102.916 -72.7382 24
    endloop
  endfacet
  facet normal -0.904728 0.425989 0
    outer loop
      vertex 103.505 -71.927 2
      vertex 103.719 -71.4725 24
      vertex 103.719 -71.4725 2
    endloop
  endfacet
  facet normal -0.904728 0.425989 0
    outer loop
      vertex 103.719 -71.4725 24
      vertex 103.505 -71.927 2
      vertex 103.505 -71.927 24
    endloop
  endfacet
  facet normal -0.481919 0.876216 0
    outer loop
      vertex 102.143 -73.3773 2
      vertex 101.703 -73.6193 24
      vertex 102.143 -73.3773 24
    endloop
  endfacet
  facet normal -0.481919 0.876216 0
    outer loop
      vertex 101.703 -73.6193 24
      vertex 102.143 -73.3773 2
      vertex 101.703 -73.6193 2
    endloop
  endfacet
  facet normal 0.951182 0.308631 0
    outer loop
      vertex -103.719 -71.4725 24
      vertex -103.874 -70.9948 2
      vertex -103.874 -70.9948 24
    endloop
  endfacet
  facet normal 0.951182 0.308631 0
    outer loop
      vertex -103.874 -70.9948 2
      vertex -103.719 -71.4725 24
      vertex -103.719 -71.4725 2
    endloop
  endfacet
  facet normal 0.770745 0.637144 0
    outer loop
      vertex -102.916 -72.7382 24
      vertex -103.236 -72.3511 2
      vertex -103.236 -72.3511 24
    endloop
  endfacet
  facet normal 0.770745 0.637144 0
    outer loop
      vertex -103.236 -72.3511 2
      vertex -102.916 -72.7382 24
      vertex -102.916 -72.7382 2
    endloop
  endfacet
  facet normal 0.904728 -0.425989 0
    outer loop
      vertex -103.719 71.4725 24
      vertex -103.505 71.927 2
      vertex -103.505 71.927 24
    endloop
  endfacet
  facet normal 0.904728 -0.425989 0
    outer loop
      vertex -103.505 71.927 2
      vertex -103.719 71.4725 24
      vertex -103.719 71.4725 2
    endloop
  endfacet
  facet normal 0.951182 -0.308631 0
    outer loop
      vertex -103.874 70.9948 24
      vertex -103.719 71.4725 2
      vertex -103.719 71.4725 24
    endloop
  endfacet
  facet normal 0.951182 -0.308631 0
    outer loop
      vertex -103.719 71.4725 2
      vertex -103.874 70.9948 24
      vertex -103.874 70.9948 2
    endloop
  endfacet
  facet normal 0.770745 -0.637144 0
    outer loop
      vertex -103.236 72.3511 24
      vertex -102.916 72.7382 2
      vertex -102.916 72.7382 24
    endloop
  endfacet
  facet normal 0.770745 -0.637144 0
    outer loop
      vertex -102.916 72.7382 2
      vertex -103.236 72.3511 24
      vertex -103.236 72.3511 2
    endloop
  endfacet
  facet normal 0.248908 -0.968527 0
    outer loop
      vertex -101.236 73.8042 2
      vertex -100.75 73.9291 24
      vertex -101.236 73.8042 24
    endloop
  endfacet
  facet normal 0.248908 -0.968527 0
    outer loop
      vertex -100.75 73.9291 24
      vertex -101.236 73.8042 2
      vertex -100.75 73.9291 2
    endloop
  endfacet
  facet normal -0.125258 0.992124 0
    outer loop
      vertex 100.75 -73.9291 2
      vertex 100.251 -73.9921 24
      vertex 100.75 -73.9291 24
    endloop
  endfacet
  facet normal -0.125258 0.992124 0
    outer loop
      vertex 100.251 -73.9921 24
      vertex 100.75 -73.9291 2
      vertex 100.251 -73.9921 2
    endloop
  endfacet
  facet normal -0.368127 -0.929775 0
    outer loop
      vertex 101.236 73.8042 2
      vertex 101.703 73.6193 24
      vertex 101.236 73.8042 24
    endloop
  endfacet
  facet normal -0.368127 -0.929775 -0
    outer loop
      vertex 101.703 73.6193 24
      vertex 101.236 73.8042 2
      vertex 101.703 73.6193 2
    endloop
  endfacet
  facet normal -0.844456 -0.535625 0
    outer loop
      vertex 103.505 71.927 2
      vertex 103.236 72.3511 24
      vertex 103.236 72.3511 2
    endloop
  endfacet
  facet normal -0.844456 -0.535625 0
    outer loop
      vertex 103.236 72.3511 24
      vertex 103.505 71.927 2
      vertex 103.505 71.927 24
    endloop
  endfacet
  facet normal -0.982339 -0.187112 0
    outer loop
      vertex 103.968 70.5013 2
      vertex 103.874 70.9948 24
      vertex 103.874 70.9948 2
    endloop
  endfacet
  facet normal -0.982339 -0.187112 0
    outer loop
      vertex 103.874 70.9948 24
      vertex 103.968 70.5013 2
      vertex 103.968 70.5013 24
    endloop
  endfacet
  facet normal -0.997969 -0.0637044 0
    outer loop
      vertex 104 70 2
      vertex 103.968 70.5013 24
      vertex 103.968 70.5013 2
    endloop
  endfacet
  facet normal -0.997969 -0.0637044 0
    outer loop
      vertex 103.968 70.5013 24
      vertex 104 70 2
      vertex 104 70 24
    endloop
  endfacet
  facet normal -0.982339 0.187112 0
    outer loop
      vertex 103.874 -70.9948 2
      vertex 103.968 -70.5013 24
      vertex 103.968 -70.5013 2
    endloop
  endfacet
  facet normal -0.982339 0.187112 0
    outer loop
      vertex 103.968 -70.5013 24
      vertex 103.874 -70.9948 2
      vertex 103.874 -70.9948 24
    endloop
  endfacet
  facet normal -0.844456 0.535625 0
    outer loop
      vertex 103.236 -72.3511 2
      vertex 103.505 -71.927 24
      vertex 103.505 -71.927 2
    endloop
  endfacet
  facet normal -0.844456 0.535625 0
    outer loop
      vertex 103.505 -71.927 24
      vertex 103.236 -72.3511 2
      vertex 103.236 -72.3511 24
    endloop
  endfacet
  facet normal -0.368127 0.929775 0
    outer loop
      vertex 101.703 -73.6193 2
      vertex 101.236 -73.8042 24
      vertex 101.703 -73.6193 24
    endloop
  endfacet
  facet normal -0.368127 0.929775 0
    outer loop
      vertex 101.236 -73.8042 24
      vertex 101.703 -73.6193 2
      vertex 101.236 -73.8042 2
    endloop
  endfacet
  facet normal -0.587131 0.809492 0
    outer loop
      vertex 102.55 -73.0821 2
      vertex 102.143 -73.3773 24
      vertex 102.55 -73.0821 24
    endloop
  endfacet
  facet normal -0.587131 0.809492 0
    outer loop
      vertex 102.143 -73.3773 24
      vertex 102.55 -73.0821 2
      vertex 102.143 -73.3773 2
    endloop
  endfacet
  facet normal 0 0 1
    outer loop
      vertex 100.251 73.9921 2
      vertex 104 70 2
      vertex 103.968 70.5013 2
    endloop
  endfacet
  facet normal 0 0 1
    outer loop
      vertex 104 70 2
      vertex 100.251 73.9921 2
      vertex 104 -70 2
    endloop
  endfacet
  facet normal 0 0 1
    outer loop
      vertex 100.251 73.9921 2
      vertex 103.968 70.5013 2
      vertex 103.874 70.9948 2
    endloop
  endfacet
  facet normal 0 0 1
    outer loop
      vertex 100.251 -73.9921 2
      vertex 104 -70 2
      vertex 100.251 73.9921 2
    endloop
  endfacet
  facet normal 0 0 1
    outer loop
      vertex 100.251 73.9921 2
      vertex 103.874 70.9948 2
      vertex 103.719 71.4725 2
    endloop
  endfacet
  facet normal 0 0 1
    outer loop
      vertex 104 -70 2
      vertex 100.251 -73.9921 2
      vertex 103.968 -70.5013 2
    endloop
  endfacet
  facet normal 0 0 1
    outer loop
      vertex 100.251 73.9921 2
      vertex 103.719 71.4725 2
      vertex 103.505 71.927 2
    endloop
  endfacet
  facet normal 0 0 1
    outer loop
      vertex 103.968 -70.5013 2
      vertex 100.251 -73.9921 2
      vertex 103.874 -70.9948 2
    endloop
  endfacet
  facet normal 0 0 1
    outer loop
      vertex 100.251 73.9921 2
      vertex 103.505 71.927 2
      vertex 103.236 72.3511 2
    endloop
  endfacet
  facet normal 0 0 1
    outer loop
      vertex 103.874 -70.9948 2
      vertex 100.251 -73.9921 2
      vertex 103.719 -71.4725 2
    endloop
  endfacet
  facet normal 0 0 1
    outer loop
      vertex 100.251 73.9921 2
      vertex 103.236 72.3511 2
      vertex 102.916 72.7382 2
    endloop
  endfacet
  facet normal 0 0 1
    outer loop
      vertex 103.719 -71.4725 2
      vertex 100.251 -73.9921 2
      vertex 103.505 -71.927 2
    endloop
  endfacet
  facet normal 0 0 1
    outer loop
      vertex 100.251 73.9921 2
      vertex 102.916 72.7382 2
      vertex 102.55 73.0821 2
    endloop
  endfacet
  facet normal 0 0 1
    outer loop
      vertex 103.505 -71.927 2
      vertex 100.251 -73.9921 2
      vertex 103.236 -72.3511 2
    endloop
  endfacet
  facet normal 0 0 1
    outer loop
      vertex 100.251 73.9921 2
      vertex 102.55 73.0821 2
      vertex 102.143 73.3773 2
    endloop
  endfacet
  facet normal 0 0 1
    outer loop
      vertex 103.236 -72.3511 2
      vertex 100.251 -73.9921 2
      vertex 102.916 -72.7382 2
    endloop
  endfacet
  facet normal 0 0 1
    outer loop
      vertex 100.251 73.9921 2
      vertex 102.143 73.3773 2
      vertex 101.703 73.6193 2
    endloop
  endfacet
  facet normal 0 0 1
    outer loop
      vertex 102.916 -72.7382 2
      vertex 100.251 -73.9921 2
      vertex 102.55 -73.0821 2
    endloop
  endfacet
  facet normal 0 0 1
    outer loop
      vertex 100.251 73.9921 2
      vertex 101.703 73.6193 2
      vertex 101.236 73.8042 2
    endloop
  endfacet
  facet normal 0 0 1
    outer loop
      vertex 102.55 -73.0821 2
      vertex 100.251 -73.9921 2
      vertex 102.143 -73.3773 2
    endloop
  endfacet
  facet normal 0 0 1
    outer loop
      vertex 100.251 73.9921 2
      vertex 101.236 73.8042 2
      vertex 100.75 73.9291 2
    endloop
  endfacet
  facet normal 0 0 1
    outer loop
      vertex 102.143 -73.3773 2
      vertex 100.251 -73.9921 2
      vertex 101.703 -73.6193 2
    endloop
  endfacet
  facet normal 0 0 1
    outer loop
      vertex 101.703 -73.6193 2
      vertex 100.251 -73.9921 2
      vertex 101.236 -73.8042 2
    endloop
  endfacet
  facet normal 0 0 1
    outer loop
      vertex 101.236 -73.8042 2
      vertex 100.251 -73.9921 2
      vertex 100.75 -73.9291 2
    endloop
  endfacet
  facet normal -0 0 1
    outer loop
      vertex -100.251 73.9921 2
      vertex 100.251 -73.9921 2
      vertex 100.251 73.9921 2
    endloop
  endfacet
  facet normal 0 0 1
    outer loop
      vertex -100.251 73.9921 2
      vertex -100.251 -73.9921 2
      vertex 100.251 -73.9921 2
    endloop
  endfacet
  facet normal 0 0 1
    outer loop
      vertex -104 70 2
      vertex -100.251 73.9921 2
      vertex -100.75 73.9291 2
    endloop
  endfacet
  facet normal 0 0 1
    outer loop
      vertex -100.251 73.9921 2
      vertex -104 70 2
      vertex -100.251 -73.9921 2
    endloop
  endfacet
  facet normal 0 0 1
    outer loop
      vertex -104 70 2
      vertex -100.75 73.9291 2
      vertex -101.236 73.8042 2
    endloop
  endfacet
  facet normal -0 0 1
    outer loop
      vertex -104 -70 2
      vertex -100.251 -73.9921 2
      vertex -104 70 2
    endloop
  endfacet
  facet normal 0 0 1
    outer loop
      vertex -104 70 2
      vertex -101.236 73.8042 2
      vertex -101.703 73.6193 2
    endloop
  endfacet
  facet normal 0 0 1
    outer loop
      vertex -100.251 -73.9921 2
      vertex -104 -70 2
      vertex -100.75 -73.9291 2
    endloop
  endfacet
  facet normal 0 0 1
    outer loop
      vertex -104 70 2
      vertex -101.703 73.6193 2
      vertex -102.143 73.3773 2
    endloop
  endfacet
  facet normal 0 0 1
    outer loop
      vertex -100.75 -73.9291 2
      vertex -104 -70 2
      vertex -101.236 -73.8042 2
    endloop
  endfacet
  facet normal 0 0 1
    outer loop
      vertex -104 70 2
      vertex -102.143 73.3773 2
      vertex -102.55 73.0821 2
    endloop
  endfacet
  facet normal 0 0 1
    outer loop
      vertex -101.236 -73.8042 2
      vertex -104 -70 2
      vertex -101.703 -73.6193 2
    endloop
  endfacet
  facet normal 0 0 1
    outer loop
      vertex -104 70 2
      vertex -102.55 73.0821 2
      vertex -102.916 72.7382 2
    endloop
  endfacet
  facet normal 0 0 1
    outer loop
      vertex -101.703 -73.6193 2
      vertex -104 -70 2
      vertex -102.143 -73.3773 2
    endloop
  endfacet
  facet normal 0 0 1
    outer loop
      vertex -104 70 2
      vertex -102.916 72.7382 2
      vertex -103.236 72.3511 2
    endloop
  endfacet
  facet normal 0 0 1
    outer loop
      vertex -102.143 -73.3773 2
      vertex -104 -70 2
      vertex -102.55 -73.0821 2
    endloop
  endfacet
  facet normal 0 0 1
    outer loop
      vertex -104 70 2
      vertex -103.236 72.3511 2
      vertex -103.505 71.927 2
    endloop
  endfacet
  facet normal 0 0 1
    outer loop
      vertex -102.55 -73.0821 2
      vertex -104 -70 2
      vertex -102.916 -72.7382 2
    endloop
  endfacet
  facet normal 0 0 1
    outer loop
      vertex -104 70 2
      vertex -103.505 71.927 2
      vertex -103.719 71.4725 2
    endloop
  endfacet
  facet normal 0 0 1
    outer loop
      vertex -102.916 -72.7382 2
      vertex -104 -70 2
      vertex -103.236 -72.3511 2
    endloop
  endfacet
  facet normal 0 0 1
    outer loop
      vertex -104 70 2
      vertex -103.719 71.4725 2
      vertex -103.874 70.9948 2
    endloop
  endfacet
  facet normal 0 0 1
    outer loop
      vertex -103.236 -72.3511 2
      vertex -104 -70 2
      vertex -103.505 -71.927 2
    endloop
  endfacet
  facet normal 0 0 1
    outer loop
      vertex -104 70 2
      vertex -103.874 70.9948 2
      vertex -103.968 70.5013 2
    endloop
  endfacet
  facet normal 0 0 1
    outer loop
      vertex -103.505 -71.927 2
      vertex -104 -70 2
      vertex -103.719 -71.4725 2
    endloop
  endfacet
  facet normal 0 0 1
    outer loop
      vertex -103.719 -71.4725 2
      vertex -104 -70 2
      vertex -103.874 -70.9948 2
    endloop
  endfacet
  facet normal 0 0 1
    outer loop
      vertex -103.874 -70.9948 2
      vertex -104 -70 2
      vertex -103.968 -70.5013 2
    endloop
  endfacet
  facet normal 0.982339 0.187112 0
    outer loop
      vertex -103.874 -70.9948 24
      vertex -103.968 -70.5013 2
      vertex -103.968 -70.5013 24
    endloop
  endfacet
  facet normal 0.982339 0.187112 0
    outer loop
      vertex -103.968 -70.5013 2
      vertex -103.874 -70.9948 24
      vertex -103.874 -70.9948 2
    endloop
  endfacet
  facet normal 0.844456 0.535625 0
    outer loop
      vertex -103.236 -72.3511 24
      vertex -103.505 -71.927 2
      vertex -103.505 -71.927 24
    endloop
  endfacet
  facet normal 0.844456 0.535625 0
    outer loop
      vertex -103.505 -71.927 2
      vertex -103.236 -72.3511 24
      vertex -103.236 -72.3511 2
    endloop
  endfacet
  facet normal 0.684762 0.728767 -0
    outer loop
      vertex -102.55 -73.0821 2
      vertex -102.916 -72.7382 24
      vertex -102.55 -73.0821 24
    endloop
  endfacet
  facet normal 0.684762 0.728767 0
    outer loop
      vertex -102.916 -72.7382 24
      vertex -102.55 -73.0821 2
      vertex -102.916 -72.7382 2
    endloop
  endfacet
  facet normal 0.844456 -0.535625 0
    outer loop
      vertex -103.505 71.927 24
      vertex -103.236 72.3511 2
      vertex -103.236 72.3511 24
    endloop
  endfacet
  facet normal 0.844456 -0.535625 0
    outer loop
      vertex -103.236 72.3511 2
      vertex -103.505 71.927 24
      vertex -103.505 71.927 2
    endloop
  endfacet
  facet normal 0.997969 -0.0637044 0
    outer loop
      vertex -104 70 24
      vertex -103.968 70.5013 2
      vertex -103.968 70.5013 24
    endloop
  endfacet
  facet normal 0.997969 -0.0637044 0
    outer loop
      vertex -103.968 70.5013 2
      vertex -104 70 24
      vertex -104 70 2
    endloop
  endfacet
  facet normal 0.982339 -0.187112 0
    outer loop
      vertex -103.968 70.5013 24
      vertex -103.874 70.9948 2
      vertex -103.874 70.9948 24
    endloop
  endfacet
  facet normal 0.982339 -0.187112 0
    outer loop
      vertex -103.874 70.9948 2
      vertex -103.968 70.5013 24
      vertex -103.968 70.5013 2
    endloop
  endfacet
  facet normal 0.587131 -0.809492 0
    outer loop
      vertex -102.55 73.0821 2
      vertex -102.143 73.3773 24
      vertex -102.55 73.0821 24
    endloop
  endfacet
  facet normal 0.587131 -0.809492 0
    outer loop
      vertex -102.143 73.3773 24
      vertex -102.55 73.0821 2
      vertex -102.143 73.3773 2
    endloop
  endfacet
  facet normal 0.368127 -0.929775 0
    outer loop
      vertex -101.703 73.6193 2
      vertex -101.236 73.8042 24
      vertex -101.703 73.6193 24
    endloop
  endfacet
  facet normal 0.368127 -0.929775 0
    outer loop
      vertex -101.236 73.8042 24
      vertex -101.703 73.6193 2
      vertex -101.236 73.8042 2
    endloop
  endfacet
  facet normal -0.997969 0.0637044 0
    outer loop
      vertex 103.968 -70.5013 2
      vertex 104 -70 24
      vertex 104 -70 2
    endloop
  endfacet
  facet normal -0.997969 0.0637044 0
    outer loop
      vertex 104 -70 24
      vertex 103.968 -70.5013 2
      vertex 103.968 -70.5013 24
    endloop
  endfacet
  facet normal -0.248908 0.968527 0
    outer loop
      vertex 101.236 -73.8042 2
      vertex 100.75 -73.9291 24
      vertex 101.236 -73.8042 24
    endloop
  endfacet
  facet normal -0.248908 0.968527 0
    outer loop
      vertex 100.75 -73.9291 24
      vertex 101.236 -73.8042 2
      vertex 100.75 -73.9291 2
    endloop
  endfacet
  facet normal -0.684762 0.728767 0
    outer loop
      vertex 102.916 -72.7382 2
      vertex 102.55 -73.0821 24
      vertex 102.916 -72.7382 24
    endloop
  endfacet
  facet normal -0.684762 0.728767 0
    outer loop
      vertex 102.55 -73.0821 24
      vertex 102.916 -72.7382 2
      vertex 102.55 -73.0821 2
    endloop
  endfacet
  facet normal -0.684762 -0.728767 0
    outer loop
      vertex 102.55 73.0821 2
      vertex 102.916 72.7382 24
      vertex 102.55 73.0821 24
    endloop
  endfacet
  facet normal -0.684762 -0.728767 -0
    outer loop
      vertex 102.916 72.7382 24
      vertex 102.55 73.0821 2
      vertex 102.916 72.7382 2
    endloop
  endfacet
  facet normal -0.770745 -0.637144 0
    outer loop
      vertex 103.236 72.3511 2
      vertex 102.916 72.7382 24
      vertex 102.916 72.7382 2
    endloop
  endfacet
  facet normal -0.770745 -0.637144 0
    outer loop
      vertex 102.916 72.7382 24
      vertex 103.236 72.3511 2
      vertex 103.236 72.3511 24
    endloop
  endfacet
endsolid OpenSCAD_Model
