solid OpenSCAD_Model
  facet normal -0.125348 0.992113 0
    outer loop
      vertex -14.064 37.4901 0
      vertex -14.6869 37.4114 18
      vertex -14.064 37.4901 18
    endloop
  endfacet
  facet normal -0.125348 0.992113 0
    outer loop
      vertex -14.6869 37.4114 18
      vertex -14.064 37.4901 0
      vertex -14.6869 37.4114 0
    endloop
  endfacet
  facet normal 0.125348 0.992113 -0
    outer loop
      vertex 14.6869 37.4114 0
      vertex 14.064 37.4901 18
      vertex 14.6869 37.4114 18
    endloop
  endfacet
  facet normal 0.125348 0.992113 0
    outer loop
      vertex 14.064 37.4901 18
      vertex 14.6869 37.4114 0
      vertex 14.064 37.4901 0
    endloop
  endfacet
  facet normal -0.248601 0.968606 0
    outer loop
      vertex -14.6869 37.4114 0
      vertex -15.2951 37.2553 18
      vertex -14.6869 37.4114 18
    endloop
  endfacet
  facet normal -0.248601 0.968606 0
    outer loop
      vertex -15.2951 37.2553 18
      vertex -14.6869 37.4114 0
      vertex -15.2951 37.2553 0
    endloop
  endfacet
  facet normal 0 1 -0
    outer loop
      vertex 14.064 37.4901 0
      vertex -14.064 37.4901 18
      vertex 14.064 37.4901 18
    endloop
  endfacet
  facet normal 0 1 0
    outer loop
      vertex -14.064 37.4901 18
      vertex 14.064 37.4901 0
      vertex -14.064 37.4901 0
    endloop
  endfacet
  facet normal 0.951061 -0.309003 0
    outer loop
      vertex 18.3989 -34.3406 18
      vertex 18.5929 -33.7435 0
      vertex 18.5929 -33.7435 18
    endloop
  endfacet
  facet normal 0.951061 -0.309003 0
    outer loop
      vertex 18.5929 -33.7435 0
      vertex 18.3989 -34.3406 18
      vertex 18.3989 -34.3406 0
    endloop
  endfacet
  facet normal 0.125348 -0.992113 0
    outer loop
      vertex 14.064 -37.4901 0
      vertex 14.6869 -37.4114 18
      vertex 14.064 -37.4901 18
    endloop
  endfacet
  facet normal 0.125348 -0.992113 0
    outer loop
      vertex 14.6869 -37.4114 18
      vertex 14.064 -37.4901 0
      vertex 14.6869 -37.4114 0
    endloop
  endfacet
  facet normal -0.684624 0.728896 0
    outer loop
      vertex -16.9371 36.3526 0
      vertex -17.3948 35.9227 18
      vertex -16.9371 36.3526 18
    endloop
  endfacet
  facet normal -0.684624 0.728896 0
    outer loop
      vertex -17.3948 35.9227 18
      vertex -16.9371 36.3526 0
      vertex -17.3948 35.9227 0
    endloop
  endfacet
  facet normal 0.684624 0.728896 -0
    outer loop
      vertex 17.3948 35.9227 0
      vertex 16.9371 36.3526 18
      vertex 17.3948 35.9227 18
    endloop
  endfacet
  facet normal 0.684624 0.728896 0
    outer loop
      vertex 16.9371 36.3526 18
      vertex 17.3948 35.9227 0
      vertex 16.9371 36.3526 0
    endloop
  endfacet
  facet normal -0.368203 0.929745 0
    outer loop
      vertex -15.2951 37.2553 0
      vertex -15.8789 37.0241 18
      vertex -15.2951 37.2553 18
    endloop
  endfacet
  facet normal -0.368203 0.929745 0
    outer loop
      vertex -15.8789 37.0241 18
      vertex -15.2951 37.2553 0
      vertex -15.8789 37.0241 0
    endloop
  endfacet
  facet normal 0.770462 -0.637486 0
    outer loop
      vertex 17.3948 -35.9227 18
      vertex 17.7951 -35.4389 0
      vertex 17.7951 -35.4389 18
    endloop
  endfacet
  facet normal 0.770462 -0.637486 0
    outer loop
      vertex 17.7951 -35.4389 0
      vertex 17.3948 -35.9227 18
      vertex 17.3948 -35.9227 0
    endloop
  endfacet
  facet normal 1 -0 0
    outer loop
      vertex 18.75 -32.5 18
      vertex 18.75 32.5 0
      vertex 18.75 32.5 18
    endloop
  endfacet
  facet normal 1 0 0
    outer loop
      vertex 18.75 32.5 0
      vertex 18.75 -32.5 18
      vertex 18.75 -32.5 0
    endloop
  endfacet
  facet normal 0 -1 0
    outer loop
      vertex -14.064 -37.4901 0
      vertex 14.064 -37.4901 18
      vertex -14.064 -37.4901 18
    endloop
  endfacet
  facet normal 0 -1 -0
    outer loop
      vertex 14.064 -37.4901 18
      vertex -14.064 -37.4901 0
      vertex 14.064 -37.4901 0
    endloop
  endfacet
  facet normal -0.844336 -0.535814 0
    outer loop
      vertex -17.7951 -35.4389 0
      vertex -18.1315 -34.9088 18
      vertex -18.1315 -34.9088 0
    endloop
  endfacet
  facet normal -0.844336 -0.535814 0
    outer loop
      vertex -18.1315 -34.9088 18
      vertex -17.7951 -35.4389 0
      vertex -17.7951 -35.4389 18
    endloop
  endfacet
  facet normal -1 0 0
    outer loop
      vertex -18.75 -32.5 0
      vertex -18.75 32.5 18
      vertex -18.75 32.5 0
    endloop
  endfacet
  facet normal -1 -0 0
    outer loop
      vertex -18.75 32.5 18
      vertex -18.75 -32.5 0
      vertex -18.75 -32.5 18
    endloop
  endfacet
  facet normal -0.99803 0.0627451 0
    outer loop
      vertex -18.75 32.5 0
      vertex -18.7106 33.1267 18
      vertex -18.7106 33.1267 0
    endloop
  endfacet
  facet normal -0.99803 0.0627451 0
    outer loop
      vertex -18.7106 33.1267 18
      vertex -18.75 32.5 0
      vertex -18.75 32.5 18
    endloop
  endfacet
  facet normal -0.982276 0.187441 0
    outer loop
      vertex -18.7106 33.1267 0
      vertex -18.5929 33.7435 18
      vertex -18.5929 33.7435 0
    endloop
  endfacet
  facet normal -0.982276 0.187441 0
    outer loop
      vertex -18.5929 33.7435 18
      vertex -18.7106 33.1267 0
      vertex -18.7106 33.1267 18
    endloop
  endfacet
  facet normal 0.368203 0.929745 -0
    outer loop
      vertex 15.8789 37.0241 0
      vertex 15.2951 37.2553 18
      vertex 15.8789 37.0241 18
    endloop
  endfacet
  facet normal 0.368203 0.929745 0
    outer loop
      vertex 15.2951 37.2553 18
      vertex 15.8789 37.0241 0
      vertex 15.2951 37.2553 0
    endloop
  endfacet
  facet normal 0.481784 0.87629 -0
    outer loop
      vertex 16.4291 36.7216 0
      vertex 15.8789 37.0241 18
      vertex 16.4291 36.7216 18
    endloop
  endfacet
  facet normal 0.481784 0.87629 0
    outer loop
      vertex 15.8789 37.0241 18
      vertex 16.4291 36.7216 0
      vertex 15.8789 37.0241 0
    endloop
  endfacet
  facet normal 0.684624 -0.728896 0
    outer loop
      vertex 16.9371 -36.3526 0
      vertex 17.3948 -35.9227 18
      vertex 16.9371 -36.3526 18
    endloop
  endfacet
  facet normal 0.684624 -0.728896 0
    outer loop
      vertex 17.3948 -35.9227 18
      vertex 16.9371 -36.3526 0
      vertex 17.3948 -35.9227 0
    endloop
  endfacet
  facet normal 0.951061 0.309003 0
    outer loop
      vertex 18.5929 33.7435 18
      vertex 18.3989 34.3406 0
      vertex 18.3989 34.3406 18
    endloop
  endfacet
  facet normal 0.951061 0.309003 0
    outer loop
      vertex 18.3989 34.3406 0
      vertex 18.5929 33.7435 18
      vertex 18.5929 33.7435 0
    endloop
  endfacet
  facet normal 0.770462 0.637486 0
    outer loop
      vertex 17.7951 35.4389 18
      vertex 17.3948 35.9227 0
      vertex 17.3948 35.9227 18
    endloop
  endfacet
  facet normal 0.770462 0.637486 0
    outer loop
      vertex 17.3948 35.9227 0
      vertex 17.7951 35.4389 18
      vertex 17.7951 35.4389 0
    endloop
  endfacet
  facet normal 0 0 -1
    outer loop
      vertex 14.064 -37.4901 0
      vertex 18.75 -32.5 0
      vertex 18.7106 -33.1267 0
    endloop
  endfacet
  facet normal 0 0 -1
    outer loop
      vertex 18.75 -32.5 0
      vertex -18.75 -32.5 0
      vertex 18.75 32.5 0
    endloop
  endfacet
  facet normal 0 0 -1
    outer loop
      vertex 14.064 -37.4901 0
      vertex 18.7106 -33.1267 0
      vertex 18.5929 -33.7435 0
    endloop
  endfacet
  facet normal 0 0 -1
    outer loop
      vertex -18.75 32.5 0
      vertex 18.75 32.5 0
      vertex -18.75 -32.5 0
    endloop
  endfacet
  facet normal 0 0 -1
    outer loop
      vertex 14.064 -37.4901 0
      vertex 18.5929 -33.7435 0
      vertex 18.3989 -34.3406 0
    endloop
  endfacet
  facet normal 0 -0 -1
    outer loop
      vertex 14.064 37.4901 0
      vertex 18.75 32.5 0
      vertex -18.75 32.5 0
    endloop
  endfacet
  facet normal 0 0 -1
    outer loop
      vertex 14.064 -37.4901 0
      vertex 18.3989 -34.3406 0
      vertex 18.1315 -34.9088 0
    endloop
  endfacet
  facet normal 0 0 -1
    outer loop
      vertex 18.75 32.5 0
      vertex 14.064 37.4901 0
      vertex 18.7106 33.1267 0
    endloop
  endfacet
  facet normal 0 0 -1
    outer loop
      vertex 14.064 -37.4901 0
      vertex 18.1315 -34.9088 0
      vertex 17.7951 -35.4389 0
    endloop
  endfacet
  facet normal 0 0 -1
    outer loop
      vertex 18.7106 33.1267 0
      vertex 14.064 37.4901 0
      vertex 18.5929 33.7435 0
    endloop
  endfacet
  facet normal 0 0 -1
    outer loop
      vertex 14.064 -37.4901 0
      vertex 17.7951 -35.4389 0
      vertex 17.3948 -35.9227 0
    endloop
  endfacet
  facet normal 0 0 -1
    outer loop
      vertex 18.5929 33.7435 0
      vertex 14.064 37.4901 0
      vertex 18.3989 34.3406 0
    endloop
  endfacet
  facet normal 0 0 -1
    outer loop
      vertex 14.064 -37.4901 0
      vertex 17.3948 -35.9227 0
      vertex 16.9371 -36.3526 0
    endloop
  endfacet
  facet normal 0 0 -1
    outer loop
      vertex 18.3989 34.3406 0
      vertex 14.064 37.4901 0
      vertex 18.1315 34.9088 0
    endloop
  endfacet
  facet normal 0 0 -1
    outer loop
      vertex 14.064 -37.4901 0
      vertex 16.9371 -36.3526 0
      vertex 16.4291 -36.7216 0
    endloop
  endfacet
  facet normal -0 0 -1
    outer loop
      vertex 18.75 -32.5 0
      vertex 14.064 -37.4901 0
      vertex -18.75 -32.5 0
    endloop
  endfacet
  facet normal 0 0 -1
    outer loop
      vertex 14.064 -37.4901 0
      vertex 16.4291 -36.7216 0
      vertex 15.8789 -37.0241 0
    endloop
  endfacet
  facet normal 0 0 -1
    outer loop
      vertex 18.1315 34.9088 0
      vertex 14.064 37.4901 0
      vertex 17.7951 35.4389 0
    endloop
  endfacet
  facet normal 0 0 -1
    outer loop
      vertex 14.064 -37.4901 0
      vertex 15.8789 -37.0241 0
      vertex 15.2951 -37.2553 0
    endloop
  endfacet
  facet normal 0 0 -1
    outer loop
      vertex 16.9371 36.3526 0
      vertex 14.064 37.4901 0
      vertex 16.4291 36.7216 0
    endloop
  endfacet
  facet normal 0 0 -1
    outer loop
      vertex 14.064 -37.4901 0
      vertex 15.2951 -37.2553 0
      vertex 14.6869 -37.4114 0
    endloop
  endfacet
  facet normal 0 0 -1
    outer loop
      vertex 16.4291 36.7216 0
      vertex 14.064 37.4901 0
      vertex 15.8789 37.0241 0
    endloop
  endfacet
  facet normal 0 0 -1
    outer loop
      vertex 15.8789 37.0241 0
      vertex 14.064 37.4901 0
      vertex 15.2951 37.2553 0
    endloop
  endfacet
  facet normal 0 0 -1
    outer loop
      vertex 15.2951 37.2553 0
      vertex 14.064 37.4901 0
      vertex 14.6869 37.4114 0
    endloop
  endfacet
  facet normal 0 0 -1
    outer loop
      vertex -18.75 -32.5 0
      vertex 14.064 -37.4901 0
      vertex -14.064 -37.4901 0
    endloop
  endfacet
  facet normal 0 0 -1
    outer loop
      vertex 17.7951 35.4389 0
      vertex 14.064 37.4901 0
      vertex 17.3948 35.9227 0
    endloop
  endfacet
  facet normal 0 0 -1
    outer loop
      vertex -18.75 -32.5 0
      vertex -14.064 -37.4901 0
      vertex -14.6869 -37.4114 0
    endloop
  endfacet
  facet normal 0 0 -1
    outer loop
      vertex 17.3948 35.9227 0
      vertex 14.064 37.4901 0
      vertex 16.9371 36.3526 0
    endloop
  endfacet
  facet normal 0 0 -1
    outer loop
      vertex -18.75 -32.5 0
      vertex -14.6869 -37.4114 0
      vertex -15.2951 -37.2553 0
    endloop
  endfacet
  facet normal -0 0 -1
    outer loop
      vertex 14.064 37.4901 0
      vertex -18.75 32.5 0
      vertex -14.064 37.4901 0
    endloop
  endfacet
  facet normal 0 0 -1
    outer loop
      vertex -18.75 -32.5 0
      vertex -15.2951 -37.2553 0
      vertex -15.8789 -37.0241 0
    endloop
  endfacet
  facet normal 0 0 -1
    outer loop
      vertex -14.064 37.4901 0
      vertex -18.75 32.5 0
      vertex -14.6869 37.4114 0
    endloop
  endfacet
  facet normal 0 0 -1
    outer loop
      vertex -18.75 -32.5 0
      vertex -15.8789 -37.0241 0
      vertex -16.4291 -36.7216 0
    endloop
  endfacet
  facet normal 0 0 -1
    outer loop
      vertex -14.6869 37.4114 0
      vertex -18.75 32.5 0
      vertex -15.2951 37.2553 0
    endloop
  endfacet
  facet normal 0 0 -1
    outer loop
      vertex -18.75 -32.5 0
      vertex -16.4291 -36.7216 0
      vertex -16.9371 -36.3526 0
    endloop
  endfacet
  facet normal 0 0 -1
    outer loop
      vertex -15.2951 37.2553 0
      vertex -18.75 32.5 0
      vertex -15.8789 37.0241 0
    endloop
  endfacet
  facet normal 0 0 -1
    outer loop
      vertex -18.75 -32.5 0
      vertex -16.9371 -36.3526 0
      vertex -17.3948 -35.9227 0
    endloop
  endfacet
  facet normal 0 0 -1
    outer loop
      vertex -15.8789 37.0241 0
      vertex -18.75 32.5 0
      vertex -16.4291 36.7216 0
    endloop
  endfacet
  facet normal 0 0 -1
    outer loop
      vertex -18.75 -32.5 0
      vertex -17.3948 -35.9227 0
      vertex -17.7951 -35.4389 0
    endloop
  endfacet
  facet normal 0 0 -1
    outer loop
      vertex -16.4291 36.7216 0
      vertex -18.75 32.5 0
      vertex -16.9371 36.3526 0
    endloop
  endfacet
  facet normal 0 0 -1
    outer loop
      vertex -18.75 -32.5 0
      vertex -17.7951 -35.4389 0
      vertex -18.1315 -34.9088 0
    endloop
  endfacet
  facet normal 0 0 -1
    outer loop
      vertex -16.9371 36.3526 0
      vertex -18.75 32.5 0
      vertex -17.3948 35.9227 0
    endloop
  endfacet
  facet normal 0 0 -1
    outer loop
      vertex -18.75 -32.5 0
      vertex -18.1315 -34.9088 0
      vertex -18.3989 -34.3406 0
    endloop
  endfacet
  facet normal 0 0 -1
    outer loop
      vertex -17.3948 35.9227 0
      vertex -18.75 32.5 0
      vertex -17.7951 35.4389 0
    endloop
  endfacet
  facet normal 0 0 -1
    outer loop
      vertex -18.75 -32.5 0
      vertex -18.3989 -34.3406 0
      vertex -18.5929 -33.7435 0
    endloop
  endfacet
  facet normal 0 0 -1
    outer loop
      vertex -17.7951 35.4389 0
      vertex -18.75 32.5 0
      vertex -18.1315 34.9088 0
    endloop
  endfacet
  facet normal 0 0 -1
    outer loop
      vertex -18.75 -32.5 0
      vertex -18.5929 -33.7435 0
      vertex -18.7106 -33.1267 0
    endloop
  endfacet
  facet normal 0 0 -1
    outer loop
      vertex -18.1315 34.9088 0
      vertex -18.75 32.5 0
      vertex -18.3989 34.3406 0
    endloop
  endfacet
  facet normal 0 0 -1
    outer loop
      vertex -18.3989 34.3406 0
      vertex -18.75 32.5 0
      vertex -18.5929 33.7435 0
    endloop
  endfacet
  facet normal 0 0 -1
    outer loop
      vertex -18.5929 33.7435 0
      vertex -18.75 32.5 0
      vertex -18.7106 33.1267 0
    endloop
  endfacet
  facet normal 0 0 1
    outer loop
      vertex 17.75 32.5 18
      vertex 18.75 32.5 18
      vertex 18.7106 33.1267 18
    endloop
  endfacet
  facet normal 0 0 1
    outer loop
      vertex 18.75 32.5 18
      vertex 17.75 32.5 18
      vertex 18.75 -32.5 18
    endloop
  endfacet
  facet normal 0 0 1
    outer loop
      vertex 17.7185 33.0013 18
      vertex 18.7106 33.1267 18
      vertex 18.5929 33.7435 18
    endloop
  endfacet
  facet normal 0 0 1
    outer loop
      vertex 17.75 -32.5 18
      vertex 18.75 -32.5 18
      vertex 17.75 32.5 18
    endloop
  endfacet
  facet normal 0 0 1
    outer loop
      vertex 17.6243 33.4948 18
      vertex 18.5929 33.7435 18
      vertex 18.3989 34.3406 18
    endloop
  endfacet
  facet normal 0 0 1
    outer loop
      vertex 18.75 -32.5 18
      vertex 17.75 -32.5 18
      vertex 18.7106 -33.1267 18
    endloop
  endfacet
  facet normal 0 0 1
    outer loop
      vertex 17.4691 33.9725 18
      vertex 18.3989 34.3406 18
      vertex 18.1315 34.9088 18
    endloop
  endfacet
  facet normal -0 0 1
    outer loop
      vertex 17.7185 -33.0013 18
      vertex 18.7106 -33.1267 18
      vertex 17.75 -32.5 18
    endloop
  endfacet
  facet normal 0 0 1
    outer loop
      vertex 17.2552 34.427 18
      vertex 18.1315 34.9088 18
      vertex 17.7951 35.4389 18
    endloop
  endfacet
  facet normal 0 0 1
    outer loop
      vertex 18.7106 -33.1267 18
      vertex 17.7185 -33.0013 18
      vertex 18.5929 -33.7435 18
    endloop
  endfacet
  facet normal -0 0 1
    outer loop
      vertex 17.6243 -33.4948 18
      vertex 18.5929 -33.7435 18
      vertex 17.7185 -33.0013 18
    endloop
  endfacet
  facet normal 0 0 1
    outer loop
      vertex 18.7106 33.1267 18
      vertex 17.7185 33.0013 18
      vertex 17.75 32.5 18
    endloop
  endfacet
  facet normal 0 0 1
    outer loop
      vertex 18.5929 33.7435 18
      vertex 17.6243 33.4948 18
      vertex 17.7185 33.0013 18
    endloop
  endfacet
  facet normal 0 0 1
    outer loop
      vertex 18.3989 34.3406 18
      vertex 17.4691 33.9725 18
      vertex 17.6243 33.4948 18
    endloop
  endfacet
  facet normal 0 0 1
    outer loop
      vertex 16.9861 34.8511 18
      vertex 17.7951 35.4389 18
      vertex 17.3948 35.9227 18
    endloop
  endfacet
  facet normal 0 0 1
    outer loop
      vertex 18.1315 34.9088 18
      vertex 17.2552 34.427 18
      vertex 17.4691 33.9725 18
    endloop
  endfacet
  facet normal 0 0 1
    outer loop
      vertex 17.7951 35.4389 18
      vertex 16.9861 34.8511 18
      vertex 17.2552 34.427 18
    endloop
  endfacet
  facet normal 0 0 1
    outer loop
      vertex 16.6659 35.2382 18
      vertex 17.3948 35.9227 18
      vertex 16.9371 36.3526 18
    endloop
  endfacet
  facet normal 0 0 1
    outer loop
      vertex 17.3948 35.9227 18
      vertex 16.6659 35.2382 18
      vertex 16.9861 34.8511 18
    endloop
  endfacet
  facet normal 0 0 1
    outer loop
      vertex 16.2997 35.5821 18
      vertex 16.9371 36.3526 18
      vertex 16.4291 36.7216 18
    endloop
  endfacet
  facet normal 0 0 1
    outer loop
      vertex 16.9371 36.3526 18
      vertex 16.2997 35.5821 18
      vertex 16.6659 35.2382 18
    endloop
  endfacet
  facet normal 0 0 1
    outer loop
      vertex 16.4291 36.7216 18
      vertex 15.8933 35.8773 18
      vertex 16.2997 35.5821 18
    endloop
  endfacet
  facet normal 0 0 1
    outer loop
      vertex 15.8789 37.0241 18
      vertex 15.8933 35.8773 18
      vertex 16.4291 36.7216 18
    endloop
  endfacet
  facet normal 0 0 1
    outer loop
      vertex 15.8789 37.0241 18
      vertex 15.4531 36.1193 18
      vertex 15.8933 35.8773 18
    endloop
  endfacet
  facet normal 0 0 1
    outer loop
      vertex 15.2951 37.2553 18
      vertex 15.4531 36.1193 18
      vertex 15.8789 37.0241 18
    endloop
  endfacet
  facet normal 0 0 1
    outer loop
      vertex 15.2951 37.2553 18
      vertex 14.9861 36.3042 18
      vertex 15.4531 36.1193 18
    endloop
  endfacet
  facet normal 0 0 1
    outer loop
      vertex 14.6869 37.4114 18
      vertex 14.9861 36.3042 18
      vertex 15.2951 37.2553 18
    endloop
  endfacet
  facet normal 0 0 1
    outer loop
      vertex 14.6869 37.4114 18
      vertex 14.4995 36.4291 18
      vertex 14.9861 36.3042 18
    endloop
  endfacet
  facet normal 0 0 1
    outer loop
      vertex 14.064 37.4901 18
      vertex 14.4995 36.4291 18
      vertex 14.6869 37.4114 18
    endloop
  endfacet
  facet normal 0 0 1
    outer loop
      vertex 14.064 37.4901 18
      vertex 14.0012 36.4921 18
      vertex 14.4995 36.4291 18
    endloop
  endfacet
  facet normal 0 0 1
    outer loop
      vertex 14.064 37.4901 18
      vertex -14.0012 36.4921 18
      vertex 14.0012 36.4921 18
    endloop
  endfacet
  facet normal -0 0 1
    outer loop
      vertex -14.064 37.4901 18
      vertex -14.0012 36.4921 18
      vertex 14.064 37.4901 18
    endloop
  endfacet
  facet normal 0 0 1
    outer loop
      vertex -14.064 37.4901 18
      vertex -14.4995 36.4291 18
      vertex -14.0012 36.4921 18
    endloop
  endfacet
  facet normal -0 0 1
    outer loop
      vertex -14.6869 37.4114 18
      vertex -14.4995 36.4291 18
      vertex -14.064 37.4901 18
    endloop
  endfacet
  facet normal 0 0 1
    outer loop
      vertex -14.6869 37.4114 18
      vertex -14.9861 36.3042 18
      vertex -14.4995 36.4291 18
    endloop
  endfacet
  facet normal -0 0 1
    outer loop
      vertex -15.2951 37.2553 18
      vertex -14.9861 36.3042 18
      vertex -14.6869 37.4114 18
    endloop
  endfacet
  facet normal 0 0 1
    outer loop
      vertex -15.2951 37.2553 18
      vertex -15.4531 36.1193 18
      vertex -14.9861 36.3042 18
    endloop
  endfacet
  facet normal -0 0 1
    outer loop
      vertex -15.8789 37.0241 18
      vertex -15.4531 36.1193 18
      vertex -15.2951 37.2553 18
    endloop
  endfacet
  facet normal 0 0 1
    outer loop
      vertex -15.8789 37.0241 18
      vertex -15.8933 35.8773 18
      vertex -15.4531 36.1193 18
    endloop
  endfacet
  facet normal -0 0 1
    outer loop
      vertex -16.4291 36.7216 18
      vertex -15.8933 35.8773 18
      vertex -15.8789 37.0241 18
    endloop
  endfacet
  facet normal 0 0 1
    outer loop
      vertex -15.8933 35.8773 18
      vertex -16.4291 36.7216 18
      vertex -16.2997 35.5821 18
    endloop
  endfacet
  facet normal -0 0 1
    outer loop
      vertex -16.9371 36.3526 18
      vertex -16.2997 35.5821 18
      vertex -16.4291 36.7216 18
    endloop
  endfacet
  facet normal 0 0 1
    outer loop
      vertex -16.2997 35.5821 18
      vertex -16.9371 36.3526 18
      vertex -16.6659 35.2382 18
    endloop
  endfacet
  facet normal -0 0 1
    outer loop
      vertex -17.3948 35.9227 18
      vertex -16.6659 35.2382 18
      vertex -16.9371 36.3526 18
    endloop
  endfacet
  facet normal 0 0 1
    outer loop
      vertex -16.6659 35.2382 18
      vertex -17.3948 35.9227 18
      vertex -16.9861 34.8511 18
    endloop
  endfacet
  facet normal -0 0 1
    outer loop
      vertex -17.7951 35.4389 18
      vertex -16.9861 34.8511 18
      vertex -17.3948 35.9227 18
    endloop
  endfacet
  facet normal 0 0 1
    outer loop
      vertex -16.9861 34.8511 18
      vertex -17.7951 35.4389 18
      vertex -17.2552 34.427 18
    endloop
  endfacet
  facet normal -0 0 1
    outer loop
      vertex -18.1315 34.9088 18
      vertex -17.2552 34.427 18
      vertex -17.7951 35.4389 18
    endloop
  endfacet
  facet normal 0 0 1
    outer loop
      vertex -17.2552 34.427 18
      vertex -18.1315 34.9088 18
      vertex -17.4691 33.9725 18
    endloop
  endfacet
  facet normal -0 0 1
    outer loop
      vertex -18.5929 33.7435 18
      vertex -17.6243 33.4948 18
      vertex -18.3989 34.3406 18
    endloop
  endfacet
  facet normal 0 0 1
    outer loop
      vertex -17.4691 33.9725 18
      vertex -18.3989 34.3406 18
      vertex -17.6243 33.4948 18
    endloop
  endfacet
  facet normal -0 0 1
    outer loop
      vertex -18.3989 34.3406 18
      vertex -17.4691 33.9725 18
      vertex -18.1315 34.9088 18
    endloop
  endfacet
  facet normal 0 0 1
    outer loop
      vertex 18.5929 -33.7435 18
      vertex 17.6243 -33.4948 18
      vertex 18.3989 -34.3406 18
    endloop
  endfacet
  facet normal -0 0 1
    outer loop
      vertex 17.4691 -33.9725 18
      vertex 18.3989 -34.3406 18
      vertex 17.6243 -33.4948 18
    endloop
  endfacet
  facet normal 0 0 1
    outer loop
      vertex 18.3989 -34.3406 18
      vertex 17.4691 -33.9725 18
      vertex 18.1315 -34.9088 18
    endloop
  endfacet
  facet normal -0 0 1
    outer loop
      vertex 17.2552 -34.427 18
      vertex 18.1315 -34.9088 18
      vertex 17.4691 -33.9725 18
    endloop
  endfacet
  facet normal 0 0 1
    outer loop
      vertex 18.1315 -34.9088 18
      vertex 17.2552 -34.427 18
      vertex 17.7951 -35.4389 18
    endloop
  endfacet
  facet normal -0 0 1
    outer loop
      vertex 16.9861 -34.8511 18
      vertex 17.7951 -35.4389 18
      vertex 17.2552 -34.427 18
    endloop
  endfacet
  facet normal 0 0 1
    outer loop
      vertex 17.7951 -35.4389 18
      vertex 16.9861 -34.8511 18
      vertex 17.3948 -35.9227 18
    endloop
  endfacet
  facet normal -0 0 1
    outer loop
      vertex 16.6659 -35.2382 18
      vertex 17.3948 -35.9227 18
      vertex 16.9861 -34.8511 18
    endloop
  endfacet
  facet normal 0 0 1
    outer loop
      vertex 17.3948 -35.9227 18
      vertex 16.6659 -35.2382 18
      vertex 16.9371 -36.3526 18
    endloop
  endfacet
  facet normal -0 0 1
    outer loop
      vertex 16.2997 -35.5821 18
      vertex 16.9371 -36.3526 18
      vertex 16.6659 -35.2382 18
    endloop
  endfacet
  facet normal 0 0 1
    outer loop
      vertex 16.9371 -36.3526 18
      vertex 16.2997 -35.5821 18
      vertex 16.4291 -36.7216 18
    endloop
  endfacet
  facet normal -0 0 1
    outer loop
      vertex 15.8933 -35.8773 18
      vertex 16.4291 -36.7216 18
      vertex 16.2997 -35.5821 18
    endloop
  endfacet
  facet normal 0 0 1
    outer loop
      vertex 15.8933 -35.8773 18
      vertex 15.8789 -37.0241 18
      vertex 16.4291 -36.7216 18
    endloop
  endfacet
  facet normal -0 0 1
    outer loop
      vertex 15.4531 -36.1193 18
      vertex 15.8789 -37.0241 18
      vertex 15.8933 -35.8773 18
    endloop
  endfacet
  facet normal 0 0 1
    outer loop
      vertex 15.4531 -36.1193 18
      vertex 15.2951 -37.2553 18
      vertex 15.8789 -37.0241 18
    endloop
  endfacet
  facet normal -0 0 1
    outer loop
      vertex 14.9861 -36.3042 18
      vertex 15.2951 -37.2553 18
      vertex 15.4531 -36.1193 18
    endloop
  endfacet
  facet normal 0 0 1
    outer loop
      vertex 14.9861 -36.3042 18
      vertex 14.6869 -37.4114 18
      vertex 15.2951 -37.2553 18
    endloop
  endfacet
  facet normal -0 0 1
    outer loop
      vertex 14.4995 -36.4291 18
      vertex 14.6869 -37.4114 18
      vertex 14.9861 -36.3042 18
    endloop
  endfacet
  facet normal 0 0 1
    outer loop
      vertex 14.4995 -36.4291 18
      vertex 14.064 -37.4901 18
      vertex 14.6869 -37.4114 18
    endloop
  endfacet
  facet normal -0 0 1
    outer loop
      vertex 14.0012 -36.4921 18
      vertex 14.064 -37.4901 18
      vertex 14.4995 -36.4291 18
    endloop
  endfacet
  facet normal -0 0 1
    outer loop
      vertex -14.0012 -36.4921 18
      vertex 14.064 -37.4901 18
      vertex 14.0012 -36.4921 18
    endloop
  endfacet
  facet normal 0 0 1
    outer loop
      vertex -14.0012 -36.4921 18
      vertex -14.064 -37.4901 18
      vertex 14.064 -37.4901 18
    endloop
  endfacet
  facet normal 0 0 1
    outer loop
      vertex -14.4995 -36.4291 18
      vertex -14.064 -37.4901 18
      vertex -14.0012 -36.4921 18
    endloop
  endfacet
  facet normal 0 0 1
    outer loop
      vertex -14.4995 -36.4291 18
      vertex -14.6869 -37.4114 18
      vertex -14.064 -37.4901 18
    endloop
  endfacet
  facet normal 0 0 1
    outer loop
      vertex -14.9861 -36.3042 18
      vertex -14.6869 -37.4114 18
      vertex -14.4995 -36.4291 18
    endloop
  endfacet
  facet normal 0 0 1
    outer loop
      vertex -14.9861 -36.3042 18
      vertex -15.2951 -37.2553 18
      vertex -14.6869 -37.4114 18
    endloop
  endfacet
  facet normal 0 0 1
    outer loop
      vertex -15.4531 -36.1193 18
      vertex -15.2951 -37.2553 18
      vertex -14.9861 -36.3042 18
    endloop
  endfacet
  facet normal 0 0 1
    outer loop
      vertex -15.4531 -36.1193 18
      vertex -15.8789 -37.0241 18
      vertex -15.2951 -37.2553 18
    endloop
  endfacet
  facet normal 0 0 1
    outer loop
      vertex -15.8933 -35.8773 18
      vertex -15.8789 -37.0241 18
      vertex -15.4531 -36.1193 18
    endloop
  endfacet
  facet normal 0 0 1
    outer loop
      vertex -16.4291 -36.7216 18
      vertex -15.8933 -35.8773 18
      vertex -16.2997 -35.5821 18
    endloop
  endfacet
  facet normal 0 0 1
    outer loop
      vertex -15.8933 -35.8773 18
      vertex -16.4291 -36.7216 18
      vertex -15.8789 -37.0241 18
    endloop
  endfacet
  facet normal 0 0 1
    outer loop
      vertex -16.9371 -36.3526 18
      vertex -16.2997 -35.5821 18
      vertex -16.6659 -35.2382 18
    endloop
  endfacet
  facet normal 0 0 1
    outer loop
      vertex -16.2997 -35.5821 18
      vertex -16.9371 -36.3526 18
      vertex -16.4291 -36.7216 18
    endloop
  endfacet
  facet normal 0 0 1
    outer loop
      vertex -17.3948 -35.9227 18
      vertex -16.6659 -35.2382 18
      vertex -16.9861 -34.8511 18
    endloop
  endfacet
  facet normal 0 0 1
    outer loop
      vertex -17.7951 -35.4389 18
      vertex -16.9861 -34.8511 18
      vertex -17.2552 -34.427 18
    endloop
  endfacet
  facet normal 0 0 1
    outer loop
      vertex -16.6659 -35.2382 18
      vertex -17.3948 -35.9227 18
      vertex -16.9371 -36.3526 18
    endloop
  endfacet
  facet normal 0 0 1
    outer loop
      vertex -18.1315 -34.9088 18
      vertex -17.2552 -34.427 18
      vertex -17.4691 -33.9725 18
    endloop
  endfacet
  facet normal 0 0 1
    outer loop
      vertex -18.3989 -34.3406 18
      vertex -17.4691 -33.9725 18
      vertex -17.6243 -33.4948 18
    endloop
  endfacet
  facet normal 0 0 1
    outer loop
      vertex -18.5929 -33.7435 18
      vertex -17.6243 -33.4948 18
      vertex -17.7185 -33.0013 18
    endloop
  endfacet
  facet normal 0 0 1
    outer loop
      vertex -16.9861 -34.8511 18
      vertex -17.7951 -35.4389 18
      vertex -17.3948 -35.9227 18
    endloop
  endfacet
  facet normal 0 0 1
    outer loop
      vertex -18.7106 -33.1267 18
      vertex -17.7185 -33.0013 18
      vertex -17.75 -32.5 18
    endloop
  endfacet
  facet normal 0 0 1
    outer loop
      vertex -17.75 32.5 18
      vertex -18.75 32.5 18
      vertex -17.75 -32.5 18
    endloop
  endfacet
  facet normal 0 0 1
    outer loop
      vertex -17.6243 33.4948 18
      vertex -18.5929 33.7435 18
      vertex -17.7185 33.0013 18
    endloop
  endfacet
  facet normal 0 0 1
    outer loop
      vertex -18.75 -32.5 18
      vertex -17.75 -32.5 18
      vertex -18.75 32.5 18
    endloop
  endfacet
  facet normal -0 0 1
    outer loop
      vertex -18.7106 33.1267 18
      vertex -17.7185 33.0013 18
      vertex -18.5929 33.7435 18
    endloop
  endfacet
  facet normal 0 -0 1
    outer loop
      vertex -18.7106 -33.1267 18
      vertex -17.75 -32.5 18
      vertex -18.75 -32.5 18
    endloop
  endfacet
  facet normal 0 0 1
    outer loop
      vertex -17.7185 33.0013 18
      vertex -18.7106 33.1267 18
      vertex -17.75 32.5 18
    endloop
  endfacet
  facet normal 0 0 1
    outer loop
      vertex -17.2552 -34.427 18
      vertex -18.1315 -34.9088 18
      vertex -17.7951 -35.4389 18
    endloop
  endfacet
  facet normal 0 0 1
    outer loop
      vertex -17.75 32.5 18
      vertex -18.7106 33.1267 18
      vertex -18.75 32.5 18
    endloop
  endfacet
  facet normal 0 0 1
    outer loop
      vertex -17.4691 -33.9725 18
      vertex -18.3989 -34.3406 18
      vertex -18.1315 -34.9088 18
    endloop
  endfacet
  facet normal 0 0 1
    outer loop
      vertex -17.6243 -33.4948 18
      vertex -18.5929 -33.7435 18
      vertex -18.3989 -34.3406 18
    endloop
  endfacet
  facet normal 0 0 1
    outer loop
      vertex -17.7185 -33.0013 18
      vertex -18.7106 -33.1267 18
      vertex -18.5929 -33.7435 18
    endloop
  endfacet
  facet normal -0.587698 0.80908 0
    outer loop
      vertex -16.4291 36.7216 0
      vertex -16.9371 36.3526 18
      vertex -16.4291 36.7216 18
    endloop
  endfacet
  facet normal -0.587698 0.80908 0
    outer loop
      vertex -16.9371 36.3526 18
      vertex -16.4291 36.7216 0
      vertex -16.9371 36.3526 0
    endloop
  endfacet
  facet normal -0.481784 0.87629 0
    outer loop
      vertex -15.8789 37.0241 0
      vertex -16.4291 36.7216 18
      vertex -15.8789 37.0241 18
    endloop
  endfacet
  facet normal -0.481784 0.87629 0
    outer loop
      vertex -16.4291 36.7216 18
      vertex -15.8789 37.0241 0
      vertex -16.4291 36.7216 0
    endloop
  endfacet
  facet normal 0.248601 0.968606 -0
    outer loop
      vertex 15.2951 37.2553 0
      vertex 14.6869 37.4114 18
      vertex 15.2951 37.2553 18
    endloop
  endfacet
  facet normal 0.248601 0.968606 0
    outer loop
      vertex 14.6869 37.4114 18
      vertex 15.2951 37.2553 0
      vertex 14.6869 37.4114 0
    endloop
  endfacet
  facet normal -0.587698 -0.80908 0
    outer loop
      vertex -16.9371 -36.3526 0
      vertex -16.4291 -36.7216 18
      vertex -16.9371 -36.3526 18
    endloop
  endfacet
  facet normal -0.587698 -0.80908 -0
    outer loop
      vertex -16.4291 -36.7216 18
      vertex -16.9371 -36.3526 0
      vertex -16.4291 -36.7216 0
    endloop
  endfacet
  facet normal 0.587698 -0.80908 0
    outer loop
      vertex 16.4291 -36.7216 0
      vertex 16.9371 -36.3526 18
      vertex 16.4291 -36.7216 18
    endloop
  endfacet
  facet normal 0.587698 -0.80908 0
    outer loop
      vertex 16.9371 -36.3526 18
      vertex 16.4291 -36.7216 0
      vertex 16.9371 -36.3526 0
    endloop
  endfacet
  facet normal 0.982276 -0.187441 0
    outer loop
      vertex 18.5929 -33.7435 18
      vertex 18.7106 -33.1267 0
      vertex 18.7106 -33.1267 18
    endloop
  endfacet
  facet normal 0.982276 -0.187441 0
    outer loop
      vertex 18.7106 -33.1267 0
      vertex 18.5929 -33.7435 18
      vertex 18.5929 -33.7435 0
    endloop
  endfacet
  facet normal 0.99803 -0.0627451 0
    outer loop
      vertex 18.7106 -33.1267 18
      vertex 18.75 -32.5 0
      vertex 18.75 -32.5 18
    endloop
  endfacet
  facet normal 0.99803 -0.0627451 0
    outer loop
      vertex 18.75 -32.5 0
      vertex 18.7106 -33.1267 18
      vertex 18.7106 -33.1267 0
    endloop
  endfacet
  facet normal -0.248601 -0.968606 0
    outer loop
      vertex -15.2951 -37.2553 0
      vertex -14.6869 -37.4114 18
      vertex -15.2951 -37.2553 18
    endloop
  endfacet
  facet normal -0.248601 -0.968606 -0
    outer loop
      vertex -14.6869 -37.4114 18
      vertex -15.2951 -37.2553 0
      vertex -14.6869 -37.4114 0
    endloop
  endfacet
  facet normal -0.125348 -0.992113 0
    outer loop
      vertex -14.6869 -37.4114 0
      vertex -14.064 -37.4901 18
      vertex -14.6869 -37.4114 18
    endloop
  endfacet
  facet normal -0.125348 -0.992113 -0
    outer loop
      vertex -14.064 -37.4901 18
      vertex -14.6869 -37.4114 0
      vertex -14.064 -37.4901 0
    endloop
  endfacet
  facet normal -0.951061 -0.309003 0
    outer loop
      vertex -18.3989 -34.3406 0
      vertex -18.5929 -33.7435 18
      vertex -18.5929 -33.7435 0
    endloop
  endfacet
  facet normal -0.951061 -0.309003 0
    outer loop
      vertex -18.5929 -33.7435 18
      vertex -18.3989 -34.3406 0
      vertex -18.3989 -34.3406 18
    endloop
  endfacet
  facet normal -0.770462 -0.637486 0
    outer loop
      vertex -17.3948 -35.9227 0
      vertex -17.7951 -35.4389 18
      vertex -17.7951 -35.4389 0
    endloop
  endfacet
  facet normal -0.770462 -0.637486 0
    outer loop
      vertex -17.7951 -35.4389 18
      vertex -17.3948 -35.9227 0
      vertex -17.3948 -35.9227 18
    endloop
  endfacet
  facet normal -0.684624 -0.728896 0
    outer loop
      vertex -17.3948 -35.9227 0
      vertex -16.9371 -36.3526 18
      vertex -17.3948 -35.9227 18
    endloop
  endfacet
  facet normal -0.684624 -0.728896 -0
    outer loop
      vertex -16.9371 -36.3526 18
      vertex -17.3948 -35.9227 0
      vertex -16.9371 -36.3526 0
    endloop
  endfacet
  facet normal -0.951061 0.309003 0
    outer loop
      vertex -18.5929 33.7435 0
      vertex -18.3989 34.3406 18
      vertex -18.3989 34.3406 0
    endloop
  endfacet
  facet normal -0.951061 0.309003 0
    outer loop
      vertex -18.3989 34.3406 18
      vertex -18.5929 33.7435 0
      vertex -18.5929 33.7435 18
    endloop
  endfacet
  facet normal -0.904811 0.425812 0
    outer loop
      vertex -18.3989 34.3406 0
      vertex -18.1315 34.9088 18
      vertex -18.1315 34.9088 0
    endloop
  endfacet
  facet normal -0.904811 0.425812 0
    outer loop
      vertex -18.1315 34.9088 18
      vertex -18.3989 34.3406 0
      vertex -18.3989 34.3406 18
    endloop
  endfacet
  facet normal -0.770462 0.637486 0
    outer loop
      vertex -17.7951 35.4389 0
      vertex -17.3948 35.9227 18
      vertex -17.3948 35.9227 0
    endloop
  endfacet
  facet normal -0.770462 0.637486 0
    outer loop
      vertex -17.3948 35.9227 18
      vertex -17.7951 35.4389 0
      vertex -17.7951 35.4389 18
    endloop
  endfacet
  facet normal 0.587698 0.80908 -0
    outer loop
      vertex 16.9371 36.3526 0
      vertex 16.4291 36.7216 18
      vertex 16.9371 36.3526 18
    endloop
  endfacet
  facet normal 0.587698 0.80908 0
    outer loop
      vertex 16.4291 36.7216 18
      vertex 16.9371 36.3526 0
      vertex 16.4291 36.7216 0
    endloop
  endfacet
  facet normal 0.844336 -0.535814 0
    outer loop
      vertex 17.7951 -35.4389 18
      vertex 18.1315 -34.9088 0
      vertex 18.1315 -34.9088 18
    endloop
  endfacet
  facet normal 0.844336 -0.535814 0
    outer loop
      vertex 18.1315 -34.9088 0
      vertex 17.7951 -35.4389 18
      vertex 17.7951 -35.4389 0
    endloop
  endfacet
  facet normal 0.904811 -0.425812 0
    outer loop
      vertex 18.1315 -34.9088 18
      vertex 18.3989 -34.3406 0
      vertex 18.3989 -34.3406 18
    endloop
  endfacet
  facet normal 0.904811 -0.425812 0
    outer loop
      vertex 18.3989 -34.3406 0
      vertex 18.1315 -34.9088 18
      vertex 18.1315 -34.9088 0
    endloop
  endfacet
  facet normal 0.248601 -0.968606 0
    outer loop
      vertex 14.6869 -37.4114 0
      vertex 15.2951 -37.2553 18
      vertex 14.6869 -37.4114 18
    endloop
  endfacet
  facet normal 0.248601 -0.968606 0
    outer loop
      vertex 15.2951 -37.2553 18
      vertex 14.6869 -37.4114 0
      vertex 15.2951 -37.2553 0
    endloop
  endfacet
  facet normal 0.982276 0.187441 0
    outer loop
      vertex 18.7106 33.1267 18
      vertex 18.5929 33.7435 0
      vertex 18.5929 33.7435 18
    endloop
  endfacet
  facet normal 0.982276 0.187441 0
    outer loop
      vertex 18.5929 33.7435 0
      vertex 18.7106 33.1267 18
      vertex 18.7106 33.1267 0
    endloop
  endfacet
  facet normal 0.99803 0.0627451 0
    outer loop
      vertex 18.75 32.5 18
      vertex 18.7106 33.1267 0
      vertex 18.7106 33.1267 18
    endloop
  endfacet
  facet normal 0.99803 0.0627451 0
    outer loop
      vertex 18.7106 33.1267 0
      vertex 18.75 32.5 18
      vertex 18.75 32.5 0
    endloop
  endfacet
  facet normal 0.844336 0.535814 0
    outer loop
      vertex 18.1315 34.9088 18
      vertex 17.7951 35.4389 0
      vertex 17.7951 35.4389 18
    endloop
  endfacet
  facet normal 0.844336 0.535814 0
    outer loop
      vertex 17.7951 35.4389 0
      vertex 18.1315 34.9088 18
      vertex 18.1315 34.9088 0
    endloop
  endfacet
  facet normal 0.904811 0.425812 0
    outer loop
      vertex 18.3989 34.3406 18
      vertex 18.1315 34.9088 0
      vertex 18.1315 34.9088 18
    endloop
  endfacet
  facet normal 0.904811 0.425812 0
    outer loop
      vertex 18.1315 34.9088 0
      vertex 18.3989 34.3406 18
      vertex 18.3989 34.3406 0
    endloop
  endfacet
  facet normal -0.368203 -0.929745 0
    outer loop
      vertex -15.8789 -37.0241 0
      vertex -15.2951 -37.2553 18
      vertex -15.8789 -37.0241 18
    endloop
  endfacet
  facet normal -0.368203 -0.929745 -0
    outer loop
      vertex -15.2951 -37.2553 18
      vertex -15.8789 -37.0241 0
      vertex -15.2951 -37.2553 0
    endloop
  endfacet
  facet normal -0.481784 -0.87629 0
    outer loop
      vertex -16.4291 -36.7216 0
      vertex -15.8789 -37.0241 18
      vertex -16.4291 -36.7216 18
    endloop
  endfacet
  facet normal -0.481784 -0.87629 -0
    outer loop
      vertex -15.8789 -37.0241 18
      vertex -16.4291 -36.7216 0
      vertex -15.8789 -37.0241 0
    endloop
  endfacet
  facet normal -0.982276 -0.187441 0
    outer loop
      vertex -18.5929 -33.7435 0
      vertex -18.7106 -33.1267 18
      vertex -18.7106 -33.1267 0
    endloop
  endfacet
  facet normal -0.982276 -0.187441 0
    outer loop
      vertex -18.7106 -33.1267 18
      vertex -18.5929 -33.7435 0
      vertex -18.5929 -33.7435 18
    endloop
  endfacet
  facet normal -0.99803 -0.0627451 0
    outer loop
      vertex -18.7106 -33.1267 0
      vertex -18.75 -32.5 18
      vertex -18.75 -32.5 0
    endloop
  endfacet
  facet normal -0.99803 -0.0627451 0
    outer loop
      vertex -18.75 -32.5 18
      vertex -18.7106 -33.1267 0
      vertex -18.7106 -33.1267 18
    endloop
  endfacet
  facet normal -0.904811 -0.425812 0
    outer loop
      vertex -18.1315 -34.9088 0
      vertex -18.3989 -34.3406 18
      vertex -18.3989 -34.3406 0
    endloop
  endfacet
  facet normal -0.904811 -0.425812 0
    outer loop
      vertex -18.3989 -34.3406 18
      vertex -18.1315 -34.9088 0
      vertex -18.1315 -34.9088 18
    endloop
  endfacet
  facet normal -0.844336 0.535814 0
    outer loop
      vertex -18.1315 34.9088 0
      vertex -17.7951 35.4389 18
      vertex -17.7951 35.4389 0
    endloop
  endfacet
  facet normal -0.844336 0.535814 0
    outer loop
      vertex -17.7951 35.4389 18
      vertex -18.1315 34.9088 0
      vertex -18.1315 34.9088 18
    endloop
  endfacet
  facet normal 0.368203 -0.929745 0
    outer loop
      vertex 15.2951 -37.2553 0
      vertex 15.8789 -37.0241 18
      vertex 15.2951 -37.2553 18
    endloop
  endfacet
  facet normal 0.368203 -0.929745 0
    outer loop
      vertex 15.8789 -37.0241 18
      vertex 15.2951 -37.2553 0
      vertex 15.8789 -37.0241 0
    endloop
  endfacet
  facet normal 0.481784 -0.87629 0
    outer loop
      vertex 15.8789 -37.0241 0
      vertex 16.4291 -36.7216 18
      vertex 15.8789 -37.0241 18
    endloop
  endfacet
  facet normal 0.481784 -0.87629 0
    outer loop
      vertex 16.4291 -36.7216 18
      vertex 15.8789 -37.0241 0
      vertex 16.4291 -36.7216 0
    endloop
  endfacet
  facet normal -0.125431 -0.992102 0
    outer loop
      vertex 14.0012 36.4921 2
      vertex 14.4995 36.4291 18
      vertex 14.0012 36.4921 18
    endloop
  endfacet
  facet normal -0.125431 -0.992102 -0
    outer loop
      vertex 14.4995 36.4291 18
      vertex 14.0012 36.4921 2
      vertex 14.4995 36.4291 2
    endloop
  endfacet
  facet normal 0 -1 0
    outer loop
      vertex -14.0012 36.4921 2
      vertex 14.0012 36.4921 18
      vertex -14.0012 36.4921 18
    endloop
  endfacet
  facet normal 0 -1 -0
    outer loop
      vertex 14.0012 36.4921 18
      vertex -14.0012 36.4921 2
      vertex 14.0012 36.4921 2
    endloop
  endfacet
  facet normal 0.125431 -0.992102 0
    outer loop
      vertex -14.4995 36.4291 2
      vertex -14.0012 36.4921 18
      vertex -14.4995 36.4291 18
    endloop
  endfacet
  facet normal 0.125431 -0.992102 0
    outer loop
      vertex -14.0012 36.4921 18
      vertex -14.4995 36.4291 2
      vertex -14.0012 36.4921 2
    endloop
  endfacet
  facet normal -0.587698 -0.80908 0
    outer loop
      vertex 15.8933 35.8773 2
      vertex 16.2997 35.5821 18
      vertex 15.8933 35.8773 18
    endloop
  endfacet
  facet normal -0.587698 -0.80908 -0
    outer loop
      vertex 16.2997 35.5821 18
      vertex 15.8933 35.8773 2
      vertex 16.2997 35.5821 2
    endloop
  endfacet
  facet normal -0.951065 0.308992 0
    outer loop
      vertex 17.4691 -33.9725 2
      vertex 17.6243 -33.4948 18
      vertex 17.6243 -33.4948 2
    endloop
  endfacet
  facet normal -0.951065 0.308992 0
    outer loop
      vertex 17.6243 -33.4948 18
      vertex 17.4691 -33.9725 2
      vertex 17.4691 -33.9725 18
    endloop
  endfacet
  facet normal -0.125431 0.992102 0
    outer loop
      vertex 14.4995 -36.4291 2
      vertex 14.0012 -36.4921 18
      vertex 14.4995 -36.4291 18
    endloop
  endfacet
  facet normal -0.125431 0.992102 0
    outer loop
      vertex 14.0012 -36.4921 18
      vertex 14.4995 -36.4291 2
      vertex 14.0012 -36.4921 2
    endloop
  endfacet
  facet normal 0.684563 -0.728953 0
    outer loop
      vertex -16.6659 35.2382 2
      vertex -16.2997 35.5821 18
      vertex -16.6659 35.2382 18
    endloop
  endfacet
  facet normal 0.684563 -0.728953 0
    outer loop
      vertex -16.2997 35.5821 18
      vertex -16.6659 35.2382 2
      vertex -16.2997 35.5821 2
    endloop
  endfacet
  facet normal 0.368127 -0.929775 0
    outer loop
      vertex -15.4531 36.1193 2
      vertex -14.9861 36.3042 18
      vertex -15.4531 36.1193 18
    endloop
  endfacet
  facet normal 0.368127 -0.929775 0
    outer loop
      vertex -14.9861 36.3042 18
      vertex -15.4531 36.1193 2
      vertex -14.9861 36.3042 2
    endloop
  endfacet
  facet normal -0.904805 0.425826 0
    outer loop
      vertex 17.2552 -34.427 2
      vertex 17.4691 -33.9725 18
      vertex 17.4691 -33.9725 2
    endloop
  endfacet
  facet normal -0.904805 0.425826 0
    outer loop
      vertex 17.4691 -33.9725 18
      vertex 17.2552 -34.427 2
      vertex 17.2552 -34.427 18
    endloop
  endfacet
  facet normal -1 0 0
    outer loop
      vertex 17.75 -32.5 2
      vertex 17.75 32.5 18
      vertex 17.75 32.5 2
    endloop
  endfacet
  facet normal -1 -0 0
    outer loop
      vertex 17.75 32.5 18
      vertex 17.75 -32.5 2
      vertex 17.75 -32.5 18
    endloop
  endfacet
  facet normal -0.982265 -0.187496 0
    outer loop
      vertex 17.7185 33.0013 2
      vertex 17.6243 33.4948 18
      vertex 17.6243 33.4948 2
    endloop
  endfacet
  facet normal -0.982265 -0.187496 0
    outer loop
      vertex 17.6243 33.4948 18
      vertex 17.7185 33.0013 2
      vertex 17.7185 33.0013 18
    endloop
  endfacet
  facet normal 0 1 -0
    outer loop
      vertex 14.0012 -36.4921 2
      vertex -14.0012 -36.4921 18
      vertex 14.0012 -36.4921 18
    endloop
  endfacet
  facet normal 0 1 0
    outer loop
      vertex -14.0012 -36.4921 18
      vertex 14.0012 -36.4921 2
      vertex -14.0012 -36.4921 2
    endloop
  endfacet
  facet normal 0.951065 0.308992 0
    outer loop
      vertex -17.4691 -33.9725 18
      vertex -17.6243 -33.4948 2
      vertex -17.6243 -33.4948 18
    endloop
  endfacet
  facet normal 0.951065 0.308992 0
    outer loop
      vertex -17.6243 -33.4948 2
      vertex -17.4691 -33.9725 18
      vertex -17.4691 -33.9725 2
    endloop
  endfacet
  facet normal 1 -0 0
    outer loop
      vertex -17.75 -32.5 18
      vertex -17.75 32.5 2
      vertex -17.75 32.5 18
    endloop
  endfacet
  facet normal 1 0 0
    outer loop
      vertex -17.75 32.5 2
      vertex -17.75 -32.5 18
      vertex -17.75 -32.5 2
    endloop
  endfacet
  facet normal 0.998032 -0.0627129 0
    outer loop
      vertex -17.75 32.5 18
      vertex -17.7185 33.0013 2
      vertex -17.7185 33.0013 18
    endloop
  endfacet
  facet normal 0.998032 -0.0627129 0
    outer loop
      vertex -17.7185 33.0013 2
      vertex -17.75 32.5 18
      vertex -17.75 32.5 2
    endloop
  endfacet
  facet normal 0.770549 -0.63738 0
    outer loop
      vertex -16.9861 34.8511 18
      vertex -16.6659 35.2382 2
      vertex -16.6659 35.2382 18
    endloop
  endfacet
  facet normal 0.770549 -0.63738 0
    outer loop
      vertex -16.6659 35.2382 2
      vertex -16.9861 34.8511 18
      vertex -16.9861 34.8511 2
    endloop
  endfacet
  facet normal 0.481751 -0.876308 0
    outer loop
      vertex -15.8933 35.8773 2
      vertex -15.4531 36.1193 18
      vertex -15.8933 35.8773 18
    endloop
  endfacet
  facet normal 0.481751 -0.876308 0
    outer loop
      vertex -15.4531 36.1193 18
      vertex -15.8933 35.8773 2
      vertex -15.4531 36.1193 2
    endloop
  endfacet
  facet normal -0.368127 -0.929775 0
    outer loop
      vertex 14.9861 36.3042 2
      vertex 15.4531 36.1193 18
      vertex 14.9861 36.3042 18
    endloop
  endfacet
  facet normal -0.368127 -0.929775 -0
    outer loop
      vertex 15.4531 36.1193 18
      vertex 14.9861 36.3042 2
      vertex 15.4531 36.1193 2
    endloop
  endfacet
  facet normal 0.24862 -0.968601 0
    outer loop
      vertex -14.9861 36.3042 2
      vertex -14.4995 36.4291 18
      vertex -14.9861 36.3042 18
    endloop
  endfacet
  facet normal 0.24862 -0.968601 0
    outer loop
      vertex -14.4995 36.4291 18
      vertex -14.9861 36.3042 2
      vertex -14.4995 36.4291 2
    endloop
  endfacet
  facet normal 0.998032 0.0627129 0
    outer loop
      vertex -17.7185 -33.0013 18
      vertex -17.75 -32.5 2
      vertex -17.75 -32.5 18
    endloop
  endfacet
  facet normal 0.998032 0.0627129 0
    outer loop
      vertex -17.75 -32.5 2
      vertex -17.7185 -33.0013 18
      vertex -17.7185 -33.0013 2
    endloop
  endfacet
  facet normal 0.982265 0.187496 0
    outer loop
      vertex -17.6243 -33.4948 18
      vertex -17.7185 -33.0013 2
      vertex -17.7185 -33.0013 18
    endloop
  endfacet
  facet normal 0.982265 0.187496 0
    outer loop
      vertex -17.7185 -33.0013 2
      vertex -17.6243 -33.4948 18
      vertex -17.6243 -33.4948 2
    endloop
  endfacet
  facet normal 0 0 1
    outer loop
      vertex 14.0012 36.4921 2
      vertex 17.75 32.5 2
      vertex 17.7185 33.0013 2
    endloop
  endfacet
  facet normal 0 0 1
    outer loop
      vertex 17.75 32.5 2
      vertex -17.75 32.5 2
      vertex 17.75 -32.5 2
    endloop
  endfacet
  facet normal 0 0 1
    outer loop
      vertex 14.0012 36.4921 2
      vertex 17.7185 33.0013 2
      vertex 17.6243 33.4948 2
    endloop
  endfacet
  facet normal 0 0 1
    outer loop
      vertex -17.75 -32.5 2
      vertex 17.75 -32.5 2
      vertex -17.75 32.5 2
    endloop
  endfacet
  facet normal 0 0 1
    outer loop
      vertex 14.0012 36.4921 2
      vertex 17.6243 33.4948 2
      vertex 17.4691 33.9725 2
    endloop
  endfacet
  facet normal 0 -0 1
    outer loop
      vertex 14.0012 -36.4921 2
      vertex 17.75 -32.5 2
      vertex -17.75 -32.5 2
    endloop
  endfacet
  facet normal 0 0 1
    outer loop
      vertex 14.0012 36.4921 2
      vertex 17.4691 33.9725 2
      vertex 17.2552 34.427 2
    endloop
  endfacet
  facet normal 0 0 1
    outer loop
      vertex 17.75 -32.5 2
      vertex 14.0012 -36.4921 2
      vertex 17.7185 -33.0013 2
    endloop
  endfacet
  facet normal 0 0 1
    outer loop
      vertex 14.0012 36.4921 2
      vertex 17.2552 34.427 2
      vertex 16.9861 34.8511 2
    endloop
  endfacet
  facet normal 0 0 1
    outer loop
      vertex 17.7185 -33.0013 2
      vertex 14.0012 -36.4921 2
      vertex 17.6243 -33.4948 2
    endloop
  endfacet
  facet normal 0 0 1
    outer loop
      vertex 14.0012 36.4921 2
      vertex 16.9861 34.8511 2
      vertex 16.6659 35.2382 2
    endloop
  endfacet
  facet normal 0 0 1
    outer loop
      vertex 17.6243 -33.4948 2
      vertex 14.0012 -36.4921 2
      vertex 17.4691 -33.9725 2
    endloop
  endfacet
  facet normal 0 0 1
    outer loop
      vertex 14.0012 36.4921 2
      vertex 16.6659 35.2382 2
      vertex 16.2997 35.5821 2
    endloop
  endfacet
  facet normal 0 0 1
    outer loop
      vertex 17.4691 -33.9725 2
      vertex 14.0012 -36.4921 2
      vertex 17.2552 -34.427 2
    endloop
  endfacet
  facet normal 0 0 1
    outer loop
      vertex 14.0012 36.4921 2
      vertex 16.2997 35.5821 2
      vertex 15.8933 35.8773 2
    endloop
  endfacet
  facet normal 0 0 1
    outer loop
      vertex 17.75 32.5 2
      vertex 14.0012 36.4921 2
      vertex -17.75 32.5 2
    endloop
  endfacet
  facet normal 0 0 1
    outer loop
      vertex 14.0012 36.4921 2
      vertex 15.8933 35.8773 2
      vertex 15.4531 36.1193 2
    endloop
  endfacet
  facet normal 0 0 1
    outer loop
      vertex 17.2552 -34.427 2
      vertex 14.0012 -36.4921 2
      vertex 16.9861 -34.8511 2
    endloop
  endfacet
  facet normal 0 0 1
    outer loop
      vertex 14.0012 36.4921 2
      vertex 15.4531 36.1193 2
      vertex 14.9861 36.3042 2
    endloop
  endfacet
  facet normal 0 0 1
    outer loop
      vertex 16.2997 -35.5821 2
      vertex 14.0012 -36.4921 2
      vertex 15.8933 -35.8773 2
    endloop
  endfacet
  facet normal 0 0 1
    outer loop
      vertex 14.0012 36.4921 2
      vertex 14.9861 36.3042 2
      vertex 14.4995 36.4291 2
    endloop
  endfacet
  facet normal 0 0 1
    outer loop
      vertex 15.8933 -35.8773 2
      vertex 14.0012 -36.4921 2
      vertex 15.4531 -36.1193 2
    endloop
  endfacet
  facet normal 0 0 1
    outer loop
      vertex 15.4531 -36.1193 2
      vertex 14.0012 -36.4921 2
      vertex 14.9861 -36.3042 2
    endloop
  endfacet
  facet normal 0 0 1
    outer loop
      vertex 14.9861 -36.3042 2
      vertex 14.0012 -36.4921 2
      vertex 14.4995 -36.4291 2
    endloop
  endfacet
  facet normal 0 0 1
    outer loop
      vertex -17.75 32.5 2
      vertex 14.0012 36.4921 2
      vertex -14.0012 36.4921 2
    endloop
  endfacet
  facet normal 0 0 1
    outer loop
      vertex 16.9861 -34.8511 2
      vertex 14.0012 -36.4921 2
      vertex 16.6659 -35.2382 2
    endloop
  endfacet
  facet normal 0 0 1
    outer loop
      vertex -17.75 32.5 2
      vertex -14.0012 36.4921 2
      vertex -14.4995 36.4291 2
    endloop
  endfacet
  facet normal 0 0 1
    outer loop
      vertex 16.6659 -35.2382 2
      vertex 14.0012 -36.4921 2
      vertex 16.2997 -35.5821 2
    endloop
  endfacet
  facet normal 0 0 1
    outer loop
      vertex -17.75 32.5 2
      vertex -14.4995 36.4291 2
      vertex -14.9861 36.3042 2
    endloop
  endfacet
  facet normal 0 0 1
    outer loop
      vertex 14.0012 -36.4921 2
      vertex -17.75 -32.5 2
      vertex -14.0012 -36.4921 2
    endloop
  endfacet
  facet normal 0 0 1
    outer loop
      vertex -17.75 32.5 2
      vertex -14.9861 36.3042 2
      vertex -15.4531 36.1193 2
    endloop
  endfacet
  facet normal 0 0 1
    outer loop
      vertex -14.0012 -36.4921 2
      vertex -17.75 -32.5 2
      vertex -14.4995 -36.4291 2
    endloop
  endfacet
  facet normal 0 0 1
    outer loop
      vertex -17.75 32.5 2
      vertex -15.4531 36.1193 2
      vertex -15.8933 35.8773 2
    endloop
  endfacet
  facet normal 0 0 1
    outer loop
      vertex -14.4995 -36.4291 2
      vertex -17.75 -32.5 2
      vertex -14.9861 -36.3042 2
    endloop
  endfacet
  facet normal 0 0 1
    outer loop
      vertex -17.75 32.5 2
      vertex -15.8933 35.8773 2
      vertex -16.2997 35.5821 2
    endloop
  endfacet
  facet normal 0 0 1
    outer loop
      vertex -14.9861 -36.3042 2
      vertex -17.75 -32.5 2
      vertex -15.4531 -36.1193 2
    endloop
  endfacet
  facet normal 0 0 1
    outer loop
      vertex -17.75 32.5 2
      vertex -16.2997 35.5821 2
      vertex -16.6659 35.2382 2
    endloop
  endfacet
  facet normal 0 0 1
    outer loop
      vertex -15.4531 -36.1193 2
      vertex -17.75 -32.5 2
      vertex -15.8933 -35.8773 2
    endloop
  endfacet
  facet normal 0 0 1
    outer loop
      vertex -17.75 32.5 2
      vertex -16.6659 35.2382 2
      vertex -16.9861 34.8511 2
    endloop
  endfacet
  facet normal 0 0 1
    outer loop
      vertex -15.8933 -35.8773 2
      vertex -17.75 -32.5 2
      vertex -16.2997 -35.5821 2
    endloop
  endfacet
  facet normal 0 0 1
    outer loop
      vertex -17.75 32.5 2
      vertex -16.9861 34.8511 2
      vertex -17.2552 34.427 2
    endloop
  endfacet
  facet normal 0 0 1
    outer loop
      vertex -16.2997 -35.5821 2
      vertex -17.75 -32.5 2
      vertex -16.6659 -35.2382 2
    endloop
  endfacet
  facet normal 0 0 1
    outer loop
      vertex -17.75 32.5 2
      vertex -17.2552 34.427 2
      vertex -17.4691 33.9725 2
    endloop
  endfacet
  facet normal 0 0 1
    outer loop
      vertex -16.6659 -35.2382 2
      vertex -17.75 -32.5 2
      vertex -16.9861 -34.8511 2
    endloop
  endfacet
  facet normal 0 0 1
    outer loop
      vertex -17.75 32.5 2
      vertex -17.4691 33.9725 2
      vertex -17.6243 33.4948 2
    endloop
  endfacet
  facet normal 0 0 1
    outer loop
      vertex -16.9861 -34.8511 2
      vertex -17.75 -32.5 2
      vertex -17.2552 -34.427 2
    endloop
  endfacet
  facet normal 0 0 1
    outer loop
      vertex -17.75 32.5 2
      vertex -17.6243 33.4948 2
      vertex -17.7185 33.0013 2
    endloop
  endfacet
  facet normal 0 0 1
    outer loop
      vertex -17.2552 -34.427 2
      vertex -17.75 -32.5 2
      vertex -17.4691 -33.9725 2
    endloop
  endfacet
  facet normal 0 0 1
    outer loop
      vertex -17.4691 -33.9725 2
      vertex -17.75 -32.5 2
      vertex -17.6243 -33.4948 2
    endloop
  endfacet
  facet normal 0 0 1
    outer loop
      vertex -17.6243 -33.4948 2
      vertex -17.75 -32.5 2
      vertex -17.7185 -33.0013 2
    endloop
  endfacet
  facet normal 0.951065 -0.308992 0
    outer loop
      vertex -17.6243 33.4948 18
      vertex -17.4691 33.9725 2
      vertex -17.4691 33.9725 18
    endloop
  endfacet
  facet normal 0.951065 -0.308992 0
    outer loop
      vertex -17.4691 33.9725 2
      vertex -17.6243 33.4948 18
      vertex -17.6243 33.4948 2
    endloop
  endfacet
  facet normal 0.587698 -0.80908 0
    outer loop
      vertex -16.2997 35.5821 2
      vertex -15.8933 35.8773 18
      vertex -16.2997 35.5821 18
    endloop
  endfacet
  facet normal 0.587698 -0.80908 0
    outer loop
      vertex -15.8933 35.8773 18
      vertex -16.2997 35.5821 2
      vertex -15.8933 35.8773 2
    endloop
  endfacet
  facet normal -0.24862 -0.968601 0
    outer loop
      vertex 14.4995 36.4291 2
      vertex 14.9861 36.3042 18
      vertex 14.4995 36.4291 18
    endloop
  endfacet
  facet normal -0.24862 -0.968601 -0
    outer loop
      vertex 14.9861 36.3042 18
      vertex 14.4995 36.4291 2
      vertex 14.9861 36.3042 2
    endloop
  endfacet
  facet normal -0.481751 -0.876308 0
    outer loop
      vertex 15.4531 36.1193 2
      vertex 15.8933 35.8773 18
      vertex 15.4531 36.1193 18
    endloop
  endfacet
  facet normal -0.481751 -0.876308 -0
    outer loop
      vertex 15.8933 35.8773 18
      vertex 15.4531 36.1193 2
      vertex 15.8933 35.8773 2
    endloop
  endfacet
  facet normal -0.770549 0.63738 0
    outer loop
      vertex 16.6659 -35.2382 2
      vertex 16.9861 -34.8511 18
      vertex 16.9861 -34.8511 2
    endloop
  endfacet
  facet normal -0.770549 0.63738 0
    outer loop
      vertex 16.9861 -34.8511 18
      vertex 16.6659 -35.2382 2
      vertex 16.6659 -35.2382 18
    endloop
  endfacet
  facet normal -0.844366 0.535767 0
    outer loop
      vertex 16.9861 -34.8511 2
      vertex 17.2552 -34.427 18
      vertex 17.2552 -34.427 2
    endloop
  endfacet
  facet normal -0.844366 0.535767 0
    outer loop
      vertex 17.2552 -34.427 18
      vertex 16.9861 -34.8511 2
      vertex 16.9861 -34.8511 18
    endloop
  endfacet
  facet normal -0.481751 0.876308 0
    outer loop
      vertex 15.8933 -35.8773 2
      vertex 15.4531 -36.1193 18
      vertex 15.8933 -35.8773 18
    endloop
  endfacet
  facet normal -0.481751 0.876308 0
    outer loop
      vertex 15.4531 -36.1193 18
      vertex 15.8933 -35.8773 2
      vertex 15.4531 -36.1193 2
    endloop
  endfacet
  facet normal -0.998032 -0.0627129 0
    outer loop
      vertex 17.75 32.5 2
      vertex 17.7185 33.0013 18
      vertex 17.7185 33.0013 2
    endloop
  endfacet
  facet normal -0.998032 -0.0627129 0
    outer loop
      vertex 17.7185 33.0013 18
      vertex 17.75 32.5 2
      vertex 17.75 32.5 18
    endloop
  endfacet
  facet normal -0.951065 -0.308992 0
    outer loop
      vertex 17.6243 33.4948 2
      vertex 17.4691 33.9725 18
      vertex 17.4691 33.9725 2
    endloop
  endfacet
  facet normal -0.951065 -0.308992 0
    outer loop
      vertex 17.4691 33.9725 18
      vertex 17.6243 33.4948 2
      vertex 17.6243 33.4948 18
    endloop
  endfacet
  facet normal -0.770549 -0.63738 0
    outer loop
      vertex 16.9861 34.8511 2
      vertex 16.6659 35.2382 18
      vertex 16.6659 35.2382 2
    endloop
  endfacet
  facet normal -0.770549 -0.63738 0
    outer loop
      vertex 16.6659 35.2382 18
      vertex 16.9861 34.8511 2
      vertex 16.9861 34.8511 18
    endloop
  endfacet
  facet normal 0.587698 0.80908 -0
    outer loop
      vertex -15.8933 -35.8773 2
      vertex -16.2997 -35.5821 18
      vertex -15.8933 -35.8773 18
    endloop
  endfacet
  facet normal 0.587698 0.80908 0
    outer loop
      vertex -16.2997 -35.5821 18
      vertex -15.8933 -35.8773 2
      vertex -16.2997 -35.5821 2
    endloop
  endfacet
  facet normal 0.481751 0.876308 -0
    outer loop
      vertex -15.4531 -36.1193 2
      vertex -15.8933 -35.8773 18
      vertex -15.4531 -36.1193 18
    endloop
  endfacet
  facet normal 0.481751 0.876308 0
    outer loop
      vertex -15.8933 -35.8773 18
      vertex -15.4531 -36.1193 2
      vertex -15.8933 -35.8773 2
    endloop
  endfacet
  facet normal 0.904805 0.425826 0
    outer loop
      vertex -17.2552 -34.427 18
      vertex -17.4691 -33.9725 2
      vertex -17.4691 -33.9725 18
    endloop
  endfacet
  facet normal 0.904805 0.425826 0
    outer loop
      vertex -17.4691 -33.9725 2
      vertex -17.2552 -34.427 18
      vertex -17.2552 -34.427 2
    endloop
  endfacet
  facet normal 0.844366 0.535767 0
    outer loop
      vertex -16.9861 -34.8511 18
      vertex -17.2552 -34.427 2
      vertex -17.2552 -34.427 18
    endloop
  endfacet
  facet normal 0.844366 0.535767 0
    outer loop
      vertex -17.2552 -34.427 2
      vertex -16.9861 -34.8511 18
      vertex -16.9861 -34.8511 2
    endloop
  endfacet
  facet normal 0.770549 0.63738 0
    outer loop
      vertex -16.6659 -35.2382 18
      vertex -16.9861 -34.8511 2
      vertex -16.9861 -34.8511 18
    endloop
  endfacet
  facet normal 0.770549 0.63738 0
    outer loop
      vertex -16.9861 -34.8511 2
      vertex -16.6659 -35.2382 18
      vertex -16.6659 -35.2382 2
    endloop
  endfacet
  facet normal 0.904805 -0.425826 0
    outer loop
      vertex -17.4691 33.9725 18
      vertex -17.2552 34.427 2
      vertex -17.2552 34.427 18
    endloop
  endfacet
  facet normal 0.904805 -0.425826 0
    outer loop
      vertex -17.2552 34.427 2
      vertex -17.4691 33.9725 18
      vertex -17.4691 33.9725 2
    endloop
  endfacet
  facet normal 0.982265 -0.187496 0
    outer loop
      vertex -17.7185 33.0013 18
      vertex -17.6243 33.4948 2
      vertex -17.6243 33.4948 18
    endloop
  endfacet
  facet normal 0.982265 -0.187496 0
    outer loop
      vertex -17.6243 33.4948 2
      vertex -17.7185 33.0013 18
      vertex -17.7185 33.0013 2
    endloop
  endfacet
  facet normal -0.684563 -0.728953 0
    outer loop
      vertex 16.2997 35.5821 2
      vertex 16.6659 35.2382 18
      vertex 16.2997 35.5821 18
    endloop
  endfacet
  facet normal -0.684563 -0.728953 -0
    outer loop
      vertex 16.6659 35.2382 18
      vertex 16.2997 35.5821 2
      vertex 16.6659 35.2382 2
    endloop
  endfacet
  facet normal 0.684563 0.728953 -0
    outer loop
      vertex -16.2997 -35.5821 2
      vertex -16.6659 -35.2382 18
      vertex -16.2997 -35.5821 18
    endloop
  endfacet
  facet normal 0.684563 0.728953 0
    outer loop
      vertex -16.6659 -35.2382 18
      vertex -16.2997 -35.5821 2
      vertex -16.6659 -35.2382 2
    endloop
  endfacet
  facet normal -0.368127 0.929775 0
    outer loop
      vertex 15.4531 -36.1193 2
      vertex 14.9861 -36.3042 18
      vertex 15.4531 -36.1193 18
    endloop
  endfacet
  facet normal -0.368127 0.929775 0
    outer loop
      vertex 14.9861 -36.3042 18
      vertex 15.4531 -36.1193 2
      vertex 14.9861 -36.3042 2
    endloop
  endfacet
  facet normal -0.24862 0.968601 0
    outer loop
      vertex 14.9861 -36.3042 2
      vertex 14.4995 -36.4291 18
      vertex 14.9861 -36.3042 18
    endloop
  endfacet
  facet normal -0.24862 0.968601 0
    outer loop
      vertex 14.4995 -36.4291 18
      vertex 14.9861 -36.3042 2
      vertex 14.4995 -36.4291 2
    endloop
  endfacet
  facet normal -0.998032 0.0627129 0
    outer loop
      vertex 17.7185 -33.0013 2
      vertex 17.75 -32.5 18
      vertex 17.75 -32.5 2
    endloop
  endfacet
  facet normal -0.998032 0.0627129 0
    outer loop
      vertex 17.75 -32.5 18
      vertex 17.7185 -33.0013 2
      vertex 17.7185 -33.0013 18
    endloop
  endfacet
  facet normal -0.982265 0.187496 0
    outer loop
      vertex 17.6243 -33.4948 2
      vertex 17.7185 -33.0013 18
      vertex 17.7185 -33.0013 2
    endloop
  endfacet
  facet normal -0.982265 0.187496 0
    outer loop
      vertex 17.7185 -33.0013 18
      vertex 17.6243 -33.4948 2
      vertex 17.6243 -33.4948 18
    endloop
  endfacet
  facet normal -0.844366 -0.535767 0
    outer loop
      vertex 17.2552 34.427 2
      vertex 16.9861 34.8511 18
      vertex 16.9861 34.8511 2
    endloop
  endfacet
  facet normal -0.844366 -0.535767 0
    outer loop
      vertex 16.9861 34.8511 18
      vertex 17.2552 34.427 2
      vertex 17.2552 34.427 18
    endloop
  endfacet
  facet normal -0.904805 -0.425826 0
    outer loop
      vertex 17.4691 33.9725 2
      vertex 17.2552 34.427 18
      vertex 17.2552 34.427 2
    endloop
  endfacet
  facet normal -0.904805 -0.425826 0
    outer loop
      vertex 17.2552 34.427 18
      vertex 17.4691 33.9725 2
      vertex 17.4691 33.9725 18
    endloop
  endfacet
  facet normal 0.368127 0.929775 -0
    outer loop
      vertex -14.9861 -36.3042 2
      vertex -15.4531 -36.1193 18
      vertex -14.9861 -36.3042 18
    endloop
  endfacet
  facet normal 0.368127 0.929775 0
    outer loop
      vertex -15.4531 -36.1193 18
      vertex -14.9861 -36.3042 2
      vertex -15.4531 -36.1193 2
    endloop
  endfacet
  facet normal 0.844366 -0.535767 0
    outer loop
      vertex -17.2552 34.427 18
      vertex -16.9861 34.8511 2
      vertex -16.9861 34.8511 18
    endloop
  endfacet
  facet normal 0.844366 -0.535767 0
    outer loop
      vertex -16.9861 34.8511 2
      vertex -17.2552 34.427 18
      vertex -17.2552 34.427 2
    endloop
  endfacet
  facet normal -0.684563 0.728953 0
    outer loop
      vertex 16.6659 -35.2382 2
      vertex 16.2997 -35.5821 18
      vertex 16.6659 -35.2382 18
    endloop
  endfacet
  facet normal -0.684563 0.728953 0
    outer loop
      vertex 16.2997 -35.5821 18
      vertex 16.6659 -35.2382 2
      vertex 16.2997 -35.5821 2
    endloop
  endfacet
  facet normal -0.587698 0.80908 0
    outer loop
      vertex 16.2997 -35.5821 2
      vertex 15.8933 -35.8773 18
      vertex 16.2997 -35.5821 18
    endloop
  endfacet
  facet normal -0.587698 0.80908 0
    outer loop
      vertex 15.8933 -35.8773 18
      vertex 16.2997 -35.5821 2
      vertex 15.8933 -35.8773 2
    endloop
  endfacet
  facet normal 0.125431 0.992102 -0
    outer loop
      vertex -14.0012 -36.4921 2
      vertex -14.4995 -36.4291 18
      vertex -14.0012 -36.4921 18
    endloop
  endfacet
  facet normal 0.125431 0.992102 0
    outer loop
      vertex -14.4995 -36.4291 18
      vertex -14.0012 -36.4921 2
      vertex -14.4995 -36.4291 2
    endloop
  endfacet
  facet normal 0.24862 0.968601 -0
    outer loop
      vertex -14.4995 -36.4291 2
      vertex -14.9861 -36.3042 18
      vertex -14.4995 -36.4291 18
    endloop
  endfacet
  facet normal 0.24862 0.968601 0
    outer loop
      vertex -14.9861 -36.3042 18
      vertex -14.4995 -36.4291 2
      vertex -14.9861 -36.3042 2
    endloop
  endfacet
endsolid OpenSCAD_Model
