solid OpenSCAD_Model
  facet normal 0 0 1
    outer loop
      vertex 104 55 21
      vertex 105 55 21
      vertex 104.961 55.6267 21
    endloop
  endfacet
  facet normal 0 0 1
    outer loop
      vertex 105 55 21
      vertex 104 55 21
      vertex 105 -55 21
    endloop
  endfacet
  facet normal 0 0 1
    outer loop
      vertex 103.968 55.5013 21
      vertex 104.961 55.6267 21
      vertex 104.843 56.2435 21
    endloop
  endfacet
  facet normal 0 0 1
    outer loop
      vertex 104 -55 21
      vertex 105 -55 21
      vertex 104 55 21
    endloop
  endfacet
  facet normal 0 0 1
    outer loop
      vertex 103.874 55.9948 21
      vertex 104.843 56.2435 21
      vertex 104.649 56.8406 21
    endloop
  endfacet
  facet normal 0 0 1
    outer loop
      vertex 105 -55 21
      vertex 104 -55 21
      vertex 104.961 -55.6267 21
    endloop
  endfacet
  facet normal 0 0 1
    outer loop
      vertex 103.719 56.4725 21
      vertex 104.649 56.8406 21
      vertex 104.382 57.4088 21
    endloop
  endfacet
  facet normal -0 0 1
    outer loop
      vertex 103.968 -55.5013 21
      vertex 104.961 -55.6267 21
      vertex 104 -55 21
    endloop
  endfacet
  facet normal 0 0 1
    outer loop
      vertex 103.505 56.927 21
      vertex 104.382 57.4088 21
      vertex 104.045 57.9389 21
    endloop
  endfacet
  facet normal 0 0 1
    outer loop
      vertex 104.961 -55.6267 21
      vertex 103.968 -55.5013 21
      vertex 104.843 -56.2435 21
    endloop
  endfacet
  facet normal -0 0 1
    outer loop
      vertex 103.874 -55.9948 21
      vertex 104.843 -56.2435 21
      vertex 103.968 -55.5013 21
    endloop
  endfacet
  facet normal 0 0 1
    outer loop
      vertex 104.961 55.6267 21
      vertex 103.968 55.5013 21
      vertex 104 55 21
    endloop
  endfacet
  facet normal 0 0 1
    outer loop
      vertex 104.843 56.2435 21
      vertex 103.874 55.9948 21
      vertex 103.968 55.5013 21
    endloop
  endfacet
  facet normal 0 0 1
    outer loop
      vertex 104.649 56.8406 21
      vertex 103.719 56.4725 21
      vertex 103.874 55.9948 21
    endloop
  endfacet
  facet normal 0 0 1
    outer loop
      vertex 103.236 57.3511 21
      vertex 104.045 57.9389 21
      vertex 103.645 58.4227 21
    endloop
  endfacet
  facet normal 0 0 1
    outer loop
      vertex 104.382 57.4088 21
      vertex 103.505 56.927 21
      vertex 103.719 56.4725 21
    endloop
  endfacet
  facet normal 0 0 1
    outer loop
      vertex 104.045 57.9389 21
      vertex 103.236 57.3511 21
      vertex 103.505 56.927 21
    endloop
  endfacet
  facet normal 0 0 1
    outer loop
      vertex 102.916 57.7382 21
      vertex 103.645 58.4227 21
      vertex 103.187 58.8526 21
    endloop
  endfacet
  facet normal 0 0 1
    outer loop
      vertex 103.645 58.4227 21
      vertex 102.916 57.7382 21
      vertex 103.236 57.3511 21
    endloop
  endfacet
  facet normal 0 0 1
    outer loop
      vertex 102.55 58.0821 21
      vertex 103.187 58.8526 21
      vertex 102.679 59.2216 21
    endloop
  endfacet
  facet normal 0 0 1
    outer loop
      vertex 103.187 58.8526 21
      vertex 102.55 58.0821 21
      vertex 102.916 57.7382 21
    endloop
  endfacet
  facet normal 0 0 1
    outer loop
      vertex 102.679 59.2216 21
      vertex 102.143 58.3773 21
      vertex 102.55 58.0821 21
    endloop
  endfacet
  facet normal 0 0 1
    outer loop
      vertex 102.129 59.5241 21
      vertex 102.143 58.3773 21
      vertex 102.679 59.2216 21
    endloop
  endfacet
  facet normal 0 0 1
    outer loop
      vertex 102.129 59.5241 21
      vertex 101.703 58.6193 21
      vertex 102.143 58.3773 21
    endloop
  endfacet
  facet normal 0 0 1
    outer loop
      vertex 101.545 59.7553 21
      vertex 101.703 58.6193 21
      vertex 102.129 59.5241 21
    endloop
  endfacet
  facet normal 0 0 1
    outer loop
      vertex 101.545 59.7553 21
      vertex 101.236 58.8042 21
      vertex 101.703 58.6193 21
    endloop
  endfacet
  facet normal 0 0 1
    outer loop
      vertex 100.937 59.9114 21
      vertex 101.236 58.8042 21
      vertex 101.545 59.7553 21
    endloop
  endfacet
  facet normal 0 0 1
    outer loop
      vertex 100.937 59.9114 21
      vertex 100.75 58.9291 21
      vertex 101.236 58.8042 21
    endloop
  endfacet
  facet normal 0 0 1
    outer loop
      vertex 100.314 59.9901 21
      vertex 100.75 58.9291 21
      vertex 100.937 59.9114 21
    endloop
  endfacet
  facet normal 0 0 1
    outer loop
      vertex 100.314 59.9901 21
      vertex 100.251 58.9921 21
      vertex 100.75 58.9291 21
    endloop
  endfacet
  facet normal 0 0 1
    outer loop
      vertex 100.314 59.9901 21
      vertex -100.251 58.9921 21
      vertex 100.251 58.9921 21
    endloop
  endfacet
  facet normal -0 0 1
    outer loop
      vertex -100.314 59.9901 21
      vertex -100.251 58.9921 21
      vertex 100.314 59.9901 21
    endloop
  endfacet
  facet normal 0 0 1
    outer loop
      vertex -100.314 59.9901 21
      vertex -100.75 58.9291 21
      vertex -100.251 58.9921 21
    endloop
  endfacet
  facet normal -0 0 1
    outer loop
      vertex -100.937 59.9114 21
      vertex -100.75 58.9291 21
      vertex -100.314 59.9901 21
    endloop
  endfacet
  facet normal 0 0 1
    outer loop
      vertex -100.937 59.9114 21
      vertex -101.236 58.8042 21
      vertex -100.75 58.9291 21
    endloop
  endfacet
  facet normal -0 0 1
    outer loop
      vertex -101.545 59.7553 21
      vertex -101.236 58.8042 21
      vertex -100.937 59.9114 21
    endloop
  endfacet
  facet normal 0 0 1
    outer loop
      vertex -101.545 59.7553 21
      vertex -101.703 58.6193 21
      vertex -101.236 58.8042 21
    endloop
  endfacet
  facet normal -0 0 1
    outer loop
      vertex -102.129 59.5241 21
      vertex -101.703 58.6193 21
      vertex -101.545 59.7553 21
    endloop
  endfacet
  facet normal 0 0 1
    outer loop
      vertex -102.129 59.5241 21
      vertex -102.143 58.3773 21
      vertex -101.703 58.6193 21
    endloop
  endfacet
  facet normal -0 0 1
    outer loop
      vertex -102.679 59.2216 21
      vertex -102.143 58.3773 21
      vertex -102.129 59.5241 21
    endloop
  endfacet
  facet normal 0 0 1
    outer loop
      vertex -102.143 58.3773 21
      vertex -102.679 59.2216 21
      vertex -102.55 58.0821 21
    endloop
  endfacet
  facet normal -0 0 1
    outer loop
      vertex -103.187 58.8526 21
      vertex -102.55 58.0821 21
      vertex -102.679 59.2216 21
    endloop
  endfacet
  facet normal 0 0 1
    outer loop
      vertex -102.55 58.0821 21
      vertex -103.187 58.8526 21
      vertex -102.916 57.7382 21
    endloop
  endfacet
  facet normal -0 0 1
    outer loop
      vertex -103.645 58.4227 21
      vertex -102.916 57.7382 21
      vertex -103.187 58.8526 21
    endloop
  endfacet
  facet normal 0 0 1
    outer loop
      vertex -102.916 57.7382 21
      vertex -103.645 58.4227 21
      vertex -103.236 57.3511 21
    endloop
  endfacet
  facet normal -0 0 1
    outer loop
      vertex -104.045 57.9389 21
      vertex -103.236 57.3511 21
      vertex -103.645 58.4227 21
    endloop
  endfacet
  facet normal 0 0 1
    outer loop
      vertex -103.236 57.3511 21
      vertex -104.045 57.9389 21
      vertex -103.505 56.927 21
    endloop
  endfacet
  facet normal -0 0 1
    outer loop
      vertex -104.382 57.4088 21
      vertex -103.505 56.927 21
      vertex -104.045 57.9389 21
    endloop
  endfacet
  facet normal 0 0 1
    outer loop
      vertex -103.505 56.927 21
      vertex -104.382 57.4088 21
      vertex -103.719 56.4725 21
    endloop
  endfacet
  facet normal -0 0 1
    outer loop
      vertex -104.843 56.2435 21
      vertex -103.874 55.9948 21
      vertex -104.649 56.8406 21
    endloop
  endfacet
  facet normal 0 0 1
    outer loop
      vertex -103.719 56.4725 21
      vertex -104.649 56.8406 21
      vertex -103.874 55.9948 21
    endloop
  endfacet
  facet normal -0 0 1
    outer loop
      vertex -104.649 56.8406 21
      vertex -103.719 56.4725 21
      vertex -104.382 57.4088 21
    endloop
  endfacet
  facet normal 0 0 1
    outer loop
      vertex 104.843 -56.2435 21
      vertex 103.874 -55.9948 21
      vertex 104.649 -56.8406 21
    endloop
  endfacet
  facet normal -0 0 1
    outer loop
      vertex 103.719 -56.4725 21
      vertex 104.649 -56.8406 21
      vertex 103.874 -55.9948 21
    endloop
  endfacet
  facet normal 0 0 1
    outer loop
      vertex 104.649 -56.8406 21
      vertex 103.719 -56.4725 21
      vertex 104.382 -57.4088 21
    endloop
  endfacet
  facet normal -0 0 1
    outer loop
      vertex 103.505 -56.927 21
      vertex 104.382 -57.4088 21
      vertex 103.719 -56.4725 21
    endloop
  endfacet
  facet normal 0 0 1
    outer loop
      vertex 104.382 -57.4088 21
      vertex 103.505 -56.927 21
      vertex 104.045 -57.9389 21
    endloop
  endfacet
  facet normal -0 0 1
    outer loop
      vertex 103.236 -57.3511 21
      vertex 104.045 -57.9389 21
      vertex 103.505 -56.927 21
    endloop
  endfacet
  facet normal 0 0 1
    outer loop
      vertex 104.045 -57.9389 21
      vertex 103.236 -57.3511 21
      vertex 103.645 -58.4227 21
    endloop
  endfacet
  facet normal -0 0 1
    outer loop
      vertex 102.916 -57.7382 21
      vertex 103.645 -58.4227 21
      vertex 103.236 -57.3511 21
    endloop
  endfacet
  facet normal 0 0 1
    outer loop
      vertex 103.645 -58.4227 21
      vertex 102.916 -57.7382 21
      vertex 103.187 -58.8526 21
    endloop
  endfacet
  facet normal -0 0 1
    outer loop
      vertex 102.55 -58.0821 21
      vertex 103.187 -58.8526 21
      vertex 102.916 -57.7382 21
    endloop
  endfacet
  facet normal 0 0 1
    outer loop
      vertex 103.187 -58.8526 21
      vertex 102.55 -58.0821 21
      vertex 102.679 -59.2216 21
    endloop
  endfacet
  facet normal -0 0 1
    outer loop
      vertex 102.143 -58.3773 21
      vertex 102.679 -59.2216 21
      vertex 102.55 -58.0821 21
    endloop
  endfacet
  facet normal 0 0 1
    outer loop
      vertex 102.143 -58.3773 21
      vertex 102.129 -59.5241 21
      vertex 102.679 -59.2216 21
    endloop
  endfacet
  facet normal -0 0 1
    outer loop
      vertex 101.703 -58.6193 21
      vertex 102.129 -59.5241 21
      vertex 102.143 -58.3773 21
    endloop
  endfacet
  facet normal 0 0 1
    outer loop
      vertex 101.703 -58.6193 21
      vertex 101.545 -59.7553 21
      vertex 102.129 -59.5241 21
    endloop
  endfacet
  facet normal -0 0 1
    outer loop
      vertex 101.236 -58.8042 21
      vertex 101.545 -59.7553 21
      vertex 101.703 -58.6193 21
    endloop
  endfacet
  facet normal 0 0 1
    outer loop
      vertex 101.236 -58.8042 21
      vertex 100.937 -59.9114 21
      vertex 101.545 -59.7553 21
    endloop
  endfacet
  facet normal -0 0 1
    outer loop
      vertex 100.75 -58.9291 21
      vertex 100.937 -59.9114 21
      vertex 101.236 -58.8042 21
    endloop
  endfacet
  facet normal 0 0 1
    outer loop
      vertex 100.75 -58.9291 21
      vertex 100.314 -59.9901 21
      vertex 100.937 -59.9114 21
    endloop
  endfacet
  facet normal -0 0 1
    outer loop
      vertex 100.251 -58.9921 21
      vertex 100.314 -59.9901 21
      vertex 100.75 -58.9291 21
    endloop
  endfacet
  facet normal -0 0 1
    outer loop
      vertex -100.251 -58.9921 21
      vertex 100.314 -59.9901 21
      vertex 100.251 -58.9921 21
    endloop
  endfacet
  facet normal 0 0 1
    outer loop
      vertex -100.251 -58.9921 21
      vertex -100.314 -59.9901 21
      vertex 100.314 -59.9901 21
    endloop
  endfacet
  facet normal 0 0 1
    outer loop
      vertex -100.75 -58.9291 21
      vertex -100.314 -59.9901 21
      vertex -100.251 -58.9921 21
    endloop
  endfacet
  facet normal 0 0 1
    outer loop
      vertex -100.75 -58.9291 21
      vertex -100.937 -59.9114 21
      vertex -100.314 -59.9901 21
    endloop
  endfacet
  facet normal 0 0 1
    outer loop
      vertex -101.236 -58.8042 21
      vertex -100.937 -59.9114 21
      vertex -100.75 -58.9291 21
    endloop
  endfacet
  facet normal 0 0 1
    outer loop
      vertex -101.236 -58.8042 21
      vertex -101.545 -59.7553 21
      vertex -100.937 -59.9114 21
    endloop
  endfacet
  facet normal 0 0 1
    outer loop
      vertex -101.703 -58.6193 21
      vertex -101.545 -59.7553 21
      vertex -101.236 -58.8042 21
    endloop
  endfacet
  facet normal 0 0 1
    outer loop
      vertex -101.703 -58.6193 21
      vertex -102.129 -59.5241 21
      vertex -101.545 -59.7553 21
    endloop
  endfacet
  facet normal 0 0 1
    outer loop
      vertex -102.143 -58.3773 21
      vertex -102.129 -59.5241 21
      vertex -101.703 -58.6193 21
    endloop
  endfacet
  facet normal 0 0 1
    outer loop
      vertex -102.679 -59.2216 21
      vertex -102.143 -58.3773 21
      vertex -102.55 -58.0821 21
    endloop
  endfacet
  facet normal 0 0 1
    outer loop
      vertex -102.143 -58.3773 21
      vertex -102.679 -59.2216 21
      vertex -102.129 -59.5241 21
    endloop
  endfacet
  facet normal 0 0 1
    outer loop
      vertex -103.187 -58.8526 21
      vertex -102.55 -58.0821 21
      vertex -102.916 -57.7382 21
    endloop
  endfacet
  facet normal 0 0 1
    outer loop
      vertex -102.55 -58.0821 21
      vertex -103.187 -58.8526 21
      vertex -102.679 -59.2216 21
    endloop
  endfacet
  facet normal 0 0 1
    outer loop
      vertex -103.645 -58.4227 21
      vertex -102.916 -57.7382 21
      vertex -103.236 -57.3511 21
    endloop
  endfacet
  facet normal 0 0 1
    outer loop
      vertex -104.045 -57.9389 21
      vertex -103.236 -57.3511 21
      vertex -103.505 -56.927 21
    endloop
  endfacet
  facet normal 0 0 1
    outer loop
      vertex -102.916 -57.7382 21
      vertex -103.645 -58.4227 21
      vertex -103.187 -58.8526 21
    endloop
  endfacet
  facet normal 0 0 1
    outer loop
      vertex -104.382 -57.4088 21
      vertex -103.505 -56.927 21
      vertex -103.719 -56.4725 21
    endloop
  endfacet
  facet normal 0 0 1
    outer loop
      vertex -104.649 -56.8406 21
      vertex -103.719 -56.4725 21
      vertex -103.874 -55.9948 21
    endloop
  endfacet
  facet normal 0 0 1
    outer loop
      vertex -104.843 -56.2435 21
      vertex -103.874 -55.9948 21
      vertex -103.968 -55.5013 21
    endloop
  endfacet
  facet normal 0 0 1
    outer loop
      vertex -103.236 -57.3511 21
      vertex -104.045 -57.9389 21
      vertex -103.645 -58.4227 21
    endloop
  endfacet
  facet normal 0 0 1
    outer loop
      vertex -104.961 -55.6267 21
      vertex -103.968 -55.5013 21
      vertex -104 -55 21
    endloop
  endfacet
  facet normal 0 0 1
    outer loop
      vertex -104 55 21
      vertex -105 55 21
      vertex -104 -55 21
    endloop
  endfacet
  facet normal 0 0 1
    outer loop
      vertex -103.874 55.9948 21
      vertex -104.843 56.2435 21
      vertex -103.968 55.5013 21
    endloop
  endfacet
  facet normal 0 0 1
    outer loop
      vertex -105 -55 21
      vertex -104 -55 21
      vertex -105 55 21
    endloop
  endfacet
  facet normal -0 0 1
    outer loop
      vertex -104.961 55.6267 21
      vertex -103.968 55.5013 21
      vertex -104.843 56.2435 21
    endloop
  endfacet
  facet normal 0 -0 1
    outer loop
      vertex -104.961 -55.6267 21
      vertex -104 -55 21
      vertex -105 -55 21
    endloop
  endfacet
  facet normal 0 0 1
    outer loop
      vertex -103.968 55.5013 21
      vertex -104.961 55.6267 21
      vertex -104 55 21
    endloop
  endfacet
  facet normal 0 0 1
    outer loop
      vertex -103.505 -56.927 21
      vertex -104.382 -57.4088 21
      vertex -104.045 -57.9389 21
    endloop
  endfacet
  facet normal 0 0 1
    outer loop
      vertex -104 55 21
      vertex -104.961 55.6267 21
      vertex -105 55 21
    endloop
  endfacet
  facet normal 0 0 1
    outer loop
      vertex -103.719 -56.4725 21
      vertex -104.649 -56.8406 21
      vertex -104.382 -57.4088 21
    endloop
  endfacet
  facet normal 0 0 1
    outer loop
      vertex -103.874 -55.9948 21
      vertex -104.843 -56.2435 21
      vertex -104.649 -56.8406 21
    endloop
  endfacet
  facet normal 0 0 1
    outer loop
      vertex -103.968 -55.5013 21
      vertex -104.961 -55.6267 21
      vertex -104.843 -56.2435 21
    endloop
  endfacet
  facet normal 0 1 -0
    outer loop
      vertex 100.314 59.9901 0
      vertex -100.314 59.9901 21
      vertex 100.314 59.9901 21
    endloop
  endfacet
  facet normal 0 1 0
    outer loop
      vertex -100.314 59.9901 21
      vertex 100.314 59.9901 0
      vertex -100.314 59.9901 0
    endloop
  endfacet
  facet normal 0 -1 0
    outer loop
      vertex -100.314 -59.9901 0
      vertex 100.314 -59.9901 21
      vertex -100.314 -59.9901 21
    endloop
  endfacet
  facet normal 0 -1 -0
    outer loop
      vertex 100.314 -59.9901 21
      vertex -100.314 -59.9901 0
      vertex 100.314 -59.9901 0
    endloop
  endfacet
  facet normal 0.125328 0.992115 -0
    outer loop
      vertex 100.937 59.9114 0
      vertex 100.314 59.9901 21
      vertex 100.937 59.9114 21
    endloop
  endfacet
  facet normal 0.125328 0.992115 0
    outer loop
      vertex 100.314 59.9901 21
      vertex 100.937 59.9114 0
      vertex 100.314 59.9901 0
    endloop
  endfacet
  facet normal 0.998069 0.0621106 0
    outer loop
      vertex 105 55 21
      vertex 104.961 55.6267 0
      vertex 104.961 55.6267 21
    endloop
  endfacet
  facet normal 0.998069 0.0621106 0
    outer loop
      vertex 104.961 55.6267 0
      vertex 105 55 21
      vertex 105 55 0
    endloop
  endfacet
  facet normal -0.248678 0.968586 0
    outer loop
      vertex -100.937 59.9114 0
      vertex -101.545 59.7553 21
      vertex -100.937 59.9114 21
    endloop
  endfacet
  facet normal -0.248678 0.968586 0
    outer loop
      vertex -101.545 59.7553 21
      vertex -100.937 59.9114 0
      vertex -101.545 59.7553 0
    endloop
  endfacet
  facet normal -0.770696 0.637202 0
    outer loop
      vertex -104.045 57.9389 0
      vertex -103.645 58.4227 21
      vertex -103.645 58.4227 0
    endloop
  endfacet
  facet normal -0.770696 0.637202 0
    outer loop
      vertex -103.645 58.4227 21
      vertex -104.045 57.9389 0
      vertex -104.045 57.9389 21
    endloop
  endfacet
  facet normal 1 -0 0
    outer loop
      vertex 105 -55 21
      vertex 105 55 0
      vertex 105 55 21
    endloop
  endfacet
  facet normal 1 0 0
    outer loop
      vertex 105 55 0
      vertex 105 -55 21
      vertex 105 -55 0
    endloop
  endfacet
  facet normal -0.368094 0.929788 0
    outer loop
      vertex -101.545 59.7553 0
      vertex -102.129 59.5241 21
      vertex -101.545 59.7553 21
    endloop
  endfacet
  facet normal -0.368094 0.929788 0
    outer loop
      vertex -102.129 59.5241 21
      vertex -101.545 59.7553 0
      vertex -102.129 59.5241 0
    endloop
  endfacet
  facet normal -0.982188 0.187902 0
    outer loop
      vertex -104.961 55.6267 0
      vertex -104.843 56.2435 21
      vertex -104.843 56.2435 0
    endloop
  endfacet
  facet normal -0.982188 0.187902 0
    outer loop
      vertex -104.843 56.2435 21
      vertex -104.961 55.6267 0
      vertex -104.961 55.6267 21
    endloop
  endfacet
  facet normal 0.951061 0.309003 0
    outer loop
      vertex 104.843 56.2435 21
      vertex 104.649 56.8406 0
      vertex 104.649 56.8406 21
    endloop
  endfacet
  facet normal 0.951061 0.309003 0
    outer loop
      vertex 104.649 56.8406 0
      vertex 104.843 56.2435 21
      vertex 104.843 56.2435 0
    endloop
  endfacet
  facet normal -0.684386 0.72912 0
    outer loop
      vertex -103.187 58.8526 0
      vertex -103.645 58.4227 21
      vertex -103.187 58.8526 21
    endloop
  endfacet
  facet normal -0.684386 0.72912 0
    outer loop
      vertex -103.645 58.4227 21
      vertex -103.187 58.8526 0
      vertex -103.645 58.4227 0
    endloop
  endfacet
  facet normal -0.248678 -0.968586 0
    outer loop
      vertex -101.545 -59.7553 0
      vertex -100.937 -59.9114 21
      vertex -101.545 -59.7553 21
    endloop
  endfacet
  facet normal -0.248678 -0.968586 -0
    outer loop
      vertex -100.937 -59.9114 21
      vertex -101.545 -59.7553 0
      vertex -100.937 -59.9114 0
    endloop
  endfacet
  facet normal -0.770696 -0.637202 0
    outer loop
      vertex -103.645 -58.4227 0
      vertex -104.045 -57.9389 21
      vertex -104.045 -57.9389 0
    endloop
  endfacet
  facet normal -0.770696 -0.637202 0
    outer loop
      vertex -104.045 -57.9389 21
      vertex -103.645 -58.4227 0
      vertex -103.645 -58.4227 21
    endloop
  endfacet
  facet normal -1 0 0
    outer loop
      vertex -105 -55 0
      vertex -105 55 21
      vertex -105 55 0
    endloop
  endfacet
  facet normal -1 -0 0
    outer loop
      vertex -105 55 21
      vertex -105 -55 0
      vertex -105 -55 21
    endloop
  endfacet
  facet normal -0.998069 0.0621106 0
    outer loop
      vertex -105 55 0
      vertex -104.961 55.6267 21
      vertex -104.961 55.6267 0
    endloop
  endfacet
  facet normal -0.998069 0.0621106 0
    outer loop
      vertex -104.961 55.6267 21
      vertex -105 55 0
      vertex -105 55 21
    endloop
  endfacet
  facet normal 0.368094 0.929788 -0
    outer loop
      vertex 102.129 59.5241 0
      vertex 101.545 59.7553 21
      vertex 102.129 59.5241 21
    endloop
  endfacet
  facet normal 0.368094 0.929788 0
    outer loop
      vertex 101.545 59.7553 21
      vertex 102.129 59.5241 0
      vertex 101.545 59.7553 0
    endloop
  endfacet
  facet normal 0.770696 0.637202 0
    outer loop
      vertex 104.045 57.9389 21
      vertex 103.645 58.4227 0
      vertex 103.645 58.4227 21
    endloop
  endfacet
  facet normal 0.770696 0.637202 0
    outer loop
      vertex 103.645 58.4227 0
      vertex 104.045 57.9389 21
      vertex 104.045 57.9389 0
    endloop
  endfacet
  facet normal 0.982188 0.187902 0
    outer loop
      vertex 104.961 55.6267 21
      vertex 104.843 56.2435 0
      vertex 104.843 56.2435 21
    endloop
  endfacet
  facet normal 0.982188 0.187902 0
    outer loop
      vertex 104.843 56.2435 0
      vertex 104.961 55.6267 21
      vertex 104.961 55.6267 0
    endloop
  endfacet
  facet normal 0.951061 -0.309003 0
    outer loop
      vertex 104.649 -56.8406 21
      vertex 104.843 -56.2435 0
      vertex 104.843 -56.2435 21
    endloop
  endfacet
  facet normal 0.951061 -0.309003 0
    outer loop
      vertex 104.843 -56.2435 0
      vertex 104.649 -56.8406 21
      vertex 104.649 -56.8406 0
    endloop
  endfacet
  facet normal 0.684386 -0.72912 0
    outer loop
      vertex 103.187 -58.8526 0
      vertex 103.645 -58.4227 21
      vertex 103.187 -58.8526 21
    endloop
  endfacet
  facet normal 0.684386 -0.72912 0
    outer loop
      vertex 103.645 -58.4227 21
      vertex 103.187 -58.8526 0
      vertex 103.645 -58.4227 0
    endloop
  endfacet
  facet normal -0.481919 -0.876216 0
    outer loop
      vertex -102.679 -59.2216 0
      vertex -102.129 -59.5241 21
      vertex -102.679 -59.2216 21
    endloop
  endfacet
  facet normal -0.481919 -0.876216 -0
    outer loop
      vertex -102.129 -59.5241 21
      vertex -102.679 -59.2216 0
      vertex -102.129 -59.5241 0
    endloop
  endfacet
  facet normal -0.481919 0.876216 0
    outer loop
      vertex -102.129 59.5241 0
      vertex -102.679 59.2216 21
      vertex -102.129 59.5241 21
    endloop
  endfacet
  facet normal -0.481919 0.876216 0
    outer loop
      vertex -102.679 59.2216 21
      vertex -102.129 59.5241 0
      vertex -102.679 59.2216 0
    endloop
  endfacet
  facet normal 0.248678 0.968586 -0
    outer loop
      vertex 101.545 59.7553 0
      vertex 100.937 59.9114 21
      vertex 101.545 59.7553 21
    endloop
  endfacet
  facet normal 0.248678 0.968586 0
    outer loop
      vertex 100.937 59.9114 21
      vertex 101.545 59.7553 0
      vertex 100.937 59.9114 0
    endloop
  endfacet
  facet normal 0.481919 0.876216 -0
    outer loop
      vertex 102.679 59.2216 0
      vertex 102.129 59.5241 21
      vertex 102.679 59.2216 21
    endloop
  endfacet
  facet normal 0.481919 0.876216 0
    outer loop
      vertex 102.129 59.5241 21
      vertex 102.679 59.2216 0
      vertex 102.129 59.5241 0
    endloop
  endfacet
  facet normal 0.905057 0.425291 0
    outer loop
      vertex 104.649 56.8406 21
      vertex 104.382 57.4088 0
      vertex 104.382 57.4088 21
    endloop
  endfacet
  facet normal 0.905057 0.425291 0
    outer loop
      vertex 104.382 57.4088 0
      vertex 104.649 56.8406 21
      vertex 104.649 56.8406 0
    endloop
  endfacet
  facet normal 0.843904 0.536494 0
    outer loop
      vertex 104.382 57.4088 21
      vertex 104.045 57.9389 0
      vertex 104.045 57.9389 21
    endloop
  endfacet
  facet normal 0.843904 0.536494 0
    outer loop
      vertex 104.045 57.9389 0
      vertex 104.382 57.4088 21
      vertex 104.382 57.4088 0
    endloop
  endfacet
  facet normal 0.684386 0.72912 -0
    outer loop
      vertex 103.645 58.4227 0
      vertex 103.187 58.8526 21
      vertex 103.645 58.4227 21
    endloop
  endfacet
  facet normal 0.684386 0.72912 0
    outer loop
      vertex 103.187 58.8526 21
      vertex 103.645 58.4227 0
      vertex 103.187 58.8526 0
    endloop
  endfacet
  facet normal 0.982188 -0.187902 0
    outer loop
      vertex 104.843 -56.2435 21
      vertex 104.961 -55.6267 0
      vertex 104.961 -55.6267 21
    endloop
  endfacet
  facet normal 0.982188 -0.187902 0
    outer loop
      vertex 104.961 -55.6267 0
      vertex 104.843 -56.2435 21
      vertex 104.843 -56.2435 0
    endloop
  endfacet
  facet normal 0.770696 -0.637202 0
    outer loop
      vertex 103.645 -58.4227 21
      vertex 104.045 -57.9389 0
      vertex 104.045 -57.9389 21
    endloop
  endfacet
  facet normal 0.770696 -0.637202 0
    outer loop
      vertex 104.045 -57.9389 0
      vertex 103.645 -58.4227 21
      vertex 103.645 -58.4227 0
    endloop
  endfacet
  facet normal 0.481919 -0.876216 0
    outer loop
      vertex 102.129 -59.5241 0
      vertex 102.679 -59.2216 21
      vertex 102.129 -59.5241 21
    endloop
  endfacet
  facet normal 0.481919 -0.876216 0
    outer loop
      vertex 102.679 -59.2216 21
      vertex 102.129 -59.5241 0
      vertex 102.679 -59.2216 0
    endloop
  endfacet
  facet normal -0.368094 -0.929788 0
    outer loop
      vertex -102.129 -59.5241 0
      vertex -101.545 -59.7553 21
      vertex -102.129 -59.5241 21
    endloop
  endfacet
  facet normal -0.368094 -0.929788 -0
    outer loop
      vertex -101.545 -59.7553 21
      vertex -102.129 -59.5241 0
      vertex -101.545 -59.7553 0
    endloop
  endfacet
  facet normal -0.125328 -0.992115 0
    outer loop
      vertex -100.937 -59.9114 0
      vertex -100.314 -59.9901 21
      vertex -100.937 -59.9114 21
    endloop
  endfacet
  facet normal -0.125328 -0.992115 -0
    outer loop
      vertex -100.314 -59.9901 21
      vertex -100.937 -59.9114 0
      vertex -100.314 -59.9901 0
    endloop
  endfacet
  facet normal -0.684386 -0.72912 0
    outer loop
      vertex -103.645 -58.4227 0
      vertex -103.187 -58.8526 21
      vertex -103.645 -58.4227 21
    endloop
  endfacet
  facet normal -0.684386 -0.72912 -0
    outer loop
      vertex -103.187 -58.8526 21
      vertex -103.645 -58.4227 0
      vertex -103.187 -58.8526 0
    endloop
  endfacet
  facet normal -0.998069 -0.0621106 0
    outer loop
      vertex -104.961 -55.6267 0
      vertex -105 -55 21
      vertex -105 -55 0
    endloop
  endfacet
  facet normal -0.998069 -0.0621106 0
    outer loop
      vertex -105 -55 21
      vertex -104.961 -55.6267 0
      vertex -104.961 -55.6267 21
    endloop
  endfacet
  facet normal -0.843904 0.536494 0
    outer loop
      vertex -104.382 57.4088 0
      vertex -104.045 57.9389 21
      vertex -104.045 57.9389 0
    endloop
  endfacet
  facet normal -0.843904 0.536494 0
    outer loop
      vertex -104.045 57.9389 21
      vertex -104.382 57.4088 0
      vertex -104.382 57.4088 21
    endloop
  endfacet
  facet normal -0.951061 0.309003 0
    outer loop
      vertex -104.843 56.2435 0
      vertex -104.649 56.8406 21
      vertex -104.649 56.8406 0
    endloop
  endfacet
  facet normal -0.951061 0.309003 0
    outer loop
      vertex -104.649 56.8406 21
      vertex -104.843 56.2435 0
      vertex -104.843 56.2435 21
    endloop
  endfacet
  facet normal 0.587698 0.80908 -0
    outer loop
      vertex 103.187 58.8526 0
      vertex 102.679 59.2216 21
      vertex 103.187 58.8526 21
    endloop
  endfacet
  facet normal 0.587698 0.80908 0
    outer loop
      vertex 102.679 59.2216 21
      vertex 103.187 58.8526 0
      vertex 102.679 59.2216 0
    endloop
  endfacet
  facet normal 0.843904 -0.536494 0
    outer loop
      vertex 104.045 -57.9389 21
      vertex 104.382 -57.4088 0
      vertex 104.382 -57.4088 21
    endloop
  endfacet
  facet normal 0.843904 -0.536494 0
    outer loop
      vertex 104.382 -57.4088 0
      vertex 104.045 -57.9389 21
      vertex 104.045 -57.9389 0
    endloop
  endfacet
  facet normal 0.905057 -0.425291 0
    outer loop
      vertex 104.382 -57.4088 21
      vertex 104.649 -56.8406 0
      vertex 104.649 -56.8406 21
    endloop
  endfacet
  facet normal 0.905057 -0.425291 0
    outer loop
      vertex 104.649 -56.8406 0
      vertex 104.382 -57.4088 21
      vertex 104.382 -57.4088 0
    endloop
  endfacet
  facet normal 0.125328 -0.992115 0
    outer loop
      vertex 100.314 -59.9901 0
      vertex 100.937 -59.9114 21
      vertex 100.314 -59.9901 21
    endloop
  endfacet
  facet normal 0.125328 -0.992115 0
    outer loop
      vertex 100.937 -59.9114 21
      vertex 100.314 -59.9901 0
      vertex 100.937 -59.9114 0
    endloop
  endfacet
  facet normal 0.368094 -0.929788 0
    outer loop
      vertex 101.545 -59.7553 0
      vertex 102.129 -59.5241 21
      vertex 101.545 -59.7553 21
    endloop
  endfacet
  facet normal 0.368094 -0.929788 0
    outer loop
      vertex 102.129 -59.5241 21
      vertex 101.545 -59.7553 0
      vertex 102.129 -59.5241 0
    endloop
  endfacet
  facet normal -0.587698 -0.80908 0
    outer loop
      vertex -103.187 -58.8526 0
      vertex -102.679 -59.2216 21
      vertex -103.187 -58.8526 21
    endloop
  endfacet
  facet normal -0.587698 -0.80908 -0
    outer loop
      vertex -102.679 -59.2216 21
      vertex -103.187 -58.8526 0
      vertex -102.679 -59.2216 0
    endloop
  endfacet
  facet normal -0.905057 -0.425291 0
    outer loop
      vertex -104.382 -57.4088 0
      vertex -104.649 -56.8406 21
      vertex -104.649 -56.8406 0
    endloop
  endfacet
  facet normal -0.905057 -0.425291 0
    outer loop
      vertex -104.649 -56.8406 21
      vertex -104.382 -57.4088 0
      vertex -104.382 -57.4088 21
    endloop
  endfacet
  facet normal -0.843904 -0.536494 0
    outer loop
      vertex -104.045 -57.9389 0
      vertex -104.382 -57.4088 21
      vertex -104.382 -57.4088 0
    endloop
  endfacet
  facet normal -0.843904 -0.536494 0
    outer loop
      vertex -104.382 -57.4088 21
      vertex -104.045 -57.9389 0
      vertex -104.045 -57.9389 21
    endloop
  endfacet
  facet normal -0.951061 -0.309003 0
    outer loop
      vertex -104.649 -56.8406 0
      vertex -104.843 -56.2435 21
      vertex -104.843 -56.2435 0
    endloop
  endfacet
  facet normal -0.951061 -0.309003 0
    outer loop
      vertex -104.843 -56.2435 21
      vertex -104.649 -56.8406 0
      vertex -104.649 -56.8406 21
    endloop
  endfacet
  facet normal -0.125328 0.992115 0
    outer loop
      vertex -100.314 59.9901 0
      vertex -100.937 59.9114 21
      vertex -100.314 59.9901 21
    endloop
  endfacet
  facet normal -0.125328 0.992115 0
    outer loop
      vertex -100.937 59.9114 21
      vertex -100.314 59.9901 0
      vertex -100.937 59.9114 0
    endloop
  endfacet
  facet normal -0.587698 0.80908 0
    outer loop
      vertex -102.679 59.2216 0
      vertex -103.187 58.8526 21
      vertex -102.679 59.2216 21
    endloop
  endfacet
  facet normal -0.587698 0.80908 0
    outer loop
      vertex -103.187 58.8526 21
      vertex -102.679 59.2216 0
      vertex -103.187 58.8526 0
    endloop
  endfacet
  facet normal -0.905057 0.425291 0
    outer loop
      vertex -104.649 56.8406 0
      vertex -104.382 57.4088 21
      vertex -104.382 57.4088 0
    endloop
  endfacet
  facet normal -0.905057 0.425291 0
    outer loop
      vertex -104.382 57.4088 21
      vertex -104.649 56.8406 0
      vertex -104.649 56.8406 21
    endloop
  endfacet
  facet normal 0.998069 -0.0621106 0
    outer loop
      vertex 104.961 -55.6267 21
      vertex 105 -55 0
      vertex 105 -55 21
    endloop
  endfacet
  facet normal 0.998069 -0.0621106 0
    outer loop
      vertex 105 -55 0
      vertex 104.961 -55.6267 21
      vertex 104.961 -55.6267 0
    endloop
  endfacet
  facet normal 0.587698 -0.80908 0
    outer loop
      vertex 102.679 -59.2216 0
      vertex 103.187 -58.8526 21
      vertex 102.679 -59.2216 21
    endloop
  endfacet
  facet normal 0.587698 -0.80908 0
    outer loop
      vertex 103.187 -58.8526 21
      vertex 102.679 -59.2216 0
      vertex 103.187 -58.8526 0
    endloop
  endfacet
  facet normal 0.248678 -0.968586 0
    outer loop
      vertex 100.937 -59.9114 0
      vertex 101.545 -59.7553 21
      vertex 100.937 -59.9114 21
    endloop
  endfacet
  facet normal 0.248678 -0.968586 0
    outer loop
      vertex 101.545 -59.7553 21
      vertex 100.937 -59.9114 0
      vertex 101.545 -59.7553 0
    endloop
  endfacet
  facet normal 0 0 -1
    outer loop
      vertex 100.314 -59.9901 0
      vertex 105 -55 0
      vertex 104.961 -55.6267 0
    endloop
  endfacet
  facet normal -0 0 -1
    outer loop
      vertex 105 -55 0
      vertex 100.314 -59.9901 0
      vertex 105 55 0
    endloop
  endfacet
  facet normal 0 0 -1
    outer loop
      vertex 100.314 -59.9901 0
      vertex 104.961 -55.6267 0
      vertex 104.843 -56.2435 0
    endloop
  endfacet
  facet normal 0 0 -1
    outer loop
      vertex 100.314 59.9901 0
      vertex 105 55 0
      vertex 100.314 -59.9901 0
    endloop
  endfacet
  facet normal 0 0 -1
    outer loop
      vertex 100.314 -59.9901 0
      vertex 104.843 -56.2435 0
      vertex 104.649 -56.8406 0
    endloop
  endfacet
  facet normal 0 0 -1
    outer loop
      vertex 105 55 0
      vertex 100.314 59.9901 0
      vertex 104.961 55.6267 0
    endloop
  endfacet
  facet normal 0 0 -1
    outer loop
      vertex 100.314 -59.9901 0
      vertex 104.649 -56.8406 0
      vertex 104.382 -57.4088 0
    endloop
  endfacet
  facet normal 0 0 -1
    outer loop
      vertex 104.961 55.6267 0
      vertex 100.314 59.9901 0
      vertex 104.843 56.2435 0
    endloop
  endfacet
  facet normal 0 0 -1
    outer loop
      vertex 100.314 -59.9901 0
      vertex 104.382 -57.4088 0
      vertex 104.045 -57.9389 0
    endloop
  endfacet
  facet normal 0 0 -1
    outer loop
      vertex 104.843 56.2435 0
      vertex 100.314 59.9901 0
      vertex 104.649 56.8406 0
    endloop
  endfacet
  facet normal 0 0 -1
    outer loop
      vertex 100.314 -59.9901 0
      vertex 104.045 -57.9389 0
      vertex 103.645 -58.4227 0
    endloop
  endfacet
  facet normal 0 0 -1
    outer loop
      vertex 104.649 56.8406 0
      vertex 100.314 59.9901 0
      vertex 104.382 57.4088 0
    endloop
  endfacet
  facet normal 0 0 -1
    outer loop
      vertex 100.314 -59.9901 0
      vertex 103.645 -58.4227 0
      vertex 103.187 -58.8526 0
    endloop
  endfacet
  facet normal 0 0 -1
    outer loop
      vertex 104.382 57.4088 0
      vertex 100.314 59.9901 0
      vertex 104.045 57.9389 0
    endloop
  endfacet
  facet normal 0 0 -1
    outer loop
      vertex 100.314 -59.9901 0
      vertex 103.187 -58.8526 0
      vertex 102.679 -59.2216 0
    endloop
  endfacet
  facet normal 0 0 -1
    outer loop
      vertex 104.045 57.9389 0
      vertex 100.314 59.9901 0
      vertex 103.645 58.4227 0
    endloop
  endfacet
  facet normal 0 0 -1
    outer loop
      vertex 100.314 -59.9901 0
      vertex 102.679 -59.2216 0
      vertex 102.129 -59.5241 0
    endloop
  endfacet
  facet normal 0 0 -1
    outer loop
      vertex 103.645 58.4227 0
      vertex 100.314 59.9901 0
      vertex 103.187 58.8526 0
    endloop
  endfacet
  facet normal 0 0 -1
    outer loop
      vertex 100.314 -59.9901 0
      vertex 102.129 -59.5241 0
      vertex 101.545 -59.7553 0
    endloop
  endfacet
  facet normal 0 0 -1
    outer loop
      vertex 103.187 58.8526 0
      vertex 100.314 59.9901 0
      vertex 102.679 59.2216 0
    endloop
  endfacet
  facet normal 0 0 -1
    outer loop
      vertex 100.314 -59.9901 0
      vertex 101.545 -59.7553 0
      vertex 100.937 -59.9114 0
    endloop
  endfacet
  facet normal 0 0 -1
    outer loop
      vertex 102.679 59.2216 0
      vertex 100.314 59.9901 0
      vertex 102.129 59.5241 0
    endloop
  endfacet
  facet normal 0 0 -1
    outer loop
      vertex 102.129 59.5241 0
      vertex 100.314 59.9901 0
      vertex 101.545 59.7553 0
    endloop
  endfacet
  facet normal 0 0 -1
    outer loop
      vertex 101.545 59.7553 0
      vertex 100.314 59.9901 0
      vertex 100.937 59.9114 0
    endloop
  endfacet
  facet normal 0 0 -1
    outer loop
      vertex -100.314 -59.9901 0
      vertex 100.314 59.9901 0
      vertex 100.314 -59.9901 0
    endloop
  endfacet
  facet normal 0 0 -1
    outer loop
      vertex -100.314 -59.9901 0
      vertex -100.314 59.9901 0
      vertex 100.314 59.9901 0
    endloop
  endfacet
  facet normal 0 0 -1
    outer loop
      vertex -105 -55 0
      vertex -100.314 -59.9901 0
      vertex -100.937 -59.9114 0
    endloop
  endfacet
  facet normal 0 0 -1
    outer loop
      vertex -100.314 -59.9901 0
      vertex -105 -55 0
      vertex -100.314 59.9901 0
    endloop
  endfacet
  facet normal 0 0 -1
    outer loop
      vertex -105 -55 0
      vertex -100.937 -59.9114 0
      vertex -101.545 -59.7553 0
    endloop
  endfacet
  facet normal 0 0 -1
    outer loop
      vertex -105 55 0
      vertex -100.314 59.9901 0
      vertex -105 -55 0
    endloop
  endfacet
  facet normal 0 0 -1
    outer loop
      vertex -105 -55 0
      vertex -101.545 -59.7553 0
      vertex -102.129 -59.5241 0
    endloop
  endfacet
  facet normal 0 0 -1
    outer loop
      vertex -100.314 59.9901 0
      vertex -105 55 0
      vertex -100.937 59.9114 0
    endloop
  endfacet
  facet normal 0 0 -1
    outer loop
      vertex -105 -55 0
      vertex -102.129 -59.5241 0
      vertex -102.679 -59.2216 0
    endloop
  endfacet
  facet normal 0 0 -1
    outer loop
      vertex -100.937 59.9114 0
      vertex -105 55 0
      vertex -101.545 59.7553 0
    endloop
  endfacet
  facet normal 0 0 -1
    outer loop
      vertex -105 -55 0
      vertex -102.679 -59.2216 0
      vertex -103.187 -58.8526 0
    endloop
  endfacet
  facet normal 0 0 -1
    outer loop
      vertex -101.545 59.7553 0
      vertex -105 55 0
      vertex -102.129 59.5241 0
    endloop
  endfacet
  facet normal 0 0 -1
    outer loop
      vertex -105 -55 0
      vertex -103.187 -58.8526 0
      vertex -103.645 -58.4227 0
    endloop
  endfacet
  facet normal 0 0 -1
    outer loop
      vertex -102.129 59.5241 0
      vertex -105 55 0
      vertex -102.679 59.2216 0
    endloop
  endfacet
  facet normal 0 0 -1
    outer loop
      vertex -105 -55 0
      vertex -103.645 -58.4227 0
      vertex -104.045 -57.9389 0
    endloop
  endfacet
  facet normal 0 0 -1
    outer loop
      vertex -102.679 59.2216 0
      vertex -105 55 0
      vertex -103.187 58.8526 0
    endloop
  endfacet
  facet normal 0 0 -1
    outer loop
      vertex -105 -55 0
      vertex -104.045 -57.9389 0
      vertex -104.382 -57.4088 0
    endloop
  endfacet
  facet normal 0 0 -1
    outer loop
      vertex -103.187 58.8526 0
      vertex -105 55 0
      vertex -103.645 58.4227 0
    endloop
  endfacet
  facet normal 0 0 -1
    outer loop
      vertex -105 -55 0
      vertex -104.382 -57.4088 0
      vertex -104.649 -56.8406 0
    endloop
  endfacet
  facet normal 0 0 -1
    outer loop
      vertex -103.645 58.4227 0
      vertex -105 55 0
      vertex -104.045 57.9389 0
    endloop
  endfacet
  facet normal 0 0 -1
    outer loop
      vertex -105 -55 0
      vertex -104.649 -56.8406 0
      vertex -104.843 -56.2435 0
    endloop
  endfacet
  facet normal 0 0 -1
    outer loop
      vertex -104.045 57.9389 0
      vertex -105 55 0
      vertex -104.382 57.4088 0
    endloop
  endfacet
  facet normal 0 0 -1
    outer loop
      vertex -105 -55 0
      vertex -104.843 -56.2435 0
      vertex -104.961 -55.6267 0
    endloop
  endfacet
  facet normal 0 0 -1
    outer loop
      vertex -104.382 57.4088 0
      vertex -105 55 0
      vertex -104.649 56.8406 0
    endloop
  endfacet
  facet normal 0 0 -1
    outer loop
      vertex -104.649 56.8406 0
      vertex -105 55 0
      vertex -104.843 56.2435 0
    endloop
  endfacet
  facet normal 0 0 -1
    outer loop
      vertex -104.843 56.2435 0
      vertex -105 55 0
      vertex -104.961 55.6267 0
    endloop
  endfacet
  facet normal -0.982188 -0.187902 0
    outer loop
      vertex -104.843 -56.2435 0
      vertex -104.961 -55.6267 21
      vertex -104.961 -55.6267 0
    endloop
  endfacet
  facet normal -0.982188 -0.187902 0
    outer loop
      vertex -104.961 -55.6267 21
      vertex -104.843 -56.2435 0
      vertex -104.843 -56.2435 21
    endloop
  endfacet
  facet normal -0.125258 -0.992124 0
    outer loop
      vertex 100.251 58.9921 2
      vertex 100.75 58.9291 21
      vertex 100.251 58.9921 21
    endloop
  endfacet
  facet normal -0.125258 -0.992124 -0
    outer loop
      vertex 100.75 58.9291 21
      vertex 100.251 58.9921 2
      vertex 100.75 58.9291 2
    endloop
  endfacet
  facet normal 0 -1 0
    outer loop
      vertex -100.251 58.9921 2
      vertex 100.251 58.9921 21
      vertex -100.251 58.9921 21
    endloop
  endfacet
  facet normal 0 -1 -0
    outer loop
      vertex 100.251 58.9921 21
      vertex -100.251 58.9921 2
      vertex 100.251 58.9921 2
    endloop
  endfacet
  facet normal 0.125258 -0.992124 0
    outer loop
      vertex -100.75 58.9291 2
      vertex -100.251 58.9921 21
      vertex -100.75 58.9291 21
    endloop
  endfacet
  facet normal 0.125258 -0.992124 0
    outer loop
      vertex -100.251 58.9921 21
      vertex -100.75 58.9291 2
      vertex -100.251 58.9921 2
    endloop
  endfacet
  facet normal -0.770745 -0.637144 0
    outer loop
      vertex 103.236 57.3511 2
      vertex 102.916 57.7382 21
      vertex 102.916 57.7382 2
    endloop
  endfacet
  facet normal -0.770745 -0.637144 0
    outer loop
      vertex 102.916 57.7382 21
      vertex 103.236 57.3511 2
      vertex 103.236 57.3511 21
    endloop
  endfacet
  facet normal 0 1 -0
    outer loop
      vertex 100.251 -58.9921 2
      vertex -100.251 -58.9921 21
      vertex 100.251 -58.9921 21
    endloop
  endfacet
  facet normal 0 1 0
    outer loop
      vertex -100.251 -58.9921 21
      vertex 100.251 -58.9921 2
      vertex -100.251 -58.9921 2
    endloop
  endfacet
  facet normal -1 0 0
    outer loop
      vertex 104 -55 2
      vertex 104 55 21
      vertex 104 55 2
    endloop
  endfacet
  facet normal -1 -0 0
    outer loop
      vertex 104 55 21
      vertex 104 -55 2
      vertex 104 -55 21
    endloop
  endfacet
  facet normal 0.368127 -0.929775 0
    outer loop
      vertex -101.703 58.6193 2
      vertex -101.236 58.8042 21
      vertex -101.703 58.6193 21
    endloop
  endfacet
  facet normal 0.368127 -0.929775 0
    outer loop
      vertex -101.236 58.8042 21
      vertex -101.703 58.6193 2
      vertex -101.236 58.8042 2
    endloop
  endfacet
  facet normal 0.481919 -0.876216 0
    outer loop
      vertex -102.143 58.3773 2
      vertex -101.703 58.6193 21
      vertex -102.143 58.3773 21
    endloop
  endfacet
  facet normal 0.481919 -0.876216 0
    outer loop
      vertex -101.703 58.6193 21
      vertex -102.143 58.3773 2
      vertex -101.703 58.6193 2
    endloop
  endfacet
  facet normal 0.684762 -0.728767 0
    outer loop
      vertex -102.916 57.7382 2
      vertex -102.55 58.0821 21
      vertex -102.916 57.7382 21
    endloop
  endfacet
  facet normal 0.684762 -0.728767 0
    outer loop
      vertex -102.55 58.0821 21
      vertex -102.916 57.7382 2
      vertex -102.55 58.0821 2
    endloop
  endfacet
  facet normal -0.368127 -0.929775 0
    outer loop
      vertex 101.236 58.8042 2
      vertex 101.703 58.6193 21
      vertex 101.236 58.8042 21
    endloop
  endfacet
  facet normal -0.368127 -0.929775 -0
    outer loop
      vertex 101.703 58.6193 21
      vertex 101.236 58.8042 2
      vertex 101.703 58.6193 2
    endloop
  endfacet
  facet normal -0.481919 -0.876216 0
    outer loop
      vertex 101.703 58.6193 2
      vertex 102.143 58.3773 21
      vertex 101.703 58.6193 21
    endloop
  endfacet
  facet normal -0.481919 -0.876216 -0
    outer loop
      vertex 102.143 58.3773 21
      vertex 101.703 58.6193 2
      vertex 102.143 58.3773 2
    endloop
  endfacet
  facet normal -0.684762 -0.728767 0
    outer loop
      vertex 102.55 58.0821 2
      vertex 102.916 57.7382 21
      vertex 102.55 58.0821 21
    endloop
  endfacet
  facet normal -0.684762 -0.728767 -0
    outer loop
      vertex 102.916 57.7382 21
      vertex 102.55 58.0821 2
      vertex 102.916 57.7382 2
    endloop
  endfacet
  facet normal 0.770745 0.637144 0
    outer loop
      vertex -102.916 -57.7382 21
      vertex -103.236 -57.3511 2
      vertex -103.236 -57.3511 21
    endloop
  endfacet
  facet normal 0.770745 0.637144 0
    outer loop
      vertex -103.236 -57.3511 2
      vertex -102.916 -57.7382 21
      vertex -102.916 -57.7382 2
    endloop
  endfacet
  facet normal 1 -0 0
    outer loop
      vertex -104 -55 21
      vertex -104 55 2
      vertex -104 55 21
    endloop
  endfacet
  facet normal 1 0 0
    outer loop
      vertex -104 55 2
      vertex -104 -55 21
      vertex -104 -55 2
    endloop
  endfacet
  facet normal 0.997969 -0.0637044 0
    outer loop
      vertex -104 55 21
      vertex -103.968 55.5013 2
      vertex -103.968 55.5013 21
    endloop
  endfacet
  facet normal 0.997969 -0.0637044 0
    outer loop
      vertex -103.968 55.5013 2
      vertex -104 55 21
      vertex -104 55 2
    endloop
  endfacet
  facet normal 0.951182 -0.308631 0
    outer loop
      vertex -103.874 55.9948 21
      vertex -103.719 56.4725 2
      vertex -103.719 56.4725 21
    endloop
  endfacet
  facet normal 0.951182 -0.308631 0
    outer loop
      vertex -103.719 56.4725 2
      vertex -103.874 55.9948 21
      vertex -103.874 55.9948 2
    endloop
  endfacet
  facet normal 0.248908 -0.968527 0
    outer loop
      vertex -101.236 58.8042 2
      vertex -100.75 58.9291 21
      vertex -101.236 58.8042 21
    endloop
  endfacet
  facet normal 0.248908 -0.968527 0
    outer loop
      vertex -100.75 58.9291 21
      vertex -101.236 58.8042 2
      vertex -100.75 58.9291 2
    endloop
  endfacet
  facet normal -0.248908 -0.968527 0
    outer loop
      vertex 100.75 58.9291 2
      vertex 101.236 58.8042 21
      vertex 100.75 58.9291 21
    endloop
  endfacet
  facet normal -0.248908 -0.968527 -0
    outer loop
      vertex 101.236 58.8042 21
      vertex 100.75 58.9291 2
      vertex 101.236 58.8042 2
    endloop
  endfacet
  facet normal -0.587131 -0.809492 0
    outer loop
      vertex 102.143 58.3773 2
      vertex 102.55 58.0821 21
      vertex 102.143 58.3773 21
    endloop
  endfacet
  facet normal -0.587131 -0.809492 -0
    outer loop
      vertex 102.55 58.0821 21
      vertex 102.143 58.3773 2
      vertex 102.55 58.0821 2
    endloop
  endfacet
  facet normal -0.844456 -0.535625 0
    outer loop
      vertex 103.505 56.927 2
      vertex 103.236 57.3511 21
      vertex 103.236 57.3511 2
    endloop
  endfacet
  facet normal -0.844456 -0.535625 0
    outer loop
      vertex 103.236 57.3511 21
      vertex 103.505 56.927 2
      vertex 103.505 56.927 21
    endloop
  endfacet
  facet normal -0.951182 0.308631 0
    outer loop
      vertex 103.719 -56.4725 2
      vertex 103.874 -55.9948 21
      vertex 103.874 -55.9948 2
    endloop
  endfacet
  facet normal -0.951182 0.308631 0
    outer loop
      vertex 103.874 -55.9948 21
      vertex 103.719 -56.4725 2
      vertex 103.719 -56.4725 21
    endloop
  endfacet
  facet normal -0.904728 -0.425989 0
    outer loop
      vertex 103.719 56.4725 2
      vertex 103.505 56.927 21
      vertex 103.505 56.927 2
    endloop
  endfacet
  facet normal -0.904728 -0.425989 0
    outer loop
      vertex 103.505 56.927 21
      vertex 103.719 56.4725 2
      vertex 103.719 56.4725 21
    endloop
  endfacet
  facet normal -0.951182 -0.308631 0
    outer loop
      vertex 103.874 55.9948 2
      vertex 103.719 56.4725 21
      vertex 103.719 56.4725 2
    endloop
  endfacet
  facet normal -0.951182 -0.308631 0
    outer loop
      vertex 103.719 56.4725 21
      vertex 103.874 55.9948 2
      vertex 103.874 55.9948 21
    endloop
  endfacet
  facet normal -0.770745 0.637144 0
    outer loop
      vertex 102.916 -57.7382 2
      vertex 103.236 -57.3511 21
      vertex 103.236 -57.3511 2
    endloop
  endfacet
  facet normal -0.770745 0.637144 0
    outer loop
      vertex 103.236 -57.3511 21
      vertex 102.916 -57.7382 2
      vertex 102.916 -57.7382 21
    endloop
  endfacet
  facet normal -0.481919 0.876216 0
    outer loop
      vertex 102.143 -58.3773 2
      vertex 101.703 -58.6193 21
      vertex 102.143 -58.3773 21
    endloop
  endfacet
  facet normal -0.481919 0.876216 0
    outer loop
      vertex 101.703 -58.6193 21
      vertex 102.143 -58.3773 2
      vertex 101.703 -58.6193 2
    endloop
  endfacet
  facet normal -0.684762 0.728767 0
    outer loop
      vertex 102.916 -57.7382 2
      vertex 102.55 -58.0821 21
      vertex 102.916 -57.7382 21
    endloop
  endfacet
  facet normal -0.684762 0.728767 0
    outer loop
      vertex 102.55 -58.0821 21
      vertex 102.916 -57.7382 2
      vertex 102.55 -58.0821 2
    endloop
  endfacet
  facet normal 0.481919 0.876216 -0
    outer loop
      vertex -101.703 -58.6193 2
      vertex -102.143 -58.3773 21
      vertex -101.703 -58.6193 21
    endloop
  endfacet
  facet normal 0.481919 0.876216 0
    outer loop
      vertex -102.143 -58.3773 21
      vertex -101.703 -58.6193 2
      vertex -102.143 -58.3773 2
    endloop
  endfacet
  facet normal 0.368127 0.929775 -0
    outer loop
      vertex -101.236 -58.8042 2
      vertex -101.703 -58.6193 21
      vertex -101.236 -58.8042 21
    endloop
  endfacet
  facet normal 0.368127 0.929775 0
    outer loop
      vertex -101.703 -58.6193 21
      vertex -101.236 -58.8042 2
      vertex -101.703 -58.6193 2
    endloop
  endfacet
  facet normal 0.248908 0.968527 -0
    outer loop
      vertex -100.75 -58.9291 2
      vertex -101.236 -58.8042 21
      vertex -100.75 -58.9291 21
    endloop
  endfacet
  facet normal 0.248908 0.968527 0
    outer loop
      vertex -101.236 -58.8042 21
      vertex -100.75 -58.9291 2
      vertex -101.236 -58.8042 2
    endloop
  endfacet
  facet normal 0.684762 0.728767 -0
    outer loop
      vertex -102.55 -58.0821 2
      vertex -102.916 -57.7382 21
      vertex -102.55 -58.0821 21
    endloop
  endfacet
  facet normal 0.684762 0.728767 0
    outer loop
      vertex -102.916 -57.7382 21
      vertex -102.55 -58.0821 2
      vertex -102.916 -57.7382 2
    endloop
  endfacet
  facet normal 0.997969 0.0637044 0
    outer loop
      vertex -103.968 -55.5013 21
      vertex -104 -55 2
      vertex -104 -55 21
    endloop
  endfacet
  facet normal 0.997969 0.0637044 0
    outer loop
      vertex -104 -55 2
      vertex -103.968 -55.5013 21
      vertex -103.968 -55.5013 2
    endloop
  endfacet
  facet normal 0.844456 -0.535625 0
    outer loop
      vertex -103.505 56.927 21
      vertex -103.236 57.3511 2
      vertex -103.236 57.3511 21
    endloop
  endfacet
  facet normal 0.844456 -0.535625 0
    outer loop
      vertex -103.236 57.3511 2
      vertex -103.505 56.927 21
      vertex -103.505 56.927 2
    endloop
  endfacet
  facet normal 0.770745 -0.637144 0
    outer loop
      vertex -103.236 57.3511 21
      vertex -102.916 57.7382 2
      vertex -102.916 57.7382 21
    endloop
  endfacet
  facet normal 0.770745 -0.637144 0
    outer loop
      vertex -102.916 57.7382 2
      vertex -103.236 57.3511 21
      vertex -103.236 57.3511 2
    endloop
  endfacet
  facet normal -0.982339 -0.187112 0
    outer loop
      vertex 103.968 55.5013 2
      vertex 103.874 55.9948 21
      vertex 103.874 55.9948 2
    endloop
  endfacet
  facet normal -0.982339 -0.187112 0
    outer loop
      vertex 103.874 55.9948 21
      vertex 103.968 55.5013 2
      vertex 103.968 55.5013 21
    endloop
  endfacet
  facet normal -0.997969 -0.0637044 0
    outer loop
      vertex 104 55 2
      vertex 103.968 55.5013 21
      vertex 103.968 55.5013 2
    endloop
  endfacet
  facet normal -0.997969 -0.0637044 0
    outer loop
      vertex 103.968 55.5013 21
      vertex 104 55 2
      vertex 104 55 21
    endloop
  endfacet
  facet normal -0.904728 0.425989 0
    outer loop
      vertex 103.505 -56.927 2
      vertex 103.719 -56.4725 21
      vertex 103.719 -56.4725 2
    endloop
  endfacet
  facet normal -0.904728 0.425989 0
    outer loop
      vertex 103.719 -56.4725 21
      vertex 103.505 -56.927 2
      vertex 103.505 -56.927 21
    endloop
  endfacet
  facet normal -0.844456 0.535625 0
    outer loop
      vertex 103.236 -57.3511 2
      vertex 103.505 -56.927 21
      vertex 103.505 -56.927 2
    endloop
  endfacet
  facet normal -0.844456 0.535625 0
    outer loop
      vertex 103.505 -56.927 21
      vertex 103.236 -57.3511 2
      vertex 103.236 -57.3511 21
    endloop
  endfacet
  facet normal -0.982339 0.187112 0
    outer loop
      vertex 103.874 -55.9948 2
      vertex 103.968 -55.5013 21
      vertex 103.968 -55.5013 2
    endloop
  endfacet
  facet normal -0.982339 0.187112 0
    outer loop
      vertex 103.968 -55.5013 21
      vertex 103.874 -55.9948 2
      vertex 103.874 -55.9948 21
    endloop
  endfacet
  facet normal -0.587131 0.809492 0
    outer loop
      vertex 102.55 -58.0821 2
      vertex 102.143 -58.3773 21
      vertex 102.55 -58.0821 21
    endloop
  endfacet
  facet normal -0.587131 0.809492 0
    outer loop
      vertex 102.143 -58.3773 21
      vertex 102.55 -58.0821 2
      vertex 102.143 -58.3773 2
    endloop
  endfacet
  facet normal -0.368127 0.929775 0
    outer loop
      vertex 101.703 -58.6193 2
      vertex 101.236 -58.8042 21
      vertex 101.703 -58.6193 21
    endloop
  endfacet
  facet normal -0.368127 0.929775 0
    outer loop
      vertex 101.236 -58.8042 21
      vertex 101.703 -58.6193 2
      vertex 101.236 -58.8042 2
    endloop
  endfacet
  facet normal -0.125258 0.992124 0
    outer loop
      vertex 100.75 -58.9291 2
      vertex 100.251 -58.9921 21
      vertex 100.75 -58.9291 21
    endloop
  endfacet
  facet normal -0.125258 0.992124 0
    outer loop
      vertex 100.251 -58.9921 21
      vertex 100.75 -58.9291 2
      vertex 100.251 -58.9921 2
    endloop
  endfacet
  facet normal 0.125258 0.992124 -0
    outer loop
      vertex -100.251 -58.9921 2
      vertex -100.75 -58.9291 21
      vertex -100.251 -58.9921 21
    endloop
  endfacet
  facet normal 0.125258 0.992124 0
    outer loop
      vertex -100.75 -58.9291 21
      vertex -100.251 -58.9921 2
      vertex -100.75 -58.9291 2
    endloop
  endfacet
  facet normal 0.904728 0.425989 0
    outer loop
      vertex -103.505 -56.927 21
      vertex -103.719 -56.4725 2
      vertex -103.719 -56.4725 21
    endloop
  endfacet
  facet normal 0.904728 0.425989 0
    outer loop
      vertex -103.719 -56.4725 2
      vertex -103.505 -56.927 21
      vertex -103.505 -56.927 2
    endloop
  endfacet
  facet normal 0.844456 0.535625 0
    outer loop
      vertex -103.236 -57.3511 21
      vertex -103.505 -56.927 2
      vertex -103.505 -56.927 21
    endloop
  endfacet
  facet normal 0.844456 0.535625 0
    outer loop
      vertex -103.505 -56.927 2
      vertex -103.236 -57.3511 21
      vertex -103.236 -57.3511 2
    endloop
  endfacet
  facet normal 0.951182 0.308631 0
    outer loop
      vertex -103.719 -56.4725 21
      vertex -103.874 -55.9948 2
      vertex -103.874 -55.9948 21
    endloop
  endfacet
  facet normal 0.951182 0.308631 0
    outer loop
      vertex -103.874 -55.9948 2
      vertex -103.719 -56.4725 21
      vertex -103.719 -56.4725 2
    endloop
  endfacet
  facet normal 0.587131 -0.809492 0
    outer loop
      vertex -102.55 58.0821 2
      vertex -102.143 58.3773 21
      vertex -102.55 58.0821 21
    endloop
  endfacet
  facet normal 0.587131 -0.809492 0
    outer loop
      vertex -102.143 58.3773 21
      vertex -102.55 58.0821 2
      vertex -102.143 58.3773 2
    endloop
  endfacet
  facet normal 0.904728 -0.425989 0
    outer loop
      vertex -103.719 56.4725 21
      vertex -103.505 56.927 2
      vertex -103.505 56.927 21
    endloop
  endfacet
  facet normal 0.904728 -0.425989 0
    outer loop
      vertex -103.505 56.927 2
      vertex -103.719 56.4725 21
      vertex -103.719 56.4725 2
    endloop
  endfacet
  facet normal 0.982339 -0.187112 0
    outer loop
      vertex -103.968 55.5013 21
      vertex -103.874 55.9948 2
      vertex -103.874 55.9948 21
    endloop
  endfacet
  facet normal 0.982339 -0.187112 0
    outer loop
      vertex -103.874 55.9948 2
      vertex -103.968 55.5013 21
      vertex -103.968 55.5013 2
    endloop
  endfacet
  facet normal -0.997969 0.0637044 0
    outer loop
      vertex 103.968 -55.5013 2
      vertex 104 -55 21
      vertex 104 -55 2
    endloop
  endfacet
  facet normal -0.997969 0.0637044 0
    outer loop
      vertex 104 -55 21
      vertex 103.968 -55.5013 2
      vertex 103.968 -55.5013 21
    endloop
  endfacet
  facet normal -0.248908 0.968527 0
    outer loop
      vertex 101.236 -58.8042 2
      vertex 100.75 -58.9291 21
      vertex 101.236 -58.8042 21
    endloop
  endfacet
  facet normal -0.248908 0.968527 0
    outer loop
      vertex 100.75 -58.9291 21
      vertex 101.236 -58.8042 2
      vertex 100.75 -58.9291 2
    endloop
  endfacet
  facet normal 0.587131 0.809492 -0
    outer loop
      vertex -102.143 -58.3773 2
      vertex -102.55 -58.0821 21
      vertex -102.143 -58.3773 21
    endloop
  endfacet
  facet normal 0.587131 0.809492 0
    outer loop
      vertex -102.55 -58.0821 21
      vertex -102.143 -58.3773 2
      vertex -102.55 -58.0821 2
    endloop
  endfacet
  facet normal 0 0 1
    outer loop
      vertex 100.251 58.9921 2
      vertex 104 55 2
      vertex 103.968 55.5013 2
    endloop
  endfacet
  facet normal 0 0 1
    outer loop
      vertex 104 55 2
      vertex 100.251 58.9921 2
      vertex 104 -55 2
    endloop
  endfacet
  facet normal 0 0 1
    outer loop
      vertex 100.251 58.9921 2
      vertex 103.968 55.5013 2
      vertex 103.874 55.9948 2
    endloop
  endfacet
  facet normal 0 0 1
    outer loop
      vertex 100.251 -58.9921 2
      vertex 104 -55 2
      vertex 100.251 58.9921 2
    endloop
  endfacet
  facet normal 0 0 1
    outer loop
      vertex 100.251 58.9921 2
      vertex 103.874 55.9948 2
      vertex 103.719 56.4725 2
    endloop
  endfacet
  facet normal 0 0 1
    outer loop
      vertex 104 -55 2
      vertex 100.251 -58.9921 2
      vertex 103.968 -55.5013 2
    endloop
  endfacet
  facet normal 0 0 1
    outer loop
      vertex 100.251 58.9921 2
      vertex 103.719 56.4725 2
      vertex 103.505 56.927 2
    endloop
  endfacet
  facet normal 0 0 1
    outer loop
      vertex 103.968 -55.5013 2
      vertex 100.251 -58.9921 2
      vertex 103.874 -55.9948 2
    endloop
  endfacet
  facet normal 0 0 1
    outer loop
      vertex 100.251 58.9921 2
      vertex 103.505 56.927 2
      vertex 103.236 57.3511 2
    endloop
  endfacet
  facet normal 0 0 1
    outer loop
      vertex 103.874 -55.9948 2
      vertex 100.251 -58.9921 2
      vertex 103.719 -56.4725 2
    endloop
  endfacet
  facet normal 0 0 1
    outer loop
      vertex 100.251 58.9921 2
      vertex 103.236 57.3511 2
      vertex 102.916 57.7382 2
    endloop
  endfacet
  facet normal 0 0 1
    outer loop
      vertex 103.719 -56.4725 2
      vertex 100.251 -58.9921 2
      vertex 103.505 -56.927 2
    endloop
  endfacet
  facet normal 0 0 1
    outer loop
      vertex 100.251 58.9921 2
      vertex 102.916 57.7382 2
      vertex 102.55 58.0821 2
    endloop
  endfacet
  facet normal 0 0 1
    outer loop
      vertex 103.505 -56.927 2
      vertex 100.251 -58.9921 2
      vertex 103.236 -57.3511 2
    endloop
  endfacet
  facet normal 0 0 1
    outer loop
      vertex 100.251 58.9921 2
      vertex 102.55 58.0821 2
      vertex 102.143 58.3773 2
    endloop
  endfacet
  facet normal 0 0 1
    outer loop
      vertex 103.236 -57.3511 2
      vertex 100.251 -58.9921 2
      vertex 102.916 -57.7382 2
    endloop
  endfacet
  facet normal 0 0 1
    outer loop
      vertex 100.251 58.9921 2
      vertex 102.143 58.3773 2
      vertex 101.703 58.6193 2
    endloop
  endfacet
  facet normal 0 0 1
    outer loop
      vertex 102.916 -57.7382 2
      vertex 100.251 -58.9921 2
      vertex 102.55 -58.0821 2
    endloop
  endfacet
  facet normal 0 0 1
    outer loop
      vertex 100.251 58.9921 2
      vertex 101.703 58.6193 2
      vertex 101.236 58.8042 2
    endloop
  endfacet
  facet normal 0 0 1
    outer loop
      vertex 102.55 -58.0821 2
      vertex 100.251 -58.9921 2
      vertex 102.143 -58.3773 2
    endloop
  endfacet
  facet normal 0 0 1
    outer loop
      vertex 100.251 58.9921 2
      vertex 101.236 58.8042 2
      vertex 100.75 58.9291 2
    endloop
  endfacet
  facet normal 0 0 1
    outer loop
      vertex 102.143 -58.3773 2
      vertex 100.251 -58.9921 2
      vertex 101.703 -58.6193 2
    endloop
  endfacet
  facet normal 0 0 1
    outer loop
      vertex 101.703 -58.6193 2
      vertex 100.251 -58.9921 2
      vertex 101.236 -58.8042 2
    endloop
  endfacet
  facet normal 0 0 1
    outer loop
      vertex 101.236 -58.8042 2
      vertex 100.251 -58.9921 2
      vertex 100.75 -58.9291 2
    endloop
  endfacet
  facet normal -0 0 1
    outer loop
      vertex -100.251 58.9921 2
      vertex 100.251 -58.9921 2
      vertex 100.251 58.9921 2
    endloop
  endfacet
  facet normal 0 0 1
    outer loop
      vertex -100.251 58.9921 2
      vertex -100.251 -58.9921 2
      vertex 100.251 -58.9921 2
    endloop
  endfacet
  facet normal 0 0 1
    outer loop
      vertex -104 55 2
      vertex -100.251 58.9921 2
      vertex -100.75 58.9291 2
    endloop
  endfacet
  facet normal 0 0 1
    outer loop
      vertex -100.251 58.9921 2
      vertex -104 55 2
      vertex -100.251 -58.9921 2
    endloop
  endfacet
  facet normal 0 0 1
    outer loop
      vertex -104 55 2
      vertex -100.75 58.9291 2
      vertex -101.236 58.8042 2
    endloop
  endfacet
  facet normal -0 0 1
    outer loop
      vertex -104 -55 2
      vertex -100.251 -58.9921 2
      vertex -104 55 2
    endloop
  endfacet
  facet normal 0 0 1
    outer loop
      vertex -104 55 2
      vertex -101.236 58.8042 2
      vertex -101.703 58.6193 2
    endloop
  endfacet
  facet normal 0 0 1
    outer loop
      vertex -100.251 -58.9921 2
      vertex -104 -55 2
      vertex -100.75 -58.9291 2
    endloop
  endfacet
  facet normal 0 0 1
    outer loop
      vertex -104 55 2
      vertex -101.703 58.6193 2
      vertex -102.143 58.3773 2
    endloop
  endfacet
  facet normal 0 0 1
    outer loop
      vertex -100.75 -58.9291 2
      vertex -104 -55 2
      vertex -101.236 -58.8042 2
    endloop
  endfacet
  facet normal 0 0 1
    outer loop
      vertex -104 55 2
      vertex -102.143 58.3773 2
      vertex -102.55 58.0821 2
    endloop
  endfacet
  facet normal 0 0 1
    outer loop
      vertex -101.236 -58.8042 2
      vertex -104 -55 2
      vertex -101.703 -58.6193 2
    endloop
  endfacet
  facet normal 0 0 1
    outer loop
      vertex -104 55 2
      vertex -102.55 58.0821 2
      vertex -102.916 57.7382 2
    endloop
  endfacet
  facet normal 0 0 1
    outer loop
      vertex -101.703 -58.6193 2
      vertex -104 -55 2
      vertex -102.143 -58.3773 2
    endloop
  endfacet
  facet normal 0 0 1
    outer loop
      vertex -104 55 2
      vertex -102.916 57.7382 2
      vertex -103.236 57.3511 2
    endloop
  endfacet
  facet normal 0 0 1
    outer loop
      vertex -102.143 -58.3773 2
      vertex -104 -55 2
      vertex -102.55 -58.0821 2
    endloop
  endfacet
  facet normal 0 0 1
    outer loop
      vertex -104 55 2
      vertex -103.236 57.3511 2
      vertex -103.505 56.927 2
    endloop
  endfacet
  facet normal 0 0 1
    outer loop
      vertex -102.55 -58.0821 2
      vertex -104 -55 2
      vertex -102.916 -57.7382 2
    endloop
  endfacet
  facet normal 0 0 1
    outer loop
      vertex -104 55 2
      vertex -103.505 56.927 2
      vertex -103.719 56.4725 2
    endloop
  endfacet
  facet normal 0 0 1
    outer loop
      vertex -102.916 -57.7382 2
      vertex -104 -55 2
      vertex -103.236 -57.3511 2
    endloop
  endfacet
  facet normal 0 0 1
    outer loop
      vertex -104 55 2
      vertex -103.719 56.4725 2
      vertex -103.874 55.9948 2
    endloop
  endfacet
  facet normal 0 0 1
    outer loop
      vertex -103.236 -57.3511 2
      vertex -104 -55 2
      vertex -103.505 -56.927 2
    endloop
  endfacet
  facet normal 0 0 1
    outer loop
      vertex -104 55 2
      vertex -103.874 55.9948 2
      vertex -103.968 55.5013 2
    endloop
  endfacet
  facet normal 0 0 1
    outer loop
      vertex -103.505 -56.927 2
      vertex -104 -55 2
      vertex -103.719 -56.4725 2
    endloop
  endfacet
  facet normal 0 0 1
    outer loop
      vertex -103.719 -56.4725 2
      vertex -104 -55 2
      vertex -103.874 -55.9948 2
    endloop
  endfacet
  facet normal 0 0 1
    outer loop
      vertex -103.874 -55.9948 2
      vertex -104 -55 2
      vertex -103.968 -55.5013 2
    endloop
  endfacet
  facet normal 0.982339 0.187112 0
    outer loop
      vertex -103.874 -55.9948 21
      vertex -103.968 -55.5013 2
      vertex -103.968 -55.5013 21
    endloop
  endfacet
  facet normal 0.982339 0.187112 0
    outer loop
      vertex -103.968 -55.5013 2
      vertex -103.874 -55.9948 21
      vertex -103.874 -55.9948 2
    endloop
  endfacet
endsolid OpenSCAD_Model
