solid OpenSCAD_Model
  facet normal 0.125348 0.992113 -0
    outer loop
      vertex 18.4369 52.4114 0
      vertex 17.814 52.4901 21
      vertex 18.4369 52.4114 21
    endloop
  endfacet
  facet normal 0.125348 0.992113 0
    outer loop
      vertex 17.814 52.4901 21
      vertex 18.4369 52.4114 0
      vertex 17.814 52.4901 0
    endloop
  endfacet
  facet normal 0 1 -0
    outer loop
      vertex 17.814 52.4901 0
      vertex -17.814 52.4901 21
      vertex 17.814 52.4901 21
    endloop
  endfacet
  facet normal 0 1 0
    outer loop
      vertex -17.814 52.4901 21
      vertex 17.814 52.4901 0
      vertex -17.814 52.4901 0
    endloop
  endfacet
  facet normal -0.125348 0.992113 0
    outer loop
      vertex -17.814 52.4901 0
      vertex -18.4369 52.4114 21
      vertex -17.814 52.4901 21
    endloop
  endfacet
  facet normal -0.125348 0.992113 0
    outer loop
      vertex -18.4369 52.4114 21
      vertex -17.814 52.4901 0
      vertex -18.4369 52.4114 0
    endloop
  endfacet
  facet normal -0.982276 0.187441 0
    outer loop
      vertex -22.4606 48.1267 0
      vertex -22.3429 48.7435 21
      vertex -22.3429 48.7435 0
    endloop
  endfacet
  facet normal -0.982276 0.187441 0
    outer loop
      vertex -22.3429 48.7435 21
      vertex -22.4606 48.1267 0
      vertex -22.4606 48.1267 21
    endloop
  endfacet
  facet normal 0.951061 -0.309003 0
    outer loop
      vertex 22.1489 -49.3406 21
      vertex 22.3429 -48.7435 0
      vertex 22.3429 -48.7435 21
    endloop
  endfacet
  facet normal 0.951061 -0.309003 0
    outer loop
      vertex 22.3429 -48.7435 0
      vertex 22.1489 -49.3406 21
      vertex 22.1489 -49.3406 0
    endloop
  endfacet
  facet normal 0.125348 -0.992113 0
    outer loop
      vertex 17.814 -52.4901 0
      vertex 18.4369 -52.4114 21
      vertex 17.814 -52.4901 21
    endloop
  endfacet
  facet normal 0.125348 -0.992113 0
    outer loop
      vertex 18.4369 -52.4114 21
      vertex 17.814 -52.4901 0
      vertex 18.4369 -52.4114 0
    endloop
  endfacet
  facet normal -0.684624 0.728896 0
    outer loop
      vertex -20.6871 51.3526 0
      vertex -21.1448 50.9227 21
      vertex -20.6871 51.3526 21
    endloop
  endfacet
  facet normal -0.684624 0.728896 0
    outer loop
      vertex -21.1448 50.9227 21
      vertex -20.6871 51.3526 0
      vertex -21.1448 50.9227 0
    endloop
  endfacet
  facet normal 0.684624 0.728896 -0
    outer loop
      vertex 21.1448 50.9227 0
      vertex 20.6871 51.3526 21
      vertex 21.1448 50.9227 21
    endloop
  endfacet
  facet normal 0.684624 0.728896 0
    outer loop
      vertex 20.6871 51.3526 21
      vertex 21.1448 50.9227 0
      vertex 20.6871 51.3526 0
    endloop
  endfacet
  facet normal -0.368203 0.929745 0
    outer loop
      vertex -19.0451 52.2553 0
      vertex -19.6289 52.0241 21
      vertex -19.0451 52.2553 21
    endloop
  endfacet
  facet normal -0.368203 0.929745 0
    outer loop
      vertex -19.6289 52.0241 21
      vertex -19.0451 52.2553 0
      vertex -19.6289 52.0241 0
    endloop
  endfacet
  facet normal 1 -0 0
    outer loop
      vertex 22.5 -47.5 21
      vertex 22.5 47.5 0
      vertex 22.5 47.5 21
    endloop
  endfacet
  facet normal 1 0 0
    outer loop
      vertex 22.5 47.5 0
      vertex 22.5 -47.5 21
      vertex 22.5 -47.5 0
    endloop
  endfacet
  facet normal 0 -1 0
    outer loop
      vertex -17.814 -52.4901 0
      vertex 17.814 -52.4901 21
      vertex -17.814 -52.4901 21
    endloop
  endfacet
  facet normal 0 -1 -0
    outer loop
      vertex 17.814 -52.4901 21
      vertex -17.814 -52.4901 0
      vertex 17.814 -52.4901 0
    endloop
  endfacet
  facet normal -0.951061 -0.309003 0
    outer loop
      vertex -22.1489 -49.3406 0
      vertex -22.3429 -48.7435 21
      vertex -22.3429 -48.7435 0
    endloop
  endfacet
  facet normal -0.951061 -0.309003 0
    outer loop
      vertex -22.3429 -48.7435 21
      vertex -22.1489 -49.3406 0
      vertex -22.1489 -49.3406 21
    endloop
  endfacet
  facet normal -1 0 0
    outer loop
      vertex -22.5 -47.5 0
      vertex -22.5 47.5 21
      vertex -22.5 47.5 0
    endloop
  endfacet
  facet normal -1 -0 0
    outer loop
      vertex -22.5 47.5 21
      vertex -22.5 -47.5 0
      vertex -22.5 -47.5 21
    endloop
  endfacet
  facet normal -0.99803 0.0627451 0
    outer loop
      vertex -22.5 47.5 0
      vertex -22.4606 48.1267 21
      vertex -22.4606 48.1267 0
    endloop
  endfacet
  facet normal -0.99803 0.0627451 0
    outer loop
      vertex -22.4606 48.1267 21
      vertex -22.5 47.5 0
      vertex -22.5 47.5 21
    endloop
  endfacet
  facet normal -0.770462 0.637486 0
    outer loop
      vertex -21.5451 50.4389 0
      vertex -21.1448 50.9227 21
      vertex -21.1448 50.9227 0
    endloop
  endfacet
  facet normal -0.770462 0.637486 0
    outer loop
      vertex -21.1448 50.9227 21
      vertex -21.5451 50.4389 0
      vertex -21.5451 50.4389 21
    endloop
  endfacet
  facet normal 0.368203 0.929745 -0
    outer loop
      vertex 19.6289 52.0241 0
      vertex 19.0451 52.2553 21
      vertex 19.6289 52.0241 21
    endloop
  endfacet
  facet normal 0.368203 0.929745 0
    outer loop
      vertex 19.0451 52.2553 21
      vertex 19.6289 52.0241 0
      vertex 19.0451 52.2553 0
    endloop
  endfacet
  facet normal 0.587698 0.80908 -0
    outer loop
      vertex 20.6871 51.3526 0
      vertex 20.1791 51.7216 21
      vertex 20.6871 51.3526 21
    endloop
  endfacet
  facet normal 0.587698 0.80908 0
    outer loop
      vertex 20.1791 51.7216 21
      vertex 20.6871 51.3526 0
      vertex 20.1791 51.7216 0
    endloop
  endfacet
  facet normal -0.248601 0.968606 0
    outer loop
      vertex -18.4369 52.4114 0
      vertex -19.0451 52.2553 21
      vertex -18.4369 52.4114 21
    endloop
  endfacet
  facet normal -0.248601 0.968606 0
    outer loop
      vertex -19.0451 52.2553 21
      vertex -18.4369 52.4114 0
      vertex -19.0451 52.2553 0
    endloop
  endfacet
  facet normal 0.982276 -0.187441 0
    outer loop
      vertex 22.3429 -48.7435 21
      vertex 22.4606 -48.1267 0
      vertex 22.4606 -48.1267 21
    endloop
  endfacet
  facet normal 0.982276 -0.187441 0
    outer loop
      vertex 22.4606 -48.1267 0
      vertex 22.3429 -48.7435 21
      vertex 22.3429 -48.7435 0
    endloop
  endfacet
  facet normal -0.99803 -0.0627451 0
    outer loop
      vertex -22.4606 -48.1267 0
      vertex -22.5 -47.5 21
      vertex -22.5 -47.5 0
    endloop
  endfacet
  facet normal -0.99803 -0.0627451 0
    outer loop
      vertex -22.5 -47.5 21
      vertex -22.4606 -48.1267 0
      vertex -22.4606 -48.1267 21
    endloop
  endfacet
  facet normal 0 0 1
    outer loop
      vertex 21.5 47.5 21
      vertex 22.5 47.5 21
      vertex 22.4606 48.1267 21
    endloop
  endfacet
  facet normal 0 0 1
    outer loop
      vertex 22.5 47.5 21
      vertex 21.5 47.5 21
      vertex 22.5 -47.5 21
    endloop
  endfacet
  facet normal 0 0 1
    outer loop
      vertex 21.4685 48.0013 21
      vertex 22.4606 48.1267 21
      vertex 22.3429 48.7435 21
    endloop
  endfacet
  facet normal 0 0 1
    outer loop
      vertex 21.5 -47.5 21
      vertex 22.5 -47.5 21
      vertex 21.5 47.5 21
    endloop
  endfacet
  facet normal 0 0 1
    outer loop
      vertex 21.3743 48.4948 21
      vertex 22.3429 48.7435 21
      vertex 22.1489 49.3406 21
    endloop
  endfacet
  facet normal 0 0 1
    outer loop
      vertex 22.5 -47.5 21
      vertex 21.5 -47.5 21
      vertex 22.4606 -48.1267 21
    endloop
  endfacet
  facet normal 0 0 1
    outer loop
      vertex 21.2191 48.9725 21
      vertex 22.1489 49.3406 21
      vertex 21.8815 49.9088 21
    endloop
  endfacet
  facet normal -0 0 1
    outer loop
      vertex 21.4685 -48.0013 21
      vertex 22.4606 -48.1267 21
      vertex 21.5 -47.5 21
    endloop
  endfacet
  facet normal 0 0 1
    outer loop
      vertex 21.0052 49.427 21
      vertex 21.8815 49.9088 21
      vertex 21.5451 50.4389 21
    endloop
  endfacet
  facet normal 0 0 1
    outer loop
      vertex 22.4606 -48.1267 21
      vertex 21.4685 -48.0013 21
      vertex 22.3429 -48.7435 21
    endloop
  endfacet
  facet normal -0 0 1
    outer loop
      vertex 21.3743 -48.4948 21
      vertex 22.3429 -48.7435 21
      vertex 21.4685 -48.0013 21
    endloop
  endfacet
  facet normal 0 0 1
    outer loop
      vertex 22.4606 48.1267 21
      vertex 21.4685 48.0013 21
      vertex 21.5 47.5 21
    endloop
  endfacet
  facet normal 0 0 1
    outer loop
      vertex 22.3429 48.7435 21
      vertex 21.3743 48.4948 21
      vertex 21.4685 48.0013 21
    endloop
  endfacet
  facet normal 0 0 1
    outer loop
      vertex 22.1489 49.3406 21
      vertex 21.2191 48.9725 21
      vertex 21.3743 48.4948 21
    endloop
  endfacet
  facet normal 0 0 1
    outer loop
      vertex 20.7361 49.8511 21
      vertex 21.5451 50.4389 21
      vertex 21.1448 50.9227 21
    endloop
  endfacet
  facet normal 0 0 1
    outer loop
      vertex 21.8815 49.9088 21
      vertex 21.0052 49.427 21
      vertex 21.2191 48.9725 21
    endloop
  endfacet
  facet normal 0 0 1
    outer loop
      vertex 21.5451 50.4389 21
      vertex 20.7361 49.8511 21
      vertex 21.0052 49.427 21
    endloop
  endfacet
  facet normal 0 0 1
    outer loop
      vertex 20.4159 50.2382 21
      vertex 21.1448 50.9227 21
      vertex 20.6871 51.3526 21
    endloop
  endfacet
  facet normal 0 0 1
    outer loop
      vertex 21.1448 50.9227 21
      vertex 20.4159 50.2382 21
      vertex 20.7361 49.8511 21
    endloop
  endfacet
  facet normal 0 0 1
    outer loop
      vertex 20.0497 50.5821 21
      vertex 20.6871 51.3526 21
      vertex 20.1791 51.7216 21
    endloop
  endfacet
  facet normal 0 0 1
    outer loop
      vertex 20.6871 51.3526 21
      vertex 20.0497 50.5821 21
      vertex 20.4159 50.2382 21
    endloop
  endfacet
  facet normal 0 0 1
    outer loop
      vertex 20.1791 51.7216 21
      vertex 19.6433 50.8773 21
      vertex 20.0497 50.5821 21
    endloop
  endfacet
  facet normal 0 0 1
    outer loop
      vertex 19.6289 52.0241 21
      vertex 19.6433 50.8773 21
      vertex 20.1791 51.7216 21
    endloop
  endfacet
  facet normal 0 0 1
    outer loop
      vertex 19.6289 52.0241 21
      vertex 19.2031 51.1193 21
      vertex 19.6433 50.8773 21
    endloop
  endfacet
  facet normal 0 0 1
    outer loop
      vertex 19.0451 52.2553 21
      vertex 19.2031 51.1193 21
      vertex 19.6289 52.0241 21
    endloop
  endfacet
  facet normal 0 0 1
    outer loop
      vertex 19.0451 52.2553 21
      vertex 18.7361 51.3042 21
      vertex 19.2031 51.1193 21
    endloop
  endfacet
  facet normal 0 0 1
    outer loop
      vertex 18.4369 52.4114 21
      vertex 18.7361 51.3042 21
      vertex 19.0451 52.2553 21
    endloop
  endfacet
  facet normal 0 0 1
    outer loop
      vertex 18.4369 52.4114 21
      vertex 18.2495 51.4291 21
      vertex 18.7361 51.3042 21
    endloop
  endfacet
  facet normal 0 0 1
    outer loop
      vertex 17.814 52.4901 21
      vertex 18.2495 51.4291 21
      vertex 18.4369 52.4114 21
    endloop
  endfacet
  facet normal 0 0 1
    outer loop
      vertex 17.814 52.4901 21
      vertex 17.7512 51.4921 21
      vertex 18.2495 51.4291 21
    endloop
  endfacet
  facet normal 0 0 1
    outer loop
      vertex 17.814 52.4901 21
      vertex -17.7512 51.4921 21
      vertex 17.7512 51.4921 21
    endloop
  endfacet
  facet normal -0 0 1
    outer loop
      vertex -17.814 52.4901 21
      vertex -17.7512 51.4921 21
      vertex 17.814 52.4901 21
    endloop
  endfacet
  facet normal 0 0 1
    outer loop
      vertex -17.814 52.4901 21
      vertex -18.2495 51.4291 21
      vertex -17.7512 51.4921 21
    endloop
  endfacet
  facet normal -0 0 1
    outer loop
      vertex -18.4369 52.4114 21
      vertex -18.2495 51.4291 21
      vertex -17.814 52.4901 21
    endloop
  endfacet
  facet normal 0 0 1
    outer loop
      vertex -18.4369 52.4114 21
      vertex -18.7361 51.3042 21
      vertex -18.2495 51.4291 21
    endloop
  endfacet
  facet normal -0 0 1
    outer loop
      vertex -19.0451 52.2553 21
      vertex -18.7361 51.3042 21
      vertex -18.4369 52.4114 21
    endloop
  endfacet
  facet normal 0 0 1
    outer loop
      vertex -19.0451 52.2553 21
      vertex -19.2031 51.1193 21
      vertex -18.7361 51.3042 21
    endloop
  endfacet
  facet normal -0 0 1
    outer loop
      vertex -19.6289 52.0241 21
      vertex -19.2031 51.1193 21
      vertex -19.0451 52.2553 21
    endloop
  endfacet
  facet normal 0 0 1
    outer loop
      vertex -19.6289 52.0241 21
      vertex -19.6433 50.8773 21
      vertex -19.2031 51.1193 21
    endloop
  endfacet
  facet normal -0 0 1
    outer loop
      vertex -20.1791 51.7216 21
      vertex -19.6433 50.8773 21
      vertex -19.6289 52.0241 21
    endloop
  endfacet
  facet normal 0 0 1
    outer loop
      vertex -19.6433 50.8773 21
      vertex -20.1791 51.7216 21
      vertex -20.0497 50.5821 21
    endloop
  endfacet
  facet normal -0 0 1
    outer loop
      vertex -20.6871 51.3526 21
      vertex -20.0497 50.5821 21
      vertex -20.1791 51.7216 21
    endloop
  endfacet
  facet normal 0 0 1
    outer loop
      vertex -20.0497 50.5821 21
      vertex -20.6871 51.3526 21
      vertex -20.4159 50.2382 21
    endloop
  endfacet
  facet normal -0 0 1
    outer loop
      vertex -21.1448 50.9227 21
      vertex -20.4159 50.2382 21
      vertex -20.6871 51.3526 21
    endloop
  endfacet
  facet normal 0 0 1
    outer loop
      vertex -20.4159 50.2382 21
      vertex -21.1448 50.9227 21
      vertex -20.7361 49.8511 21
    endloop
  endfacet
  facet normal -0 0 1
    outer loop
      vertex -21.5451 50.4389 21
      vertex -20.7361 49.8511 21
      vertex -21.1448 50.9227 21
    endloop
  endfacet
  facet normal 0 0 1
    outer loop
      vertex -20.7361 49.8511 21
      vertex -21.5451 50.4389 21
      vertex -21.0052 49.427 21
    endloop
  endfacet
  facet normal -0 0 1
    outer loop
      vertex -21.8815 49.9088 21
      vertex -21.0052 49.427 21
      vertex -21.5451 50.4389 21
    endloop
  endfacet
  facet normal 0 0 1
    outer loop
      vertex -21.0052 49.427 21
      vertex -21.8815 49.9088 21
      vertex -21.2191 48.9725 21
    endloop
  endfacet
  facet normal -0 0 1
    outer loop
      vertex -22.3429 48.7435 21
      vertex -21.3743 48.4948 21
      vertex -22.1489 49.3406 21
    endloop
  endfacet
  facet normal 0 0 1
    outer loop
      vertex -21.2191 48.9725 21
      vertex -22.1489 49.3406 21
      vertex -21.3743 48.4948 21
    endloop
  endfacet
  facet normal -0 0 1
    outer loop
      vertex -22.1489 49.3406 21
      vertex -21.2191 48.9725 21
      vertex -21.8815 49.9088 21
    endloop
  endfacet
  facet normal 0 0 1
    outer loop
      vertex 22.3429 -48.7435 21
      vertex 21.3743 -48.4948 21
      vertex 22.1489 -49.3406 21
    endloop
  endfacet
  facet normal -0 0 1
    outer loop
      vertex 21.2191 -48.9725 21
      vertex 22.1489 -49.3406 21
      vertex 21.3743 -48.4948 21
    endloop
  endfacet
  facet normal 0 0 1
    outer loop
      vertex 22.1489 -49.3406 21
      vertex 21.2191 -48.9725 21
      vertex 21.8815 -49.9088 21
    endloop
  endfacet
  facet normal -0 0 1
    outer loop
      vertex 21.0052 -49.427 21
      vertex 21.8815 -49.9088 21
      vertex 21.2191 -48.9725 21
    endloop
  endfacet
  facet normal 0 0 1
    outer loop
      vertex 21.8815 -49.9088 21
      vertex 21.0052 -49.427 21
      vertex 21.5451 -50.4389 21
    endloop
  endfacet
  facet normal -0 0 1
    outer loop
      vertex 20.7361 -49.8511 21
      vertex 21.5451 -50.4389 21
      vertex 21.0052 -49.427 21
    endloop
  endfacet
  facet normal 0 0 1
    outer loop
      vertex 21.5451 -50.4389 21
      vertex 20.7361 -49.8511 21
      vertex 21.1448 -50.9227 21
    endloop
  endfacet
  facet normal -0 0 1
    outer loop
      vertex 20.4159 -50.2382 21
      vertex 21.1448 -50.9227 21
      vertex 20.7361 -49.8511 21
    endloop
  endfacet
  facet normal 0 0 1
    outer loop
      vertex 21.1448 -50.9227 21
      vertex 20.4159 -50.2382 21
      vertex 20.6871 -51.3526 21
    endloop
  endfacet
  facet normal -0 0 1
    outer loop
      vertex 20.0497 -50.5821 21
      vertex 20.6871 -51.3526 21
      vertex 20.4159 -50.2382 21
    endloop
  endfacet
  facet normal 0 0 1
    outer loop
      vertex 20.6871 -51.3526 21
      vertex 20.0497 -50.5821 21
      vertex 20.1791 -51.7216 21
    endloop
  endfacet
  facet normal -0 0 1
    outer loop
      vertex 19.6433 -50.8773 21
      vertex 20.1791 -51.7216 21
      vertex 20.0497 -50.5821 21
    endloop
  endfacet
  facet normal 0 0 1
    outer loop
      vertex 19.6433 -50.8773 21
      vertex 19.6289 -52.0241 21
      vertex 20.1791 -51.7216 21
    endloop
  endfacet
  facet normal -0 0 1
    outer loop
      vertex 19.2031 -51.1193 21
      vertex 19.6289 -52.0241 21
      vertex 19.6433 -50.8773 21
    endloop
  endfacet
  facet normal 0 0 1
    outer loop
      vertex 19.2031 -51.1193 21
      vertex 19.0451 -52.2553 21
      vertex 19.6289 -52.0241 21
    endloop
  endfacet
  facet normal -0 0 1
    outer loop
      vertex 18.7361 -51.3042 21
      vertex 19.0451 -52.2553 21
      vertex 19.2031 -51.1193 21
    endloop
  endfacet
  facet normal 0 0 1
    outer loop
      vertex 18.7361 -51.3042 21
      vertex 18.4369 -52.4114 21
      vertex 19.0451 -52.2553 21
    endloop
  endfacet
  facet normal -0 0 1
    outer loop
      vertex 18.2495 -51.4291 21
      vertex 18.4369 -52.4114 21
      vertex 18.7361 -51.3042 21
    endloop
  endfacet
  facet normal 0 0 1
    outer loop
      vertex 18.2495 -51.4291 21
      vertex 17.814 -52.4901 21
      vertex 18.4369 -52.4114 21
    endloop
  endfacet
  facet normal -0 0 1
    outer loop
      vertex 17.7512 -51.4921 21
      vertex 17.814 -52.4901 21
      vertex 18.2495 -51.4291 21
    endloop
  endfacet
  facet normal -0 0 1
    outer loop
      vertex -17.7512 -51.4921 21
      vertex 17.814 -52.4901 21
      vertex 17.7512 -51.4921 21
    endloop
  endfacet
  facet normal 0 0 1
    outer loop
      vertex -17.7512 -51.4921 21
      vertex -17.814 -52.4901 21
      vertex 17.814 -52.4901 21
    endloop
  endfacet
  facet normal 0 0 1
    outer loop
      vertex -18.2495 -51.4291 21
      vertex -17.814 -52.4901 21
      vertex -17.7512 -51.4921 21
    endloop
  endfacet
  facet normal 0 0 1
    outer loop
      vertex -18.2495 -51.4291 21
      vertex -18.4369 -52.4114 21
      vertex -17.814 -52.4901 21
    endloop
  endfacet
  facet normal 0 0 1
    outer loop
      vertex -18.7361 -51.3042 21
      vertex -18.4369 -52.4114 21
      vertex -18.2495 -51.4291 21
    endloop
  endfacet
  facet normal 0 0 1
    outer loop
      vertex -18.7361 -51.3042 21
      vertex -19.0451 -52.2553 21
      vertex -18.4369 -52.4114 21
    endloop
  endfacet
  facet normal 0 0 1
    outer loop
      vertex -19.2031 -51.1193 21
      vertex -19.0451 -52.2553 21
      vertex -18.7361 -51.3042 21
    endloop
  endfacet
  facet normal 0 0 1
    outer loop
      vertex -19.2031 -51.1193 21
      vertex -19.6289 -52.0241 21
      vertex -19.0451 -52.2553 21
    endloop
  endfacet
  facet normal 0 0 1
    outer loop
      vertex -19.6433 -50.8773 21
      vertex -19.6289 -52.0241 21
      vertex -19.2031 -51.1193 21
    endloop
  endfacet
  facet normal 0 0 1
    outer loop
      vertex -20.1791 -51.7216 21
      vertex -19.6433 -50.8773 21
      vertex -20.0497 -50.5821 21
    endloop
  endfacet
  facet normal 0 0 1
    outer loop
      vertex -19.6433 -50.8773 21
      vertex -20.1791 -51.7216 21
      vertex -19.6289 -52.0241 21
    endloop
  endfacet
  facet normal 0 0 1
    outer loop
      vertex -20.6871 -51.3526 21
      vertex -20.0497 -50.5821 21
      vertex -20.4159 -50.2382 21
    endloop
  endfacet
  facet normal 0 0 1
    outer loop
      vertex -20.0497 -50.5821 21
      vertex -20.6871 -51.3526 21
      vertex -20.1791 -51.7216 21
    endloop
  endfacet
  facet normal 0 0 1
    outer loop
      vertex -21.1448 -50.9227 21
      vertex -20.4159 -50.2382 21
      vertex -20.7361 -49.8511 21
    endloop
  endfacet
  facet normal 0 0 1
    outer loop
      vertex -21.5451 -50.4389 21
      vertex -20.7361 -49.8511 21
      vertex -21.0052 -49.427 21
    endloop
  endfacet
  facet normal 0 0 1
    outer loop
      vertex -20.4159 -50.2382 21
      vertex -21.1448 -50.9227 21
      vertex -20.6871 -51.3526 21
    endloop
  endfacet
  facet normal 0 0 1
    outer loop
      vertex -21.8815 -49.9088 21
      vertex -21.0052 -49.427 21
      vertex -21.2191 -48.9725 21
    endloop
  endfacet
  facet normal 0 0 1
    outer loop
      vertex -22.1489 -49.3406 21
      vertex -21.2191 -48.9725 21
      vertex -21.3743 -48.4948 21
    endloop
  endfacet
  facet normal 0 0 1
    outer loop
      vertex -22.3429 -48.7435 21
      vertex -21.3743 -48.4948 21
      vertex -21.4685 -48.0013 21
    endloop
  endfacet
  facet normal 0 0 1
    outer loop
      vertex -20.7361 -49.8511 21
      vertex -21.5451 -50.4389 21
      vertex -21.1448 -50.9227 21
    endloop
  endfacet
  facet normal 0 0 1
    outer loop
      vertex -22.4606 -48.1267 21
      vertex -21.4685 -48.0013 21
      vertex -21.5 -47.5 21
    endloop
  endfacet
  facet normal 0 0 1
    outer loop
      vertex -21.5 47.5 21
      vertex -22.5 47.5 21
      vertex -21.5 -47.5 21
    endloop
  endfacet
  facet normal 0 0 1
    outer loop
      vertex -21.3743 48.4948 21
      vertex -22.3429 48.7435 21
      vertex -21.4685 48.0013 21
    endloop
  endfacet
  facet normal 0 0 1
    outer loop
      vertex -22.5 -47.5 21
      vertex -21.5 -47.5 21
      vertex -22.5 47.5 21
    endloop
  endfacet
  facet normal -0 0 1
    outer loop
      vertex -22.4606 48.1267 21
      vertex -21.4685 48.0013 21
      vertex -22.3429 48.7435 21
    endloop
  endfacet
  facet normal 0 -0 1
    outer loop
      vertex -22.4606 -48.1267 21
      vertex -21.5 -47.5 21
      vertex -22.5 -47.5 21
    endloop
  endfacet
  facet normal 0 0 1
    outer loop
      vertex -21.4685 48.0013 21
      vertex -22.4606 48.1267 21
      vertex -21.5 47.5 21
    endloop
  endfacet
  facet normal 0 0 1
    outer loop
      vertex -21.0052 -49.427 21
      vertex -21.8815 -49.9088 21
      vertex -21.5451 -50.4389 21
    endloop
  endfacet
  facet normal 0 0 1
    outer loop
      vertex -21.5 47.5 21
      vertex -22.4606 48.1267 21
      vertex -22.5 47.5 21
    endloop
  endfacet
  facet normal 0 0 1
    outer loop
      vertex -21.2191 -48.9725 21
      vertex -22.1489 -49.3406 21
      vertex -21.8815 -49.9088 21
    endloop
  endfacet
  facet normal 0 0 1
    outer loop
      vertex -21.3743 -48.4948 21
      vertex -22.3429 -48.7435 21
      vertex -22.1489 -49.3406 21
    endloop
  endfacet
  facet normal 0 0 1
    outer loop
      vertex -21.4685 -48.0013 21
      vertex -22.4606 -48.1267 21
      vertex -22.3429 -48.7435 21
    endloop
  endfacet
  facet normal -0.982276 -0.187441 0
    outer loop
      vertex -22.3429 -48.7435 0
      vertex -22.4606 -48.1267 21
      vertex -22.4606 -48.1267 0
    endloop
  endfacet
  facet normal -0.982276 -0.187441 0
    outer loop
      vertex -22.4606 -48.1267 21
      vertex -22.3429 -48.7435 0
      vertex -22.3429 -48.7435 21
    endloop
  endfacet
  facet normal -0.951061 0.309003 0
    outer loop
      vertex -22.3429 48.7435 0
      vertex -22.1489 49.3406 21
      vertex -22.1489 49.3406 0
    endloop
  endfacet
  facet normal -0.951061 0.309003 0
    outer loop
      vertex -22.1489 49.3406 21
      vertex -22.3429 48.7435 0
      vertex -22.3429 48.7435 21
    endloop
  endfacet
  facet normal -0.481784 0.87629 0
    outer loop
      vertex -19.6289 52.0241 0
      vertex -20.1791 51.7216 21
      vertex -19.6289 52.0241 21
    endloop
  endfacet
  facet normal -0.481784 0.87629 0
    outer loop
      vertex -20.1791 51.7216 21
      vertex -19.6289 52.0241 0
      vertex -20.1791 51.7216 0
    endloop
  endfacet
  facet normal -0.587698 0.80908 0
    outer loop
      vertex -20.1791 51.7216 0
      vertex -20.6871 51.3526 21
      vertex -20.1791 51.7216 21
    endloop
  endfacet
  facet normal -0.587698 0.80908 0
    outer loop
      vertex -20.6871 51.3526 21
      vertex -20.1791 51.7216 0
      vertex -20.6871 51.3526 0
    endloop
  endfacet
  facet normal 0.248601 0.968606 -0
    outer loop
      vertex 19.0451 52.2553 0
      vertex 18.4369 52.4114 21
      vertex 19.0451 52.2553 21
    endloop
  endfacet
  facet normal 0.248601 0.968606 0
    outer loop
      vertex 18.4369 52.4114 21
      vertex 19.0451 52.2553 0
      vertex 18.4369 52.4114 0
    endloop
  endfacet
  facet normal 0.481784 0.87629 -0
    outer loop
      vertex 20.1791 51.7216 0
      vertex 19.6289 52.0241 21
      vertex 20.1791 51.7216 21
    endloop
  endfacet
  facet normal 0.481784 0.87629 0
    outer loop
      vertex 19.6289 52.0241 21
      vertex 20.1791 51.7216 0
      vertex 19.6289 52.0241 0
    endloop
  endfacet
  facet normal -0.684624 -0.728896 0
    outer loop
      vertex -21.1448 -50.9227 0
      vertex -20.6871 -51.3526 21
      vertex -21.1448 -50.9227 21
    endloop
  endfacet
  facet normal -0.684624 -0.728896 -0
    outer loop
      vertex -20.6871 -51.3526 21
      vertex -21.1448 -50.9227 0
      vertex -20.6871 -51.3526 0
    endloop
  endfacet
  facet normal 0.770462 -0.637486 0
    outer loop
      vertex 21.1448 -50.9227 21
      vertex 21.5451 -50.4389 0
      vertex 21.5451 -50.4389 21
    endloop
  endfacet
  facet normal 0.770462 -0.637486 0
    outer loop
      vertex 21.5451 -50.4389 0
      vertex 21.1448 -50.9227 21
      vertex 21.1448 -50.9227 0
    endloop
  endfacet
  facet normal 0.99803 0.0627451 0
    outer loop
      vertex 22.5 47.5 21
      vertex 22.4606 48.1267 0
      vertex 22.4606 48.1267 21
    endloop
  endfacet
  facet normal 0.99803 0.0627451 0
    outer loop
      vertex 22.4606 48.1267 0
      vertex 22.5 47.5 21
      vertex 22.5 47.5 0
    endloop
  endfacet
  facet normal 0.951061 0.309003 0
    outer loop
      vertex 22.3429 48.7435 21
      vertex 22.1489 49.3406 0
      vertex 22.1489 49.3406 21
    endloop
  endfacet
  facet normal 0.951061 0.309003 0
    outer loop
      vertex 22.1489 49.3406 0
      vertex 22.3429 48.7435 21
      vertex 22.3429 48.7435 0
    endloop
  endfacet
  facet normal 0.770462 0.637486 0
    outer loop
      vertex 21.5451 50.4389 21
      vertex 21.1448 50.9227 0
      vertex 21.1448 50.9227 21
    endloop
  endfacet
  facet normal 0.770462 0.637486 0
    outer loop
      vertex 21.1448 50.9227 0
      vertex 21.5451 50.4389 21
      vertex 21.5451 50.4389 0
    endloop
  endfacet
  facet normal -0.904811 0.425812 0
    outer loop
      vertex -22.1489 49.3406 0
      vertex -21.8815 49.9088 21
      vertex -21.8815 49.9088 0
    endloop
  endfacet
  facet normal -0.904811 0.425812 0
    outer loop
      vertex -21.8815 49.9088 21
      vertex -22.1489 49.3406 0
      vertex -22.1489 49.3406 21
    endloop
  endfacet
  facet normal -0.904811 -0.425812 0
    outer loop
      vertex -21.8815 -49.9088 0
      vertex -22.1489 -49.3406 21
      vertex -22.1489 -49.3406 0
    endloop
  endfacet
  facet normal -0.904811 -0.425812 0
    outer loop
      vertex -22.1489 -49.3406 21
      vertex -21.8815 -49.9088 0
      vertex -21.8815 -49.9088 21
    endloop
  endfacet
  facet normal -0.844336 -0.535814 0
    outer loop
      vertex -21.5451 -50.4389 0
      vertex -21.8815 -49.9088 21
      vertex -21.8815 -49.9088 0
    endloop
  endfacet
  facet normal -0.844336 -0.535814 0
    outer loop
      vertex -21.8815 -49.9088 21
      vertex -21.5451 -50.4389 0
      vertex -21.5451 -50.4389 21
    endloop
  endfacet
  facet normal -0.770462 -0.637486 0
    outer loop
      vertex -21.1448 -50.9227 0
      vertex -21.5451 -50.4389 21
      vertex -21.5451 -50.4389 0
    endloop
  endfacet
  facet normal -0.770462 -0.637486 0
    outer loop
      vertex -21.5451 -50.4389 21
      vertex -21.1448 -50.9227 0
      vertex -21.1448 -50.9227 21
    endloop
  endfacet
  facet normal 0.844336 -0.535814 0
    outer loop
      vertex 21.5451 -50.4389 21
      vertex 21.8815 -49.9088 0
      vertex 21.8815 -49.9088 21
    endloop
  endfacet
  facet normal 0.844336 -0.535814 0
    outer loop
      vertex 21.8815 -49.9088 0
      vertex 21.5451 -50.4389 21
      vertex 21.5451 -50.4389 0
    endloop
  endfacet
  facet normal 0.904811 -0.425812 0
    outer loop
      vertex 21.8815 -49.9088 21
      vertex 22.1489 -49.3406 0
      vertex 22.1489 -49.3406 21
    endloop
  endfacet
  facet normal 0.904811 -0.425812 0
    outer loop
      vertex 22.1489 -49.3406 0
      vertex 21.8815 -49.9088 21
      vertex 21.8815 -49.9088 0
    endloop
  endfacet
  facet normal 0.368203 -0.929745 0
    outer loop
      vertex 19.0451 -52.2553 0
      vertex 19.6289 -52.0241 21
      vertex 19.0451 -52.2553 21
    endloop
  endfacet
  facet normal 0.368203 -0.929745 0
    outer loop
      vertex 19.6289 -52.0241 21
      vertex 19.0451 -52.2553 0
      vertex 19.6289 -52.0241 0
    endloop
  endfacet
  facet normal 0.684624 -0.728896 0
    outer loop
      vertex 20.6871 -51.3526 0
      vertex 21.1448 -50.9227 21
      vertex 20.6871 -51.3526 21
    endloop
  endfacet
  facet normal 0.684624 -0.728896 0
    outer loop
      vertex 21.1448 -50.9227 21
      vertex 20.6871 -51.3526 0
      vertex 21.1448 -50.9227 0
    endloop
  endfacet
  facet normal 0.99803 -0.0627451 0
    outer loop
      vertex 22.4606 -48.1267 21
      vertex 22.5 -47.5 0
      vertex 22.5 -47.5 21
    endloop
  endfacet
  facet normal 0.99803 -0.0627451 0
    outer loop
      vertex 22.5 -47.5 0
      vertex 22.4606 -48.1267 21
      vertex 22.4606 -48.1267 0
    endloop
  endfacet
  facet normal 0.982276 0.187441 0
    outer loop
      vertex 22.4606 48.1267 21
      vertex 22.3429 48.7435 0
      vertex 22.3429 48.7435 21
    endloop
  endfacet
  facet normal 0.982276 0.187441 0
    outer loop
      vertex 22.3429 48.7435 0
      vertex 22.4606 48.1267 21
      vertex 22.4606 48.1267 0
    endloop
  endfacet
  facet normal 0.844336 0.535814 0
    outer loop
      vertex 21.8815 49.9088 21
      vertex 21.5451 50.4389 0
      vertex 21.5451 50.4389 21
    endloop
  endfacet
  facet normal 0.844336 0.535814 0
    outer loop
      vertex 21.5451 50.4389 0
      vertex 21.8815 49.9088 21
      vertex 21.8815 49.9088 0
    endloop
  endfacet
  facet normal 0.904811 0.425812 0
    outer loop
      vertex 22.1489 49.3406 21
      vertex 21.8815 49.9088 0
      vertex 21.8815 49.9088 21
    endloop
  endfacet
  facet normal 0.904811 0.425812 0
    outer loop
      vertex 21.8815 49.9088 0
      vertex 22.1489 49.3406 21
      vertex 22.1489 49.3406 0
    endloop
  endfacet
  facet normal -0.587698 -0.80908 0
    outer loop
      vertex -20.6871 -51.3526 0
      vertex -20.1791 -51.7216 21
      vertex -20.6871 -51.3526 21
    endloop
  endfacet
  facet normal -0.587698 -0.80908 -0
    outer loop
      vertex -20.1791 -51.7216 21
      vertex -20.6871 -51.3526 0
      vertex -20.1791 -51.7216 0
    endloop
  endfacet
  facet normal -0.368203 -0.929745 0
    outer loop
      vertex -19.6289 -52.0241 0
      vertex -19.0451 -52.2553 21
      vertex -19.6289 -52.0241 21
    endloop
  endfacet
  facet normal -0.368203 -0.929745 -0
    outer loop
      vertex -19.0451 -52.2553 21
      vertex -19.6289 -52.0241 0
      vertex -19.0451 -52.2553 0
    endloop
  endfacet
  facet normal -0.248601 -0.968606 0
    outer loop
      vertex -19.0451 -52.2553 0
      vertex -18.4369 -52.4114 21
      vertex -19.0451 -52.2553 21
    endloop
  endfacet
  facet normal -0.248601 -0.968606 -0
    outer loop
      vertex -18.4369 -52.4114 21
      vertex -19.0451 -52.2553 0
      vertex -18.4369 -52.4114 0
    endloop
  endfacet
  facet normal -0.125348 -0.992113 0
    outer loop
      vertex -18.4369 -52.4114 0
      vertex -17.814 -52.4901 21
      vertex -18.4369 -52.4114 21
    endloop
  endfacet
  facet normal -0.125348 -0.992113 -0
    outer loop
      vertex -17.814 -52.4901 21
      vertex -18.4369 -52.4114 0
      vertex -17.814 -52.4901 0
    endloop
  endfacet
  facet normal 0 0 -1
    outer loop
      vertex 17.814 -52.4901 0
      vertex 22.5 -47.5 0
      vertex 22.4606 -48.1267 0
    endloop
  endfacet
  facet normal 0 0 -1
    outer loop
      vertex 22.5 -47.5 0
      vertex -22.5 -47.5 0
      vertex 22.5 47.5 0
    endloop
  endfacet
  facet normal 0 0 -1
    outer loop
      vertex 17.814 -52.4901 0
      vertex 22.4606 -48.1267 0
      vertex 22.3429 -48.7435 0
    endloop
  endfacet
  facet normal 0 0 -1
    outer loop
      vertex -22.5 47.5 0
      vertex 22.5 47.5 0
      vertex -22.5 -47.5 0
    endloop
  endfacet
  facet normal 0 0 -1
    outer loop
      vertex 17.814 -52.4901 0
      vertex 22.3429 -48.7435 0
      vertex 22.1489 -49.3406 0
    endloop
  endfacet
  facet normal 0 -0 -1
    outer loop
      vertex 17.814 52.4901 0
      vertex 22.5 47.5 0
      vertex -22.5 47.5 0
    endloop
  endfacet
  facet normal 0 0 -1
    outer loop
      vertex 17.814 -52.4901 0
      vertex 22.1489 -49.3406 0
      vertex 21.8815 -49.9088 0
    endloop
  endfacet
  facet normal 0 0 -1
    outer loop
      vertex 22.5 47.5 0
      vertex 17.814 52.4901 0
      vertex 22.4606 48.1267 0
    endloop
  endfacet
  facet normal 0 0 -1
    outer loop
      vertex 17.814 -52.4901 0
      vertex 21.8815 -49.9088 0
      vertex 21.5451 -50.4389 0
    endloop
  endfacet
  facet normal 0 0 -1
    outer loop
      vertex 22.4606 48.1267 0
      vertex 17.814 52.4901 0
      vertex 22.3429 48.7435 0
    endloop
  endfacet
  facet normal 0 0 -1
    outer loop
      vertex 17.814 -52.4901 0
      vertex 21.5451 -50.4389 0
      vertex 21.1448 -50.9227 0
    endloop
  endfacet
  facet normal 0 0 -1
    outer loop
      vertex 22.3429 48.7435 0
      vertex 17.814 52.4901 0
      vertex 22.1489 49.3406 0
    endloop
  endfacet
  facet normal 0 0 -1
    outer loop
      vertex 17.814 -52.4901 0
      vertex 21.1448 -50.9227 0
      vertex 20.6871 -51.3526 0
    endloop
  endfacet
  facet normal 0 0 -1
    outer loop
      vertex 22.1489 49.3406 0
      vertex 17.814 52.4901 0
      vertex 21.8815 49.9088 0
    endloop
  endfacet
  facet normal 0 0 -1
    outer loop
      vertex 17.814 -52.4901 0
      vertex 20.6871 -51.3526 0
      vertex 20.1791 -51.7216 0
    endloop
  endfacet
  facet normal 0 0 -1
    outer loop
      vertex 21.8815 49.9088 0
      vertex 17.814 52.4901 0
      vertex 21.5451 50.4389 0
    endloop
  endfacet
  facet normal 0 0 -1
    outer loop
      vertex 17.814 -52.4901 0
      vertex 20.1791 -51.7216 0
      vertex 19.6289 -52.0241 0
    endloop
  endfacet
  facet normal -0 0 -1
    outer loop
      vertex 22.5 -47.5 0
      vertex 17.814 -52.4901 0
      vertex -22.5 -47.5 0
    endloop
  endfacet
  facet normal 0 0 -1
    outer loop
      vertex 17.814 -52.4901 0
      vertex 19.6289 -52.0241 0
      vertex 19.0451 -52.2553 0
    endloop
  endfacet
  facet normal 0 0 -1
    outer loop
      vertex 21.5451 50.4389 0
      vertex 17.814 52.4901 0
      vertex 21.1448 50.9227 0
    endloop
  endfacet
  facet normal 0 0 -1
    outer loop
      vertex 17.814 -52.4901 0
      vertex 19.0451 -52.2553 0
      vertex 18.4369 -52.4114 0
    endloop
  endfacet
  facet normal 0 0 -1
    outer loop
      vertex 20.1791 51.7216 0
      vertex 17.814 52.4901 0
      vertex 19.6289 52.0241 0
    endloop
  endfacet
  facet normal 0 0 -1
    outer loop
      vertex 19.6289 52.0241 0
      vertex 17.814 52.4901 0
      vertex 19.0451 52.2553 0
    endloop
  endfacet
  facet normal 0 0 -1
    outer loop
      vertex 19.0451 52.2553 0
      vertex 17.814 52.4901 0
      vertex 18.4369 52.4114 0
    endloop
  endfacet
  facet normal 0 0 -1
    outer loop
      vertex -22.5 -47.5 0
      vertex 17.814 -52.4901 0
      vertex -17.814 -52.4901 0
    endloop
  endfacet
  facet normal 0 0 -1
    outer loop
      vertex 21.1448 50.9227 0
      vertex 17.814 52.4901 0
      vertex 20.6871 51.3526 0
    endloop
  endfacet
  facet normal 0 0 -1
    outer loop
      vertex -22.5 -47.5 0
      vertex -17.814 -52.4901 0
      vertex -18.4369 -52.4114 0
    endloop
  endfacet
  facet normal 0 0 -1
    outer loop
      vertex 20.6871 51.3526 0
      vertex 17.814 52.4901 0
      vertex 20.1791 51.7216 0
    endloop
  endfacet
  facet normal 0 0 -1
    outer loop
      vertex -22.5 -47.5 0
      vertex -18.4369 -52.4114 0
      vertex -19.0451 -52.2553 0
    endloop
  endfacet
  facet normal -0 0 -1
    outer loop
      vertex 17.814 52.4901 0
      vertex -22.5 47.5 0
      vertex -17.814 52.4901 0
    endloop
  endfacet
  facet normal 0 0 -1
    outer loop
      vertex -22.5 -47.5 0
      vertex -19.0451 -52.2553 0
      vertex -19.6289 -52.0241 0
    endloop
  endfacet
  facet normal 0 0 -1
    outer loop
      vertex -17.814 52.4901 0
      vertex -22.5 47.5 0
      vertex -18.4369 52.4114 0
    endloop
  endfacet
  facet normal 0 0 -1
    outer loop
      vertex -22.5 -47.5 0
      vertex -19.6289 -52.0241 0
      vertex -20.1791 -51.7216 0
    endloop
  endfacet
  facet normal 0 0 -1
    outer loop
      vertex -18.4369 52.4114 0
      vertex -22.5 47.5 0
      vertex -19.0451 52.2553 0
    endloop
  endfacet
  facet normal 0 0 -1
    outer loop
      vertex -22.5 -47.5 0
      vertex -20.1791 -51.7216 0
      vertex -20.6871 -51.3526 0
    endloop
  endfacet
  facet normal 0 0 -1
    outer loop
      vertex -19.0451 52.2553 0
      vertex -22.5 47.5 0
      vertex -19.6289 52.0241 0
    endloop
  endfacet
  facet normal 0 0 -1
    outer loop
      vertex -22.5 -47.5 0
      vertex -20.6871 -51.3526 0
      vertex -21.1448 -50.9227 0
    endloop
  endfacet
  facet normal 0 0 -1
    outer loop
      vertex -19.6289 52.0241 0
      vertex -22.5 47.5 0
      vertex -20.1791 51.7216 0
    endloop
  endfacet
  facet normal 0 0 -1
    outer loop
      vertex -22.5 -47.5 0
      vertex -21.1448 -50.9227 0
      vertex -21.5451 -50.4389 0
    endloop
  endfacet
  facet normal 0 0 -1
    outer loop
      vertex -20.1791 51.7216 0
      vertex -22.5 47.5 0
      vertex -20.6871 51.3526 0
    endloop
  endfacet
  facet normal 0 0 -1
    outer loop
      vertex -22.5 -47.5 0
      vertex -21.5451 -50.4389 0
      vertex -21.8815 -49.9088 0
    endloop
  endfacet
  facet normal 0 0 -1
    outer loop
      vertex -20.6871 51.3526 0
      vertex -22.5 47.5 0
      vertex -21.1448 50.9227 0
    endloop
  endfacet
  facet normal 0 0 -1
    outer loop
      vertex -22.5 -47.5 0
      vertex -21.8815 -49.9088 0
      vertex -22.1489 -49.3406 0
    endloop
  endfacet
  facet normal 0 0 -1
    outer loop
      vertex -21.1448 50.9227 0
      vertex -22.5 47.5 0
      vertex -21.5451 50.4389 0
    endloop
  endfacet
  facet normal 0 0 -1
    outer loop
      vertex -22.5 -47.5 0
      vertex -22.1489 -49.3406 0
      vertex -22.3429 -48.7435 0
    endloop
  endfacet
  facet normal 0 0 -1
    outer loop
      vertex -21.5451 50.4389 0
      vertex -22.5 47.5 0
      vertex -21.8815 49.9088 0
    endloop
  endfacet
  facet normal 0 0 -1
    outer loop
      vertex -22.5 -47.5 0
      vertex -22.3429 -48.7435 0
      vertex -22.4606 -48.1267 0
    endloop
  endfacet
  facet normal 0 0 -1
    outer loop
      vertex -21.8815 49.9088 0
      vertex -22.5 47.5 0
      vertex -22.1489 49.3406 0
    endloop
  endfacet
  facet normal 0 0 -1
    outer loop
      vertex -22.1489 49.3406 0
      vertex -22.5 47.5 0
      vertex -22.3429 48.7435 0
    endloop
  endfacet
  facet normal 0 0 -1
    outer loop
      vertex -22.3429 48.7435 0
      vertex -22.5 47.5 0
      vertex -22.4606 48.1267 0
    endloop
  endfacet
  facet normal -0.844336 0.535814 0
    outer loop
      vertex -21.8815 49.9088 0
      vertex -21.5451 50.4389 21
      vertex -21.5451 50.4389 0
    endloop
  endfacet
  facet normal -0.844336 0.535814 0
    outer loop
      vertex -21.5451 50.4389 21
      vertex -21.8815 49.9088 0
      vertex -21.8815 49.9088 21
    endloop
  endfacet
  facet normal 0.248601 -0.968606 0
    outer loop
      vertex 18.4369 -52.4114 0
      vertex 19.0451 -52.2553 21
      vertex 18.4369 -52.4114 21
    endloop
  endfacet
  facet normal 0.248601 -0.968606 0
    outer loop
      vertex 19.0451 -52.2553 21
      vertex 18.4369 -52.4114 0
      vertex 19.0451 -52.2553 0
    endloop
  endfacet
  facet normal 0.481784 -0.87629 0
    outer loop
      vertex 19.6289 -52.0241 0
      vertex 20.1791 -51.7216 21
      vertex 19.6289 -52.0241 21
    endloop
  endfacet
  facet normal 0.481784 -0.87629 0
    outer loop
      vertex 20.1791 -51.7216 21
      vertex 19.6289 -52.0241 0
      vertex 20.1791 -51.7216 0
    endloop
  endfacet
  facet normal 0.587698 -0.80908 0
    outer loop
      vertex 20.1791 -51.7216 0
      vertex 20.6871 -51.3526 21
      vertex 20.1791 -51.7216 21
    endloop
  endfacet
  facet normal 0.587698 -0.80908 0
    outer loop
      vertex 20.6871 -51.3526 21
      vertex 20.1791 -51.7216 0
      vertex 20.6871 -51.3526 0
    endloop
  endfacet
  facet normal -0.481784 -0.87629 0
    outer loop
      vertex -20.1791 -51.7216 0
      vertex -19.6289 -52.0241 21
      vertex -20.1791 -51.7216 21
    endloop
  endfacet
  facet normal -0.481784 -0.87629 -0
    outer loop
      vertex -19.6289 -52.0241 21
      vertex -20.1791 -51.7216 0
      vertex -19.6289 -52.0241 0
    endloop
  endfacet
  facet normal -0.125431 -0.992102 0
    outer loop
      vertex 17.7512 51.4921 2
      vertex 18.2495 51.4291 21
      vertex 17.7512 51.4921 21
    endloop
  endfacet
  facet normal -0.125431 -0.992102 -0
    outer loop
      vertex 18.2495 51.4291 21
      vertex 17.7512 51.4921 2
      vertex 18.2495 51.4291 2
    endloop
  endfacet
  facet normal 0 -1 0
    outer loop
      vertex -17.7512 51.4921 2
      vertex 17.7512 51.4921 21
      vertex -17.7512 51.4921 21
    endloop
  endfacet
  facet normal 0 -1 -0
    outer loop
      vertex 17.7512 51.4921 21
      vertex -17.7512 51.4921 2
      vertex 17.7512 51.4921 2
    endloop
  endfacet
  facet normal 0.125431 -0.992102 0
    outer loop
      vertex -18.2495 51.4291 2
      vertex -17.7512 51.4921 21
      vertex -18.2495 51.4291 21
    endloop
  endfacet
  facet normal 0.125431 -0.992102 0
    outer loop
      vertex -17.7512 51.4921 21
      vertex -18.2495 51.4291 2
      vertex -17.7512 51.4921 2
    endloop
  endfacet
  facet normal 0.982265 -0.187496 0
    outer loop
      vertex -21.4685 48.0013 21
      vertex -21.3743 48.4948 2
      vertex -21.3743 48.4948 21
    endloop
  endfacet
  facet normal 0.982265 -0.187496 0
    outer loop
      vertex -21.3743 48.4948 2
      vertex -21.4685 48.0013 21
      vertex -21.4685 48.0013 2
    endloop
  endfacet
  facet normal -0.587698 -0.80908 0
    outer loop
      vertex 19.6433 50.8773 2
      vertex 20.0497 50.5821 21
      vertex 19.6433 50.8773 21
    endloop
  endfacet
  facet normal -0.587698 -0.80908 -0
    outer loop
      vertex 20.0497 50.5821 21
      vertex 19.6433 50.8773 2
      vertex 20.0497 50.5821 2
    endloop
  endfacet
  facet normal -0.951065 0.308992 0
    outer loop
      vertex 21.2191 -48.9725 2
      vertex 21.3743 -48.4948 21
      vertex 21.3743 -48.4948 2
    endloop
  endfacet
  facet normal -0.951065 0.308992 0
    outer loop
      vertex 21.3743 -48.4948 21
      vertex 21.2191 -48.9725 2
      vertex 21.2191 -48.9725 21
    endloop
  endfacet
  facet normal 0.684563 -0.728953 0
    outer loop
      vertex -20.4159 50.2382 2
      vertex -20.0497 50.5821 21
      vertex -20.4159 50.2382 21
    endloop
  endfacet
  facet normal 0.684563 -0.728953 0
    outer loop
      vertex -20.0497 50.5821 21
      vertex -20.4159 50.2382 2
      vertex -20.0497 50.5821 2
    endloop
  endfacet
  facet normal 0.368127 -0.929775 0
    outer loop
      vertex -19.2031 51.1193 2
      vertex -18.7361 51.3042 21
      vertex -19.2031 51.1193 21
    endloop
  endfacet
  facet normal 0.368127 -0.929775 0
    outer loop
      vertex -18.7361 51.3042 21
      vertex -19.2031 51.1193 2
      vertex -18.7361 51.3042 2
    endloop
  endfacet
  facet normal -1 0 0
    outer loop
      vertex 21.5 -47.5 2
      vertex 21.5 47.5 21
      vertex 21.5 47.5 2
    endloop
  endfacet
  facet normal -1 -0 0
    outer loop
      vertex 21.5 47.5 21
      vertex 21.5 -47.5 2
      vertex 21.5 -47.5 21
    endloop
  endfacet
  facet normal -0.982265 -0.187496 0
    outer loop
      vertex 21.4685 48.0013 2
      vertex 21.3743 48.4948 21
      vertex 21.3743 48.4948 2
    endloop
  endfacet
  facet normal -0.982265 -0.187496 0
    outer loop
      vertex 21.3743 48.4948 21
      vertex 21.4685 48.0013 2
      vertex 21.4685 48.0013 21
    endloop
  endfacet
  facet normal 0 1 -0
    outer loop
      vertex 17.7512 -51.4921 2
      vertex -17.7512 -51.4921 21
      vertex 17.7512 -51.4921 21
    endloop
  endfacet
  facet normal 0 1 0
    outer loop
      vertex -17.7512 -51.4921 21
      vertex 17.7512 -51.4921 2
      vertex -17.7512 -51.4921 2
    endloop
  endfacet
  facet normal 0.951065 0.308992 0
    outer loop
      vertex -21.2191 -48.9725 21
      vertex -21.3743 -48.4948 2
      vertex -21.3743 -48.4948 21
    endloop
  endfacet
  facet normal 0.951065 0.308992 0
    outer loop
      vertex -21.3743 -48.4948 2
      vertex -21.2191 -48.9725 21
      vertex -21.2191 -48.9725 2
    endloop
  endfacet
  facet normal 1 -0 0
    outer loop
      vertex -21.5 -47.5 21
      vertex -21.5 47.5 2
      vertex -21.5 47.5 21
    endloop
  endfacet
  facet normal 1 0 0
    outer loop
      vertex -21.5 47.5 2
      vertex -21.5 -47.5 21
      vertex -21.5 -47.5 2
    endloop
  endfacet
  facet normal 0.998032 -0.0627129 0
    outer loop
      vertex -21.5 47.5 21
      vertex -21.4685 48.0013 2
      vertex -21.4685 48.0013 21
    endloop
  endfacet
  facet normal 0.998032 -0.0627129 0
    outer loop
      vertex -21.4685 48.0013 2
      vertex -21.5 47.5 21
      vertex -21.5 47.5 2
    endloop
  endfacet
  facet normal 0.770549 -0.63738 0
    outer loop
      vertex -20.7361 49.8511 21
      vertex -20.4159 50.2382 2
      vertex -20.4159 50.2382 21
    endloop
  endfacet
  facet normal 0.770549 -0.63738 0
    outer loop
      vertex -20.4159 50.2382 2
      vertex -20.7361 49.8511 21
      vertex -20.7361 49.8511 2
    endloop
  endfacet
  facet normal 0.481751 -0.876308 0
    outer loop
      vertex -19.6433 50.8773 2
      vertex -19.2031 51.1193 21
      vertex -19.6433 50.8773 21
    endloop
  endfacet
  facet normal 0.481751 -0.876308 0
    outer loop
      vertex -19.2031 51.1193 21
      vertex -19.6433 50.8773 2
      vertex -19.2031 51.1193 2
    endloop
  endfacet
  facet normal -0.368127 -0.929775 0
    outer loop
      vertex 18.7361 51.3042 2
      vertex 19.2031 51.1193 21
      vertex 18.7361 51.3042 21
    endloop
  endfacet
  facet normal -0.368127 -0.929775 -0
    outer loop
      vertex 19.2031 51.1193 21
      vertex 18.7361 51.3042 2
      vertex 19.2031 51.1193 2
    endloop
  endfacet
  facet normal 0.24862 -0.968601 0
    outer loop
      vertex -18.7361 51.3042 2
      vertex -18.2495 51.4291 21
      vertex -18.7361 51.3042 21
    endloop
  endfacet
  facet normal 0.24862 -0.968601 0
    outer loop
      vertex -18.2495 51.4291 21
      vertex -18.7361 51.3042 2
      vertex -18.2495 51.4291 2
    endloop
  endfacet
  facet normal 0.998032 0.0627129 0
    outer loop
      vertex -21.4685 -48.0013 21
      vertex -21.5 -47.5 2
      vertex -21.5 -47.5 21
    endloop
  endfacet
  facet normal 0.998032 0.0627129 0
    outer loop
      vertex -21.5 -47.5 2
      vertex -21.4685 -48.0013 21
      vertex -21.4685 -48.0013 2
    endloop
  endfacet
  facet normal 0.982265 0.187496 0
    outer loop
      vertex -21.3743 -48.4948 21
      vertex -21.4685 -48.0013 2
      vertex -21.4685 -48.0013 21
    endloop
  endfacet
  facet normal 0.982265 0.187496 0
    outer loop
      vertex -21.4685 -48.0013 2
      vertex -21.3743 -48.4948 21
      vertex -21.3743 -48.4948 2
    endloop
  endfacet
  facet normal 0 0 1
    outer loop
      vertex 17.7512 51.4921 2
      vertex 21.5 47.5 2
      vertex 21.4685 48.0013 2
    endloop
  endfacet
  facet normal 0 0 1
    outer loop
      vertex 21.5 47.5 2
      vertex -21.5 47.5 2
      vertex 21.5 -47.5 2
    endloop
  endfacet
  facet normal 0 0 1
    outer loop
      vertex 17.7512 51.4921 2
      vertex 21.4685 48.0013 2
      vertex 21.3743 48.4948 2
    endloop
  endfacet
  facet normal 0 0 1
    outer loop
      vertex -21.5 -47.5 2
      vertex 21.5 -47.5 2
      vertex -21.5 47.5 2
    endloop
  endfacet
  facet normal 0 0 1
    outer loop
      vertex 17.7512 51.4921 2
      vertex 21.3743 48.4948 2
      vertex 21.2191 48.9725 2
    endloop
  endfacet
  facet normal 0 -0 1
    outer loop
      vertex 17.7512 -51.4921 2
      vertex 21.5 -47.5 2
      vertex -21.5 -47.5 2
    endloop
  endfacet
  facet normal 0 0 1
    outer loop
      vertex 17.7512 51.4921 2
      vertex 21.2191 48.9725 2
      vertex 21.0052 49.427 2
    endloop
  endfacet
  facet normal 0 0 1
    outer loop
      vertex 21.5 -47.5 2
      vertex 17.7512 -51.4921 2
      vertex 21.4685 -48.0013 2
    endloop
  endfacet
  facet normal 0 0 1
    outer loop
      vertex 17.7512 51.4921 2
      vertex 21.0052 49.427 2
      vertex 20.7361 49.8511 2
    endloop
  endfacet
  facet normal 0 0 1
    outer loop
      vertex 21.4685 -48.0013 2
      vertex 17.7512 -51.4921 2
      vertex 21.3743 -48.4948 2
    endloop
  endfacet
  facet normal 0 0 1
    outer loop
      vertex 17.7512 51.4921 2
      vertex 20.7361 49.8511 2
      vertex 20.4159 50.2382 2
    endloop
  endfacet
  facet normal 0 0 1
    outer loop
      vertex 21.3743 -48.4948 2
      vertex 17.7512 -51.4921 2
      vertex 21.2191 -48.9725 2
    endloop
  endfacet
  facet normal 0 0 1
    outer loop
      vertex 17.7512 51.4921 2
      vertex 20.4159 50.2382 2
      vertex 20.0497 50.5821 2
    endloop
  endfacet
  facet normal 0 0 1
    outer loop
      vertex 21.2191 -48.9725 2
      vertex 17.7512 -51.4921 2
      vertex 21.0052 -49.427 2
    endloop
  endfacet
  facet normal 0 0 1
    outer loop
      vertex 17.7512 51.4921 2
      vertex 20.0497 50.5821 2
      vertex 19.6433 50.8773 2
    endloop
  endfacet
  facet normal 0 0 1
    outer loop
      vertex 21.0052 -49.427 2
      vertex 17.7512 -51.4921 2
      vertex 20.7361 -49.8511 2
    endloop
  endfacet
  facet normal 0 0 1
    outer loop
      vertex 17.7512 51.4921 2
      vertex 19.6433 50.8773 2
      vertex 19.2031 51.1193 2
    endloop
  endfacet
  facet normal 0 0 1
    outer loop
      vertex 21.5 47.5 2
      vertex 17.7512 51.4921 2
      vertex -21.5 47.5 2
    endloop
  endfacet
  facet normal 0 0 1
    outer loop
      vertex 17.7512 51.4921 2
      vertex 19.2031 51.1193 2
      vertex 18.7361 51.3042 2
    endloop
  endfacet
  facet normal 0 0 1
    outer loop
      vertex 20.7361 -49.8511 2
      vertex 17.7512 -51.4921 2
      vertex 20.4159 -50.2382 2
    endloop
  endfacet
  facet normal 0 0 1
    outer loop
      vertex 17.7512 51.4921 2
      vertex 18.7361 51.3042 2
      vertex 18.2495 51.4291 2
    endloop
  endfacet
  facet normal 0 0 1
    outer loop
      vertex 19.6433 -50.8773 2
      vertex 17.7512 -51.4921 2
      vertex 19.2031 -51.1193 2
    endloop
  endfacet
  facet normal 0 0 1
    outer loop
      vertex 19.2031 -51.1193 2
      vertex 17.7512 -51.4921 2
      vertex 18.7361 -51.3042 2
    endloop
  endfacet
  facet normal 0 0 1
    outer loop
      vertex 18.7361 -51.3042 2
      vertex 17.7512 -51.4921 2
      vertex 18.2495 -51.4291 2
    endloop
  endfacet
  facet normal 0 0 1
    outer loop
      vertex -21.5 47.5 2
      vertex 17.7512 51.4921 2
      vertex -17.7512 51.4921 2
    endloop
  endfacet
  facet normal 0 0 1
    outer loop
      vertex 20.4159 -50.2382 2
      vertex 17.7512 -51.4921 2
      vertex 20.0497 -50.5821 2
    endloop
  endfacet
  facet normal 0 0 1
    outer loop
      vertex -21.5 47.5 2
      vertex -17.7512 51.4921 2
      vertex -18.2495 51.4291 2
    endloop
  endfacet
  facet normal 0 0 1
    outer loop
      vertex 20.0497 -50.5821 2
      vertex 17.7512 -51.4921 2
      vertex 19.6433 -50.8773 2
    endloop
  endfacet
  facet normal 0 0 1
    outer loop
      vertex -21.5 47.5 2
      vertex -18.2495 51.4291 2
      vertex -18.7361 51.3042 2
    endloop
  endfacet
  facet normal 0 0 1
    outer loop
      vertex 17.7512 -51.4921 2
      vertex -21.5 -47.5 2
      vertex -17.7512 -51.4921 2
    endloop
  endfacet
  facet normal 0 0 1
    outer loop
      vertex -21.5 47.5 2
      vertex -18.7361 51.3042 2
      vertex -19.2031 51.1193 2
    endloop
  endfacet
  facet normal 0 0 1
    outer loop
      vertex -17.7512 -51.4921 2
      vertex -21.5 -47.5 2
      vertex -18.2495 -51.4291 2
    endloop
  endfacet
  facet normal 0 0 1
    outer loop
      vertex -21.5 47.5 2
      vertex -19.2031 51.1193 2
      vertex -19.6433 50.8773 2
    endloop
  endfacet
  facet normal 0 0 1
    outer loop
      vertex -18.2495 -51.4291 2
      vertex -21.5 -47.5 2
      vertex -18.7361 -51.3042 2
    endloop
  endfacet
  facet normal 0 0 1
    outer loop
      vertex -21.5 47.5 2
      vertex -19.6433 50.8773 2
      vertex -20.0497 50.5821 2
    endloop
  endfacet
  facet normal 0 0 1
    outer loop
      vertex -18.7361 -51.3042 2
      vertex -21.5 -47.5 2
      vertex -19.2031 -51.1193 2
    endloop
  endfacet
  facet normal 0 0 1
    outer loop
      vertex -21.5 47.5 2
      vertex -20.0497 50.5821 2
      vertex -20.4159 50.2382 2
    endloop
  endfacet
  facet normal 0 0 1
    outer loop
      vertex -19.2031 -51.1193 2
      vertex -21.5 -47.5 2
      vertex -19.6433 -50.8773 2
    endloop
  endfacet
  facet normal 0 0 1
    outer loop
      vertex -21.5 47.5 2
      vertex -20.4159 50.2382 2
      vertex -20.7361 49.8511 2
    endloop
  endfacet
  facet normal 0 0 1
    outer loop
      vertex -19.6433 -50.8773 2
      vertex -21.5 -47.5 2
      vertex -20.0497 -50.5821 2
    endloop
  endfacet
  facet normal 0 0 1
    outer loop
      vertex -21.5 47.5 2
      vertex -20.7361 49.8511 2
      vertex -21.0052 49.427 2
    endloop
  endfacet
  facet normal 0 0 1
    outer loop
      vertex -20.0497 -50.5821 2
      vertex -21.5 -47.5 2
      vertex -20.4159 -50.2382 2
    endloop
  endfacet
  facet normal 0 0 1
    outer loop
      vertex -21.5 47.5 2
      vertex -21.0052 49.427 2
      vertex -21.2191 48.9725 2
    endloop
  endfacet
  facet normal 0 0 1
    outer loop
      vertex -20.4159 -50.2382 2
      vertex -21.5 -47.5 2
      vertex -20.7361 -49.8511 2
    endloop
  endfacet
  facet normal 0 0 1
    outer loop
      vertex -21.5 47.5 2
      vertex -21.2191 48.9725 2
      vertex -21.3743 48.4948 2
    endloop
  endfacet
  facet normal 0 0 1
    outer loop
      vertex -20.7361 -49.8511 2
      vertex -21.5 -47.5 2
      vertex -21.0052 -49.427 2
    endloop
  endfacet
  facet normal 0 0 1
    outer loop
      vertex -21.5 47.5 2
      vertex -21.3743 48.4948 2
      vertex -21.4685 48.0013 2
    endloop
  endfacet
  facet normal 0 0 1
    outer loop
      vertex -21.0052 -49.427 2
      vertex -21.5 -47.5 2
      vertex -21.2191 -48.9725 2
    endloop
  endfacet
  facet normal 0 0 1
    outer loop
      vertex -21.2191 -48.9725 2
      vertex -21.5 -47.5 2
      vertex -21.3743 -48.4948 2
    endloop
  endfacet
  facet normal 0 0 1
    outer loop
      vertex -21.3743 -48.4948 2
      vertex -21.5 -47.5 2
      vertex -21.4685 -48.0013 2
    endloop
  endfacet
  facet normal 0.951065 -0.308992 0
    outer loop
      vertex -21.3743 48.4948 21
      vertex -21.2191 48.9725 2
      vertex -21.2191 48.9725 21
    endloop
  endfacet
  facet normal 0.951065 -0.308992 0
    outer loop
      vertex -21.2191 48.9725 2
      vertex -21.3743 48.4948 21
      vertex -21.3743 48.4948 2
    endloop
  endfacet
  facet normal 0.587698 -0.80908 0
    outer loop
      vertex -20.0497 50.5821 2
      vertex -19.6433 50.8773 21
      vertex -20.0497 50.5821 21
    endloop
  endfacet
  facet normal 0.587698 -0.80908 0
    outer loop
      vertex -19.6433 50.8773 21
      vertex -20.0497 50.5821 2
      vertex -19.6433 50.8773 2
    endloop
  endfacet
  facet normal -0.24862 -0.968601 0
    outer loop
      vertex 18.2495 51.4291 2
      vertex 18.7361 51.3042 21
      vertex 18.2495 51.4291 21
    endloop
  endfacet
  facet normal -0.24862 -0.968601 -0
    outer loop
      vertex 18.7361 51.3042 21
      vertex 18.2495 51.4291 2
      vertex 18.7361 51.3042 2
    endloop
  endfacet
  facet normal -0.481751 -0.876308 0
    outer loop
      vertex 19.2031 51.1193 2
      vertex 19.6433 50.8773 21
      vertex 19.2031 51.1193 21
    endloop
  endfacet
  facet normal -0.481751 -0.876308 -0
    outer loop
      vertex 19.6433 50.8773 21
      vertex 19.2031 51.1193 2
      vertex 19.6433 50.8773 2
    endloop
  endfacet
  facet normal -0.481751 0.876308 0
    outer loop
      vertex 19.6433 -50.8773 2
      vertex 19.2031 -51.1193 21
      vertex 19.6433 -50.8773 21
    endloop
  endfacet
  facet normal -0.481751 0.876308 0
    outer loop
      vertex 19.2031 -51.1193 21
      vertex 19.6433 -50.8773 2
      vertex 19.2031 -51.1193 2
    endloop
  endfacet
  facet normal -0.998032 -0.0627129 0
    outer loop
      vertex 21.5 47.5 2
      vertex 21.4685 48.0013 21
      vertex 21.4685 48.0013 2
    endloop
  endfacet
  facet normal -0.998032 -0.0627129 0
    outer loop
      vertex 21.4685 48.0013 21
      vertex 21.5 47.5 2
      vertex 21.5 47.5 21
    endloop
  endfacet
  facet normal -0.951065 -0.308992 0
    outer loop
      vertex 21.3743 48.4948 2
      vertex 21.2191 48.9725 21
      vertex 21.2191 48.9725 2
    endloop
  endfacet
  facet normal -0.951065 -0.308992 0
    outer loop
      vertex 21.2191 48.9725 21
      vertex 21.3743 48.4948 2
      vertex 21.3743 48.4948 21
    endloop
  endfacet
  facet normal -0.770549 -0.63738 0
    outer loop
      vertex 20.7361 49.8511 2
      vertex 20.4159 50.2382 21
      vertex 20.4159 50.2382 2
    endloop
  endfacet
  facet normal -0.770549 -0.63738 0
    outer loop
      vertex 20.4159 50.2382 21
      vertex 20.7361 49.8511 2
      vertex 20.7361 49.8511 21
    endloop
  endfacet
  facet normal 0.481751 0.876308 -0
    outer loop
      vertex -19.2031 -51.1193 2
      vertex -19.6433 -50.8773 21
      vertex -19.2031 -51.1193 21
    endloop
  endfacet
  facet normal 0.481751 0.876308 0
    outer loop
      vertex -19.6433 -50.8773 21
      vertex -19.2031 -51.1193 2
      vertex -19.6433 -50.8773 2
    endloop
  endfacet
  facet normal 0.904805 0.425826 0
    outer loop
      vertex -21.0052 -49.427 21
      vertex -21.2191 -48.9725 2
      vertex -21.2191 -48.9725 21
    endloop
  endfacet
  facet normal 0.904805 0.425826 0
    outer loop
      vertex -21.2191 -48.9725 2
      vertex -21.0052 -49.427 21
      vertex -21.0052 -49.427 2
    endloop
  endfacet
  facet normal 0.844366 0.535767 0
    outer loop
      vertex -20.7361 -49.8511 21
      vertex -21.0052 -49.427 2
      vertex -21.0052 -49.427 21
    endloop
  endfacet
  facet normal 0.844366 0.535767 0
    outer loop
      vertex -21.0052 -49.427 2
      vertex -20.7361 -49.8511 21
      vertex -20.7361 -49.8511 2
    endloop
  endfacet
  facet normal 0.770549 0.63738 0
    outer loop
      vertex -20.4159 -50.2382 21
      vertex -20.7361 -49.8511 2
      vertex -20.7361 -49.8511 21
    endloop
  endfacet
  facet normal 0.770549 0.63738 0
    outer loop
      vertex -20.7361 -49.8511 2
      vertex -20.4159 -50.2382 21
      vertex -20.4159 -50.2382 2
    endloop
  endfacet
  facet normal 0.904805 -0.425826 0
    outer loop
      vertex -21.2191 48.9725 21
      vertex -21.0052 49.427 2
      vertex -21.0052 49.427 21
    endloop
  endfacet
  facet normal 0.904805 -0.425826 0
    outer loop
      vertex -21.0052 49.427 2
      vertex -21.2191 48.9725 21
      vertex -21.2191 48.9725 2
    endloop
  endfacet
  facet normal -0.684563 -0.728953 0
    outer loop
      vertex 20.0497 50.5821 2
      vertex 20.4159 50.2382 21
      vertex 20.0497 50.5821 21
    endloop
  endfacet
  facet normal -0.684563 -0.728953 -0
    outer loop
      vertex 20.4159 50.2382 21
      vertex 20.0497 50.5821 2
      vertex 20.4159 50.2382 2
    endloop
  endfacet
  facet normal 0.684563 0.728953 -0
    outer loop
      vertex -20.0497 -50.5821 2
      vertex -20.4159 -50.2382 21
      vertex -20.0497 -50.5821 21
    endloop
  endfacet
  facet normal 0.684563 0.728953 0
    outer loop
      vertex -20.4159 -50.2382 21
      vertex -20.0497 -50.5821 2
      vertex -20.4159 -50.2382 2
    endloop
  endfacet
  facet normal -0.844366 0.535767 0
    outer loop
      vertex 20.7361 -49.8511 2
      vertex 21.0052 -49.427 21
      vertex 21.0052 -49.427 2
    endloop
  endfacet
  facet normal -0.844366 0.535767 0
    outer loop
      vertex 21.0052 -49.427 21
      vertex 20.7361 -49.8511 2
      vertex 20.7361 -49.8511 21
    endloop
  endfacet
  facet normal -0.24862 0.968601 0
    outer loop
      vertex 18.7361 -51.3042 2
      vertex 18.2495 -51.4291 21
      vertex 18.7361 -51.3042 21
    endloop
  endfacet
  facet normal -0.24862 0.968601 0
    outer loop
      vertex 18.2495 -51.4291 21
      vertex 18.7361 -51.3042 2
      vertex 18.2495 -51.4291 2
    endloop
  endfacet
  facet normal -0.998032 0.0627129 0
    outer loop
      vertex 21.4685 -48.0013 2
      vertex 21.5 -47.5 21
      vertex 21.5 -47.5 2
    endloop
  endfacet
  facet normal -0.998032 0.0627129 0
    outer loop
      vertex 21.5 -47.5 21
      vertex 21.4685 -48.0013 2
      vertex 21.4685 -48.0013 21
    endloop
  endfacet
  facet normal -0.982265 0.187496 0
    outer loop
      vertex 21.3743 -48.4948 2
      vertex 21.4685 -48.0013 21
      vertex 21.4685 -48.0013 2
    endloop
  endfacet
  facet normal -0.982265 0.187496 0
    outer loop
      vertex 21.4685 -48.0013 21
      vertex 21.3743 -48.4948 2
      vertex 21.3743 -48.4948 21
    endloop
  endfacet
  facet normal -0.844366 -0.535767 0
    outer loop
      vertex 21.0052 49.427 2
      vertex 20.7361 49.8511 21
      vertex 20.7361 49.8511 2
    endloop
  endfacet
  facet normal -0.844366 -0.535767 0
    outer loop
      vertex 20.7361 49.8511 21
      vertex 21.0052 49.427 2
      vertex 21.0052 49.427 21
    endloop
  endfacet
  facet normal -0.904805 -0.425826 0
    outer loop
      vertex 21.2191 48.9725 2
      vertex 21.0052 49.427 21
      vertex 21.0052 49.427 2
    endloop
  endfacet
  facet normal -0.904805 -0.425826 0
    outer loop
      vertex 21.0052 49.427 21
      vertex 21.2191 48.9725 2
      vertex 21.2191 48.9725 21
    endloop
  endfacet
  facet normal 0.368127 0.929775 -0
    outer loop
      vertex -18.7361 -51.3042 2
      vertex -19.2031 -51.1193 21
      vertex -18.7361 -51.3042 21
    endloop
  endfacet
  facet normal 0.368127 0.929775 0
    outer loop
      vertex -19.2031 -51.1193 21
      vertex -18.7361 -51.3042 2
      vertex -19.2031 -51.1193 2
    endloop
  endfacet
  facet normal 0.844366 -0.535767 0
    outer loop
      vertex -21.0052 49.427 21
      vertex -20.7361 49.8511 2
      vertex -20.7361 49.8511 21
    endloop
  endfacet
  facet normal 0.844366 -0.535767 0
    outer loop
      vertex -20.7361 49.8511 2
      vertex -21.0052 49.427 21
      vertex -21.0052 49.427 2
    endloop
  endfacet
  facet normal 0.587698 0.80908 -0
    outer loop
      vertex -19.6433 -50.8773 2
      vertex -20.0497 -50.5821 21
      vertex -19.6433 -50.8773 21
    endloop
  endfacet
  facet normal 0.587698 0.80908 0
    outer loop
      vertex -20.0497 -50.5821 21
      vertex -19.6433 -50.8773 2
      vertex -20.0497 -50.5821 2
    endloop
  endfacet
  facet normal -0.587698 0.80908 0
    outer loop
      vertex 20.0497 -50.5821 2
      vertex 19.6433 -50.8773 21
      vertex 20.0497 -50.5821 21
    endloop
  endfacet
  facet normal -0.587698 0.80908 0
    outer loop
      vertex 19.6433 -50.8773 21
      vertex 20.0497 -50.5821 2
      vertex 19.6433 -50.8773 2
    endloop
  endfacet
  facet normal -0.770549 0.63738 0
    outer loop
      vertex 20.4159 -50.2382 2
      vertex 20.7361 -49.8511 21
      vertex 20.7361 -49.8511 2
    endloop
  endfacet
  facet normal -0.770549 0.63738 0
    outer loop
      vertex 20.7361 -49.8511 21
      vertex 20.4159 -50.2382 2
      vertex 20.4159 -50.2382 21
    endloop
  endfacet
  facet normal -0.904805 0.425826 0
    outer loop
      vertex 21.0052 -49.427 2
      vertex 21.2191 -48.9725 21
      vertex 21.2191 -48.9725 2
    endloop
  endfacet
  facet normal -0.904805 0.425826 0
    outer loop
      vertex 21.2191 -48.9725 21
      vertex 21.0052 -49.427 2
      vertex 21.0052 -49.427 21
    endloop
  endfacet
  facet normal -0.684563 0.728953 0
    outer loop
      vertex 20.4159 -50.2382 2
      vertex 20.0497 -50.5821 21
      vertex 20.4159 -50.2382 21
    endloop
  endfacet
  facet normal -0.684563 0.728953 0
    outer loop
      vertex 20.0497 -50.5821 21
      vertex 20.4159 -50.2382 2
      vertex 20.0497 -50.5821 2
    endloop
  endfacet
  facet normal -0.125431 0.992102 0
    outer loop
      vertex 18.2495 -51.4291 2
      vertex 17.7512 -51.4921 21
      vertex 18.2495 -51.4291 21
    endloop
  endfacet
  facet normal -0.125431 0.992102 0
    outer loop
      vertex 17.7512 -51.4921 21
      vertex 18.2495 -51.4291 2
      vertex 17.7512 -51.4921 2
    endloop
  endfacet
  facet normal 0.24862 0.968601 -0
    outer loop
      vertex -18.2495 -51.4291 2
      vertex -18.7361 -51.3042 21
      vertex -18.2495 -51.4291 21
    endloop
  endfacet
  facet normal 0.24862 0.968601 0
    outer loop
      vertex -18.7361 -51.3042 21
      vertex -18.2495 -51.4291 2
      vertex -18.7361 -51.3042 2
    endloop
  endfacet
  facet normal 0.125431 0.992102 -0
    outer loop
      vertex -17.7512 -51.4921 2
      vertex -18.2495 -51.4291 21
      vertex -17.7512 -51.4921 21
    endloop
  endfacet
  facet normal 0.125431 0.992102 0
    outer loop
      vertex -18.2495 -51.4291 21
      vertex -17.7512 -51.4921 2
      vertex -18.2495 -51.4291 2
    endloop
  endfacet
  facet normal -0.368127 0.929775 0
    outer loop
      vertex 19.2031 -51.1193 2
      vertex 18.7361 -51.3042 21
      vertex 19.2031 -51.1193 21
    endloop
  endfacet
  facet normal -0.368127 0.929775 0
    outer loop
      vertex 18.7361 -51.3042 21
      vertex 19.2031 -51.1193 2
      vertex 18.7361 -51.3042 2
    endloop
  endfacet
endsolid OpenSCAD_Model
