solid OpenSCAD_Model
  facet normal 0.998028 -0.0627628 0
    outer loop
      vertex 7.46057 -108.127 18
      vertex 7.5 -107.5 0
      vertex 7.5 -107.5 18
    endloop
  endfacet
  facet normal 0.998028 -0.0627628 0
    outer loop
      vertex 7.5 -107.5 0
      vertex 7.46057 -108.127 18
      vertex 7.46057 -108.127 0
    endloop
  endfacet
  facet normal 0 1 -0
    outer loop
      vertex 2.81395 112.49 0
      vertex -2.81395 112.49 18
      vertex 2.81395 112.49 18
    endloop
  endfacet
  facet normal 0 1 0
    outer loop
      vertex -2.81395 112.49 18
      vertex 2.81395 112.49 0
      vertex -2.81395 112.49 0
    endloop
  endfacet
  facet normal 0 0 1
    outer loop
      vertex 6.5 107.5 18
      vertex 7.5 107.5 18
      vertex 7.46057 108.127 18
    endloop
  endfacet
  facet normal 0 0 1
    outer loop
      vertex 7.5 107.5 18
      vertex 6.5 107.5 18
      vertex 7.5 -107.5 18
    endloop
  endfacet
  facet normal 0 0 1
    outer loop
      vertex 6.46846 108.001 18
      vertex 7.46057 108.127 18
      vertex 7.34292 108.743 18
    endloop
  endfacet
  facet normal 0 0 1
    outer loop
      vertex 6.5 -107.5 18
      vertex 7.5 -107.5 18
      vertex 6.5 107.5 18
    endloop
  endfacet
  facet normal 0 0 1
    outer loop
      vertex 6.37433 108.495 18
      vertex 7.34292 108.743 18
      vertex 7.14888 109.341 18
    endloop
  endfacet
  facet normal 0 0 1
    outer loop
      vertex 7.5 -107.5 18
      vertex 6.5 -107.5 18
      vertex 7.46057 -108.127 18
    endloop
  endfacet
  facet normal 0 0 1
    outer loop
      vertex 6.21911 108.972 18
      vertex 7.14888 109.341 18
      vertex 6.88153 109.909 18
    endloop
  endfacet
  facet normal -0 0 1
    outer loop
      vertex 6.46846 -108.001 18
      vertex 7.46057 -108.127 18
      vertex 6.5 -107.5 18
    endloop
  endfacet
  facet normal 0 0 1
    outer loop
      vertex 6.00523 109.427 18
      vertex 6.88153 109.909 18
      vertex 6.54508 110.439 18
    endloop
  endfacet
  facet normal 0 0 1
    outer loop
      vertex 7.46057 -108.127 18
      vertex 6.46846 -108.001 18
      vertex 7.34292 -108.743 18
    endloop
  endfacet
  facet normal -0 0 1
    outer loop
      vertex 6.37433 -108.495 18
      vertex 7.34292 -108.743 18
      vertex 6.46846 -108.001 18
    endloop
  endfacet
  facet normal 0 0 1
    outer loop
      vertex 7.46057 108.127 18
      vertex 6.46846 108.001 18
      vertex 6.5 107.5 18
    endloop
  endfacet
  facet normal 0 0 1
    outer loop
      vertex 7.34292 108.743 18
      vertex 6.37433 108.495 18
      vertex 6.46846 108.001 18
    endloop
  endfacet
  facet normal 0 0 1
    outer loop
      vertex 7.14888 109.341 18
      vertex 6.21911 108.972 18
      vertex 6.37433 108.495 18
    endloop
  endfacet
  facet normal 0 0 1
    outer loop
      vertex 5.73607 109.851 18
      vertex 6.54508 110.439 18
      vertex 6.14484 110.923 18
    endloop
  endfacet
  facet normal 0 0 1
    outer loop
      vertex 6.88153 109.909 18
      vertex 6.00523 109.427 18
      vertex 6.21911 108.972 18
    endloop
  endfacet
  facet normal 0 0 1
    outer loop
      vertex 6.54508 110.439 18
      vertex 5.73607 109.851 18
      vertex 6.00523 109.427 18
    endloop
  endfacet
  facet normal 0 0 1
    outer loop
      vertex 5.41587 110.238 18
      vertex 6.14484 110.923 18
      vertex 5.68712 111.353 18
    endloop
  endfacet
  facet normal 0 0 1
    outer loop
      vertex 6.14484 110.923 18
      vertex 5.41587 110.238 18
      vertex 5.73607 109.851 18
    endloop
  endfacet
  facet normal 0 0 1
    outer loop
      vertex 5.0497 110.582 18
      vertex 5.68712 111.353 18
      vertex 5.17913 111.722 18
    endloop
  endfacet
  facet normal 0 0 1
    outer loop
      vertex 5.68712 111.353 18
      vertex 5.0497 110.582 18
      vertex 5.41587 110.238 18
    endloop
  endfacet
  facet normal 0 0 1
    outer loop
      vertex 5.17913 111.722 18
      vertex 4.64331 110.877 18
      vertex 5.0497 110.582 18
    endloop
  endfacet
  facet normal 0 0 1
    outer loop
      vertex 4.6289 112.024 18
      vertex 4.64331 110.877 18
      vertex 5.17913 111.722 18
    endloop
  endfacet
  facet normal 0 0 1
    outer loop
      vertex 4.6289 112.024 18
      vertex 4.20312 111.119 18
      vertex 4.64331 110.877 18
    endloop
  endfacet
  facet normal 0 0 1
    outer loop
      vertex 4.04508 112.255 18
      vertex 4.20312 111.119 18
      vertex 4.6289 112.024 18
    endloop
  endfacet
  facet normal 0 0 1
    outer loop
      vertex 4.04508 112.255 18
      vertex 3.73607 111.304 18
      vertex 4.20312 111.119 18
    endloop
  endfacet
  facet normal 0 0 1
    outer loop
      vertex 3.43691 112.411 18
      vertex 3.73607 111.304 18
      vertex 4.04508 112.255 18
    endloop
  endfacet
  facet normal 0 0 1
    outer loop
      vertex 3.43691 112.411 18
      vertex 3.24953 111.429 18
      vertex 3.73607 111.304 18
    endloop
  endfacet
  facet normal 0 0 1
    outer loop
      vertex 2.81395 112.49 18
      vertex 3.24953 111.429 18
      vertex 3.43691 112.411 18
    endloop
  endfacet
  facet normal 0 0 1
    outer loop
      vertex 2.81395 112.49 18
      vertex 2.75116 111.492 18
      vertex 3.24953 111.429 18
    endloop
  endfacet
  facet normal 0 0 1
    outer loop
      vertex 2.81395 112.49 18
      vertex -2.75116 111.492 18
      vertex 2.75116 111.492 18
    endloop
  endfacet
  facet normal -0 0 1
    outer loop
      vertex -2.81395 112.49 18
      vertex -2.75116 111.492 18
      vertex 2.81395 112.49 18
    endloop
  endfacet
  facet normal 0 0 1
    outer loop
      vertex -2.81395 112.49 18
      vertex -3.24953 111.429 18
      vertex -2.75116 111.492 18
    endloop
  endfacet
  facet normal -0 0 1
    outer loop
      vertex -3.43691 112.411 18
      vertex -3.24953 111.429 18
      vertex -2.81395 112.49 18
    endloop
  endfacet
  facet normal 0 0 1
    outer loop
      vertex -3.43691 112.411 18
      vertex -3.73607 111.304 18
      vertex -3.24953 111.429 18
    endloop
  endfacet
  facet normal -0 0 1
    outer loop
      vertex -4.04508 112.255 18
      vertex -3.73607 111.304 18
      vertex -3.43691 112.411 18
    endloop
  endfacet
  facet normal 0 0 1
    outer loop
      vertex -4.04508 112.255 18
      vertex -4.20312 111.119 18
      vertex -3.73607 111.304 18
    endloop
  endfacet
  facet normal -0 0 1
    outer loop
      vertex -4.6289 112.024 18
      vertex -4.20312 111.119 18
      vertex -4.04508 112.255 18
    endloop
  endfacet
  facet normal 0 0 1
    outer loop
      vertex -4.6289 112.024 18
      vertex -4.64331 110.877 18
      vertex -4.20312 111.119 18
    endloop
  endfacet
  facet normal -0 0 1
    outer loop
      vertex -5.17913 111.722 18
      vertex -4.64331 110.877 18
      vertex -4.6289 112.024 18
    endloop
  endfacet
  facet normal 0 0 1
    outer loop
      vertex -4.64331 110.877 18
      vertex -5.17913 111.722 18
      vertex -5.0497 110.582 18
    endloop
  endfacet
  facet normal -0 0 1
    outer loop
      vertex -5.68712 111.353 18
      vertex -5.0497 110.582 18
      vertex -5.17913 111.722 18
    endloop
  endfacet
  facet normal 0 0 1
    outer loop
      vertex -5.0497 110.582 18
      vertex -5.68712 111.353 18
      vertex -5.41587 110.238 18
    endloop
  endfacet
  facet normal -0 0 1
    outer loop
      vertex -6.14484 110.923 18
      vertex -5.41587 110.238 18
      vertex -5.68712 111.353 18
    endloop
  endfacet
  facet normal 0 0 1
    outer loop
      vertex -5.41587 110.238 18
      vertex -6.14484 110.923 18
      vertex -5.73607 109.851 18
    endloop
  endfacet
  facet normal -0 0 1
    outer loop
      vertex -6.54508 110.439 18
      vertex -5.73607 109.851 18
      vertex -6.14484 110.923 18
    endloop
  endfacet
  facet normal 0 0 1
    outer loop
      vertex -5.73607 109.851 18
      vertex -6.54508 110.439 18
      vertex -6.00523 109.427 18
    endloop
  endfacet
  facet normal -0 0 1
    outer loop
      vertex -6.88153 109.909 18
      vertex -6.00523 109.427 18
      vertex -6.54508 110.439 18
    endloop
  endfacet
  facet normal 0 0 1
    outer loop
      vertex -6.00523 109.427 18
      vertex -6.88153 109.909 18
      vertex -6.21911 108.972 18
    endloop
  endfacet
  facet normal -0 0 1
    outer loop
      vertex -7.34292 108.743 18
      vertex -6.37433 108.495 18
      vertex -7.14888 109.341 18
    endloop
  endfacet
  facet normal 0 0 1
    outer loop
      vertex -6.21911 108.972 18
      vertex -7.14888 109.341 18
      vertex -6.37433 108.495 18
    endloop
  endfacet
  facet normal -0 0 1
    outer loop
      vertex -7.14888 109.341 18
      vertex -6.21911 108.972 18
      vertex -6.88153 109.909 18
    endloop
  endfacet
  facet normal 0 0 1
    outer loop
      vertex 7.34292 -108.743 18
      vertex 6.37433 -108.495 18
      vertex 7.14888 -109.341 18
    endloop
  endfacet
  facet normal -0 0 1
    outer loop
      vertex 6.21911 -108.972 18
      vertex 7.14888 -109.341 18
      vertex 6.37433 -108.495 18
    endloop
  endfacet
  facet normal 0 0 1
    outer loop
      vertex 7.14888 -109.341 18
      vertex 6.21911 -108.972 18
      vertex 6.88153 -109.909 18
    endloop
  endfacet
  facet normal -0 0 1
    outer loop
      vertex 6.00523 -109.427 18
      vertex 6.88153 -109.909 18
      vertex 6.21911 -108.972 18
    endloop
  endfacet
  facet normal 0 0 1
    outer loop
      vertex 6.88153 -109.909 18
      vertex 6.00523 -109.427 18
      vertex 6.54508 -110.439 18
    endloop
  endfacet
  facet normal -0 0 1
    outer loop
      vertex 5.73607 -109.851 18
      vertex 6.54508 -110.439 18
      vertex 6.00523 -109.427 18
    endloop
  endfacet
  facet normal 0 0 1
    outer loop
      vertex 6.54508 -110.439 18
      vertex 5.73607 -109.851 18
      vertex 6.14484 -110.923 18
    endloop
  endfacet
  facet normal -0 0 1
    outer loop
      vertex 5.41587 -110.238 18
      vertex 6.14484 -110.923 18
      vertex 5.73607 -109.851 18
    endloop
  endfacet
  facet normal 0 0 1
    outer loop
      vertex 6.14484 -110.923 18
      vertex 5.41587 -110.238 18
      vertex 5.68712 -111.353 18
    endloop
  endfacet
  facet normal -0 0 1
    outer loop
      vertex 5.0497 -110.582 18
      vertex 5.68712 -111.353 18
      vertex 5.41587 -110.238 18
    endloop
  endfacet
  facet normal 0 0 1
    outer loop
      vertex 5.68712 -111.353 18
      vertex 5.0497 -110.582 18
      vertex 5.17913 -111.722 18
    endloop
  endfacet
  facet normal -0 0 1
    outer loop
      vertex 4.64331 -110.877 18
      vertex 5.17913 -111.722 18
      vertex 5.0497 -110.582 18
    endloop
  endfacet
  facet normal 0 0 1
    outer loop
      vertex 4.64331 -110.877 18
      vertex 4.6289 -112.024 18
      vertex 5.17913 -111.722 18
    endloop
  endfacet
  facet normal -0 0 1
    outer loop
      vertex 4.20312 -111.119 18
      vertex 4.6289 -112.024 18
      vertex 4.64331 -110.877 18
    endloop
  endfacet
  facet normal 0 0 1
    outer loop
      vertex 4.20312 -111.119 18
      vertex 4.04508 -112.255 18
      vertex 4.6289 -112.024 18
    endloop
  endfacet
  facet normal -0 0 1
    outer loop
      vertex 3.73607 -111.304 18
      vertex 4.04508 -112.255 18
      vertex 4.20312 -111.119 18
    endloop
  endfacet
  facet normal 0 0 1
    outer loop
      vertex 3.73607 -111.304 18
      vertex 3.43691 -112.411 18
      vertex 4.04508 -112.255 18
    endloop
  endfacet
  facet normal -0 0 1
    outer loop
      vertex 3.24953 -111.429 18
      vertex 3.43691 -112.411 18
      vertex 3.73607 -111.304 18
    endloop
  endfacet
  facet normal 0 0 1
    outer loop
      vertex 3.24953 -111.429 18
      vertex 2.81395 -112.49 18
      vertex 3.43691 -112.411 18
    endloop
  endfacet
  facet normal -0 0 1
    outer loop
      vertex 2.75116 -111.492 18
      vertex 2.81395 -112.49 18
      vertex 3.24953 -111.429 18
    endloop
  endfacet
  facet normal -0 0 1
    outer loop
      vertex -2.75116 -111.492 18
      vertex 2.81395 -112.49 18
      vertex 2.75116 -111.492 18
    endloop
  endfacet
  facet normal 0 0 1
    outer loop
      vertex -2.75116 -111.492 18
      vertex -2.81395 -112.49 18
      vertex 2.81395 -112.49 18
    endloop
  endfacet
  facet normal 0 0 1
    outer loop
      vertex -3.24953 -111.429 18
      vertex -2.81395 -112.49 18
      vertex -2.75116 -111.492 18
    endloop
  endfacet
  facet normal 0 0 1
    outer loop
      vertex -3.24953 -111.429 18
      vertex -3.43691 -112.411 18
      vertex -2.81395 -112.49 18
    endloop
  endfacet
  facet normal 0 0 1
    outer loop
      vertex -3.73607 -111.304 18
      vertex -3.43691 -112.411 18
      vertex -3.24953 -111.429 18
    endloop
  endfacet
  facet normal 0 0 1
    outer loop
      vertex -3.73607 -111.304 18
      vertex -4.04508 -112.255 18
      vertex -3.43691 -112.411 18
    endloop
  endfacet
  facet normal 0 0 1
    outer loop
      vertex -4.20312 -111.119 18
      vertex -4.04508 -112.255 18
      vertex -3.73607 -111.304 18
    endloop
  endfacet
  facet normal 0 0 1
    outer loop
      vertex -4.20312 -111.119 18
      vertex -4.6289 -112.024 18
      vertex -4.04508 -112.255 18
    endloop
  endfacet
  facet normal 0 0 1
    outer loop
      vertex -4.64331 -110.877 18
      vertex -4.6289 -112.024 18
      vertex -4.20312 -111.119 18
    endloop
  endfacet
  facet normal 0 0 1
    outer loop
      vertex -5.17913 -111.722 18
      vertex -4.64331 -110.877 18
      vertex -5.0497 -110.582 18
    endloop
  endfacet
  facet normal 0 0 1
    outer loop
      vertex -4.64331 -110.877 18
      vertex -5.17913 -111.722 18
      vertex -4.6289 -112.024 18
    endloop
  endfacet
  facet normal 0 0 1
    outer loop
      vertex -5.68712 -111.353 18
      vertex -5.0497 -110.582 18
      vertex -5.41587 -110.238 18
    endloop
  endfacet
  facet normal 0 0 1
    outer loop
      vertex -5.0497 -110.582 18
      vertex -5.68712 -111.353 18
      vertex -5.17913 -111.722 18
    endloop
  endfacet
  facet normal 0 0 1
    outer loop
      vertex -6.14484 -110.923 18
      vertex -5.41587 -110.238 18
      vertex -5.73607 -109.851 18
    endloop
  endfacet
  facet normal 0 0 1
    outer loop
      vertex -6.54508 -110.439 18
      vertex -5.73607 -109.851 18
      vertex -6.00523 -109.427 18
    endloop
  endfacet
  facet normal 0 0 1
    outer loop
      vertex -5.41587 -110.238 18
      vertex -6.14484 -110.923 18
      vertex -5.68712 -111.353 18
    endloop
  endfacet
  facet normal 0 0 1
    outer loop
      vertex -6.88153 -109.909 18
      vertex -6.00523 -109.427 18
      vertex -6.21911 -108.972 18
    endloop
  endfacet
  facet normal 0 0 1
    outer loop
      vertex -7.14888 -109.341 18
      vertex -6.21911 -108.972 18
      vertex -6.37433 -108.495 18
    endloop
  endfacet
  facet normal 0 0 1
    outer loop
      vertex -7.34292 -108.743 18
      vertex -6.37433 -108.495 18
      vertex -6.46846 -108.001 18
    endloop
  endfacet
  facet normal 0 0 1
    outer loop
      vertex -5.73607 -109.851 18
      vertex -6.54508 -110.439 18
      vertex -6.14484 -110.923 18
    endloop
  endfacet
  facet normal 0 0 1
    outer loop
      vertex -7.46057 -108.127 18
      vertex -6.46846 -108.001 18
      vertex -6.5 -107.5 18
    endloop
  endfacet
  facet normal 0 0 1
    outer loop
      vertex -6.5 107.5 18
      vertex -7.5 107.5 18
      vertex -6.5 -107.5 18
    endloop
  endfacet
  facet normal 0 0 1
    outer loop
      vertex -6.37433 108.495 18
      vertex -7.34292 108.743 18
      vertex -6.46846 108.001 18
    endloop
  endfacet
  facet normal 0 0 1
    outer loop
      vertex -7.5 -107.5 18
      vertex -6.5 -107.5 18
      vertex -7.5 107.5 18
    endloop
  endfacet
  facet normal -0 0 1
    outer loop
      vertex -7.46057 108.127 18
      vertex -6.46846 108.001 18
      vertex -7.34292 108.743 18
    endloop
  endfacet
  facet normal 0 -0 1
    outer loop
      vertex -7.46057 -108.127 18
      vertex -6.5 -107.5 18
      vertex -7.5 -107.5 18
    endloop
  endfacet
  facet normal 0 0 1
    outer loop
      vertex -6.46846 108.001 18
      vertex -7.46057 108.127 18
      vertex -6.5 107.5 18
    endloop
  endfacet
  facet normal 0 0 1
    outer loop
      vertex -6.00523 -109.427 18
      vertex -6.88153 -109.909 18
      vertex -6.54508 -110.439 18
    endloop
  endfacet
  facet normal 0 0 1
    outer loop
      vertex -6.5 107.5 18
      vertex -7.46057 108.127 18
      vertex -7.5 107.5 18
    endloop
  endfacet
  facet normal 0 0 1
    outer loop
      vertex -6.21911 -108.972 18
      vertex -7.14888 -109.341 18
      vertex -6.88153 -109.909 18
    endloop
  endfacet
  facet normal 0 0 1
    outer loop
      vertex -6.37433 -108.495 18
      vertex -7.34292 -108.743 18
      vertex -7.14888 -109.341 18
    endloop
  endfacet
  facet normal 0 0 1
    outer loop
      vertex -6.46846 -108.001 18
      vertex -7.46057 -108.127 18
      vertex -7.34292 -108.743 18
    endloop
  endfacet
  facet normal 0.951179 0.30864 0
    outer loop
      vertex 7.34292 108.743 18
      vertex 7.14888 109.341 0
      vertex 7.14888 109.341 18
    endloop
  endfacet
  facet normal 0.951179 0.30864 0
    outer loop
      vertex 7.14888 109.341 0
      vertex 7.34292 108.743 18
      vertex 7.34292 108.743 0
    endloop
  endfacet
  facet normal 0.481152 -0.876637 0
    outer loop
      vertex 4.6289 -112.024 0
      vertex 5.17913 -111.722 18
      vertex 4.6289 -112.024 18
    endloop
  endfacet
  facet normal 0.481152 -0.876637 0
    outer loop
      vertex 5.17913 -111.722 18
      vertex 4.6289 -112.024 0
      vertex 5.17913 -111.722 0
    endloop
  endfacet
  facet normal -0.982246 0.187599 0
    outer loop
      vertex -7.46057 108.127 0
      vertex -7.34292 108.743 18
      vertex -7.34292 108.743 0
    endloop
  endfacet
  facet normal -0.982246 0.187599 0
    outer loop
      vertex -7.34292 108.743 18
      vertex -7.46057 108.127 0
      vertex -7.46057 108.127 18
    endloop
  endfacet
  facet normal -0.998028 -0.0627628 0
    outer loop
      vertex -7.46057 -108.127 0
      vertex -7.5 -107.5 18
      vertex -7.5 -107.5 0
    endloop
  endfacet
  facet normal -0.998028 -0.0627628 0
    outer loop
      vertex -7.5 -107.5 18
      vertex -7.46057 -108.127 0
      vertex -7.46057 -108.127 18
    endloop
  endfacet
  facet normal -0.367917 0.929859 0
    outer loop
      vertex -4.04508 112.255 0
      vertex -4.6289 112.024 18
      vertex -4.04508 112.255 18
    endloop
  endfacet
  facet normal -0.367917 0.929859 0
    outer loop
      vertex -4.6289 112.024 18
      vertex -4.04508 112.255 0
      vertex -4.6289 112.024 0
    endloop
  endfacet
  facet normal 0.248463 0.968641 -0
    outer loop
      vertex 4.04508 112.255 0
      vertex 3.43691 112.411 18
      vertex 4.04508 112.255 18
    endloop
  endfacet
  facet normal 0.248463 0.968641 0
    outer loop
      vertex 3.43691 112.411 18
      vertex 4.04508 112.255 0
      vertex 3.43691 112.411 0
    endloop
  endfacet
  facet normal 0.125806 0.992055 -0
    outer loop
      vertex 3.43691 112.411 0
      vertex 2.81395 112.49 18
      vertex 3.43691 112.411 18
    endloop
  endfacet
  facet normal 0.125806 0.992055 0
    outer loop
      vertex 2.81395 112.49 18
      vertex 3.43691 112.411 0
      vertex 2.81395 112.49 0
    endloop
  endfacet
  facet normal -0.998028 0.0627628 0
    outer loop
      vertex -7.5 107.5 0
      vertex -7.46057 108.127 18
      vertex -7.46057 108.127 0
    endloop
  endfacet
  facet normal -0.998028 0.0627628 0
    outer loop
      vertex -7.46057 108.127 18
      vertex -7.5 107.5 0
      vertex -7.5 107.5 18
    endloop
  endfacet
  facet normal -0.684693 0.728832 0
    outer loop
      vertex -5.68712 111.353 0
      vertex -6.14484 110.923 18
      vertex -5.68712 111.353 18
    endloop
  endfacet
  facet normal -0.684693 0.728832 0
    outer loop
      vertex -6.14484 110.923 18
      vertex -5.68712 111.353 0
      vertex -6.14484 110.923 0
    endloop
  endfacet
  facet normal -0.481152 0.876637 0
    outer loop
      vertex -4.6289 112.024 0
      vertex -5.17913 111.722 18
      vertex -4.6289 112.024 18
    endloop
  endfacet
  facet normal -0.481152 0.876637 0
    outer loop
      vertex -5.17913 111.722 18
      vertex -4.6289 112.024 0
      vertex -5.17913 111.722 0
    endloop
  endfacet
  facet normal 0.367917 0.929859 -0
    outer loop
      vertex 4.6289 112.024 0
      vertex 4.04508 112.255 18
      vertex 4.6289 112.024 18
    endloop
  endfacet
  facet normal 0.367917 0.929859 0
    outer loop
      vertex 4.04508 112.255 18
      vertex 4.6289 112.024 0
      vertex 4.04508 112.255 0
    endloop
  endfacet
  facet normal 0.481152 0.876637 -0
    outer loop
      vertex 5.17913 111.722 0
      vertex 4.6289 112.024 18
      vertex 5.17913 111.722 18
    endloop
  endfacet
  facet normal 0.481152 0.876637 0
    outer loop
      vertex 4.6289 112.024 18
      vertex 5.17913 111.722 0
      vertex 4.6289 112.024 0
    endloop
  endfacet
  facet normal 0.982246 0.187599 0
    outer loop
      vertex 7.46057 108.127 18
      vertex 7.34292 108.743 0
      vertex 7.34292 108.743 18
    endloop
  endfacet
  facet normal 0.982246 0.187599 0
    outer loop
      vertex 7.34292 108.743 0
      vertex 7.46057 108.127 18
      vertex 7.46057 108.127 0
    endloop
  endfacet
  facet normal 0.770638 0.637273 0
    outer loop
      vertex 6.54508 110.439 18
      vertex 6.14484 110.923 0
      vertex 6.14484 110.923 18
    endloop
  endfacet
  facet normal 0.770638 0.637273 0
    outer loop
      vertex 6.14484 110.923 0
      vertex 6.54508 110.439 18
      vertex 6.54508 110.439 0
    endloop
  endfacet
  facet normal 1 -0 0
    outer loop
      vertex 7.5 -107.5 18
      vertex 7.5 107.5 0
      vertex 7.5 107.5 18
    endloop
  endfacet
  facet normal 1 0 0
    outer loop
      vertex 7.5 107.5 0
      vertex 7.5 -107.5 18
      vertex 7.5 -107.5 0
    endloop
  endfacet
  facet normal -0.367917 -0.929859 0
    outer loop
      vertex -4.6289 -112.024 0
      vertex -4.04508 -112.255 18
      vertex -4.6289 -112.024 18
    endloop
  endfacet
  facet normal -0.367917 -0.929859 -0
    outer loop
      vertex -4.04508 -112.255 18
      vertex -4.6289 -112.024 0
      vertex -4.04508 -112.255 0
    endloop
  endfacet
  facet normal -1 0 0
    outer loop
      vertex -7.5 -107.5 0
      vertex -7.5 107.5 18
      vertex -7.5 107.5 0
    endloop
  endfacet
  facet normal -1 -0 0
    outer loop
      vertex -7.5 107.5 18
      vertex -7.5 -107.5 0
      vertex -7.5 -107.5 18
    endloop
  endfacet
  facet normal 0 0 -1
    outer loop
      vertex 2.81395 -112.49 0
      vertex 7.5 -107.5 0
      vertex 7.46057 -108.127 0
    endloop
  endfacet
  facet normal 0 0 -1
    outer loop
      vertex 7.5 -107.5 0
      vertex -7.5 -107.5 0
      vertex 7.5 107.5 0
    endloop
  endfacet
  facet normal 0 0 -1
    outer loop
      vertex 2.81395 -112.49 0
      vertex 7.46057 -108.127 0
      vertex 7.34292 -108.743 0
    endloop
  endfacet
  facet normal 0 0 -1
    outer loop
      vertex -7.5 107.5 0
      vertex 7.5 107.5 0
      vertex -7.5 -107.5 0
    endloop
  endfacet
  facet normal 0 0 -1
    outer loop
      vertex 2.81395 -112.49 0
      vertex 7.34292 -108.743 0
      vertex 7.14888 -109.341 0
    endloop
  endfacet
  facet normal 0 -0 -1
    outer loop
      vertex 2.81395 112.49 0
      vertex 7.5 107.5 0
      vertex -7.5 107.5 0
    endloop
  endfacet
  facet normal 0 0 -1
    outer loop
      vertex 2.81395 -112.49 0
      vertex 7.14888 -109.341 0
      vertex 6.88153 -109.909 0
    endloop
  endfacet
  facet normal 0 0 -1
    outer loop
      vertex 7.5 107.5 0
      vertex 2.81395 112.49 0
      vertex 7.46057 108.127 0
    endloop
  endfacet
  facet normal 0 0 -1
    outer loop
      vertex 2.81395 -112.49 0
      vertex 6.88153 -109.909 0
      vertex 6.54508 -110.439 0
    endloop
  endfacet
  facet normal 0 0 -1
    outer loop
      vertex 7.46057 108.127 0
      vertex 2.81395 112.49 0
      vertex 7.34292 108.743 0
    endloop
  endfacet
  facet normal 0 0 -1
    outer loop
      vertex 2.81395 -112.49 0
      vertex 6.54508 -110.439 0
      vertex 6.14484 -110.923 0
    endloop
  endfacet
  facet normal 0 0 -1
    outer loop
      vertex 7.34292 108.743 0
      vertex 2.81395 112.49 0
      vertex 7.14888 109.341 0
    endloop
  endfacet
  facet normal 0 0 -1
    outer loop
      vertex 2.81395 -112.49 0
      vertex 6.14484 -110.923 0
      vertex 5.68712 -111.353 0
    endloop
  endfacet
  facet normal 0 0 -1
    outer loop
      vertex 7.14888 109.341 0
      vertex 2.81395 112.49 0
      vertex 6.88153 109.909 0
    endloop
  endfacet
  facet normal 0 0 -1
    outer loop
      vertex 2.81395 -112.49 0
      vertex 5.68712 -111.353 0
      vertex 5.17913 -111.722 0
    endloop
  endfacet
  facet normal 0 0 -1
    outer loop
      vertex 6.88153 109.909 0
      vertex 2.81395 112.49 0
      vertex 6.54508 110.439 0
    endloop
  endfacet
  facet normal 0 0 -1
    outer loop
      vertex 2.81395 -112.49 0
      vertex 5.17913 -111.722 0
      vertex 4.6289 -112.024 0
    endloop
  endfacet
  facet normal 0 0 -1
    outer loop
      vertex 6.54508 110.439 0
      vertex 2.81395 112.49 0
      vertex 6.14484 110.923 0
    endloop
  endfacet
  facet normal 0 0 -1
    outer loop
      vertex 2.81395 -112.49 0
      vertex 4.6289 -112.024 0
      vertex 4.04508 -112.255 0
    endloop
  endfacet
  facet normal 0 0 -1
    outer loop
      vertex 6.14484 110.923 0
      vertex 2.81395 112.49 0
      vertex 5.68712 111.353 0
    endloop
  endfacet
  facet normal 0 0 -1
    outer loop
      vertex 2.81395 -112.49 0
      vertex 4.04508 -112.255 0
      vertex 3.43691 -112.411 0
    endloop
  endfacet
  facet normal 0 0 -1
    outer loop
      vertex 5.68712 111.353 0
      vertex 2.81395 112.49 0
      vertex 5.17913 111.722 0
    endloop
  endfacet
  facet normal -0 0 -1
    outer loop
      vertex 7.5 -107.5 0
      vertex 2.81395 -112.49 0
      vertex -7.5 -107.5 0
    endloop
  endfacet
  facet normal 0 0 -1
    outer loop
      vertex 5.17913 111.722 0
      vertex 2.81395 112.49 0
      vertex 4.6289 112.024 0
    endloop
  endfacet
  facet normal 0 0 -1
    outer loop
      vertex -7.5 -107.5 0
      vertex 2.81395 -112.49 0
      vertex -2.81395 -112.49 0
    endloop
  endfacet
  facet normal 0 0 -1
    outer loop
      vertex 4.6289 112.024 0
      vertex 2.81395 112.49 0
      vertex 4.04508 112.255 0
    endloop
  endfacet
  facet normal 0 0 -1
    outer loop
      vertex -7.5 -107.5 0
      vertex -2.81395 -112.49 0
      vertex -3.43691 -112.411 0
    endloop
  endfacet
  facet normal 0 0 -1
    outer loop
      vertex 4.04508 112.255 0
      vertex 2.81395 112.49 0
      vertex 3.43691 112.411 0
    endloop
  endfacet
  facet normal 0 0 -1
    outer loop
      vertex -7.5 -107.5 0
      vertex -3.43691 -112.411 0
      vertex -4.04508 -112.255 0
    endloop
  endfacet
  facet normal -0 0 -1
    outer loop
      vertex 2.81395 112.49 0
      vertex -7.5 107.5 0
      vertex -2.81395 112.49 0
    endloop
  endfacet
  facet normal 0 0 -1
    outer loop
      vertex -7.5 -107.5 0
      vertex -4.04508 -112.255 0
      vertex -4.6289 -112.024 0
    endloop
  endfacet
  facet normal 0 0 -1
    outer loop
      vertex -2.81395 112.49 0
      vertex -7.5 107.5 0
      vertex -3.43691 112.411 0
    endloop
  endfacet
  facet normal 0 0 -1
    outer loop
      vertex -7.5 -107.5 0
      vertex -4.6289 -112.024 0
      vertex -5.17913 -111.722 0
    endloop
  endfacet
  facet normal 0 0 -1
    outer loop
      vertex -3.43691 112.411 0
      vertex -7.5 107.5 0
      vertex -4.04508 112.255 0
    endloop
  endfacet
  facet normal 0 0 -1
    outer loop
      vertex -7.5 -107.5 0
      vertex -5.17913 -111.722 0
      vertex -5.68712 -111.353 0
    endloop
  endfacet
  facet normal 0 0 -1
    outer loop
      vertex -4.04508 112.255 0
      vertex -7.5 107.5 0
      vertex -4.6289 112.024 0
    endloop
  endfacet
  facet normal 0 0 -1
    outer loop
      vertex -7.5 -107.5 0
      vertex -5.68712 -111.353 0
      vertex -6.14484 -110.923 0
    endloop
  endfacet
  facet normal 0 0 -1
    outer loop
      vertex -4.6289 112.024 0
      vertex -7.5 107.5 0
      vertex -5.17913 111.722 0
    endloop
  endfacet
  facet normal 0 0 -1
    outer loop
      vertex -7.5 -107.5 0
      vertex -6.14484 -110.923 0
      vertex -6.54508 -110.439 0
    endloop
  endfacet
  facet normal 0 0 -1
    outer loop
      vertex -5.17913 111.722 0
      vertex -7.5 107.5 0
      vertex -5.68712 111.353 0
    endloop
  endfacet
  facet normal 0 0 -1
    outer loop
      vertex -7.5 -107.5 0
      vertex -6.54508 -110.439 0
      vertex -6.88153 -109.909 0
    endloop
  endfacet
  facet normal 0 0 -1
    outer loop
      vertex -5.68712 111.353 0
      vertex -7.5 107.5 0
      vertex -6.14484 110.923 0
    endloop
  endfacet
  facet normal 0 0 -1
    outer loop
      vertex -7.5 -107.5 0
      vertex -6.88153 -109.909 0
      vertex -7.14888 -109.341 0
    endloop
  endfacet
  facet normal 0 0 -1
    outer loop
      vertex -6.14484 110.923 0
      vertex -7.5 107.5 0
      vertex -6.54508 110.439 0
    endloop
  endfacet
  facet normal 0 0 -1
    outer loop
      vertex -7.5 -107.5 0
      vertex -7.14888 -109.341 0
      vertex -7.34292 -108.743 0
    endloop
  endfacet
  facet normal 0 0 -1
    outer loop
      vertex -6.54508 110.439 0
      vertex -7.5 107.5 0
      vertex -6.88153 109.909 0
    endloop
  endfacet
  facet normal 0 0 -1
    outer loop
      vertex -7.5 -107.5 0
      vertex -7.34292 -108.743 0
      vertex -7.46057 -108.127 0
    endloop
  endfacet
  facet normal 0 0 -1
    outer loop
      vertex -6.88153 109.909 0
      vertex -7.5 107.5 0
      vertex -7.14888 109.341 0
    endloop
  endfacet
  facet normal 0 0 -1
    outer loop
      vertex -7.14888 109.341 0
      vertex -7.5 107.5 0
      vertex -7.34292 108.743 0
    endloop
  endfacet
  facet normal 0 0 -1
    outer loop
      vertex -7.34292 108.743 0
      vertex -7.5 107.5 0
      vertex -7.46057 108.127 0
    endloop
  endfacet
  facet normal -0.248463 0.968641 0
    outer loop
      vertex -3.43691 112.411 0
      vertex -4.04508 112.255 18
      vertex -3.43691 112.411 18
    endloop
  endfacet
  facet normal -0.248463 0.968641 0
    outer loop
      vertex -4.04508 112.255 18
      vertex -3.43691 112.411 0
      vertex -4.04508 112.255 0
    endloop
  endfacet
  facet normal -0.125806 0.992055 0
    outer loop
      vertex -2.81395 112.49 0
      vertex -3.43691 112.411 18
      vertex -2.81395 112.49 18
    endloop
  endfacet
  facet normal -0.125806 0.992055 0
    outer loop
      vertex -3.43691 112.411 18
      vertex -2.81395 112.49 0
      vertex -3.43691 112.411 0
    endloop
  endfacet
  facet normal 0.998028 0.0627628 0
    outer loop
      vertex 7.5 107.5 18
      vertex 7.46057 108.127 0
      vertex 7.46057 108.127 18
    endloop
  endfacet
  facet normal 0.998028 0.0627628 0
    outer loop
      vertex 7.46057 108.127 0
      vertex 7.5 107.5 18
      vertex 7.5 107.5 0
    endloop
  endfacet
  facet normal 0.844255 0.535942 0
    outer loop
      vertex 6.88153 109.909 18
      vertex 6.54508 110.439 0
      vertex 6.54508 110.439 18
    endloop
  endfacet
  facet normal 0.844255 0.535942 0
    outer loop
      vertex 6.54508 110.439 0
      vertex 6.88153 109.909 18
      vertex 6.88153 109.909 0
    endloop
  endfacet
  facet normal 0.904784 0.42587 0
    outer loop
      vertex 7.14888 109.341 18
      vertex 6.88153 109.909 0
      vertex 6.88153 109.909 18
    endloop
  endfacet
  facet normal 0.904784 0.42587 0
    outer loop
      vertex 6.88153 109.909 0
      vertex 7.14888 109.341 18
      vertex 7.14888 109.341 0
    endloop
  endfacet
  facet normal 0 -1 0
    outer loop
      vertex -2.81395 -112.49 0
      vertex 2.81395 -112.49 18
      vertex -2.81395 -112.49 18
    endloop
  endfacet
  facet normal 0 -1 -0
    outer loop
      vertex 2.81395 -112.49 18
      vertex -2.81395 -112.49 0
      vertex 2.81395 -112.49 0
    endloop
  endfacet
  facet normal -0.770638 -0.637273 0
    outer loop
      vertex -6.14484 -110.923 0
      vertex -6.54508 -110.439 18
      vertex -6.54508 -110.439 0
    endloop
  endfacet
  facet normal -0.770638 -0.637273 0
    outer loop
      vertex -6.54508 -110.439 18
      vertex -6.14484 -110.923 0
      vertex -6.14484 -110.923 18
    endloop
  endfacet
  facet normal -0.770638 0.637273 0
    outer loop
      vertex -6.54508 110.439 0
      vertex -6.14484 110.923 18
      vertex -6.14484 110.923 0
    endloop
  endfacet
  facet normal -0.770638 0.637273 0
    outer loop
      vertex -6.14484 110.923 18
      vertex -6.54508 110.439 0
      vertex -6.54508 110.439 18
    endloop
  endfacet
  facet normal 0.684693 0.728832 -0
    outer loop
      vertex 6.14484 110.923 0
      vertex 5.68712 111.353 18
      vertex 6.14484 110.923 18
    endloop
  endfacet
  facet normal 0.684693 0.728832 0
    outer loop
      vertex 5.68712 111.353 18
      vertex 6.14484 110.923 0
      vertex 5.68712 111.353 0
    endloop
  endfacet
  facet normal 0.587706 0.809075 -0
    outer loop
      vertex 5.68712 111.353 0
      vertex 5.17913 111.722 18
      vertex 5.68712 111.353 18
    endloop
  endfacet
  facet normal 0.587706 0.809075 0
    outer loop
      vertex 5.17913 111.722 18
      vertex 5.68712 111.353 0
      vertex 5.17913 111.722 0
    endloop
  endfacet
  facet normal -0.248463 -0.968641 0
    outer loop
      vertex -4.04508 -112.255 0
      vertex -3.43691 -112.411 18
      vertex -4.04508 -112.255 18
    endloop
  endfacet
  facet normal -0.248463 -0.968641 -0
    outer loop
      vertex -3.43691 -112.411 18
      vertex -4.04508 -112.255 0
      vertex -3.43691 -112.411 0
    endloop
  endfacet
  facet normal -0.125806 -0.992055 0
    outer loop
      vertex -3.43691 -112.411 0
      vertex -2.81395 -112.49 18
      vertex -3.43691 -112.411 18
    endloop
  endfacet
  facet normal -0.125806 -0.992055 -0
    outer loop
      vertex -2.81395 -112.49 18
      vertex -3.43691 -112.411 0
      vertex -2.81395 -112.49 0
    endloop
  endfacet
  facet normal 0.125806 -0.992055 0
    outer loop
      vertex 2.81395 -112.49 0
      vertex 3.43691 -112.411 18
      vertex 2.81395 -112.49 18
    endloop
  endfacet
  facet normal 0.125806 -0.992055 0
    outer loop
      vertex 3.43691 -112.411 18
      vertex 2.81395 -112.49 0
      vertex 3.43691 -112.411 0
    endloop
  endfacet
  facet normal 0.367917 -0.929859 0
    outer loop
      vertex 4.04508 -112.255 0
      vertex 4.6289 -112.024 18
      vertex 4.04508 -112.255 18
    endloop
  endfacet
  facet normal 0.367917 -0.929859 0
    outer loop
      vertex 4.6289 -112.024 18
      vertex 4.04508 -112.255 0
      vertex 4.6289 -112.024 0
    endloop
  endfacet
  facet normal 0.248463 -0.968641 0
    outer loop
      vertex 3.43691 -112.411 0
      vertex 4.04508 -112.255 18
      vertex 3.43691 -112.411 18
    endloop
  endfacet
  facet normal 0.248463 -0.968641 0
    outer loop
      vertex 4.04508 -112.255 18
      vertex 3.43691 -112.411 0
      vertex 4.04508 -112.255 0
    endloop
  endfacet
  facet normal 0.684693 -0.728832 0
    outer loop
      vertex 5.68712 -111.353 0
      vertex 6.14484 -110.923 18
      vertex 5.68712 -111.353 18
    endloop
  endfacet
  facet normal 0.684693 -0.728832 0
    outer loop
      vertex 6.14484 -110.923 18
      vertex 5.68712 -111.353 0
      vertex 6.14484 -110.923 0
    endloop
  endfacet
  facet normal 0.770638 -0.637273 0
    outer loop
      vertex 6.14484 -110.923 18
      vertex 6.54508 -110.439 0
      vertex 6.54508 -110.439 18
    endloop
  endfacet
  facet normal 0.770638 -0.637273 0
    outer loop
      vertex 6.54508 -110.439 0
      vertex 6.14484 -110.923 18
      vertex 6.14484 -110.923 0
    endloop
  endfacet
  facet normal -0.587706 -0.809075 0
    outer loop
      vertex -5.68712 -111.353 0
      vertex -5.17913 -111.722 18
      vertex -5.68712 -111.353 18
    endloop
  endfacet
  facet normal -0.587706 -0.809075 -0
    outer loop
      vertex -5.17913 -111.722 18
      vertex -5.68712 -111.353 0
      vertex -5.17913 -111.722 0
    endloop
  endfacet
  facet normal -0.982246 -0.187599 0
    outer loop
      vertex -7.34292 -108.743 0
      vertex -7.46057 -108.127 18
      vertex -7.46057 -108.127 0
    endloop
  endfacet
  facet normal -0.982246 -0.187599 0
    outer loop
      vertex -7.46057 -108.127 18
      vertex -7.34292 -108.743 0
      vertex -7.34292 -108.743 18
    endloop
  endfacet
  facet normal -0.904784 0.42587 0
    outer loop
      vertex -7.14888 109.341 0
      vertex -6.88153 109.909 18
      vertex -6.88153 109.909 0
    endloop
  endfacet
  facet normal -0.904784 0.42587 0
    outer loop
      vertex -6.88153 109.909 18
      vertex -7.14888 109.341 0
      vertex -7.14888 109.341 18
    endloop
  endfacet
  facet normal 0.587706 -0.809075 0
    outer loop
      vertex 5.17913 -111.722 0
      vertex 5.68712 -111.353 18
      vertex 5.17913 -111.722 18
    endloop
  endfacet
  facet normal 0.587706 -0.809075 0
    outer loop
      vertex 5.68712 -111.353 18
      vertex 5.17913 -111.722 0
      vertex 5.68712 -111.353 0
    endloop
  endfacet
  facet normal 0.951179 -0.30864 0
    outer loop
      vertex 7.14888 -109.341 18
      vertex 7.34292 -108.743 0
      vertex 7.34292 -108.743 18
    endloop
  endfacet
  facet normal 0.951179 -0.30864 0
    outer loop
      vertex 7.34292 -108.743 0
      vertex 7.14888 -109.341 18
      vertex 7.14888 -109.341 0
    endloop
  endfacet
  facet normal -0.684693 -0.728832 0
    outer loop
      vertex -6.14484 -110.923 0
      vertex -5.68712 -111.353 18
      vertex -6.14484 -110.923 18
    endloop
  endfacet
  facet normal -0.684693 -0.728832 -0
    outer loop
      vertex -5.68712 -111.353 18
      vertex -6.14484 -110.923 0
      vertex -5.68712 -111.353 0
    endloop
  endfacet
  facet normal -0.844255 -0.535942 0
    outer loop
      vertex -6.54508 -110.439 0
      vertex -6.88153 -109.909 18
      vertex -6.88153 -109.909 0
    endloop
  endfacet
  facet normal -0.844255 -0.535942 0
    outer loop
      vertex -6.88153 -109.909 18
      vertex -6.54508 -110.439 0
      vertex -6.54508 -110.439 18
    endloop
  endfacet
  facet normal -0.951179 -0.30864 0
    outer loop
      vertex -7.14888 -109.341 0
      vertex -7.34292 -108.743 18
      vertex -7.34292 -108.743 0
    endloop
  endfacet
  facet normal -0.951179 -0.30864 0
    outer loop
      vertex -7.34292 -108.743 18
      vertex -7.14888 -109.341 0
      vertex -7.14888 -109.341 18
    endloop
  endfacet
  facet normal -0.904784 -0.42587 0
    outer loop
      vertex -6.88153 -109.909 0
      vertex -7.14888 -109.341 18
      vertex -7.14888 -109.341 0
    endloop
  endfacet
  facet normal -0.904784 -0.42587 0
    outer loop
      vertex -7.14888 -109.341 18
      vertex -6.88153 -109.909 0
      vertex -6.88153 -109.909 18
    endloop
  endfacet
  facet normal -0.587706 0.809075 0
    outer loop
      vertex -5.17913 111.722 0
      vertex -5.68712 111.353 18
      vertex -5.17913 111.722 18
    endloop
  endfacet
  facet normal -0.587706 0.809075 0
    outer loop
      vertex -5.68712 111.353 18
      vertex -5.17913 111.722 0
      vertex -5.68712 111.353 0
    endloop
  endfacet
  facet normal -0.951179 0.30864 0
    outer loop
      vertex -7.34292 108.743 0
      vertex -7.14888 109.341 18
      vertex -7.14888 109.341 0
    endloop
  endfacet
  facet normal -0.951179 0.30864 0
    outer loop
      vertex -7.14888 109.341 18
      vertex -7.34292 108.743 0
      vertex -7.34292 108.743 18
    endloop
  endfacet
  facet normal -0.844255 0.535942 0
    outer loop
      vertex -6.88153 109.909 0
      vertex -6.54508 110.439 18
      vertex -6.54508 110.439 0
    endloop
  endfacet
  facet normal -0.844255 0.535942 0
    outer loop
      vertex -6.54508 110.439 18
      vertex -6.88153 109.909 0
      vertex -6.88153 109.909 18
    endloop
  endfacet
  facet normal 0.982246 -0.187599 0
    outer loop
      vertex 7.34292 -108.743 18
      vertex 7.46057 -108.127 0
      vertex 7.46057 -108.127 18
    endloop
  endfacet
  facet normal 0.982246 -0.187599 0
    outer loop
      vertex 7.46057 -108.127 0
      vertex 7.34292 -108.743 18
      vertex 7.34292 -108.743 0
    endloop
  endfacet
  facet normal 0.904784 -0.42587 0
    outer loop
      vertex 6.88153 -109.909 18
      vertex 7.14888 -109.341 0
      vertex 7.14888 -109.341 18
    endloop
  endfacet
  facet normal 0.904784 -0.42587 0
    outer loop
      vertex 7.14888 -109.341 0
      vertex 6.88153 -109.909 18
      vertex 6.88153 -109.909 0
    endloop
  endfacet
  facet normal 0.844255 -0.535942 0
    outer loop
      vertex 6.54508 -110.439 18
      vertex 6.88153 -109.909 0
      vertex 6.88153 -109.909 18
    endloop
  endfacet
  facet normal 0.844255 -0.535942 0
    outer loop
      vertex 6.88153 -109.909 0
      vertex 6.54508 -110.439 18
      vertex 6.54508 -110.439 0
    endloop
  endfacet
  facet normal -0.481152 -0.876637 0
    outer loop
      vertex -5.17913 -111.722 0
      vertex -4.6289 -112.024 18
      vertex -5.17913 -111.722 18
    endloop
  endfacet
  facet normal -0.481152 -0.876637 -0
    outer loop
      vertex -4.6289 -112.024 18
      vertex -5.17913 -111.722 0
      vertex -4.6289 -112.024 0
    endloop
  endfacet
  facet normal -0.125414 -0.992104 0
    outer loop
      vertex 2.75116 111.492 2
      vertex 3.24953 111.429 18
      vertex 2.75116 111.492 18
    endloop
  endfacet
  facet normal -0.125414 -0.992104 -0
    outer loop
      vertex 3.24953 111.429 18
      vertex 2.75116 111.492 2
      vertex 3.24953 111.429 2
    endloop
  endfacet
  facet normal -0.998024 -0.0628297 0
    outer loop
      vertex 6.5 107.5 2
      vertex 6.46846 108.001 18
      vertex 6.46846 108.001 2
    endloop
  endfacet
  facet normal -0.998024 -0.0628297 0
    outer loop
      vertex 6.46846 108.001 18
      vertex 6.5 107.5 2
      vertex 6.5 107.5 18
    endloop
  endfacet
  facet normal 0.481759 -0.876304 0
    outer loop
      vertex -4.64331 110.877 2
      vertex -4.20312 111.119 18
      vertex -4.64331 110.877 18
    endloop
  endfacet
  facet normal 0.481759 -0.876304 0
    outer loop
      vertex -4.20312 111.119 18
      vertex -4.64331 110.877 2
      vertex -4.20312 111.119 2
    endloop
  endfacet
  facet normal 1 -0 0
    outer loop
      vertex -6.5 -107.5 18
      vertex -6.5 107.5 2
      vertex -6.5 107.5 18
    endloop
  endfacet
  facet normal 1 0 0
    outer loop
      vertex -6.5 107.5 2
      vertex -6.5 -107.5 18
      vertex -6.5 -107.5 2
    endloop
  endfacet
  facet normal 0 -1 0
    outer loop
      vertex -2.75116 111.492 2
      vertex 2.75116 111.492 18
      vertex -2.75116 111.492 18
    endloop
  endfacet
  facet normal 0 -1 -0
    outer loop
      vertex 2.75116 111.492 18
      vertex -2.75116 111.492 2
      vertex 2.75116 111.492 2
    endloop
  endfacet
  facet normal 0.368265 -0.929721 0
    outer loop
      vertex -4.20312 111.119 2
      vertex -3.73607 111.304 18
      vertex -4.20312 111.119 18
    endloop
  endfacet
  facet normal 0.368265 -0.929721 0
    outer loop
      vertex -3.73607 111.304 18
      vertex -4.20312 111.119 2
      vertex -3.73607 111.304 2
    endloop
  endfacet
  facet normal 0.844255 -0.535942 0
    outer loop
      vertex -6.00523 109.427 18
      vertex -5.73607 109.851 2
      vertex -5.73607 109.851 18
    endloop
  endfacet
  facet normal 0.844255 -0.535942 0
    outer loop
      vertex -5.73607 109.851 2
      vertex -6.00523 109.427 18
      vertex -6.00523 109.427 2
    endloop
  endfacet
  facet normal -1 0 0
    outer loop
      vertex 6.5 -107.5 2
      vertex 6.5 107.5 18
      vertex 6.5 107.5 2
    endloop
  endfacet
  facet normal -1 -0 0
    outer loop
      vertex 6.5 107.5 18
      vertex 6.5 -107.5 2
      vertex 6.5 -107.5 18
    endloop
  endfacet
  facet normal 0.587447 -0.809263 0
    outer loop
      vertex -5.0497 110.582 2
      vertex -4.64331 110.877 18
      vertex -5.0497 110.582 18
    endloop
  endfacet
  facet normal 0.587447 -0.809263 0
    outer loop
      vertex -4.64331 110.877 18
      vertex -5.0497 110.582 2
      vertex -4.64331 110.877 2
    endloop
  endfacet
  facet normal 0.770468 -0.637478 0
    outer loop
      vertex -5.73607 109.851 18
      vertex -5.41587 110.238 2
      vertex -5.41587 110.238 18
    endloop
  endfacet
  facet normal 0.770468 -0.637478 0
    outer loop
      vertex -5.41587 110.238 2
      vertex -5.73607 109.851 18
      vertex -5.73607 109.851 2
    endloop
  endfacet
  facet normal -0.368265 -0.929721 0
    outer loop
      vertex 3.73607 111.304 2
      vertex 4.20312 111.119 18
      vertex 3.73607 111.304 18
    endloop
  endfacet
  facet normal -0.368265 -0.929721 -0
    outer loop
      vertex 4.20312 111.119 18
      vertex 3.73607 111.304 2
      vertex 4.20312 111.119 2
    endloop
  endfacet
  facet normal -0.481759 -0.876304 0
    outer loop
      vertex 4.20312 111.119 2
      vertex 4.64331 110.877 18
      vertex 4.20312 111.119 18
    endloop
  endfacet
  facet normal -0.481759 -0.876304 -0
    outer loop
      vertex 4.64331 110.877 18
      vertex 4.20312 111.119 2
      vertex 4.64331 110.877 2
    endloop
  endfacet
  facet normal -0.770468 -0.637478 0
    outer loop
      vertex 5.73607 109.851 2
      vertex 5.41587 110.238 18
      vertex 5.41587 110.238 2
    endloop
  endfacet
  facet normal -0.770468 -0.637478 0
    outer loop
      vertex 5.41587 110.238 18
      vertex 5.73607 109.851 2
      vertex 5.73607 109.851 18
    endloop
  endfacet
  facet normal -0.95092 0.309438 0
    outer loop
      vertex 6.21911 -108.972 2
      vertex 6.37433 -108.495 18
      vertex 6.37433 -108.495 2
    endloop
  endfacet
  facet normal -0.95092 0.309438 0
    outer loop
      vertex 6.37433 -108.495 18
      vertex 6.21911 -108.972 2
      vertex 6.21911 -108.972 18
    endloop
  endfacet
  facet normal 0.481759 0.876304 -0
    outer loop
      vertex -4.20312 -111.119 2
      vertex -4.64331 -110.877 18
      vertex -4.20312 -111.119 18
    endloop
  endfacet
  facet normal 0.481759 0.876304 0
    outer loop
      vertex -4.64331 -110.877 18
      vertex -4.20312 -111.119 2
      vertex -4.64331 -110.877 2
    endloop
  endfacet
  facet normal 0.95092 -0.309438 0
    outer loop
      vertex -6.37433 108.495 18
      vertex -6.21911 108.972 2
      vertex -6.21911 108.972 18
    endloop
  endfacet
  facet normal 0.95092 -0.309438 0
    outer loop
      vertex -6.21911 108.972 2
      vertex -6.37433 108.495 18
      vertex -6.37433 108.495 2
    endloop
  endfacet
  facet normal 0.998024 -0.0628297 0
    outer loop
      vertex -6.5 107.5 18
      vertex -6.46846 108.001 2
      vertex -6.46846 108.001 18
    endloop
  endfacet
  facet normal 0.998024 -0.0628297 0
    outer loop
      vertex -6.46846 108.001 2
      vertex -6.5 107.5 18
      vertex -6.5 107.5 2
    endloop
  endfacet
  facet normal 0.248835 -0.968546 0
    outer loop
      vertex -3.73607 111.304 2
      vertex -3.24953 111.429 18
      vertex -3.73607 111.304 18
    endloop
  endfacet
  facet normal 0.248835 -0.968546 0
    outer loop
      vertex -3.24953 111.429 18
      vertex -3.73607 111.304 2
      vertex -3.24953 111.429 2
    endloop
  endfacet
  facet normal 0.125414 -0.992104 0
    outer loop
      vertex -3.24953 111.429 2
      vertex -2.75116 111.492 18
      vertex -3.24953 111.429 18
    endloop
  endfacet
  facet normal 0.125414 -0.992104 0
    outer loop
      vertex -2.75116 111.492 18
      vertex -3.24953 111.429 2
      vertex -2.75116 111.492 2
    endloop
  endfacet
  facet normal -0.248835 -0.968546 0
    outer loop
      vertex 3.24953 111.429 2
      vertex 3.73607 111.304 18
      vertex 3.24953 111.429 18
    endloop
  endfacet
  facet normal -0.248835 -0.968546 -0
    outer loop
      vertex 3.73607 111.304 18
      vertex 3.24953 111.429 2
      vertex 3.73607 111.304 2
    endloop
  endfacet
  facet normal -0.95092 -0.309438 0
    outer loop
      vertex 6.37433 108.495 2
      vertex 6.21911 108.972 18
      vertex 6.21911 108.972 2
    endloop
  endfacet
  facet normal -0.95092 -0.309438 0
    outer loop
      vertex 6.21911 108.972 18
      vertex 6.37433 108.495 2
      vertex 6.37433 108.495 18
    endloop
  endfacet
  facet normal -0.844255 -0.535942 0
    outer loop
      vertex 6.00523 109.427 2
      vertex 5.73607 109.851 18
      vertex 5.73607 109.851 2
    endloop
  endfacet
  facet normal -0.844255 -0.535942 0
    outer loop
      vertex 5.73607 109.851 18
      vertex 6.00523 109.427 2
      vertex 6.00523 109.427 18
    endloop
  endfacet
  facet normal 0.905001 -0.42541 0
    outer loop
      vertex -6.21911 108.972 18
      vertex -6.00523 109.427 2
      vertex -6.00523 109.427 18
    endloop
  endfacet
  facet normal 0.905001 -0.42541 0
    outer loop
      vertex -6.00523 109.427 2
      vertex -6.21911 108.972 18
      vertex -6.21911 108.972 2
    endloop
  endfacet
  facet normal -0.587447 -0.809263 0
    outer loop
      vertex 4.64331 110.877 2
      vertex 5.0497 110.582 18
      vertex 4.64331 110.877 18
    endloop
  endfacet
  facet normal -0.587447 -0.809263 -0
    outer loop
      vertex 5.0497 110.582 18
      vertex 4.64331 110.877 2
      vertex 5.0497 110.582 2
    endloop
  endfacet
  facet normal -0.982326 -0.187179 0
    outer loop
      vertex 6.46846 108.001 2
      vertex 6.37433 108.495 18
      vertex 6.37433 108.495 2
    endloop
  endfacet
  facet normal -0.982326 -0.187179 0
    outer loop
      vertex 6.37433 108.495 18
      vertex 6.46846 108.001 2
      vertex 6.46846 108.001 18
    endloop
  endfacet
  facet normal -0.905001 -0.42541 0
    outer loop
      vertex 6.21911 108.972 2
      vertex 6.00523 109.427 18
      vertex 6.00523 109.427 2
    endloop
  endfacet
  facet normal -0.905001 -0.42541 0
    outer loop
      vertex 6.00523 109.427 18
      vertex 6.21911 108.972 2
      vertex 6.21911 108.972 18
    endloop
  endfacet
  facet normal -0.998024 0.0628297 0
    outer loop
      vertex 6.46846 -108.001 2
      vertex 6.5 -107.5 18
      vertex 6.5 -107.5 2
    endloop
  endfacet
  facet normal -0.998024 0.0628297 0
    outer loop
      vertex 6.5 -107.5 18
      vertex 6.46846 -108.001 2
      vertex 6.46846 -108.001 18
    endloop
  endfacet
  facet normal 0 1 -0
    outer loop
      vertex 2.75116 -111.492 2
      vertex -2.75116 -111.492 18
      vertex 2.75116 -111.492 18
    endloop
  endfacet
  facet normal 0 1 0
    outer loop
      vertex -2.75116 -111.492 18
      vertex 2.75116 -111.492 2
      vertex -2.75116 -111.492 2
    endloop
  endfacet
  facet normal -0.770468 0.637478 0
    outer loop
      vertex 5.41587 -110.238 2
      vertex 5.73607 -109.851 18
      vertex 5.73607 -109.851 2
    endloop
  endfacet
  facet normal -0.770468 0.637478 0
    outer loop
      vertex 5.73607 -109.851 18
      vertex 5.41587 -110.238 2
      vertex 5.41587 -110.238 18
    endloop
  endfacet
  facet normal 0.368265 0.929721 -0
    outer loop
      vertex -3.73607 -111.304 2
      vertex -4.20312 -111.119 18
      vertex -3.73607 -111.304 18
    endloop
  endfacet
  facet normal 0.368265 0.929721 0
    outer loop
      vertex -4.20312 -111.119 18
      vertex -3.73607 -111.304 2
      vertex -4.20312 -111.119 2
    endloop
  endfacet
  facet normal 0.248835 0.968546 -0
    outer loop
      vertex -3.24953 -111.429 2
      vertex -3.73607 -111.304 18
      vertex -3.24953 -111.429 18
    endloop
  endfacet
  facet normal 0.248835 0.968546 0
    outer loop
      vertex -3.73607 -111.304 18
      vertex -3.24953 -111.429 2
      vertex -3.73607 -111.304 2
    endloop
  endfacet
  facet normal 0.684699 -0.728826 0
    outer loop
      vertex -5.41587 110.238 2
      vertex -5.0497 110.582 18
      vertex -5.41587 110.238 18
    endloop
  endfacet
  facet normal 0.684699 -0.728826 0
    outer loop
      vertex -5.0497 110.582 18
      vertex -5.41587 110.238 2
      vertex -5.0497 110.582 2
    endloop
  endfacet
  facet normal -0.684699 -0.728826 0
    outer loop
      vertex 5.0497 110.582 2
      vertex 5.41587 110.238 18
      vertex 5.0497 110.582 18
    endloop
  endfacet
  facet normal -0.684699 -0.728826 -0
    outer loop
      vertex 5.41587 110.238 18
      vertex 5.0497 110.582 2
      vertex 5.41587 110.238 2
    endloop
  endfacet
  facet normal -0.982326 0.187179 0
    outer loop
      vertex 6.37433 -108.495 2
      vertex 6.46846 -108.001 18
      vertex 6.46846 -108.001 2
    endloop
  endfacet
  facet normal -0.982326 0.187179 0
    outer loop
      vertex 6.46846 -108.001 18
      vertex 6.37433 -108.495 2
      vertex 6.37433 -108.495 18
    endloop
  endfacet
  facet normal -0.368265 0.929721 0
    outer loop
      vertex 4.20312 -111.119 2
      vertex 3.73607 -111.304 18
      vertex 4.20312 -111.119 18
    endloop
  endfacet
  facet normal -0.368265 0.929721 0
    outer loop
      vertex 3.73607 -111.304 18
      vertex 4.20312 -111.119 2
      vertex 3.73607 -111.304 2
    endloop
  endfacet
  facet normal -0.844255 0.535942 0
    outer loop
      vertex 5.73607 -109.851 2
      vertex 6.00523 -109.427 18
      vertex 6.00523 -109.427 2
    endloop
  endfacet
  facet normal -0.844255 0.535942 0
    outer loop
      vertex 6.00523 -109.427 18
      vertex 5.73607 -109.851 2
      vertex 5.73607 -109.851 18
    endloop
  endfacet
  facet normal -0.125414 0.992104 0
    outer loop
      vertex 3.24953 -111.429 2
      vertex 2.75116 -111.492 18
      vertex 3.24953 -111.429 18
    endloop
  endfacet
  facet normal -0.125414 0.992104 0
    outer loop
      vertex 2.75116 -111.492 18
      vertex 3.24953 -111.429 2
      vertex 2.75116 -111.492 2
    endloop
  endfacet
  facet normal -0.248835 0.968546 0
    outer loop
      vertex 3.73607 -111.304 2
      vertex 3.24953 -111.429 18
      vertex 3.73607 -111.304 18
    endloop
  endfacet
  facet normal -0.248835 0.968546 0
    outer loop
      vertex 3.24953 -111.429 18
      vertex 3.73607 -111.304 2
      vertex 3.24953 -111.429 2
    endloop
  endfacet
  facet normal 0.905001 0.42541 0
    outer loop
      vertex -6.00523 -109.427 18
      vertex -6.21911 -108.972 2
      vertex -6.21911 -108.972 18
    endloop
  endfacet
  facet normal 0.905001 0.42541 0
    outer loop
      vertex -6.21911 -108.972 2
      vertex -6.00523 -109.427 18
      vertex -6.00523 -109.427 2
    endloop
  endfacet
  facet normal 0.684699 0.728826 -0
    outer loop
      vertex -5.0497 -110.582 2
      vertex -5.41587 -110.238 18
      vertex -5.0497 -110.582 18
    endloop
  endfacet
  facet normal 0.684699 0.728826 0
    outer loop
      vertex -5.41587 -110.238 18
      vertex -5.0497 -110.582 2
      vertex -5.41587 -110.238 2
    endloop
  endfacet
  facet normal 0.982326 -0.187179 0
    outer loop
      vertex -6.46846 108.001 18
      vertex -6.37433 108.495 2
      vertex -6.37433 108.495 18
    endloop
  endfacet
  facet normal 0.982326 -0.187179 0
    outer loop
      vertex -6.37433 108.495 2
      vertex -6.46846 108.001 18
      vertex -6.46846 108.001 2
    endloop
  endfacet
  facet normal 0.125414 0.992104 -0
    outer loop
      vertex -2.75116 -111.492 2
      vertex -3.24953 -111.429 18
      vertex -2.75116 -111.492 18
    endloop
  endfacet
  facet normal 0.125414 0.992104 0
    outer loop
      vertex -3.24953 -111.429 18
      vertex -2.75116 -111.492 2
      vertex -3.24953 -111.429 2
    endloop
  endfacet
  facet normal -0.481759 0.876304 0
    outer loop
      vertex 4.64331 -110.877 2
      vertex 4.20312 -111.119 18
      vertex 4.64331 -110.877 18
    endloop
  endfacet
  facet normal -0.481759 0.876304 0
    outer loop
      vertex 4.20312 -111.119 18
      vertex 4.64331 -110.877 2
      vertex 4.20312 -111.119 2
    endloop
  endfacet
  facet normal -0.905001 0.42541 0
    outer loop
      vertex 6.00523 -109.427 2
      vertex 6.21911 -108.972 18
      vertex 6.21911 -108.972 2
    endloop
  endfacet
  facet normal -0.905001 0.42541 0
    outer loop
      vertex 6.21911 -108.972 18
      vertex 6.00523 -109.427 2
      vertex 6.00523 -109.427 18
    endloop
  endfacet
  facet normal 0.998024 0.0628297 0
    outer loop
      vertex -6.46846 -108.001 18
      vertex -6.5 -107.5 2
      vertex -6.5 -107.5 18
    endloop
  endfacet
  facet normal 0.998024 0.0628297 0
    outer loop
      vertex -6.5 -107.5 2
      vertex -6.46846 -108.001 18
      vertex -6.46846 -108.001 2
    endloop
  endfacet
  facet normal 0 0 1
    outer loop
      vertex 2.75116 111.492 2
      vertex 6.5 107.5 2
      vertex 6.46846 108.001 2
    endloop
  endfacet
  facet normal 0 0 1
    outer loop
      vertex 6.5 107.5 2
      vertex -6.5 107.5 2
      vertex 6.5 -107.5 2
    endloop
  endfacet
  facet normal 0 0 1
    outer loop
      vertex 2.75116 111.492 2
      vertex 6.46846 108.001 2
      vertex 6.37433 108.495 2
    endloop
  endfacet
  facet normal 0 0 1
    outer loop
      vertex -6.5 -107.5 2
      vertex 6.5 -107.5 2
      vertex -6.5 107.5 2
    endloop
  endfacet
  facet normal 0 0 1
    outer loop
      vertex 2.75116 111.492 2
      vertex 6.37433 108.495 2
      vertex 6.21911 108.972 2
    endloop
  endfacet
  facet normal 0 -0 1
    outer loop
      vertex 2.75116 -111.492 2
      vertex 6.5 -107.5 2
      vertex -6.5 -107.5 2
    endloop
  endfacet
  facet normal 0 0 1
    outer loop
      vertex 2.75116 111.492 2
      vertex 6.21911 108.972 2
      vertex 6.00523 109.427 2
    endloop
  endfacet
  facet normal 0 0 1
    outer loop
      vertex 6.5 -107.5 2
      vertex 2.75116 -111.492 2
      vertex 6.46846 -108.001 2
    endloop
  endfacet
  facet normal 0 0 1
    outer loop
      vertex 2.75116 111.492 2
      vertex 6.00523 109.427 2
      vertex 5.73607 109.851 2
    endloop
  endfacet
  facet normal 0 0 1
    outer loop
      vertex 6.46846 -108.001 2
      vertex 2.75116 -111.492 2
      vertex 6.37433 -108.495 2
    endloop
  endfacet
  facet normal 0 0 1
    outer loop
      vertex 2.75116 111.492 2
      vertex 5.73607 109.851 2
      vertex 5.41587 110.238 2
    endloop
  endfacet
  facet normal 0 0 1
    outer loop
      vertex 6.37433 -108.495 2
      vertex 2.75116 -111.492 2
      vertex 6.21911 -108.972 2
    endloop
  endfacet
  facet normal 0 0 1
    outer loop
      vertex 2.75116 111.492 2
      vertex 5.41587 110.238 2
      vertex 5.0497 110.582 2
    endloop
  endfacet
  facet normal 0 0 1
    outer loop
      vertex 6.21911 -108.972 2
      vertex 2.75116 -111.492 2
      vertex 6.00523 -109.427 2
    endloop
  endfacet
  facet normal 0 0 1
    outer loop
      vertex 2.75116 111.492 2
      vertex 5.0497 110.582 2
      vertex 4.64331 110.877 2
    endloop
  endfacet
  facet normal 0 0 1
    outer loop
      vertex 6.00523 -109.427 2
      vertex 2.75116 -111.492 2
      vertex 5.73607 -109.851 2
    endloop
  endfacet
  facet normal 0 0 1
    outer loop
      vertex 2.75116 111.492 2
      vertex 4.64331 110.877 2
      vertex 4.20312 111.119 2
    endloop
  endfacet
  facet normal 0 0 1
    outer loop
      vertex 5.73607 -109.851 2
      vertex 2.75116 -111.492 2
      vertex 5.41587 -110.238 2
    endloop
  endfacet
  facet normal 0 0 1
    outer loop
      vertex 2.75116 111.492 2
      vertex 4.20312 111.119 2
      vertex 3.73607 111.304 2
    endloop
  endfacet
  facet normal 0 0 1
    outer loop
      vertex 5.41587 -110.238 2
      vertex 2.75116 -111.492 2
      vertex 5.0497 -110.582 2
    endloop
  endfacet
  facet normal 0 0 1
    outer loop
      vertex 2.75116 111.492 2
      vertex 3.73607 111.304 2
      vertex 3.24953 111.429 2
    endloop
  endfacet
  facet normal 0 0 1
    outer loop
      vertex 5.0497 -110.582 2
      vertex 2.75116 -111.492 2
      vertex 4.64331 -110.877 2
    endloop
  endfacet
  facet normal 0 0 1
    outer loop
      vertex 6.5 107.5 2
      vertex 2.75116 111.492 2
      vertex -6.5 107.5 2
    endloop
  endfacet
  facet normal 0 0 1
    outer loop
      vertex 4.64331 -110.877 2
      vertex 2.75116 -111.492 2
      vertex 4.20312 -111.119 2
    endloop
  endfacet
  facet normal 0 0 1
    outer loop
      vertex -6.5 107.5 2
      vertex 2.75116 111.492 2
      vertex -2.75116 111.492 2
    endloop
  endfacet
  facet normal 0 0 1
    outer loop
      vertex 4.20312 -111.119 2
      vertex 2.75116 -111.492 2
      vertex 3.73607 -111.304 2
    endloop
  endfacet
  facet normal 0 0 1
    outer loop
      vertex -6.5 107.5 2
      vertex -2.75116 111.492 2
      vertex -3.24953 111.429 2
    endloop
  endfacet
  facet normal 0 0 1
    outer loop
      vertex 3.73607 -111.304 2
      vertex 2.75116 -111.492 2
      vertex 3.24953 -111.429 2
    endloop
  endfacet
  facet normal 0 0 1
    outer loop
      vertex -6.5 107.5 2
      vertex -3.24953 111.429 2
      vertex -3.73607 111.304 2
    endloop
  endfacet
  facet normal 0 0 1
    outer loop
      vertex 2.75116 -111.492 2
      vertex -6.5 -107.5 2
      vertex -2.75116 -111.492 2
    endloop
  endfacet
  facet normal 0 0 1
    outer loop
      vertex -6.5 107.5 2
      vertex -3.73607 111.304 2
      vertex -4.20312 111.119 2
    endloop
  endfacet
  facet normal 0 0 1
    outer loop
      vertex -2.75116 -111.492 2
      vertex -6.5 -107.5 2
      vertex -3.24953 -111.429 2
    endloop
  endfacet
  facet normal 0 0 1
    outer loop
      vertex -6.5 107.5 2
      vertex -4.20312 111.119 2
      vertex -4.64331 110.877 2
    endloop
  endfacet
  facet normal 0 0 1
    outer loop
      vertex -3.24953 -111.429 2
      vertex -6.5 -107.5 2
      vertex -3.73607 -111.304 2
    endloop
  endfacet
  facet normal 0 0 1
    outer loop
      vertex -6.5 107.5 2
      vertex -4.64331 110.877 2
      vertex -5.0497 110.582 2
    endloop
  endfacet
  facet normal 0 0 1
    outer loop
      vertex -3.73607 -111.304 2
      vertex -6.5 -107.5 2
      vertex -4.20312 -111.119 2
    endloop
  endfacet
  facet normal 0 0 1
    outer loop
      vertex -6.5 107.5 2
      vertex -5.0497 110.582 2
      vertex -5.41587 110.238 2
    endloop
  endfacet
  facet normal 0 0 1
    outer loop
      vertex -4.20312 -111.119 2
      vertex -6.5 -107.5 2
      vertex -4.64331 -110.877 2
    endloop
  endfacet
  facet normal 0 0 1
    outer loop
      vertex -6.5 107.5 2
      vertex -5.41587 110.238 2
      vertex -5.73607 109.851 2
    endloop
  endfacet
  facet normal 0 0 1
    outer loop
      vertex -4.64331 -110.877 2
      vertex -6.5 -107.5 2
      vertex -5.0497 -110.582 2
    endloop
  endfacet
  facet normal 0 0 1
    outer loop
      vertex -6.5 107.5 2
      vertex -5.73607 109.851 2
      vertex -6.00523 109.427 2
    endloop
  endfacet
  facet normal 0 0 1
    outer loop
      vertex -5.0497 -110.582 2
      vertex -6.5 -107.5 2
      vertex -5.41587 -110.238 2
    endloop
  endfacet
  facet normal 0 0 1
    outer loop
      vertex -6.5 107.5 2
      vertex -6.00523 109.427 2
      vertex -6.21911 108.972 2
    endloop
  endfacet
  facet normal 0 0 1
    outer loop
      vertex -5.41587 -110.238 2
      vertex -6.5 -107.5 2
      vertex -5.73607 -109.851 2
    endloop
  endfacet
  facet normal 0 0 1
    outer loop
      vertex -6.5 107.5 2
      vertex -6.21911 108.972 2
      vertex -6.37433 108.495 2
    endloop
  endfacet
  facet normal 0 0 1
    outer loop
      vertex -5.73607 -109.851 2
      vertex -6.5 -107.5 2
      vertex -6.00523 -109.427 2
    endloop
  endfacet
  facet normal 0 0 1
    outer loop
      vertex -6.5 107.5 2
      vertex -6.37433 108.495 2
      vertex -6.46846 108.001 2
    endloop
  endfacet
  facet normal 0 0 1
    outer loop
      vertex -6.00523 -109.427 2
      vertex -6.5 -107.5 2
      vertex -6.21911 -108.972 2
    endloop
  endfacet
  facet normal 0 0 1
    outer loop
      vertex -6.21911 -108.972 2
      vertex -6.5 -107.5 2
      vertex -6.37433 -108.495 2
    endloop
  endfacet
  facet normal 0 0 1
    outer loop
      vertex -6.37433 -108.495 2
      vertex -6.5 -107.5 2
      vertex -6.46846 -108.001 2
    endloop
  endfacet
  facet normal 0.95092 0.309438 0
    outer loop
      vertex -6.21911 -108.972 18
      vertex -6.37433 -108.495 2
      vertex -6.37433 -108.495 18
    endloop
  endfacet
  facet normal 0.95092 0.309438 0
    outer loop
      vertex -6.37433 -108.495 2
      vertex -6.21911 -108.972 18
      vertex -6.21911 -108.972 2
    endloop
  endfacet
  facet normal 0.587447 0.809263 -0
    outer loop
      vertex -4.64331 -110.877 2
      vertex -5.0497 -110.582 18
      vertex -4.64331 -110.877 18
    endloop
  endfacet
  facet normal 0.587447 0.809263 0
    outer loop
      vertex -5.0497 -110.582 18
      vertex -4.64331 -110.877 2
      vertex -5.0497 -110.582 2
    endloop
  endfacet
  facet normal 0.844255 0.535942 0
    outer loop
      vertex -5.73607 -109.851 18
      vertex -6.00523 -109.427 2
      vertex -6.00523 -109.427 18
    endloop
  endfacet
  facet normal 0.844255 0.535942 0
    outer loop
      vertex -6.00523 -109.427 2
      vertex -5.73607 -109.851 18
      vertex -5.73607 -109.851 2
    endloop
  endfacet
  facet normal 0.770468 0.637478 0
    outer loop
      vertex -5.41587 -110.238 18
      vertex -5.73607 -109.851 2
      vertex -5.73607 -109.851 18
    endloop
  endfacet
  facet normal 0.770468 0.637478 0
    outer loop
      vertex -5.73607 -109.851 2
      vertex -5.41587 -110.238 18
      vertex -5.41587 -110.238 2
    endloop
  endfacet
  facet normal 0.982326 0.187179 0
    outer loop
      vertex -6.37433 -108.495 18
      vertex -6.46846 -108.001 2
      vertex -6.46846 -108.001 18
    endloop
  endfacet
  facet normal 0.982326 0.187179 0
    outer loop
      vertex -6.46846 -108.001 2
      vertex -6.37433 -108.495 18
      vertex -6.37433 -108.495 2
    endloop
  endfacet
  facet normal -0.684699 0.728826 0
    outer loop
      vertex 5.41587 -110.238 2
      vertex 5.0497 -110.582 18
      vertex 5.41587 -110.238 18
    endloop
  endfacet
  facet normal -0.684699 0.728826 0
    outer loop
      vertex 5.0497 -110.582 18
      vertex 5.41587 -110.238 2
      vertex 5.0497 -110.582 2
    endloop
  endfacet
  facet normal -0.587447 0.809263 0
    outer loop
      vertex 5.0497 -110.582 2
      vertex 4.64331 -110.877 18
      vertex 5.0497 -110.582 18
    endloop
  endfacet
  facet normal -0.587447 0.809263 0
    outer loop
      vertex 4.64331 -110.877 18
      vertex 5.0497 -110.582 2
      vertex 4.64331 -110.877 2
    endloop
  endfacet
endsolid OpenSCAD_Model
