solid OpenSCAD_Model
  facet normal -1 0 0
    outer loop
      vertex -18.75 -17.5 0
      vertex -18.75 17.5 21
      vertex -18.75 17.5 0
    endloop
  endfacet
  facet normal -1 -0 0
    outer loop
      vertex -18.75 17.5 21
      vertex -18.75 -17.5 0
      vertex -18.75 -17.5 21
    endloop
  endfacet
  facet normal -0.99803 0.0627451 0
    outer loop
      vertex -18.75 17.5 0
      vertex -18.7106 18.1267 21
      vertex -18.7106 18.1267 0
    endloop
  endfacet
  facet normal -0.99803 0.0627451 0
    outer loop
      vertex -18.7106 18.1267 21
      vertex -18.75 17.5 0
      vertex -18.75 17.5 21
    endloop
  endfacet
  facet normal 0 0 1
    outer loop
      vertex 17.75 17.5 21
      vertex 18.75 17.5 21
      vertex 18.7106 18.1267 21
    endloop
  endfacet
  facet normal 0 0 1
    outer loop
      vertex 18.75 17.5 21
      vertex 17.75 17.5 21
      vertex 18.75 -17.5 21
    endloop
  endfacet
  facet normal 0 0 1
    outer loop
      vertex 17.7185 18.0013 21
      vertex 18.7106 18.1267 21
      vertex 18.5929 18.7435 21
    endloop
  endfacet
  facet normal 0 0 1
    outer loop
      vertex 17.75 -17.5 21
      vertex 18.75 -17.5 21
      vertex 17.75 17.5 21
    endloop
  endfacet
  facet normal 0 0 1
    outer loop
      vertex 17.6243 18.4948 21
      vertex 18.5929 18.7435 21
      vertex 18.3989 19.3406 21
    endloop
  endfacet
  facet normal 0 0 1
    outer loop
      vertex 18.75 -17.5 21
      vertex 17.75 -17.5 21
      vertex 18.7106 -18.1267 21
    endloop
  endfacet
  facet normal 0 0 1
    outer loop
      vertex 17.4691 18.9725 21
      vertex 18.3989 19.3406 21
      vertex 18.1315 19.9088 21
    endloop
  endfacet
  facet normal -0 0 1
    outer loop
      vertex 17.7185 -18.0013 21
      vertex 18.7106 -18.1267 21
      vertex 17.75 -17.5 21
    endloop
  endfacet
  facet normal 0 0 1
    outer loop
      vertex 17.2552 19.427 21
      vertex 18.1315 19.9088 21
      vertex 17.7951 20.4389 21
    endloop
  endfacet
  facet normal 0 0 1
    outer loop
      vertex 18.7106 -18.1267 21
      vertex 17.7185 -18.0013 21
      vertex 18.5929 -18.7435 21
    endloop
  endfacet
  facet normal -0 0 1
    outer loop
      vertex 17.6243 -18.4948 21
      vertex 18.5929 -18.7435 21
      vertex 17.7185 -18.0013 21
    endloop
  endfacet
  facet normal 0 0 1
    outer loop
      vertex 18.7106 18.1267 21
      vertex 17.7185 18.0013 21
      vertex 17.75 17.5 21
    endloop
  endfacet
  facet normal 0 0 1
    outer loop
      vertex 18.5929 18.7435 21
      vertex 17.6243 18.4948 21
      vertex 17.7185 18.0013 21
    endloop
  endfacet
  facet normal 0 0 1
    outer loop
      vertex 18.3989 19.3406 21
      vertex 17.4691 18.9725 21
      vertex 17.6243 18.4948 21
    endloop
  endfacet
  facet normal 0 0 1
    outer loop
      vertex 16.9861 19.8511 21
      vertex 17.7951 20.4389 21
      vertex 17.3948 20.9227 21
    endloop
  endfacet
  facet normal 0 0 1
    outer loop
      vertex 18.1315 19.9088 21
      vertex 17.2552 19.427 21
      vertex 17.4691 18.9725 21
    endloop
  endfacet
  facet normal 0 0 1
    outer loop
      vertex 17.7951 20.4389 21
      vertex 16.9861 19.8511 21
      vertex 17.2552 19.427 21
    endloop
  endfacet
  facet normal 0 0 1
    outer loop
      vertex 16.6659 20.2382 21
      vertex 17.3948 20.9227 21
      vertex 16.9371 21.3526 21
    endloop
  endfacet
  facet normal 0 0 1
    outer loop
      vertex 17.3948 20.9227 21
      vertex 16.6659 20.2382 21
      vertex 16.9861 19.8511 21
    endloop
  endfacet
  facet normal 0 0 1
    outer loop
      vertex 16.2997 20.5821 21
      vertex 16.9371 21.3526 21
      vertex 16.4291 21.7216 21
    endloop
  endfacet
  facet normal 0 0 1
    outer loop
      vertex 16.9371 21.3526 21
      vertex 16.2997 20.5821 21
      vertex 16.6659 20.2382 21
    endloop
  endfacet
  facet normal 0 0 1
    outer loop
      vertex 16.4291 21.7216 21
      vertex 15.8933 20.8773 21
      vertex 16.2997 20.5821 21
    endloop
  endfacet
  facet normal 0 0 1
    outer loop
      vertex 15.8789 22.0241 21
      vertex 15.8933 20.8773 21
      vertex 16.4291 21.7216 21
    endloop
  endfacet
  facet normal 0 0 1
    outer loop
      vertex 15.8789 22.0241 21
      vertex 15.4531 21.1193 21
      vertex 15.8933 20.8773 21
    endloop
  endfacet
  facet normal 0 0 1
    outer loop
      vertex 15.2951 22.2553 21
      vertex 15.4531 21.1193 21
      vertex 15.8789 22.0241 21
    endloop
  endfacet
  facet normal 0 0 1
    outer loop
      vertex 15.2951 22.2553 21
      vertex 14.9861 21.3042 21
      vertex 15.4531 21.1193 21
    endloop
  endfacet
  facet normal 0 0 1
    outer loop
      vertex 14.6869 22.4114 21
      vertex 14.9861 21.3042 21
      vertex 15.2951 22.2553 21
    endloop
  endfacet
  facet normal 0 0 1
    outer loop
      vertex 14.6869 22.4114 21
      vertex 14.4995 21.4291 21
      vertex 14.9861 21.3042 21
    endloop
  endfacet
  facet normal 0 0 1
    outer loop
      vertex 14.064 22.4901 21
      vertex 14.4995 21.4291 21
      vertex 14.6869 22.4114 21
    endloop
  endfacet
  facet normal 0 0 1
    outer loop
      vertex 14.064 22.4901 21
      vertex 14.0012 21.4921 21
      vertex 14.4995 21.4291 21
    endloop
  endfacet
  facet normal 0 0 1
    outer loop
      vertex 14.064 22.4901 21
      vertex -14.0012 21.4921 21
      vertex 14.0012 21.4921 21
    endloop
  endfacet
  facet normal -0 0 1
    outer loop
      vertex -14.064 22.4901 21
      vertex -14.0012 21.4921 21
      vertex 14.064 22.4901 21
    endloop
  endfacet
  facet normal 0 0 1
    outer loop
      vertex -14.064 22.4901 21
      vertex -14.4995 21.4291 21
      vertex -14.0012 21.4921 21
    endloop
  endfacet
  facet normal -0 0 1
    outer loop
      vertex -14.6869 22.4114 21
      vertex -14.4995 21.4291 21
      vertex -14.064 22.4901 21
    endloop
  endfacet
  facet normal 0 0 1
    outer loop
      vertex -14.6869 22.4114 21
      vertex -14.9861 21.3042 21
      vertex -14.4995 21.4291 21
    endloop
  endfacet
  facet normal -0 0 1
    outer loop
      vertex -15.2951 22.2553 21
      vertex -14.9861 21.3042 21
      vertex -14.6869 22.4114 21
    endloop
  endfacet
  facet normal 0 0 1
    outer loop
      vertex -15.2951 22.2553 21
      vertex -15.4531 21.1193 21
      vertex -14.9861 21.3042 21
    endloop
  endfacet
  facet normal -0 0 1
    outer loop
      vertex -15.8789 22.0241 21
      vertex -15.4531 21.1193 21
      vertex -15.2951 22.2553 21
    endloop
  endfacet
  facet normal 0 0 1
    outer loop
      vertex -15.8789 22.0241 21
      vertex -15.8933 20.8773 21
      vertex -15.4531 21.1193 21
    endloop
  endfacet
  facet normal -0 0 1
    outer loop
      vertex -16.4291 21.7216 21
      vertex -15.8933 20.8773 21
      vertex -15.8789 22.0241 21
    endloop
  endfacet
  facet normal 0 0 1
    outer loop
      vertex -15.8933 20.8773 21
      vertex -16.4291 21.7216 21
      vertex -16.2997 20.5821 21
    endloop
  endfacet
  facet normal -0 0 1
    outer loop
      vertex -16.9371 21.3526 21
      vertex -16.2997 20.5821 21
      vertex -16.4291 21.7216 21
    endloop
  endfacet
  facet normal 0 0 1
    outer loop
      vertex -16.2997 20.5821 21
      vertex -16.9371 21.3526 21
      vertex -16.6659 20.2382 21
    endloop
  endfacet
  facet normal -0 0 1
    outer loop
      vertex -17.3948 20.9227 21
      vertex -16.6659 20.2382 21
      vertex -16.9371 21.3526 21
    endloop
  endfacet
  facet normal 0 0 1
    outer loop
      vertex -16.6659 20.2382 21
      vertex -17.3948 20.9227 21
      vertex -16.9861 19.8511 21
    endloop
  endfacet
  facet normal -0 0 1
    outer loop
      vertex -17.7951 20.4389 21
      vertex -16.9861 19.8511 21
      vertex -17.3948 20.9227 21
    endloop
  endfacet
  facet normal 0 0 1
    outer loop
      vertex -16.9861 19.8511 21
      vertex -17.7951 20.4389 21
      vertex -17.2552 19.427 21
    endloop
  endfacet
  facet normal -0 0 1
    outer loop
      vertex -18.1315 19.9088 21
      vertex -17.2552 19.427 21
      vertex -17.7951 20.4389 21
    endloop
  endfacet
  facet normal 0 0 1
    outer loop
      vertex -17.2552 19.427 21
      vertex -18.1315 19.9088 21
      vertex -17.4691 18.9725 21
    endloop
  endfacet
  facet normal -0 0 1
    outer loop
      vertex -18.5929 18.7435 21
      vertex -17.6243 18.4948 21
      vertex -18.3989 19.3406 21
    endloop
  endfacet
  facet normal 0 0 1
    outer loop
      vertex -17.4691 18.9725 21
      vertex -18.3989 19.3406 21
      vertex -17.6243 18.4948 21
    endloop
  endfacet
  facet normal -0 0 1
    outer loop
      vertex -18.3989 19.3406 21
      vertex -17.4691 18.9725 21
      vertex -18.1315 19.9088 21
    endloop
  endfacet
  facet normal 0 0 1
    outer loop
      vertex 18.5929 -18.7435 21
      vertex 17.6243 -18.4948 21
      vertex 18.3989 -19.3406 21
    endloop
  endfacet
  facet normal -0 0 1
    outer loop
      vertex 17.4691 -18.9725 21
      vertex 18.3989 -19.3406 21
      vertex 17.6243 -18.4948 21
    endloop
  endfacet
  facet normal 0 0 1
    outer loop
      vertex 18.3989 -19.3406 21
      vertex 17.4691 -18.9725 21
      vertex 18.1315 -19.9088 21
    endloop
  endfacet
  facet normal -0 0 1
    outer loop
      vertex 17.2552 -19.427 21
      vertex 18.1315 -19.9088 21
      vertex 17.4691 -18.9725 21
    endloop
  endfacet
  facet normal 0 0 1
    outer loop
      vertex 18.1315 -19.9088 21
      vertex 17.2552 -19.427 21
      vertex 17.7951 -20.4389 21
    endloop
  endfacet
  facet normal -0 0 1
    outer loop
      vertex 16.9861 -19.8511 21
      vertex 17.7951 -20.4389 21
      vertex 17.2552 -19.427 21
    endloop
  endfacet
  facet normal 0 0 1
    outer loop
      vertex 17.7951 -20.4389 21
      vertex 16.9861 -19.8511 21
      vertex 17.3948 -20.9227 21
    endloop
  endfacet
  facet normal -0 0 1
    outer loop
      vertex 16.6659 -20.2382 21
      vertex 17.3948 -20.9227 21
      vertex 16.9861 -19.8511 21
    endloop
  endfacet
  facet normal 0 0 1
    outer loop
      vertex 17.3948 -20.9227 21
      vertex 16.6659 -20.2382 21
      vertex 16.9371 -21.3526 21
    endloop
  endfacet
  facet normal -0 0 1
    outer loop
      vertex 16.2997 -20.5821 21
      vertex 16.9371 -21.3526 21
      vertex 16.6659 -20.2382 21
    endloop
  endfacet
  facet normal 0 0 1
    outer loop
      vertex 16.9371 -21.3526 21
      vertex 16.2997 -20.5821 21
      vertex 16.4291 -21.7216 21
    endloop
  endfacet
  facet normal -0 0 1
    outer loop
      vertex 15.8933 -20.8773 21
      vertex 16.4291 -21.7216 21
      vertex 16.2997 -20.5821 21
    endloop
  endfacet
  facet normal 0 0 1
    outer loop
      vertex 15.8933 -20.8773 21
      vertex 15.8789 -22.0241 21
      vertex 16.4291 -21.7216 21
    endloop
  endfacet
  facet normal -0 0 1
    outer loop
      vertex 15.4531 -21.1193 21
      vertex 15.8789 -22.0241 21
      vertex 15.8933 -20.8773 21
    endloop
  endfacet
  facet normal 0 0 1
    outer loop
      vertex 15.4531 -21.1193 21
      vertex 15.2951 -22.2553 21
      vertex 15.8789 -22.0241 21
    endloop
  endfacet
  facet normal -0 0 1
    outer loop
      vertex 14.9861 -21.3042 21
      vertex 15.2951 -22.2553 21
      vertex 15.4531 -21.1193 21
    endloop
  endfacet
  facet normal 0 0 1
    outer loop
      vertex 14.9861 -21.3042 21
      vertex 14.6869 -22.4114 21
      vertex 15.2951 -22.2553 21
    endloop
  endfacet
  facet normal -0 0 1
    outer loop
      vertex 14.4995 -21.4291 21
      vertex 14.6869 -22.4114 21
      vertex 14.9861 -21.3042 21
    endloop
  endfacet
  facet normal 0 0 1
    outer loop
      vertex 14.4995 -21.4291 21
      vertex 14.064 -22.4901 21
      vertex 14.6869 -22.4114 21
    endloop
  endfacet
  facet normal -0 0 1
    outer loop
      vertex 14.0012 -21.4921 21
      vertex 14.064 -22.4901 21
      vertex 14.4995 -21.4291 21
    endloop
  endfacet
  facet normal -0 0 1
    outer loop
      vertex -14.0012 -21.4921 21
      vertex 14.064 -22.4901 21
      vertex 14.0012 -21.4921 21
    endloop
  endfacet
  facet normal 0 0 1
    outer loop
      vertex -14.0012 -21.4921 21
      vertex -14.064 -22.4901 21
      vertex 14.064 -22.4901 21
    endloop
  endfacet
  facet normal 0 0 1
    outer loop
      vertex -14.4995 -21.4291 21
      vertex -14.064 -22.4901 21
      vertex -14.0012 -21.4921 21
    endloop
  endfacet
  facet normal 0 0 1
    outer loop
      vertex -14.4995 -21.4291 21
      vertex -14.6869 -22.4114 21
      vertex -14.064 -22.4901 21
    endloop
  endfacet
  facet normal 0 0 1
    outer loop
      vertex -14.9861 -21.3042 21
      vertex -14.6869 -22.4114 21
      vertex -14.4995 -21.4291 21
    endloop
  endfacet
  facet normal 0 0 1
    outer loop
      vertex -14.9861 -21.3042 21
      vertex -15.2951 -22.2553 21
      vertex -14.6869 -22.4114 21
    endloop
  endfacet
  facet normal 0 0 1
    outer loop
      vertex -15.4531 -21.1193 21
      vertex -15.2951 -22.2553 21
      vertex -14.9861 -21.3042 21
    endloop
  endfacet
  facet normal 0 0 1
    outer loop
      vertex -15.4531 -21.1193 21
      vertex -15.8789 -22.0241 21
      vertex -15.2951 -22.2553 21
    endloop
  endfacet
  facet normal 0 0 1
    outer loop
      vertex -15.8933 -20.8773 21
      vertex -15.8789 -22.0241 21
      vertex -15.4531 -21.1193 21
    endloop
  endfacet
  facet normal 0 0 1
    outer loop
      vertex -16.4291 -21.7216 21
      vertex -15.8933 -20.8773 21
      vertex -16.2997 -20.5821 21
    endloop
  endfacet
  facet normal 0 0 1
    outer loop
      vertex -15.8933 -20.8773 21
      vertex -16.4291 -21.7216 21
      vertex -15.8789 -22.0241 21
    endloop
  endfacet
  facet normal 0 0 1
    outer loop
      vertex -16.9371 -21.3526 21
      vertex -16.2997 -20.5821 21
      vertex -16.6659 -20.2382 21
    endloop
  endfacet
  facet normal 0 0 1
    outer loop
      vertex -16.2997 -20.5821 21
      vertex -16.9371 -21.3526 21
      vertex -16.4291 -21.7216 21
    endloop
  endfacet
  facet normal 0 0 1
    outer loop
      vertex -17.3948 -20.9227 21
      vertex -16.6659 -20.2382 21
      vertex -16.9861 -19.8511 21
    endloop
  endfacet
  facet normal 0 0 1
    outer loop
      vertex -17.7951 -20.4389 21
      vertex -16.9861 -19.8511 21
      vertex -17.2552 -19.427 21
    endloop
  endfacet
  facet normal 0 0 1
    outer loop
      vertex -16.6659 -20.2382 21
      vertex -17.3948 -20.9227 21
      vertex -16.9371 -21.3526 21
    endloop
  endfacet
  facet normal 0 0 1
    outer loop
      vertex -18.1315 -19.9088 21
      vertex -17.2552 -19.427 21
      vertex -17.4691 -18.9725 21
    endloop
  endfacet
  facet normal 0 0 1
    outer loop
      vertex -18.3989 -19.3406 21
      vertex -17.4691 -18.9725 21
      vertex -17.6243 -18.4948 21
    endloop
  endfacet
  facet normal 0 0 1
    outer loop
      vertex -18.5929 -18.7435 21
      vertex -17.6243 -18.4948 21
      vertex -17.7185 -18.0013 21
    endloop
  endfacet
  facet normal 0 0 1
    outer loop
      vertex -16.9861 -19.8511 21
      vertex -17.7951 -20.4389 21
      vertex -17.3948 -20.9227 21
    endloop
  endfacet
  facet normal 0 0 1
    outer loop
      vertex -18.7106 -18.1267 21
      vertex -17.7185 -18.0013 21
      vertex -17.75 -17.5 21
    endloop
  endfacet
  facet normal 0 0 1
    outer loop
      vertex -17.75 17.5 21
      vertex -18.75 17.5 21
      vertex -17.75 -17.5 21
    endloop
  endfacet
  facet normal 0 0 1
    outer loop
      vertex -17.6243 18.4948 21
      vertex -18.5929 18.7435 21
      vertex -17.7185 18.0013 21
    endloop
  endfacet
  facet normal 0 0 1
    outer loop
      vertex -18.75 -17.5 21
      vertex -17.75 -17.5 21
      vertex -18.75 17.5 21
    endloop
  endfacet
  facet normal -0 0 1
    outer loop
      vertex -18.7106 18.1267 21
      vertex -17.7185 18.0013 21
      vertex -18.5929 18.7435 21
    endloop
  endfacet
  facet normal 0 -0 1
    outer loop
      vertex -18.7106 -18.1267 21
      vertex -17.75 -17.5 21
      vertex -18.75 -17.5 21
    endloop
  endfacet
  facet normal 0 0 1
    outer loop
      vertex -17.7185 18.0013 21
      vertex -18.7106 18.1267 21
      vertex -17.75 17.5 21
    endloop
  endfacet
  facet normal 0 0 1
    outer loop
      vertex -17.2552 -19.427 21
      vertex -18.1315 -19.9088 21
      vertex -17.7951 -20.4389 21
    endloop
  endfacet
  facet normal 0 0 1
    outer loop
      vertex -17.75 17.5 21
      vertex -18.7106 18.1267 21
      vertex -18.75 17.5 21
    endloop
  endfacet
  facet normal 0 0 1
    outer loop
      vertex -17.4691 -18.9725 21
      vertex -18.3989 -19.3406 21
      vertex -18.1315 -19.9088 21
    endloop
  endfacet
  facet normal 0 0 1
    outer loop
      vertex -17.6243 -18.4948 21
      vertex -18.5929 -18.7435 21
      vertex -18.3989 -19.3406 21
    endloop
  endfacet
  facet normal 0 0 1
    outer loop
      vertex -17.7185 -18.0013 21
      vertex -18.7106 -18.1267 21
      vertex -18.5929 -18.7435 21
    endloop
  endfacet
  facet normal -0.904811 -0.425812 0
    outer loop
      vertex -18.1315 -19.9088 0
      vertex -18.3989 -19.3406 21
      vertex -18.3989 -19.3406 0
    endloop
  endfacet
  facet normal -0.904811 -0.425812 0
    outer loop
      vertex -18.3989 -19.3406 21
      vertex -18.1315 -19.9088 0
      vertex -18.1315 -19.9088 21
    endloop
  endfacet
  facet normal 0 1 -0
    outer loop
      vertex 14.064 22.4901 0
      vertex -14.064 22.4901 21
      vertex 14.064 22.4901 21
    endloop
  endfacet
  facet normal 0 1 0
    outer loop
      vertex -14.064 22.4901 21
      vertex 14.064 22.4901 0
      vertex -14.064 22.4901 0
    endloop
  endfacet
  facet normal -0.368203 0.929745 0
    outer loop
      vertex -15.2951 22.2553 0
      vertex -15.8789 22.0241 21
      vertex -15.2951 22.2553 21
    endloop
  endfacet
  facet normal -0.368203 0.929745 0
    outer loop
      vertex -15.8789 22.0241 21
      vertex -15.2951 22.2553 0
      vertex -15.8789 22.0241 0
    endloop
  endfacet
  facet normal 0.99803 0.0627451 0
    outer loop
      vertex 18.75 17.5 21
      vertex 18.7106 18.1267 0
      vertex 18.7106 18.1267 21
    endloop
  endfacet
  facet normal 0.99803 0.0627451 0
    outer loop
      vertex 18.7106 18.1267 0
      vertex 18.75 17.5 21
      vertex 18.75 17.5 0
    endloop
  endfacet
  facet normal 0 -1 0
    outer loop
      vertex -14.064 -22.4901 0
      vertex 14.064 -22.4901 21
      vertex -14.064 -22.4901 21
    endloop
  endfacet
  facet normal 0 -1 -0
    outer loop
      vertex 14.064 -22.4901 21
      vertex -14.064 -22.4901 0
      vertex 14.064 -22.4901 0
    endloop
  endfacet
  facet normal 0.982276 -0.187441 0
    outer loop
      vertex 18.5929 -18.7435 21
      vertex 18.7106 -18.1267 0
      vertex 18.7106 -18.1267 21
    endloop
  endfacet
  facet normal 0.982276 -0.187441 0
    outer loop
      vertex 18.7106 -18.1267 0
      vertex 18.5929 -18.7435 21
      vertex 18.5929 -18.7435 0
    endloop
  endfacet
  facet normal 1 -0 0
    outer loop
      vertex 18.75 -17.5 21
      vertex 18.75 17.5 0
      vertex 18.75 17.5 21
    endloop
  endfacet
  facet normal 1 0 0
    outer loop
      vertex 18.75 17.5 0
      vertex 18.75 -17.5 21
      vertex 18.75 -17.5 0
    endloop
  endfacet
  facet normal -0.951061 0.309003 0
    outer loop
      vertex -18.5929 18.7435 0
      vertex -18.3989 19.3406 21
      vertex -18.3989 19.3406 0
    endloop
  endfacet
  facet normal -0.951061 0.309003 0
    outer loop
      vertex -18.3989 19.3406 21
      vertex -18.5929 18.7435 0
      vertex -18.5929 18.7435 21
    endloop
  endfacet
  facet normal -0.684624 0.728896 0
    outer loop
      vertex -16.9371 21.3526 0
      vertex -17.3948 20.9227 21
      vertex -16.9371 21.3526 21
    endloop
  endfacet
  facet normal -0.684624 0.728896 0
    outer loop
      vertex -17.3948 20.9227 21
      vertex -16.9371 21.3526 0
      vertex -17.3948 20.9227 0
    endloop
  endfacet
  facet normal 0.982276 0.187441 0
    outer loop
      vertex 18.7106 18.1267 21
      vertex 18.5929 18.7435 0
      vertex 18.5929 18.7435 21
    endloop
  endfacet
  facet normal 0.982276 0.187441 0
    outer loop
      vertex 18.5929 18.7435 0
      vertex 18.7106 18.1267 21
      vertex 18.7106 18.1267 0
    endloop
  endfacet
  facet normal -0.982276 0.187441 0
    outer loop
      vertex -18.7106 18.1267 0
      vertex -18.5929 18.7435 21
      vertex -18.5929 18.7435 0
    endloop
  endfacet
  facet normal -0.982276 0.187441 0
    outer loop
      vertex -18.5929 18.7435 21
      vertex -18.7106 18.1267 0
      vertex -18.7106 18.1267 21
    endloop
  endfacet
  facet normal -0.587698 0.80908 0
    outer loop
      vertex -16.4291 21.7216 0
      vertex -16.9371 21.3526 21
      vertex -16.4291 21.7216 21
    endloop
  endfacet
  facet normal -0.587698 0.80908 0
    outer loop
      vertex -16.9371 21.3526 21
      vertex -16.4291 21.7216 0
      vertex -16.9371 21.3526 0
    endloop
  endfacet
  facet normal -0.481784 0.87629 0
    outer loop
      vertex -15.8789 22.0241 0
      vertex -16.4291 21.7216 21
      vertex -15.8789 22.0241 21
    endloop
  endfacet
  facet normal -0.481784 0.87629 0
    outer loop
      vertex -16.4291 21.7216 21
      vertex -15.8789 22.0241 0
      vertex -16.4291 21.7216 0
    endloop
  endfacet
  facet normal 0.951061 0.309003 0
    outer loop
      vertex 18.5929 18.7435 21
      vertex 18.3989 19.3406 0
      vertex 18.3989 19.3406 21
    endloop
  endfacet
  facet normal 0.951061 0.309003 0
    outer loop
      vertex 18.3989 19.3406 0
      vertex 18.5929 18.7435 21
      vertex 18.5929 18.7435 0
    endloop
  endfacet
  facet normal -0.951061 -0.309003 0
    outer loop
      vertex -18.3989 -19.3406 0
      vertex -18.5929 -18.7435 21
      vertex -18.5929 -18.7435 0
    endloop
  endfacet
  facet normal -0.951061 -0.309003 0
    outer loop
      vertex -18.5929 -18.7435 21
      vertex -18.3989 -19.3406 0
      vertex -18.3989 -19.3406 21
    endloop
  endfacet
  facet normal 0.770462 -0.637486 0
    outer loop
      vertex 17.3948 -20.9227 21
      vertex 17.7951 -20.4389 0
      vertex 17.7951 -20.4389 21
    endloop
  endfacet
  facet normal 0.770462 -0.637486 0
    outer loop
      vertex 17.7951 -20.4389 0
      vertex 17.3948 -20.9227 21
      vertex 17.3948 -20.9227 0
    endloop
  endfacet
  facet normal 0.951061 -0.309003 0
    outer loop
      vertex 18.3989 -19.3406 21
      vertex 18.5929 -18.7435 0
      vertex 18.5929 -18.7435 21
    endloop
  endfacet
  facet normal 0.951061 -0.309003 0
    outer loop
      vertex 18.5929 -18.7435 0
      vertex 18.3989 -19.3406 21
      vertex 18.3989 -19.3406 0
    endloop
  endfacet
  facet normal -0.770462 0.637486 0
    outer loop
      vertex -17.7951 20.4389 0
      vertex -17.3948 20.9227 21
      vertex -17.3948 20.9227 0
    endloop
  endfacet
  facet normal -0.770462 0.637486 0
    outer loop
      vertex -17.3948 20.9227 21
      vertex -17.7951 20.4389 0
      vertex -17.7951 20.4389 21
    endloop
  endfacet
  facet normal -0.248601 0.968606 0
    outer loop
      vertex -14.6869 22.4114 0
      vertex -15.2951 22.2553 21
      vertex -14.6869 22.4114 21
    endloop
  endfacet
  facet normal -0.248601 0.968606 0
    outer loop
      vertex -15.2951 22.2553 21
      vertex -14.6869 22.4114 0
      vertex -15.2951 22.2553 0
    endloop
  endfacet
  facet normal -0.125348 0.992113 0
    outer loop
      vertex -14.064 22.4901 0
      vertex -14.6869 22.4114 21
      vertex -14.064 22.4901 21
    endloop
  endfacet
  facet normal -0.125348 0.992113 0
    outer loop
      vertex -14.6869 22.4114 21
      vertex -14.064 22.4901 0
      vertex -14.6869 22.4114 0
    endloop
  endfacet
  facet normal -0.99803 -0.0627451 0
    outer loop
      vertex -18.7106 -18.1267 0
      vertex -18.75 -17.5 21
      vertex -18.75 -17.5 0
    endloop
  endfacet
  facet normal -0.99803 -0.0627451 0
    outer loop
      vertex -18.75 -17.5 21
      vertex -18.7106 -18.1267 0
      vertex -18.7106 -18.1267 21
    endloop
  endfacet
  facet normal 0 0 -1
    outer loop
      vertex 14.064 -22.4901 0
      vertex 18.75 -17.5 0
      vertex 18.7106 -18.1267 0
    endloop
  endfacet
  facet normal 0 0 -1
    outer loop
      vertex 18.75 -17.5 0
      vertex -18.75 -17.5 0
      vertex 18.75 17.5 0
    endloop
  endfacet
  facet normal 0 0 -1
    outer loop
      vertex 14.064 -22.4901 0
      vertex 18.7106 -18.1267 0
      vertex 18.5929 -18.7435 0
    endloop
  endfacet
  facet normal 0 0 -1
    outer loop
      vertex -18.75 17.5 0
      vertex 18.75 17.5 0
      vertex -18.75 -17.5 0
    endloop
  endfacet
  facet normal 0 0 -1
    outer loop
      vertex 14.064 -22.4901 0
      vertex 18.5929 -18.7435 0
      vertex 18.3989 -19.3406 0
    endloop
  endfacet
  facet normal -0 0 -1
    outer loop
      vertex 18.75 -17.5 0
      vertex 14.064 -22.4901 0
      vertex -18.75 -17.5 0
    endloop
  endfacet
  facet normal 0 0 -1
    outer loop
      vertex 14.064 -22.4901 0
      vertex 18.3989 -19.3406 0
      vertex 18.1315 -19.9088 0
    endloop
  endfacet
  facet normal 0 -0 -1
    outer loop
      vertex 14.064 22.4901 0
      vertex 18.75 17.5 0
      vertex -18.75 17.5 0
    endloop
  endfacet
  facet normal 0 0 -1
    outer loop
      vertex 14.064 -22.4901 0
      vertex 18.1315 -19.9088 0
      vertex 17.7951 -20.4389 0
    endloop
  endfacet
  facet normal 0 0 -1
    outer loop
      vertex 18.5929 18.7435 0
      vertex 14.064 22.4901 0
      vertex 18.3989 19.3406 0
    endloop
  endfacet
  facet normal 0 0 -1
    outer loop
      vertex 14.064 -22.4901 0
      vertex 17.7951 -20.4389 0
      vertex 17.3948 -20.9227 0
    endloop
  endfacet
  facet normal 0 0 -1
    outer loop
      vertex 18.3989 19.3406 0
      vertex 14.064 22.4901 0
      vertex 18.1315 19.9088 0
    endloop
  endfacet
  facet normal 0 0 -1
    outer loop
      vertex 14.064 -22.4901 0
      vertex 17.3948 -20.9227 0
      vertex 16.9371 -21.3526 0
    endloop
  endfacet
  facet normal 0 0 -1
    outer loop
      vertex 18.1315 19.9088 0
      vertex 14.064 22.4901 0
      vertex 17.7951 20.4389 0
    endloop
  endfacet
  facet normal 0 0 -1
    outer loop
      vertex 14.064 -22.4901 0
      vertex 16.9371 -21.3526 0
      vertex 16.4291 -21.7216 0
    endloop
  endfacet
  facet normal 0 0 -1
    outer loop
      vertex 17.7951 20.4389 0
      vertex 14.064 22.4901 0
      vertex 17.3948 20.9227 0
    endloop
  endfacet
  facet normal 0 0 -1
    outer loop
      vertex 14.064 -22.4901 0
      vertex 16.4291 -21.7216 0
      vertex 15.8789 -22.0241 0
    endloop
  endfacet
  facet normal 0 0 -1
    outer loop
      vertex 17.3948 20.9227 0
      vertex 14.064 22.4901 0
      vertex 16.9371 21.3526 0
    endloop
  endfacet
  facet normal 0 0 -1
    outer loop
      vertex 14.064 -22.4901 0
      vertex 15.8789 -22.0241 0
      vertex 15.2951 -22.2553 0
    endloop
  endfacet
  facet normal 0 0 -1
    outer loop
      vertex 16.9371 21.3526 0
      vertex 14.064 22.4901 0
      vertex 16.4291 21.7216 0
    endloop
  endfacet
  facet normal 0 0 -1
    outer loop
      vertex 14.064 -22.4901 0
      vertex 15.2951 -22.2553 0
      vertex 14.6869 -22.4114 0
    endloop
  endfacet
  facet normal 0 0 -1
    outer loop
      vertex 16.4291 21.7216 0
      vertex 14.064 22.4901 0
      vertex 15.8789 22.0241 0
    endloop
  endfacet
  facet normal 0 0 -1
    outer loop
      vertex 15.8789 22.0241 0
      vertex 14.064 22.4901 0
      vertex 15.2951 22.2553 0
    endloop
  endfacet
  facet normal 0 0 -1
    outer loop
      vertex 15.2951 22.2553 0
      vertex 14.064 22.4901 0
      vertex 14.6869 22.4114 0
    endloop
  endfacet
  facet normal 0 0 -1
    outer loop
      vertex -18.75 -17.5 0
      vertex 14.064 -22.4901 0
      vertex -14.064 -22.4901 0
    endloop
  endfacet
  facet normal 0 0 -1
    outer loop
      vertex 18.75 17.5 0
      vertex 14.064 22.4901 0
      vertex 18.7106 18.1267 0
    endloop
  endfacet
  facet normal 0 0 -1
    outer loop
      vertex -18.75 -17.5 0
      vertex -14.064 -22.4901 0
      vertex -14.6869 -22.4114 0
    endloop
  endfacet
  facet normal 0 0 -1
    outer loop
      vertex 18.7106 18.1267 0
      vertex 14.064 22.4901 0
      vertex 18.5929 18.7435 0
    endloop
  endfacet
  facet normal 0 0 -1
    outer loop
      vertex -18.75 -17.5 0
      vertex -14.6869 -22.4114 0
      vertex -15.2951 -22.2553 0
    endloop
  endfacet
  facet normal -0 0 -1
    outer loop
      vertex 14.064 22.4901 0
      vertex -18.75 17.5 0
      vertex -14.064 22.4901 0
    endloop
  endfacet
  facet normal 0 0 -1
    outer loop
      vertex -18.75 -17.5 0
      vertex -15.2951 -22.2553 0
      vertex -15.8789 -22.0241 0
    endloop
  endfacet
  facet normal 0 0 -1
    outer loop
      vertex -14.064 22.4901 0
      vertex -18.75 17.5 0
      vertex -14.6869 22.4114 0
    endloop
  endfacet
  facet normal 0 0 -1
    outer loop
      vertex -18.75 -17.5 0
      vertex -15.8789 -22.0241 0
      vertex -16.4291 -21.7216 0
    endloop
  endfacet
  facet normal 0 0 -1
    outer loop
      vertex -14.6869 22.4114 0
      vertex -18.75 17.5 0
      vertex -15.2951 22.2553 0
    endloop
  endfacet
  facet normal 0 0 -1
    outer loop
      vertex -18.75 -17.5 0
      vertex -16.4291 -21.7216 0
      vertex -16.9371 -21.3526 0
    endloop
  endfacet
  facet normal 0 0 -1
    outer loop
      vertex -15.2951 22.2553 0
      vertex -18.75 17.5 0
      vertex -15.8789 22.0241 0
    endloop
  endfacet
  facet normal 0 0 -1
    outer loop
      vertex -18.75 -17.5 0
      vertex -16.9371 -21.3526 0
      vertex -17.3948 -20.9227 0
    endloop
  endfacet
  facet normal 0 0 -1
    outer loop
      vertex -15.8789 22.0241 0
      vertex -18.75 17.5 0
      vertex -16.4291 21.7216 0
    endloop
  endfacet
  facet normal 0 0 -1
    outer loop
      vertex -18.75 -17.5 0
      vertex -17.3948 -20.9227 0
      vertex -17.7951 -20.4389 0
    endloop
  endfacet
  facet normal 0 0 -1
    outer loop
      vertex -16.4291 21.7216 0
      vertex -18.75 17.5 0
      vertex -16.9371 21.3526 0
    endloop
  endfacet
  facet normal 0 0 -1
    outer loop
      vertex -18.75 -17.5 0
      vertex -17.7951 -20.4389 0
      vertex -18.1315 -19.9088 0
    endloop
  endfacet
  facet normal 0 0 -1
    outer loop
      vertex -16.9371 21.3526 0
      vertex -18.75 17.5 0
      vertex -17.3948 20.9227 0
    endloop
  endfacet
  facet normal 0 0 -1
    outer loop
      vertex -18.75 -17.5 0
      vertex -18.1315 -19.9088 0
      vertex -18.3989 -19.3406 0
    endloop
  endfacet
  facet normal 0 0 -1
    outer loop
      vertex -17.3948 20.9227 0
      vertex -18.75 17.5 0
      vertex -17.7951 20.4389 0
    endloop
  endfacet
  facet normal 0 0 -1
    outer loop
      vertex -18.75 -17.5 0
      vertex -18.3989 -19.3406 0
      vertex -18.5929 -18.7435 0
    endloop
  endfacet
  facet normal 0 0 -1
    outer loop
      vertex -17.7951 20.4389 0
      vertex -18.75 17.5 0
      vertex -18.1315 19.9088 0
    endloop
  endfacet
  facet normal 0 0 -1
    outer loop
      vertex -18.75 -17.5 0
      vertex -18.5929 -18.7435 0
      vertex -18.7106 -18.1267 0
    endloop
  endfacet
  facet normal 0 0 -1
    outer loop
      vertex -18.1315 19.9088 0
      vertex -18.75 17.5 0
      vertex -18.3989 19.3406 0
    endloop
  endfacet
  facet normal 0 0 -1
    outer loop
      vertex -18.3989 19.3406 0
      vertex -18.75 17.5 0
      vertex -18.5929 18.7435 0
    endloop
  endfacet
  facet normal 0 0 -1
    outer loop
      vertex -18.5929 18.7435 0
      vertex -18.75 17.5 0
      vertex -18.7106 18.1267 0
    endloop
  endfacet
  facet normal -0.982276 -0.187441 0
    outer loop
      vertex -18.5929 -18.7435 0
      vertex -18.7106 -18.1267 21
      vertex -18.7106 -18.1267 0
    endloop
  endfacet
  facet normal -0.982276 -0.187441 0
    outer loop
      vertex -18.7106 -18.1267 21
      vertex -18.5929 -18.7435 0
      vertex -18.5929 -18.7435 21
    endloop
  endfacet
  facet normal -0.770462 -0.637486 0
    outer loop
      vertex -17.3948 -20.9227 0
      vertex -17.7951 -20.4389 21
      vertex -17.7951 -20.4389 0
    endloop
  endfacet
  facet normal -0.770462 -0.637486 0
    outer loop
      vertex -17.7951 -20.4389 21
      vertex -17.3948 -20.9227 0
      vertex -17.3948 -20.9227 21
    endloop
  endfacet
  facet normal -0.684624 -0.728896 0
    outer loop
      vertex -17.3948 -20.9227 0
      vertex -16.9371 -21.3526 21
      vertex -17.3948 -20.9227 21
    endloop
  endfacet
  facet normal -0.684624 -0.728896 -0
    outer loop
      vertex -16.9371 -21.3526 21
      vertex -17.3948 -20.9227 0
      vertex -16.9371 -21.3526 0
    endloop
  endfacet
  facet normal -0.368203 -0.929745 0
    outer loop
      vertex -15.8789 -22.0241 0
      vertex -15.2951 -22.2553 21
      vertex -15.8789 -22.0241 21
    endloop
  endfacet
  facet normal -0.368203 -0.929745 -0
    outer loop
      vertex -15.2951 -22.2553 21
      vertex -15.8789 -22.0241 0
      vertex -15.2951 -22.2553 0
    endloop
  endfacet
  facet normal 0.481784 -0.87629 0
    outer loop
      vertex 15.8789 -22.0241 0
      vertex 16.4291 -21.7216 21
      vertex 15.8789 -22.0241 21
    endloop
  endfacet
  facet normal 0.481784 -0.87629 0
    outer loop
      vertex 16.4291 -21.7216 21
      vertex 15.8789 -22.0241 0
      vertex 16.4291 -21.7216 0
    endloop
  endfacet
  facet normal 0.125348 -0.992113 0
    outer loop
      vertex 14.064 -22.4901 0
      vertex 14.6869 -22.4114 21
      vertex 14.064 -22.4901 21
    endloop
  endfacet
  facet normal 0.125348 -0.992113 0
    outer loop
      vertex 14.6869 -22.4114 21
      vertex 14.064 -22.4901 0
      vertex 14.6869 -22.4114 0
    endloop
  endfacet
  facet normal 0.99803 -0.0627451 0
    outer loop
      vertex 18.7106 -18.1267 21
      vertex 18.75 -17.5 0
      vertex 18.75 -17.5 21
    endloop
  endfacet
  facet normal 0.99803 -0.0627451 0
    outer loop
      vertex 18.75 -17.5 0
      vertex 18.7106 -18.1267 21
      vertex 18.7106 -18.1267 0
    endloop
  endfacet
  facet normal 0.844336 -0.535814 0
    outer loop
      vertex 17.7951 -20.4389 21
      vertex 18.1315 -19.9088 0
      vertex 18.1315 -19.9088 21
    endloop
  endfacet
  facet normal 0.844336 -0.535814 0
    outer loop
      vertex 18.1315 -19.9088 0
      vertex 17.7951 -20.4389 21
      vertex 17.7951 -20.4389 0
    endloop
  endfacet
  facet normal 0.904811 -0.425812 0
    outer loop
      vertex 18.1315 -19.9088 21
      vertex 18.3989 -19.3406 0
      vertex 18.3989 -19.3406 21
    endloop
  endfacet
  facet normal 0.904811 -0.425812 0
    outer loop
      vertex 18.3989 -19.3406 0
      vertex 18.1315 -19.9088 21
      vertex 18.1315 -19.9088 0
    endloop
  endfacet
  facet normal -0.904811 0.425812 0
    outer loop
      vertex -18.3989 19.3406 0
      vertex -18.1315 19.9088 21
      vertex -18.1315 19.9088 0
    endloop
  endfacet
  facet normal -0.904811 0.425812 0
    outer loop
      vertex -18.1315 19.9088 21
      vertex -18.3989 19.3406 0
      vertex -18.3989 19.3406 21
    endloop
  endfacet
  facet normal -0.844336 0.535814 0
    outer loop
      vertex -18.1315 19.9088 0
      vertex -17.7951 20.4389 21
      vertex -17.7951 20.4389 0
    endloop
  endfacet
  facet normal -0.844336 0.535814 0
    outer loop
      vertex -17.7951 20.4389 21
      vertex -18.1315 19.9088 0
      vertex -18.1315 19.9088 21
    endloop
  endfacet
  facet normal 0.684624 0.728896 -0
    outer loop
      vertex 17.3948 20.9227 0
      vertex 16.9371 21.3526 21
      vertex 17.3948 20.9227 21
    endloop
  endfacet
  facet normal 0.684624 0.728896 0
    outer loop
      vertex 16.9371 21.3526 21
      vertex 17.3948 20.9227 0
      vertex 16.9371 21.3526 0
    endloop
  endfacet
  facet normal 0.770462 0.637486 0
    outer loop
      vertex 17.7951 20.4389 21
      vertex 17.3948 20.9227 0
      vertex 17.3948 20.9227 21
    endloop
  endfacet
  facet normal 0.770462 0.637486 0
    outer loop
      vertex 17.3948 20.9227 0
      vertex 17.7951 20.4389 21
      vertex 17.7951 20.4389 0
    endloop
  endfacet
  facet normal 0.844336 0.535814 0
    outer loop
      vertex 18.1315 19.9088 21
      vertex 17.7951 20.4389 0
      vertex 17.7951 20.4389 21
    endloop
  endfacet
  facet normal 0.844336 0.535814 0
    outer loop
      vertex 17.7951 20.4389 0
      vertex 18.1315 19.9088 21
      vertex 18.1315 19.9088 0
    endloop
  endfacet
  facet normal 0.904811 0.425812 0
    outer loop
      vertex 18.3989 19.3406 21
      vertex 18.1315 19.9088 0
      vertex 18.1315 19.9088 21
    endloop
  endfacet
  facet normal 0.904811 0.425812 0
    outer loop
      vertex 18.1315 19.9088 0
      vertex 18.3989 19.3406 21
      vertex 18.3989 19.3406 0
    endloop
  endfacet
  facet normal 0.587698 0.80908 -0
    outer loop
      vertex 16.9371 21.3526 0
      vertex 16.4291 21.7216 21
      vertex 16.9371 21.3526 21
    endloop
  endfacet
  facet normal 0.587698 0.80908 0
    outer loop
      vertex 16.4291 21.7216 21
      vertex 16.9371 21.3526 0
      vertex 16.4291 21.7216 0
    endloop
  endfacet
  facet normal 0.368203 0.929745 -0
    outer loop
      vertex 15.8789 22.0241 0
      vertex 15.2951 22.2553 21
      vertex 15.8789 22.0241 21
    endloop
  endfacet
  facet normal 0.368203 0.929745 0
    outer loop
      vertex 15.2951 22.2553 21
      vertex 15.8789 22.0241 0
      vertex 15.2951 22.2553 0
    endloop
  endfacet
  facet normal 0.125348 0.992113 -0
    outer loop
      vertex 14.6869 22.4114 0
      vertex 14.064 22.4901 21
      vertex 14.6869 22.4114 21
    endloop
  endfacet
  facet normal 0.125348 0.992113 0
    outer loop
      vertex 14.064 22.4901 21
      vertex 14.6869 22.4114 0
      vertex 14.064 22.4901 0
    endloop
  endfacet
  facet normal -0.844336 -0.535814 0
    outer loop
      vertex -17.7951 -20.4389 0
      vertex -18.1315 -19.9088 21
      vertex -18.1315 -19.9088 0
    endloop
  endfacet
  facet normal -0.844336 -0.535814 0
    outer loop
      vertex -18.1315 -19.9088 21
      vertex -17.7951 -20.4389 0
      vertex -17.7951 -20.4389 21
    endloop
  endfacet
  facet normal -0.125348 -0.992113 0
    outer loop
      vertex -14.6869 -22.4114 0
      vertex -14.064 -22.4901 21
      vertex -14.6869 -22.4114 21
    endloop
  endfacet
  facet normal -0.125348 -0.992113 -0
    outer loop
      vertex -14.064 -22.4901 21
      vertex -14.6869 -22.4114 0
      vertex -14.064 -22.4901 0
    endloop
  endfacet
  facet normal -0.481784 -0.87629 0
    outer loop
      vertex -16.4291 -21.7216 0
      vertex -15.8789 -22.0241 21
      vertex -16.4291 -21.7216 21
    endloop
  endfacet
  facet normal -0.481784 -0.87629 -0
    outer loop
      vertex -15.8789 -22.0241 21
      vertex -16.4291 -21.7216 0
      vertex -15.8789 -22.0241 0
    endloop
  endfacet
  facet normal -0.587698 -0.80908 0
    outer loop
      vertex -16.9371 -21.3526 0
      vertex -16.4291 -21.7216 21
      vertex -16.9371 -21.3526 21
    endloop
  endfacet
  facet normal -0.587698 -0.80908 -0
    outer loop
      vertex -16.4291 -21.7216 21
      vertex -16.9371 -21.3526 0
      vertex -16.4291 -21.7216 0
    endloop
  endfacet
  facet normal -0.248601 -0.968606 0
    outer loop
      vertex -15.2951 -22.2553 0
      vertex -14.6869 -22.4114 21
      vertex -15.2951 -22.2553 21
    endloop
  endfacet
  facet normal -0.248601 -0.968606 -0
    outer loop
      vertex -14.6869 -22.4114 21
      vertex -15.2951 -22.2553 0
      vertex -14.6869 -22.4114 0
    endloop
  endfacet
  facet normal 0.248601 -0.968606 0
    outer loop
      vertex 14.6869 -22.4114 0
      vertex 15.2951 -22.2553 21
      vertex 14.6869 -22.4114 21
    endloop
  endfacet
  facet normal 0.248601 -0.968606 0
    outer loop
      vertex 15.2951 -22.2553 21
      vertex 14.6869 -22.4114 0
      vertex 15.2951 -22.2553 0
    endloop
  endfacet
  facet normal 0.481784 0.87629 -0
    outer loop
      vertex 16.4291 21.7216 0
      vertex 15.8789 22.0241 21
      vertex 16.4291 21.7216 21
    endloop
  endfacet
  facet normal 0.481784 0.87629 0
    outer loop
      vertex 15.8789 22.0241 21
      vertex 16.4291 21.7216 0
      vertex 15.8789 22.0241 0
    endloop
  endfacet
  facet normal 0.248601 0.968606 -0
    outer loop
      vertex 15.2951 22.2553 0
      vertex 14.6869 22.4114 21
      vertex 15.2951 22.2553 21
    endloop
  endfacet
  facet normal 0.248601 0.968606 0
    outer loop
      vertex 14.6869 22.4114 21
      vertex 15.2951 22.2553 0
      vertex 14.6869 22.4114 0
    endloop
  endfacet
  facet normal 0.368203 -0.929745 0
    outer loop
      vertex 15.2951 -22.2553 0
      vertex 15.8789 -22.0241 21
      vertex 15.2951 -22.2553 21
    endloop
  endfacet
  facet normal 0.368203 -0.929745 0
    outer loop
      vertex 15.8789 -22.0241 21
      vertex 15.2951 -22.2553 0
      vertex 15.8789 -22.0241 0
    endloop
  endfacet
  facet normal 0.684624 -0.728896 0
    outer loop
      vertex 16.9371 -21.3526 0
      vertex 17.3948 -20.9227 21
      vertex 16.9371 -21.3526 21
    endloop
  endfacet
  facet normal 0.684624 -0.728896 0
    outer loop
      vertex 17.3948 -20.9227 21
      vertex 16.9371 -21.3526 0
      vertex 17.3948 -20.9227 0
    endloop
  endfacet
  facet normal 0.587698 -0.80908 0
    outer loop
      vertex 16.4291 -21.7216 0
      vertex 16.9371 -21.3526 21
      vertex 16.4291 -21.7216 21
    endloop
  endfacet
  facet normal 0.587698 -0.80908 0
    outer loop
      vertex 16.9371 -21.3526 21
      vertex 16.4291 -21.7216 0
      vertex 16.9371 -21.3526 0
    endloop
  endfacet
  facet normal 1 -0 0
    outer loop
      vertex -17.75 -17.5 21
      vertex -17.75 17.5 2
      vertex -17.75 17.5 21
    endloop
  endfacet
  facet normal 1 0 0
    outer loop
      vertex -17.75 17.5 2
      vertex -17.75 -17.5 21
      vertex -17.75 -17.5 2
    endloop
  endfacet
  facet normal 0.998032 0.0627129 0
    outer loop
      vertex -17.7185 -18.0013 21
      vertex -17.75 -17.5 2
      vertex -17.75 -17.5 21
    endloop
  endfacet
  facet normal 0.998032 0.0627129 0
    outer loop
      vertex -17.75 -17.5 2
      vertex -17.7185 -18.0013 21
      vertex -17.7185 -18.0013 2
    endloop
  endfacet
  facet normal 0 -1 0
    outer loop
      vertex -14.0012 21.4921 2
      vertex 14.0012 21.4921 21
      vertex -14.0012 21.4921 21
    endloop
  endfacet
  facet normal 0 -1 -0
    outer loop
      vertex 14.0012 21.4921 21
      vertex -14.0012 21.4921 2
      vertex 14.0012 21.4921 2
    endloop
  endfacet
  facet normal 0.998032 -0.0627129 0
    outer loop
      vertex -17.75 17.5 21
      vertex -17.7185 18.0013 2
      vertex -17.7185 18.0013 21
    endloop
  endfacet
  facet normal 0.998032 -0.0627129 0
    outer loop
      vertex -17.7185 18.0013 2
      vertex -17.75 17.5 21
      vertex -17.75 17.5 2
    endloop
  endfacet
  facet normal 0.368127 -0.929775 0
    outer loop
      vertex -15.4531 21.1193 2
      vertex -14.9861 21.3042 21
      vertex -15.4531 21.1193 21
    endloop
  endfacet
  facet normal 0.368127 -0.929775 0
    outer loop
      vertex -14.9861 21.3042 21
      vertex -15.4531 21.1193 2
      vertex -14.9861 21.3042 2
    endloop
  endfacet
  facet normal -0.998032 -0.0627129 0
    outer loop
      vertex 17.75 17.5 2
      vertex 17.7185 18.0013 21
      vertex 17.7185 18.0013 2
    endloop
  endfacet
  facet normal -0.998032 -0.0627129 0
    outer loop
      vertex 17.7185 18.0013 21
      vertex 17.75 17.5 2
      vertex 17.75 17.5 21
    endloop
  endfacet
  facet normal 0 1 -0
    outer loop
      vertex 14.0012 -21.4921 2
      vertex -14.0012 -21.4921 21
      vertex 14.0012 -21.4921 21
    endloop
  endfacet
  facet normal 0 1 0
    outer loop
      vertex -14.0012 -21.4921 21
      vertex 14.0012 -21.4921 2
      vertex -14.0012 -21.4921 2
    endloop
  endfacet
  facet normal -0.982265 0.187496 0
    outer loop
      vertex 17.6243 -18.4948 2
      vertex 17.7185 -18.0013 21
      vertex 17.7185 -18.0013 2
    endloop
  endfacet
  facet normal -0.982265 0.187496 0
    outer loop
      vertex 17.7185 -18.0013 21
      vertex 17.6243 -18.4948 2
      vertex 17.6243 -18.4948 21
    endloop
  endfacet
  facet normal -1 0 0
    outer loop
      vertex 17.75 -17.5 2
      vertex 17.75 17.5 21
      vertex 17.75 17.5 2
    endloop
  endfacet
  facet normal -1 -0 0
    outer loop
      vertex 17.75 17.5 21
      vertex 17.75 -17.5 2
      vertex 17.75 -17.5 21
    endloop
  endfacet
  facet normal -0.951065 -0.308992 0
    outer loop
      vertex 17.6243 18.4948 2
      vertex 17.4691 18.9725 21
      vertex 17.4691 18.9725 2
    endloop
  endfacet
  facet normal -0.951065 -0.308992 0
    outer loop
      vertex 17.4691 18.9725 21
      vertex 17.6243 18.4948 2
      vertex 17.6243 18.4948 21
    endloop
  endfacet
  facet normal 0.951065 -0.308992 0
    outer loop
      vertex -17.6243 18.4948 21
      vertex -17.4691 18.9725 2
      vertex -17.4691 18.9725 21
    endloop
  endfacet
  facet normal 0.951065 -0.308992 0
    outer loop
      vertex -17.4691 18.9725 2
      vertex -17.6243 18.4948 21
      vertex -17.6243 18.4948 2
    endloop
  endfacet
  facet normal 0.904805 -0.425826 0
    outer loop
      vertex -17.4691 18.9725 21
      vertex -17.2552 19.427 2
      vertex -17.2552 19.427 21
    endloop
  endfacet
  facet normal 0.904805 -0.425826 0
    outer loop
      vertex -17.2552 19.427 2
      vertex -17.4691 18.9725 21
      vertex -17.4691 18.9725 2
    endloop
  endfacet
  facet normal 0.770549 -0.63738 0
    outer loop
      vertex -16.9861 19.8511 21
      vertex -16.6659 20.2382 2
      vertex -16.6659 20.2382 21
    endloop
  endfacet
  facet normal 0.770549 -0.63738 0
    outer loop
      vertex -16.6659 20.2382 2
      vertex -16.9861 19.8511 21
      vertex -16.9861 19.8511 2
    endloop
  endfacet
  facet normal 0.904805 0.425826 0
    outer loop
      vertex -17.2552 -19.427 21
      vertex -17.4691 -18.9725 2
      vertex -17.4691 -18.9725 21
    endloop
  endfacet
  facet normal 0.904805 0.425826 0
    outer loop
      vertex -17.4691 -18.9725 2
      vertex -17.2552 -19.427 21
      vertex -17.2552 -19.427 2
    endloop
  endfacet
  facet normal 0.24862 0.968601 -0
    outer loop
      vertex -14.4995 -21.4291 2
      vertex -14.9861 -21.3042 21
      vertex -14.4995 -21.4291 21
    endloop
  endfacet
  facet normal 0.24862 0.968601 0
    outer loop
      vertex -14.9861 -21.3042 21
      vertex -14.4995 -21.4291 2
      vertex -14.9861 -21.3042 2
    endloop
  endfacet
  facet normal -0.587698 0.80908 0
    outer loop
      vertex 16.2997 -20.5821 2
      vertex 15.8933 -20.8773 21
      vertex 16.2997 -20.5821 21
    endloop
  endfacet
  facet normal -0.587698 0.80908 0
    outer loop
      vertex 15.8933 -20.8773 21
      vertex 16.2997 -20.5821 2
      vertex 15.8933 -20.8773 2
    endloop
  endfacet
  facet normal 0.684563 -0.728953 0
    outer loop
      vertex -16.6659 20.2382 2
      vertex -16.2997 20.5821 21
      vertex -16.6659 20.2382 21
    endloop
  endfacet
  facet normal 0.684563 -0.728953 0
    outer loop
      vertex -16.2997 20.5821 21
      vertex -16.6659 20.2382 2
      vertex -16.2997 20.5821 2
    endloop
  endfacet
  facet normal 0.481751 -0.876308 0
    outer loop
      vertex -15.8933 20.8773 2
      vertex -15.4531 21.1193 21
      vertex -15.8933 20.8773 21
    endloop
  endfacet
  facet normal 0.481751 -0.876308 0
    outer loop
      vertex -15.4531 21.1193 21
      vertex -15.8933 20.8773 2
      vertex -15.4531 21.1193 2
    endloop
  endfacet
  facet normal -0.982265 -0.187496 0
    outer loop
      vertex 17.7185 18.0013 2
      vertex 17.6243 18.4948 21
      vertex 17.6243 18.4948 2
    endloop
  endfacet
  facet normal -0.982265 -0.187496 0
    outer loop
      vertex 17.6243 18.4948 21
      vertex 17.7185 18.0013 2
      vertex 17.7185 18.0013 21
    endloop
  endfacet
  facet normal -0.481751 -0.876308 0
    outer loop
      vertex 15.4531 21.1193 2
      vertex 15.8933 20.8773 21
      vertex 15.4531 21.1193 21
    endloop
  endfacet
  facet normal -0.481751 -0.876308 -0
    outer loop
      vertex 15.8933 20.8773 21
      vertex 15.4531 21.1193 2
      vertex 15.8933 20.8773 2
    endloop
  endfacet
  facet normal 0.982265 -0.187496 0
    outer loop
      vertex -17.7185 18.0013 21
      vertex -17.6243 18.4948 2
      vertex -17.6243 18.4948 21
    endloop
  endfacet
  facet normal 0.982265 -0.187496 0
    outer loop
      vertex -17.6243 18.4948 2
      vertex -17.7185 18.0013 21
      vertex -17.7185 18.0013 2
    endloop
  endfacet
  facet normal 0.844366 -0.535767 0
    outer loop
      vertex -17.2552 19.427 21
      vertex -16.9861 19.8511 2
      vertex -16.9861 19.8511 21
    endloop
  endfacet
  facet normal 0.844366 -0.535767 0
    outer loop
      vertex -16.9861 19.8511 2
      vertex -17.2552 19.427 21
      vertex -17.2552 19.427 2
    endloop
  endfacet
  facet normal 0.587698 0.80908 -0
    outer loop
      vertex -15.8933 -20.8773 2
      vertex -16.2997 -20.5821 21
      vertex -15.8933 -20.8773 21
    endloop
  endfacet
  facet normal 0.587698 0.80908 0
    outer loop
      vertex -16.2997 -20.5821 21
      vertex -15.8933 -20.8773 2
      vertex -16.2997 -20.5821 2
    endloop
  endfacet
  facet normal 0.368127 0.929775 -0
    outer loop
      vertex -14.9861 -21.3042 2
      vertex -15.4531 -21.1193 21
      vertex -14.9861 -21.3042 21
    endloop
  endfacet
  facet normal 0.368127 0.929775 0
    outer loop
      vertex -15.4531 -21.1193 21
      vertex -14.9861 -21.3042 2
      vertex -15.4531 -21.1193 2
    endloop
  endfacet
  facet normal -0.770549 0.63738 0
    outer loop
      vertex 16.6659 -20.2382 2
      vertex 16.9861 -19.8511 21
      vertex 16.9861 -19.8511 2
    endloop
  endfacet
  facet normal -0.770549 0.63738 0
    outer loop
      vertex 16.9861 -19.8511 21
      vertex 16.6659 -20.2382 2
      vertex 16.6659 -20.2382 21
    endloop
  endfacet
  facet normal -0.951065 0.308992 0
    outer loop
      vertex 17.4691 -18.9725 2
      vertex 17.6243 -18.4948 21
      vertex 17.6243 -18.4948 2
    endloop
  endfacet
  facet normal -0.951065 0.308992 0
    outer loop
      vertex 17.6243 -18.4948 21
      vertex 17.4691 -18.9725 2
      vertex 17.4691 -18.9725 21
    endloop
  endfacet
  facet normal -0.481751 0.876308 0
    outer loop
      vertex 15.8933 -20.8773 2
      vertex 15.4531 -21.1193 21
      vertex 15.8933 -20.8773 21
    endloop
  endfacet
  facet normal -0.481751 0.876308 0
    outer loop
      vertex 15.4531 -21.1193 21
      vertex 15.8933 -20.8773 2
      vertex 15.4531 -21.1193 2
    endloop
  endfacet
  facet normal 0.24862 -0.968601 0
    outer loop
      vertex -14.9861 21.3042 2
      vertex -14.4995 21.4291 21
      vertex -14.9861 21.3042 21
    endloop
  endfacet
  facet normal 0.24862 -0.968601 0
    outer loop
      vertex -14.4995 21.4291 21
      vertex -14.9861 21.3042 2
      vertex -14.4995 21.4291 2
    endloop
  endfacet
  facet normal 0.125431 -0.992102 0
    outer loop
      vertex -14.4995 21.4291 2
      vertex -14.0012 21.4921 21
      vertex -14.4995 21.4291 21
    endloop
  endfacet
  facet normal 0.125431 -0.992102 0
    outer loop
      vertex -14.0012 21.4921 21
      vertex -14.4995 21.4291 2
      vertex -14.0012 21.4921 2
    endloop
  endfacet
  facet normal 0.587698 -0.80908 0
    outer loop
      vertex -16.2997 20.5821 2
      vertex -15.8933 20.8773 21
      vertex -16.2997 20.5821 21
    endloop
  endfacet
  facet normal 0.587698 -0.80908 0
    outer loop
      vertex -15.8933 20.8773 21
      vertex -16.2997 20.5821 2
      vertex -15.8933 20.8773 2
    endloop
  endfacet
  facet normal 0 0 1
    outer loop
      vertex 14.0012 21.4921 2
      vertex 17.75 17.5 2
      vertex 17.7185 18.0013 2
    endloop
  endfacet
  facet normal 0 0 1
    outer loop
      vertex 17.75 17.5 2
      vertex -17.75 17.5 2
      vertex 17.75 -17.5 2
    endloop
  endfacet
  facet normal 0 0 1
    outer loop
      vertex 14.0012 21.4921 2
      vertex 17.7185 18.0013 2
      vertex 17.6243 18.4948 2
    endloop
  endfacet
  facet normal 0 0 1
    outer loop
      vertex -17.75 -17.5 2
      vertex 17.75 -17.5 2
      vertex -17.75 17.5 2
    endloop
  endfacet
  facet normal 0 0 1
    outer loop
      vertex 14.0012 21.4921 2
      vertex 17.6243 18.4948 2
      vertex 17.4691 18.9725 2
    endloop
  endfacet
  facet normal 0 0 1
    outer loop
      vertex 17.75 17.5 2
      vertex 14.0012 21.4921 2
      vertex -17.75 17.5 2
    endloop
  endfacet
  facet normal 0 0 1
    outer loop
      vertex 14.0012 21.4921 2
      vertex 17.4691 18.9725 2
      vertex 17.2552 19.427 2
    endloop
  endfacet
  facet normal 0 -0 1
    outer loop
      vertex 14.0012 -21.4921 2
      vertex 17.75 -17.5 2
      vertex -17.75 -17.5 2
    endloop
  endfacet
  facet normal 0 0 1
    outer loop
      vertex 14.0012 21.4921 2
      vertex 17.2552 19.427 2
      vertex 16.9861 19.8511 2
    endloop
  endfacet
  facet normal 0 0 1
    outer loop
      vertex 17.6243 -18.4948 2
      vertex 14.0012 -21.4921 2
      vertex 17.4691 -18.9725 2
    endloop
  endfacet
  facet normal 0 0 1
    outer loop
      vertex 14.0012 21.4921 2
      vertex 16.9861 19.8511 2
      vertex 16.6659 20.2382 2
    endloop
  endfacet
  facet normal 0 0 1
    outer loop
      vertex 17.4691 -18.9725 2
      vertex 14.0012 -21.4921 2
      vertex 17.2552 -19.427 2
    endloop
  endfacet
  facet normal 0 0 1
    outer loop
      vertex 14.0012 21.4921 2
      vertex 16.6659 20.2382 2
      vertex 16.2997 20.5821 2
    endloop
  endfacet
  facet normal 0 0 1
    outer loop
      vertex 17.2552 -19.427 2
      vertex 14.0012 -21.4921 2
      vertex 16.9861 -19.8511 2
    endloop
  endfacet
  facet normal 0 0 1
    outer loop
      vertex 14.0012 21.4921 2
      vertex 16.2997 20.5821 2
      vertex 15.8933 20.8773 2
    endloop
  endfacet
  facet normal 0 0 1
    outer loop
      vertex 16.9861 -19.8511 2
      vertex 14.0012 -21.4921 2
      vertex 16.6659 -20.2382 2
    endloop
  endfacet
  facet normal 0 0 1
    outer loop
      vertex 14.0012 21.4921 2
      vertex 15.8933 20.8773 2
      vertex 15.4531 21.1193 2
    endloop
  endfacet
  facet normal 0 0 1
    outer loop
      vertex 16.6659 -20.2382 2
      vertex 14.0012 -21.4921 2
      vertex 16.2997 -20.5821 2
    endloop
  endfacet
  facet normal 0 0 1
    outer loop
      vertex 14.0012 21.4921 2
      vertex 15.4531 21.1193 2
      vertex 14.9861 21.3042 2
    endloop
  endfacet
  facet normal 0 0 1
    outer loop
      vertex 16.2997 -20.5821 2
      vertex 14.0012 -21.4921 2
      vertex 15.8933 -20.8773 2
    endloop
  endfacet
  facet normal 0 0 1
    outer loop
      vertex 14.0012 21.4921 2
      vertex 14.9861 21.3042 2
      vertex 14.4995 21.4291 2
    endloop
  endfacet
  facet normal 0 0 1
    outer loop
      vertex 15.8933 -20.8773 2
      vertex 14.0012 -21.4921 2
      vertex 15.4531 -21.1193 2
    endloop
  endfacet
  facet normal 0 0 1
    outer loop
      vertex 15.4531 -21.1193 2
      vertex 14.0012 -21.4921 2
      vertex 14.9861 -21.3042 2
    endloop
  endfacet
  facet normal 0 0 1
    outer loop
      vertex 14.9861 -21.3042 2
      vertex 14.0012 -21.4921 2
      vertex 14.4995 -21.4291 2
    endloop
  endfacet
  facet normal 0 0 1
    outer loop
      vertex -17.75 17.5 2
      vertex 14.0012 21.4921 2
      vertex -14.0012 21.4921 2
    endloop
  endfacet
  facet normal 0 0 1
    outer loop
      vertex 17.75 -17.5 2
      vertex 14.0012 -21.4921 2
      vertex 17.7185 -18.0013 2
    endloop
  endfacet
  facet normal 0 0 1
    outer loop
      vertex -17.75 17.5 2
      vertex -14.0012 21.4921 2
      vertex -14.4995 21.4291 2
    endloop
  endfacet
  facet normal 0 0 1
    outer loop
      vertex 17.7185 -18.0013 2
      vertex 14.0012 -21.4921 2
      vertex 17.6243 -18.4948 2
    endloop
  endfacet
  facet normal 0 0 1
    outer loop
      vertex -17.75 17.5 2
      vertex -14.4995 21.4291 2
      vertex -14.9861 21.3042 2
    endloop
  endfacet
  facet normal 0 0 1
    outer loop
      vertex 14.0012 -21.4921 2
      vertex -17.75 -17.5 2
      vertex -14.0012 -21.4921 2
    endloop
  endfacet
  facet normal 0 0 1
    outer loop
      vertex -17.75 17.5 2
      vertex -14.9861 21.3042 2
      vertex -15.4531 21.1193 2
    endloop
  endfacet
  facet normal 0 0 1
    outer loop
      vertex -14.0012 -21.4921 2
      vertex -17.75 -17.5 2
      vertex -14.4995 -21.4291 2
    endloop
  endfacet
  facet normal 0 0 1
    outer loop
      vertex -17.75 17.5 2
      vertex -15.4531 21.1193 2
      vertex -15.8933 20.8773 2
    endloop
  endfacet
  facet normal 0 0 1
    outer loop
      vertex -14.4995 -21.4291 2
      vertex -17.75 -17.5 2
      vertex -14.9861 -21.3042 2
    endloop
  endfacet
  facet normal 0 0 1
    outer loop
      vertex -17.75 17.5 2
      vertex -15.8933 20.8773 2
      vertex -16.2997 20.5821 2
    endloop
  endfacet
  facet normal 0 0 1
    outer loop
      vertex -14.9861 -21.3042 2
      vertex -17.75 -17.5 2
      vertex -15.4531 -21.1193 2
    endloop
  endfacet
  facet normal 0 0 1
    outer loop
      vertex -17.75 17.5 2
      vertex -16.2997 20.5821 2
      vertex -16.6659 20.2382 2
    endloop
  endfacet
  facet normal 0 0 1
    outer loop
      vertex -15.4531 -21.1193 2
      vertex -17.75 -17.5 2
      vertex -15.8933 -20.8773 2
    endloop
  endfacet
  facet normal 0 0 1
    outer loop
      vertex -17.75 17.5 2
      vertex -16.6659 20.2382 2
      vertex -16.9861 19.8511 2
    endloop
  endfacet
  facet normal 0 0 1
    outer loop
      vertex -15.8933 -20.8773 2
      vertex -17.75 -17.5 2
      vertex -16.2997 -20.5821 2
    endloop
  endfacet
  facet normal 0 0 1
    outer loop
      vertex -17.75 17.5 2
      vertex -16.9861 19.8511 2
      vertex -17.2552 19.427 2
    endloop
  endfacet
  facet normal 0 0 1
    outer loop
      vertex -16.2997 -20.5821 2
      vertex -17.75 -17.5 2
      vertex -16.6659 -20.2382 2
    endloop
  endfacet
  facet normal 0 0 1
    outer loop
      vertex -17.75 17.5 2
      vertex -17.2552 19.427 2
      vertex -17.4691 18.9725 2
    endloop
  endfacet
  facet normal 0 0 1
    outer loop
      vertex -16.6659 -20.2382 2
      vertex -17.75 -17.5 2
      vertex -16.9861 -19.8511 2
    endloop
  endfacet
  facet normal 0 0 1
    outer loop
      vertex -17.75 17.5 2
      vertex -17.4691 18.9725 2
      vertex -17.6243 18.4948 2
    endloop
  endfacet
  facet normal 0 0 1
    outer loop
      vertex -16.9861 -19.8511 2
      vertex -17.75 -17.5 2
      vertex -17.2552 -19.427 2
    endloop
  endfacet
  facet normal 0 0 1
    outer loop
      vertex -17.75 17.5 2
      vertex -17.6243 18.4948 2
      vertex -17.7185 18.0013 2
    endloop
  endfacet
  facet normal 0 0 1
    outer loop
      vertex -17.2552 -19.427 2
      vertex -17.75 -17.5 2
      vertex -17.4691 -18.9725 2
    endloop
  endfacet
  facet normal 0 0 1
    outer loop
      vertex -17.4691 -18.9725 2
      vertex -17.75 -17.5 2
      vertex -17.6243 -18.4948 2
    endloop
  endfacet
  facet normal 0 0 1
    outer loop
      vertex -17.6243 -18.4948 2
      vertex -17.75 -17.5 2
      vertex -17.7185 -18.0013 2
    endloop
  endfacet
  facet normal 0.951065 0.308992 0
    outer loop
      vertex -17.4691 -18.9725 21
      vertex -17.6243 -18.4948 2
      vertex -17.6243 -18.4948 21
    endloop
  endfacet
  facet normal 0.951065 0.308992 0
    outer loop
      vertex -17.6243 -18.4948 2
      vertex -17.4691 -18.9725 21
      vertex -17.4691 -18.9725 2
    endloop
  endfacet
  facet normal 0.770549 0.63738 0
    outer loop
      vertex -16.6659 -20.2382 21
      vertex -16.9861 -19.8511 2
      vertex -16.9861 -19.8511 21
    endloop
  endfacet
  facet normal 0.770549 0.63738 0
    outer loop
      vertex -16.9861 -19.8511 2
      vertex -16.6659 -20.2382 21
      vertex -16.6659 -20.2382 2
    endloop
  endfacet
  facet normal 0.125431 0.992102 -0
    outer loop
      vertex -14.0012 -21.4921 2
      vertex -14.4995 -21.4291 21
      vertex -14.0012 -21.4921 21
    endloop
  endfacet
  facet normal 0.125431 0.992102 0
    outer loop
      vertex -14.4995 -21.4291 21
      vertex -14.0012 -21.4921 2
      vertex -14.4995 -21.4291 2
    endloop
  endfacet
  facet normal 0.481751 0.876308 -0
    outer loop
      vertex -15.4531 -21.1193 2
      vertex -15.8933 -20.8773 21
      vertex -15.4531 -21.1193 21
    endloop
  endfacet
  facet normal 0.481751 0.876308 0
    outer loop
      vertex -15.8933 -20.8773 21
      vertex -15.4531 -21.1193 2
      vertex -15.8933 -20.8773 2
    endloop
  endfacet
  facet normal 0.684563 0.728953 -0
    outer loop
      vertex -16.2997 -20.5821 2
      vertex -16.6659 -20.2382 21
      vertex -16.2997 -20.5821 21
    endloop
  endfacet
  facet normal 0.684563 0.728953 0
    outer loop
      vertex -16.6659 -20.2382 21
      vertex -16.2997 -20.5821 2
      vertex -16.6659 -20.2382 2
    endloop
  endfacet
  facet normal -0.998032 0.0627129 0
    outer loop
      vertex 17.7185 -18.0013 2
      vertex 17.75 -17.5 21
      vertex 17.75 -17.5 2
    endloop
  endfacet
  facet normal -0.998032 0.0627129 0
    outer loop
      vertex 17.75 -17.5 21
      vertex 17.7185 -18.0013 2
      vertex 17.7185 -18.0013 21
    endloop
  endfacet
  facet normal -0.844366 0.535767 0
    outer loop
      vertex 16.9861 -19.8511 2
      vertex 17.2552 -19.427 21
      vertex 17.2552 -19.427 2
    endloop
  endfacet
  facet normal -0.844366 0.535767 0
    outer loop
      vertex 17.2552 -19.427 21
      vertex 16.9861 -19.8511 2
      vertex 16.9861 -19.8511 21
    endloop
  endfacet
  facet normal -0.684563 0.728953 0
    outer loop
      vertex 16.6659 -20.2382 2
      vertex 16.2997 -20.5821 21
      vertex 16.6659 -20.2382 21
    endloop
  endfacet
  facet normal -0.684563 0.728953 0
    outer loop
      vertex 16.2997 -20.5821 21
      vertex 16.6659 -20.2382 2
      vertex 16.2997 -20.5821 2
    endloop
  endfacet
  facet normal -0.368127 0.929775 0
    outer loop
      vertex 15.4531 -21.1193 2
      vertex 14.9861 -21.3042 21
      vertex 15.4531 -21.1193 21
    endloop
  endfacet
  facet normal -0.368127 0.929775 0
    outer loop
      vertex 14.9861 -21.3042 21
      vertex 15.4531 -21.1193 2
      vertex 14.9861 -21.3042 2
    endloop
  endfacet
  facet normal -0.125431 0.992102 0
    outer loop
      vertex 14.4995 -21.4291 2
      vertex 14.0012 -21.4921 21
      vertex 14.4995 -21.4291 21
    endloop
  endfacet
  facet normal -0.125431 0.992102 0
    outer loop
      vertex 14.0012 -21.4921 21
      vertex 14.4995 -21.4291 2
      vertex 14.0012 -21.4921 2
    endloop
  endfacet
  facet normal -0.770549 -0.63738 0
    outer loop
      vertex 16.9861 19.8511 2
      vertex 16.6659 20.2382 21
      vertex 16.6659 20.2382 2
    endloop
  endfacet
  facet normal -0.770549 -0.63738 0
    outer loop
      vertex 16.6659 20.2382 21
      vertex 16.9861 19.8511 2
      vertex 16.9861 19.8511 21
    endloop
  endfacet
  facet normal -0.844366 -0.535767 0
    outer loop
      vertex 17.2552 19.427 2
      vertex 16.9861 19.8511 21
      vertex 16.9861 19.8511 2
    endloop
  endfacet
  facet normal -0.844366 -0.535767 0
    outer loop
      vertex 16.9861 19.8511 21
      vertex 17.2552 19.427 2
      vertex 17.2552 19.427 21
    endloop
  endfacet
  facet normal -0.904805 -0.425826 0
    outer loop
      vertex 17.4691 18.9725 2
      vertex 17.2552 19.427 21
      vertex 17.2552 19.427 2
    endloop
  endfacet
  facet normal -0.904805 -0.425826 0
    outer loop
      vertex 17.2552 19.427 21
      vertex 17.4691 18.9725 2
      vertex 17.4691 18.9725 21
    endloop
  endfacet
  facet normal -0.368127 -0.929775 0
    outer loop
      vertex 14.9861 21.3042 2
      vertex 15.4531 21.1193 21
      vertex 14.9861 21.3042 21
    endloop
  endfacet
  facet normal -0.368127 -0.929775 -0
    outer loop
      vertex 15.4531 21.1193 21
      vertex 14.9861 21.3042 2
      vertex 15.4531 21.1193 2
    endloop
  endfacet
  facet normal -0.24862 -0.968601 0
    outer loop
      vertex 14.4995 21.4291 2
      vertex 14.9861 21.3042 21
      vertex 14.4995 21.4291 21
    endloop
  endfacet
  facet normal -0.24862 -0.968601 -0
    outer loop
      vertex 14.9861 21.3042 21
      vertex 14.4995 21.4291 2
      vertex 14.9861 21.3042 2
    endloop
  endfacet
  facet normal -0.125431 -0.992102 0
    outer loop
      vertex 14.0012 21.4921 2
      vertex 14.4995 21.4291 21
      vertex 14.0012 21.4921 21
    endloop
  endfacet
  facet normal -0.125431 -0.992102 -0
    outer loop
      vertex 14.4995 21.4291 21
      vertex 14.0012 21.4921 2
      vertex 14.4995 21.4291 2
    endloop
  endfacet
  facet normal 0.982265 0.187496 0
    outer loop
      vertex -17.6243 -18.4948 21
      vertex -17.7185 -18.0013 2
      vertex -17.7185 -18.0013 21
    endloop
  endfacet
  facet normal 0.982265 0.187496 0
    outer loop
      vertex -17.7185 -18.0013 2
      vertex -17.6243 -18.4948 21
      vertex -17.6243 -18.4948 2
    endloop
  endfacet
  facet normal 0.844366 0.535767 0
    outer loop
      vertex -16.9861 -19.8511 21
      vertex -17.2552 -19.427 2
      vertex -17.2552 -19.427 21
    endloop
  endfacet
  facet normal 0.844366 0.535767 0
    outer loop
      vertex -17.2552 -19.427 2
      vertex -16.9861 -19.8511 21
      vertex -16.9861 -19.8511 2
    endloop
  endfacet
  facet normal -0.904805 0.425826 0
    outer loop
      vertex 17.2552 -19.427 2
      vertex 17.4691 -18.9725 21
      vertex 17.4691 -18.9725 2
    endloop
  endfacet
  facet normal -0.904805 0.425826 0
    outer loop
      vertex 17.4691 -18.9725 21
      vertex 17.2552 -19.427 2
      vertex 17.2552 -19.427 21
    endloop
  endfacet
  facet normal -0.24862 0.968601 0
    outer loop
      vertex 14.9861 -21.3042 2
      vertex 14.4995 -21.4291 21
      vertex 14.9861 -21.3042 21
    endloop
  endfacet
  facet normal -0.24862 0.968601 0
    outer loop
      vertex 14.4995 -21.4291 21
      vertex 14.9861 -21.3042 2
      vertex 14.4995 -21.4291 2
    endloop
  endfacet
  facet normal -0.587698 -0.80908 0
    outer loop
      vertex 15.8933 20.8773 2
      vertex 16.2997 20.5821 21
      vertex 15.8933 20.8773 21
    endloop
  endfacet
  facet normal -0.587698 -0.80908 -0
    outer loop
      vertex 16.2997 20.5821 21
      vertex 15.8933 20.8773 2
      vertex 16.2997 20.5821 2
    endloop
  endfacet
  facet normal -0.684563 -0.728953 0
    outer loop
      vertex 16.2997 20.5821 2
      vertex 16.6659 20.2382 21
      vertex 16.2997 20.5821 21
    endloop
  endfacet
  facet normal -0.684563 -0.728953 -0
    outer loop
      vertex 16.6659 20.2382 21
      vertex 16.2997 20.5821 2
      vertex 16.6659 20.2382 2
    endloop
  endfacet
endsolid OpenSCAD_Model
