solid OpenSCAD_Model
  facet normal -1 0 0
    outer loop
      vertex -18.75 -10 0
      vertex -18.75 10 21
      vertex -18.75 10 0
    endloop
  endfacet
  facet normal -1 -0 0
    outer loop
      vertex -18.75 10 21
      vertex -18.75 -10 0
      vertex -18.75 -10 21
    endloop
  endfacet
  facet normal -0.99803 -0.0627451 0
    outer loop
      vertex -18.7106 -10.6267 0
      vertex -18.75 -10 21
      vertex -18.75 -10 0
    endloop
  endfacet
  facet normal -0.99803 -0.0627451 0
    outer loop
      vertex -18.75 -10 21
      vertex -18.7106 -10.6267 0
      vertex -18.7106 -10.6267 21
    endloop
  endfacet
  facet normal -0.99803 0.0627451 0
    outer loop
      vertex -18.75 10 0
      vertex -18.7106 10.6267 21
      vertex -18.7106 10.6267 0
    endloop
  endfacet
  facet normal -0.99803 0.0627451 0
    outer loop
      vertex -18.7106 10.6267 21
      vertex -18.75 10 0
      vertex -18.75 10 21
    endloop
  endfacet
  facet normal -0.368203 0.929745 0
    outer loop
      vertex -15.2951 14.7553 0
      vertex -15.8789 14.5241 21
      vertex -15.2951 14.7553 21
    endloop
  endfacet
  facet normal -0.368203 0.929745 0
    outer loop
      vertex -15.8789 14.5241 21
      vertex -15.2951 14.7553 0
      vertex -15.8789 14.5241 0
    endloop
  endfacet
  facet normal 0 0 1
    outer loop
      vertex 17.75 10 21
      vertex 18.75 10 21
      vertex 18.7106 10.6267 21
    endloop
  endfacet
  facet normal 0 0 1
    outer loop
      vertex 18.75 10 21
      vertex 17.75 10 21
      vertex 18.75 -10 21
    endloop
  endfacet
  facet normal 0 0 1
    outer loop
      vertex 17.7185 10.5013 21
      vertex 18.7106 10.6267 21
      vertex 18.5929 11.2434 21
    endloop
  endfacet
  facet normal 0 0 1
    outer loop
      vertex 17.75 -10 21
      vertex 18.75 -10 21
      vertex 17.75 10 21
    endloop
  endfacet
  facet normal 0 0 1
    outer loop
      vertex 17.6243 10.9948 21
      vertex 18.5929 11.2434 21
      vertex 18.3989 11.8406 21
    endloop
  endfacet
  facet normal 0 0 1
    outer loop
      vertex 18.75 -10 21
      vertex 17.75 -10 21
      vertex 18.7106 -10.6267 21
    endloop
  endfacet
  facet normal 0 0 1
    outer loop
      vertex 17.4691 11.4725 21
      vertex 18.3989 11.8406 21
      vertex 18.1315 12.4088 21
    endloop
  endfacet
  facet normal -0 0 1
    outer loop
      vertex 17.7185 -10.5013 21
      vertex 18.7106 -10.6267 21
      vertex 17.75 -10 21
    endloop
  endfacet
  facet normal 0 0 1
    outer loop
      vertex 17.2552 11.927 21
      vertex 18.1315 12.4088 21
      vertex 17.7951 12.9389 21
    endloop
  endfacet
  facet normal 0 0 1
    outer loop
      vertex 18.7106 -10.6267 21
      vertex 17.7185 -10.5013 21
      vertex 18.5929 -11.2434 21
    endloop
  endfacet
  facet normal -0 0 1
    outer loop
      vertex 17.6243 -10.9948 21
      vertex 18.5929 -11.2434 21
      vertex 17.7185 -10.5013 21
    endloop
  endfacet
  facet normal 0 0 1
    outer loop
      vertex 18.7106 10.6267 21
      vertex 17.7185 10.5013 21
      vertex 17.75 10 21
    endloop
  endfacet
  facet normal 0 0 1
    outer loop
      vertex 18.5929 11.2434 21
      vertex 17.6243 10.9948 21
      vertex 17.7185 10.5013 21
    endloop
  endfacet
  facet normal 0 0 1
    outer loop
      vertex 18.3989 11.8406 21
      vertex 17.4691 11.4725 21
      vertex 17.6243 10.9948 21
    endloop
  endfacet
  facet normal 0 0 1
    outer loop
      vertex 16.9861 12.3511 21
      vertex 17.7951 12.9389 21
      vertex 17.3948 13.4227 21
    endloop
  endfacet
  facet normal 0 0 1
    outer loop
      vertex 18.1315 12.4088 21
      vertex 17.2552 11.927 21
      vertex 17.4691 11.4725 21
    endloop
  endfacet
  facet normal 0 0 1
    outer loop
      vertex 17.7951 12.9389 21
      vertex 16.9861 12.3511 21
      vertex 17.2552 11.927 21
    endloop
  endfacet
  facet normal 0 0 1
    outer loop
      vertex 16.6659 12.7382 21
      vertex 17.3948 13.4227 21
      vertex 16.9371 13.8526 21
    endloop
  endfacet
  facet normal 0 0 1
    outer loop
      vertex 17.3948 13.4227 21
      vertex 16.6659 12.7382 21
      vertex 16.9861 12.3511 21
    endloop
  endfacet
  facet normal 0 0 1
    outer loop
      vertex 16.2997 13.0821 21
      vertex 16.9371 13.8526 21
      vertex 16.4291 14.2216 21
    endloop
  endfacet
  facet normal 0 0 1
    outer loop
      vertex 16.9371 13.8526 21
      vertex 16.2997 13.0821 21
      vertex 16.6659 12.7382 21
    endloop
  endfacet
  facet normal 0 0 1
    outer loop
      vertex 16.4291 14.2216 21
      vertex 15.8933 13.3773 21
      vertex 16.2997 13.0821 21
    endloop
  endfacet
  facet normal 0 0 1
    outer loop
      vertex 15.8789 14.5241 21
      vertex 15.8933 13.3773 21
      vertex 16.4291 14.2216 21
    endloop
  endfacet
  facet normal 0 0 1
    outer loop
      vertex 15.8789 14.5241 21
      vertex 15.4531 13.6193 21
      vertex 15.8933 13.3773 21
    endloop
  endfacet
  facet normal 0 0 1
    outer loop
      vertex 15.2951 14.7553 21
      vertex 15.4531 13.6193 21
      vertex 15.8789 14.5241 21
    endloop
  endfacet
  facet normal 0 0 1
    outer loop
      vertex 15.2951 14.7553 21
      vertex 14.9861 13.8042 21
      vertex 15.4531 13.6193 21
    endloop
  endfacet
  facet normal 0 0 1
    outer loop
      vertex 14.6869 14.9114 21
      vertex 14.9861 13.8042 21
      vertex 15.2951 14.7553 21
    endloop
  endfacet
  facet normal 0 0 1
    outer loop
      vertex 14.6869 14.9114 21
      vertex 14.4995 13.9291 21
      vertex 14.9861 13.8042 21
    endloop
  endfacet
  facet normal 0 0 1
    outer loop
      vertex 14.064 14.9901 21
      vertex 14.4995 13.9291 21
      vertex 14.6869 14.9114 21
    endloop
  endfacet
  facet normal 0 0 1
    outer loop
      vertex 14.064 14.9901 21
      vertex 14.0012 13.9921 21
      vertex 14.4995 13.9291 21
    endloop
  endfacet
  facet normal 0 0 1
    outer loop
      vertex 14.064 14.9901 21
      vertex -14.0012 13.9921 21
      vertex 14.0012 13.9921 21
    endloop
  endfacet
  facet normal -0 0 1
    outer loop
      vertex -14.064 14.9901 21
      vertex -14.0012 13.9921 21
      vertex 14.064 14.9901 21
    endloop
  endfacet
  facet normal 0 0 1
    outer loop
      vertex -14.064 14.9901 21
      vertex -14.4995 13.9291 21
      vertex -14.0012 13.9921 21
    endloop
  endfacet
  facet normal -0 0 1
    outer loop
      vertex -14.6869 14.9114 21
      vertex -14.4995 13.9291 21
      vertex -14.064 14.9901 21
    endloop
  endfacet
  facet normal 0 0 1
    outer loop
      vertex -14.6869 14.9114 21
      vertex -14.9861 13.8042 21
      vertex -14.4995 13.9291 21
    endloop
  endfacet
  facet normal -0 0 1
    outer loop
      vertex -15.2951 14.7553 21
      vertex -14.9861 13.8042 21
      vertex -14.6869 14.9114 21
    endloop
  endfacet
  facet normal 0 0 1
    outer loop
      vertex -15.2951 14.7553 21
      vertex -15.4531 13.6193 21
      vertex -14.9861 13.8042 21
    endloop
  endfacet
  facet normal -0 0 1
    outer loop
      vertex -15.8789 14.5241 21
      vertex -15.4531 13.6193 21
      vertex -15.2951 14.7553 21
    endloop
  endfacet
  facet normal 0 0 1
    outer loop
      vertex -15.8789 14.5241 21
      vertex -15.8933 13.3773 21
      vertex -15.4531 13.6193 21
    endloop
  endfacet
  facet normal -0 0 1
    outer loop
      vertex -16.4291 14.2216 21
      vertex -15.8933 13.3773 21
      vertex -15.8789 14.5241 21
    endloop
  endfacet
  facet normal 0 0 1
    outer loop
      vertex -15.8933 13.3773 21
      vertex -16.4291 14.2216 21
      vertex -16.2997 13.0821 21
    endloop
  endfacet
  facet normal -0 0 1
    outer loop
      vertex -16.9371 13.8526 21
      vertex -16.2997 13.0821 21
      vertex -16.4291 14.2216 21
    endloop
  endfacet
  facet normal 0 0 1
    outer loop
      vertex -16.2997 13.0821 21
      vertex -16.9371 13.8526 21
      vertex -16.6659 12.7382 21
    endloop
  endfacet
  facet normal -0 0 1
    outer loop
      vertex -17.3948 13.4227 21
      vertex -16.6659 12.7382 21
      vertex -16.9371 13.8526 21
    endloop
  endfacet
  facet normal 0 0 1
    outer loop
      vertex -16.6659 12.7382 21
      vertex -17.3948 13.4227 21
      vertex -16.9861 12.3511 21
    endloop
  endfacet
  facet normal -0 0 1
    outer loop
      vertex -17.7951 12.9389 21
      vertex -16.9861 12.3511 21
      vertex -17.3948 13.4227 21
    endloop
  endfacet
  facet normal 0 0 1
    outer loop
      vertex -16.9861 12.3511 21
      vertex -17.7951 12.9389 21
      vertex -17.2552 11.927 21
    endloop
  endfacet
  facet normal -0 0 1
    outer loop
      vertex -18.1315 12.4088 21
      vertex -17.2552 11.927 21
      vertex -17.7951 12.9389 21
    endloop
  endfacet
  facet normal 0 0 1
    outer loop
      vertex -17.2552 11.927 21
      vertex -18.1315 12.4088 21
      vertex -17.4691 11.4725 21
    endloop
  endfacet
  facet normal -0 0 1
    outer loop
      vertex -18.5929 11.2434 21
      vertex -17.6243 10.9948 21
      vertex -18.3989 11.8406 21
    endloop
  endfacet
  facet normal 0 0 1
    outer loop
      vertex -17.4691 11.4725 21
      vertex -18.3989 11.8406 21
      vertex -17.6243 10.9948 21
    endloop
  endfacet
  facet normal -0 0 1
    outer loop
      vertex -18.3989 11.8406 21
      vertex -17.4691 11.4725 21
      vertex -18.1315 12.4088 21
    endloop
  endfacet
  facet normal 0 0 1
    outer loop
      vertex 18.5929 -11.2434 21
      vertex 17.6243 -10.9948 21
      vertex 18.3989 -11.8406 21
    endloop
  endfacet
  facet normal -0 0 1
    outer loop
      vertex 17.4691 -11.4725 21
      vertex 18.3989 -11.8406 21
      vertex 17.6243 -10.9948 21
    endloop
  endfacet
  facet normal 0 0 1
    outer loop
      vertex 18.3989 -11.8406 21
      vertex 17.4691 -11.4725 21
      vertex 18.1315 -12.4088 21
    endloop
  endfacet
  facet normal -0 0 1
    outer loop
      vertex 17.2552 -11.927 21
      vertex 18.1315 -12.4088 21
      vertex 17.4691 -11.4725 21
    endloop
  endfacet
  facet normal 0 0 1
    outer loop
      vertex 18.1315 -12.4088 21
      vertex 17.2552 -11.927 21
      vertex 17.7951 -12.9389 21
    endloop
  endfacet
  facet normal -0 0 1
    outer loop
      vertex 16.9861 -12.3511 21
      vertex 17.7951 -12.9389 21
      vertex 17.2552 -11.927 21
    endloop
  endfacet
  facet normal 0 0 1
    outer loop
      vertex 17.7951 -12.9389 21
      vertex 16.9861 -12.3511 21
      vertex 17.3948 -13.4227 21
    endloop
  endfacet
  facet normal -0 0 1
    outer loop
      vertex 16.6659 -12.7382 21
      vertex 17.3948 -13.4227 21
      vertex 16.9861 -12.3511 21
    endloop
  endfacet
  facet normal 0 0 1
    outer loop
      vertex 17.3948 -13.4227 21
      vertex 16.6659 -12.7382 21
      vertex 16.9371 -13.8526 21
    endloop
  endfacet
  facet normal -0 0 1
    outer loop
      vertex 16.2997 -13.0821 21
      vertex 16.9371 -13.8526 21
      vertex 16.6659 -12.7382 21
    endloop
  endfacet
  facet normal 0 0 1
    outer loop
      vertex 16.9371 -13.8526 21
      vertex 16.2997 -13.0821 21
      vertex 16.4291 -14.2216 21
    endloop
  endfacet
  facet normal -0 0 1
    outer loop
      vertex 15.8933 -13.3773 21
      vertex 16.4291 -14.2216 21
      vertex 16.2997 -13.0821 21
    endloop
  endfacet
  facet normal 0 0 1
    outer loop
      vertex 15.8933 -13.3773 21
      vertex 15.8789 -14.5241 21
      vertex 16.4291 -14.2216 21
    endloop
  endfacet
  facet normal -0 0 1
    outer loop
      vertex 15.4531 -13.6193 21
      vertex 15.8789 -14.5241 21
      vertex 15.8933 -13.3773 21
    endloop
  endfacet
  facet normal 0 0 1
    outer loop
      vertex 15.4531 -13.6193 21
      vertex 15.2951 -14.7553 21
      vertex 15.8789 -14.5241 21
    endloop
  endfacet
  facet normal -0 0 1
    outer loop
      vertex 14.9861 -13.8042 21
      vertex 15.2951 -14.7553 21
      vertex 15.4531 -13.6193 21
    endloop
  endfacet
  facet normal 0 0 1
    outer loop
      vertex 14.9861 -13.8042 21
      vertex 14.6869 -14.9114 21
      vertex 15.2951 -14.7553 21
    endloop
  endfacet
  facet normal -0 0 1
    outer loop
      vertex 14.4995 -13.9291 21
      vertex 14.6869 -14.9114 21
      vertex 14.9861 -13.8042 21
    endloop
  endfacet
  facet normal 0 0 1
    outer loop
      vertex 14.4995 -13.9291 21
      vertex 14.064 -14.9901 21
      vertex 14.6869 -14.9114 21
    endloop
  endfacet
  facet normal -0 0 1
    outer loop
      vertex 14.0012 -13.9921 21
      vertex 14.064 -14.9901 21
      vertex 14.4995 -13.9291 21
    endloop
  endfacet
  facet normal -0 0 1
    outer loop
      vertex -14.0012 -13.9921 21
      vertex 14.064 -14.9901 21
      vertex 14.0012 -13.9921 21
    endloop
  endfacet
  facet normal 0 0 1
    outer loop
      vertex -14.0012 -13.9921 21
      vertex -14.064 -14.9901 21
      vertex 14.064 -14.9901 21
    endloop
  endfacet
  facet normal 0 0 1
    outer loop
      vertex -14.4995 -13.9291 21
      vertex -14.064 -14.9901 21
      vertex -14.0012 -13.9921 21
    endloop
  endfacet
  facet normal 0 0 1
    outer loop
      vertex -14.4995 -13.9291 21
      vertex -14.6869 -14.9114 21
      vertex -14.064 -14.9901 21
    endloop
  endfacet
  facet normal 0 0 1
    outer loop
      vertex -14.9861 -13.8042 21
      vertex -14.6869 -14.9114 21
      vertex -14.4995 -13.9291 21
    endloop
  endfacet
  facet normal 0 0 1
    outer loop
      vertex -14.9861 -13.8042 21
      vertex -15.2951 -14.7553 21
      vertex -14.6869 -14.9114 21
    endloop
  endfacet
  facet normal 0 0 1
    outer loop
      vertex -15.4531 -13.6193 21
      vertex -15.2951 -14.7553 21
      vertex -14.9861 -13.8042 21
    endloop
  endfacet
  facet normal 0 0 1
    outer loop
      vertex -15.4531 -13.6193 21
      vertex -15.8789 -14.5241 21
      vertex -15.2951 -14.7553 21
    endloop
  endfacet
  facet normal 0 0 1
    outer loop
      vertex -15.8933 -13.3773 21
      vertex -15.8789 -14.5241 21
      vertex -15.4531 -13.6193 21
    endloop
  endfacet
  facet normal 0 0 1
    outer loop
      vertex -16.4291 -14.2216 21
      vertex -15.8933 -13.3773 21
      vertex -16.2997 -13.0821 21
    endloop
  endfacet
  facet normal 0 0 1
    outer loop
      vertex -15.8933 -13.3773 21
      vertex -16.4291 -14.2216 21
      vertex -15.8789 -14.5241 21
    endloop
  endfacet
  facet normal 0 0 1
    outer loop
      vertex -16.9371 -13.8526 21
      vertex -16.2997 -13.0821 21
      vertex -16.6659 -12.7382 21
    endloop
  endfacet
  facet normal 0 0 1
    outer loop
      vertex -16.2997 -13.0821 21
      vertex -16.9371 -13.8526 21
      vertex -16.4291 -14.2216 21
    endloop
  endfacet
  facet normal 0 0 1
    outer loop
      vertex -17.3948 -13.4227 21
      vertex -16.6659 -12.7382 21
      vertex -16.9861 -12.3511 21
    endloop
  endfacet
  facet normal 0 0 1
    outer loop
      vertex -17.7951 -12.9389 21
      vertex -16.9861 -12.3511 21
      vertex -17.2552 -11.927 21
    endloop
  endfacet
  facet normal 0 0 1
    outer loop
      vertex -16.6659 -12.7382 21
      vertex -17.3948 -13.4227 21
      vertex -16.9371 -13.8526 21
    endloop
  endfacet
  facet normal 0 0 1
    outer loop
      vertex -18.1315 -12.4088 21
      vertex -17.2552 -11.927 21
      vertex -17.4691 -11.4725 21
    endloop
  endfacet
  facet normal 0 0 1
    outer loop
      vertex -18.3989 -11.8406 21
      vertex -17.4691 -11.4725 21
      vertex -17.6243 -10.9948 21
    endloop
  endfacet
  facet normal 0 0 1
    outer loop
      vertex -18.5929 -11.2434 21
      vertex -17.6243 -10.9948 21
      vertex -17.7185 -10.5013 21
    endloop
  endfacet
  facet normal 0 0 1
    outer loop
      vertex -16.9861 -12.3511 21
      vertex -17.7951 -12.9389 21
      vertex -17.3948 -13.4227 21
    endloop
  endfacet
  facet normal 0 0 1
    outer loop
      vertex -18.7106 -10.6267 21
      vertex -17.7185 -10.5013 21
      vertex -17.75 -10 21
    endloop
  endfacet
  facet normal 0 0 1
    outer loop
      vertex -17.75 10 21
      vertex -18.75 10 21
      vertex -17.75 -10 21
    endloop
  endfacet
  facet normal 0 0 1
    outer loop
      vertex -17.6243 10.9948 21
      vertex -18.5929 11.2434 21
      vertex -17.7185 10.5013 21
    endloop
  endfacet
  facet normal 0 0 1
    outer loop
      vertex -18.75 -10 21
      vertex -17.75 -10 21
      vertex -18.75 10 21
    endloop
  endfacet
  facet normal -0 0 1
    outer loop
      vertex -18.7106 10.6267 21
      vertex -17.7185 10.5013 21
      vertex -18.5929 11.2434 21
    endloop
  endfacet
  facet normal 0 -0 1
    outer loop
      vertex -18.7106 -10.6267 21
      vertex -17.75 -10 21
      vertex -18.75 -10 21
    endloop
  endfacet
  facet normal 0 0 1
    outer loop
      vertex -17.7185 10.5013 21
      vertex -18.7106 10.6267 21
      vertex -17.75 10 21
    endloop
  endfacet
  facet normal 0 0 1
    outer loop
      vertex -17.2552 -11.927 21
      vertex -18.1315 -12.4088 21
      vertex -17.7951 -12.9389 21
    endloop
  endfacet
  facet normal 0 0 1
    outer loop
      vertex -17.75 10 21
      vertex -18.7106 10.6267 21
      vertex -18.75 10 21
    endloop
  endfacet
  facet normal 0 0 1
    outer loop
      vertex -17.4691 -11.4725 21
      vertex -18.3989 -11.8406 21
      vertex -18.1315 -12.4088 21
    endloop
  endfacet
  facet normal 0 0 1
    outer loop
      vertex -17.6243 -10.9948 21
      vertex -18.5929 -11.2434 21
      vertex -18.3989 -11.8406 21
    endloop
  endfacet
  facet normal 0 0 1
    outer loop
      vertex -17.7185 -10.5013 21
      vertex -18.7106 -10.6267 21
      vertex -18.5929 -11.2434 21
    endloop
  endfacet
  facet normal -0.904811 -0.425812 0
    outer loop
      vertex -18.1315 -12.4088 0
      vertex -18.3989 -11.8406 21
      vertex -18.3989 -11.8406 0
    endloop
  endfacet
  facet normal -0.904811 -0.425812 0
    outer loop
      vertex -18.3989 -11.8406 21
      vertex -18.1315 -12.4088 0
      vertex -18.1315 -12.4088 21
    endloop
  endfacet
  facet normal 0 -1 0
    outer loop
      vertex -14.064 -14.9901 0
      vertex 14.064 -14.9901 21
      vertex -14.064 -14.9901 21
    endloop
  endfacet
  facet normal 0 -1 -0
    outer loop
      vertex 14.064 -14.9901 21
      vertex -14.064 -14.9901 0
      vertex 14.064 -14.9901 0
    endloop
  endfacet
  facet normal 1 -0 0
    outer loop
      vertex 18.75 -10 21
      vertex 18.75 10 0
      vertex 18.75 10 21
    endloop
  endfacet
  facet normal 1 0 0
    outer loop
      vertex 18.75 10 0
      vertex 18.75 -10 21
      vertex 18.75 -10 0
    endloop
  endfacet
  facet normal -0.904811 0.425812 0
    outer loop
      vertex -18.3989 11.8406 0
      vertex -18.1315 12.4088 21
      vertex -18.1315 12.4088 0
    endloop
  endfacet
  facet normal -0.904811 0.425812 0
    outer loop
      vertex -18.1315 12.4088 21
      vertex -18.3989 11.8406 0
      vertex -18.3989 11.8406 21
    endloop
  endfacet
  facet normal -0.770462 0.637486 0
    outer loop
      vertex -17.7951 12.9389 0
      vertex -17.3948 13.4227 21
      vertex -17.3948 13.4227 0
    endloop
  endfacet
  facet normal -0.770462 0.637486 0
    outer loop
      vertex -17.3948 13.4227 21
      vertex -17.7951 12.9389 0
      vertex -17.7951 12.9389 21
    endloop
  endfacet
  facet normal -0.951076 0.308956 0
    outer loop
      vertex -18.5929 11.2434 0
      vertex -18.3989 11.8406 21
      vertex -18.3989 11.8406 0
    endloop
  endfacet
  facet normal -0.951076 0.308956 0
    outer loop
      vertex -18.3989 11.8406 21
      vertex -18.5929 11.2434 0
      vertex -18.5929 11.2434 21
    endloop
  endfacet
  facet normal 0.99803 0.0627451 0
    outer loop
      vertex 18.75 10 21
      vertex 18.7106 10.6267 0
      vertex 18.7106 10.6267 21
    endloop
  endfacet
  facet normal 0.99803 0.0627451 0
    outer loop
      vertex 18.7106 10.6267 0
      vertex 18.75 10 21
      vertex 18.75 10 0
    endloop
  endfacet
  facet normal 0.481784 0.87629 -0
    outer loop
      vertex 16.4291 14.2216 0
      vertex 15.8789 14.5241 21
      vertex 16.4291 14.2216 21
    endloop
  endfacet
  facet normal 0.481784 0.87629 0
    outer loop
      vertex 15.8789 14.5241 21
      vertex 16.4291 14.2216 0
      vertex 15.8789 14.5241 0
    endloop
  endfacet
  facet normal -0.248601 0.968606 0
    outer loop
      vertex -14.6869 14.9114 0
      vertex -15.2951 14.7553 21
      vertex -14.6869 14.9114 21
    endloop
  endfacet
  facet normal -0.248601 0.968606 0
    outer loop
      vertex -15.2951 14.7553 21
      vertex -14.6869 14.9114 0
      vertex -15.2951 14.7553 0
    endloop
  endfacet
  facet normal -0.125348 -0.992113 0
    outer loop
      vertex -14.6869 -14.9114 0
      vertex -14.064 -14.9901 21
      vertex -14.6869 -14.9114 21
    endloop
  endfacet
  facet normal -0.125348 -0.992113 -0
    outer loop
      vertex -14.064 -14.9901 21
      vertex -14.6869 -14.9114 0
      vertex -14.064 -14.9901 0
    endloop
  endfacet
  facet normal 0.770462 -0.637486 0
    outer loop
      vertex 17.3948 -13.4227 21
      vertex 17.7951 -12.9389 0
      vertex 17.7951 -12.9389 21
    endloop
  endfacet
  facet normal 0.770462 -0.637486 0
    outer loop
      vertex 17.7951 -12.9389 0
      vertex 17.3948 -13.4227 21
      vertex 17.3948 -13.4227 0
    endloop
  endfacet
  facet normal -0.98227 0.187471 0
    outer loop
      vertex -18.7106 10.6267 0
      vertex -18.5929 11.2434 21
      vertex -18.5929 11.2434 0
    endloop
  endfacet
  facet normal -0.98227 0.187471 0
    outer loop
      vertex -18.5929 11.2434 21
      vertex -18.7106 10.6267 0
      vertex -18.7106 10.6267 21
    endloop
  endfacet
  facet normal -0.684624 0.728896 0
    outer loop
      vertex -16.9371 13.8526 0
      vertex -17.3948 13.4227 21
      vertex -16.9371 13.8526 21
    endloop
  endfacet
  facet normal -0.684624 0.728896 0
    outer loop
      vertex -17.3948 13.4227 21
      vertex -16.9371 13.8526 0
      vertex -17.3948 13.4227 0
    endloop
  endfacet
  facet normal -0.844336 0.535814 0
    outer loop
      vertex -18.1315 12.4088 0
      vertex -17.7951 12.9389 21
      vertex -17.7951 12.9389 0
    endloop
  endfacet
  facet normal -0.844336 0.535814 0
    outer loop
      vertex -17.7951 12.9389 21
      vertex -18.1315 12.4088 0
      vertex -18.1315 12.4088 21
    endloop
  endfacet
  facet normal 0.770462 0.637486 0
    outer loop
      vertex 17.7951 12.9389 21
      vertex 17.3948 13.4227 0
      vertex 17.3948 13.4227 21
    endloop
  endfacet
  facet normal 0.770462 0.637486 0
    outer loop
      vertex 17.3948 13.4227 0
      vertex 17.7951 12.9389 21
      vertex 17.7951 12.9389 0
    endloop
  endfacet
  facet normal -0.125348 0.992113 0
    outer loop
      vertex -14.064 14.9901 0
      vertex -14.6869 14.9114 21
      vertex -14.064 14.9901 21
    endloop
  endfacet
  facet normal -0.125348 0.992113 0
    outer loop
      vertex -14.6869 14.9114 21
      vertex -14.064 14.9901 0
      vertex -14.6869 14.9114 0
    endloop
  endfacet
  facet normal 0 1 -0
    outer loop
      vertex 14.064 14.9901 0
      vertex -14.064 14.9901 21
      vertex 14.064 14.9901 21
    endloop
  endfacet
  facet normal 0 1 0
    outer loop
      vertex -14.064 14.9901 21
      vertex 14.064 14.9901 0
      vertex -14.064 14.9901 0
    endloop
  endfacet
  facet normal -0.248601 -0.968606 0
    outer loop
      vertex -15.2951 -14.7553 0
      vertex -14.6869 -14.9114 21
      vertex -15.2951 -14.7553 21
    endloop
  endfacet
  facet normal -0.248601 -0.968606 -0
    outer loop
      vertex -14.6869 -14.9114 21
      vertex -15.2951 -14.7553 0
      vertex -14.6869 -14.9114 0
    endloop
  endfacet
  facet normal 0.951076 -0.308956 0
    outer loop
      vertex 18.3989 -11.8406 21
      vertex 18.5929 -11.2434 0
      vertex 18.5929 -11.2434 21
    endloop
  endfacet
  facet normal 0.951076 -0.308956 0
    outer loop
      vertex 18.5929 -11.2434 0
      vertex 18.3989 -11.8406 21
      vertex 18.3989 -11.8406 0
    endloop
  endfacet
  facet normal 0.98227 -0.187471 0
    outer loop
      vertex 18.5929 -11.2434 21
      vertex 18.7106 -10.6267 0
      vertex 18.7106 -10.6267 21
    endloop
  endfacet
  facet normal 0.98227 -0.187471 0
    outer loop
      vertex 18.7106 -10.6267 0
      vertex 18.5929 -11.2434 21
      vertex 18.5929 -11.2434 0
    endloop
  endfacet
  facet normal 0.844336 -0.535814 0
    outer loop
      vertex 17.7951 -12.9389 21
      vertex 18.1315 -12.4088 0
      vertex 18.1315 -12.4088 21
    endloop
  endfacet
  facet normal 0.844336 -0.535814 0
    outer loop
      vertex 18.1315 -12.4088 0
      vertex 17.7951 -12.9389 21
      vertex 17.7951 -12.9389 0
    endloop
  endfacet
  facet normal -0.481784 0.87629 0
    outer loop
      vertex -15.8789 14.5241 0
      vertex -16.4291 14.2216 21
      vertex -15.8789 14.5241 21
    endloop
  endfacet
  facet normal -0.481784 0.87629 0
    outer loop
      vertex -16.4291 14.2216 21
      vertex -15.8789 14.5241 0
      vertex -16.4291 14.2216 0
    endloop
  endfacet
  facet normal -0.587698 0.80908 0
    outer loop
      vertex -16.4291 14.2216 0
      vertex -16.9371 13.8526 21
      vertex -16.4291 14.2216 21
    endloop
  endfacet
  facet normal -0.587698 0.80908 0
    outer loop
      vertex -16.9371 13.8526 21
      vertex -16.4291 14.2216 0
      vertex -16.9371 13.8526 0
    endloop
  endfacet
  facet normal 0.951076 0.308956 0
    outer loop
      vertex 18.5929 11.2434 21
      vertex 18.3989 11.8406 0
      vertex 18.3989 11.8406 21
    endloop
  endfacet
  facet normal 0.951076 0.308956 0
    outer loop
      vertex 18.3989 11.8406 0
      vertex 18.5929 11.2434 21
      vertex 18.5929 11.2434 0
    endloop
  endfacet
  facet normal 0.368203 0.929745 -0
    outer loop
      vertex 15.8789 14.5241 0
      vertex 15.2951 14.7553 21
      vertex 15.8789 14.5241 21
    endloop
  endfacet
  facet normal 0.368203 0.929745 0
    outer loop
      vertex 15.2951 14.7553 21
      vertex 15.8789 14.5241 0
      vertex 15.2951 14.7553 0
    endloop
  endfacet
  facet normal 0.684624 0.728896 -0
    outer loop
      vertex 17.3948 13.4227 0
      vertex 16.9371 13.8526 21
      vertex 17.3948 13.4227 21
    endloop
  endfacet
  facet normal 0.684624 0.728896 0
    outer loop
      vertex 16.9371 13.8526 21
      vertex 17.3948 13.4227 0
      vertex 16.9371 13.8526 0
    endloop
  endfacet
  facet normal 0.248601 0.968606 -0
    outer loop
      vertex 15.2951 14.7553 0
      vertex 14.6869 14.9114 21
      vertex 15.2951 14.7553 21
    endloop
  endfacet
  facet normal 0.248601 0.968606 0
    outer loop
      vertex 14.6869 14.9114 21
      vertex 15.2951 14.7553 0
      vertex 14.6869 14.9114 0
    endloop
  endfacet
  facet normal 0 0 -1
    outer loop
      vertex 14.064 -14.9901 0
      vertex 18.75 -10 0
      vertex 18.7106 -10.6267 0
    endloop
  endfacet
  facet normal -0 0 -1
    outer loop
      vertex 18.75 -10 0
      vertex 14.064 -14.9901 0
      vertex 18.75 10 0
    endloop
  endfacet
  facet normal 0 0 -1
    outer loop
      vertex 14.064 -14.9901 0
      vertex 18.7106 -10.6267 0
      vertex 18.5929 -11.2434 0
    endloop
  endfacet
  facet normal 0 0 -1
    outer loop
      vertex 14.064 14.9901 0
      vertex 18.75 10 0
      vertex 14.064 -14.9901 0
    endloop
  endfacet
  facet normal 0 0 -1
    outer loop
      vertex 14.064 -14.9901 0
      vertex 18.5929 -11.2434 0
      vertex 18.3989 -11.8406 0
    endloop
  endfacet
  facet normal 0 0 -1
    outer loop
      vertex 18.75 10 0
      vertex 14.064 14.9901 0
      vertex 18.7106 10.6267 0
    endloop
  endfacet
  facet normal 0 0 -1
    outer loop
      vertex 14.064 -14.9901 0
      vertex 18.3989 -11.8406 0
      vertex 18.1315 -12.4088 0
    endloop
  endfacet
  facet normal 0 0 -1
    outer loop
      vertex 18.7106 10.6267 0
      vertex 14.064 14.9901 0
      vertex 18.5929 11.2434 0
    endloop
  endfacet
  facet normal 0 0 -1
    outer loop
      vertex 14.064 -14.9901 0
      vertex 18.1315 -12.4088 0
      vertex 17.7951 -12.9389 0
    endloop
  endfacet
  facet normal 0 0 -1
    outer loop
      vertex 18.5929 11.2434 0
      vertex 14.064 14.9901 0
      vertex 18.3989 11.8406 0
    endloop
  endfacet
  facet normal 0 0 -1
    outer loop
      vertex 14.064 -14.9901 0
      vertex 17.7951 -12.9389 0
      vertex 17.3948 -13.4227 0
    endloop
  endfacet
  facet normal 0 0 -1
    outer loop
      vertex 18.3989 11.8406 0
      vertex 14.064 14.9901 0
      vertex 18.1315 12.4088 0
    endloop
  endfacet
  facet normal 0 0 -1
    outer loop
      vertex 14.064 -14.9901 0
      vertex 17.3948 -13.4227 0
      vertex 16.9371 -13.8526 0
    endloop
  endfacet
  facet normal 0 0 -1
    outer loop
      vertex 18.1315 12.4088 0
      vertex 14.064 14.9901 0
      vertex 17.7951 12.9389 0
    endloop
  endfacet
  facet normal 0 0 -1
    outer loop
      vertex 14.064 -14.9901 0
      vertex 16.9371 -13.8526 0
      vertex 16.4291 -14.2216 0
    endloop
  endfacet
  facet normal 0 0 -1
    outer loop
      vertex 17.7951 12.9389 0
      vertex 14.064 14.9901 0
      vertex 17.3948 13.4227 0
    endloop
  endfacet
  facet normal 0 0 -1
    outer loop
      vertex 14.064 -14.9901 0
      vertex 16.4291 -14.2216 0
      vertex 15.8789 -14.5241 0
    endloop
  endfacet
  facet normal 0 0 -1
    outer loop
      vertex 17.3948 13.4227 0
      vertex 14.064 14.9901 0
      vertex 16.9371 13.8526 0
    endloop
  endfacet
  facet normal 0 0 -1
    outer loop
      vertex 14.064 -14.9901 0
      vertex 15.8789 -14.5241 0
      vertex 15.2951 -14.7553 0
    endloop
  endfacet
  facet normal 0 0 -1
    outer loop
      vertex 16.9371 13.8526 0
      vertex 14.064 14.9901 0
      vertex 16.4291 14.2216 0
    endloop
  endfacet
  facet normal 0 0 -1
    outer loop
      vertex 14.064 -14.9901 0
      vertex 15.2951 -14.7553 0
      vertex 14.6869 -14.9114 0
    endloop
  endfacet
  facet normal 0 0 -1
    outer loop
      vertex 16.4291 14.2216 0
      vertex 14.064 14.9901 0
      vertex 15.8789 14.5241 0
    endloop
  endfacet
  facet normal 0 0 -1
    outer loop
      vertex 15.8789 14.5241 0
      vertex 14.064 14.9901 0
      vertex 15.2951 14.7553 0
    endloop
  endfacet
  facet normal 0 0 -1
    outer loop
      vertex 15.2951 14.7553 0
      vertex 14.064 14.9901 0
      vertex 14.6869 14.9114 0
    endloop
  endfacet
  facet normal 0 0 -1
    outer loop
      vertex -14.064 -14.9901 0
      vertex 14.064 14.9901 0
      vertex 14.064 -14.9901 0
    endloop
  endfacet
  facet normal 0 0 -1
    outer loop
      vertex -14.064 -14.9901 0
      vertex -14.064 14.9901 0
      vertex 14.064 14.9901 0
    endloop
  endfacet
  facet normal 0 0 -1
    outer loop
      vertex -18.75 -10 0
      vertex -14.064 -14.9901 0
      vertex -14.6869 -14.9114 0
    endloop
  endfacet
  facet normal 0 0 -1
    outer loop
      vertex -14.064 -14.9901 0
      vertex -18.75 -10 0
      vertex -14.064 14.9901 0
    endloop
  endfacet
  facet normal 0 0 -1
    outer loop
      vertex -18.75 -10 0
      vertex -14.6869 -14.9114 0
      vertex -15.2951 -14.7553 0
    endloop
  endfacet
  facet normal 0 0 -1
    outer loop
      vertex -18.75 10 0
      vertex -14.064 14.9901 0
      vertex -18.75 -10 0
    endloop
  endfacet
  facet normal 0 0 -1
    outer loop
      vertex -18.75 -10 0
      vertex -15.2951 -14.7553 0
      vertex -15.8789 -14.5241 0
    endloop
  endfacet
  facet normal 0 0 -1
    outer loop
      vertex -14.064 14.9901 0
      vertex -18.75 10 0
      vertex -14.6869 14.9114 0
    endloop
  endfacet
  facet normal 0 0 -1
    outer loop
      vertex -18.75 -10 0
      vertex -15.8789 -14.5241 0
      vertex -16.4291 -14.2216 0
    endloop
  endfacet
  facet normal 0 0 -1
    outer loop
      vertex -14.6869 14.9114 0
      vertex -18.75 10 0
      vertex -15.2951 14.7553 0
    endloop
  endfacet
  facet normal 0 0 -1
    outer loop
      vertex -18.75 -10 0
      vertex -16.4291 -14.2216 0
      vertex -16.9371 -13.8526 0
    endloop
  endfacet
  facet normal 0 0 -1
    outer loop
      vertex -15.2951 14.7553 0
      vertex -18.75 10 0
      vertex -15.8789 14.5241 0
    endloop
  endfacet
  facet normal 0 0 -1
    outer loop
      vertex -18.75 -10 0
      vertex -16.9371 -13.8526 0
      vertex -17.3948 -13.4227 0
    endloop
  endfacet
  facet normal 0 0 -1
    outer loop
      vertex -15.8789 14.5241 0
      vertex -18.75 10 0
      vertex -16.4291 14.2216 0
    endloop
  endfacet
  facet normal 0 0 -1
    outer loop
      vertex -18.75 -10 0
      vertex -17.3948 -13.4227 0
      vertex -17.7951 -12.9389 0
    endloop
  endfacet
  facet normal 0 0 -1
    outer loop
      vertex -16.4291 14.2216 0
      vertex -18.75 10 0
      vertex -16.9371 13.8526 0
    endloop
  endfacet
  facet normal 0 0 -1
    outer loop
      vertex -18.75 -10 0
      vertex -17.7951 -12.9389 0
      vertex -18.1315 -12.4088 0
    endloop
  endfacet
  facet normal 0 0 -1
    outer loop
      vertex -16.9371 13.8526 0
      vertex -18.75 10 0
      vertex -17.3948 13.4227 0
    endloop
  endfacet
  facet normal 0 0 -1
    outer loop
      vertex -18.75 -10 0
      vertex -18.1315 -12.4088 0
      vertex -18.3989 -11.8406 0
    endloop
  endfacet
  facet normal 0 0 -1
    outer loop
      vertex -17.3948 13.4227 0
      vertex -18.75 10 0
      vertex -17.7951 12.9389 0
    endloop
  endfacet
  facet normal 0 0 -1
    outer loop
      vertex -18.75 -10 0
      vertex -18.3989 -11.8406 0
      vertex -18.5929 -11.2434 0
    endloop
  endfacet
  facet normal 0 0 -1
    outer loop
      vertex -17.7951 12.9389 0
      vertex -18.75 10 0
      vertex -18.1315 12.4088 0
    endloop
  endfacet
  facet normal 0 0 -1
    outer loop
      vertex -18.75 -10 0
      vertex -18.5929 -11.2434 0
      vertex -18.7106 -10.6267 0
    endloop
  endfacet
  facet normal 0 0 -1
    outer loop
      vertex -18.1315 12.4088 0
      vertex -18.75 10 0
      vertex -18.3989 11.8406 0
    endloop
  endfacet
  facet normal 0 0 -1
    outer loop
      vertex -18.3989 11.8406 0
      vertex -18.75 10 0
      vertex -18.5929 11.2434 0
    endloop
  endfacet
  facet normal 0 0 -1
    outer loop
      vertex -18.5929 11.2434 0
      vertex -18.75 10 0
      vertex -18.7106 10.6267 0
    endloop
  endfacet
  facet normal -0.951076 -0.308956 0
    outer loop
      vertex -18.3989 -11.8406 0
      vertex -18.5929 -11.2434 21
      vertex -18.5929 -11.2434 0
    endloop
  endfacet
  facet normal -0.951076 -0.308956 0
    outer loop
      vertex -18.5929 -11.2434 21
      vertex -18.3989 -11.8406 0
      vertex -18.3989 -11.8406 21
    endloop
  endfacet
  facet normal -0.770462 -0.637486 0
    outer loop
      vertex -17.3948 -13.4227 0
      vertex -17.7951 -12.9389 21
      vertex -17.7951 -12.9389 0
    endloop
  endfacet
  facet normal -0.770462 -0.637486 0
    outer loop
      vertex -17.7951 -12.9389 21
      vertex -17.3948 -13.4227 0
      vertex -17.3948 -13.4227 21
    endloop
  endfacet
  facet normal -0.368203 -0.929745 0
    outer loop
      vertex -15.8789 -14.5241 0
      vertex -15.2951 -14.7553 21
      vertex -15.8789 -14.5241 21
    endloop
  endfacet
  facet normal -0.368203 -0.929745 -0
    outer loop
      vertex -15.2951 -14.7553 21
      vertex -15.8789 -14.5241 0
      vertex -15.2951 -14.7553 0
    endloop
  endfacet
  facet normal -0.684624 -0.728896 0
    outer loop
      vertex -17.3948 -13.4227 0
      vertex -16.9371 -13.8526 21
      vertex -17.3948 -13.4227 21
    endloop
  endfacet
  facet normal -0.684624 -0.728896 -0
    outer loop
      vertex -16.9371 -13.8526 21
      vertex -17.3948 -13.4227 0
      vertex -16.9371 -13.8526 0
    endloop
  endfacet
  facet normal 0.99803 -0.0627451 0
    outer loop
      vertex 18.7106 -10.6267 21
      vertex 18.75 -10 0
      vertex 18.75 -10 21
    endloop
  endfacet
  facet normal 0.99803 -0.0627451 0
    outer loop
      vertex 18.75 -10 0
      vertex 18.7106 -10.6267 21
      vertex 18.7106 -10.6267 0
    endloop
  endfacet
  facet normal 0.904811 -0.425812 0
    outer loop
      vertex 18.1315 -12.4088 21
      vertex 18.3989 -11.8406 0
      vertex 18.3989 -11.8406 21
    endloop
  endfacet
  facet normal 0.904811 -0.425812 0
    outer loop
      vertex 18.3989 -11.8406 0
      vertex 18.1315 -12.4088 21
      vertex 18.1315 -12.4088 0
    endloop
  endfacet
  facet normal 0.98227 0.187471 0
    outer loop
      vertex 18.7106 10.6267 21
      vertex 18.5929 11.2434 0
      vertex 18.5929 11.2434 21
    endloop
  endfacet
  facet normal 0.98227 0.187471 0
    outer loop
      vertex 18.5929 11.2434 0
      vertex 18.7106 10.6267 21
      vertex 18.7106 10.6267 0
    endloop
  endfacet
  facet normal 0.904811 0.425812 0
    outer loop
      vertex 18.3989 11.8406 21
      vertex 18.1315 12.4088 0
      vertex 18.1315 12.4088 21
    endloop
  endfacet
  facet normal 0.904811 0.425812 0
    outer loop
      vertex 18.1315 12.4088 0
      vertex 18.3989 11.8406 21
      vertex 18.3989 11.8406 0
    endloop
  endfacet
  facet normal 0.844336 0.535814 0
    outer loop
      vertex 18.1315 12.4088 21
      vertex 17.7951 12.9389 0
      vertex 17.7951 12.9389 21
    endloop
  endfacet
  facet normal 0.844336 0.535814 0
    outer loop
      vertex 17.7951 12.9389 0
      vertex 18.1315 12.4088 21
      vertex 18.1315 12.4088 0
    endloop
  endfacet
  facet normal 0.587698 0.80908 -0
    outer loop
      vertex 16.9371 13.8526 0
      vertex 16.4291 14.2216 21
      vertex 16.9371 13.8526 21
    endloop
  endfacet
  facet normal 0.587698 0.80908 0
    outer loop
      vertex 16.4291 14.2216 21
      vertex 16.9371 13.8526 0
      vertex 16.4291 14.2216 0
    endloop
  endfacet
  facet normal 0.125348 0.992113 -0
    outer loop
      vertex 14.6869 14.9114 0
      vertex 14.064 14.9901 21
      vertex 14.6869 14.9114 21
    endloop
  endfacet
  facet normal 0.125348 0.992113 0
    outer loop
      vertex 14.064 14.9901 21
      vertex 14.6869 14.9114 0
      vertex 14.064 14.9901 0
    endloop
  endfacet
  facet normal -0.98227 -0.187471 0
    outer loop
      vertex -18.5929 -11.2434 0
      vertex -18.7106 -10.6267 21
      vertex -18.7106 -10.6267 0
    endloop
  endfacet
  facet normal -0.98227 -0.187471 0
    outer loop
      vertex -18.7106 -10.6267 21
      vertex -18.5929 -11.2434 0
      vertex -18.5929 -11.2434 21
    endloop
  endfacet
  facet normal -0.844336 -0.535814 0
    outer loop
      vertex -17.7951 -12.9389 0
      vertex -18.1315 -12.4088 21
      vertex -18.1315 -12.4088 0
    endloop
  endfacet
  facet normal -0.844336 -0.535814 0
    outer loop
      vertex -18.1315 -12.4088 21
      vertex -17.7951 -12.9389 0
      vertex -17.7951 -12.9389 21
    endloop
  endfacet
  facet normal -0.481784 -0.87629 0
    outer loop
      vertex -16.4291 -14.2216 0
      vertex -15.8789 -14.5241 21
      vertex -16.4291 -14.2216 21
    endloop
  endfacet
  facet normal -0.481784 -0.87629 -0
    outer loop
      vertex -15.8789 -14.5241 21
      vertex -16.4291 -14.2216 0
      vertex -15.8789 -14.5241 0
    endloop
  endfacet
  facet normal -0.587698 -0.80908 0
    outer loop
      vertex -16.9371 -13.8526 0
      vertex -16.4291 -14.2216 21
      vertex -16.9371 -13.8526 21
    endloop
  endfacet
  facet normal -0.587698 -0.80908 -0
    outer loop
      vertex -16.4291 -14.2216 21
      vertex -16.9371 -13.8526 0
      vertex -16.4291 -14.2216 0
    endloop
  endfacet
  facet normal 0.248601 -0.968606 0
    outer loop
      vertex 14.6869 -14.9114 0
      vertex 15.2951 -14.7553 21
      vertex 14.6869 -14.9114 21
    endloop
  endfacet
  facet normal 0.248601 -0.968606 0
    outer loop
      vertex 15.2951 -14.7553 21
      vertex 14.6869 -14.9114 0
      vertex 15.2951 -14.7553 0
    endloop
  endfacet
  facet normal 0.587698 -0.80908 0
    outer loop
      vertex 16.4291 -14.2216 0
      vertex 16.9371 -13.8526 21
      vertex 16.4291 -14.2216 21
    endloop
  endfacet
  facet normal 0.587698 -0.80908 0
    outer loop
      vertex 16.9371 -13.8526 21
      vertex 16.4291 -14.2216 0
      vertex 16.9371 -13.8526 0
    endloop
  endfacet
  facet normal 0.125348 -0.992113 0
    outer loop
      vertex 14.064 -14.9901 0
      vertex 14.6869 -14.9114 21
      vertex 14.064 -14.9901 21
    endloop
  endfacet
  facet normal 0.125348 -0.992113 0
    outer loop
      vertex 14.6869 -14.9114 21
      vertex 14.064 -14.9901 0
      vertex 14.6869 -14.9114 0
    endloop
  endfacet
  facet normal 0.684624 -0.728896 0
    outer loop
      vertex 16.9371 -13.8526 0
      vertex 17.3948 -13.4227 21
      vertex 16.9371 -13.8526 21
    endloop
  endfacet
  facet normal 0.684624 -0.728896 0
    outer loop
      vertex 17.3948 -13.4227 21
      vertex 16.9371 -13.8526 0
      vertex 17.3948 -13.4227 0
    endloop
  endfacet
  facet normal 0.481784 -0.87629 0
    outer loop
      vertex 15.8789 -14.5241 0
      vertex 16.4291 -14.2216 21
      vertex 15.8789 -14.5241 21
    endloop
  endfacet
  facet normal 0.481784 -0.87629 0
    outer loop
      vertex 16.4291 -14.2216 21
      vertex 15.8789 -14.5241 0
      vertex 16.4291 -14.2216 0
    endloop
  endfacet
  facet normal 0.368203 -0.929745 0
    outer loop
      vertex 15.2951 -14.7553 0
      vertex 15.8789 -14.5241 21
      vertex 15.2951 -14.7553 21
    endloop
  endfacet
  facet normal 0.368203 -0.929745 0
    outer loop
      vertex 15.8789 -14.5241 21
      vertex 15.2951 -14.7553 0
      vertex 15.8789 -14.5241 0
    endloop
  endfacet
  facet normal 1 -0 0
    outer loop
      vertex -17.75 -10 21
      vertex -17.75 10 2
      vertex -17.75 10 21
    endloop
  endfacet
  facet normal 1 0 0
    outer loop
      vertex -17.75 10 2
      vertex -17.75 -10 21
      vertex -17.75 -10 2
    endloop
  endfacet
  facet normal -0.770549 -0.63738 0
    outer loop
      vertex 16.9861 12.3511 2
      vertex 16.6659 12.7382 21
      vertex 16.6659 12.7382 2
    endloop
  endfacet
  facet normal -0.770549 -0.63738 0
    outer loop
      vertex 16.6659 12.7382 21
      vertex 16.9861 12.3511 2
      vertex 16.9861 12.3511 21
    endloop
  endfacet
  facet normal -1 0 0
    outer loop
      vertex 17.75 -10 2
      vertex 17.75 10 21
      vertex 17.75 10 2
    endloop
  endfacet
  facet normal -1 -0 0
    outer loop
      vertex 17.75 10 21
      vertex 17.75 -10 2
      vertex 17.75 -10 21
    endloop
  endfacet
  facet normal 0.951065 -0.308992 0
    outer loop
      vertex -17.6243 10.9948 21
      vertex -17.4691 11.4725 2
      vertex -17.4691 11.4725 21
    endloop
  endfacet
  facet normal 0.951065 -0.308992 0
    outer loop
      vertex -17.4691 11.4725 2
      vertex -17.6243 10.9948 21
      vertex -17.6243 10.9948 2
    endloop
  endfacet
  facet normal 0.481751 -0.876308 0
    outer loop
      vertex -15.8933 13.3773 2
      vertex -15.4531 13.6193 21
      vertex -15.8933 13.3773 21
    endloop
  endfacet
  facet normal 0.481751 -0.876308 0
    outer loop
      vertex -15.4531 13.6193 21
      vertex -15.8933 13.3773 2
      vertex -15.4531 13.6193 2
    endloop
  endfacet
  facet normal 0 -1 0
    outer loop
      vertex -14.0012 13.9921 2
      vertex 14.0012 13.9921 21
      vertex -14.0012 13.9921 21
    endloop
  endfacet
  facet normal 0 -1 -0
    outer loop
      vertex 14.0012 13.9921 21
      vertex -14.0012 13.9921 2
      vertex 14.0012 13.9921 2
    endloop
  endfacet
  facet normal 0.368127 -0.929775 0
    outer loop
      vertex -15.4531 13.6193 2
      vertex -14.9861 13.8042 21
      vertex -15.4531 13.6193 21
    endloop
  endfacet
  facet normal 0.368127 -0.929775 0
    outer loop
      vertex -14.9861 13.8042 21
      vertex -15.4531 13.6193 2
      vertex -14.9861 13.8042 2
    endloop
  endfacet
  facet normal 0 1 -0
    outer loop
      vertex 14.0012 -13.9921 2
      vertex -14.0012 -13.9921 21
      vertex 14.0012 -13.9921 21
    endloop
  endfacet
  facet normal 0 1 0
    outer loop
      vertex -14.0012 -13.9921 21
      vertex 14.0012 -13.9921 2
      vertex -14.0012 -13.9921 2
    endloop
  endfacet
  facet normal -0.587698 0.80908 0
    outer loop
      vertex 16.2997 -13.0821 2
      vertex 15.8933 -13.3773 21
      vertex 16.2997 -13.0821 21
    endloop
  endfacet
  facet normal -0.587698 0.80908 0
    outer loop
      vertex 15.8933 -13.3773 21
      vertex 16.2997 -13.0821 2
      vertex 15.8933 -13.3773 2
    endloop
  endfacet
  facet normal -0.982265 0.187496 0
    outer loop
      vertex 17.6243 -10.9948 2
      vertex 17.7185 -10.5013 21
      vertex 17.7185 -10.5013 2
    endloop
  endfacet
  facet normal -0.982265 0.187496 0
    outer loop
      vertex 17.7185 -10.5013 21
      vertex 17.6243 -10.9948 2
      vertex 17.6243 -10.9948 21
    endloop
  endfacet
  facet normal 0.998032 -0.0627129 0
    outer loop
      vertex -17.75 10 21
      vertex -17.7185 10.5013 2
      vertex -17.7185 10.5013 21
    endloop
  endfacet
  facet normal 0.998032 -0.0627129 0
    outer loop
      vertex -17.7185 10.5013 2
      vertex -17.75 10 21
      vertex -17.75 10 2
    endloop
  endfacet
  facet normal 0.982265 -0.187496 0
    outer loop
      vertex -17.7185 10.5013 21
      vertex -17.6243 10.9948 2
      vertex -17.6243 10.9948 21
    endloop
  endfacet
  facet normal 0.982265 -0.187496 0
    outer loop
      vertex -17.6243 10.9948 2
      vertex -17.7185 10.5013 21
      vertex -17.7185 10.5013 2
    endloop
  endfacet
  facet normal 0.684563 -0.728953 0
    outer loop
      vertex -16.6659 12.7382 2
      vertex -16.2997 13.0821 21
      vertex -16.6659 12.7382 21
    endloop
  endfacet
  facet normal 0.684563 -0.728953 0
    outer loop
      vertex -16.2997 13.0821 21
      vertex -16.6659 12.7382 2
      vertex -16.2997 13.0821 2
    endloop
  endfacet
  facet normal 0.770549 -0.63738 0
    outer loop
      vertex -16.9861 12.3511 21
      vertex -16.6659 12.7382 2
      vertex -16.6659 12.7382 21
    endloop
  endfacet
  facet normal 0.770549 -0.63738 0
    outer loop
      vertex -16.6659 12.7382 2
      vertex -16.9861 12.3511 21
      vertex -16.9861 12.3511 2
    endloop
  endfacet
  facet normal 0.587698 -0.80908 0
    outer loop
      vertex -16.2997 13.0821 2
      vertex -15.8933 13.3773 21
      vertex -16.2997 13.0821 21
    endloop
  endfacet
  facet normal 0.587698 -0.80908 0
    outer loop
      vertex -15.8933 13.3773 21
      vertex -16.2997 13.0821 2
      vertex -15.8933 13.3773 2
    endloop
  endfacet
  facet normal -0.24862 -0.968601 0
    outer loop
      vertex 14.4995 13.9291 2
      vertex 14.9861 13.8042 21
      vertex 14.4995 13.9291 21
    endloop
  endfacet
  facet normal -0.24862 -0.968601 -0
    outer loop
      vertex 14.9861 13.8042 21
      vertex 14.4995 13.9291 2
      vertex 14.9861 13.8042 2
    endloop
  endfacet
  facet normal 0.125431 -0.992102 0
    outer loop
      vertex -14.4995 13.9291 2
      vertex -14.0012 13.9921 21
      vertex -14.4995 13.9291 21
    endloop
  endfacet
  facet normal 0.125431 -0.992102 0
    outer loop
      vertex -14.0012 13.9921 21
      vertex -14.4995 13.9291 2
      vertex -14.0012 13.9921 2
    endloop
  endfacet
  facet normal 0 0 1
    outer loop
      vertex 14.0012 13.9921 2
      vertex 17.75 10 2
      vertex 17.7185 10.5013 2
    endloop
  endfacet
  facet normal 0 0 1
    outer loop
      vertex 17.75 10 2
      vertex 14.0012 13.9921 2
      vertex 17.75 -10 2
    endloop
  endfacet
  facet normal 0 0 1
    outer loop
      vertex 14.0012 13.9921 2
      vertex 17.7185 10.5013 2
      vertex 17.6243 10.9948 2
    endloop
  endfacet
  facet normal 0 0 1
    outer loop
      vertex 14.0012 -13.9921 2
      vertex 17.75 -10 2
      vertex 14.0012 13.9921 2
    endloop
  endfacet
  facet normal 0 0 1
    outer loop
      vertex 14.0012 13.9921 2
      vertex 17.6243 10.9948 2
      vertex 17.4691 11.4725 2
    endloop
  endfacet
  facet normal 0 0 1
    outer loop
      vertex 17.75 -10 2
      vertex 14.0012 -13.9921 2
      vertex 17.7185 -10.5013 2
    endloop
  endfacet
  facet normal 0 0 1
    outer loop
      vertex 14.0012 13.9921 2
      vertex 17.4691 11.4725 2
      vertex 17.2552 11.927 2
    endloop
  endfacet
  facet normal 0 0 1
    outer loop
      vertex 17.7185 -10.5013 2
      vertex 14.0012 -13.9921 2
      vertex 17.6243 -10.9948 2
    endloop
  endfacet
  facet normal 0 0 1
    outer loop
      vertex 14.0012 13.9921 2
      vertex 17.2552 11.927 2
      vertex 16.9861 12.3511 2
    endloop
  endfacet
  facet normal 0 0 1
    outer loop
      vertex 17.6243 -10.9948 2
      vertex 14.0012 -13.9921 2
      vertex 17.4691 -11.4725 2
    endloop
  endfacet
  facet normal 0 0 1
    outer loop
      vertex 14.0012 13.9921 2
      vertex 16.9861 12.3511 2
      vertex 16.6659 12.7382 2
    endloop
  endfacet
  facet normal 0 0 1
    outer loop
      vertex 17.4691 -11.4725 2
      vertex 14.0012 -13.9921 2
      vertex 17.2552 -11.927 2
    endloop
  endfacet
  facet normal 0 0 1
    outer loop
      vertex 14.0012 13.9921 2
      vertex 16.6659 12.7382 2
      vertex 16.2997 13.0821 2
    endloop
  endfacet
  facet normal 0 0 1
    outer loop
      vertex 17.2552 -11.927 2
      vertex 14.0012 -13.9921 2
      vertex 16.9861 -12.3511 2
    endloop
  endfacet
  facet normal 0 0 1
    outer loop
      vertex 14.0012 13.9921 2
      vertex 16.2997 13.0821 2
      vertex 15.8933 13.3773 2
    endloop
  endfacet
  facet normal 0 0 1
    outer loop
      vertex 16.9861 -12.3511 2
      vertex 14.0012 -13.9921 2
      vertex 16.6659 -12.7382 2
    endloop
  endfacet
  facet normal 0 0 1
    outer loop
      vertex 14.0012 13.9921 2
      vertex 15.8933 13.3773 2
      vertex 15.4531 13.6193 2
    endloop
  endfacet
  facet normal 0 0 1
    outer loop
      vertex 16.6659 -12.7382 2
      vertex 14.0012 -13.9921 2
      vertex 16.2997 -13.0821 2
    endloop
  endfacet
  facet normal 0 0 1
    outer loop
      vertex 14.0012 13.9921 2
      vertex 15.4531 13.6193 2
      vertex 14.9861 13.8042 2
    endloop
  endfacet
  facet normal 0 0 1
    outer loop
      vertex 16.2997 -13.0821 2
      vertex 14.0012 -13.9921 2
      vertex 15.8933 -13.3773 2
    endloop
  endfacet
  facet normal 0 0 1
    outer loop
      vertex 14.0012 13.9921 2
      vertex 14.9861 13.8042 2
      vertex 14.4995 13.9291 2
    endloop
  endfacet
  facet normal 0 0 1
    outer loop
      vertex 15.8933 -13.3773 2
      vertex 14.0012 -13.9921 2
      vertex 15.4531 -13.6193 2
    endloop
  endfacet
  facet normal 0 0 1
    outer loop
      vertex 15.4531 -13.6193 2
      vertex 14.0012 -13.9921 2
      vertex 14.9861 -13.8042 2
    endloop
  endfacet
  facet normal 0 0 1
    outer loop
      vertex 14.9861 -13.8042 2
      vertex 14.0012 -13.9921 2
      vertex 14.4995 -13.9291 2
    endloop
  endfacet
  facet normal -0 0 1
    outer loop
      vertex -14.0012 13.9921 2
      vertex 14.0012 -13.9921 2
      vertex 14.0012 13.9921 2
    endloop
  endfacet
  facet normal 0 0 1
    outer loop
      vertex -14.0012 13.9921 2
      vertex -14.0012 -13.9921 2
      vertex 14.0012 -13.9921 2
    endloop
  endfacet
  facet normal 0 0 1
    outer loop
      vertex -17.75 10 2
      vertex -14.0012 13.9921 2
      vertex -14.4995 13.9291 2
    endloop
  endfacet
  facet normal 0 0 1
    outer loop
      vertex -14.0012 13.9921 2
      vertex -17.75 10 2
      vertex -14.0012 -13.9921 2
    endloop
  endfacet
  facet normal 0 0 1
    outer loop
      vertex -17.75 10 2
      vertex -14.4995 13.9291 2
      vertex -14.9861 13.8042 2
    endloop
  endfacet
  facet normal -0 0 1
    outer loop
      vertex -17.75 -10 2
      vertex -14.0012 -13.9921 2
      vertex -17.75 10 2
    endloop
  endfacet
  facet normal 0 0 1
    outer loop
      vertex -17.75 10 2
      vertex -14.9861 13.8042 2
      vertex -15.4531 13.6193 2
    endloop
  endfacet
  facet normal 0 0 1
    outer loop
      vertex -14.0012 -13.9921 2
      vertex -17.75 -10 2
      vertex -14.4995 -13.9291 2
    endloop
  endfacet
  facet normal 0 0 1
    outer loop
      vertex -17.75 10 2
      vertex -15.4531 13.6193 2
      vertex -15.8933 13.3773 2
    endloop
  endfacet
  facet normal 0 0 1
    outer loop
      vertex -14.4995 -13.9291 2
      vertex -17.75 -10 2
      vertex -14.9861 -13.8042 2
    endloop
  endfacet
  facet normal 0 0 1
    outer loop
      vertex -17.75 10 2
      vertex -15.8933 13.3773 2
      vertex -16.2997 13.0821 2
    endloop
  endfacet
  facet normal 0 0 1
    outer loop
      vertex -14.9861 -13.8042 2
      vertex -17.75 -10 2
      vertex -15.4531 -13.6193 2
    endloop
  endfacet
  facet normal 0 0 1
    outer loop
      vertex -17.75 10 2
      vertex -16.2997 13.0821 2
      vertex -16.6659 12.7382 2
    endloop
  endfacet
  facet normal 0 0 1
    outer loop
      vertex -15.4531 -13.6193 2
      vertex -17.75 -10 2
      vertex -15.8933 -13.3773 2
    endloop
  endfacet
  facet normal 0 0 1
    outer loop
      vertex -17.75 10 2
      vertex -16.6659 12.7382 2
      vertex -16.9861 12.3511 2
    endloop
  endfacet
  facet normal 0 0 1
    outer loop
      vertex -15.8933 -13.3773 2
      vertex -17.75 -10 2
      vertex -16.2997 -13.0821 2
    endloop
  endfacet
  facet normal 0 0 1
    outer loop
      vertex -17.75 10 2
      vertex -16.9861 12.3511 2
      vertex -17.2552 11.927 2
    endloop
  endfacet
  facet normal 0 0 1
    outer loop
      vertex -16.2997 -13.0821 2
      vertex -17.75 -10 2
      vertex -16.6659 -12.7382 2
    endloop
  endfacet
  facet normal 0 0 1
    outer loop
      vertex -17.75 10 2
      vertex -17.2552 11.927 2
      vertex -17.4691 11.4725 2
    endloop
  endfacet
  facet normal 0 0 1
    outer loop
      vertex -16.6659 -12.7382 2
      vertex -17.75 -10 2
      vertex -16.9861 -12.3511 2
    endloop
  endfacet
  facet normal 0 0 1
    outer loop
      vertex -17.75 10 2
      vertex -17.4691 11.4725 2
      vertex -17.6243 10.9948 2
    endloop
  endfacet
  facet normal 0 0 1
    outer loop
      vertex -16.9861 -12.3511 2
      vertex -17.75 -10 2
      vertex -17.2552 -11.927 2
    endloop
  endfacet
  facet normal 0 0 1
    outer loop
      vertex -17.75 10 2
      vertex -17.6243 10.9948 2
      vertex -17.7185 10.5013 2
    endloop
  endfacet
  facet normal 0 0 1
    outer loop
      vertex -17.2552 -11.927 2
      vertex -17.75 -10 2
      vertex -17.4691 -11.4725 2
    endloop
  endfacet
  facet normal 0 0 1
    outer loop
      vertex -17.4691 -11.4725 2
      vertex -17.75 -10 2
      vertex -17.6243 -10.9948 2
    endloop
  endfacet
  facet normal 0 0 1
    outer loop
      vertex -17.6243 -10.9948 2
      vertex -17.75 -10 2
      vertex -17.7185 -10.5013 2
    endloop
  endfacet
  facet normal -0.770549 0.63738 0
    outer loop
      vertex 16.6659 -12.7382 2
      vertex 16.9861 -12.3511 21
      vertex 16.9861 -12.3511 2
    endloop
  endfacet
  facet normal -0.770549 0.63738 0
    outer loop
      vertex 16.9861 -12.3511 21
      vertex 16.6659 -12.7382 2
      vertex 16.6659 -12.7382 21
    endloop
  endfacet
  facet normal -0.951065 0.308992 0
    outer loop
      vertex 17.4691 -11.4725 2
      vertex 17.6243 -10.9948 21
      vertex 17.6243 -10.9948 2
    endloop
  endfacet
  facet normal -0.951065 0.308992 0
    outer loop
      vertex 17.6243 -10.9948 21
      vertex 17.4691 -11.4725 2
      vertex 17.4691 -11.4725 21
    endloop
  endfacet
  facet normal 0.844366 -0.535767 0
    outer loop
      vertex -17.2552 11.927 21
      vertex -16.9861 12.3511 2
      vertex -16.9861 12.3511 21
    endloop
  endfacet
  facet normal 0.844366 -0.535767 0
    outer loop
      vertex -16.9861 12.3511 2
      vertex -17.2552 11.927 21
      vertex -17.2552 11.927 2
    endloop
  endfacet
  facet normal 0.904805 -0.425826 0
    outer loop
      vertex -17.4691 11.4725 21
      vertex -17.2552 11.927 2
      vertex -17.2552 11.927 21
    endloop
  endfacet
  facet normal 0.904805 -0.425826 0
    outer loop
      vertex -17.2552 11.927 2
      vertex -17.4691 11.4725 21
      vertex -17.4691 11.4725 2
    endloop
  endfacet
  facet normal -0.982265 -0.187496 0
    outer loop
      vertex 17.7185 10.5013 2
      vertex 17.6243 10.9948 21
      vertex 17.6243 10.9948 2
    endloop
  endfacet
  facet normal -0.982265 -0.187496 0
    outer loop
      vertex 17.6243 10.9948 21
      vertex 17.7185 10.5013 2
      vertex 17.7185 10.5013 21
    endloop
  endfacet
  facet normal -0.844366 -0.535767 0
    outer loop
      vertex 17.2552 11.927 2
      vertex 16.9861 12.3511 21
      vertex 16.9861 12.3511 2
    endloop
  endfacet
  facet normal -0.844366 -0.535767 0
    outer loop
      vertex 16.9861 12.3511 21
      vertex 17.2552 11.927 2
      vertex 17.2552 11.927 21
    endloop
  endfacet
  facet normal -0.951065 -0.308992 0
    outer loop
      vertex 17.6243 10.9948 2
      vertex 17.4691 11.4725 21
      vertex 17.4691 11.4725 2
    endloop
  endfacet
  facet normal -0.951065 -0.308992 0
    outer loop
      vertex 17.4691 11.4725 21
      vertex 17.6243 10.9948 2
      vertex 17.6243 10.9948 21
    endloop
  endfacet
  facet normal -0.587698 -0.80908 0
    outer loop
      vertex 15.8933 13.3773 2
      vertex 16.2997 13.0821 21
      vertex 15.8933 13.3773 21
    endloop
  endfacet
  facet normal -0.587698 -0.80908 -0
    outer loop
      vertex 16.2997 13.0821 21
      vertex 15.8933 13.3773 2
      vertex 16.2997 13.0821 2
    endloop
  endfacet
  facet normal -0.368127 -0.929775 0
    outer loop
      vertex 14.9861 13.8042 2
      vertex 15.4531 13.6193 21
      vertex 14.9861 13.8042 21
    endloop
  endfacet
  facet normal -0.368127 -0.929775 -0
    outer loop
      vertex 15.4531 13.6193 21
      vertex 14.9861 13.8042 2
      vertex 15.4531 13.6193 2
    endloop
  endfacet
  facet normal -0.481751 -0.876308 0
    outer loop
      vertex 15.4531 13.6193 2
      vertex 15.8933 13.3773 21
      vertex 15.4531 13.6193 21
    endloop
  endfacet
  facet normal -0.481751 -0.876308 -0
    outer loop
      vertex 15.8933 13.3773 21
      vertex 15.4531 13.6193 2
      vertex 15.8933 13.3773 2
    endloop
  endfacet
  facet normal 0.24862 -0.968601 0
    outer loop
      vertex -14.9861 13.8042 2
      vertex -14.4995 13.9291 21
      vertex -14.9861 13.8042 21
    endloop
  endfacet
  facet normal 0.24862 -0.968601 0
    outer loop
      vertex -14.4995 13.9291 21
      vertex -14.9861 13.8042 2
      vertex -14.4995 13.9291 2
    endloop
  endfacet
  facet normal 0.844366 0.535767 0
    outer loop
      vertex -16.9861 -12.3511 21
      vertex -17.2552 -11.927 2
      vertex -17.2552 -11.927 21
    endloop
  endfacet
  facet normal 0.844366 0.535767 0
    outer loop
      vertex -17.2552 -11.927 2
      vertex -16.9861 -12.3511 21
      vertex -16.9861 -12.3511 2
    endloop
  endfacet
  facet normal 0.951065 0.308992 0
    outer loop
      vertex -17.4691 -11.4725 21
      vertex -17.6243 -10.9948 2
      vertex -17.6243 -10.9948 21
    endloop
  endfacet
  facet normal 0.951065 0.308992 0
    outer loop
      vertex -17.6243 -10.9948 2
      vertex -17.4691 -11.4725 21
      vertex -17.4691 -11.4725 2
    endloop
  endfacet
  facet normal 0.998032 0.0627129 0
    outer loop
      vertex -17.7185 -10.5013 21
      vertex -17.75 -10 2
      vertex -17.75 -10 21
    endloop
  endfacet
  facet normal 0.998032 0.0627129 0
    outer loop
      vertex -17.75 -10 2
      vertex -17.7185 -10.5013 21
      vertex -17.7185 -10.5013 2
    endloop
  endfacet
  facet normal 0.24862 0.968601 -0
    outer loop
      vertex -14.4995 -13.9291 2
      vertex -14.9861 -13.8042 21
      vertex -14.4995 -13.9291 21
    endloop
  endfacet
  facet normal 0.24862 0.968601 0
    outer loop
      vertex -14.9861 -13.8042 21
      vertex -14.4995 -13.9291 2
      vertex -14.9861 -13.8042 2
    endloop
  endfacet
  facet normal 0.125431 0.992102 -0
    outer loop
      vertex -14.0012 -13.9921 2
      vertex -14.4995 -13.9291 21
      vertex -14.0012 -13.9921 21
    endloop
  endfacet
  facet normal 0.125431 0.992102 0
    outer loop
      vertex -14.4995 -13.9291 21
      vertex -14.0012 -13.9921 2
      vertex -14.4995 -13.9291 2
    endloop
  endfacet
  facet normal 0.481751 0.876308 -0
    outer loop
      vertex -15.4531 -13.6193 2
      vertex -15.8933 -13.3773 21
      vertex -15.4531 -13.6193 21
    endloop
  endfacet
  facet normal 0.481751 0.876308 0
    outer loop
      vertex -15.8933 -13.3773 21
      vertex -15.4531 -13.6193 2
      vertex -15.8933 -13.3773 2
    endloop
  endfacet
  facet normal -0.481751 0.876308 0
    outer loop
      vertex 15.8933 -13.3773 2
      vertex 15.4531 -13.6193 21
      vertex 15.8933 -13.3773 21
    endloop
  endfacet
  facet normal -0.481751 0.876308 0
    outer loop
      vertex 15.4531 -13.6193 21
      vertex 15.8933 -13.3773 2
      vertex 15.4531 -13.6193 2
    endloop
  endfacet
  facet normal -0.125431 0.992102 0
    outer loop
      vertex 14.4995 -13.9291 2
      vertex 14.0012 -13.9921 21
      vertex 14.4995 -13.9291 21
    endloop
  endfacet
  facet normal -0.125431 0.992102 0
    outer loop
      vertex 14.0012 -13.9921 21
      vertex 14.4995 -13.9291 2
      vertex 14.0012 -13.9921 2
    endloop
  endfacet
  facet normal -0.998032 0.0627129 0
    outer loop
      vertex 17.7185 -10.5013 2
      vertex 17.75 -10 21
      vertex 17.75 -10 2
    endloop
  endfacet
  facet normal -0.998032 0.0627129 0
    outer loop
      vertex 17.75 -10 21
      vertex 17.7185 -10.5013 2
      vertex 17.7185 -10.5013 21
    endloop
  endfacet
  facet normal -0.844366 0.535767 0
    outer loop
      vertex 16.9861 -12.3511 2
      vertex 17.2552 -11.927 21
      vertex 17.2552 -11.927 2
    endloop
  endfacet
  facet normal -0.844366 0.535767 0
    outer loop
      vertex 17.2552 -11.927 21
      vertex 16.9861 -12.3511 2
      vertex 16.9861 -12.3511 21
    endloop
  endfacet
  facet normal -0.904805 0.425826 0
    outer loop
      vertex 17.2552 -11.927 2
      vertex 17.4691 -11.4725 21
      vertex 17.4691 -11.4725 2
    endloop
  endfacet
  facet normal -0.904805 0.425826 0
    outer loop
      vertex 17.4691 -11.4725 21
      vertex 17.2552 -11.927 2
      vertex 17.2552 -11.927 21
    endloop
  endfacet
  facet normal -0.904805 -0.425826 0
    outer loop
      vertex 17.4691 11.4725 2
      vertex 17.2552 11.927 21
      vertex 17.2552 11.927 2
    endloop
  endfacet
  facet normal -0.904805 -0.425826 0
    outer loop
      vertex 17.2552 11.927 21
      vertex 17.4691 11.4725 2
      vertex 17.4691 11.4725 21
    endloop
  endfacet
  facet normal -0.998032 -0.0627129 0
    outer loop
      vertex 17.75 10 2
      vertex 17.7185 10.5013 21
      vertex 17.7185 10.5013 2
    endloop
  endfacet
  facet normal -0.998032 -0.0627129 0
    outer loop
      vertex 17.7185 10.5013 21
      vertex 17.75 10 2
      vertex 17.75 10 21
    endloop
  endfacet
  facet normal -0.125431 -0.992102 0
    outer loop
      vertex 14.0012 13.9921 2
      vertex 14.4995 13.9291 21
      vertex 14.0012 13.9921 21
    endloop
  endfacet
  facet normal -0.125431 -0.992102 -0
    outer loop
      vertex 14.4995 13.9291 21
      vertex 14.0012 13.9921 2
      vertex 14.4995 13.9291 2
    endloop
  endfacet
  facet normal -0.684563 -0.728953 0
    outer loop
      vertex 16.2997 13.0821 2
      vertex 16.6659 12.7382 21
      vertex 16.2997 13.0821 21
    endloop
  endfacet
  facet normal -0.684563 -0.728953 -0
    outer loop
      vertex 16.6659 12.7382 21
      vertex 16.2997 13.0821 2
      vertex 16.6659 12.7382 2
    endloop
  endfacet
  facet normal 0.770549 0.63738 0
    outer loop
      vertex -16.6659 -12.7382 21
      vertex -16.9861 -12.3511 2
      vertex -16.9861 -12.3511 21
    endloop
  endfacet
  facet normal 0.770549 0.63738 0
    outer loop
      vertex -16.9861 -12.3511 2
      vertex -16.6659 -12.7382 21
      vertex -16.6659 -12.7382 2
    endloop
  endfacet
  facet normal 0.684563 0.728953 -0
    outer loop
      vertex -16.2997 -13.0821 2
      vertex -16.6659 -12.7382 21
      vertex -16.2997 -13.0821 21
    endloop
  endfacet
  facet normal 0.684563 0.728953 0
    outer loop
      vertex -16.6659 -12.7382 21
      vertex -16.2997 -13.0821 2
      vertex -16.6659 -12.7382 2
    endloop
  endfacet
  facet normal 0.587698 0.80908 -0
    outer loop
      vertex -15.8933 -13.3773 2
      vertex -16.2997 -13.0821 21
      vertex -15.8933 -13.3773 21
    endloop
  endfacet
  facet normal 0.587698 0.80908 0
    outer loop
      vertex -16.2997 -13.0821 21
      vertex -15.8933 -13.3773 2
      vertex -16.2997 -13.0821 2
    endloop
  endfacet
  facet normal 0.904805 0.425826 0
    outer loop
      vertex -17.2552 -11.927 21
      vertex -17.4691 -11.4725 2
      vertex -17.4691 -11.4725 21
    endloop
  endfacet
  facet normal 0.904805 0.425826 0
    outer loop
      vertex -17.4691 -11.4725 2
      vertex -17.2552 -11.927 21
      vertex -17.2552 -11.927 2
    endloop
  endfacet
  facet normal 0.982265 0.187496 0
    outer loop
      vertex -17.6243 -10.9948 21
      vertex -17.7185 -10.5013 2
      vertex -17.7185 -10.5013 21
    endloop
  endfacet
  facet normal 0.982265 0.187496 0
    outer loop
      vertex -17.7185 -10.5013 2
      vertex -17.6243 -10.9948 21
      vertex -17.6243 -10.9948 2
    endloop
  endfacet
  facet normal 0.368127 0.929775 -0
    outer loop
      vertex -14.9861 -13.8042 2
      vertex -15.4531 -13.6193 21
      vertex -14.9861 -13.8042 21
    endloop
  endfacet
  facet normal 0.368127 0.929775 0
    outer loop
      vertex -15.4531 -13.6193 21
      vertex -14.9861 -13.8042 2
      vertex -15.4531 -13.6193 2
    endloop
  endfacet
  facet normal -0.24862 0.968601 0
    outer loop
      vertex 14.9861 -13.8042 2
      vertex 14.4995 -13.9291 21
      vertex 14.9861 -13.8042 21
    endloop
  endfacet
  facet normal -0.24862 0.968601 0
    outer loop
      vertex 14.4995 -13.9291 21
      vertex 14.9861 -13.8042 2
      vertex 14.4995 -13.9291 2
    endloop
  endfacet
  facet normal -0.368127 0.929775 0
    outer loop
      vertex 15.4531 -13.6193 2
      vertex 14.9861 -13.8042 21
      vertex 15.4531 -13.6193 21
    endloop
  endfacet
  facet normal -0.368127 0.929775 0
    outer loop
      vertex 14.9861 -13.8042 21
      vertex 15.4531 -13.6193 2
      vertex 14.9861 -13.8042 2
    endloop
  endfacet
  facet normal -0.684563 0.728953 0
    outer loop
      vertex 16.6659 -12.7382 2
      vertex 16.2997 -13.0821 21
      vertex 16.6659 -12.7382 21
    endloop
  endfacet
  facet normal -0.684563 0.728953 0
    outer loop
      vertex 16.2997 -13.0821 21
      vertex 16.6659 -12.7382 2
      vertex 16.2997 -13.0821 2
    endloop
  endfacet
endsolid OpenSCAD_Model
