solid OpenSCAD_Model
  facet normal -1 0 0
    outer loop
      vertex -75 -13.75 0
      vertex -75 13.75 12
      vertex -75 13.75 0
    endloop
  endfacet
  facet normal -1 -0 0
    outer loop
      vertex -75 13.75 12
      vertex -75 -13.75 0
      vertex -75 -13.75 12
    endloop
  endfacet
  facet normal -0.99803 -0.0627451 0
    outer loop
      vertex -74.9606 -14.3767 0
      vertex -75 -13.75 12
      vertex -75 -13.75 0
    endloop
  endfacet
  facet normal -0.99803 -0.0627451 0
    outer loop
      vertex -75 -13.75 12
      vertex -74.9606 -14.3767 0
      vertex -74.9606 -14.3767 12
    endloop
  endfacet
  facet normal -0.99803 0.0627451 0
    outer loop
      vertex -75 13.75 0
      vertex -74.9606 14.3767 12
      vertex -74.9606 14.3767 0
    endloop
  endfacet
  facet normal -0.99803 0.0627451 0
    outer loop
      vertex -74.9606 14.3767 12
      vertex -75 13.75 0
      vertex -75 13.75 12
    endloop
  endfacet
  facet normal 0.770462 0.637486 0
    outer loop
      vertex 74.0451 16.6889 12
      vertex 73.6448 17.1727 0
      vertex 73.6448 17.1727 12
    endloop
  endfacet
  facet normal 0.770462 0.637486 0
    outer loop
      vertex 73.6448 17.1727 0
      vertex 74.0451 16.6889 12
      vertex 74.0451 16.6889 0
    endloop
  endfacet
  facet normal 0 0 1
    outer loop
      vertex 74 13.75 12
      vertex 75 13.75 12
      vertex 74.9606 14.3767 12
    endloop
  endfacet
  facet normal 0 0 1
    outer loop
      vertex 75 13.75 12
      vertex 74 13.75 12
      vertex 75 -13.75 12
    endloop
  endfacet
  facet normal 0 0 1
    outer loop
      vertex 73.9685 14.2513 12
      vertex 74.9606 14.3767 12
      vertex 74.8429 14.9934 12
    endloop
  endfacet
  facet normal 0 0 1
    outer loop
      vertex 74 -13.75 12
      vertex 75 -13.75 12
      vertex 74 13.75 12
    endloop
  endfacet
  facet normal 0 0 1
    outer loop
      vertex 73.8743 14.7448 12
      vertex 74.8429 14.9934 12
      vertex 74.6489 15.5906 12
    endloop
  endfacet
  facet normal 0 0 1
    outer loop
      vertex 75 -13.75 12
      vertex 74 -13.75 12
      vertex 74.9606 -14.3767 12
    endloop
  endfacet
  facet normal 0 0 1
    outer loop
      vertex 73.7191 15.2225 12
      vertex 74.6489 15.5906 12
      vertex 74.3815 16.1588 12
    endloop
  endfacet
  facet normal -0 0 1
    outer loop
      vertex 73.9685 -14.2513 12
      vertex 74.9606 -14.3767 12
      vertex 74 -13.75 12
    endloop
  endfacet
  facet normal 0 0 1
    outer loop
      vertex 73.5052 15.677 12
      vertex 74.3815 16.1588 12
      vertex 74.0451 16.6889 12
    endloop
  endfacet
  facet normal 0 0 1
    outer loop
      vertex 74.9606 -14.3767 12
      vertex 73.9685 -14.2513 12
      vertex 74.8429 -14.9934 12
    endloop
  endfacet
  facet normal -0 0 1
    outer loop
      vertex 73.8743 -14.7448 12
      vertex 74.8429 -14.9934 12
      vertex 73.9685 -14.2513 12
    endloop
  endfacet
  facet normal 0 0 1
    outer loop
      vertex 74.9606 14.3767 12
      vertex 73.9685 14.2513 12
      vertex 74 13.75 12
    endloop
  endfacet
  facet normal 0 0 1
    outer loop
      vertex 74.8429 14.9934 12
      vertex 73.8743 14.7448 12
      vertex 73.9685 14.2513 12
    endloop
  endfacet
  facet normal 0 0 1
    outer loop
      vertex 74.6489 15.5906 12
      vertex 73.7191 15.2225 12
      vertex 73.8743 14.7448 12
    endloop
  endfacet
  facet normal 0 0 1
    outer loop
      vertex 73.2361 16.1011 12
      vertex 74.0451 16.6889 12
      vertex 73.6448 17.1727 12
    endloop
  endfacet
  facet normal 0 0 1
    outer loop
      vertex 74.3815 16.1588 12
      vertex 73.5052 15.677 12
      vertex 73.7191 15.2225 12
    endloop
  endfacet
  facet normal 0 0 1
    outer loop
      vertex 74.0451 16.6889 12
      vertex 73.2361 16.1011 12
      vertex 73.5052 15.677 12
    endloop
  endfacet
  facet normal 0 0 1
    outer loop
      vertex 72.9159 16.4882 12
      vertex 73.6448 17.1727 12
      vertex 73.1871 17.6026 12
    endloop
  endfacet
  facet normal 0 0 1
    outer loop
      vertex 73.6448 17.1727 12
      vertex 72.9159 16.4882 12
      vertex 73.2361 16.1011 12
    endloop
  endfacet
  facet normal 0 0 1
    outer loop
      vertex 72.5497 16.8321 12
      vertex 73.1871 17.6026 12
      vertex 72.6791 17.9716 12
    endloop
  endfacet
  facet normal 0 0 1
    outer loop
      vertex 73.1871 17.6026 12
      vertex 72.5497 16.8321 12
      vertex 72.9159 16.4882 12
    endloop
  endfacet
  facet normal 0 0 1
    outer loop
      vertex 72.6791 17.9716 12
      vertex 72.1433 17.1273 12
      vertex 72.5497 16.8321 12
    endloop
  endfacet
  facet normal 0 0 1
    outer loop
      vertex 72.1289 18.2741 12
      vertex 72.1433 17.1273 12
      vertex 72.6791 17.9716 12
    endloop
  endfacet
  facet normal 0 0 1
    outer loop
      vertex 72.1289 18.2741 12
      vertex 71.7031 17.3693 12
      vertex 72.1433 17.1273 12
    endloop
  endfacet
  facet normal 0 0 1
    outer loop
      vertex 71.5451 18.5053 12
      vertex 71.7031 17.3693 12
      vertex 72.1289 18.2741 12
    endloop
  endfacet
  facet normal 0 0 1
    outer loop
      vertex 71.5451 18.5053 12
      vertex 71.2361 17.5542 12
      vertex 71.7031 17.3693 12
    endloop
  endfacet
  facet normal 0 0 1
    outer loop
      vertex 70.9369 18.6614 12
      vertex 71.2361 17.5542 12
      vertex 71.5451 18.5053 12
    endloop
  endfacet
  facet normal 0 0 1
    outer loop
      vertex 70.9369 18.6614 12
      vertex 70.7495 17.6791 12
      vertex 71.2361 17.5542 12
    endloop
  endfacet
  facet normal 0 0 1
    outer loop
      vertex 70.3139 18.7401 12
      vertex 70.7495 17.6791 12
      vertex 70.9369 18.6614 12
    endloop
  endfacet
  facet normal 0 0 1
    outer loop
      vertex 70.3139 18.7401 12
      vertex 70.2512 17.7421 12
      vertex 70.7495 17.6791 12
    endloop
  endfacet
  facet normal 0 0 1
    outer loop
      vertex 70.3139 18.7401 12
      vertex -70.2512 17.7421 12
      vertex 70.2512 17.7421 12
    endloop
  endfacet
  facet normal -0 0 1
    outer loop
      vertex -70.3139 18.7401 12
      vertex -70.2512 17.7421 12
      vertex 70.3139 18.7401 12
    endloop
  endfacet
  facet normal 0 0 1
    outer loop
      vertex -70.3139 18.7401 12
      vertex -70.7495 17.6791 12
      vertex -70.2512 17.7421 12
    endloop
  endfacet
  facet normal -0 0 1
    outer loop
      vertex -70.9369 18.6614 12
      vertex -70.7495 17.6791 12
      vertex -70.3139 18.7401 12
    endloop
  endfacet
  facet normal 0 0 1
    outer loop
      vertex -70.9369 18.6614 12
      vertex -71.2361 17.5542 12
      vertex -70.7495 17.6791 12
    endloop
  endfacet
  facet normal -0 0 1
    outer loop
      vertex -71.5451 18.5053 12
      vertex -71.2361 17.5542 12
      vertex -70.9369 18.6614 12
    endloop
  endfacet
  facet normal 0 0 1
    outer loop
      vertex -71.5451 18.5053 12
      vertex -71.7031 17.3693 12
      vertex -71.2361 17.5542 12
    endloop
  endfacet
  facet normal -0 0 1
    outer loop
      vertex -72.1289 18.2741 12
      vertex -71.7031 17.3693 12
      vertex -71.5451 18.5053 12
    endloop
  endfacet
  facet normal 0 0 1
    outer loop
      vertex -72.1289 18.2741 12
      vertex -72.1433 17.1273 12
      vertex -71.7031 17.3693 12
    endloop
  endfacet
  facet normal -0 0 1
    outer loop
      vertex -72.6791 17.9716 12
      vertex -72.1433 17.1273 12
      vertex -72.1289 18.2741 12
    endloop
  endfacet
  facet normal 0 0 1
    outer loop
      vertex -72.1433 17.1273 12
      vertex -72.6791 17.9716 12
      vertex -72.5497 16.8321 12
    endloop
  endfacet
  facet normal -0 0 1
    outer loop
      vertex -73.1871 17.6026 12
      vertex -72.5497 16.8321 12
      vertex -72.6791 17.9716 12
    endloop
  endfacet
  facet normal 0 0 1
    outer loop
      vertex -72.5497 16.8321 12
      vertex -73.1871 17.6026 12
      vertex -72.9159 16.4882 12
    endloop
  endfacet
  facet normal -0 0 1
    outer loop
      vertex -73.6448 17.1727 12
      vertex -72.9159 16.4882 12
      vertex -73.1871 17.6026 12
    endloop
  endfacet
  facet normal 0 0 1
    outer loop
      vertex -72.9159 16.4882 12
      vertex -73.6448 17.1727 12
      vertex -73.2361 16.1011 12
    endloop
  endfacet
  facet normal -0 0 1
    outer loop
      vertex -74.0451 16.6889 12
      vertex -73.2361 16.1011 12
      vertex -73.6448 17.1727 12
    endloop
  endfacet
  facet normal 0 0 1
    outer loop
      vertex -73.2361 16.1011 12
      vertex -74.0451 16.6889 12
      vertex -73.5052 15.677 12
    endloop
  endfacet
  facet normal -0 0 1
    outer loop
      vertex -74.3815 16.1588 12
      vertex -73.5052 15.677 12
      vertex -74.0451 16.6889 12
    endloop
  endfacet
  facet normal 0 0 1
    outer loop
      vertex -73.5052 15.677 12
      vertex -74.3815 16.1588 12
      vertex -73.7191 15.2225 12
    endloop
  endfacet
  facet normal -0 0 1
    outer loop
      vertex -74.8429 14.9934 12
      vertex -73.8743 14.7448 12
      vertex -74.6489 15.5906 12
    endloop
  endfacet
  facet normal 0 0 1
    outer loop
      vertex -73.7191 15.2225 12
      vertex -74.6489 15.5906 12
      vertex -73.8743 14.7448 12
    endloop
  endfacet
  facet normal -0 0 1
    outer loop
      vertex -74.6489 15.5906 12
      vertex -73.7191 15.2225 12
      vertex -74.3815 16.1588 12
    endloop
  endfacet
  facet normal 0 0 1
    outer loop
      vertex 74.8429 -14.9934 12
      vertex 73.8743 -14.7448 12
      vertex 74.6489 -15.5906 12
    endloop
  endfacet
  facet normal -0 0 1
    outer loop
      vertex 73.7191 -15.2225 12
      vertex 74.6489 -15.5906 12
      vertex 73.8743 -14.7448 12
    endloop
  endfacet
  facet normal 0 0 1
    outer loop
      vertex 74.6489 -15.5906 12
      vertex 73.7191 -15.2225 12
      vertex 74.3815 -16.1588 12
    endloop
  endfacet
  facet normal -0 0 1
    outer loop
      vertex 73.5052 -15.677 12
      vertex 74.3815 -16.1588 12
      vertex 73.7191 -15.2225 12
    endloop
  endfacet
  facet normal 0 0 1
    outer loop
      vertex 74.3815 -16.1588 12
      vertex 73.5052 -15.677 12
      vertex 74.0451 -16.6889 12
    endloop
  endfacet
  facet normal -0 0 1
    outer loop
      vertex 73.2361 -16.1011 12
      vertex 74.0451 -16.6889 12
      vertex 73.5052 -15.677 12
    endloop
  endfacet
  facet normal 0 0 1
    outer loop
      vertex 74.0451 -16.6889 12
      vertex 73.2361 -16.1011 12
      vertex 73.6448 -17.1727 12
    endloop
  endfacet
  facet normal -0 0 1
    outer loop
      vertex 72.9159 -16.4882 12
      vertex 73.6448 -17.1727 12
      vertex 73.2361 -16.1011 12
    endloop
  endfacet
  facet normal 0 0 1
    outer loop
      vertex 73.6448 -17.1727 12
      vertex 72.9159 -16.4882 12
      vertex 73.1871 -17.6026 12
    endloop
  endfacet
  facet normal -0 0 1
    outer loop
      vertex 72.5497 -16.8321 12
      vertex 73.1871 -17.6026 12
      vertex 72.9159 -16.4882 12
    endloop
  endfacet
  facet normal 0 0 1
    outer loop
      vertex 73.1871 -17.6026 12
      vertex 72.5497 -16.8321 12
      vertex 72.6791 -17.9716 12
    endloop
  endfacet
  facet normal -0 0 1
    outer loop
      vertex 72.1433 -17.1273 12
      vertex 72.6791 -17.9716 12
      vertex 72.5497 -16.8321 12
    endloop
  endfacet
  facet normal 0 0 1
    outer loop
      vertex 72.1433 -17.1273 12
      vertex 72.1289 -18.2741 12
      vertex 72.6791 -17.9716 12
    endloop
  endfacet
  facet normal -0 0 1
    outer loop
      vertex 71.7031 -17.3693 12
      vertex 72.1289 -18.2741 12
      vertex 72.1433 -17.1273 12
    endloop
  endfacet
  facet normal 0 0 1
    outer loop
      vertex 71.7031 -17.3693 12
      vertex 71.5451 -18.5053 12
      vertex 72.1289 -18.2741 12
    endloop
  endfacet
  facet normal -0 0 1
    outer loop
      vertex 71.2361 -17.5542 12
      vertex 71.5451 -18.5053 12
      vertex 71.7031 -17.3693 12
    endloop
  endfacet
  facet normal 0 0 1
    outer loop
      vertex 71.2361 -17.5542 12
      vertex 70.9369 -18.6614 12
      vertex 71.5451 -18.5053 12
    endloop
  endfacet
  facet normal -0 0 1
    outer loop
      vertex 70.7495 -17.6791 12
      vertex 70.9369 -18.6614 12
      vertex 71.2361 -17.5542 12
    endloop
  endfacet
  facet normal 0 0 1
    outer loop
      vertex 70.7495 -17.6791 12
      vertex 70.3139 -18.7401 12
      vertex 70.9369 -18.6614 12
    endloop
  endfacet
  facet normal -0 0 1
    outer loop
      vertex 70.2512 -17.7421 12
      vertex 70.3139 -18.7401 12
      vertex 70.7495 -17.6791 12
    endloop
  endfacet
  facet normal -0 0 1
    outer loop
      vertex -70.2512 -17.7421 12
      vertex 70.3139 -18.7401 12
      vertex 70.2512 -17.7421 12
    endloop
  endfacet
  facet normal 0 0 1
    outer loop
      vertex -70.2512 -17.7421 12
      vertex -70.3139 -18.7401 12
      vertex 70.3139 -18.7401 12
    endloop
  endfacet
  facet normal 0 0 1
    outer loop
      vertex -70.7495 -17.6791 12
      vertex -70.3139 -18.7401 12
      vertex -70.2512 -17.7421 12
    endloop
  endfacet
  facet normal 0 0 1
    outer loop
      vertex -70.7495 -17.6791 12
      vertex -70.9369 -18.6614 12
      vertex -70.3139 -18.7401 12
    endloop
  endfacet
  facet normal 0 0 1
    outer loop
      vertex -71.2361 -17.5542 12
      vertex -70.9369 -18.6614 12
      vertex -70.7495 -17.6791 12
    endloop
  endfacet
  facet normal 0 0 1
    outer loop
      vertex -71.2361 -17.5542 12
      vertex -71.5451 -18.5053 12
      vertex -70.9369 -18.6614 12
    endloop
  endfacet
  facet normal 0 0 1
    outer loop
      vertex -71.7031 -17.3693 12
      vertex -71.5451 -18.5053 12
      vertex -71.2361 -17.5542 12
    endloop
  endfacet
  facet normal 0 0 1
    outer loop
      vertex -71.7031 -17.3693 12
      vertex -72.1289 -18.2741 12
      vertex -71.5451 -18.5053 12
    endloop
  endfacet
  facet normal 0 0 1
    outer loop
      vertex -72.1433 -17.1273 12
      vertex -72.1289 -18.2741 12
      vertex -71.7031 -17.3693 12
    endloop
  endfacet
  facet normal 0 0 1
    outer loop
      vertex -72.6791 -17.9716 12
      vertex -72.1433 -17.1273 12
      vertex -72.5497 -16.8321 12
    endloop
  endfacet
  facet normal 0 0 1
    outer loop
      vertex -72.1433 -17.1273 12
      vertex -72.6791 -17.9716 12
      vertex -72.1289 -18.2741 12
    endloop
  endfacet
  facet normal 0 0 1
    outer loop
      vertex -73.1871 -17.6026 12
      vertex -72.5497 -16.8321 12
      vertex -72.9159 -16.4882 12
    endloop
  endfacet
  facet normal 0 0 1
    outer loop
      vertex -72.5497 -16.8321 12
      vertex -73.1871 -17.6026 12
      vertex -72.6791 -17.9716 12
    endloop
  endfacet
  facet normal 0 0 1
    outer loop
      vertex -73.6448 -17.1727 12
      vertex -72.9159 -16.4882 12
      vertex -73.2361 -16.1011 12
    endloop
  endfacet
  facet normal 0 0 1
    outer loop
      vertex -74.0451 -16.6889 12
      vertex -73.2361 -16.1011 12
      vertex -73.5052 -15.677 12
    endloop
  endfacet
  facet normal 0 0 1
    outer loop
      vertex -72.9159 -16.4882 12
      vertex -73.6448 -17.1727 12
      vertex -73.1871 -17.6026 12
    endloop
  endfacet
  facet normal 0 0 1
    outer loop
      vertex -74.3815 -16.1588 12
      vertex -73.5052 -15.677 12
      vertex -73.7191 -15.2225 12
    endloop
  endfacet
  facet normal 0 0 1
    outer loop
      vertex -74.6489 -15.5906 12
      vertex -73.7191 -15.2225 12
      vertex -73.8743 -14.7448 12
    endloop
  endfacet
  facet normal 0 0 1
    outer loop
      vertex -74.8429 -14.9934 12
      vertex -73.8743 -14.7448 12
      vertex -73.9685 -14.2513 12
    endloop
  endfacet
  facet normal 0 0 1
    outer loop
      vertex -73.2361 -16.1011 12
      vertex -74.0451 -16.6889 12
      vertex -73.6448 -17.1727 12
    endloop
  endfacet
  facet normal 0 0 1
    outer loop
      vertex -74.9606 -14.3767 12
      vertex -73.9685 -14.2513 12
      vertex -74 -13.75 12
    endloop
  endfacet
  facet normal 0 0 1
    outer loop
      vertex -74 13.75 12
      vertex -75 13.75 12
      vertex -74 -13.75 12
    endloop
  endfacet
  facet normal 0 0 1
    outer loop
      vertex -73.8743 14.7448 12
      vertex -74.8429 14.9934 12
      vertex -73.9685 14.2513 12
    endloop
  endfacet
  facet normal 0 0 1
    outer loop
      vertex -75 -13.75 12
      vertex -74 -13.75 12
      vertex -75 13.75 12
    endloop
  endfacet
  facet normal -0 0 1
    outer loop
      vertex -74.9606 14.3767 12
      vertex -73.9685 14.2513 12
      vertex -74.8429 14.9934 12
    endloop
  endfacet
  facet normal 0 -0 1
    outer loop
      vertex -74.9606 -14.3767 12
      vertex -74 -13.75 12
      vertex -75 -13.75 12
    endloop
  endfacet
  facet normal 0 0 1
    outer loop
      vertex -73.9685 14.2513 12
      vertex -74.9606 14.3767 12
      vertex -74 13.75 12
    endloop
  endfacet
  facet normal 0 0 1
    outer loop
      vertex -73.5052 -15.677 12
      vertex -74.3815 -16.1588 12
      vertex -74.0451 -16.6889 12
    endloop
  endfacet
  facet normal 0 0 1
    outer loop
      vertex -74 13.75 12
      vertex -74.9606 14.3767 12
      vertex -75 13.75 12
    endloop
  endfacet
  facet normal 0 0 1
    outer loop
      vertex -73.7191 -15.2225 12
      vertex -74.6489 -15.5906 12
      vertex -74.3815 -16.1588 12
    endloop
  endfacet
  facet normal 0 0 1
    outer loop
      vertex -73.8743 -14.7448 12
      vertex -74.8429 -14.9934 12
      vertex -74.6489 -15.5906 12
    endloop
  endfacet
  facet normal 0 0 1
    outer loop
      vertex -73.9685 -14.2513 12
      vertex -74.9606 -14.3767 12
      vertex -74.8429 -14.9934 12
    endloop
  endfacet
  facet normal 0 1 -0
    outer loop
      vertex 70.3139 18.7401 0
      vertex -70.3139 18.7401 12
      vertex 70.3139 18.7401 12
    endloop
  endfacet
  facet normal 0 1 0
    outer loop
      vertex -70.3139 18.7401 12
      vertex 70.3139 18.7401 0
      vertex -70.3139 18.7401 0
    endloop
  endfacet
  facet normal 0 -1 0
    outer loop
      vertex -70.3139 -18.7401 0
      vertex 70.3139 -18.7401 12
      vertex -70.3139 -18.7401 12
    endloop
  endfacet
  facet normal 0 -1 -0
    outer loop
      vertex 70.3139 -18.7401 12
      vertex -70.3139 -18.7401 0
      vertex 70.3139 -18.7401 0
    endloop
  endfacet
  facet normal 0.125328 -0.992115 0
    outer loop
      vertex 70.3139 -18.7401 0
      vertex 70.9369 -18.6614 12
      vertex 70.3139 -18.7401 12
    endloop
  endfacet
  facet normal 0.125328 -0.992115 0
    outer loop
      vertex 70.9369 -18.6614 12
      vertex 70.3139 -18.7401 0
      vertex 70.9369 -18.6614 0
    endloop
  endfacet
  facet normal 0.99803 -0.0627451 0
    outer loop
      vertex 74.9606 -14.3767 12
      vertex 75 -13.75 0
      vertex 75 -13.75 12
    endloop
  endfacet
  facet normal 0.99803 -0.0627451 0
    outer loop
      vertex 75 -13.75 0
      vertex 74.9606 -14.3767 12
      vertex 74.9606 -14.3767 0
    endloop
  endfacet
  facet normal 1 -0 0
    outer loop
      vertex 75 -13.75 12
      vertex 75 13.75 0
      vertex 75 13.75 12
    endloop
  endfacet
  facet normal 1 0 0
    outer loop
      vertex 75 13.75 0
      vertex 75 -13.75 12
      vertex 75 -13.75 0
    endloop
  endfacet
  facet normal -0.125328 0.992115 0
    outer loop
      vertex -70.3139 18.7401 0
      vertex -70.9369 18.6614 12
      vertex -70.3139 18.7401 12
    endloop
  endfacet
  facet normal -0.125328 0.992115 0
    outer loop
      vertex -70.9369 18.6614 12
      vertex -70.3139 18.7401 0
      vertex -70.9369 18.6614 0
    endloop
  endfacet
  facet normal -0.368203 -0.929745 0
    outer loop
      vertex -72.1289 -18.2741 0
      vertex -71.5451 -18.5053 12
      vertex -72.1289 -18.2741 12
    endloop
  endfacet
  facet normal -0.368203 -0.929745 -0
    outer loop
      vertex -71.5451 -18.5053 12
      vertex -72.1289 -18.2741 0
      vertex -71.5451 -18.5053 0
    endloop
  endfacet
  facet normal -0.684624 -0.728896 0
    outer loop
      vertex -73.6448 -17.1727 0
      vertex -73.1871 -17.6026 12
      vertex -73.6448 -17.1727 12
    endloop
  endfacet
  facet normal -0.684624 -0.728896 -0
    outer loop
      vertex -73.1871 -17.6026 12
      vertex -73.6448 -17.1727 0
      vertex -73.1871 -17.6026 0
    endloop
  endfacet
  facet normal 0.951076 0.308956 0
    outer loop
      vertex 74.8429 14.9934 12
      vertex 74.6489 15.5906 0
      vertex 74.6489 15.5906 12
    endloop
  endfacet
  facet normal 0.951076 0.308956 0
    outer loop
      vertex 74.6489 15.5906 0
      vertex 74.8429 14.9934 12
      vertex 74.8429 14.9934 0
    endloop
  endfacet
  facet normal 0.125328 0.992115 -0
    outer loop
      vertex 70.9369 18.6614 0
      vertex 70.3139 18.7401 12
      vertex 70.9369 18.6614 12
    endloop
  endfacet
  facet normal 0.125328 0.992115 0
    outer loop
      vertex 70.3139 18.7401 12
      vertex 70.9369 18.6614 0
      vertex 70.3139 18.7401 0
    endloop
  endfacet
  facet normal -0.684624 0.728896 0
    outer loop
      vertex -73.1871 17.6026 0
      vertex -73.6448 17.1727 12
      vertex -73.1871 17.6026 12
    endloop
  endfacet
  facet normal -0.684624 0.728896 0
    outer loop
      vertex -73.6448 17.1727 12
      vertex -73.1871 17.6026 0
      vertex -73.6448 17.1727 0
    endloop
  endfacet
  facet normal 0 0 -1
    outer loop
      vertex 70.3139 -18.7401 0
      vertex 75 -13.75 0
      vertex 74.9606 -14.3767 0
    endloop
  endfacet
  facet normal -0 0 -1
    outer loop
      vertex 75 -13.75 0
      vertex 70.3139 -18.7401 0
      vertex 75 13.75 0
    endloop
  endfacet
  facet normal 0 0 -1
    outer loop
      vertex 70.3139 -18.7401 0
      vertex 74.9606 -14.3767 0
      vertex 74.8429 -14.9934 0
    endloop
  endfacet
  facet normal 0 0 -1
    outer loop
      vertex 70.3139 18.7401 0
      vertex 75 13.75 0
      vertex 70.3139 -18.7401 0
    endloop
  endfacet
  facet normal 0 0 -1
    outer loop
      vertex 70.3139 -18.7401 0
      vertex 74.8429 -14.9934 0
      vertex 74.6489 -15.5906 0
    endloop
  endfacet
  facet normal 0 0 -1
    outer loop
      vertex 75 13.75 0
      vertex 70.3139 18.7401 0
      vertex 74.9606 14.3767 0
    endloop
  endfacet
  facet normal 0 0 -1
    outer loop
      vertex 70.3139 -18.7401 0
      vertex 74.6489 -15.5906 0
      vertex 74.3815 -16.1588 0
    endloop
  endfacet
  facet normal 0 0 -1
    outer loop
      vertex 74.9606 14.3767 0
      vertex 70.3139 18.7401 0
      vertex 74.8429 14.9934 0
    endloop
  endfacet
  facet normal 0 0 -1
    outer loop
      vertex 70.3139 -18.7401 0
      vertex 74.3815 -16.1588 0
      vertex 74.0451 -16.6889 0
    endloop
  endfacet
  facet normal 0 0 -1
    outer loop
      vertex 74.8429 14.9934 0
      vertex 70.3139 18.7401 0
      vertex 74.6489 15.5906 0
    endloop
  endfacet
  facet normal 0 0 -1
    outer loop
      vertex 70.3139 -18.7401 0
      vertex 74.0451 -16.6889 0
      vertex 73.6448 -17.1727 0
    endloop
  endfacet
  facet normal 0 0 -1
    outer loop
      vertex 74.6489 15.5906 0
      vertex 70.3139 18.7401 0
      vertex 74.3815 16.1588 0
    endloop
  endfacet
  facet normal 0 0 -1
    outer loop
      vertex 70.3139 -18.7401 0
      vertex 73.6448 -17.1727 0
      vertex 73.1871 -17.6026 0
    endloop
  endfacet
  facet normal 0 0 -1
    outer loop
      vertex 74.3815 16.1588 0
      vertex 70.3139 18.7401 0
      vertex 74.0451 16.6889 0
    endloop
  endfacet
  facet normal 0 0 -1
    outer loop
      vertex 70.3139 -18.7401 0
      vertex 73.1871 -17.6026 0
      vertex 72.6791 -17.9716 0
    endloop
  endfacet
  facet normal 0 0 -1
    outer loop
      vertex 74.0451 16.6889 0
      vertex 70.3139 18.7401 0
      vertex 73.6448 17.1727 0
    endloop
  endfacet
  facet normal 0 0 -1
    outer loop
      vertex 70.3139 -18.7401 0
      vertex 72.6791 -17.9716 0
      vertex 72.1289 -18.2741 0
    endloop
  endfacet
  facet normal 0 0 -1
    outer loop
      vertex 73.6448 17.1727 0
      vertex 70.3139 18.7401 0
      vertex 73.1871 17.6026 0
    endloop
  endfacet
  facet normal 0 0 -1
    outer loop
      vertex 70.3139 -18.7401 0
      vertex 72.1289 -18.2741 0
      vertex 71.5451 -18.5053 0
    endloop
  endfacet
  facet normal 0 0 -1
    outer loop
      vertex 73.1871 17.6026 0
      vertex 70.3139 18.7401 0
      vertex 72.6791 17.9716 0
    endloop
  endfacet
  facet normal 0 0 -1
    outer loop
      vertex 70.3139 -18.7401 0
      vertex 71.5451 -18.5053 0
      vertex 70.9369 -18.6614 0
    endloop
  endfacet
  facet normal 0 0 -1
    outer loop
      vertex 72.6791 17.9716 0
      vertex 70.3139 18.7401 0
      vertex 72.1289 18.2741 0
    endloop
  endfacet
  facet normal 0 0 -1
    outer loop
      vertex 72.1289 18.2741 0
      vertex 70.3139 18.7401 0
      vertex 71.5451 18.5053 0
    endloop
  endfacet
  facet normal 0 0 -1
    outer loop
      vertex 71.5451 18.5053 0
      vertex 70.3139 18.7401 0
      vertex 70.9369 18.6614 0
    endloop
  endfacet
  facet normal 0 0 -1
    outer loop
      vertex -70.3139 -18.7401 0
      vertex 70.3139 18.7401 0
      vertex 70.3139 -18.7401 0
    endloop
  endfacet
  facet normal 0 0 -1
    outer loop
      vertex -70.3139 -18.7401 0
      vertex -70.3139 18.7401 0
      vertex 70.3139 18.7401 0
    endloop
  endfacet
  facet normal 0 0 -1
    outer loop
      vertex -75 -13.75 0
      vertex -70.3139 -18.7401 0
      vertex -70.9369 -18.6614 0
    endloop
  endfacet
  facet normal 0 0 -1
    outer loop
      vertex -70.3139 -18.7401 0
      vertex -75 -13.75 0
      vertex -70.3139 18.7401 0
    endloop
  endfacet
  facet normal 0 0 -1
    outer loop
      vertex -75 -13.75 0
      vertex -70.9369 -18.6614 0
      vertex -71.5451 -18.5053 0
    endloop
  endfacet
  facet normal 0 0 -1
    outer loop
      vertex -75 13.75 0
      vertex -70.3139 18.7401 0
      vertex -75 -13.75 0
    endloop
  endfacet
  facet normal 0 0 -1
    outer loop
      vertex -75 -13.75 0
      vertex -71.5451 -18.5053 0
      vertex -72.1289 -18.2741 0
    endloop
  endfacet
  facet normal 0 0 -1
    outer loop
      vertex -70.3139 18.7401 0
      vertex -75 13.75 0
      vertex -70.9369 18.6614 0
    endloop
  endfacet
  facet normal 0 0 -1
    outer loop
      vertex -75 -13.75 0
      vertex -72.1289 -18.2741 0
      vertex -72.6791 -17.9716 0
    endloop
  endfacet
  facet normal 0 0 -1
    outer loop
      vertex -70.9369 18.6614 0
      vertex -75 13.75 0
      vertex -71.5451 18.5053 0
    endloop
  endfacet
  facet normal 0 0 -1
    outer loop
      vertex -75 -13.75 0
      vertex -72.6791 -17.9716 0
      vertex -73.1871 -17.6026 0
    endloop
  endfacet
  facet normal 0 0 -1
    outer loop
      vertex -71.5451 18.5053 0
      vertex -75 13.75 0
      vertex -72.1289 18.2741 0
    endloop
  endfacet
  facet normal 0 0 -1
    outer loop
      vertex -75 -13.75 0
      vertex -73.1871 -17.6026 0
      vertex -73.6448 -17.1727 0
    endloop
  endfacet
  facet normal 0 0 -1
    outer loop
      vertex -72.1289 18.2741 0
      vertex -75 13.75 0
      vertex -72.6791 17.9716 0
    endloop
  endfacet
  facet normal 0 0 -1
    outer loop
      vertex -75 -13.75 0
      vertex -73.6448 -17.1727 0
      vertex -74.0451 -16.6889 0
    endloop
  endfacet
  facet normal 0 0 -1
    outer loop
      vertex -72.6791 17.9716 0
      vertex -75 13.75 0
      vertex -73.1871 17.6026 0
    endloop
  endfacet
  facet normal 0 0 -1
    outer loop
      vertex -75 -13.75 0
      vertex -74.0451 -16.6889 0
      vertex -74.3815 -16.1588 0
    endloop
  endfacet
  facet normal 0 0 -1
    outer loop
      vertex -73.1871 17.6026 0
      vertex -75 13.75 0
      vertex -73.6448 17.1727 0
    endloop
  endfacet
  facet normal 0 0 -1
    outer loop
      vertex -75 -13.75 0
      vertex -74.3815 -16.1588 0
      vertex -74.6489 -15.5906 0
    endloop
  endfacet
  facet normal 0 0 -1
    outer loop
      vertex -73.6448 17.1727 0
      vertex -75 13.75 0
      vertex -74.0451 16.6889 0
    endloop
  endfacet
  facet normal 0 0 -1
    outer loop
      vertex -75 -13.75 0
      vertex -74.6489 -15.5906 0
      vertex -74.8429 -14.9934 0
    endloop
  endfacet
  facet normal 0 0 -1
    outer loop
      vertex -74.0451 16.6889 0
      vertex -75 13.75 0
      vertex -74.3815 16.1588 0
    endloop
  endfacet
  facet normal 0 0 -1
    outer loop
      vertex -75 -13.75 0
      vertex -74.8429 -14.9934 0
      vertex -74.9606 -14.3767 0
    endloop
  endfacet
  facet normal 0 0 -1
    outer loop
      vertex -74.3815 16.1588 0
      vertex -75 13.75 0
      vertex -74.6489 15.5906 0
    endloop
  endfacet
  facet normal 0 0 -1
    outer loop
      vertex -74.6489 15.5906 0
      vertex -75 13.75 0
      vertex -74.8429 14.9934 0
    endloop
  endfacet
  facet normal 0 0 -1
    outer loop
      vertex -74.8429 14.9934 0
      vertex -75 13.75 0
      vertex -74.9606 14.3767 0
    endloop
  endfacet
  facet normal -0.951076 -0.308956 0
    outer loop
      vertex -74.6489 -15.5906 0
      vertex -74.8429 -14.9934 12
      vertex -74.8429 -14.9934 0
    endloop
  endfacet
  facet normal -0.951076 -0.308956 0
    outer loop
      vertex -74.8429 -14.9934 12
      vertex -74.6489 -15.5906 0
      vertex -74.6489 -15.5906 12
    endloop
  endfacet
  facet normal -0.770462 -0.637486 0
    outer loop
      vertex -73.6448 -17.1727 0
      vertex -74.0451 -16.6889 12
      vertex -74.0451 -16.6889 0
    endloop
  endfacet
  facet normal -0.770462 -0.637486 0
    outer loop
      vertex -74.0451 -16.6889 12
      vertex -73.6448 -17.1727 0
      vertex -73.6448 -17.1727 12
    endloop
  endfacet
  facet normal -0.904811 -0.425812 0
    outer loop
      vertex -74.3815 -16.1588 0
      vertex -74.6489 -15.5906 12
      vertex -74.6489 -15.5906 0
    endloop
  endfacet
  facet normal -0.904811 -0.425812 0
    outer loop
      vertex -74.6489 -15.5906 12
      vertex -74.3815 -16.1588 0
      vertex -74.3815 -16.1588 12
    endloop
  endfacet
  facet normal -0.248601 -0.968606 0
    outer loop
      vertex -71.5451 -18.5053 0
      vertex -70.9369 -18.6614 12
      vertex -71.5451 -18.5053 12
    endloop
  endfacet
  facet normal -0.248601 -0.968606 -0
    outer loop
      vertex -70.9369 -18.6614 12
      vertex -71.5451 -18.5053 0
      vertex -70.9369 -18.6614 0
    endloop
  endfacet
  facet normal -0.587698 -0.80908 0
    outer loop
      vertex -73.1871 -17.6026 0
      vertex -72.6791 -17.9716 12
      vertex -73.1871 -17.6026 12
    endloop
  endfacet
  facet normal -0.587698 -0.80908 -0
    outer loop
      vertex -72.6791 -17.9716 12
      vertex -73.1871 -17.6026 0
      vertex -72.6791 -17.9716 0
    endloop
  endfacet
  facet normal 0.98227 -0.187471 0
    outer loop
      vertex 74.8429 -14.9934 12
      vertex 74.9606 -14.3767 0
      vertex 74.9606 -14.3767 12
    endloop
  endfacet
  facet normal 0.98227 -0.187471 0
    outer loop
      vertex 74.9606 -14.3767 0
      vertex 74.8429 -14.9934 12
      vertex 74.8429 -14.9934 0
    endloop
  endfacet
  facet normal 0.770462 -0.637486 0
    outer loop
      vertex 73.6448 -17.1727 12
      vertex 74.0451 -16.6889 0
      vertex 74.0451 -16.6889 12
    endloop
  endfacet
  facet normal 0.770462 -0.637486 0
    outer loop
      vertex 74.0451 -16.6889 0
      vertex 73.6448 -17.1727 12
      vertex 73.6448 -17.1727 0
    endloop
  endfacet
  facet normal 0.951076 -0.308956 0
    outer loop
      vertex 74.6489 -15.5906 12
      vertex 74.8429 -14.9934 0
      vertex 74.8429 -14.9934 12
    endloop
  endfacet
  facet normal 0.951076 -0.308956 0
    outer loop
      vertex 74.8429 -14.9934 0
      vertex 74.6489 -15.5906 12
      vertex 74.6489 -15.5906 0
    endloop
  endfacet
  facet normal 0.98227 0.187471 0
    outer loop
      vertex 74.9606 14.3767 12
      vertex 74.8429 14.9934 0
      vertex 74.8429 14.9934 12
    endloop
  endfacet
  facet normal 0.98227 0.187471 0
    outer loop
      vertex 74.8429 14.9934 0
      vertex 74.9606 14.3767 12
      vertex 74.9606 14.3767 0
    endloop
  endfacet
  facet normal 0.99803 0.0627451 0
    outer loop
      vertex 75 13.75 12
      vertex 74.9606 14.3767 0
      vertex 74.9606 14.3767 12
    endloop
  endfacet
  facet normal 0.99803 0.0627451 0
    outer loop
      vertex 74.9606 14.3767 0
      vertex 75 13.75 12
      vertex 75 13.75 0
    endloop
  endfacet
  facet normal 0.844336 0.535814 0
    outer loop
      vertex 74.3815 16.1588 12
      vertex 74.0451 16.6889 0
      vertex 74.0451 16.6889 12
    endloop
  endfacet
  facet normal 0.844336 0.535814 0
    outer loop
      vertex 74.0451 16.6889 0
      vertex 74.3815 16.1588 12
      vertex 74.3815 16.1588 0
    endloop
  endfacet
  facet normal 0.904811 0.425812 0
    outer loop
      vertex 74.6489 15.5906 12
      vertex 74.3815 16.1588 0
      vertex 74.3815 16.1588 12
    endloop
  endfacet
  facet normal 0.904811 0.425812 0
    outer loop
      vertex 74.3815 16.1588 0
      vertex 74.6489 15.5906 12
      vertex 74.6489 15.5906 0
    endloop
  endfacet
  facet normal 0.481784 0.87629 -0
    outer loop
      vertex 72.6791 17.9716 0
      vertex 72.1289 18.2741 12
      vertex 72.6791 17.9716 12
    endloop
  endfacet
  facet normal 0.481784 0.87629 0
    outer loop
      vertex 72.1289 18.2741 12
      vertex 72.6791 17.9716 0
      vertex 72.1289 18.2741 0
    endloop
  endfacet
  facet normal 0.684624 0.728896 -0
    outer loop
      vertex 73.6448 17.1727 0
      vertex 73.1871 17.6026 12
      vertex 73.6448 17.1727 12
    endloop
  endfacet
  facet normal 0.684624 0.728896 0
    outer loop
      vertex 73.1871 17.6026 12
      vertex 73.6448 17.1727 0
      vertex 73.1871 17.6026 0
    endloop
  endfacet
  facet normal 0.368203 0.929745 -0
    outer loop
      vertex 72.1289 18.2741 0
      vertex 71.5451 18.5053 12
      vertex 72.1289 18.2741 12
    endloop
  endfacet
  facet normal 0.368203 0.929745 0
    outer loop
      vertex 71.5451 18.5053 12
      vertex 72.1289 18.2741 0
      vertex 71.5451 18.5053 0
    endloop
  endfacet
  facet normal -0.904811 0.425812 0
    outer loop
      vertex -74.6489 15.5906 0
      vertex -74.3815 16.1588 12
      vertex -74.3815 16.1588 0
    endloop
  endfacet
  facet normal -0.904811 0.425812 0
    outer loop
      vertex -74.3815 16.1588 12
      vertex -74.6489 15.5906 0
      vertex -74.6489 15.5906 12
    endloop
  endfacet
  facet normal -0.770462 0.637486 0
    outer loop
      vertex -74.0451 16.6889 0
      vertex -73.6448 17.1727 12
      vertex -73.6448 17.1727 0
    endloop
  endfacet
  facet normal -0.770462 0.637486 0
    outer loop
      vertex -73.6448 17.1727 12
      vertex -74.0451 16.6889 0
      vertex -74.0451 16.6889 12
    endloop
  endfacet
  facet normal -0.951076 0.308956 0
    outer loop
      vertex -74.8429 14.9934 0
      vertex -74.6489 15.5906 12
      vertex -74.6489 15.5906 0
    endloop
  endfacet
  facet normal -0.951076 0.308956 0
    outer loop
      vertex -74.6489 15.5906 12
      vertex -74.8429 14.9934 0
      vertex -74.8429 14.9934 12
    endloop
  endfacet
  facet normal -0.368203 0.929745 0
    outer loop
      vertex -71.5451 18.5053 0
      vertex -72.1289 18.2741 12
      vertex -71.5451 18.5053 12
    endloop
  endfacet
  facet normal -0.368203 0.929745 0
    outer loop
      vertex -72.1289 18.2741 12
      vertex -71.5451 18.5053 0
      vertex -72.1289 18.2741 0
    endloop
  endfacet
  facet normal -0.98227 -0.187471 0
    outer loop
      vertex -74.8429 -14.9934 0
      vertex -74.9606 -14.3767 12
      vertex -74.9606 -14.3767 0
    endloop
  endfacet
  facet normal -0.98227 -0.187471 0
    outer loop
      vertex -74.9606 -14.3767 12
      vertex -74.8429 -14.9934 0
      vertex -74.8429 -14.9934 12
    endloop
  endfacet
  facet normal -0.844336 -0.535814 0
    outer loop
      vertex -74.0451 -16.6889 0
      vertex -74.3815 -16.1588 12
      vertex -74.3815 -16.1588 0
    endloop
  endfacet
  facet normal -0.844336 -0.535814 0
    outer loop
      vertex -74.3815 -16.1588 12
      vertex -74.0451 -16.6889 0
      vertex -74.0451 -16.6889 12
    endloop
  endfacet
  facet normal -0.125328 -0.992115 0
    outer loop
      vertex -70.9369 -18.6614 0
      vertex -70.3139 -18.7401 12
      vertex -70.9369 -18.6614 12
    endloop
  endfacet
  facet normal -0.125328 -0.992115 -0
    outer loop
      vertex -70.3139 -18.7401 12
      vertex -70.9369 -18.6614 0
      vertex -70.3139 -18.7401 0
    endloop
  endfacet
  facet normal -0.481784 -0.87629 0
    outer loop
      vertex -72.6791 -17.9716 0
      vertex -72.1289 -18.2741 12
      vertex -72.6791 -17.9716 12
    endloop
  endfacet
  facet normal -0.481784 -0.87629 -0
    outer loop
      vertex -72.1289 -18.2741 12
      vertex -72.6791 -17.9716 0
      vertex -72.1289 -18.2741 0
    endloop
  endfacet
  facet normal 0.481784 -0.87629 0
    outer loop
      vertex 72.1289 -18.2741 0
      vertex 72.6791 -17.9716 12
      vertex 72.1289 -18.2741 12
    endloop
  endfacet
  facet normal 0.481784 -0.87629 0
    outer loop
      vertex 72.6791 -17.9716 12
      vertex 72.1289 -18.2741 0
      vertex 72.6791 -17.9716 0
    endloop
  endfacet
  facet normal 0.684624 -0.728896 0
    outer loop
      vertex 73.1871 -17.6026 0
      vertex 73.6448 -17.1727 12
      vertex 73.1871 -17.6026 12
    endloop
  endfacet
  facet normal 0.684624 -0.728896 0
    outer loop
      vertex 73.6448 -17.1727 12
      vertex 73.1871 -17.6026 0
      vertex 73.6448 -17.1727 0
    endloop
  endfacet
  facet normal 0.248601 -0.968606 0
    outer loop
      vertex 70.9369 -18.6614 0
      vertex 71.5451 -18.5053 12
      vertex 70.9369 -18.6614 12
    endloop
  endfacet
  facet normal 0.248601 -0.968606 0
    outer loop
      vertex 71.5451 -18.5053 12
      vertex 70.9369 -18.6614 0
      vertex 71.5451 -18.5053 0
    endloop
  endfacet
  facet normal 0.844336 -0.535814 0
    outer loop
      vertex 74.0451 -16.6889 12
      vertex 74.3815 -16.1588 0
      vertex 74.3815 -16.1588 12
    endloop
  endfacet
  facet normal 0.844336 -0.535814 0
    outer loop
      vertex 74.3815 -16.1588 0
      vertex 74.0451 -16.6889 12
      vertex 74.0451 -16.6889 0
    endloop
  endfacet
  facet normal 0.587698 0.80908 -0
    outer loop
      vertex 73.1871 17.6026 0
      vertex 72.6791 17.9716 12
      vertex 73.1871 17.6026 12
    endloop
  endfacet
  facet normal 0.587698 0.80908 0
    outer loop
      vertex 72.6791 17.9716 12
      vertex 73.1871 17.6026 0
      vertex 72.6791 17.9716 0
    endloop
  endfacet
  facet normal 0.248601 0.968606 -0
    outer loop
      vertex 71.5451 18.5053 0
      vertex 70.9369 18.6614 12
      vertex 71.5451 18.5053 12
    endloop
  endfacet
  facet normal 0.248601 0.968606 0
    outer loop
      vertex 70.9369 18.6614 12
      vertex 71.5451 18.5053 0
      vertex 70.9369 18.6614 0
    endloop
  endfacet
  facet normal -0.98227 0.187471 0
    outer loop
      vertex -74.9606 14.3767 0
      vertex -74.8429 14.9934 12
      vertex -74.8429 14.9934 0
    endloop
  endfacet
  facet normal -0.98227 0.187471 0
    outer loop
      vertex -74.8429 14.9934 12
      vertex -74.9606 14.3767 0
      vertex -74.9606 14.3767 12
    endloop
  endfacet
  facet normal -0.844336 0.535814 0
    outer loop
      vertex -74.3815 16.1588 0
      vertex -74.0451 16.6889 12
      vertex -74.0451 16.6889 0
    endloop
  endfacet
  facet normal -0.844336 0.535814 0
    outer loop
      vertex -74.0451 16.6889 12
      vertex -74.3815 16.1588 0
      vertex -74.3815 16.1588 12
    endloop
  endfacet
  facet normal -0.248601 0.968606 0
    outer loop
      vertex -70.9369 18.6614 0
      vertex -71.5451 18.5053 12
      vertex -70.9369 18.6614 12
    endloop
  endfacet
  facet normal -0.248601 0.968606 0
    outer loop
      vertex -71.5451 18.5053 12
      vertex -70.9369 18.6614 0
      vertex -71.5451 18.5053 0
    endloop
  endfacet
  facet normal -0.481784 0.87629 0
    outer loop
      vertex -72.1289 18.2741 0
      vertex -72.6791 17.9716 12
      vertex -72.1289 18.2741 12
    endloop
  endfacet
  facet normal -0.481784 0.87629 0
    outer loop
      vertex -72.6791 17.9716 12
      vertex -72.1289 18.2741 0
      vertex -72.6791 17.9716 0
    endloop
  endfacet
  facet normal -0.587698 0.80908 0
    outer loop
      vertex -72.6791 17.9716 0
      vertex -73.1871 17.6026 12
      vertex -72.6791 17.9716 12
    endloop
  endfacet
  facet normal -0.587698 0.80908 0
    outer loop
      vertex -73.1871 17.6026 12
      vertex -72.6791 17.9716 0
      vertex -73.1871 17.6026 0
    endloop
  endfacet
  facet normal 0.368203 -0.929745 0
    outer loop
      vertex 71.5451 -18.5053 0
      vertex 72.1289 -18.2741 12
      vertex 71.5451 -18.5053 12
    endloop
  endfacet
  facet normal 0.368203 -0.929745 0
    outer loop
      vertex 72.1289 -18.2741 12
      vertex 71.5451 -18.5053 0
      vertex 72.1289 -18.2741 0
    endloop
  endfacet
  facet normal 0.904811 -0.425812 0
    outer loop
      vertex 74.3815 -16.1588 12
      vertex 74.6489 -15.5906 0
      vertex 74.6489 -15.5906 12
    endloop
  endfacet
  facet normal 0.904811 -0.425812 0
    outer loop
      vertex 74.6489 -15.5906 0
      vertex 74.3815 -16.1588 12
      vertex 74.3815 -16.1588 0
    endloop
  endfacet
  facet normal 0.587698 -0.80908 0
    outer loop
      vertex 72.6791 -17.9716 0
      vertex 73.1871 -17.6026 12
      vertex 72.6791 -17.9716 12
    endloop
  endfacet
  facet normal 0.587698 -0.80908 0
    outer loop
      vertex 73.1871 -17.6026 12
      vertex 72.6791 -17.9716 0
      vertex 73.1871 -17.6026 0
    endloop
  endfacet
  facet normal 1 -0 0
    outer loop
      vertex -74 -13.75 12
      vertex -74 13.75 2
      vertex -74 13.75 12
    endloop
  endfacet
  facet normal 1 0 0
    outer loop
      vertex -74 13.75 2
      vertex -74 -13.75 12
      vertex -74 -13.75 2
    endloop
  endfacet
  facet normal 0.770549 -0.63738 0
    outer loop
      vertex -73.2361 16.1011 12
      vertex -72.9159 16.4882 2
      vertex -72.9159 16.4882 12
    endloop
  endfacet
  facet normal 0.770549 -0.63738 0
    outer loop
      vertex -72.9159 16.4882 2
      vertex -73.2361 16.1011 12
      vertex -73.2361 16.1011 2
    endloop
  endfacet
  facet normal -0.998032 -0.0627129 0
    outer loop
      vertex 74 13.75 2
      vertex 73.9685 14.2513 12
      vertex 73.9685 14.2513 2
    endloop
  endfacet
  facet normal -0.998032 -0.0627129 0
    outer loop
      vertex 73.9685 14.2513 12
      vertex 74 13.75 2
      vertex 74 13.75 12
    endloop
  endfacet
  facet normal -0.998032 0.0627129 0
    outer loop
      vertex 73.9685 -14.2513 2
      vertex 74 -13.75 12
      vertex 74 -13.75 2
    endloop
  endfacet
  facet normal -0.998032 0.0627129 0
    outer loop
      vertex 74 -13.75 12
      vertex 73.9685 -14.2513 2
      vertex 73.9685 -14.2513 12
    endloop
  endfacet
  facet normal 0.368127 0.929775 -0
    outer loop
      vertex -71.2361 -17.5542 2
      vertex -71.7031 -17.3693 12
      vertex -71.2361 -17.5542 12
    endloop
  endfacet
  facet normal 0.368127 0.929775 0
    outer loop
      vertex -71.7031 -17.3693 12
      vertex -71.2361 -17.5542 2
      vertex -71.7031 -17.3693 2
    endloop
  endfacet
  facet normal 0 1 -0
    outer loop
      vertex 70.2512 -17.7421 2
      vertex -70.2512 -17.7421 12
      vertex 70.2512 -17.7421 12
    endloop
  endfacet
  facet normal 0 1 0
    outer loop
      vertex -70.2512 -17.7421 12
      vertex 70.2512 -17.7421 2
      vertex -70.2512 -17.7421 2
    endloop
  endfacet
  facet normal 0 -1 0
    outer loop
      vertex -70.2512 17.7421 2
      vertex 70.2512 17.7421 12
      vertex -70.2512 17.7421 12
    endloop
  endfacet
  facet normal 0 -1 -0
    outer loop
      vertex 70.2512 17.7421 12
      vertex -70.2512 17.7421 2
      vertex 70.2512 17.7421 2
    endloop
  endfacet
  facet normal 0.982265 0.187496 0
    outer loop
      vertex -73.8743 -14.7448 12
      vertex -73.9685 -14.2513 2
      vertex -73.9685 -14.2513 12
    endloop
  endfacet
  facet normal 0.982265 0.187496 0
    outer loop
      vertex -73.9685 -14.2513 2
      vertex -73.8743 -14.7448 12
      vertex -73.8743 -14.7448 2
    endloop
  endfacet
  facet normal -0.125431 0.992102 0
    outer loop
      vertex 70.7495 -17.6791 2
      vertex 70.2512 -17.7421 12
      vertex 70.7495 -17.6791 12
    endloop
  endfacet
  facet normal -0.125431 0.992102 0
    outer loop
      vertex 70.2512 -17.7421 12
      vertex 70.7495 -17.6791 2
      vertex 70.2512 -17.7421 2
    endloop
  endfacet
  facet normal 0.368127 -0.929775 0
    outer loop
      vertex -71.7031 17.3693 2
      vertex -71.2361 17.5542 12
      vertex -71.7031 17.3693 12
    endloop
  endfacet
  facet normal 0.368127 -0.929775 0
    outer loop
      vertex -71.2361 17.5542 12
      vertex -71.7031 17.3693 2
      vertex -71.2361 17.5542 2
    endloop
  endfacet
  facet normal 0.24862 0.968601 -0
    outer loop
      vertex -70.7495 -17.6791 2
      vertex -71.2361 -17.5542 12
      vertex -70.7495 -17.6791 12
    endloop
  endfacet
  facet normal 0.24862 0.968601 0
    outer loop
      vertex -71.2361 -17.5542 12
      vertex -70.7495 -17.6791 2
      vertex -71.2361 -17.5542 2
    endloop
  endfacet
  facet normal -0.951065 -0.308992 0
    outer loop
      vertex 73.8743 14.7448 2
      vertex 73.7191 15.2225 12
      vertex 73.7191 15.2225 2
    endloop
  endfacet
  facet normal -0.951065 -0.308992 0
    outer loop
      vertex 73.7191 15.2225 12
      vertex 73.8743 14.7448 2
      vertex 73.8743 14.7448 12
    endloop
  endfacet
  facet normal -0.770549 -0.63738 0
    outer loop
      vertex 73.2361 16.1011 2
      vertex 72.9159 16.4882 12
      vertex 72.9159 16.4882 2
    endloop
  endfacet
  facet normal -0.770549 -0.63738 0
    outer loop
      vertex 72.9159 16.4882 12
      vertex 73.2361 16.1011 2
      vertex 73.2361 16.1011 12
    endloop
  endfacet
  facet normal -0.481751 -0.876308 0
    outer loop
      vertex 71.7031 17.3693 2
      vertex 72.1433 17.1273 12
      vertex 71.7031 17.3693 12
    endloop
  endfacet
  facet normal -0.481751 -0.876308 -0
    outer loop
      vertex 72.1433 17.1273 12
      vertex 71.7031 17.3693 2
      vertex 72.1433 17.1273 2
    endloop
  endfacet
  facet normal -1 0 0
    outer loop
      vertex 74 -13.75 2
      vertex 74 13.75 12
      vertex 74 13.75 2
    endloop
  endfacet
  facet normal -1 -0 0
    outer loop
      vertex 74 13.75 12
      vertex 74 -13.75 2
      vertex 74 -13.75 12
    endloop
  endfacet
  facet normal -0.770549 0.63738 0
    outer loop
      vertex 72.9159 -16.4882 2
      vertex 73.2361 -16.1011 12
      vertex 73.2361 -16.1011 2
    endloop
  endfacet
  facet normal -0.770549 0.63738 0
    outer loop
      vertex 73.2361 -16.1011 12
      vertex 72.9159 -16.4882 2
      vertex 72.9159 -16.4882 12
    endloop
  endfacet
  facet normal -0.982265 0.187496 0
    outer loop
      vertex 73.8743 -14.7448 2
      vertex 73.9685 -14.2513 12
      vertex 73.9685 -14.2513 2
    endloop
  endfacet
  facet normal -0.982265 0.187496 0
    outer loop
      vertex 73.9685 -14.2513 12
      vertex 73.8743 -14.7448 2
      vertex 73.8743 -14.7448 12
    endloop
  endfacet
  facet normal -0.125431 -0.992102 0
    outer loop
      vertex 70.2512 17.7421 2
      vertex 70.7495 17.6791 12
      vertex 70.2512 17.7421 12
    endloop
  endfacet
  facet normal -0.125431 -0.992102 -0
    outer loop
      vertex 70.7495 17.6791 12
      vertex 70.2512 17.7421 2
      vertex 70.7495 17.6791 2
    endloop
  endfacet
  facet normal 0.951065 0.308992 0
    outer loop
      vertex -73.7191 -15.2225 12
      vertex -73.8743 -14.7448 2
      vertex -73.8743 -14.7448 12
    endloop
  endfacet
  facet normal 0.951065 0.308992 0
    outer loop
      vertex -73.8743 -14.7448 2
      vertex -73.7191 -15.2225 12
      vertex -73.7191 -15.2225 2
    endloop
  endfacet
  facet normal 0.998032 0.0627129 0
    outer loop
      vertex -73.9685 -14.2513 12
      vertex -74 -13.75 2
      vertex -74 -13.75 12
    endloop
  endfacet
  facet normal 0.998032 0.0627129 0
    outer loop
      vertex -74 -13.75 2
      vertex -73.9685 -14.2513 12
      vertex -73.9685 -14.2513 2
    endloop
  endfacet
  facet normal 0 0 1
    outer loop
      vertex 70.2512 17.7421 2
      vertex 74 13.75 2
      vertex 73.9685 14.2513 2
    endloop
  endfacet
  facet normal 0 0 1
    outer loop
      vertex 74 13.75 2
      vertex 70.2512 17.7421 2
      vertex 74 -13.75 2
    endloop
  endfacet
  facet normal 0 0 1
    outer loop
      vertex 70.2512 17.7421 2
      vertex 73.9685 14.2513 2
      vertex 73.8743 14.7448 2
    endloop
  endfacet
  facet normal 0 0 1
    outer loop
      vertex 70.2512 -17.7421 2
      vertex 74 -13.75 2
      vertex 70.2512 17.7421 2
    endloop
  endfacet
  facet normal 0 0 1
    outer loop
      vertex 70.2512 17.7421 2
      vertex 73.8743 14.7448 2
      vertex 73.7191 15.2225 2
    endloop
  endfacet
  facet normal 0 0 1
    outer loop
      vertex 74 -13.75 2
      vertex 70.2512 -17.7421 2
      vertex 73.9685 -14.2513 2
    endloop
  endfacet
  facet normal 0 0 1
    outer loop
      vertex 70.2512 17.7421 2
      vertex 73.7191 15.2225 2
      vertex 73.5052 15.677 2
    endloop
  endfacet
  facet normal 0 0 1
    outer loop
      vertex 73.9685 -14.2513 2
      vertex 70.2512 -17.7421 2
      vertex 73.8743 -14.7448 2
    endloop
  endfacet
  facet normal 0 0 1
    outer loop
      vertex 70.2512 17.7421 2
      vertex 73.5052 15.677 2
      vertex 73.2361 16.1011 2
    endloop
  endfacet
  facet normal 0 0 1
    outer loop
      vertex 73.8743 -14.7448 2
      vertex 70.2512 -17.7421 2
      vertex 73.7191 -15.2225 2
    endloop
  endfacet
  facet normal 0 0 1
    outer loop
      vertex 70.2512 17.7421 2
      vertex 73.2361 16.1011 2
      vertex 72.9159 16.4882 2
    endloop
  endfacet
  facet normal 0 0 1
    outer loop
      vertex 73.7191 -15.2225 2
      vertex 70.2512 -17.7421 2
      vertex 73.5052 -15.677 2
    endloop
  endfacet
  facet normal 0 0 1
    outer loop
      vertex 70.2512 17.7421 2
      vertex 72.9159 16.4882 2
      vertex 72.5497 16.8321 2
    endloop
  endfacet
  facet normal 0 0 1
    outer loop
      vertex 73.5052 -15.677 2
      vertex 70.2512 -17.7421 2
      vertex 73.2361 -16.1011 2
    endloop
  endfacet
  facet normal 0 0 1
    outer loop
      vertex 70.2512 17.7421 2
      vertex 72.5497 16.8321 2
      vertex 72.1433 17.1273 2
    endloop
  endfacet
  facet normal 0 0 1
    outer loop
      vertex 73.2361 -16.1011 2
      vertex 70.2512 -17.7421 2
      vertex 72.9159 -16.4882 2
    endloop
  endfacet
  facet normal 0 0 1
    outer loop
      vertex 70.2512 17.7421 2
      vertex 72.1433 17.1273 2
      vertex 71.7031 17.3693 2
    endloop
  endfacet
  facet normal 0 0 1
    outer loop
      vertex 72.9159 -16.4882 2
      vertex 70.2512 -17.7421 2
      vertex 72.5497 -16.8321 2
    endloop
  endfacet
  facet normal 0 0 1
    outer loop
      vertex 70.2512 17.7421 2
      vertex 71.7031 17.3693 2
      vertex 71.2361 17.5542 2
    endloop
  endfacet
  facet normal 0 0 1
    outer loop
      vertex 72.5497 -16.8321 2
      vertex 70.2512 -17.7421 2
      vertex 72.1433 -17.1273 2
    endloop
  endfacet
  facet normal 0 0 1
    outer loop
      vertex 70.2512 17.7421 2
      vertex 71.2361 17.5542 2
      vertex 70.7495 17.6791 2
    endloop
  endfacet
  facet normal 0 0 1
    outer loop
      vertex 72.1433 -17.1273 2
      vertex 70.2512 -17.7421 2
      vertex 71.7031 -17.3693 2
    endloop
  endfacet
  facet normal 0 0 1
    outer loop
      vertex 71.7031 -17.3693 2
      vertex 70.2512 -17.7421 2
      vertex 71.2361 -17.5542 2
    endloop
  endfacet
  facet normal 0 0 1
    outer loop
      vertex 71.2361 -17.5542 2
      vertex 70.2512 -17.7421 2
      vertex 70.7495 -17.6791 2
    endloop
  endfacet
  facet normal -0 0 1
    outer loop
      vertex -70.2512 17.7421 2
      vertex 70.2512 -17.7421 2
      vertex 70.2512 17.7421 2
    endloop
  endfacet
  facet normal 0 0 1
    outer loop
      vertex -70.2512 17.7421 2
      vertex -70.2512 -17.7421 2
      vertex 70.2512 -17.7421 2
    endloop
  endfacet
  facet normal 0 0 1
    outer loop
      vertex -74 13.75 2
      vertex -70.2512 17.7421 2
      vertex -70.7495 17.6791 2
    endloop
  endfacet
  facet normal 0 0 1
    outer loop
      vertex -70.2512 17.7421 2
      vertex -74 13.75 2
      vertex -70.2512 -17.7421 2
    endloop
  endfacet
  facet normal 0 0 1
    outer loop
      vertex -74 13.75 2
      vertex -70.7495 17.6791 2
      vertex -71.2361 17.5542 2
    endloop
  endfacet
  facet normal -0 0 1
    outer loop
      vertex -74 -13.75 2
      vertex -70.2512 -17.7421 2
      vertex -74 13.75 2
    endloop
  endfacet
  facet normal 0 0 1
    outer loop
      vertex -74 13.75 2
      vertex -71.2361 17.5542 2
      vertex -71.7031 17.3693 2
    endloop
  endfacet
  facet normal 0 0 1
    outer loop
      vertex -70.2512 -17.7421 2
      vertex -74 -13.75 2
      vertex -70.7495 -17.6791 2
    endloop
  endfacet
  facet normal 0 0 1
    outer loop
      vertex -74 13.75 2
      vertex -71.7031 17.3693 2
      vertex -72.1433 17.1273 2
    endloop
  endfacet
  facet normal 0 0 1
    outer loop
      vertex -70.7495 -17.6791 2
      vertex -74 -13.75 2
      vertex -71.2361 -17.5542 2
    endloop
  endfacet
  facet normal 0 0 1
    outer loop
      vertex -74 13.75 2
      vertex -72.1433 17.1273 2
      vertex -72.5497 16.8321 2
    endloop
  endfacet
  facet normal 0 0 1
    outer loop
      vertex -71.2361 -17.5542 2
      vertex -74 -13.75 2
      vertex -71.7031 -17.3693 2
    endloop
  endfacet
  facet normal 0 0 1
    outer loop
      vertex -74 13.75 2
      vertex -72.5497 16.8321 2
      vertex -72.9159 16.4882 2
    endloop
  endfacet
  facet normal 0 0 1
    outer loop
      vertex -71.7031 -17.3693 2
      vertex -74 -13.75 2
      vertex -72.1433 -17.1273 2
    endloop
  endfacet
  facet normal 0 0 1
    outer loop
      vertex -74 13.75 2
      vertex -72.9159 16.4882 2
      vertex -73.2361 16.1011 2
    endloop
  endfacet
  facet normal 0 0 1
    outer loop
      vertex -72.1433 -17.1273 2
      vertex -74 -13.75 2
      vertex -72.5497 -16.8321 2
    endloop
  endfacet
  facet normal 0 0 1
    outer loop
      vertex -74 13.75 2
      vertex -73.2361 16.1011 2
      vertex -73.5052 15.677 2
    endloop
  endfacet
  facet normal 0 0 1
    outer loop
      vertex -72.5497 -16.8321 2
      vertex -74 -13.75 2
      vertex -72.9159 -16.4882 2
    endloop
  endfacet
  facet normal 0 0 1
    outer loop
      vertex -74 13.75 2
      vertex -73.5052 15.677 2
      vertex -73.7191 15.2225 2
    endloop
  endfacet
  facet normal 0 0 1
    outer loop
      vertex -72.9159 -16.4882 2
      vertex -74 -13.75 2
      vertex -73.2361 -16.1011 2
    endloop
  endfacet
  facet normal 0 0 1
    outer loop
      vertex -74 13.75 2
      vertex -73.7191 15.2225 2
      vertex -73.8743 14.7448 2
    endloop
  endfacet
  facet normal 0 0 1
    outer loop
      vertex -73.2361 -16.1011 2
      vertex -74 -13.75 2
      vertex -73.5052 -15.677 2
    endloop
  endfacet
  facet normal 0 0 1
    outer loop
      vertex -74 13.75 2
      vertex -73.8743 14.7448 2
      vertex -73.9685 14.2513 2
    endloop
  endfacet
  facet normal 0 0 1
    outer loop
      vertex -73.5052 -15.677 2
      vertex -74 -13.75 2
      vertex -73.7191 -15.2225 2
    endloop
  endfacet
  facet normal 0 0 1
    outer loop
      vertex -73.7191 -15.2225 2
      vertex -74 -13.75 2
      vertex -73.8743 -14.7448 2
    endloop
  endfacet
  facet normal 0 0 1
    outer loop
      vertex -73.8743 -14.7448 2
      vertex -74 -13.75 2
      vertex -73.9685 -14.2513 2
    endloop
  endfacet
  facet normal 0.481751 0.876308 -0
    outer loop
      vertex -71.7031 -17.3693 2
      vertex -72.1433 -17.1273 12
      vertex -71.7031 -17.3693 12
    endloop
  endfacet
  facet normal 0.481751 0.876308 0
    outer loop
      vertex -72.1433 -17.1273 12
      vertex -71.7031 -17.3693 2
      vertex -72.1433 -17.1273 2
    endloop
  endfacet
  facet normal 0.125431 0.992102 -0
    outer loop
      vertex -70.2512 -17.7421 2
      vertex -70.7495 -17.6791 12
      vertex -70.2512 -17.7421 12
    endloop
  endfacet
  facet normal 0.125431 0.992102 0
    outer loop
      vertex -70.7495 -17.6791 12
      vertex -70.2512 -17.7421 2
      vertex -70.7495 -17.6791 2
    endloop
  endfacet
  facet normal -0.982265 -0.187496 0
    outer loop
      vertex 73.9685 14.2513 2
      vertex 73.8743 14.7448 12
      vertex 73.8743 14.7448 2
    endloop
  endfacet
  facet normal -0.982265 -0.187496 0
    outer loop
      vertex 73.8743 14.7448 12
      vertex 73.9685 14.2513 2
      vertex 73.9685 14.2513 12
    endloop
  endfacet
  facet normal -0.844366 -0.535767 0
    outer loop
      vertex 73.5052 15.677 2
      vertex 73.2361 16.1011 12
      vertex 73.2361 16.1011 2
    endloop
  endfacet
  facet normal -0.844366 -0.535767 0
    outer loop
      vertex 73.2361 16.1011 12
      vertex 73.5052 15.677 2
      vertex 73.5052 15.677 12
    endloop
  endfacet
  facet normal -0.904805 -0.425826 0
    outer loop
      vertex 73.7191 15.2225 2
      vertex 73.5052 15.677 12
      vertex 73.5052 15.677 2
    endloop
  endfacet
  facet normal -0.904805 -0.425826 0
    outer loop
      vertex 73.5052 15.677 12
      vertex 73.7191 15.2225 2
      vertex 73.7191 15.2225 12
    endloop
  endfacet
  facet normal -0.684563 -0.728953 0
    outer loop
      vertex 72.5497 16.8321 2
      vertex 72.9159 16.4882 12
      vertex 72.5497 16.8321 12
    endloop
  endfacet
  facet normal -0.684563 -0.728953 -0
    outer loop
      vertex 72.9159 16.4882 12
      vertex 72.5497 16.8321 2
      vertex 72.9159 16.4882 2
    endloop
  endfacet
  facet normal -0.684563 0.728953 0
    outer loop
      vertex 72.9159 -16.4882 2
      vertex 72.5497 -16.8321 12
      vertex 72.9159 -16.4882 12
    endloop
  endfacet
  facet normal -0.684563 0.728953 0
    outer loop
      vertex 72.5497 -16.8321 12
      vertex 72.9159 -16.4882 2
      vertex 72.5497 -16.8321 2
    endloop
  endfacet
  facet normal -0.481751 0.876308 0
    outer loop
      vertex 72.1433 -17.1273 2
      vertex 71.7031 -17.3693 12
      vertex 72.1433 -17.1273 12
    endloop
  endfacet
  facet normal -0.481751 0.876308 0
    outer loop
      vertex 71.7031 -17.3693 12
      vertex 72.1433 -17.1273 2
      vertex 71.7031 -17.3693 2
    endloop
  endfacet
  facet normal -0.951065 0.308992 0
    outer loop
      vertex 73.7191 -15.2225 2
      vertex 73.8743 -14.7448 12
      vertex 73.8743 -14.7448 2
    endloop
  endfacet
  facet normal -0.951065 0.308992 0
    outer loop
      vertex 73.8743 -14.7448 12
      vertex 73.7191 -15.2225 2
      vertex 73.7191 -15.2225 12
    endloop
  endfacet
  facet normal 0.904805 -0.425826 0
    outer loop
      vertex -73.7191 15.2225 12
      vertex -73.5052 15.677 2
      vertex -73.5052 15.677 12
    endloop
  endfacet
  facet normal 0.904805 -0.425826 0
    outer loop
      vertex -73.5052 15.677 2
      vertex -73.7191 15.2225 12
      vertex -73.7191 15.2225 2
    endloop
  endfacet
  facet normal 0.951065 -0.308992 0
    outer loop
      vertex -73.8743 14.7448 12
      vertex -73.7191 15.2225 2
      vertex -73.7191 15.2225 12
    endloop
  endfacet
  facet normal 0.951065 -0.308992 0
    outer loop
      vertex -73.7191 15.2225 2
      vertex -73.8743 14.7448 12
      vertex -73.8743 14.7448 2
    endloop
  endfacet
  facet normal 0.481751 -0.876308 0
    outer loop
      vertex -72.1433 17.1273 2
      vertex -71.7031 17.3693 12
      vertex -72.1433 17.1273 12
    endloop
  endfacet
  facet normal 0.481751 -0.876308 0
    outer loop
      vertex -71.7031 17.3693 12
      vertex -72.1433 17.1273 2
      vertex -71.7031 17.3693 2
    endloop
  endfacet
  facet normal 0.904805 0.425826 0
    outer loop
      vertex -73.5052 -15.677 12
      vertex -73.7191 -15.2225 2
      vertex -73.7191 -15.2225 12
    endloop
  endfacet
  facet normal 0.904805 0.425826 0
    outer loop
      vertex -73.7191 -15.2225 2
      vertex -73.5052 -15.677 12
      vertex -73.5052 -15.677 2
    endloop
  endfacet
  facet normal 0.770549 0.63738 0
    outer loop
      vertex -72.9159 -16.4882 12
      vertex -73.2361 -16.1011 2
      vertex -73.2361 -16.1011 12
    endloop
  endfacet
  facet normal 0.770549 0.63738 0
    outer loop
      vertex -73.2361 -16.1011 2
      vertex -72.9159 -16.4882 12
      vertex -72.9159 -16.4882 2
    endloop
  endfacet
  facet normal -0.368127 -0.929775 0
    outer loop
      vertex 71.2361 17.5542 2
      vertex 71.7031 17.3693 12
      vertex 71.2361 17.5542 12
    endloop
  endfacet
  facet normal -0.368127 -0.929775 -0
    outer loop
      vertex 71.7031 17.3693 12
      vertex 71.2361 17.5542 2
      vertex 71.7031 17.3693 2
    endloop
  endfacet
  facet normal -0.587698 -0.80908 0
    outer loop
      vertex 72.1433 17.1273 2
      vertex 72.5497 16.8321 12
      vertex 72.1433 17.1273 12
    endloop
  endfacet
  facet normal -0.587698 -0.80908 -0
    outer loop
      vertex 72.5497 16.8321 12
      vertex 72.1433 17.1273 2
      vertex 72.5497 16.8321 2
    endloop
  endfacet
  facet normal -0.24862 0.968601 0
    outer loop
      vertex 71.2361 -17.5542 2
      vertex 70.7495 -17.6791 12
      vertex 71.2361 -17.5542 12
    endloop
  endfacet
  facet normal -0.24862 0.968601 0
    outer loop
      vertex 70.7495 -17.6791 12
      vertex 71.2361 -17.5542 2
      vertex 70.7495 -17.6791 2
    endloop
  endfacet
  facet normal -0.587698 0.80908 0
    outer loop
      vertex 72.5497 -16.8321 2
      vertex 72.1433 -17.1273 12
      vertex 72.5497 -16.8321 12
    endloop
  endfacet
  facet normal -0.587698 0.80908 0
    outer loop
      vertex 72.1433 -17.1273 12
      vertex 72.5497 -16.8321 2
      vertex 72.1433 -17.1273 2
    endloop
  endfacet
  facet normal -0.368127 0.929775 0
    outer loop
      vertex 71.7031 -17.3693 2
      vertex 71.2361 -17.5542 12
      vertex 71.7031 -17.3693 12
    endloop
  endfacet
  facet normal -0.368127 0.929775 0
    outer loop
      vertex 71.2361 -17.5542 12
      vertex 71.7031 -17.3693 2
      vertex 71.2361 -17.5542 2
    endloop
  endfacet
  facet normal -0.904805 0.425826 0
    outer loop
      vertex 73.5052 -15.677 2
      vertex 73.7191 -15.2225 12
      vertex 73.7191 -15.2225 2
    endloop
  endfacet
  facet normal -0.904805 0.425826 0
    outer loop
      vertex 73.7191 -15.2225 12
      vertex 73.5052 -15.677 2
      vertex 73.5052 -15.677 12
    endloop
  endfacet
  facet normal -0.844366 0.535767 0
    outer loop
      vertex 73.2361 -16.1011 2
      vertex 73.5052 -15.677 12
      vertex 73.5052 -15.677 2
    endloop
  endfacet
  facet normal -0.844366 0.535767 0
    outer loop
      vertex 73.5052 -15.677 12
      vertex 73.2361 -16.1011 2
      vertex 73.2361 -16.1011 12
    endloop
  endfacet
  facet normal 0.998032 -0.0627129 0
    outer loop
      vertex -74 13.75 12
      vertex -73.9685 14.2513 2
      vertex -73.9685 14.2513 12
    endloop
  endfacet
  facet normal 0.998032 -0.0627129 0
    outer loop
      vertex -73.9685 14.2513 2
      vertex -74 13.75 12
      vertex -74 13.75 2
    endloop
  endfacet
  facet normal 0.982265 -0.187496 0
    outer loop
      vertex -73.9685 14.2513 12
      vertex -73.8743 14.7448 2
      vertex -73.8743 14.7448 12
    endloop
  endfacet
  facet normal 0.982265 -0.187496 0
    outer loop
      vertex -73.8743 14.7448 2
      vertex -73.9685 14.2513 12
      vertex -73.9685 14.2513 2
    endloop
  endfacet
  facet normal 0.844366 -0.535767 0
    outer loop
      vertex -73.5052 15.677 12
      vertex -73.2361 16.1011 2
      vertex -73.2361 16.1011 12
    endloop
  endfacet
  facet normal 0.844366 -0.535767 0
    outer loop
      vertex -73.2361 16.1011 2
      vertex -73.5052 15.677 12
      vertex -73.5052 15.677 2
    endloop
  endfacet
  facet normal 0.684563 -0.728953 0
    outer loop
      vertex -72.9159 16.4882 2
      vertex -72.5497 16.8321 12
      vertex -72.9159 16.4882 12
    endloop
  endfacet
  facet normal 0.684563 -0.728953 0
    outer loop
      vertex -72.5497 16.8321 12
      vertex -72.9159 16.4882 2
      vertex -72.5497 16.8321 2
    endloop
  endfacet
  facet normal 0.587698 -0.80908 0
    outer loop
      vertex -72.5497 16.8321 2
      vertex -72.1433 17.1273 12
      vertex -72.5497 16.8321 12
    endloop
  endfacet
  facet normal 0.587698 -0.80908 0
    outer loop
      vertex -72.1433 17.1273 12
      vertex -72.5497 16.8321 2
      vertex -72.1433 17.1273 2
    endloop
  endfacet
  facet normal 0.24862 -0.968601 0
    outer loop
      vertex -71.2361 17.5542 2
      vertex -70.7495 17.6791 12
      vertex -71.2361 17.5542 12
    endloop
  endfacet
  facet normal 0.24862 -0.968601 0
    outer loop
      vertex -70.7495 17.6791 12
      vertex -71.2361 17.5542 2
      vertex -70.7495 17.6791 2
    endloop
  endfacet
  facet normal 0.125431 -0.992102 0
    outer loop
      vertex -70.7495 17.6791 2
      vertex -70.2512 17.7421 12
      vertex -70.7495 17.6791 12
    endloop
  endfacet
  facet normal 0.125431 -0.992102 0
    outer loop
      vertex -70.2512 17.7421 12
      vertex -70.7495 17.6791 2
      vertex -70.2512 17.7421 2
    endloop
  endfacet
  facet normal 0.844366 0.535767 0
    outer loop
      vertex -73.2361 -16.1011 12
      vertex -73.5052 -15.677 2
      vertex -73.5052 -15.677 12
    endloop
  endfacet
  facet normal 0.844366 0.535767 0
    outer loop
      vertex -73.5052 -15.677 2
      vertex -73.2361 -16.1011 12
      vertex -73.2361 -16.1011 2
    endloop
  endfacet
  facet normal 0.587698 0.80908 -0
    outer loop
      vertex -72.1433 -17.1273 2
      vertex -72.5497 -16.8321 12
      vertex -72.1433 -17.1273 12
    endloop
  endfacet
  facet normal 0.587698 0.80908 0
    outer loop
      vertex -72.5497 -16.8321 12
      vertex -72.1433 -17.1273 2
      vertex -72.5497 -16.8321 2
    endloop
  endfacet
  facet normal 0.684563 0.728953 -0
    outer loop
      vertex -72.5497 -16.8321 2
      vertex -72.9159 -16.4882 12
      vertex -72.5497 -16.8321 12
    endloop
  endfacet
  facet normal 0.684563 0.728953 0
    outer loop
      vertex -72.9159 -16.4882 12
      vertex -72.5497 -16.8321 2
      vertex -72.9159 -16.4882 2
    endloop
  endfacet
  facet normal -0.24862 -0.968601 0
    outer loop
      vertex 70.7495 17.6791 2
      vertex 71.2361 17.5542 12
      vertex 70.7495 17.6791 12
    endloop
  endfacet
  facet normal -0.24862 -0.968601 -0
    outer loop
      vertex 71.2361 17.5542 12
      vertex 70.7495 17.6791 2
      vertex 71.2361 17.5542 2
    endloop
  endfacet
endsolid OpenSCAD_Model
