solid OpenSCAD_Model
  facet normal -1 0 0
    outer loop
      vertex -11.25 -2.5 0
      vertex -11.25 2.5 24
      vertex -11.25 2.5 0
    endloop
  endfacet
  facet normal -1 -0 0
    outer loop
      vertex -11.25 2.5 24
      vertex -11.25 -2.5 0
      vertex -11.25 -2.5 24
    endloop
  endfacet
  facet normal -0.998029 -0.0627481 0
    outer loop
      vertex -11.2106 -3.12667 0
      vertex -11.25 -2.5 24
      vertex -11.25 -2.5 0
    endloop
  endfacet
  facet normal -0.998029 -0.0627481 0
    outer loop
      vertex -11.25 -2.5 24
      vertex -11.2106 -3.12667 0
      vertex -11.2106 -3.12667 24
    endloop
  endfacet
  facet normal -0.982275 -0.187447 0
    outer loop
      vertex -11.0929 -3.74345 0
      vertex -11.2106 -3.12667 24
      vertex -11.2106 -3.12667 0
    endloop
  endfacet
  facet normal -0.982275 -0.187447 0
    outer loop
      vertex -11.2106 -3.12667 24
      vertex -11.0929 -3.74345 0
      vertex -11.0929 -3.74345 24
    endloop
  endfacet
  facet normal 0 0 1
    outer loop
      vertex 10.25 2.5 24
      vertex 11.25 2.5 24
      vertex 11.2106 3.12667 24
    endloop
  endfacet
  facet normal 0 0 1
    outer loop
      vertex 11.25 2.5 24
      vertex 10.25 2.5 24
      vertex 11.25 -2.5 24
    endloop
  endfacet
  facet normal 0 0 1
    outer loop
      vertex 10.2185 3.00133 24
      vertex 11.2106 3.12667 24
      vertex 11.0929 3.74345 24
    endloop
  endfacet
  facet normal 0 0 1
    outer loop
      vertex 10.25 -2.5 24
      vertex 11.25 -2.5 24
      vertex 10.25 2.5 24
    endloop
  endfacet
  facet normal 0 0 1
    outer loop
      vertex 10.1243 3.49476 24
      vertex 11.0929 3.74345 24
      vertex 10.8989 4.34062 24
    endloop
  endfacet
  facet normal 0 0 1
    outer loop
      vertex 11.25 -2.5 24
      vertex 10.25 -2.5 24
      vertex 11.2106 -3.12667 24
    endloop
  endfacet
  facet normal 0 0 1
    outer loop
      vertex 9.96911 3.9725 24
      vertex 10.8989 4.34062 24
      vertex 10.6315 4.90877 24
    endloop
  endfacet
  facet normal -0 0 1
    outer loop
      vertex 10.2185 -3.00133 24
      vertex 11.2106 -3.12667 24
      vertex 10.25 -2.5 24
    endloop
  endfacet
  facet normal 0 0 1
    outer loop
      vertex 9.75523 4.42701 24
      vertex 10.6315 4.90877 24
      vertex 10.2951 5.43893 24
    endloop
  endfacet
  facet normal 0 0 1
    outer loop
      vertex 11.2106 -3.12667 24
      vertex 10.2185 -3.00133 24
      vertex 11.0929 -3.74345 24
    endloop
  endfacet
  facet normal -0 0 1
    outer loop
      vertex 10.1243 -3.49476 24
      vertex 11.0929 -3.74345 24
      vertex 10.2185 -3.00133 24
    endloop
  endfacet
  facet normal 0 0 1
    outer loop
      vertex 11.2106 3.12667 24
      vertex 10.2185 3.00133 24
      vertex 10.25 2.5 24
    endloop
  endfacet
  facet normal 0 0 1
    outer loop
      vertex 11.0929 3.74345 24
      vertex 10.1243 3.49476 24
      vertex 10.2185 3.00133 24
    endloop
  endfacet
  facet normal 0 0 1
    outer loop
      vertex 10.8989 4.34062 24
      vertex 9.96911 3.9725 24
      vertex 10.1243 3.49476 24
    endloop
  endfacet
  facet normal 0 0 1
    outer loop
      vertex 9.48607 4.85114 24
      vertex 10.2951 5.43893 24
      vertex 9.89484 5.92274 24
    endloop
  endfacet
  facet normal 0 0 1
    outer loop
      vertex 10.6315 4.90877 24
      vertex 9.75523 4.42701 24
      vertex 9.96911 3.9725 24
    endloop
  endfacet
  facet normal 0 0 1
    outer loop
      vertex 10.2951 5.43893 24
      vertex 9.48607 4.85114 24
      vertex 9.75523 4.42701 24
    endloop
  endfacet
  facet normal 0 0 1
    outer loop
      vertex 9.16587 5.23819 24
      vertex 9.89484 5.92274 24
      vertex 9.43712 6.35257 24
    endloop
  endfacet
  facet normal 0 0 1
    outer loop
      vertex 9.89484 5.92274 24
      vertex 9.16587 5.23819 24
      vertex 9.48607 4.85114 24
    endloop
  endfacet
  facet normal 0 0 1
    outer loop
      vertex 8.7997 5.58205 24
      vertex 9.43712 6.35257 24
      vertex 8.92913 6.72164 24
    endloop
  endfacet
  facet normal 0 0 1
    outer loop
      vertex 9.43712 6.35257 24
      vertex 8.7997 5.58205 24
      vertex 9.16587 5.23819 24
    endloop
  endfacet
  facet normal 0 0 1
    outer loop
      vertex 8.92913 6.72164 24
      vertex 8.39331 5.87731 24
      vertex 8.7997 5.58205 24
    endloop
  endfacet
  facet normal 0 0 1
    outer loop
      vertex 8.3789 7.02413 24
      vertex 8.39331 5.87731 24
      vertex 8.92913 6.72164 24
    endloop
  endfacet
  facet normal 0 0 1
    outer loop
      vertex 8.3789 7.02413 24
      vertex 7.95312 6.11931 24
      vertex 8.39331 5.87731 24
    endloop
  endfacet
  facet normal 0 0 1
    outer loop
      vertex 7.79508 7.25528 24
      vertex 7.95312 6.11931 24
      vertex 8.3789 7.02413 24
    endloop
  endfacet
  facet normal 0 0 1
    outer loop
      vertex 7.79508 7.25528 24
      vertex 7.48607 6.30423 24
      vertex 7.95312 6.11931 24
    endloop
  endfacet
  facet normal 0 0 1
    outer loop
      vertex 7.18691 7.41144 24
      vertex 7.48607 6.30423 24
      vertex 7.79508 7.25528 24
    endloop
  endfacet
  facet normal 0 0 1
    outer loop
      vertex 7.18691 7.41144 24
      vertex 6.99953 6.42915 24
      vertex 7.48607 6.30423 24
    endloop
  endfacet
  facet normal 0 0 1
    outer loop
      vertex 6.56395 7.49013 24
      vertex 6.99953 6.42915 24
      vertex 7.18691 7.41144 24
    endloop
  endfacet
  facet normal 0 0 1
    outer loop
      vertex 6.56395 7.49013 24
      vertex 6.50116 6.49211 24
      vertex 6.99953 6.42915 24
    endloop
  endfacet
  facet normal 0 0 1
    outer loop
      vertex 6.56395 7.49013 24
      vertex -6.50116 6.49211 24
      vertex 6.50116 6.49211 24
    endloop
  endfacet
  facet normal -0 0 1
    outer loop
      vertex -6.56395 7.49013 24
      vertex -6.50116 6.49211 24
      vertex 6.56395 7.49013 24
    endloop
  endfacet
  facet normal 0 0 1
    outer loop
      vertex -6.56395 7.49013 24
      vertex -6.99953 6.42915 24
      vertex -6.50116 6.49211 24
    endloop
  endfacet
  facet normal -0 0 1
    outer loop
      vertex -7.18691 7.41144 24
      vertex -6.99953 6.42915 24
      vertex -6.56395 7.49013 24
    endloop
  endfacet
  facet normal 0 0 1
    outer loop
      vertex -7.18691 7.41144 24
      vertex -7.48607 6.30423 24
      vertex -6.99953 6.42915 24
    endloop
  endfacet
  facet normal -0 0 1
    outer loop
      vertex -7.79508 7.25528 24
      vertex -7.48607 6.30423 24
      vertex -7.18691 7.41144 24
    endloop
  endfacet
  facet normal 0 0 1
    outer loop
      vertex -7.79508 7.25528 24
      vertex -7.95312 6.11931 24
      vertex -7.48607 6.30423 24
    endloop
  endfacet
  facet normal -0 0 1
    outer loop
      vertex -8.3789 7.02413 24
      vertex -7.95312 6.11931 24
      vertex -7.79508 7.25528 24
    endloop
  endfacet
  facet normal 0 0 1
    outer loop
      vertex -8.3789 7.02413 24
      vertex -8.39331 5.87731 24
      vertex -7.95312 6.11931 24
    endloop
  endfacet
  facet normal -0 0 1
    outer loop
      vertex -8.92913 6.72164 24
      vertex -8.39331 5.87731 24
      vertex -8.3789 7.02413 24
    endloop
  endfacet
  facet normal 0 0 1
    outer loop
      vertex -8.39331 5.87731 24
      vertex -8.92913 6.72164 24
      vertex -8.7997 5.58205 24
    endloop
  endfacet
  facet normal -0 0 1
    outer loop
      vertex -9.43712 6.35257 24
      vertex -8.7997 5.58205 24
      vertex -8.92913 6.72164 24
    endloop
  endfacet
  facet normal 0 0 1
    outer loop
      vertex -8.7997 5.58205 24
      vertex -9.43712 6.35257 24
      vertex -9.16587 5.23819 24
    endloop
  endfacet
  facet normal -0 0 1
    outer loop
      vertex -9.89484 5.92274 24
      vertex -9.16587 5.23819 24
      vertex -9.43712 6.35257 24
    endloop
  endfacet
  facet normal 0 0 1
    outer loop
      vertex -9.16587 5.23819 24
      vertex -9.89484 5.92274 24
      vertex -9.48607 4.85114 24
    endloop
  endfacet
  facet normal -0 0 1
    outer loop
      vertex -10.2951 5.43893 24
      vertex -9.48607 4.85114 24
      vertex -9.89484 5.92274 24
    endloop
  endfacet
  facet normal 0 0 1
    outer loop
      vertex -9.48607 4.85114 24
      vertex -10.2951 5.43893 24
      vertex -9.75523 4.42701 24
    endloop
  endfacet
  facet normal -0 0 1
    outer loop
      vertex -10.6315 4.90877 24
      vertex -9.75523 4.42701 24
      vertex -10.2951 5.43893 24
    endloop
  endfacet
  facet normal 0 0 1
    outer loop
      vertex -9.75523 4.42701 24
      vertex -10.6315 4.90877 24
      vertex -9.96911 3.9725 24
    endloop
  endfacet
  facet normal -0 0 1
    outer loop
      vertex -11.0929 3.74345 24
      vertex -10.1243 3.49476 24
      vertex -10.8989 4.34062 24
    endloop
  endfacet
  facet normal 0 0 1
    outer loop
      vertex -9.96911 3.9725 24
      vertex -10.8989 4.34062 24
      vertex -10.1243 3.49476 24
    endloop
  endfacet
  facet normal -0 0 1
    outer loop
      vertex -10.8989 4.34062 24
      vertex -9.96911 3.9725 24
      vertex -10.6315 4.90877 24
    endloop
  endfacet
  facet normal 0 0 1
    outer loop
      vertex 11.0929 -3.74345 24
      vertex 10.1243 -3.49476 24
      vertex 10.8989 -4.34062 24
    endloop
  endfacet
  facet normal -0 0 1
    outer loop
      vertex 9.96911 -3.9725 24
      vertex 10.8989 -4.34062 24
      vertex 10.1243 -3.49476 24
    endloop
  endfacet
  facet normal 0 0 1
    outer loop
      vertex 10.8989 -4.34062 24
      vertex 9.96911 -3.9725 24
      vertex 10.6315 -4.90877 24
    endloop
  endfacet
  facet normal -0 0 1
    outer loop
      vertex 9.75523 -4.42701 24
      vertex 10.6315 -4.90877 24
      vertex 9.96911 -3.9725 24
    endloop
  endfacet
  facet normal 0 0 1
    outer loop
      vertex 10.6315 -4.90877 24
      vertex 9.75523 -4.42701 24
      vertex 10.2951 -5.43893 24
    endloop
  endfacet
  facet normal -0 0 1
    outer loop
      vertex 9.48607 -4.85114 24
      vertex 10.2951 -5.43893 24
      vertex 9.75523 -4.42701 24
    endloop
  endfacet
  facet normal 0 0 1
    outer loop
      vertex 10.2951 -5.43893 24
      vertex 9.48607 -4.85114 24
      vertex 9.89484 -5.92274 24
    endloop
  endfacet
  facet normal -0 0 1
    outer loop
      vertex 9.16587 -5.23819 24
      vertex 9.89484 -5.92274 24
      vertex 9.48607 -4.85114 24
    endloop
  endfacet
  facet normal 0 0 1
    outer loop
      vertex 9.89484 -5.92274 24
      vertex 9.16587 -5.23819 24
      vertex 9.43712 -6.35257 24
    endloop
  endfacet
  facet normal -0 0 1
    outer loop
      vertex 8.7997 -5.58205 24
      vertex 9.43712 -6.35257 24
      vertex 9.16587 -5.23819 24
    endloop
  endfacet
  facet normal 0 0 1
    outer loop
      vertex 9.43712 -6.35257 24
      vertex 8.7997 -5.58205 24
      vertex 8.92913 -6.72164 24
    endloop
  endfacet
  facet normal -0 0 1
    outer loop
      vertex 8.39331 -5.87731 24
      vertex 8.92913 -6.72164 24
      vertex 8.7997 -5.58205 24
    endloop
  endfacet
  facet normal 0 0 1
    outer loop
      vertex 8.39331 -5.87731 24
      vertex 8.3789 -7.02413 24
      vertex 8.92913 -6.72164 24
    endloop
  endfacet
  facet normal -0 0 1
    outer loop
      vertex 7.95312 -6.11931 24
      vertex 8.3789 -7.02413 24
      vertex 8.39331 -5.87731 24
    endloop
  endfacet
  facet normal 0 0 1
    outer loop
      vertex 7.95312 -6.11931 24
      vertex 7.79508 -7.25528 24
      vertex 8.3789 -7.02413 24
    endloop
  endfacet
  facet normal -0 0 1
    outer loop
      vertex 7.48607 -6.30423 24
      vertex 7.79508 -7.25528 24
      vertex 7.95312 -6.11931 24
    endloop
  endfacet
  facet normal 0 0 1
    outer loop
      vertex 7.48607 -6.30423 24
      vertex 7.18691 -7.41144 24
      vertex 7.79508 -7.25528 24
    endloop
  endfacet
  facet normal -0 0 1
    outer loop
      vertex 6.99953 -6.42915 24
      vertex 7.18691 -7.41144 24
      vertex 7.48607 -6.30423 24
    endloop
  endfacet
  facet normal 0 0 1
    outer loop
      vertex 6.99953 -6.42915 24
      vertex 6.56395 -7.49013 24
      vertex 7.18691 -7.41144 24
    endloop
  endfacet
  facet normal -0 0 1
    outer loop
      vertex 6.50116 -6.49211 24
      vertex 6.56395 -7.49013 24
      vertex 6.99953 -6.42915 24
    endloop
  endfacet
  facet normal -0 0 1
    outer loop
      vertex -6.50116 -6.49211 24
      vertex 6.56395 -7.49013 24
      vertex 6.50116 -6.49211 24
    endloop
  endfacet
  facet normal 0 0 1
    outer loop
      vertex -6.50116 -6.49211 24
      vertex -6.56395 -7.49013 24
      vertex 6.56395 -7.49013 24
    endloop
  endfacet
  facet normal 0 0 1
    outer loop
      vertex -6.99953 -6.42915 24
      vertex -6.56395 -7.49013 24
      vertex -6.50116 -6.49211 24
    endloop
  endfacet
  facet normal 0 0 1
    outer loop
      vertex -6.99953 -6.42915 24
      vertex -7.18691 -7.41144 24
      vertex -6.56395 -7.49013 24
    endloop
  endfacet
  facet normal 0 0 1
    outer loop
      vertex -7.48607 -6.30423 24
      vertex -7.18691 -7.41144 24
      vertex -6.99953 -6.42915 24
    endloop
  endfacet
  facet normal 0 0 1
    outer loop
      vertex -7.48607 -6.30423 24
      vertex -7.79508 -7.25528 24
      vertex -7.18691 -7.41144 24
    endloop
  endfacet
  facet normal 0 0 1
    outer loop
      vertex -7.95312 -6.11931 24
      vertex -7.79508 -7.25528 24
      vertex -7.48607 -6.30423 24
    endloop
  endfacet
  facet normal 0 0 1
    outer loop
      vertex -7.95312 -6.11931 24
      vertex -8.3789 -7.02413 24
      vertex -7.79508 -7.25528 24
    endloop
  endfacet
  facet normal 0 0 1
    outer loop
      vertex -8.39331 -5.87731 24
      vertex -8.3789 -7.02413 24
      vertex -7.95312 -6.11931 24
    endloop
  endfacet
  facet normal 0 0 1
    outer loop
      vertex -8.92913 -6.72164 24
      vertex -8.39331 -5.87731 24
      vertex -8.7997 -5.58205 24
    endloop
  endfacet
  facet normal 0 0 1
    outer loop
      vertex -8.39331 -5.87731 24
      vertex -8.92913 -6.72164 24
      vertex -8.3789 -7.02413 24
    endloop
  endfacet
  facet normal 0 0 1
    outer loop
      vertex -9.43712 -6.35257 24
      vertex -8.7997 -5.58205 24
      vertex -9.16587 -5.23819 24
    endloop
  endfacet
  facet normal 0 0 1
    outer loop
      vertex -8.7997 -5.58205 24
      vertex -9.43712 -6.35257 24
      vertex -8.92913 -6.72164 24
    endloop
  endfacet
  facet normal 0 0 1
    outer loop
      vertex -9.89484 -5.92274 24
      vertex -9.16587 -5.23819 24
      vertex -9.48607 -4.85114 24
    endloop
  endfacet
  facet normal 0 0 1
    outer loop
      vertex -10.2951 -5.43893 24
      vertex -9.48607 -4.85114 24
      vertex -9.75523 -4.42701 24
    endloop
  endfacet
  facet normal 0 0 1
    outer loop
      vertex -9.16587 -5.23819 24
      vertex -9.89484 -5.92274 24
      vertex -9.43712 -6.35257 24
    endloop
  endfacet
  facet normal 0 0 1
    outer loop
      vertex -10.6315 -4.90877 24
      vertex -9.75523 -4.42701 24
      vertex -9.96911 -3.9725 24
    endloop
  endfacet
  facet normal 0 0 1
    outer loop
      vertex -10.8989 -4.34062 24
      vertex -9.96911 -3.9725 24
      vertex -10.1243 -3.49476 24
    endloop
  endfacet
  facet normal 0 0 1
    outer loop
      vertex -11.0929 -3.74345 24
      vertex -10.1243 -3.49476 24
      vertex -10.2185 -3.00133 24
    endloop
  endfacet
  facet normal 0 0 1
    outer loop
      vertex -9.48607 -4.85114 24
      vertex -10.2951 -5.43893 24
      vertex -9.89484 -5.92274 24
    endloop
  endfacet
  facet normal 0 0 1
    outer loop
      vertex -11.2106 -3.12667 24
      vertex -10.2185 -3.00133 24
      vertex -10.25 -2.5 24
    endloop
  endfacet
  facet normal 0 0 1
    outer loop
      vertex -10.25 2.5 24
      vertex -11.25 2.5 24
      vertex -10.25 -2.5 24
    endloop
  endfacet
  facet normal 0 0 1
    outer loop
      vertex -10.1243 3.49476 24
      vertex -11.0929 3.74345 24
      vertex -10.2185 3.00133 24
    endloop
  endfacet
  facet normal 0 0 1
    outer loop
      vertex -11.25 -2.5 24
      vertex -10.25 -2.5 24
      vertex -11.25 2.5 24
    endloop
  endfacet
  facet normal -0 0 1
    outer loop
      vertex -11.2106 3.12667 24
      vertex -10.2185 3.00133 24
      vertex -11.0929 3.74345 24
    endloop
  endfacet
  facet normal 0 -0 1
    outer loop
      vertex -11.2106 -3.12667 24
      vertex -10.25 -2.5 24
      vertex -11.25 -2.5 24
    endloop
  endfacet
  facet normal 0 0 1
    outer loop
      vertex -10.2185 3.00133 24
      vertex -11.2106 3.12667 24
      vertex -10.25 2.5 24
    endloop
  endfacet
  facet normal 0 0 1
    outer loop
      vertex -9.75523 -4.42701 24
      vertex -10.6315 -4.90877 24
      vertex -10.2951 -5.43893 24
    endloop
  endfacet
  facet normal 0 0 1
    outer loop
      vertex -10.25 2.5 24
      vertex -11.2106 3.12667 24
      vertex -11.25 2.5 24
    endloop
  endfacet
  facet normal 0 0 1
    outer loop
      vertex -9.96911 -3.9725 24
      vertex -10.8989 -4.34062 24
      vertex -10.6315 -4.90877 24
    endloop
  endfacet
  facet normal 0 0 1
    outer loop
      vertex -10.1243 -3.49476 24
      vertex -11.0929 -3.74345 24
      vertex -10.8989 -4.34062 24
    endloop
  endfacet
  facet normal 0 0 1
    outer loop
      vertex -10.2185 -3.00133 24
      vertex -11.2106 -3.12667 24
      vertex -11.0929 -3.74345 24
    endloop
  endfacet
  facet normal 0 1 -0
    outer loop
      vertex 6.56395 7.49013 0
      vertex -6.56395 7.49013 24
      vertex 6.56395 7.49013 24
    endloop
  endfacet
  facet normal 0 1 0
    outer loop
      vertex -6.56395 7.49013 24
      vertex 6.56395 7.49013 0
      vertex -6.56395 7.49013 0
    endloop
  endfacet
  facet normal -0.998029 0.0627481 0
    outer loop
      vertex -11.25 2.5 0
      vertex -11.2106 3.12667 24
      vertex -11.2106 3.12667 0
    endloop
  endfacet
  facet normal -0.998029 0.0627481 0
    outer loop
      vertex -11.2106 3.12667 24
      vertex -11.25 2.5 0
      vertex -11.25 2.5 24
    endloop
  endfacet
  facet normal -0.248703 -0.96858 0
    outer loop
      vertex -7.79508 -7.25528 0
      vertex -7.18691 -7.41144 24
      vertex -7.79508 -7.25528 24
    endloop
  endfacet
  facet normal -0.248703 -0.96858 -0
    outer loop
      vertex -7.18691 -7.41144 24
      vertex -7.79508 -7.25528 0
      vertex -7.18691 -7.41144 0
    endloop
  endfacet
  facet normal 0.951072 -0.30897 0
    outer loop
      vertex 10.8989 -4.34062 24
      vertex 11.0929 -3.74345 0
      vertex 11.0929 -3.74345 24
    endloop
  endfacet
  facet normal 0.951072 -0.30897 0
    outer loop
      vertex 11.0929 -3.74345 0
      vertex 10.8989 -4.34062 24
      vertex 10.8989 -4.34062 0
    endloop
  endfacet
  facet normal 0.368124 0.929777 -0
    outer loop
      vertex 8.3789 7.02413 0
      vertex 7.79508 7.25528 24
      vertex 8.3789 7.02413 24
    endloop
  endfacet
  facet normal 0.368124 0.929777 0
    outer loop
      vertex 7.79508 7.25528 24
      vertex 8.3789 7.02413 0
      vertex 7.79508 7.25528 0
    endloop
  endfacet
  facet normal -0.248703 0.96858 0
    outer loop
      vertex -7.18691 7.41144 0
      vertex -7.79508 7.25528 24
      vertex -7.18691 7.41144 24
    endloop
  endfacet
  facet normal -0.248703 0.96858 0
    outer loop
      vertex -7.79508 7.25528 24
      vertex -7.18691 7.41144 0
      vertex -7.79508 7.25528 0
    endloop
  endfacet
  facet normal -0.951072 0.30897 0
    outer loop
      vertex -11.0929 3.74345 0
      vertex -10.8989 4.34062 24
      vertex -10.8989 4.34062 0
    endloop
  endfacet
  facet normal -0.951072 0.30897 0
    outer loop
      vertex -10.8989 4.34062 24
      vertex -11.0929 3.74345 0
      vertex -11.0929 3.74345 24
    endloop
  endfacet
  facet normal 0 0 -1
    outer loop
      vertex 6.56395 -7.49013 0
      vertex 11.25 -2.5 0
      vertex 11.2106 -3.12667 0
    endloop
  endfacet
  facet normal -0 0 -1
    outer loop
      vertex 11.25 -2.5 0
      vertex 6.56395 -7.49013 0
      vertex 11.25 2.5 0
    endloop
  endfacet
  facet normal 0 0 -1
    outer loop
      vertex 6.56395 -7.49013 0
      vertex 11.2106 -3.12667 0
      vertex 11.0929 -3.74345 0
    endloop
  endfacet
  facet normal 0 0 -1
    outer loop
      vertex 6.56395 7.49013 0
      vertex 11.25 2.5 0
      vertex 6.56395 -7.49013 0
    endloop
  endfacet
  facet normal 0 0 -1
    outer loop
      vertex 6.56395 -7.49013 0
      vertex 11.0929 -3.74345 0
      vertex 10.8989 -4.34062 0
    endloop
  endfacet
  facet normal 0 0 -1
    outer loop
      vertex 11.25 2.5 0
      vertex 6.56395 7.49013 0
      vertex 11.2106 3.12667 0
    endloop
  endfacet
  facet normal 0 0 -1
    outer loop
      vertex 6.56395 -7.49013 0
      vertex 10.8989 -4.34062 0
      vertex 10.6315 -4.90877 0
    endloop
  endfacet
  facet normal 0 0 -1
    outer loop
      vertex 11.2106 3.12667 0
      vertex 6.56395 7.49013 0
      vertex 11.0929 3.74345 0
    endloop
  endfacet
  facet normal 0 0 -1
    outer loop
      vertex 6.56395 -7.49013 0
      vertex 10.6315 -4.90877 0
      vertex 10.2951 -5.43893 0
    endloop
  endfacet
  facet normal 0 0 -1
    outer loop
      vertex 11.0929 3.74345 0
      vertex 6.56395 7.49013 0
      vertex 10.8989 4.34062 0
    endloop
  endfacet
  facet normal 0 0 -1
    outer loop
      vertex 6.56395 -7.49013 0
      vertex 10.2951 -5.43893 0
      vertex 9.89484 -5.92274 0
    endloop
  endfacet
  facet normal 0 0 -1
    outer loop
      vertex 10.8989 4.34062 0
      vertex 6.56395 7.49013 0
      vertex 10.6315 4.90877 0
    endloop
  endfacet
  facet normal 0 0 -1
    outer loop
      vertex 6.56395 -7.49013 0
      vertex 9.89484 -5.92274 0
      vertex 9.43712 -6.35257 0
    endloop
  endfacet
  facet normal 0 0 -1
    outer loop
      vertex 10.6315 4.90877 0
      vertex 6.56395 7.49013 0
      vertex 10.2951 5.43893 0
    endloop
  endfacet
  facet normal 0 0 -1
    outer loop
      vertex 6.56395 -7.49013 0
      vertex 9.43712 -6.35257 0
      vertex 8.92913 -6.72164 0
    endloop
  endfacet
  facet normal 0 0 -1
    outer loop
      vertex 10.2951 5.43893 0
      vertex 6.56395 7.49013 0
      vertex 9.89484 5.92274 0
    endloop
  endfacet
  facet normal 0 0 -1
    outer loop
      vertex 6.56395 -7.49013 0
      vertex 8.92913 -6.72164 0
      vertex 8.3789 -7.02413 0
    endloop
  endfacet
  facet normal 0 0 -1
    outer loop
      vertex 9.89484 5.92274 0
      vertex 6.56395 7.49013 0
      vertex 9.43712 6.35257 0
    endloop
  endfacet
  facet normal 0 0 -1
    outer loop
      vertex 6.56395 -7.49013 0
      vertex 8.3789 -7.02413 0
      vertex 7.79508 -7.25528 0
    endloop
  endfacet
  facet normal 0 0 -1
    outer loop
      vertex 9.43712 6.35257 0
      vertex 6.56395 7.49013 0
      vertex 8.92913 6.72164 0
    endloop
  endfacet
  facet normal 0 0 -1
    outer loop
      vertex 6.56395 -7.49013 0
      vertex 7.79508 -7.25528 0
      vertex 7.18691 -7.41144 0
    endloop
  endfacet
  facet normal 0 0 -1
    outer loop
      vertex 8.92913 6.72164 0
      vertex 6.56395 7.49013 0
      vertex 8.3789 7.02413 0
    endloop
  endfacet
  facet normal 0 0 -1
    outer loop
      vertex 8.3789 7.02413 0
      vertex 6.56395 7.49013 0
      vertex 7.79508 7.25528 0
    endloop
  endfacet
  facet normal 0 0 -1
    outer loop
      vertex 7.79508 7.25528 0
      vertex 6.56395 7.49013 0
      vertex 7.18691 7.41144 0
    endloop
  endfacet
  facet normal 0 0 -1
    outer loop
      vertex -6.56395 -7.49013 0
      vertex 6.56395 7.49013 0
      vertex 6.56395 -7.49013 0
    endloop
  endfacet
  facet normal 0 0 -1
    outer loop
      vertex -6.56395 -7.49013 0
      vertex -6.56395 7.49013 0
      vertex 6.56395 7.49013 0
    endloop
  endfacet
  facet normal 0 0 -1
    outer loop
      vertex -11.25 -2.5 0
      vertex -6.56395 -7.49013 0
      vertex -7.18691 -7.41144 0
    endloop
  endfacet
  facet normal 0 0 -1
    outer loop
      vertex -6.56395 -7.49013 0
      vertex -11.25 -2.5 0
      vertex -6.56395 7.49013 0
    endloop
  endfacet
  facet normal 0 0 -1
    outer loop
      vertex -11.25 -2.5 0
      vertex -7.18691 -7.41144 0
      vertex -7.79508 -7.25528 0
    endloop
  endfacet
  facet normal 0 0 -1
    outer loop
      vertex -11.25 2.5 0
      vertex -6.56395 7.49013 0
      vertex -11.25 -2.5 0
    endloop
  endfacet
  facet normal 0 0 -1
    outer loop
      vertex -11.25 -2.5 0
      vertex -7.79508 -7.25528 0
      vertex -8.3789 -7.02413 0
    endloop
  endfacet
  facet normal 0 0 -1
    outer loop
      vertex -6.56395 7.49013 0
      vertex -11.25 2.5 0
      vertex -7.18691 7.41144 0
    endloop
  endfacet
  facet normal 0 0 -1
    outer loop
      vertex -11.25 -2.5 0
      vertex -8.3789 -7.02413 0
      vertex -8.92913 -6.72164 0
    endloop
  endfacet
  facet normal 0 0 -1
    outer loop
      vertex -7.18691 7.41144 0
      vertex -11.25 2.5 0
      vertex -7.79508 7.25528 0
    endloop
  endfacet
  facet normal 0 0 -1
    outer loop
      vertex -11.25 -2.5 0
      vertex -8.92913 -6.72164 0
      vertex -9.43712 -6.35257 0
    endloop
  endfacet
  facet normal 0 0 -1
    outer loop
      vertex -7.79508 7.25528 0
      vertex -11.25 2.5 0
      vertex -8.3789 7.02413 0
    endloop
  endfacet
  facet normal 0 0 -1
    outer loop
      vertex -11.25 -2.5 0
      vertex -9.43712 -6.35257 0
      vertex -9.89484 -5.92274 0
    endloop
  endfacet
  facet normal 0 0 -1
    outer loop
      vertex -8.3789 7.02413 0
      vertex -11.25 2.5 0
      vertex -8.92913 6.72164 0
    endloop
  endfacet
  facet normal 0 0 -1
    outer loop
      vertex -11.25 -2.5 0
      vertex -9.89484 -5.92274 0
      vertex -10.2951 -5.43893 0
    endloop
  endfacet
  facet normal 0 0 -1
    outer loop
      vertex -8.92913 6.72164 0
      vertex -11.25 2.5 0
      vertex -9.43712 6.35257 0
    endloop
  endfacet
  facet normal 0 0 -1
    outer loop
      vertex -11.25 -2.5 0
      vertex -10.2951 -5.43893 0
      vertex -10.6315 -4.90877 0
    endloop
  endfacet
  facet normal 0 0 -1
    outer loop
      vertex -9.43712 6.35257 0
      vertex -11.25 2.5 0
      vertex -9.89484 5.92274 0
    endloop
  endfacet
  facet normal 0 0 -1
    outer loop
      vertex -11.25 -2.5 0
      vertex -10.6315 -4.90877 0
      vertex -10.8989 -4.34062 0
    endloop
  endfacet
  facet normal 0 0 -1
    outer loop
      vertex -9.89484 5.92274 0
      vertex -11.25 2.5 0
      vertex -10.2951 5.43893 0
    endloop
  endfacet
  facet normal 0 0 -1
    outer loop
      vertex -11.25 -2.5 0
      vertex -10.8989 -4.34062 0
      vertex -11.0929 -3.74345 0
    endloop
  endfacet
  facet normal 0 0 -1
    outer loop
      vertex -10.2951 5.43893 0
      vertex -11.25 2.5 0
      vertex -10.6315 4.90877 0
    endloop
  endfacet
  facet normal 0 0 -1
    outer loop
      vertex -11.25 -2.5 0
      vertex -11.0929 -3.74345 0
      vertex -11.2106 -3.12667 0
    endloop
  endfacet
  facet normal 0 0 -1
    outer loop
      vertex -10.6315 4.90877 0
      vertex -11.25 2.5 0
      vertex -10.8989 4.34062 0
    endloop
  endfacet
  facet normal 0 0 -1
    outer loop
      vertex -10.8989 4.34062 0
      vertex -11.25 2.5 0
      vertex -11.0929 3.74345 0
    endloop
  endfacet
  facet normal 0 0 -1
    outer loop
      vertex -11.0929 3.74345 0
      vertex -11.25 2.5 0
      vertex -11.2106 3.12667 0
    endloop
  endfacet
  facet normal -0.7705 -0.637441 0
    outer loop
      vertex -9.89484 -5.92274 0
      vertex -10.2951 -5.43893 24
      vertex -10.2951 -5.43893 0
    endloop
  endfacet
  facet normal -0.7705 -0.637441 0
    outer loop
      vertex -10.2951 -5.43893 24
      vertex -9.89484 -5.92274 0
      vertex -9.89484 -5.92274 24
    endloop
  endfacet
  facet normal -0.368124 -0.929777 0
    outer loop
      vertex -8.3789 -7.02413 0
      vertex -7.79508 -7.25528 24
      vertex -8.3789 -7.02413 24
    endloop
  endfacet
  facet normal -0.368124 -0.929777 -0
    outer loop
      vertex -7.79508 -7.25528 24
      vertex -8.3789 -7.02413 0
      vertex -7.79508 -7.25528 0
    endloop
  endfacet
  facet normal 0 -1 0
    outer loop
      vertex -6.56395 -7.49013 0
      vertex 6.56395 -7.49013 24
      vertex -6.56395 -7.49013 24
    endloop
  endfacet
  facet normal 0 -1 -0
    outer loop
      vertex 6.56395 -7.49013 24
      vertex -6.56395 -7.49013 0
      vertex 6.56395 -7.49013 0
    endloop
  endfacet
  facet normal 0.12532 0.992116 -0
    outer loop
      vertex 7.18691 7.41144 0
      vertex 6.56395 7.49013 24
      vertex 7.18691 7.41144 24
    endloop
  endfacet
  facet normal 0.12532 0.992116 0
    outer loop
      vertex 6.56395 7.49013 24
      vertex 7.18691 7.41144 0
      vertex 6.56395 7.49013 0
    endloop
  endfacet
  facet normal 0.248703 0.96858 -0
    outer loop
      vertex 7.79508 7.25528 0
      vertex 7.18691 7.41144 24
      vertex 7.79508 7.25528 24
    endloop
  endfacet
  facet normal 0.248703 0.96858 0
    outer loop
      vertex 7.18691 7.41144 24
      vertex 7.79508 7.25528 0
      vertex 7.18691 7.41144 0
    endloop
  endfacet
  facet normal 1 -0 0
    outer loop
      vertex 11.25 -2.5 24
      vertex 11.25 2.5 0
      vertex 11.25 2.5 24
    endloop
  endfacet
  facet normal 1 0 0
    outer loop
      vertex 11.25 2.5 0
      vertex 11.25 -2.5 24
      vertex 11.25 -2.5 0
    endloop
  endfacet
  facet normal -0.12532 0.992116 0
    outer loop
      vertex -6.56395 7.49013 0
      vertex -7.18691 7.41144 24
      vertex -6.56395 7.49013 24
    endloop
  endfacet
  facet normal -0.12532 0.992116 0
    outer loop
      vertex -7.18691 7.41144 24
      vertex -6.56395 7.49013 0
      vertex -7.18691 7.41144 0
    endloop
  endfacet
  facet normal -0.7705 0.637441 0
    outer loop
      vertex -10.2951 5.43893 0
      vertex -9.89484 5.92274 24
      vertex -9.89484 5.92274 0
    endloop
  endfacet
  facet normal -0.7705 0.637441 0
    outer loop
      vertex -9.89484 5.92274 24
      vertex -10.2951 5.43893 0
      vertex -10.2951 5.43893 24
    endloop
  endfacet
  facet normal -0.481752 0.876308 0
    outer loop
      vertex -8.3789 7.02413 0
      vertex -8.92913 6.72164 24
      vertex -8.3789 7.02413 24
    endloop
  endfacet
  facet normal -0.481752 0.876308 0
    outer loop
      vertex -8.92913 6.72164 24
      vertex -8.3789 7.02413 0
      vertex -8.92913 6.72164 0
    endloop
  endfacet
  facet normal -0.982275 0.187447 0
    outer loop
      vertex -11.2106 3.12667 0
      vertex -11.0929 3.74345 24
      vertex -11.0929 3.74345 0
    endloop
  endfacet
  facet normal -0.982275 0.187447 0
    outer loop
      vertex -11.0929 3.74345 24
      vertex -11.2106 3.12667 0
      vertex -11.2106 3.12667 24
    endloop
  endfacet
  facet normal -0.951072 -0.30897 0
    outer loop
      vertex -10.8989 -4.34062 0
      vertex -11.0929 -3.74345 24
      vertex -11.0929 -3.74345 0
    endloop
  endfacet
  facet normal -0.951072 -0.30897 0
    outer loop
      vertex -11.0929 -3.74345 24
      vertex -10.8989 -4.34062 0
      vertex -10.8989 -4.34062 24
    endloop
  endfacet
  facet normal -0.684549 -0.728967 0
    outer loop
      vertex -9.89484 -5.92274 0
      vertex -9.43712 -6.35257 24
      vertex -9.89484 -5.92274 24
    endloop
  endfacet
  facet normal -0.684549 -0.728967 -0
    outer loop
      vertex -9.43712 -6.35257 24
      vertex -9.89484 -5.92274 0
      vertex -9.43712 -6.35257 0
    endloop
  endfacet
  facet normal 0.12532 -0.992116 0
    outer loop
      vertex 6.56395 -7.49013 0
      vertex 7.18691 -7.41144 24
      vertex 6.56395 -7.49013 24
    endloop
  endfacet
  facet normal 0.12532 -0.992116 0
    outer loop
      vertex 7.18691 -7.41144 24
      vertex 6.56395 -7.49013 0
      vertex 7.18691 -7.41144 0
    endloop
  endfacet
  facet normal 0.904797 -0.425843 0
    outer loop
      vertex 10.6315 -4.90877 24
      vertex 10.8989 -4.34062 0
      vertex 10.8989 -4.34062 24
    endloop
  endfacet
  facet normal 0.904797 -0.425843 0
    outer loop
      vertex 10.8989 -4.34062 0
      vertex 10.6315 -4.90877 24
      vertex 10.6315 -4.90877 0
    endloop
  endfacet
  facet normal 0.684549 -0.728967 0
    outer loop
      vertex 9.43712 -6.35257 0
      vertex 9.89484 -5.92274 24
      vertex 9.43712 -6.35257 24
    endloop
  endfacet
  facet normal 0.684549 -0.728967 0
    outer loop
      vertex 9.89484 -5.92274 24
      vertex 9.43712 -6.35257 0
      vertex 9.89484 -5.92274 0
    endloop
  endfacet
  facet normal 0.844364 -0.53577 0
    outer loop
      vertex 10.2951 -5.43893 24
      vertex 10.6315 -4.90877 0
      vertex 10.6315 -4.90877 24
    endloop
  endfacet
  facet normal 0.844364 -0.53577 0
    outer loop
      vertex 10.6315 -4.90877 0
      vertex 10.2951 -5.43893 24
      vertex 10.2951 -5.43893 0
    endloop
  endfacet
  facet normal 0.481752 -0.876308 0
    outer loop
      vertex 8.3789 -7.02413 0
      vertex 8.92913 -6.72164 24
      vertex 8.3789 -7.02413 24
    endloop
  endfacet
  facet normal 0.481752 -0.876308 0
    outer loop
      vertex 8.92913 -6.72164 24
      vertex 8.3789 -7.02413 0
      vertex 8.92913 -6.72164 0
    endloop
  endfacet
  facet normal 0.248703 -0.96858 0
    outer loop
      vertex 7.18691 -7.41144 0
      vertex 7.79508 -7.25528 24
      vertex 7.18691 -7.41144 24
    endloop
  endfacet
  facet normal 0.248703 -0.96858 0
    outer loop
      vertex 7.79508 -7.25528 24
      vertex 7.18691 -7.41144 0
      vertex 7.79508 -7.25528 0
    endloop
  endfacet
  facet normal 0.587779 0.809022 -0
    outer loop
      vertex 9.43712 6.35257 0
      vertex 8.92913 6.72164 24
      vertex 9.43712 6.35257 24
    endloop
  endfacet
  facet normal 0.587779 0.809022 0
    outer loop
      vertex 8.92913 6.72164 24
      vertex 9.43712 6.35257 0
      vertex 8.92913 6.72164 0
    endloop
  endfacet
  facet normal 0.982275 0.187447 0
    outer loop
      vertex 11.2106 3.12667 24
      vertex 11.0929 3.74345 0
      vertex 11.0929 3.74345 24
    endloop
  endfacet
  facet normal 0.982275 0.187447 0
    outer loop
      vertex 11.0929 3.74345 0
      vertex 11.2106 3.12667 24
      vertex 11.2106 3.12667 0
    endloop
  endfacet
  facet normal 0.998029 0.0627481 0
    outer loop
      vertex 11.25 2.5 24
      vertex 11.2106 3.12667 0
      vertex 11.2106 3.12667 24
    endloop
  endfacet
  facet normal 0.998029 0.0627481 0
    outer loop
      vertex 11.2106 3.12667 0
      vertex 11.25 2.5 24
      vertex 11.25 2.5 0
    endloop
  endfacet
  facet normal 0.844364 0.53577 0
    outer loop
      vertex 10.6315 4.90877 24
      vertex 10.2951 5.43893 0
      vertex 10.2951 5.43893 24
    endloop
  endfacet
  facet normal 0.844364 0.53577 0
    outer loop
      vertex 10.2951 5.43893 0
      vertex 10.6315 4.90877 24
      vertex 10.6315 4.90877 0
    endloop
  endfacet
  facet normal 0.982275 -0.187447 0
    outer loop
      vertex 11.0929 -3.74345 24
      vertex 11.2106 -3.12667 0
      vertex 11.2106 -3.12667 24
    endloop
  endfacet
  facet normal 0.982275 -0.187447 0
    outer loop
      vertex 11.2106 -3.12667 0
      vertex 11.0929 -3.74345 24
      vertex 11.0929 -3.74345 0
    endloop
  endfacet
  facet normal -0.368124 0.929777 0
    outer loop
      vertex -7.79508 7.25528 0
      vertex -8.3789 7.02413 24
      vertex -7.79508 7.25528 24
    endloop
  endfacet
  facet normal -0.368124 0.929777 0
    outer loop
      vertex -8.3789 7.02413 24
      vertex -7.79508 7.25528 0
      vertex -8.3789 7.02413 0
    endloop
  endfacet
  facet normal -0.587779 0.809022 0
    outer loop
      vertex -8.92913 6.72164 0
      vertex -9.43712 6.35257 24
      vertex -8.92913 6.72164 24
    endloop
  endfacet
  facet normal -0.587779 0.809022 0
    outer loop
      vertex -9.43712 6.35257 24
      vertex -8.92913 6.72164 0
      vertex -9.43712 6.35257 0
    endloop
  endfacet
  facet normal -0.684549 0.728967 0
    outer loop
      vertex -9.43712 6.35257 0
      vertex -9.89484 5.92274 24
      vertex -9.43712 6.35257 24
    endloop
  endfacet
  facet normal -0.684549 0.728967 0
    outer loop
      vertex -9.89484 5.92274 24
      vertex -9.43712 6.35257 0
      vertex -9.89484 5.92274 0
    endloop
  endfacet
  facet normal -0.904797 0.425843 0
    outer loop
      vertex -10.8989 4.34062 0
      vertex -10.6315 4.90877 24
      vertex -10.6315 4.90877 0
    endloop
  endfacet
  facet normal -0.904797 0.425843 0
    outer loop
      vertex -10.6315 4.90877 24
      vertex -10.8989 4.34062 0
      vertex -10.8989 4.34062 24
    endloop
  endfacet
  facet normal -0.844364 0.53577 0
    outer loop
      vertex -10.6315 4.90877 0
      vertex -10.2951 5.43893 24
      vertex -10.2951 5.43893 0
    endloop
  endfacet
  facet normal -0.844364 0.53577 0
    outer loop
      vertex -10.2951 5.43893 24
      vertex -10.6315 4.90877 0
      vertex -10.6315 4.90877 24
    endloop
  endfacet
  facet normal -0.904797 -0.425843 0
    outer loop
      vertex -10.6315 -4.90877 0
      vertex -10.8989 -4.34062 24
      vertex -10.8989 -4.34062 0
    endloop
  endfacet
  facet normal -0.904797 -0.425843 0
    outer loop
      vertex -10.8989 -4.34062 24
      vertex -10.6315 -4.90877 0
      vertex -10.6315 -4.90877 24
    endloop
  endfacet
  facet normal -0.12532 -0.992116 0
    outer loop
      vertex -7.18691 -7.41144 0
      vertex -6.56395 -7.49013 24
      vertex -7.18691 -7.41144 24
    endloop
  endfacet
  facet normal -0.12532 -0.992116 -0
    outer loop
      vertex -6.56395 -7.49013 24
      vertex -7.18691 -7.41144 0
      vertex -6.56395 -7.49013 0
    endloop
  endfacet
  facet normal 0.7705 -0.637441 0
    outer loop
      vertex 9.89484 -5.92274 24
      vertex 10.2951 -5.43893 0
      vertex 10.2951 -5.43893 24
    endloop
  endfacet
  facet normal 0.7705 -0.637441 0
    outer loop
      vertex 10.2951 -5.43893 0
      vertex 9.89484 -5.92274 24
      vertex 9.89484 -5.92274 0
    endloop
  endfacet
  facet normal 0.587779 -0.809022 0
    outer loop
      vertex 8.92913 -6.72164 0
      vertex 9.43712 -6.35257 24
      vertex 8.92913 -6.72164 24
    endloop
  endfacet
  facet normal 0.587779 -0.809022 0
    outer loop
      vertex 9.43712 -6.35257 24
      vertex 8.92913 -6.72164 0
      vertex 9.43712 -6.35257 0
    endloop
  endfacet
  facet normal 0.368124 -0.929777 0
    outer loop
      vertex 7.79508 -7.25528 0
      vertex 8.3789 -7.02413 24
      vertex 7.79508 -7.25528 24
    endloop
  endfacet
  facet normal 0.368124 -0.929777 0
    outer loop
      vertex 8.3789 -7.02413 24
      vertex 7.79508 -7.25528 0
      vertex 8.3789 -7.02413 0
    endloop
  endfacet
  facet normal 0.481752 0.876308 -0
    outer loop
      vertex 8.92913 6.72164 0
      vertex 8.3789 7.02413 24
      vertex 8.92913 6.72164 24
    endloop
  endfacet
  facet normal 0.481752 0.876308 0
    outer loop
      vertex 8.3789 7.02413 24
      vertex 8.92913 6.72164 0
      vertex 8.3789 7.02413 0
    endloop
  endfacet
  facet normal 0.951072 0.30897 0
    outer loop
      vertex 11.0929 3.74345 24
      vertex 10.8989 4.34062 0
      vertex 10.8989 4.34062 24
    endloop
  endfacet
  facet normal 0.951072 0.30897 0
    outer loop
      vertex 10.8989 4.34062 0
      vertex 11.0929 3.74345 24
      vertex 11.0929 3.74345 0
    endloop
  endfacet
  facet normal 0.684549 0.728967 -0
    outer loop
      vertex 9.89484 5.92274 0
      vertex 9.43712 6.35257 24
      vertex 9.89484 5.92274 24
    endloop
  endfacet
  facet normal 0.684549 0.728967 0
    outer loop
      vertex 9.43712 6.35257 24
      vertex 9.89484 5.92274 0
      vertex 9.43712 6.35257 0
    endloop
  endfacet
  facet normal 0.7705 0.637441 0
    outer loop
      vertex 10.2951 5.43893 24
      vertex 9.89484 5.92274 0
      vertex 9.89484 5.92274 24
    endloop
  endfacet
  facet normal 0.7705 0.637441 0
    outer loop
      vertex 9.89484 5.92274 0
      vertex 10.2951 5.43893 24
      vertex 10.2951 5.43893 0
    endloop
  endfacet
  facet normal 0.998029 -0.0627481 0
    outer loop
      vertex 11.2106 -3.12667 24
      vertex 11.25 -2.5 0
      vertex 11.25 -2.5 24
    endloop
  endfacet
  facet normal 0.998029 -0.0627481 0
    outer loop
      vertex 11.25 -2.5 0
      vertex 11.2106 -3.12667 24
      vertex 11.2106 -3.12667 0
    endloop
  endfacet
  facet normal -0.844364 -0.53577 0
    outer loop
      vertex -10.2951 -5.43893 0
      vertex -10.6315 -4.90877 24
      vertex -10.6315 -4.90877 0
    endloop
  endfacet
  facet normal -0.844364 -0.53577 0
    outer loop
      vertex -10.6315 -4.90877 24
      vertex -10.2951 -5.43893 0
      vertex -10.2951 -5.43893 24
    endloop
  endfacet
  facet normal -0.481752 -0.876308 0
    outer loop
      vertex -8.92913 -6.72164 0
      vertex -8.3789 -7.02413 24
      vertex -8.92913 -6.72164 24
    endloop
  endfacet
  facet normal -0.481752 -0.876308 -0
    outer loop
      vertex -8.3789 -7.02413 24
      vertex -8.92913 -6.72164 0
      vertex -8.3789 -7.02413 0
    endloop
  endfacet
  facet normal -0.587779 -0.809022 0
    outer loop
      vertex -9.43712 -6.35257 0
      vertex -8.92913 -6.72164 24
      vertex -9.43712 -6.35257 24
    endloop
  endfacet
  facet normal -0.587779 -0.809022 -0
    outer loop
      vertex -8.92913 -6.72164 24
      vertex -9.43712 -6.35257 0
      vertex -8.92913 -6.72164 0
    endloop
  endfacet
  facet normal 0.904797 0.425843 0
    outer loop
      vertex 10.8989 4.34062 24
      vertex 10.6315 4.90877 0
      vertex 10.6315 4.90877 24
    endloop
  endfacet
  facet normal 0.904797 0.425843 0
    outer loop
      vertex 10.6315 4.90877 0
      vertex 10.8989 4.34062 24
      vertex 10.8989 4.34062 0
    endloop
  endfacet
  facet normal 1 -0 0
    outer loop
      vertex -10.25 -2.5 24
      vertex -10.25 2.5 2
      vertex -10.25 2.5 24
    endloop
  endfacet
  facet normal 1 0 0
    outer loop
      vertex -10.25 2.5 2
      vertex -10.25 -2.5 24
      vertex -10.25 -2.5 2
    endloop
  endfacet
  facet normal 0.98226 0.187522 0
    outer loop
      vertex -10.1243 -3.49476 24
      vertex -10.2185 -3.00133 2
      vertex -10.2185 -3.00133 24
    endloop
  endfacet
  facet normal 0.98226 0.187522 0
    outer loop
      vertex -10.2185 -3.00133 2
      vertex -10.1243 -3.49476 24
      vertex -10.1243 -3.49476 2
    endloop
  endfacet
  facet normal 0 0 1
    outer loop
      vertex 6.50116 6.49211 2
      vertex 10.25 2.5 2
      vertex 10.2185 3.00133 2
    endloop
  endfacet
  facet normal 0 0 1
    outer loop
      vertex 10.25 2.5 2
      vertex 6.50116 6.49211 2
      vertex 10.25 -2.5 2
    endloop
  endfacet
  facet normal 0 0 1
    outer loop
      vertex 6.50116 6.49211 2
      vertex 10.2185 3.00133 2
      vertex 10.1243 3.49476 2
    endloop
  endfacet
  facet normal 0 0 1
    outer loop
      vertex 6.50116 -6.49211 2
      vertex 10.25 -2.5 2
      vertex 6.50116 6.49211 2
    endloop
  endfacet
  facet normal 0 0 1
    outer loop
      vertex 6.50116 6.49211 2
      vertex 10.1243 3.49476 2
      vertex 9.96911 3.9725 2
    endloop
  endfacet
  facet normal 0 0 1
    outer loop
      vertex 10.25 -2.5 2
      vertex 6.50116 -6.49211 2
      vertex 10.2185 -3.00133 2
    endloop
  endfacet
  facet normal 0 0 1
    outer loop
      vertex 6.50116 6.49211 2
      vertex 9.96911 3.9725 2
      vertex 9.75523 4.42701 2
    endloop
  endfacet
  facet normal 0 0 1
    outer loop
      vertex 10.2185 -3.00133 2
      vertex 6.50116 -6.49211 2
      vertex 10.1243 -3.49476 2
    endloop
  endfacet
  facet normal 0 0 1
    outer loop
      vertex 6.50116 6.49211 2
      vertex 9.75523 4.42701 2
      vertex 9.48607 4.85114 2
    endloop
  endfacet
  facet normal 0 0 1
    outer loop
      vertex 10.1243 -3.49476 2
      vertex 6.50116 -6.49211 2
      vertex 9.96911 -3.9725 2
    endloop
  endfacet
  facet normal 0 0 1
    outer loop
      vertex 6.50116 6.49211 2
      vertex 9.48607 4.85114 2
      vertex 9.16587 5.23819 2
    endloop
  endfacet
  facet normal 0 0 1
    outer loop
      vertex 9.96911 -3.9725 2
      vertex 6.50116 -6.49211 2
      vertex 9.75523 -4.42701 2
    endloop
  endfacet
  facet normal 0 0 1
    outer loop
      vertex 6.50116 6.49211 2
      vertex 9.16587 5.23819 2
      vertex 8.7997 5.58205 2
    endloop
  endfacet
  facet normal 0 0 1
    outer loop
      vertex 9.75523 -4.42701 2
      vertex 6.50116 -6.49211 2
      vertex 9.48607 -4.85114 2
    endloop
  endfacet
  facet normal 0 0 1
    outer loop
      vertex 6.50116 6.49211 2
      vertex 8.7997 5.58205 2
      vertex 8.39331 5.87731 2
    endloop
  endfacet
  facet normal 0 0 1
    outer loop
      vertex 9.48607 -4.85114 2
      vertex 6.50116 -6.49211 2
      vertex 9.16587 -5.23819 2
    endloop
  endfacet
  facet normal 0 0 1
    outer loop
      vertex 6.50116 6.49211 2
      vertex 8.39331 5.87731 2
      vertex 7.95312 6.11931 2
    endloop
  endfacet
  facet normal 0 0 1
    outer loop
      vertex 9.16587 -5.23819 2
      vertex 6.50116 -6.49211 2
      vertex 8.7997 -5.58205 2
    endloop
  endfacet
  facet normal 0 0 1
    outer loop
      vertex 6.50116 6.49211 2
      vertex 7.95312 6.11931 2
      vertex 7.48607 6.30423 2
    endloop
  endfacet
  facet normal 0 0 1
    outer loop
      vertex 8.7997 -5.58205 2
      vertex 6.50116 -6.49211 2
      vertex 8.39331 -5.87731 2
    endloop
  endfacet
  facet normal 0 0 1
    outer loop
      vertex 6.50116 6.49211 2
      vertex 7.48607 6.30423 2
      vertex 6.99953 6.42915 2
    endloop
  endfacet
  facet normal 0 0 1
    outer loop
      vertex 8.39331 -5.87731 2
      vertex 6.50116 -6.49211 2
      vertex 7.95312 -6.11931 2
    endloop
  endfacet
  facet normal 0 0 1
    outer loop
      vertex 7.95312 -6.11931 2
      vertex 6.50116 -6.49211 2
      vertex 7.48607 -6.30423 2
    endloop
  endfacet
  facet normal 0 0 1
    outer loop
      vertex 7.48607 -6.30423 2
      vertex 6.50116 -6.49211 2
      vertex 6.99953 -6.42915 2
    endloop
  endfacet
  facet normal -0 0 1
    outer loop
      vertex -6.50116 6.49211 2
      vertex 6.50116 -6.49211 2
      vertex 6.50116 6.49211 2
    endloop
  endfacet
  facet normal 0 0 1
    outer loop
      vertex -6.50116 6.49211 2
      vertex -6.50116 -6.49211 2
      vertex 6.50116 -6.49211 2
    endloop
  endfacet
  facet normal 0 0 1
    outer loop
      vertex -10.25 2.5 2
      vertex -6.50116 6.49211 2
      vertex -6.99953 6.42915 2
    endloop
  endfacet
  facet normal 0 0 1
    outer loop
      vertex -6.50116 6.49211 2
      vertex -10.25 2.5 2
      vertex -6.50116 -6.49211 2
    endloop
  endfacet
  facet normal 0 0 1
    outer loop
      vertex -10.25 2.5 2
      vertex -6.99953 6.42915 2
      vertex -7.48607 6.30423 2
    endloop
  endfacet
  facet normal -0 0 1
    outer loop
      vertex -10.25 -2.5 2
      vertex -6.50116 -6.49211 2
      vertex -10.25 2.5 2
    endloop
  endfacet
  facet normal 0 0 1
    outer loop
      vertex -10.25 2.5 2
      vertex -7.48607 6.30423 2
      vertex -7.95312 6.11931 2
    endloop
  endfacet
  facet normal 0 0 1
    outer loop
      vertex -6.50116 -6.49211 2
      vertex -10.25 -2.5 2
      vertex -6.99953 -6.42915 2
    endloop
  endfacet
  facet normal 0 0 1
    outer loop
      vertex -10.25 2.5 2
      vertex -7.95312 6.11931 2
      vertex -8.39331 5.87731 2
    endloop
  endfacet
  facet normal 0 0 1
    outer loop
      vertex -6.99953 -6.42915 2
      vertex -10.25 -2.5 2
      vertex -7.48607 -6.30423 2
    endloop
  endfacet
  facet normal 0 0 1
    outer loop
      vertex -10.25 2.5 2
      vertex -8.39331 5.87731 2
      vertex -8.7997 5.58205 2
    endloop
  endfacet
  facet normal 0 0 1
    outer loop
      vertex -7.48607 -6.30423 2
      vertex -10.25 -2.5 2
      vertex -7.95312 -6.11931 2
    endloop
  endfacet
  facet normal 0 0 1
    outer loop
      vertex -10.25 2.5 2
      vertex -8.7997 5.58205 2
      vertex -9.16587 5.23819 2
    endloop
  endfacet
  facet normal 0 0 1
    outer loop
      vertex -7.95312 -6.11931 2
      vertex -10.25 -2.5 2
      vertex -8.39331 -5.87731 2
    endloop
  endfacet
  facet normal 0 0 1
    outer loop
      vertex -10.25 2.5 2
      vertex -9.16587 5.23819 2
      vertex -9.48607 4.85114 2
    endloop
  endfacet
  facet normal 0 0 1
    outer loop
      vertex -8.39331 -5.87731 2
      vertex -10.25 -2.5 2
      vertex -8.7997 -5.58205 2
    endloop
  endfacet
  facet normal 0 0 1
    outer loop
      vertex -10.25 2.5 2
      vertex -9.48607 4.85114 2
      vertex -9.75523 4.42701 2
    endloop
  endfacet
  facet normal 0 0 1
    outer loop
      vertex -8.7997 -5.58205 2
      vertex -10.25 -2.5 2
      vertex -9.16587 -5.23819 2
    endloop
  endfacet
  facet normal 0 0 1
    outer loop
      vertex -10.25 2.5 2
      vertex -9.75523 4.42701 2
      vertex -9.96911 3.9725 2
    endloop
  endfacet
  facet normal 0 0 1
    outer loop
      vertex -9.16587 -5.23819 2
      vertex -10.25 -2.5 2
      vertex -9.48607 -4.85114 2
    endloop
  endfacet
  facet normal 0 0 1
    outer loop
      vertex -10.25 2.5 2
      vertex -9.96911 3.9725 2
      vertex -10.1243 3.49476 2
    endloop
  endfacet
  facet normal 0 0 1
    outer loop
      vertex -9.48607 -4.85114 2
      vertex -10.25 -2.5 2
      vertex -9.75523 -4.42701 2
    endloop
  endfacet
  facet normal 0 0 1
    outer loop
      vertex -10.25 2.5 2
      vertex -10.1243 3.49476 2
      vertex -10.2185 3.00133 2
    endloop
  endfacet
  facet normal 0 0 1
    outer loop
      vertex -9.75523 -4.42701 2
      vertex -10.25 -2.5 2
      vertex -9.96911 -3.9725 2
    endloop
  endfacet
  facet normal 0 0 1
    outer loop
      vertex -9.96911 -3.9725 2
      vertex -10.25 -2.5 2
      vertex -10.1243 -3.49476 2
    endloop
  endfacet
  facet normal 0 0 1
    outer loop
      vertex -10.1243 -3.49476 2
      vertex -10.25 -2.5 2
      vertex -10.2185 -3.00133 2
    endloop
  endfacet
  facet normal -0.368128 0.929775 0
    outer loop
      vertex 7.95312 -6.11931 2
      vertex 7.48607 -6.30423 24
      vertex 7.95312 -6.11931 24
    endloop
  endfacet
  facet normal -0.368128 0.929775 0
    outer loop
      vertex 7.48607 -6.30423 24
      vertex 7.95312 -6.11931 2
      vertex 7.48607 -6.30423 2
    endloop
  endfacet
  facet normal -0.98226 0.187522 0
    outer loop
      vertex 10.1243 -3.49476 2
      vertex 10.2185 -3.00133 24
      vertex 10.2185 -3.00133 2
    endloop
  endfacet
  facet normal -0.98226 0.187522 0
    outer loop
      vertex 10.2185 -3.00133 24
      vertex 10.1243 -3.49476 2
      vertex 10.1243 -3.49476 24
    endloop
  endfacet
  facet normal 0.125336 0.992114 -0
    outer loop
      vertex -6.50116 -6.49211 2
      vertex -6.99953 -6.42915 24
      vertex -6.50116 -6.49211 24
    endloop
  endfacet
  facet normal 0.125336 0.992114 0
    outer loop
      vertex -6.99953 -6.42915 24
      vertex -6.50116 -6.49211 2
      vertex -6.99953 -6.42915 2
    endloop
  endfacet
  facet normal -0.248686 0.968584 0
    outer loop
      vertex 7.48607 -6.30423 2
      vertex 6.99953 -6.42915 24
      vertex 7.48607 -6.30423 24
    endloop
  endfacet
  facet normal -0.248686 0.968584 0
    outer loop
      vertex 6.99953 -6.42915 24
      vertex 7.48607 -6.30423 2
      vertex 6.99953 -6.42915 2
    endloop
  endfacet
  facet normal 0.998032 0.0627092 0
    outer loop
      vertex -10.2185 -3.00133 24
      vertex -10.25 -2.5 2
      vertex -10.25 -2.5 24
    endloop
  endfacet
  facet normal 0.998032 0.0627092 0
    outer loop
      vertex -10.25 -2.5 2
      vertex -10.2185 -3.00133 24
      vertex -10.2185 -3.00133 2
    endloop
  endfacet
  facet normal 0.368128 -0.929775 0
    outer loop
      vertex -7.95312 6.11931 2
      vertex -7.48607 6.30423 24
      vertex -7.95312 6.11931 24
    endloop
  endfacet
  facet normal 0.368128 -0.929775 0
    outer loop
      vertex -7.48607 6.30423 24
      vertex -7.95312 6.11931 2
      vertex -7.48607 6.30423 2
    endloop
  endfacet
  facet normal 0.770509 -0.637429 0
    outer loop
      vertex -9.48607 4.85114 24
      vertex -9.16587 5.23819 2
      vertex -9.16587 5.23819 24
    endloop
  endfacet
  facet normal 0.770509 -0.637429 0
    outer loop
      vertex -9.16587 5.23819 2
      vertex -9.48607 4.85114 24
      vertex -9.48607 4.85114 2
    endloop
  endfacet
  facet normal -0.98226 -0.187522 0
    outer loop
      vertex 10.2185 3.00133 2
      vertex 10.1243 3.49476 24
      vertex 10.1243 3.49476 2
    endloop
  endfacet
  facet normal -0.98226 -0.187522 0
    outer loop
      vertex 10.1243 3.49476 24
      vertex 10.2185 3.00133 2
      vertex 10.2185 3.00133 24
    endloop
  endfacet
  facet normal 0.248686 -0.968584 0
    outer loop
      vertex -7.48607 6.30423 2
      vertex -6.99953 6.42915 24
      vertex -7.48607 6.30423 24
    endloop
  endfacet
  facet normal 0.248686 -0.968584 0
    outer loop
      vertex -6.99953 6.42915 24
      vertex -7.48607 6.30423 2
      vertex -6.99953 6.42915 2
    endloop
  endfacet
  facet normal -0.125336 0.992114 0
    outer loop
      vertex 6.99953 -6.42915 2
      vertex 6.50116 -6.49211 24
      vertex 6.99953 -6.42915 24
    endloop
  endfacet
  facet normal -0.125336 0.992114 0
    outer loop
      vertex 6.50116 -6.49211 24
      vertex 6.99953 -6.42915 2
      vertex 6.50116 -6.49211 2
    endloop
  endfacet
  facet normal 0.368128 0.929775 -0
    outer loop
      vertex -7.48607 -6.30423 2
      vertex -7.95312 -6.11931 24
      vertex -7.48607 -6.30423 24
    endloop
  endfacet
  facet normal 0.368128 0.929775 0
    outer loop
      vertex -7.95312 -6.11931 24
      vertex -7.48607 -6.30423 2
      vertex -7.95312 -6.11931 2
    endloop
  endfacet
  facet normal -0.684551 0.728965 0
    outer loop
      vertex 9.16587 -5.23819 2
      vertex 8.7997 -5.58205 24
      vertex 9.16587 -5.23819 24
    endloop
  endfacet
  facet normal -0.684551 0.728965 0
    outer loop
      vertex 8.7997 -5.58205 24
      vertex 9.16587 -5.23819 2
      vertex 8.7997 -5.58205 2
    endloop
  endfacet
  facet normal -1 0 0
    outer loop
      vertex 10.25 -2.5 2
      vertex 10.25 2.5 24
      vertex 10.25 2.5 2
    endloop
  endfacet
  facet normal -1 -0 0
    outer loop
      vertex 10.25 2.5 24
      vertex 10.25 -2.5 2
      vertex 10.25 -2.5 24
    endloop
  endfacet
  facet normal 0.998032 -0.0627092 0
    outer loop
      vertex -10.25 2.5 24
      vertex -10.2185 3.00133 2
      vertex -10.2185 3.00133 24
    endloop
  endfacet
  facet normal 0.998032 -0.0627092 0
    outer loop
      vertex -10.2185 3.00133 2
      vertex -10.25 2.5 24
      vertex -10.25 2.5 2
    endloop
  endfacet
  facet normal 0.98226 -0.187522 0
    outer loop
      vertex -10.2185 3.00133 24
      vertex -10.1243 3.49476 2
      vertex -10.1243 3.49476 24
    endloop
  endfacet
  facet normal 0.98226 -0.187522 0
    outer loop
      vertex -10.1243 3.49476 2
      vertex -10.2185 3.00133 24
      vertex -10.2185 3.00133 2
    endloop
  endfacet
  facet normal 0.587786 -0.809017 0
    outer loop
      vertex -8.7997 5.58205 2
      vertex -8.39331 5.87731 24
      vertex -8.7997 5.58205 24
    endloop
  endfacet
  facet normal 0.587786 -0.809017 0
    outer loop
      vertex -8.39331 5.87731 24
      vertex -8.7997 5.58205 2
      vertex -8.39331 5.87731 2
    endloop
  endfacet
  facet normal -0.368128 -0.929775 0
    outer loop
      vertex 7.48607 6.30423 2
      vertex 7.95312 6.11931 24
      vertex 7.48607 6.30423 24
    endloop
  endfacet
  facet normal -0.368128 -0.929775 -0
    outer loop
      vertex 7.95312 6.11931 24
      vertex 7.48607 6.30423 2
      vertex 7.95312 6.11931 2
    endloop
  endfacet
  facet normal -0.481759 -0.876304 0
    outer loop
      vertex 7.95312 6.11931 2
      vertex 8.39331 5.87731 24
      vertex 7.95312 6.11931 24
    endloop
  endfacet
  facet normal -0.481759 -0.876304 -0
    outer loop
      vertex 8.39331 5.87731 24
      vertex 7.95312 6.11931 2
      vertex 8.39331 5.87731 2
    endloop
  endfacet
  facet normal 0 -1 0
    outer loop
      vertex -6.50116 6.49211 2
      vertex 6.50116 6.49211 24
      vertex -6.50116 6.49211 24
    endloop
  endfacet
  facet normal 0 -1 -0
    outer loop
      vertex 6.50116 6.49211 24
      vertex -6.50116 6.49211 2
      vertex 6.50116 6.49211 2
    endloop
  endfacet
  facet normal -0.125336 -0.992114 0
    outer loop
      vertex 6.50116 6.49211 2
      vertex 6.99953 6.42915 24
      vertex 6.50116 6.49211 24
    endloop
  endfacet
  facet normal -0.125336 -0.992114 -0
    outer loop
      vertex 6.99953 6.42915 24
      vertex 6.50116 6.49211 2
      vertex 6.99953 6.42915 2
    endloop
  endfacet
  facet normal 0.125336 -0.992114 0
    outer loop
      vertex -6.99953 6.42915 2
      vertex -6.50116 6.49211 24
      vertex -6.99953 6.42915 24
    endloop
  endfacet
  facet normal 0.125336 -0.992114 0
    outer loop
      vertex -6.50116 6.49211 24
      vertex -6.99953 6.42915 2
      vertex -6.50116 6.49211 2
    endloop
  endfacet
  facet normal 0 1 -0
    outer loop
      vertex 6.50116 -6.49211 2
      vertex -6.50116 -6.49211 24
      vertex 6.50116 -6.49211 24
    endloop
  endfacet
  facet normal 0 1 0
    outer loop
      vertex -6.50116 -6.49211 24
      vertex 6.50116 -6.49211 2
      vertex -6.50116 -6.49211 2
    endloop
  endfacet
  facet normal 0.481759 0.876304 -0
    outer loop
      vertex -7.95312 -6.11931 2
      vertex -8.39331 -5.87731 24
      vertex -7.95312 -6.11931 24
    endloop
  endfacet
  facet normal 0.481759 0.876304 0
    outer loop
      vertex -8.39331 -5.87731 24
      vertex -7.95312 -6.11931 2
      vertex -8.39331 -5.87731 2
    endloop
  endfacet
  facet normal -0.587786 0.809017 0
    outer loop
      vertex 8.7997 -5.58205 2
      vertex 8.39331 -5.87731 24
      vertex 8.7997 -5.58205 24
    endloop
  endfacet
  facet normal -0.587786 0.809017 0
    outer loop
      vertex 8.39331 -5.87731 24
      vertex 8.7997 -5.58205 2
      vertex 8.39331 -5.87731 2
    endloop
  endfacet
  facet normal -0.904824 0.425786 0
    outer loop
      vertex 9.75523 -4.42701 2
      vertex 9.96911 -3.9725 24
      vertex 9.96911 -3.9725 2
    endloop
  endfacet
  facet normal -0.904824 0.425786 0
    outer loop
      vertex 9.96911 -3.9725 24
      vertex 9.75523 -4.42701 2
      vertex 9.75523 -4.42701 24
    endloop
  endfacet
  facet normal -0.998032 0.0627092 0
    outer loop
      vertex 10.2185 -3.00133 2
      vertex 10.25 -2.5 24
      vertex 10.25 -2.5 2
    endloop
  endfacet
  facet normal -0.998032 0.0627092 0
    outer loop
      vertex 10.25 -2.5 24
      vertex 10.2185 -3.00133 2
      vertex 10.2185 -3.00133 24
    endloop
  endfacet
  facet normal -0.998032 -0.0627092 0
    outer loop
      vertex 10.25 2.5 2
      vertex 10.2185 3.00133 24
      vertex 10.2185 3.00133 2
    endloop
  endfacet
  facet normal -0.998032 -0.0627092 0
    outer loop
      vertex 10.2185 3.00133 24
      vertex 10.25 2.5 2
      vertex 10.25 2.5 24
    endloop
  endfacet
  facet normal 0.481759 -0.876304 0
    outer loop
      vertex -8.39331 5.87731 2
      vertex -7.95312 6.11931 24
      vertex -8.39331 5.87731 24
    endloop
  endfacet
  facet normal 0.481759 -0.876304 0
    outer loop
      vertex -7.95312 6.11931 24
      vertex -8.39331 5.87731 2
      vertex -7.95312 6.11931 2
    endloop
  endfacet
  facet normal 0.684551 -0.728965 0
    outer loop
      vertex -9.16587 5.23819 2
      vertex -8.7997 5.58205 24
      vertex -9.16587 5.23819 24
    endloop
  endfacet
  facet normal 0.684551 -0.728965 0
    outer loop
      vertex -8.7997 5.58205 24
      vertex -9.16587 5.23819 2
      vertex -8.7997 5.58205 2
    endloop
  endfacet
  facet normal 0.844329 -0.535825 0
    outer loop
      vertex -9.75523 4.42701 24
      vertex -9.48607 4.85114 2
      vertex -9.48607 4.85114 24
    endloop
  endfacet
  facet normal 0.844329 -0.535825 0
    outer loop
      vertex -9.48607 4.85114 2
      vertex -9.75523 4.42701 24
      vertex -9.75523 4.42701 2
    endloop
  endfacet
  facet normal 0.951078 -0.30895 0
    outer loop
      vertex -10.1243 3.49476 24
      vertex -9.96911 3.9725 2
      vertex -9.96911 3.9725 24
    endloop
  endfacet
  facet normal 0.951078 -0.30895 0
    outer loop
      vertex -9.96911 3.9725 2
      vertex -10.1243 3.49476 24
      vertex -10.1243 3.49476 2
    endloop
  endfacet
  facet normal 0.904824 -0.425786 0
    outer loop
      vertex -9.96911 3.9725 24
      vertex -9.75523 4.42701 2
      vertex -9.75523 4.42701 24
    endloop
  endfacet
  facet normal 0.904824 -0.425786 0
    outer loop
      vertex -9.75523 4.42701 2
      vertex -9.96911 3.9725 24
      vertex -9.96911 3.9725 2
    endloop
  endfacet
  facet normal -0.248686 -0.968584 0
    outer loop
      vertex 6.99953 6.42915 2
      vertex 7.48607 6.30423 24
      vertex 6.99953 6.42915 24
    endloop
  endfacet
  facet normal -0.248686 -0.968584 -0
    outer loop
      vertex 7.48607 6.30423 24
      vertex 6.99953 6.42915 2
      vertex 7.48607 6.30423 2
    endloop
  endfacet
  facet normal -0.587786 -0.809017 0
    outer loop
      vertex 8.39331 5.87731 2
      vertex 8.7997 5.58205 24
      vertex 8.39331 5.87731 24
    endloop
  endfacet
  facet normal -0.587786 -0.809017 -0
    outer loop
      vertex 8.7997 5.58205 24
      vertex 8.39331 5.87731 2
      vertex 8.7997 5.58205 2
    endloop
  endfacet
  facet normal -0.684551 -0.728965 0
    outer loop
      vertex 8.7997 5.58205 2
      vertex 9.16587 5.23819 24
      vertex 8.7997 5.58205 24
    endloop
  endfacet
  facet normal -0.684551 -0.728965 -0
    outer loop
      vertex 9.16587 5.23819 24
      vertex 8.7997 5.58205 2
      vertex 9.16587 5.23819 2
    endloop
  endfacet
  facet normal -0.951078 -0.30895 0
    outer loop
      vertex 10.1243 3.49476 2
      vertex 9.96911 3.9725 24
      vertex 9.96911 3.9725 2
    endloop
  endfacet
  facet normal -0.951078 -0.30895 0
    outer loop
      vertex 9.96911 3.9725 24
      vertex 10.1243 3.49476 2
      vertex 10.1243 3.49476 24
    endloop
  endfacet
  facet normal -0.770509 -0.637429 0
    outer loop
      vertex 9.48607 4.85114 2
      vertex 9.16587 5.23819 24
      vertex 9.16587 5.23819 2
    endloop
  endfacet
  facet normal -0.770509 -0.637429 0
    outer loop
      vertex 9.16587 5.23819 24
      vertex 9.48607 4.85114 2
      vertex 9.48607 4.85114 24
    endloop
  endfacet
  facet normal 0.248686 0.968584 -0
    outer loop
      vertex -6.99953 -6.42915 2
      vertex -7.48607 -6.30423 24
      vertex -6.99953 -6.42915 24
    endloop
  endfacet
  facet normal 0.248686 0.968584 0
    outer loop
      vertex -7.48607 -6.30423 24
      vertex -6.99953 -6.42915 2
      vertex -7.48607 -6.30423 2
    endloop
  endfacet
  facet normal 0.684551 0.728965 -0
    outer loop
      vertex -8.7997 -5.58205 2
      vertex -9.16587 -5.23819 24
      vertex -8.7997 -5.58205 24
    endloop
  endfacet
  facet normal 0.684551 0.728965 0
    outer loop
      vertex -9.16587 -5.23819 24
      vertex -8.7997 -5.58205 2
      vertex -9.16587 -5.23819 2
    endloop
  endfacet
  facet normal 0.951078 0.30895 0
    outer loop
      vertex -9.96911 -3.9725 24
      vertex -10.1243 -3.49476 2
      vertex -10.1243 -3.49476 24
    endloop
  endfacet
  facet normal 0.951078 0.30895 0
    outer loop
      vertex -10.1243 -3.49476 2
      vertex -9.96911 -3.9725 24
      vertex -9.96911 -3.9725 2
    endloop
  endfacet
  facet normal 0.770509 0.637429 0
    outer loop
      vertex -9.16587 -5.23819 24
      vertex -9.48607 -4.85114 2
      vertex -9.48607 -4.85114 24
    endloop
  endfacet
  facet normal 0.770509 0.637429 0
    outer loop
      vertex -9.48607 -4.85114 2
      vertex -9.16587 -5.23819 24
      vertex -9.16587 -5.23819 2
    endloop
  endfacet
  facet normal -0.481759 0.876304 0
    outer loop
      vertex 8.39331 -5.87731 2
      vertex 7.95312 -6.11931 24
      vertex 8.39331 -5.87731 24
    endloop
  endfacet
  facet normal -0.481759 0.876304 0
    outer loop
      vertex 7.95312 -6.11931 24
      vertex 8.39331 -5.87731 2
      vertex 7.95312 -6.11931 2
    endloop
  endfacet
  facet normal -0.844329 0.535825 0
    outer loop
      vertex 9.48607 -4.85114 2
      vertex 9.75523 -4.42701 24
      vertex 9.75523 -4.42701 2
    endloop
  endfacet
  facet normal -0.844329 0.535825 0
    outer loop
      vertex 9.75523 -4.42701 24
      vertex 9.48607 -4.85114 2
      vertex 9.48607 -4.85114 24
    endloop
  endfacet
  facet normal -0.770509 0.637429 0
    outer loop
      vertex 9.16587 -5.23819 2
      vertex 9.48607 -4.85114 24
      vertex 9.48607 -4.85114 2
    endloop
  endfacet
  facet normal -0.770509 0.637429 0
    outer loop
      vertex 9.48607 -4.85114 24
      vertex 9.16587 -5.23819 2
      vertex 9.16587 -5.23819 24
    endloop
  endfacet
  facet normal -0.951078 0.30895 0
    outer loop
      vertex 9.96911 -3.9725 2
      vertex 10.1243 -3.49476 24
      vertex 10.1243 -3.49476 2
    endloop
  endfacet
  facet normal -0.951078 0.30895 0
    outer loop
      vertex 10.1243 -3.49476 24
      vertex 9.96911 -3.9725 2
      vertex 9.96911 -3.9725 24
    endloop
  endfacet
  facet normal -0.844329 -0.535825 0
    outer loop
      vertex 9.75523 4.42701 2
      vertex 9.48607 4.85114 24
      vertex 9.48607 4.85114 2
    endloop
  endfacet
  facet normal -0.844329 -0.535825 0
    outer loop
      vertex 9.48607 4.85114 24
      vertex 9.75523 4.42701 2
      vertex 9.75523 4.42701 24
    endloop
  endfacet
  facet normal -0.904824 -0.425786 0
    outer loop
      vertex 9.96911 3.9725 2
      vertex 9.75523 4.42701 24
      vertex 9.75523 4.42701 2
    endloop
  endfacet
  facet normal -0.904824 -0.425786 0
    outer loop
      vertex 9.75523 4.42701 24
      vertex 9.96911 3.9725 2
      vertex 9.96911 3.9725 24
    endloop
  endfacet
  facet normal 0.587786 0.809017 -0
    outer loop
      vertex -8.39331 -5.87731 2
      vertex -8.7997 -5.58205 24
      vertex -8.39331 -5.87731 24
    endloop
  endfacet
  facet normal 0.587786 0.809017 0
    outer loop
      vertex -8.7997 -5.58205 24
      vertex -8.39331 -5.87731 2
      vertex -8.7997 -5.58205 2
    endloop
  endfacet
  facet normal 0.844329 0.535825 0
    outer loop
      vertex -9.48607 -4.85114 24
      vertex -9.75523 -4.42701 2
      vertex -9.75523 -4.42701 24
    endloop
  endfacet
  facet normal 0.844329 0.535825 0
    outer loop
      vertex -9.75523 -4.42701 2
      vertex -9.48607 -4.85114 24
      vertex -9.48607 -4.85114 2
    endloop
  endfacet
  facet normal 0.904824 0.425786 0
    outer loop
      vertex -9.75523 -4.42701 24
      vertex -9.96911 -3.9725 2
      vertex -9.96911 -3.9725 24
    endloop
  endfacet
  facet normal 0.904824 0.425786 0
    outer loop
      vertex -9.96911 -3.9725 2
      vertex -9.75523 -4.42701 24
      vertex -9.75523 -4.42701 2
    endloop
  endfacet
endsolid OpenSCAD_Model
