solid OpenSCAD_Model
  facet normal -0.998071 0.062081 0
    outer loop
      vertex -105 100 0
      vertex -104.961 100.627 12
      vertex -104.961 100.627 0
    endloop
  endfacet
  facet normal -0.998071 0.062081 0
    outer loop
      vertex -104.961 100.627 12
      vertex -105 100 0
      vertex -105 100 12
    endloop
  endfacet
  facet normal -1 0 0
    outer loop
      vertex -105 -100 0
      vertex -105 100 12
      vertex -105 100 0
    endloop
  endfacet
  facet normal -1 -0 0
    outer loop
      vertex -105 100 12
      vertex -105 -100 0
      vertex -105 -100 12
    endloop
  endfacet
  facet normal 0.998071 -0.062081 0
    outer loop
      vertex 104.961 -100.627 12
      vertex 105 -100 0
      vertex 105 -100 12
    endloop
  endfacet
  facet normal 0.998071 -0.062081 0
    outer loop
      vertex 105 -100 0
      vertex 104.961 -100.627 12
      vertex 104.961 -100.627 0
    endloop
  endfacet
  facet normal 1 -0 0
    outer loop
      vertex 105 -100 12
      vertex 105 100 0
      vertex 105 100 12
    endloop
  endfacet
  facet normal 1 0 0
    outer loop
      vertex 105 100 0
      vertex 105 -100 12
      vertex 105 -100 0
    endloop
  endfacet
  facet normal 0 0 1
    outer loop
      vertex 104 100 12
      vertex 105 100 12
      vertex 104.961 100.627 12
    endloop
  endfacet
  facet normal 0 0 1
    outer loop
      vertex 105 100 12
      vertex 104 100 12
      vertex 105 -100 12
    endloop
  endfacet
  facet normal 0 0 1
    outer loop
      vertex 103.968 100.501 12
      vertex 104.961 100.627 12
      vertex 104.843 101.243 12
    endloop
  endfacet
  facet normal 0 0 1
    outer loop
      vertex 104 -100 12
      vertex 105 -100 12
      vertex 104 100 12
    endloop
  endfacet
  facet normal 0 0 1
    outer loop
      vertex 103.874 100.995 12
      vertex 104.843 101.243 12
      vertex 104.649 101.841 12
    endloop
  endfacet
  facet normal 0 0 1
    outer loop
      vertex 105 -100 12
      vertex 104 -100 12
      vertex 104.961 -100.627 12
    endloop
  endfacet
  facet normal 0 0 1
    outer loop
      vertex 103.719 101.472 12
      vertex 104.649 101.841 12
      vertex 104.382 102.409 12
    endloop
  endfacet
  facet normal -0 0 1
    outer loop
      vertex 103.968 -100.501 12
      vertex 104.961 -100.627 12
      vertex 104 -100 12
    endloop
  endfacet
  facet normal 0 0 1
    outer loop
      vertex 103.505 101.927 12
      vertex 104.382 102.409 12
      vertex 104.045 102.939 12
    endloop
  endfacet
  facet normal 0 0 1
    outer loop
      vertex 104.961 -100.627 12
      vertex 103.968 -100.501 12
      vertex 104.843 -101.243 12
    endloop
  endfacet
  facet normal -0 0 1
    outer loop
      vertex 103.874 -100.995 12
      vertex 104.843 -101.243 12
      vertex 103.968 -100.501 12
    endloop
  endfacet
  facet normal 0 0 1
    outer loop
      vertex 104.961 100.627 12
      vertex 103.968 100.501 12
      vertex 104 100 12
    endloop
  endfacet
  facet normal 0 0 1
    outer loop
      vertex 104.843 101.243 12
      vertex 103.874 100.995 12
      vertex 103.968 100.501 12
    endloop
  endfacet
  facet normal 0 0 1
    outer loop
      vertex 104.649 101.841 12
      vertex 103.719 101.472 12
      vertex 103.874 100.995 12
    endloop
  endfacet
  facet normal 0 0 1
    outer loop
      vertex 103.236 102.351 12
      vertex 104.045 102.939 12
      vertex 103.645 103.423 12
    endloop
  endfacet
  facet normal 0 0 1
    outer loop
      vertex 104.382 102.409 12
      vertex 103.505 101.927 12
      vertex 103.719 101.472 12
    endloop
  endfacet
  facet normal 0 0 1
    outer loop
      vertex 104.045 102.939 12
      vertex 103.236 102.351 12
      vertex 103.505 101.927 12
    endloop
  endfacet
  facet normal 0 0 1
    outer loop
      vertex 102.916 102.738 12
      vertex 103.645 103.423 12
      vertex 103.187 103.853 12
    endloop
  endfacet
  facet normal 0 0 1
    outer loop
      vertex 103.645 103.423 12
      vertex 102.916 102.738 12
      vertex 103.236 102.351 12
    endloop
  endfacet
  facet normal 0 0 1
    outer loop
      vertex 102.55 103.082 12
      vertex 103.187 103.853 12
      vertex 102.679 104.222 12
    endloop
  endfacet
  facet normal 0 0 1
    outer loop
      vertex 103.187 103.853 12
      vertex 102.55 103.082 12
      vertex 102.916 102.738 12
    endloop
  endfacet
  facet normal 0 0 1
    outer loop
      vertex 102.679 104.222 12
      vertex 102.143 103.377 12
      vertex 102.55 103.082 12
    endloop
  endfacet
  facet normal 0 0 1
    outer loop
      vertex 102.129 104.524 12
      vertex 102.143 103.377 12
      vertex 102.679 104.222 12
    endloop
  endfacet
  facet normal 0 0 1
    outer loop
      vertex 102.129 104.524 12
      vertex 101.703 103.619 12
      vertex 102.143 103.377 12
    endloop
  endfacet
  facet normal 0 0 1
    outer loop
      vertex 101.545 104.755 12
      vertex 101.703 103.619 12
      vertex 102.129 104.524 12
    endloop
  endfacet
  facet normal 0 0 1
    outer loop
      vertex 101.545 104.755 12
      vertex 101.236 103.804 12
      vertex 101.703 103.619 12
    endloop
  endfacet
  facet normal 0 0 1
    outer loop
      vertex 100.937 104.911 12
      vertex 101.236 103.804 12
      vertex 101.545 104.755 12
    endloop
  endfacet
  facet normal 0 0 1
    outer loop
      vertex 100.937 104.911 12
      vertex 100.75 103.929 12
      vertex 101.236 103.804 12
    endloop
  endfacet
  facet normal 0 0 1
    outer loop
      vertex 100.314 104.99 12
      vertex 100.75 103.929 12
      vertex 100.937 104.911 12
    endloop
  endfacet
  facet normal 0 0 1
    outer loop
      vertex 100.314 104.99 12
      vertex 100.251 103.992 12
      vertex 100.75 103.929 12
    endloop
  endfacet
  facet normal 0 0 1
    outer loop
      vertex 100.314 104.99 12
      vertex -100.251 103.992 12
      vertex 100.251 103.992 12
    endloop
  endfacet
  facet normal -0 0 1
    outer loop
      vertex -100.314 104.99 12
      vertex -100.251 103.992 12
      vertex 100.314 104.99 12
    endloop
  endfacet
  facet normal 0 0 1
    outer loop
      vertex -100.314 104.99 12
      vertex -100.75 103.929 12
      vertex -100.251 103.992 12
    endloop
  endfacet
  facet normal -0 0 1
    outer loop
      vertex -100.937 104.911 12
      vertex -100.75 103.929 12
      vertex -100.314 104.99 12
    endloop
  endfacet
  facet normal 0 0 1
    outer loop
      vertex -100.937 104.911 12
      vertex -101.236 103.804 12
      vertex -100.75 103.929 12
    endloop
  endfacet
  facet normal -0 0 1
    outer loop
      vertex -101.545 104.755 12
      vertex -101.236 103.804 12
      vertex -100.937 104.911 12
    endloop
  endfacet
  facet normal 0 0 1
    outer loop
      vertex -101.545 104.755 12
      vertex -101.703 103.619 12
      vertex -101.236 103.804 12
    endloop
  endfacet
  facet normal -0 0 1
    outer loop
      vertex -102.129 104.524 12
      vertex -101.703 103.619 12
      vertex -101.545 104.755 12
    endloop
  endfacet
  facet normal 0 0 1
    outer loop
      vertex -102.129 104.524 12
      vertex -102.143 103.377 12
      vertex -101.703 103.619 12
    endloop
  endfacet
  facet normal -0 0 1
    outer loop
      vertex -102.679 104.222 12
      vertex -102.143 103.377 12
      vertex -102.129 104.524 12
    endloop
  endfacet
  facet normal 0 0 1
    outer loop
      vertex -102.143 103.377 12
      vertex -102.679 104.222 12
      vertex -102.55 103.082 12
    endloop
  endfacet
  facet normal -0 0 1
    outer loop
      vertex -103.187 103.853 12
      vertex -102.55 103.082 12
      vertex -102.679 104.222 12
    endloop
  endfacet
  facet normal 0 0 1
    outer loop
      vertex -102.55 103.082 12
      vertex -103.187 103.853 12
      vertex -102.916 102.738 12
    endloop
  endfacet
  facet normal -0 0 1
    outer loop
      vertex -103.645 103.423 12
      vertex -102.916 102.738 12
      vertex -103.187 103.853 12
    endloop
  endfacet
  facet normal 0 0 1
    outer loop
      vertex -102.916 102.738 12
      vertex -103.645 103.423 12
      vertex -103.236 102.351 12
    endloop
  endfacet
  facet normal -0 0 1
    outer loop
      vertex -104.045 102.939 12
      vertex -103.236 102.351 12
      vertex -103.645 103.423 12
    endloop
  endfacet
  facet normal 0 0 1
    outer loop
      vertex -103.236 102.351 12
      vertex -104.045 102.939 12
      vertex -103.505 101.927 12
    endloop
  endfacet
  facet normal -0 0 1
    outer loop
      vertex -104.382 102.409 12
      vertex -103.505 101.927 12
      vertex -104.045 102.939 12
    endloop
  endfacet
  facet normal 0 0 1
    outer loop
      vertex -103.505 101.927 12
      vertex -104.382 102.409 12
      vertex -103.719 101.472 12
    endloop
  endfacet
  facet normal -0 0 1
    outer loop
      vertex -104.843 101.243 12
      vertex -103.874 100.995 12
      vertex -104.649 101.841 12
    endloop
  endfacet
  facet normal 0 0 1
    outer loop
      vertex -103.719 101.472 12
      vertex -104.649 101.841 12
      vertex -103.874 100.995 12
    endloop
  endfacet
  facet normal -0 0 1
    outer loop
      vertex -104.649 101.841 12
      vertex -103.719 101.472 12
      vertex -104.382 102.409 12
    endloop
  endfacet
  facet normal 0 0 1
    outer loop
      vertex 104.843 -101.243 12
      vertex 103.874 -100.995 12
      vertex 104.649 -101.841 12
    endloop
  endfacet
  facet normal -0 0 1
    outer loop
      vertex 103.719 -101.472 12
      vertex 104.649 -101.841 12
      vertex 103.874 -100.995 12
    endloop
  endfacet
  facet normal 0 0 1
    outer loop
      vertex 104.649 -101.841 12
      vertex 103.719 -101.472 12
      vertex 104.382 -102.409 12
    endloop
  endfacet
  facet normal -0 0 1
    outer loop
      vertex 103.505 -101.927 12
      vertex 104.382 -102.409 12
      vertex 103.719 -101.472 12
    endloop
  endfacet
  facet normal 0 0 1
    outer loop
      vertex 104.382 -102.409 12
      vertex 103.505 -101.927 12
      vertex 104.045 -102.939 12
    endloop
  endfacet
  facet normal -0 0 1
    outer loop
      vertex 103.236 -102.351 12
      vertex 104.045 -102.939 12
      vertex 103.505 -101.927 12
    endloop
  endfacet
  facet normal 0 0 1
    outer loop
      vertex 104.045 -102.939 12
      vertex 103.236 -102.351 12
      vertex 103.645 -103.423 12
    endloop
  endfacet
  facet normal -0 0 1
    outer loop
      vertex 102.916 -102.738 12
      vertex 103.645 -103.423 12
      vertex 103.236 -102.351 12
    endloop
  endfacet
  facet normal 0 0 1
    outer loop
      vertex 103.645 -103.423 12
      vertex 102.916 -102.738 12
      vertex 103.187 -103.853 12
    endloop
  endfacet
  facet normal -0 0 1
    outer loop
      vertex 102.55 -103.082 12
      vertex 103.187 -103.853 12
      vertex 102.916 -102.738 12
    endloop
  endfacet
  facet normal 0 0 1
    outer loop
      vertex 103.187 -103.853 12
      vertex 102.55 -103.082 12
      vertex 102.679 -104.222 12
    endloop
  endfacet
  facet normal -0 0 1
    outer loop
      vertex 102.143 -103.377 12
      vertex 102.679 -104.222 12
      vertex 102.55 -103.082 12
    endloop
  endfacet
  facet normal 0 0 1
    outer loop
      vertex 102.143 -103.377 12
      vertex 102.129 -104.524 12
      vertex 102.679 -104.222 12
    endloop
  endfacet
  facet normal -0 0 1
    outer loop
      vertex 101.703 -103.619 12
      vertex 102.129 -104.524 12
      vertex 102.143 -103.377 12
    endloop
  endfacet
  facet normal 0 0 1
    outer loop
      vertex 101.703 -103.619 12
      vertex 101.545 -104.755 12
      vertex 102.129 -104.524 12
    endloop
  endfacet
  facet normal -0 0 1
    outer loop
      vertex 101.236 -103.804 12
      vertex 101.545 -104.755 12
      vertex 101.703 -103.619 12
    endloop
  endfacet
  facet normal 0 0 1
    outer loop
      vertex 101.236 -103.804 12
      vertex 100.937 -104.911 12
      vertex 101.545 -104.755 12
    endloop
  endfacet
  facet normal -0 0 1
    outer loop
      vertex 100.75 -103.929 12
      vertex 100.937 -104.911 12
      vertex 101.236 -103.804 12
    endloop
  endfacet
  facet normal 0 0 1
    outer loop
      vertex 100.75 -103.929 12
      vertex 100.314 -104.99 12
      vertex 100.937 -104.911 12
    endloop
  endfacet
  facet normal -0 0 1
    outer loop
      vertex 100.251 -103.992 12
      vertex 100.314 -104.99 12
      vertex 100.75 -103.929 12
    endloop
  endfacet
  facet normal -0 0 1
    outer loop
      vertex -100.251 -103.992 12
      vertex 100.314 -104.99 12
      vertex 100.251 -103.992 12
    endloop
  endfacet
  facet normal 0 0 1
    outer loop
      vertex -100.251 -103.992 12
      vertex -100.314 -104.99 12
      vertex 100.314 -104.99 12
    endloop
  endfacet
  facet normal 0 0 1
    outer loop
      vertex -100.75 -103.929 12
      vertex -100.314 -104.99 12
      vertex -100.251 -103.992 12
    endloop
  endfacet
  facet normal 0 0 1
    outer loop
      vertex -100.75 -103.929 12
      vertex -100.937 -104.911 12
      vertex -100.314 -104.99 12
    endloop
  endfacet
  facet normal 0 0 1
    outer loop
      vertex -101.236 -103.804 12
      vertex -100.937 -104.911 12
      vertex -100.75 -103.929 12
    endloop
  endfacet
  facet normal 0 0 1
    outer loop
      vertex -101.236 -103.804 12
      vertex -101.545 -104.755 12
      vertex -100.937 -104.911 12
    endloop
  endfacet
  facet normal 0 0 1
    outer loop
      vertex -101.703 -103.619 12
      vertex -101.545 -104.755 12
      vertex -101.236 -103.804 12
    endloop
  endfacet
  facet normal 0 0 1
    outer loop
      vertex -101.703 -103.619 12
      vertex -102.129 -104.524 12
      vertex -101.545 -104.755 12
    endloop
  endfacet
  facet normal 0 0 1
    outer loop
      vertex -102.143 -103.377 12
      vertex -102.129 -104.524 12
      vertex -101.703 -103.619 12
    endloop
  endfacet
  facet normal 0 0 1
    outer loop
      vertex -102.679 -104.222 12
      vertex -102.143 -103.377 12
      vertex -102.55 -103.082 12
    endloop
  endfacet
  facet normal 0 0 1
    outer loop
      vertex -102.143 -103.377 12
      vertex -102.679 -104.222 12
      vertex -102.129 -104.524 12
    endloop
  endfacet
  facet normal 0 0 1
    outer loop
      vertex -103.187 -103.853 12
      vertex -102.55 -103.082 12
      vertex -102.916 -102.738 12
    endloop
  endfacet
  facet normal 0 0 1
    outer loop
      vertex -102.55 -103.082 12
      vertex -103.187 -103.853 12
      vertex -102.679 -104.222 12
    endloop
  endfacet
  facet normal 0 0 1
    outer loop
      vertex -103.645 -103.423 12
      vertex -102.916 -102.738 12
      vertex -103.236 -102.351 12
    endloop
  endfacet
  facet normal 0 0 1
    outer loop
      vertex -104.045 -102.939 12
      vertex -103.236 -102.351 12
      vertex -103.505 -101.927 12
    endloop
  endfacet
  facet normal 0 0 1
    outer loop
      vertex -102.916 -102.738 12
      vertex -103.645 -103.423 12
      vertex -103.187 -103.853 12
    endloop
  endfacet
  facet normal 0 0 1
    outer loop
      vertex -104.382 -102.409 12
      vertex -103.505 -101.927 12
      vertex -103.719 -101.472 12
    endloop
  endfacet
  facet normal 0 0 1
    outer loop
      vertex -104.649 -101.841 12
      vertex -103.719 -101.472 12
      vertex -103.874 -100.995 12
    endloop
  endfacet
  facet normal 0 0 1
    outer loop
      vertex -104.843 -101.243 12
      vertex -103.874 -100.995 12
      vertex -103.968 -100.501 12
    endloop
  endfacet
  facet normal 0 0 1
    outer loop
      vertex -103.236 -102.351 12
      vertex -104.045 -102.939 12
      vertex -103.645 -103.423 12
    endloop
  endfacet
  facet normal 0 0 1
    outer loop
      vertex -104.961 -100.627 12
      vertex -103.968 -100.501 12
      vertex -104 -100 12
    endloop
  endfacet
  facet normal 0 0 1
    outer loop
      vertex -104 100 12
      vertex -105 100 12
      vertex -104 -100 12
    endloop
  endfacet
  facet normal 0 0 1
    outer loop
      vertex -103.874 100.995 12
      vertex -104.843 101.243 12
      vertex -103.968 100.501 12
    endloop
  endfacet
  facet normal 0 0 1
    outer loop
      vertex -105 -100 12
      vertex -104 -100 12
      vertex -105 100 12
    endloop
  endfacet
  facet normal -0 0 1
    outer loop
      vertex -104.961 100.627 12
      vertex -103.968 100.501 12
      vertex -104.843 101.243 12
    endloop
  endfacet
  facet normal 0 -0 1
    outer loop
      vertex -104.961 -100.627 12
      vertex -104 -100 12
      vertex -105 -100 12
    endloop
  endfacet
  facet normal 0 0 1
    outer loop
      vertex -103.968 100.501 12
      vertex -104.961 100.627 12
      vertex -104 100 12
    endloop
  endfacet
  facet normal 0 0 1
    outer loop
      vertex -103.505 -101.927 12
      vertex -104.382 -102.409 12
      vertex -104.045 -102.939 12
    endloop
  endfacet
  facet normal 0 0 1
    outer loop
      vertex -104 100 12
      vertex -104.961 100.627 12
      vertex -105 100 12
    endloop
  endfacet
  facet normal 0 0 1
    outer loop
      vertex -103.719 -101.472 12
      vertex -104.649 -101.841 12
      vertex -104.382 -102.409 12
    endloop
  endfacet
  facet normal 0 0 1
    outer loop
      vertex -103.874 -100.995 12
      vertex -104.843 -101.243 12
      vertex -104.649 -101.841 12
    endloop
  endfacet
  facet normal 0 0 1
    outer loop
      vertex -103.968 -100.501 12
      vertex -104.961 -100.627 12
      vertex -104.843 -101.243 12
    endloop
  endfacet
  facet normal 0 1 -0
    outer loop
      vertex 100.314 104.99 0
      vertex -100.314 104.99 12
      vertex 100.314 104.99 12
    endloop
  endfacet
  facet normal 0 1 0
    outer loop
      vertex -100.314 104.99 12
      vertex 100.314 104.99 0
      vertex -100.314 104.99 0
    endloop
  endfacet
  facet normal 0 0 -1
    outer loop
      vertex 100.314 -104.99 0
      vertex 105 -100 0
      vertex 104.961 -100.627 0
    endloop
  endfacet
  facet normal 0 0 -1
    outer loop
      vertex -105 -100 0
      vertex 105 -100 0
      vertex 100.314 -104.99 0
    endloop
  endfacet
  facet normal 0 0 -1
    outer loop
      vertex 100.314 -104.99 0
      vertex 104.961 -100.627 0
      vertex 104.843 -101.243 0
    endloop
  endfacet
  facet normal 0 0 -1
    outer loop
      vertex 105 -100 0
      vertex -105 -100 0
      vertex 105 100 0
    endloop
  endfacet
  facet normal 0 0 -1
    outer loop
      vertex 100.314 -104.99 0
      vertex 104.843 -101.243 0
      vertex 104.649 -101.841 0
    endloop
  endfacet
  facet normal 0 0 -1
    outer loop
      vertex 105 100 0
      vertex 100.314 104.99 0
      vertex 104.961 100.627 0
    endloop
  endfacet
  facet normal 0 0 -1
    outer loop
      vertex 100.314 -104.99 0
      vertex 104.649 -101.841 0
      vertex 104.382 -102.409 0
    endloop
  endfacet
  facet normal 0 0 -1
    outer loop
      vertex 104.961 100.627 0
      vertex 100.314 104.99 0
      vertex 104.843 101.243 0
    endloop
  endfacet
  facet normal 0 0 -1
    outer loop
      vertex 100.314 -104.99 0
      vertex 104.382 -102.409 0
      vertex 104.045 -102.939 0
    endloop
  endfacet
  facet normal 0 0 -1
    outer loop
      vertex 104.843 101.243 0
      vertex 100.314 104.99 0
      vertex 104.649 101.841 0
    endloop
  endfacet
  facet normal 0 0 -1
    outer loop
      vertex 100.314 -104.99 0
      vertex 104.045 -102.939 0
      vertex 103.645 -103.423 0
    endloop
  endfacet
  facet normal 0 0 -1
    outer loop
      vertex 104.649 101.841 0
      vertex 100.314 104.99 0
      vertex 104.382 102.409 0
    endloop
  endfacet
  facet normal 0 0 -1
    outer loop
      vertex 100.314 -104.99 0
      vertex 103.645 -103.423 0
      vertex 103.187 -103.853 0
    endloop
  endfacet
  facet normal 0 0 -1
    outer loop
      vertex 104.382 102.409 0
      vertex 100.314 104.99 0
      vertex 104.045 102.939 0
    endloop
  endfacet
  facet normal 0 0 -1
    outer loop
      vertex 100.314 -104.99 0
      vertex 103.187 -103.853 0
      vertex 102.679 -104.222 0
    endloop
  endfacet
  facet normal 0 0 -1
    outer loop
      vertex 104.045 102.939 0
      vertex 100.314 104.99 0
      vertex 103.645 103.423 0
    endloop
  endfacet
  facet normal 0 0 -1
    outer loop
      vertex 100.314 -104.99 0
      vertex 102.679 -104.222 0
      vertex 102.129 -104.524 0
    endloop
  endfacet
  facet normal 0 0 -1
    outer loop
      vertex 103.645 103.423 0
      vertex 100.314 104.99 0
      vertex 103.187 103.853 0
    endloop
  endfacet
  facet normal 0 0 -1
    outer loop
      vertex 100.314 -104.99 0
      vertex 102.129 -104.524 0
      vertex 101.545 -104.755 0
    endloop
  endfacet
  facet normal 0 0 -1
    outer loop
      vertex 103.187 103.853 0
      vertex 100.314 104.99 0
      vertex 102.679 104.222 0
    endloop
  endfacet
  facet normal 0 0 -1
    outer loop
      vertex 100.314 -104.99 0
      vertex 101.545 -104.755 0
      vertex 100.937 -104.911 0
    endloop
  endfacet
  facet normal 0 0 -1
    outer loop
      vertex 102.679 104.222 0
      vertex 100.314 104.99 0
      vertex 102.129 104.524 0
    endloop
  endfacet
  facet normal 0 0 -1
    outer loop
      vertex 102.129 104.524 0
      vertex 100.314 104.99 0
      vertex 101.545 104.755 0
    endloop
  endfacet
  facet normal 0 0 -1
    outer loop
      vertex 101.545 104.755 0
      vertex 100.314 104.99 0
      vertex 100.937 104.911 0
    endloop
  endfacet
  facet normal 0 0 -1
    outer loop
      vertex -105 -100 0
      vertex 100.314 -104.99 0
      vertex -100.314 -104.99 0
    endloop
  endfacet
  facet normal 0 0 -1
    outer loop
      vertex -105 100 0
      vertex 105 100 0
      vertex -105 -100 0
    endloop
  endfacet
  facet normal 0 0 -1
    outer loop
      vertex -105 -100 0
      vertex -100.314 -104.99 0
      vertex -100.937 -104.911 0
    endloop
  endfacet
  facet normal 0 0 -1
    outer loop
      vertex 105 100 0
      vertex -105 100 0
      vertex 100.314 104.99 0
    endloop
  endfacet
  facet normal 0 0 -1
    outer loop
      vertex -105 -100 0
      vertex -100.937 -104.911 0
      vertex -101.545 -104.755 0
    endloop
  endfacet
  facet normal -0 0 -1
    outer loop
      vertex 100.314 104.99 0
      vertex -105 100 0
      vertex -100.314 104.99 0
    endloop
  endfacet
  facet normal 0 0 -1
    outer loop
      vertex -105 -100 0
      vertex -101.545 -104.755 0
      vertex -102.129 -104.524 0
    endloop
  endfacet
  facet normal 0 0 -1
    outer loop
      vertex -100.314 104.99 0
      vertex -105 100 0
      vertex -100.937 104.911 0
    endloop
  endfacet
  facet normal 0 0 -1
    outer loop
      vertex -105 -100 0
      vertex -102.129 -104.524 0
      vertex -102.679 -104.222 0
    endloop
  endfacet
  facet normal 0 0 -1
    outer loop
      vertex -100.937 104.911 0
      vertex -105 100 0
      vertex -101.545 104.755 0
    endloop
  endfacet
  facet normal 0 0 -1
    outer loop
      vertex -105 -100 0
      vertex -102.679 -104.222 0
      vertex -103.187 -103.853 0
    endloop
  endfacet
  facet normal 0 0 -1
    outer loop
      vertex -101.545 104.755 0
      vertex -105 100 0
      vertex -102.129 104.524 0
    endloop
  endfacet
  facet normal 0 0 -1
    outer loop
      vertex -105 -100 0
      vertex -103.187 -103.853 0
      vertex -103.645 -103.423 0
    endloop
  endfacet
  facet normal 0 0 -1
    outer loop
      vertex -102.129 104.524 0
      vertex -105 100 0
      vertex -102.679 104.222 0
    endloop
  endfacet
  facet normal 0 0 -1
    outer loop
      vertex -105 -100 0
      vertex -103.645 -103.423 0
      vertex -104.045 -102.939 0
    endloop
  endfacet
  facet normal 0 0 -1
    outer loop
      vertex -102.679 104.222 0
      vertex -105 100 0
      vertex -103.187 103.853 0
    endloop
  endfacet
  facet normal 0 0 -1
    outer loop
      vertex -105 -100 0
      vertex -104.045 -102.939 0
      vertex -104.382 -102.409 0
    endloop
  endfacet
  facet normal 0 0 -1
    outer loop
      vertex -103.187 103.853 0
      vertex -105 100 0
      vertex -103.645 103.423 0
    endloop
  endfacet
  facet normal 0 0 -1
    outer loop
      vertex -105 -100 0
      vertex -104.382 -102.409 0
      vertex -104.649 -101.841 0
    endloop
  endfacet
  facet normal 0 0 -1
    outer loop
      vertex -103.645 103.423 0
      vertex -105 100 0
      vertex -104.045 102.939 0
    endloop
  endfacet
  facet normal 0 0 -1
    outer loop
      vertex -105 -100 0
      vertex -104.649 -101.841 0
      vertex -104.843 -101.243 0
    endloop
  endfacet
  facet normal 0 0 -1
    outer loop
      vertex -104.045 102.939 0
      vertex -105 100 0
      vertex -104.382 102.409 0
    endloop
  endfacet
  facet normal 0 0 -1
    outer loop
      vertex -105 -100 0
      vertex -104.843 -101.243 0
      vertex -104.961 -100.627 0
    endloop
  endfacet
  facet normal 0 0 -1
    outer loop
      vertex -104.382 102.409 0
      vertex -105 100 0
      vertex -104.649 101.841 0
    endloop
  endfacet
  facet normal 0 0 -1
    outer loop
      vertex -104.649 101.841 0
      vertex -105 100 0
      vertex -104.843 101.243 0
    endloop
  endfacet
  facet normal 0 0 -1
    outer loop
      vertex -104.843 101.243 0
      vertex -105 100 0
      vertex -104.961 100.627 0
    endloop
  endfacet
  facet normal 0 -1 0
    outer loop
      vertex -100.314 -104.99 0
      vertex 100.314 -104.99 12
      vertex -100.314 -104.99 12
    endloop
  endfacet
  facet normal 0 -1 -0
    outer loop
      vertex 100.314 -104.99 12
      vertex -100.314 -104.99 0
      vertex 100.314 -104.99 0
    endloop
  endfacet
  facet normal 0.770826 0.637046 0
    outer loop
      vertex 104.045 102.939 12
      vertex 103.645 103.423 0
      vertex 103.645 103.423 12
    endloop
  endfacet
  facet normal 0.770826 0.637046 0
    outer loop
      vertex 103.645 103.423 0
      vertex 104.045 102.939 12
      vertex 104.045 102.939 0
    endloop
  endfacet
  facet normal 0.125798 0.992056 -0
    outer loop
      vertex 100.937 104.911 0
      vertex 100.314 104.99 12
      vertex 100.937 104.911 12
    endloop
  endfacet
  facet normal 0.125798 0.992056 0
    outer loop
      vertex 100.314 104.99 12
      vertex 100.937 104.911 0
      vertex 100.314 104.99 0
    endloop
  endfacet
  facet normal -0.68447 0.729041 0
    outer loop
      vertex -103.187 103.853 0
      vertex -103.645 103.423 12
      vertex -103.187 103.853 12
    endloop
  endfacet
  facet normal -0.68447 0.729041 0
    outer loop
      vertex -103.645 103.423 12
      vertex -103.187 103.853 0
      vertex -103.645 103.423 0
    endloop
  endfacet
  facet normal -0.982143 0.188138 0
    outer loop
      vertex -104.961 100.627 0
      vertex -104.843 101.243 12
      vertex -104.843 101.243 0
    endloop
  endfacet
  facet normal -0.982143 0.188138 0
    outer loop
      vertex -104.843 101.243 12
      vertex -104.961 100.627 0
      vertex -104.961 100.627 12
    endloop
  endfacet
  facet normal -0.904999 -0.425413 0
    outer loop
      vertex -104.382 -102.409 0
      vertex -104.649 -101.841 12
      vertex -104.649 -101.841 0
    endloop
  endfacet
  facet normal -0.904999 -0.425413 0
    outer loop
      vertex -104.649 -101.841 12
      vertex -104.382 -102.409 0
      vertex -104.382 -102.409 12
    endloop
  endfacet
  facet normal -0.770826 -0.637046 0
    outer loop
      vertex -103.645 -103.423 0
      vertex -104.045 -102.939 12
      vertex -104.045 -102.939 0
    endloop
  endfacet
  facet normal -0.770826 -0.637046 0
    outer loop
      vertex -104.045 -102.939 12
      vertex -103.645 -103.423 0
      vertex -103.645 -103.423 12
    endloop
  endfacet
  facet normal -0.951198 -0.308582 0
    outer loop
      vertex -104.649 -101.841 0
      vertex -104.843 -101.243 12
      vertex -104.843 -101.243 0
    endloop
  endfacet
  facet normal -0.951198 -0.308582 0
    outer loop
      vertex -104.843 -101.243 12
      vertex -104.649 -101.841 0
      vertex -104.649 -101.841 12
    endloop
  endfacet
  facet normal -0.998071 -0.062081 0
    outer loop
      vertex -104.961 -100.627 0
      vertex -105 -100 12
      vertex -105 -100 0
    endloop
  endfacet
  facet normal -0.998071 -0.062081 0
    outer loop
      vertex -105 -100 12
      vertex -104.961 -100.627 0
      vertex -104.961 -100.627 12
    endloop
  endfacet
  facet normal 0.770826 -0.637046 0
    outer loop
      vertex 103.645 -103.423 12
      vertex 104.045 -102.939 0
      vertex 104.045 -102.939 12
    endloop
  endfacet
  facet normal 0.770826 -0.637046 0
    outer loop
      vertex 104.045 -102.939 0
      vertex 103.645 -103.423 12
      vertex 103.645 -103.423 0
    endloop
  endfacet
  facet normal 0.951198 -0.308582 0
    outer loop
      vertex 104.649 -101.841 12
      vertex 104.843 -101.243 0
      vertex 104.843 -101.243 12
    endloop
  endfacet
  facet normal 0.951198 -0.308582 0
    outer loop
      vertex 104.843 -101.243 0
      vertex 104.649 -101.841 12
      vertex 104.649 -101.841 0
    endloop
  endfacet
  facet normal -0.367819 -0.929897 0
    outer loop
      vertex -102.129 -104.524 0
      vertex -101.545 -104.755 12
      vertex -102.129 -104.524 12
    endloop
  endfacet
  facet normal -0.367819 -0.929897 -0
    outer loop
      vertex -101.545 -104.755 12
      vertex -102.129 -104.524 0
      vertex -101.545 -104.755 0
    endloop
  endfacet
  facet normal -0.68447 -0.729041 0
    outer loop
      vertex -103.645 -103.423 0
      vertex -103.187 -103.853 12
      vertex -103.645 -103.423 12
    endloop
  endfacet
  facet normal -0.68447 -0.729041 -0
    outer loop
      vertex -103.187 -103.853 12
      vertex -103.645 -103.423 0
      vertex -103.187 -103.853 0
    endloop
  endfacet
  facet normal 0.951198 0.308582 0
    outer loop
      vertex 104.843 101.243 12
      vertex 104.649 101.841 0
      vertex 104.649 101.841 12
    endloop
  endfacet
  facet normal 0.951198 0.308582 0
    outer loop
      vertex 104.649 101.841 0
      vertex 104.843 101.243 12
      vertex 104.843 101.243 0
    endloop
  endfacet
  facet normal 0.367819 0.929897 -0
    outer loop
      vertex 102.129 104.524 0
      vertex 101.545 104.755 12
      vertex 102.129 104.524 12
    endloop
  endfacet
  facet normal 0.367819 0.929897 0
    outer loop
      vertex 101.545 104.755 12
      vertex 102.129 104.524 0
      vertex 101.545 104.755 0
    endloop
  endfacet
  facet normal 0.481307 0.876552 -0
    outer loop
      vertex 102.679 104.222 0
      vertex 102.129 104.524 12
      vertex 102.679 104.222 12
    endloop
  endfacet
  facet normal 0.481307 0.876552 0
    outer loop
      vertex 102.129 104.524 12
      vertex 102.679 104.222 0
      vertex 102.129 104.524 0
    endloop
  endfacet
  facet normal 0.68447 0.729041 -0
    outer loop
      vertex 103.645 103.423 0
      vertex 103.187 103.853 12
      vertex 103.645 103.423 12
    endloop
  endfacet
  facet normal 0.68447 0.729041 0
    outer loop
      vertex 103.187 103.853 12
      vertex 103.645 103.423 0
      vertex 103.187 103.853 0
    endloop
  endfacet
  facet normal -0.367819 0.929897 0
    outer loop
      vertex -101.545 104.755 0
      vertex -102.129 104.524 12
      vertex -101.545 104.755 12
    endloop
  endfacet
  facet normal -0.367819 0.929897 0
    outer loop
      vertex -102.129 104.524 12
      vertex -101.545 104.755 0
      vertex -102.129 104.524 0
    endloop
  endfacet
  facet normal -0.904999 0.425413 0
    outer loop
      vertex -104.649 101.841 0
      vertex -104.382 102.409 12
      vertex -104.382 102.409 0
    endloop
  endfacet
  facet normal -0.904999 0.425413 0
    outer loop
      vertex -104.382 102.409 12
      vertex -104.649 101.841 0
      vertex -104.649 101.841 12
    endloop
  endfacet
  facet normal -0.770826 0.637046 0
    outer loop
      vertex -104.045 102.939 0
      vertex -103.645 103.423 12
      vertex -103.645 103.423 0
    endloop
  endfacet
  facet normal -0.770826 0.637046 0
    outer loop
      vertex -103.645 103.423 12
      vertex -104.045 102.939 0
      vertex -104.045 102.939 12
    endloop
  endfacet
  facet normal -0.951198 0.308582 0
    outer loop
      vertex -104.843 101.243 0
      vertex -104.649 101.841 12
      vertex -104.649 101.841 0
    endloop
  endfacet
  facet normal -0.951198 0.308582 0
    outer loop
      vertex -104.649 101.841 12
      vertex -104.843 101.243 0
      vertex -104.843 101.243 12
    endloop
  endfacet
  facet normal -0.843858 -0.536566 0
    outer loop
      vertex -104.045 -102.939 0
      vertex -104.382 -102.409 12
      vertex -104.382 -102.409 0
    endloop
  endfacet
  facet normal -0.843858 -0.536566 0
    outer loop
      vertex -104.382 -102.409 12
      vertex -104.045 -102.939 0
      vertex -104.045 -102.939 12
    endloop
  endfacet
  facet normal -0.982143 -0.188138 0
    outer loop
      vertex -104.843 -101.243 0
      vertex -104.961 -100.627 12
      vertex -104.961 -100.627 0
    endloop
  endfacet
  facet normal -0.982143 -0.188138 0
    outer loop
      vertex -104.961 -100.627 12
      vertex -104.843 -101.243 0
      vertex -104.843 -101.243 12
    endloop
  endfacet
  facet normal 0.125798 -0.992056 0
    outer loop
      vertex 100.314 -104.99 0
      vertex 100.937 -104.911 12
      vertex 100.314 -104.99 12
    endloop
  endfacet
  facet normal 0.125798 -0.992056 0
    outer loop
      vertex 100.937 -104.911 12
      vertex 100.314 -104.99 0
      vertex 100.937 -104.911 0
    endloop
  endfacet
  facet normal 0.367819 -0.929897 0
    outer loop
      vertex 101.545 -104.755 0
      vertex 102.129 -104.524 12
      vertex 101.545 -104.755 12
    endloop
  endfacet
  facet normal 0.367819 -0.929897 0
    outer loop
      vertex 102.129 -104.524 12
      vertex 101.545 -104.755 0
      vertex 102.129 -104.524 0
    endloop
  endfacet
  facet normal 0.68447 -0.729041 0
    outer loop
      vertex 103.187 -103.853 0
      vertex 103.645 -103.423 12
      vertex 103.187 -103.853 12
    endloop
  endfacet
  facet normal 0.68447 -0.729041 0
    outer loop
      vertex 103.645 -103.423 12
      vertex 103.187 -103.853 0
      vertex 103.645 -103.423 0
    endloop
  endfacet
  facet normal 0.481307 -0.876552 0
    outer loop
      vertex 102.129 -104.524 0
      vertex 102.679 -104.222 12
      vertex 102.129 -104.524 12
    endloop
  endfacet
  facet normal 0.481307 -0.876552 0
    outer loop
      vertex 102.679 -104.222 12
      vertex 102.129 -104.524 0
      vertex 102.679 -104.222 0
    endloop
  endfacet
  facet normal 0.843858 -0.536566 0
    outer loop
      vertex 104.045 -102.939 12
      vertex 104.382 -102.409 0
      vertex 104.382 -102.409 12
    endloop
  endfacet
  facet normal 0.843858 -0.536566 0
    outer loop
      vertex 104.382 -102.409 0
      vertex 104.045 -102.939 12
      vertex 104.045 -102.939 0
    endloop
  endfacet
  facet normal 0.982143 -0.188138 0
    outer loop
      vertex 104.843 -101.243 12
      vertex 104.961 -100.627 0
      vertex 104.961 -100.627 12
    endloop
  endfacet
  facet normal 0.982143 -0.188138 0
    outer loop
      vertex 104.961 -100.627 0
      vertex 104.843 -101.243 12
      vertex 104.843 -101.243 0
    endloop
  endfacet
  facet normal -0.248529 -0.968625 0
    outer loop
      vertex -101.545 -104.755 0
      vertex -100.937 -104.911 12
      vertex -101.545 -104.755 12
    endloop
  endfacet
  facet normal -0.248529 -0.968625 -0
    outer loop
      vertex -100.937 -104.911 12
      vertex -101.545 -104.755 0
      vertex -100.937 -104.911 0
    endloop
  endfacet
  facet normal -0.587698 -0.80908 0
    outer loop
      vertex -103.187 -103.853 0
      vertex -102.679 -104.222 12
      vertex -103.187 -103.853 12
    endloop
  endfacet
  facet normal -0.587698 -0.80908 -0
    outer loop
      vertex -102.679 -104.222 12
      vertex -103.187 -103.853 0
      vertex -102.679 -104.222 0
    endloop
  endfacet
  facet normal 0.982143 0.188138 0
    outer loop
      vertex 104.961 100.627 12
      vertex 104.843 101.243 0
      vertex 104.843 101.243 12
    endloop
  endfacet
  facet normal 0.982143 0.188138 0
    outer loop
      vertex 104.843 101.243 0
      vertex 104.961 100.627 12
      vertex 104.961 100.627 0
    endloop
  endfacet
  facet normal 0.998071 0.062081 0
    outer loop
      vertex 105 100 12
      vertex 104.961 100.627 0
      vertex 104.961 100.627 12
    endloop
  endfacet
  facet normal 0.998071 0.062081 0
    outer loop
      vertex 104.961 100.627 0
      vertex 105 100 12
      vertex 105 100 0
    endloop
  endfacet
  facet normal 0.843858 0.536566 0
    outer loop
      vertex 104.382 102.409 12
      vertex 104.045 102.939 0
      vertex 104.045 102.939 12
    endloop
  endfacet
  facet normal 0.843858 0.536566 0
    outer loop
      vertex 104.045 102.939 0
      vertex 104.382 102.409 12
      vertex 104.382 102.409 0
    endloop
  endfacet
  facet normal 0.904999 0.425413 0
    outer loop
      vertex 104.649 101.841 12
      vertex 104.382 102.409 0
      vertex 104.382 102.409 12
    endloop
  endfacet
  facet normal 0.904999 0.425413 0
    outer loop
      vertex 104.382 102.409 0
      vertex 104.649 101.841 12
      vertex 104.649 101.841 0
    endloop
  endfacet
  facet normal 0.248529 0.968625 -0
    outer loop
      vertex 101.545 104.755 0
      vertex 100.937 104.911 12
      vertex 101.545 104.755 12
    endloop
  endfacet
  facet normal 0.248529 0.968625 0
    outer loop
      vertex 100.937 104.911 12
      vertex 101.545 104.755 0
      vertex 100.937 104.911 0
    endloop
  endfacet
  facet normal 0.587698 0.80908 -0
    outer loop
      vertex 103.187 103.853 0
      vertex 102.679 104.222 12
      vertex 103.187 103.853 12
    endloop
  endfacet
  facet normal 0.587698 0.80908 0
    outer loop
      vertex 102.679 104.222 12
      vertex 103.187 103.853 0
      vertex 102.679 104.222 0
    endloop
  endfacet
  facet normal -0.587698 0.80908 0
    outer loop
      vertex -102.679 104.222 0
      vertex -103.187 103.853 12
      vertex -102.679 104.222 12
    endloop
  endfacet
  facet normal -0.587698 0.80908 0
    outer loop
      vertex -103.187 103.853 12
      vertex -102.679 104.222 0
      vertex -103.187 103.853 0
    endloop
  endfacet
  facet normal -0.481307 0.876552 0
    outer loop
      vertex -102.129 104.524 0
      vertex -102.679 104.222 12
      vertex -102.129 104.524 12
    endloop
  endfacet
  facet normal -0.481307 0.876552 0
    outer loop
      vertex -102.679 104.222 12
      vertex -102.129 104.524 0
      vertex -102.679 104.222 0
    endloop
  endfacet
  facet normal -0.248529 0.968625 0
    outer loop
      vertex -100.937 104.911 0
      vertex -101.545 104.755 12
      vertex -100.937 104.911 12
    endloop
  endfacet
  facet normal -0.248529 0.968625 0
    outer loop
      vertex -101.545 104.755 12
      vertex -100.937 104.911 0
      vertex -101.545 104.755 0
    endloop
  endfacet
  facet normal -0.125798 0.992056 0
    outer loop
      vertex -100.314 104.99 0
      vertex -100.937 104.911 12
      vertex -100.314 104.99 12
    endloop
  endfacet
  facet normal -0.125798 0.992056 0
    outer loop
      vertex -100.937 104.911 12
      vertex -100.314 104.99 0
      vertex -100.937 104.911 0
    endloop
  endfacet
  facet normal -0.843858 0.536566 0
    outer loop
      vertex -104.382 102.409 0
      vertex -104.045 102.939 12
      vertex -104.045 102.939 0
    endloop
  endfacet
  facet normal -0.843858 0.536566 0
    outer loop
      vertex -104.045 102.939 12
      vertex -104.382 102.409 0
      vertex -104.382 102.409 12
    endloop
  endfacet
  facet normal 0.248529 -0.968625 0
    outer loop
      vertex 100.937 -104.911 0
      vertex 101.545 -104.755 12
      vertex 100.937 -104.911 12
    endloop
  endfacet
  facet normal 0.248529 -0.968625 0
    outer loop
      vertex 101.545 -104.755 12
      vertex 100.937 -104.911 0
      vertex 101.545 -104.755 0
    endloop
  endfacet
  facet normal 0.587698 -0.80908 0
    outer loop
      vertex 102.679 -104.222 0
      vertex 103.187 -103.853 12
      vertex 102.679 -104.222 12
    endloop
  endfacet
  facet normal 0.587698 -0.80908 0
    outer loop
      vertex 103.187 -103.853 12
      vertex 102.679 -104.222 0
      vertex 103.187 -103.853 0
    endloop
  endfacet
  facet normal 0.904999 -0.425413 0
    outer loop
      vertex 104.382 -102.409 12
      vertex 104.649 -101.841 0
      vertex 104.649 -101.841 12
    endloop
  endfacet
  facet normal 0.904999 -0.425413 0
    outer loop
      vertex 104.649 -101.841 0
      vertex 104.382 -102.409 12
      vertex 104.382 -102.409 0
    endloop
  endfacet
  facet normal -0.125798 -0.992056 0
    outer loop
      vertex -100.937 -104.911 0
      vertex -100.314 -104.99 12
      vertex -100.937 -104.911 12
    endloop
  endfacet
  facet normal -0.125798 -0.992056 -0
    outer loop
      vertex -100.314 -104.99 12
      vertex -100.937 -104.911 0
      vertex -100.314 -104.99 0
    endloop
  endfacet
  facet normal -0.481307 -0.876552 0
    outer loop
      vertex -102.679 -104.222 0
      vertex -102.129 -104.524 12
      vertex -102.679 -104.222 12
    endloop
  endfacet
  facet normal -0.481307 -0.876552 -0
    outer loop
      vertex -102.129 -104.524 12
      vertex -102.679 -104.222 0
      vertex -102.129 -104.524 0
    endloop
  endfacet
  facet normal 0.125258 -0.992124 0
    outer loop
      vertex -100.75 103.929 2
      vertex -100.251 103.992 12
      vertex -100.75 103.929 12
    endloop
  endfacet
  facet normal 0.125258 -0.992124 0
    outer loop
      vertex -100.251 103.992 12
      vertex -100.75 103.929 2
      vertex -100.251 103.992 2
    endloop
  endfacet
  facet normal 0 -1 0
    outer loop
      vertex -100.251 103.992 2
      vertex 100.251 103.992 12
      vertex -100.251 103.992 12
    endloop
  endfacet
  facet normal 0 -1 -0
    outer loop
      vertex 100.251 103.992 12
      vertex -100.251 103.992 2
      vertex 100.251 103.992 2
    endloop
  endfacet
  facet normal 0.684868 0.728667 -0
    outer loop
      vertex -102.55 -103.082 2
      vertex -102.916 -102.738 12
      vertex -102.55 -103.082 12
    endloop
  endfacet
  facet normal 0.684868 0.728667 0
    outer loop
      vertex -102.916 -102.738 12
      vertex -102.55 -103.082 2
      vertex -102.916 -102.738 2
    endloop
  endfacet
  facet normal 0 1 -0
    outer loop
      vertex 100.251 -103.992 2
      vertex -100.251 -103.992 12
      vertex 100.251 -103.992 12
    endloop
  endfacet
  facet normal 0 1 0
    outer loop
      vertex -100.251 -103.992 12
      vertex 100.251 -103.992 2
      vertex -100.251 -103.992 2
    endloop
  endfacet
  facet normal 0.997966 0.0637424 0
    outer loop
      vertex -103.968 -100.501 12
      vertex -104 -100 2
      vertex -104 -100 12
    endloop
  endfacet
  facet normal 0.997966 0.0637424 0
    outer loop
      vertex -104 -100 2
      vertex -103.968 -100.501 12
      vertex -103.968 -100.501 2
    endloop
  endfacet
  facet normal -1 0 0
    outer loop
      vertex 104 -100 2
      vertex 104 100 12
      vertex 104 100 2
    endloop
  endfacet
  facet normal -1 -0 0
    outer loop
      vertex 104 100 12
      vertex 104 -100 2
      vertex 104 -100 12
    endloop
  endfacet
  facet normal -0.770664 -0.637242 0
    outer loop
      vertex 103.236 102.351 2
      vertex 102.916 102.738 12
      vertex 102.916 102.738 2
    endloop
  endfacet
  facet normal -0.770664 -0.637242 0
    outer loop
      vertex 102.916 102.738 12
      vertex 103.236 102.351 2
      vertex 103.236 102.351 12
    endloop
  endfacet
  facet normal 0.368299 0.929707 -0
    outer loop
      vertex -101.236 -103.804 2
      vertex -101.703 -103.619 12
      vertex -101.236 -103.804 12
    endloop
  endfacet
  facet normal 0.368299 0.929707 0
    outer loop
      vertex -101.703 -103.619 12
      vertex -101.236 -103.804 2
      vertex -101.703 -103.619 2
    endloop
  endfacet
  facet normal 0.125258 0.992124 -0
    outer loop
      vertex -100.251 -103.992 2
      vertex -100.75 -103.929 12
      vertex -100.251 -103.992 12
    endloop
  endfacet
  facet normal 0.125258 0.992124 0
    outer loop
      vertex -100.75 -103.929 12
      vertex -100.251 -103.992 2
      vertex -100.75 -103.929 2
    endloop
  endfacet
  facet normal 1 -0 0
    outer loop
      vertex -104 -100 12
      vertex -104 100 2
      vertex -104 100 12
    endloop
  endfacet
  facet normal 1 0 0
    outer loop
      vertex -104 100 2
      vertex -104 -100 12
      vertex -104 -100 2
    endloop
  endfacet
  facet normal -0.951049 0.309041 0
    outer loop
      vertex 103.719 -101.472 2
      vertex 103.874 -100.995 12
      vertex 103.874 -100.995 2
    endloop
  endfacet
  facet normal -0.951049 0.309041 0
    outer loop
      vertex 103.874 -100.995 12
      vertex 103.719 -101.472 2
      vertex 103.719 -101.472 12
    endloop
  endfacet
  facet normal 0.481919 0.876216 -0
    outer loop
      vertex -101.703 -103.619 2
      vertex -102.143 -103.377 12
      vertex -101.703 -103.619 12
    endloop
  endfacet
  facet normal 0.481919 0.876216 0
    outer loop
      vertex -102.143 -103.377 12
      vertex -101.703 -103.619 2
      vertex -102.143 -103.377 2
    endloop
  endfacet
  facet normal 0.249094 0.968479 -0
    outer loop
      vertex -100.75 -103.929 2
      vertex -101.236 -103.804 12
      vertex -100.75 -103.929 12
    endloop
  endfacet
  facet normal 0.249094 0.968479 0
    outer loop
      vertex -101.236 -103.804 12
      vertex -100.75 -103.929 2
      vertex -101.236 -103.804 2
    endloop
  endfacet
  facet normal 0.770664 0.637242 0
    outer loop
      vertex -102.916 -102.738 12
      vertex -103.236 -102.351 2
      vertex -103.236 -102.351 12
    endloop
  endfacet
  facet normal 0.770664 0.637242 0
    outer loop
      vertex -103.236 -102.351 2
      vertex -102.916 -102.738 12
      vertex -102.916 -102.738 2
    endloop
  endfacet
  facet normal 0.684868 -0.728667 0
    outer loop
      vertex -102.916 102.738 2
      vertex -102.55 103.082 12
      vertex -102.916 102.738 12
    endloop
  endfacet
  facet normal 0.684868 -0.728667 0
    outer loop
      vertex -102.55 103.082 12
      vertex -102.916 102.738 2
      vertex -102.55 103.082 2
    endloop
  endfacet
  facet normal 0.481919 -0.876216 0
    outer loop
      vertex -102.143 103.377 2
      vertex -101.703 103.619 12
      vertex -102.143 103.377 12
    endloop
  endfacet
  facet normal 0.481919 -0.876216 0
    outer loop
      vertex -101.703 103.619 12
      vertex -102.143 103.377 2
      vertex -101.703 103.619 2
    endloop
  endfacet
  facet normal -0.481919 0.876216 0
    outer loop
      vertex 102.143 -103.377 2
      vertex 101.703 -103.619 12
      vertex 102.143 -103.377 12
    endloop
  endfacet
  facet normal -0.481919 0.876216 0
    outer loop
      vertex 101.703 -103.619 12
      vertex 102.143 -103.377 2
      vertex 101.703 -103.619 2
    endloop
  endfacet
  facet normal -0.481919 -0.876216 0
    outer loop
      vertex 101.703 103.619 2
      vertex 102.143 103.377 12
      vertex 101.703 103.619 12
    endloop
  endfacet
  facet normal -0.481919 -0.876216 -0
    outer loop
      vertex 102.143 103.377 12
      vertex 101.703 103.619 2
      vertex 102.143 103.377 2
    endloop
  endfacet
  facet normal -0.368299 -0.929707 0
    outer loop
      vertex 101.236 103.804 2
      vertex 101.703 103.619 12
      vertex 101.236 103.804 12
    endloop
  endfacet
  facet normal -0.368299 -0.929707 -0
    outer loop
      vertex 101.703 103.619 12
      vertex 101.236 103.804 2
      vertex 101.703 103.619 2
    endloop
  endfacet
  facet normal -0.951049 -0.309041 0
    outer loop
      vertex 103.874 100.995 2
      vertex 103.719 101.472 12
      vertex 103.719 101.472 2
    endloop
  endfacet
  facet normal -0.951049 -0.309041 0
    outer loop
      vertex 103.719 101.472 12
      vertex 103.874 100.995 2
      vertex 103.874 100.995 12
    endloop
  endfacet
  facet normal -0.770664 0.637242 0
    outer loop
      vertex 102.916 -102.738 2
      vertex 103.236 -102.351 12
      vertex 103.236 -102.351 2
    endloop
  endfacet
  facet normal -0.770664 0.637242 0
    outer loop
      vertex 103.236 -102.351 12
      vertex 102.916 -102.738 2
      vertex 102.916 -102.738 12
    endloop
  endfacet
  facet normal -0.904909 0.425605 0
    outer loop
      vertex 103.505 -101.927 2
      vertex 103.719 -101.472 12
      vertex 103.719 -101.472 2
    endloop
  endfacet
  facet normal -0.904909 0.425605 0
    outer loop
      vertex 103.719 -101.472 12
      vertex 103.505 -101.927 2
      vertex 103.505 -101.927 12
    endloop
  endfacet
  facet normal 0.58687 0.809681 -0
    outer loop
      vertex -102.143 -103.377 2
      vertex -102.55 -103.082 12
      vertex -102.143 -103.377 12
    endloop
  endfacet
  facet normal 0.58687 0.809681 0
    outer loop
      vertex -102.55 -103.082 12
      vertex -102.143 -103.377 2
      vertex -102.55 -103.082 2
    endloop
  endfacet
  facet normal 0.951049 0.309041 0
    outer loop
      vertex -103.719 -101.472 12
      vertex -103.874 -100.995 2
      vertex -103.874 -100.995 12
    endloop
  endfacet
  facet normal 0.951049 0.309041 0
    outer loop
      vertex -103.874 -100.995 2
      vertex -103.719 -101.472 12
      vertex -103.719 -101.472 2
    endloop
  endfacet
  facet normal 0.904909 0.425605 0
    outer loop
      vertex -103.505 -101.927 12
      vertex -103.719 -101.472 2
      vertex -103.719 -101.472 12
    endloop
  endfacet
  facet normal 0.904909 0.425605 0
    outer loop
      vertex -103.719 -101.472 2
      vertex -103.505 -101.927 12
      vertex -103.505 -101.927 2
    endloop
  endfacet
  facet normal 0.904909 -0.425605 0
    outer loop
      vertex -103.719 101.472 12
      vertex -103.505 101.927 2
      vertex -103.505 101.927 12
    endloop
  endfacet
  facet normal 0.904909 -0.425605 0
    outer loop
      vertex -103.505 101.927 2
      vertex -103.719 101.472 12
      vertex -103.719 101.472 2
    endloop
  endfacet
  facet normal 0.951049 -0.309041 0
    outer loop
      vertex -103.874 100.995 12
      vertex -103.719 101.472 2
      vertex -103.719 101.472 12
    endloop
  endfacet
  facet normal 0.951049 -0.309041 0
    outer loop
      vertex -103.719 101.472 2
      vertex -103.874 100.995 12
      vertex -103.874 100.995 2
    endloop
  endfacet
  facet normal 0.770664 -0.637242 0
    outer loop
      vertex -103.236 102.351 12
      vertex -102.916 102.738 2
      vertex -102.916 102.738 12
    endloop
  endfacet
  facet normal 0.770664 -0.637242 0
    outer loop
      vertex -102.916 102.738 2
      vertex -103.236 102.351 12
      vertex -103.236 102.351 2
    endloop
  endfacet
  facet normal 0.249094 -0.968479 0
    outer loop
      vertex -101.236 103.804 2
      vertex -100.75 103.929 12
      vertex -101.236 103.804 12
    endloop
  endfacet
  facet normal 0.249094 -0.968479 0
    outer loop
      vertex -100.75 103.929 12
      vertex -101.236 103.804 2
      vertex -100.75 103.929 2
    endloop
  endfacet
  facet normal -0.368299 0.929707 0
    outer loop
      vertex 101.703 -103.619 2
      vertex 101.236 -103.804 12
      vertex 101.703 -103.619 12
    endloop
  endfacet
  facet normal -0.368299 0.929707 0
    outer loop
      vertex 101.236 -103.804 12
      vertex 101.703 -103.619 2
      vertex 101.236 -103.804 2
    endloop
  endfacet
  facet normal -0.58687 -0.809681 0
    outer loop
      vertex 102.143 103.377 2
      vertex 102.55 103.082 12
      vertex 102.143 103.377 12
    endloop
  endfacet
  facet normal -0.58687 -0.809681 -0
    outer loop
      vertex 102.55 103.082 12
      vertex 102.143 103.377 2
      vertex 102.55 103.082 2
    endloop
  endfacet
  facet normal -0.684868 -0.728667 0
    outer loop
      vertex 102.55 103.082 2
      vertex 102.916 102.738 12
      vertex 102.55 103.082 12
    endloop
  endfacet
  facet normal -0.684868 -0.728667 -0
    outer loop
      vertex 102.916 102.738 12
      vertex 102.55 103.082 2
      vertex 102.916 102.738 2
    endloop
  endfacet
  facet normal -0.125258 -0.992124 0
    outer loop
      vertex 100.251 103.992 2
      vertex 100.75 103.929 12
      vertex 100.251 103.992 12
    endloop
  endfacet
  facet normal -0.125258 -0.992124 -0
    outer loop
      vertex 100.75 103.929 12
      vertex 100.251 103.992 2
      vertex 100.75 103.929 2
    endloop
  endfacet
  facet normal -0.249094 -0.968479 0
    outer loop
      vertex 100.75 103.929 2
      vertex 101.236 103.804 12
      vertex 100.75 103.929 12
    endloop
  endfacet
  facet normal -0.249094 -0.968479 -0
    outer loop
      vertex 101.236 103.804 12
      vertex 100.75 103.929 2
      vertex 101.236 103.804 2
    endloop
  endfacet
  facet normal -0.982373 -0.186929 0
    outer loop
      vertex 103.968 100.501 2
      vertex 103.874 100.995 12
      vertex 103.874 100.995 2
    endloop
  endfacet
  facet normal -0.982373 -0.186929 0
    outer loop
      vertex 103.874 100.995 12
      vertex 103.968 100.501 2
      vertex 103.968 100.501 12
    endloop
  endfacet
  facet normal -0.997966 -0.0637424 0
    outer loop
      vertex 104 100 2
      vertex 103.968 100.501 12
      vertex 103.968 100.501 2
    endloop
  endfacet
  facet normal -0.997966 -0.0637424 0
    outer loop
      vertex 103.968 100.501 12
      vertex 104 100 2
      vertex 104 100 12
    endloop
  endfacet
  facet normal -0.982373 0.186929 0
    outer loop
      vertex 103.874 -100.995 2
      vertex 103.968 -100.501 12
      vertex 103.968 -100.501 2
    endloop
  endfacet
  facet normal -0.982373 0.186929 0
    outer loop
      vertex 103.968 -100.501 12
      vertex 103.874 -100.995 2
      vertex 103.874 -100.995 12
    endloop
  endfacet
  facet normal -0.844399 0.535715 0
    outer loop
      vertex 103.236 -102.351 2
      vertex 103.505 -101.927 12
      vertex 103.505 -101.927 2
    endloop
  endfacet
  facet normal -0.844399 0.535715 0
    outer loop
      vertex 103.505 -101.927 12
      vertex 103.236 -102.351 2
      vertex 103.236 -102.351 12
    endloop
  endfacet
  facet normal -0.58687 0.809681 0
    outer loop
      vertex 102.55 -103.082 2
      vertex 102.143 -103.377 12
      vertex 102.55 -103.082 12
    endloop
  endfacet
  facet normal -0.58687 0.809681 0
    outer loop
      vertex 102.143 -103.377 12
      vertex 102.55 -103.082 2
      vertex 102.143 -103.377 2
    endloop
  endfacet
  facet normal 0 0 1
    outer loop
      vertex 100.251 103.992 2
      vertex 104 100 2
      vertex 103.968 100.501 2
    endloop
  endfacet
  facet normal 0 0 1
    outer loop
      vertex -104 100 2
      vertex 104 100 2
      vertex 100.251 103.992 2
    endloop
  endfacet
  facet normal 0 0 1
    outer loop
      vertex 100.251 103.992 2
      vertex 103.968 100.501 2
      vertex 103.874 100.995 2
    endloop
  endfacet
  facet normal 0 0 1
    outer loop
      vertex 104 100 2
      vertex -104 100 2
      vertex 104 -100 2
    endloop
  endfacet
  facet normal 0 0 1
    outer loop
      vertex 100.251 103.992 2
      vertex 103.874 100.995 2
      vertex 103.719 101.472 2
    endloop
  endfacet
  facet normal 0 0 1
    outer loop
      vertex 104 -100 2
      vertex 100.251 -103.992 2
      vertex 103.968 -100.501 2
    endloop
  endfacet
  facet normal 0 0 1
    outer loop
      vertex 100.251 103.992 2
      vertex 103.719 101.472 2
      vertex 103.505 101.927 2
    endloop
  endfacet
  facet normal 0 0 1
    outer loop
      vertex 103.968 -100.501 2
      vertex 100.251 -103.992 2
      vertex 103.874 -100.995 2
    endloop
  endfacet
  facet normal 0 0 1
    outer loop
      vertex 100.251 103.992 2
      vertex 103.505 101.927 2
      vertex 103.236 102.351 2
    endloop
  endfacet
  facet normal 0 0 1
    outer loop
      vertex 103.874 -100.995 2
      vertex 100.251 -103.992 2
      vertex 103.719 -101.472 2
    endloop
  endfacet
  facet normal 0 0 1
    outer loop
      vertex 100.251 103.992 2
      vertex 103.236 102.351 2
      vertex 102.916 102.738 2
    endloop
  endfacet
  facet normal 0 0 1
    outer loop
      vertex 103.719 -101.472 2
      vertex 100.251 -103.992 2
      vertex 103.505 -101.927 2
    endloop
  endfacet
  facet normal 0 0 1
    outer loop
      vertex 100.251 103.992 2
      vertex 102.916 102.738 2
      vertex 102.55 103.082 2
    endloop
  endfacet
  facet normal 0 0 1
    outer loop
      vertex 103.505 -101.927 2
      vertex 100.251 -103.992 2
      vertex 103.236 -102.351 2
    endloop
  endfacet
  facet normal 0 0 1
    outer loop
      vertex 100.251 103.992 2
      vertex 102.55 103.082 2
      vertex 102.143 103.377 2
    endloop
  endfacet
  facet normal 0 0 1
    outer loop
      vertex 103.236 -102.351 2
      vertex 100.251 -103.992 2
      vertex 102.916 -102.738 2
    endloop
  endfacet
  facet normal 0 0 1
    outer loop
      vertex 100.251 103.992 2
      vertex 102.143 103.377 2
      vertex 101.703 103.619 2
    endloop
  endfacet
  facet normal 0 0 1
    outer loop
      vertex 102.916 -102.738 2
      vertex 100.251 -103.992 2
      vertex 102.55 -103.082 2
    endloop
  endfacet
  facet normal 0 0 1
    outer loop
      vertex 100.251 103.992 2
      vertex 101.703 103.619 2
      vertex 101.236 103.804 2
    endloop
  endfacet
  facet normal 0 0 1
    outer loop
      vertex 102.55 -103.082 2
      vertex 100.251 -103.992 2
      vertex 102.143 -103.377 2
    endloop
  endfacet
  facet normal 0 0 1
    outer loop
      vertex 100.251 103.992 2
      vertex 101.236 103.804 2
      vertex 100.75 103.929 2
    endloop
  endfacet
  facet normal 0 0 1
    outer loop
      vertex 102.143 -103.377 2
      vertex 100.251 -103.992 2
      vertex 101.703 -103.619 2
    endloop
  endfacet
  facet normal 0 0 1
    outer loop
      vertex 101.703 -103.619 2
      vertex 100.251 -103.992 2
      vertex 101.236 -103.804 2
    endloop
  endfacet
  facet normal 0 0 1
    outer loop
      vertex 101.236 -103.804 2
      vertex 100.251 -103.992 2
      vertex 100.75 -103.929 2
    endloop
  endfacet
  facet normal 0 0 1
    outer loop
      vertex -104 100 2
      vertex 100.251 103.992 2
      vertex -100.251 103.992 2
    endloop
  endfacet
  facet normal 0 0 1
    outer loop
      vertex -104 -100 2
      vertex 104 -100 2
      vertex -104 100 2
    endloop
  endfacet
  facet normal 0 0 1
    outer loop
      vertex -104 100 2
      vertex -100.251 103.992 2
      vertex -100.75 103.929 2
    endloop
  endfacet
  facet normal 0 0 1
    outer loop
      vertex 104 -100 2
      vertex -104 -100 2
      vertex 100.251 -103.992 2
    endloop
  endfacet
  facet normal 0 0 1
    outer loop
      vertex -104 100 2
      vertex -100.75 103.929 2
      vertex -101.236 103.804 2
    endloop
  endfacet
  facet normal 0 0 1
    outer loop
      vertex 100.251 -103.992 2
      vertex -104 -100 2
      vertex -100.251 -103.992 2
    endloop
  endfacet
  facet normal 0 0 1
    outer loop
      vertex -104 100 2
      vertex -101.236 103.804 2
      vertex -101.703 103.619 2
    endloop
  endfacet
  facet normal 0 0 1
    outer loop
      vertex -100.251 -103.992 2
      vertex -104 -100 2
      vertex -100.75 -103.929 2
    endloop
  endfacet
  facet normal 0 0 1
    outer loop
      vertex -104 100 2
      vertex -101.703 103.619 2
      vertex -102.143 103.377 2
    endloop
  endfacet
  facet normal 0 0 1
    outer loop
      vertex -100.75 -103.929 2
      vertex -104 -100 2
      vertex -101.236 -103.804 2
    endloop
  endfacet
  facet normal 0 0 1
    outer loop
      vertex -104 100 2
      vertex -102.143 103.377 2
      vertex -102.55 103.082 2
    endloop
  endfacet
  facet normal 0 0 1
    outer loop
      vertex -101.236 -103.804 2
      vertex -104 -100 2
      vertex -101.703 -103.619 2
    endloop
  endfacet
  facet normal 0 0 1
    outer loop
      vertex -104 100 2
      vertex -102.55 103.082 2
      vertex -102.916 102.738 2
    endloop
  endfacet
  facet normal 0 0 1
    outer loop
      vertex -101.703 -103.619 2
      vertex -104 -100 2
      vertex -102.143 -103.377 2
    endloop
  endfacet
  facet normal 0 0 1
    outer loop
      vertex -104 100 2
      vertex -102.916 102.738 2
      vertex -103.236 102.351 2
    endloop
  endfacet
  facet normal 0 0 1
    outer loop
      vertex -102.143 -103.377 2
      vertex -104 -100 2
      vertex -102.55 -103.082 2
    endloop
  endfacet
  facet normal 0 0 1
    outer loop
      vertex -104 100 2
      vertex -103.236 102.351 2
      vertex -103.505 101.927 2
    endloop
  endfacet
  facet normal 0 0 1
    outer loop
      vertex -102.55 -103.082 2
      vertex -104 -100 2
      vertex -102.916 -102.738 2
    endloop
  endfacet
  facet normal 0 0 1
    outer loop
      vertex -104 100 2
      vertex -103.505 101.927 2
      vertex -103.719 101.472 2
    endloop
  endfacet
  facet normal 0 0 1
    outer loop
      vertex -102.916 -102.738 2
      vertex -104 -100 2
      vertex -103.236 -102.351 2
    endloop
  endfacet
  facet normal 0 0 1
    outer loop
      vertex -104 100 2
      vertex -103.719 101.472 2
      vertex -103.874 100.995 2
    endloop
  endfacet
  facet normal 0 0 1
    outer loop
      vertex -103.236 -102.351 2
      vertex -104 -100 2
      vertex -103.505 -101.927 2
    endloop
  endfacet
  facet normal 0 0 1
    outer loop
      vertex -104 100 2
      vertex -103.874 100.995 2
      vertex -103.968 100.501 2
    endloop
  endfacet
  facet normal 0 0 1
    outer loop
      vertex -103.505 -101.927 2
      vertex -104 -100 2
      vertex -103.719 -101.472 2
    endloop
  endfacet
  facet normal 0 0 1
    outer loop
      vertex -103.719 -101.472 2
      vertex -104 -100 2
      vertex -103.874 -100.995 2
    endloop
  endfacet
  facet normal 0 0 1
    outer loop
      vertex -103.874 -100.995 2
      vertex -104 -100 2
      vertex -103.968 -100.501 2
    endloop
  endfacet
  facet normal 0.982373 0.186929 0
    outer loop
      vertex -103.874 -100.995 12
      vertex -103.968 -100.501 2
      vertex -103.968 -100.501 12
    endloop
  endfacet
  facet normal 0.982373 0.186929 0
    outer loop
      vertex -103.968 -100.501 2
      vertex -103.874 -100.995 12
      vertex -103.874 -100.995 2
    endloop
  endfacet
  facet normal 0.844399 0.535715 0
    outer loop
      vertex -103.236 -102.351 12
      vertex -103.505 -101.927 2
      vertex -103.505 -101.927 12
    endloop
  endfacet
  facet normal 0.844399 0.535715 0
    outer loop
      vertex -103.505 -101.927 2
      vertex -103.236 -102.351 12
      vertex -103.236 -102.351 2
    endloop
  endfacet
  facet normal 0.844399 -0.535715 0
    outer loop
      vertex -103.505 101.927 12
      vertex -103.236 102.351 2
      vertex -103.236 102.351 12
    endloop
  endfacet
  facet normal 0.844399 -0.535715 0
    outer loop
      vertex -103.236 102.351 2
      vertex -103.505 101.927 12
      vertex -103.505 101.927 2
    endloop
  endfacet
  facet normal 0.982373 -0.186929 0
    outer loop
      vertex -103.968 100.501 12
      vertex -103.874 100.995 2
      vertex -103.874 100.995 12
    endloop
  endfacet
  facet normal 0.982373 -0.186929 0
    outer loop
      vertex -103.874 100.995 2
      vertex -103.968 100.501 12
      vertex -103.968 100.501 2
    endloop
  endfacet
  facet normal 0.997966 -0.0637424 0
    outer loop
      vertex -104 100 12
      vertex -103.968 100.501 2
      vertex -103.968 100.501 12
    endloop
  endfacet
  facet normal 0.997966 -0.0637424 0
    outer loop
      vertex -103.968 100.501 2
      vertex -104 100 12
      vertex -104 100 2
    endloop
  endfacet
  facet normal 0.58687 -0.809681 0
    outer loop
      vertex -102.55 103.082 2
      vertex -102.143 103.377 12
      vertex -102.55 103.082 12
    endloop
  endfacet
  facet normal 0.58687 -0.809681 0
    outer loop
      vertex -102.143 103.377 12
      vertex -102.55 103.082 2
      vertex -102.143 103.377 2
    endloop
  endfacet
  facet normal 0.368299 -0.929707 0
    outer loop
      vertex -101.703 103.619 2
      vertex -101.236 103.804 12
      vertex -101.703 103.619 12
    endloop
  endfacet
  facet normal 0.368299 -0.929707 0
    outer loop
      vertex -101.236 103.804 12
      vertex -101.703 103.619 2
      vertex -101.236 103.804 2
    endloop
  endfacet
  facet normal -0.844399 -0.535715 0
    outer loop
      vertex 103.505 101.927 2
      vertex 103.236 102.351 12
      vertex 103.236 102.351 2
    endloop
  endfacet
  facet normal -0.844399 -0.535715 0
    outer loop
      vertex 103.236 102.351 12
      vertex 103.505 101.927 2
      vertex 103.505 101.927 12
    endloop
  endfacet
  facet normal -0.904909 -0.425605 0
    outer loop
      vertex 103.719 101.472 2
      vertex 103.505 101.927 12
      vertex 103.505 101.927 2
    endloop
  endfacet
  facet normal -0.904909 -0.425605 0
    outer loop
      vertex 103.505 101.927 12
      vertex 103.719 101.472 2
      vertex 103.719 101.472 12
    endloop
  endfacet
  facet normal -0.997966 0.0637424 0
    outer loop
      vertex 103.968 -100.501 2
      vertex 104 -100 12
      vertex 104 -100 2
    endloop
  endfacet
  facet normal -0.997966 0.0637424 0
    outer loop
      vertex 104 -100 12
      vertex 103.968 -100.501 2
      vertex 103.968 -100.501 12
    endloop
  endfacet
  facet normal -0.684868 0.728667 0
    outer loop
      vertex 102.916 -102.738 2
      vertex 102.55 -103.082 12
      vertex 102.916 -102.738 12
    endloop
  endfacet
  facet normal -0.684868 0.728667 0
    outer loop
      vertex 102.55 -103.082 12
      vertex 102.916 -102.738 2
      vertex 102.55 -103.082 2
    endloop
  endfacet
  facet normal -0.249094 0.968479 0
    outer loop
      vertex 101.236 -103.804 2
      vertex 100.75 -103.929 12
      vertex 101.236 -103.804 12
    endloop
  endfacet
  facet normal -0.249094 0.968479 0
    outer loop
      vertex 100.75 -103.929 12
      vertex 101.236 -103.804 2
      vertex 100.75 -103.929 2
    endloop
  endfacet
  facet normal -0.125258 0.992124 0
    outer loop
      vertex 100.75 -103.929 2
      vertex 100.251 -103.992 12
      vertex 100.75 -103.929 12
    endloop
  endfacet
  facet normal -0.125258 0.992124 0
    outer loop
      vertex 100.251 -103.992 12
      vertex 100.75 -103.929 2
      vertex 100.251 -103.992 2
    endloop
  endfacet
endsolid OpenSCAD_Model
