solid OpenSCAD_Model
  facet normal 0.125336 0.992114 -0
    outer loop
      vertex 3.43691 59.9114 0
      vertex 2.81395 59.9901 18
      vertex 3.43691 59.9114 18
    endloop
  endfacet
  facet normal 0.125336 0.992114 0
    outer loop
      vertex 2.81395 59.9901 18
      vertex 3.43691 59.9114 0
      vertex 2.81395 59.9901 0
    endloop
  endfacet
  facet normal 0 0 1
    outer loop
      vertex 6.5 55 18
      vertex 7.5 55 18
      vertex 7.46057 55.6267 18
    endloop
  endfacet
  facet normal 0 0 1
    outer loop
      vertex 7.5 55 18
      vertex 6.5 55 18
      vertex 7.5 -55 18
    endloop
  endfacet
  facet normal 0 0 1
    outer loop
      vertex 6.46846 55.5013 18
      vertex 7.46057 55.6267 18
      vertex 7.34292 56.2435 18
    endloop
  endfacet
  facet normal 0 0 1
    outer loop
      vertex 6.5 -55 18
      vertex 7.5 -55 18
      vertex 6.5 55 18
    endloop
  endfacet
  facet normal 0 0 1
    outer loop
      vertex 6.37433 55.9948 18
      vertex 7.34292 56.2435 18
      vertex 7.14888 56.8406 18
    endloop
  endfacet
  facet normal 0 0 1
    outer loop
      vertex 7.5 -55 18
      vertex 6.5 -55 18
      vertex 7.46057 -55.6267 18
    endloop
  endfacet
  facet normal 0 0 1
    outer loop
      vertex 6.21911 56.4725 18
      vertex 7.14888 56.8406 18
      vertex 6.88153 57.4088 18
    endloop
  endfacet
  facet normal -0 0 1
    outer loop
      vertex 6.46846 -55.5013 18
      vertex 7.46057 -55.6267 18
      vertex 6.5 -55 18
    endloop
  endfacet
  facet normal 0 0 1
    outer loop
      vertex 6.00523 56.927 18
      vertex 6.88153 57.4088 18
      vertex 6.54508 57.9389 18
    endloop
  endfacet
  facet normal 0 0 1
    outer loop
      vertex 7.46057 -55.6267 18
      vertex 6.46846 -55.5013 18
      vertex 7.34292 -56.2435 18
    endloop
  endfacet
  facet normal -0 0 1
    outer loop
      vertex 6.37433 -55.9948 18
      vertex 7.34292 -56.2435 18
      vertex 6.46846 -55.5013 18
    endloop
  endfacet
  facet normal 0 0 1
    outer loop
      vertex 7.46057 55.6267 18
      vertex 6.46846 55.5013 18
      vertex 6.5 55 18
    endloop
  endfacet
  facet normal 0 0 1
    outer loop
      vertex 7.34292 56.2435 18
      vertex 6.37433 55.9948 18
      vertex 6.46846 55.5013 18
    endloop
  endfacet
  facet normal 0 0 1
    outer loop
      vertex 7.14888 56.8406 18
      vertex 6.21911 56.4725 18
      vertex 6.37433 55.9948 18
    endloop
  endfacet
  facet normal 0 0 1
    outer loop
      vertex 5.73607 57.3511 18
      vertex 6.54508 57.9389 18
      vertex 6.14484 58.4227 18
    endloop
  endfacet
  facet normal 0 0 1
    outer loop
      vertex 6.88153 57.4088 18
      vertex 6.00523 56.927 18
      vertex 6.21911 56.4725 18
    endloop
  endfacet
  facet normal 0 0 1
    outer loop
      vertex 6.54508 57.9389 18
      vertex 5.73607 57.3511 18
      vertex 6.00523 56.927 18
    endloop
  endfacet
  facet normal 0 0 1
    outer loop
      vertex 5.41587 57.7382 18
      vertex 6.14484 58.4227 18
      vertex 5.68712 58.8526 18
    endloop
  endfacet
  facet normal 0 0 1
    outer loop
      vertex 6.14484 58.4227 18
      vertex 5.41587 57.7382 18
      vertex 5.73607 57.3511 18
    endloop
  endfacet
  facet normal 0 0 1
    outer loop
      vertex 5.0497 58.0821 18
      vertex 5.68712 58.8526 18
      vertex 5.17913 59.2216 18
    endloop
  endfacet
  facet normal 0 0 1
    outer loop
      vertex 5.68712 58.8526 18
      vertex 5.0497 58.0821 18
      vertex 5.41587 57.7382 18
    endloop
  endfacet
  facet normal 0 0 1
    outer loop
      vertex 5.17913 59.2216 18
      vertex 4.64331 58.3773 18
      vertex 5.0497 58.0821 18
    endloop
  endfacet
  facet normal 0 0 1
    outer loop
      vertex 4.6289 59.5241 18
      vertex 4.64331 58.3773 18
      vertex 5.17913 59.2216 18
    endloop
  endfacet
  facet normal 0 0 1
    outer loop
      vertex 4.6289 59.5241 18
      vertex 4.20312 58.6193 18
      vertex 4.64331 58.3773 18
    endloop
  endfacet
  facet normal 0 0 1
    outer loop
      vertex 4.04508 59.7553 18
      vertex 4.20312 58.6193 18
      vertex 4.6289 59.5241 18
    endloop
  endfacet
  facet normal 0 0 1
    outer loop
      vertex 4.04508 59.7553 18
      vertex 3.73607 58.8042 18
      vertex 4.20312 58.6193 18
    endloop
  endfacet
  facet normal 0 0 1
    outer loop
      vertex 3.43691 59.9114 18
      vertex 3.73607 58.8042 18
      vertex 4.04508 59.7553 18
    endloop
  endfacet
  facet normal 0 0 1
    outer loop
      vertex 3.43691 59.9114 18
      vertex 3.24953 58.9291 18
      vertex 3.73607 58.8042 18
    endloop
  endfacet
  facet normal 0 0 1
    outer loop
      vertex 2.81395 59.9901 18
      vertex 3.24953 58.9291 18
      vertex 3.43691 59.9114 18
    endloop
  endfacet
  facet normal 0 0 1
    outer loop
      vertex 2.81395 59.9901 18
      vertex 2.75116 58.9921 18
      vertex 3.24953 58.9291 18
    endloop
  endfacet
  facet normal 0 0 1
    outer loop
      vertex 2.81395 59.9901 18
      vertex -2.75116 58.9921 18
      vertex 2.75116 58.9921 18
    endloop
  endfacet
  facet normal -0 0 1
    outer loop
      vertex -2.81395 59.9901 18
      vertex -2.75116 58.9921 18
      vertex 2.81395 59.9901 18
    endloop
  endfacet
  facet normal 0 0 1
    outer loop
      vertex -2.81395 59.9901 18
      vertex -3.24953 58.9291 18
      vertex -2.75116 58.9921 18
    endloop
  endfacet
  facet normal -0 0 1
    outer loop
      vertex -3.43691 59.9114 18
      vertex -3.24953 58.9291 18
      vertex -2.81395 59.9901 18
    endloop
  endfacet
  facet normal 0 0 1
    outer loop
      vertex -3.43691 59.9114 18
      vertex -3.73607 58.8042 18
      vertex -3.24953 58.9291 18
    endloop
  endfacet
  facet normal -0 0 1
    outer loop
      vertex -4.04508 59.7553 18
      vertex -3.73607 58.8042 18
      vertex -3.43691 59.9114 18
    endloop
  endfacet
  facet normal 0 0 1
    outer loop
      vertex -4.04508 59.7553 18
      vertex -4.20312 58.6193 18
      vertex -3.73607 58.8042 18
    endloop
  endfacet
  facet normal -0 0 1
    outer loop
      vertex -4.6289 59.5241 18
      vertex -4.20312 58.6193 18
      vertex -4.04508 59.7553 18
    endloop
  endfacet
  facet normal 0 0 1
    outer loop
      vertex -4.6289 59.5241 18
      vertex -4.64331 58.3773 18
      vertex -4.20312 58.6193 18
    endloop
  endfacet
  facet normal -0 0 1
    outer loop
      vertex -5.17913 59.2216 18
      vertex -4.64331 58.3773 18
      vertex -4.6289 59.5241 18
    endloop
  endfacet
  facet normal 0 0 1
    outer loop
      vertex -4.64331 58.3773 18
      vertex -5.17913 59.2216 18
      vertex -5.0497 58.0821 18
    endloop
  endfacet
  facet normal -0 0 1
    outer loop
      vertex -5.68712 58.8526 18
      vertex -5.0497 58.0821 18
      vertex -5.17913 59.2216 18
    endloop
  endfacet
  facet normal 0 0 1
    outer loop
      vertex -5.0497 58.0821 18
      vertex -5.68712 58.8526 18
      vertex -5.41587 57.7382 18
    endloop
  endfacet
  facet normal -0 0 1
    outer loop
      vertex -6.14484 58.4227 18
      vertex -5.41587 57.7382 18
      vertex -5.68712 58.8526 18
    endloop
  endfacet
  facet normal 0 0 1
    outer loop
      vertex -5.41587 57.7382 18
      vertex -6.14484 58.4227 18
      vertex -5.73607 57.3511 18
    endloop
  endfacet
  facet normal -0 0 1
    outer loop
      vertex -6.54508 57.9389 18
      vertex -5.73607 57.3511 18
      vertex -6.14484 58.4227 18
    endloop
  endfacet
  facet normal 0 0 1
    outer loop
      vertex -5.73607 57.3511 18
      vertex -6.54508 57.9389 18
      vertex -6.00523 56.927 18
    endloop
  endfacet
  facet normal -0 0 1
    outer loop
      vertex -6.88153 57.4088 18
      vertex -6.00523 56.927 18
      vertex -6.54508 57.9389 18
    endloop
  endfacet
  facet normal 0 0 1
    outer loop
      vertex -6.00523 56.927 18
      vertex -6.88153 57.4088 18
      vertex -6.21911 56.4725 18
    endloop
  endfacet
  facet normal -0 0 1
    outer loop
      vertex -7.34292 56.2435 18
      vertex -6.37433 55.9948 18
      vertex -7.14888 56.8406 18
    endloop
  endfacet
  facet normal 0 0 1
    outer loop
      vertex -6.21911 56.4725 18
      vertex -7.14888 56.8406 18
      vertex -6.37433 55.9948 18
    endloop
  endfacet
  facet normal -0 0 1
    outer loop
      vertex -7.14888 56.8406 18
      vertex -6.21911 56.4725 18
      vertex -6.88153 57.4088 18
    endloop
  endfacet
  facet normal 0 0 1
    outer loop
      vertex 7.34292 -56.2435 18
      vertex 6.37433 -55.9948 18
      vertex 7.14888 -56.8406 18
    endloop
  endfacet
  facet normal -0 0 1
    outer loop
      vertex 6.21911 -56.4725 18
      vertex 7.14888 -56.8406 18
      vertex 6.37433 -55.9948 18
    endloop
  endfacet
  facet normal 0 0 1
    outer loop
      vertex 7.14888 -56.8406 18
      vertex 6.21911 -56.4725 18
      vertex 6.88153 -57.4088 18
    endloop
  endfacet
  facet normal -0 0 1
    outer loop
      vertex 6.00523 -56.927 18
      vertex 6.88153 -57.4088 18
      vertex 6.21911 -56.4725 18
    endloop
  endfacet
  facet normal 0 0 1
    outer loop
      vertex 6.88153 -57.4088 18
      vertex 6.00523 -56.927 18
      vertex 6.54508 -57.9389 18
    endloop
  endfacet
  facet normal -0 0 1
    outer loop
      vertex 5.73607 -57.3511 18
      vertex 6.54508 -57.9389 18
      vertex 6.00523 -56.927 18
    endloop
  endfacet
  facet normal 0 0 1
    outer loop
      vertex 6.54508 -57.9389 18
      vertex 5.73607 -57.3511 18
      vertex 6.14484 -58.4227 18
    endloop
  endfacet
  facet normal -0 0 1
    outer loop
      vertex 5.41587 -57.7382 18
      vertex 6.14484 -58.4227 18
      vertex 5.73607 -57.3511 18
    endloop
  endfacet
  facet normal 0 0 1
    outer loop
      vertex 6.14484 -58.4227 18
      vertex 5.41587 -57.7382 18
      vertex 5.68712 -58.8526 18
    endloop
  endfacet
  facet normal -0 0 1
    outer loop
      vertex 5.0497 -58.0821 18
      vertex 5.68712 -58.8526 18
      vertex 5.41587 -57.7382 18
    endloop
  endfacet
  facet normal 0 0 1
    outer loop
      vertex 5.68712 -58.8526 18
      vertex 5.0497 -58.0821 18
      vertex 5.17913 -59.2216 18
    endloop
  endfacet
  facet normal -0 0 1
    outer loop
      vertex 4.64331 -58.3773 18
      vertex 5.17913 -59.2216 18
      vertex 5.0497 -58.0821 18
    endloop
  endfacet
  facet normal 0 0 1
    outer loop
      vertex 4.64331 -58.3773 18
      vertex 4.6289 -59.5241 18
      vertex 5.17913 -59.2216 18
    endloop
  endfacet
  facet normal -0 0 1
    outer loop
      vertex 4.20312 -58.6193 18
      vertex 4.6289 -59.5241 18
      vertex 4.64331 -58.3773 18
    endloop
  endfacet
  facet normal 0 0 1
    outer loop
      vertex 4.20312 -58.6193 18
      vertex 4.04508 -59.7553 18
      vertex 4.6289 -59.5241 18
    endloop
  endfacet
  facet normal -0 0 1
    outer loop
      vertex 3.73607 -58.8042 18
      vertex 4.04508 -59.7553 18
      vertex 4.20312 -58.6193 18
    endloop
  endfacet
  facet normal 0 0 1
    outer loop
      vertex 3.73607 -58.8042 18
      vertex 3.43691 -59.9114 18
      vertex 4.04508 -59.7553 18
    endloop
  endfacet
  facet normal -0 0 1
    outer loop
      vertex 3.24953 -58.9291 18
      vertex 3.43691 -59.9114 18
      vertex 3.73607 -58.8042 18
    endloop
  endfacet
  facet normal 0 0 1
    outer loop
      vertex 3.24953 -58.9291 18
      vertex 2.81395 -59.9901 18
      vertex 3.43691 -59.9114 18
    endloop
  endfacet
  facet normal -0 0 1
    outer loop
      vertex 2.75116 -58.9921 18
      vertex 2.81395 -59.9901 18
      vertex 3.24953 -58.9291 18
    endloop
  endfacet
  facet normal -0 0 1
    outer loop
      vertex -2.75116 -58.9921 18
      vertex 2.81395 -59.9901 18
      vertex 2.75116 -58.9921 18
    endloop
  endfacet
  facet normal 0 0 1
    outer loop
      vertex -2.75116 -58.9921 18
      vertex -2.81395 -59.9901 18
      vertex 2.81395 -59.9901 18
    endloop
  endfacet
  facet normal 0 0 1
    outer loop
      vertex -3.24953 -58.9291 18
      vertex -2.81395 -59.9901 18
      vertex -2.75116 -58.9921 18
    endloop
  endfacet
  facet normal 0 0 1
    outer loop
      vertex -3.24953 -58.9291 18
      vertex -3.43691 -59.9114 18
      vertex -2.81395 -59.9901 18
    endloop
  endfacet
  facet normal 0 0 1
    outer loop
      vertex -3.73607 -58.8042 18
      vertex -3.43691 -59.9114 18
      vertex -3.24953 -58.9291 18
    endloop
  endfacet
  facet normal 0 0 1
    outer loop
      vertex -3.73607 -58.8042 18
      vertex -4.04508 -59.7553 18
      vertex -3.43691 -59.9114 18
    endloop
  endfacet
  facet normal 0 0 1
    outer loop
      vertex -4.20312 -58.6193 18
      vertex -4.04508 -59.7553 18
      vertex -3.73607 -58.8042 18
    endloop
  endfacet
  facet normal 0 0 1
    outer loop
      vertex -4.20312 -58.6193 18
      vertex -4.6289 -59.5241 18
      vertex -4.04508 -59.7553 18
    endloop
  endfacet
  facet normal 0 0 1
    outer loop
      vertex -4.64331 -58.3773 18
      vertex -4.6289 -59.5241 18
      vertex -4.20312 -58.6193 18
    endloop
  endfacet
  facet normal 0 0 1
    outer loop
      vertex -5.17913 -59.2216 18
      vertex -4.64331 -58.3773 18
      vertex -5.0497 -58.0821 18
    endloop
  endfacet
  facet normal 0 0 1
    outer loop
      vertex -4.64331 -58.3773 18
      vertex -5.17913 -59.2216 18
      vertex -4.6289 -59.5241 18
    endloop
  endfacet
  facet normal 0 0 1
    outer loop
      vertex -5.68712 -58.8526 18
      vertex -5.0497 -58.0821 18
      vertex -5.41587 -57.7382 18
    endloop
  endfacet
  facet normal 0 0 1
    outer loop
      vertex -5.0497 -58.0821 18
      vertex -5.68712 -58.8526 18
      vertex -5.17913 -59.2216 18
    endloop
  endfacet
  facet normal 0 0 1
    outer loop
      vertex -6.14484 -58.4227 18
      vertex -5.41587 -57.7382 18
      vertex -5.73607 -57.3511 18
    endloop
  endfacet
  facet normal 0 0 1
    outer loop
      vertex -6.54508 -57.9389 18
      vertex -5.73607 -57.3511 18
      vertex -6.00523 -56.927 18
    endloop
  endfacet
  facet normal 0 0 1
    outer loop
      vertex -5.41587 -57.7382 18
      vertex -6.14484 -58.4227 18
      vertex -5.68712 -58.8526 18
    endloop
  endfacet
  facet normal 0 0 1
    outer loop
      vertex -6.88153 -57.4088 18
      vertex -6.00523 -56.927 18
      vertex -6.21911 -56.4725 18
    endloop
  endfacet
  facet normal 0 0 1
    outer loop
      vertex -7.14888 -56.8406 18
      vertex -6.21911 -56.4725 18
      vertex -6.37433 -55.9948 18
    endloop
  endfacet
  facet normal 0 0 1
    outer loop
      vertex -7.34292 -56.2435 18
      vertex -6.37433 -55.9948 18
      vertex -6.46846 -55.5013 18
    endloop
  endfacet
  facet normal 0 0 1
    outer loop
      vertex -5.73607 -57.3511 18
      vertex -6.54508 -57.9389 18
      vertex -6.14484 -58.4227 18
    endloop
  endfacet
  facet normal 0 0 1
    outer loop
      vertex -7.46057 -55.6267 18
      vertex -6.46846 -55.5013 18
      vertex -6.5 -55 18
    endloop
  endfacet
  facet normal 0 0 1
    outer loop
      vertex -6.5 55 18
      vertex -7.5 55 18
      vertex -6.5 -55 18
    endloop
  endfacet
  facet normal 0 0 1
    outer loop
      vertex -6.37433 55.9948 18
      vertex -7.34292 56.2435 18
      vertex -6.46846 55.5013 18
    endloop
  endfacet
  facet normal 0 0 1
    outer loop
      vertex -7.5 -55 18
      vertex -6.5 -55 18
      vertex -7.5 55 18
    endloop
  endfacet
  facet normal -0 0 1
    outer loop
      vertex -7.46057 55.6267 18
      vertex -6.46846 55.5013 18
      vertex -7.34292 56.2435 18
    endloop
  endfacet
  facet normal 0 -0 1
    outer loop
      vertex -7.46057 -55.6267 18
      vertex -6.5 -55 18
      vertex -7.5 -55 18
    endloop
  endfacet
  facet normal 0 0 1
    outer loop
      vertex -6.46846 55.5013 18
      vertex -7.46057 55.6267 18
      vertex -6.5 55 18
    endloop
  endfacet
  facet normal 0 0 1
    outer loop
      vertex -6.00523 -56.927 18
      vertex -6.88153 -57.4088 18
      vertex -6.54508 -57.9389 18
    endloop
  endfacet
  facet normal 0 0 1
    outer loop
      vertex -6.5 55 18
      vertex -7.46057 55.6267 18
      vertex -7.5 55 18
    endloop
  endfacet
  facet normal 0 0 1
    outer loop
      vertex -6.21911 -56.4725 18
      vertex -7.14888 -56.8406 18
      vertex -6.88153 -57.4088 18
    endloop
  endfacet
  facet normal 0 0 1
    outer loop
      vertex -6.37433 -55.9948 18
      vertex -7.34292 -56.2435 18
      vertex -7.14888 -56.8406 18
    endloop
  endfacet
  facet normal 0 0 1
    outer loop
      vertex -6.46846 -55.5013 18
      vertex -7.46057 -55.6267 18
      vertex -7.34292 -56.2435 18
    endloop
  endfacet
  facet normal -0.481764 0.876301 0
    outer loop
      vertex -4.6289 59.5241 0
      vertex -5.17913 59.2216 18
      vertex -4.6289 59.5241 18
    endloop
  endfacet
  facet normal -0.481764 0.876301 0
    outer loop
      vertex -5.17913 59.2216 18
      vertex -4.6289 59.5241 0
      vertex -5.17913 59.2216 0
    endloop
  endfacet
  facet normal 0.998027 0.0627927 0
    outer loop
      vertex 7.5 55 18
      vertex 7.46057 55.6267 0
      vertex 7.46057 55.6267 18
    endloop
  endfacet
  facet normal 0.998027 0.0627927 0
    outer loop
      vertex 7.46057 55.6267 0
      vertex 7.5 55 18
      vertex 7.5 55 0
    endloop
  endfacet
  facet normal 0 0 -1
    outer loop
      vertex 2.81395 -59.9901 0
      vertex 7.5 -55 0
      vertex 7.46057 -55.6267 0
    endloop
  endfacet
  facet normal 0 0 -1
    outer loop
      vertex 7.5 -55 0
      vertex -7.5 -55 0
      vertex 7.5 55 0
    endloop
  endfacet
  facet normal 0 0 -1
    outer loop
      vertex 2.81395 -59.9901 0
      vertex 7.46057 -55.6267 0
      vertex 7.34292 -56.2435 0
    endloop
  endfacet
  facet normal 0 0 -1
    outer loop
      vertex -7.5 55 0
      vertex 7.5 55 0
      vertex -7.5 -55 0
    endloop
  endfacet
  facet normal 0 0 -1
    outer loop
      vertex 2.81395 -59.9901 0
      vertex 7.34292 -56.2435 0
      vertex 7.14888 -56.8406 0
    endloop
  endfacet
  facet normal 0 -0 -1
    outer loop
      vertex 2.81395 59.9901 0
      vertex 7.5 55 0
      vertex -7.5 55 0
    endloop
  endfacet
  facet normal 0 0 -1
    outer loop
      vertex 2.81395 -59.9901 0
      vertex 7.14888 -56.8406 0
      vertex 6.88153 -57.4088 0
    endloop
  endfacet
  facet normal 0 0 -1
    outer loop
      vertex 7.5 55 0
      vertex 2.81395 59.9901 0
      vertex 7.46057 55.6267 0
    endloop
  endfacet
  facet normal 0 0 -1
    outer loop
      vertex 2.81395 -59.9901 0
      vertex 6.88153 -57.4088 0
      vertex 6.54508 -57.9389 0
    endloop
  endfacet
  facet normal 0 0 -1
    outer loop
      vertex 7.46057 55.6267 0
      vertex 2.81395 59.9901 0
      vertex 7.34292 56.2435 0
    endloop
  endfacet
  facet normal 0 0 -1
    outer loop
      vertex 2.81395 -59.9901 0
      vertex 6.54508 -57.9389 0
      vertex 6.14484 -58.4227 0
    endloop
  endfacet
  facet normal 0 0 -1
    outer loop
      vertex 7.34292 56.2435 0
      vertex 2.81395 59.9901 0
      vertex 7.14888 56.8406 0
    endloop
  endfacet
  facet normal 0 0 -1
    outer loop
      vertex 2.81395 -59.9901 0
      vertex 6.14484 -58.4227 0
      vertex 5.68712 -58.8526 0
    endloop
  endfacet
  facet normal 0 0 -1
    outer loop
      vertex 7.14888 56.8406 0
      vertex 2.81395 59.9901 0
      vertex 6.88153 57.4088 0
    endloop
  endfacet
  facet normal 0 0 -1
    outer loop
      vertex 2.81395 -59.9901 0
      vertex 5.68712 -58.8526 0
      vertex 5.17913 -59.2216 0
    endloop
  endfacet
  facet normal 0 0 -1
    outer loop
      vertex 6.88153 57.4088 0
      vertex 2.81395 59.9901 0
      vertex 6.54508 57.9389 0
    endloop
  endfacet
  facet normal 0 0 -1
    outer loop
      vertex 2.81395 -59.9901 0
      vertex 5.17913 -59.2216 0
      vertex 4.6289 -59.5241 0
    endloop
  endfacet
  facet normal 0 0 -1
    outer loop
      vertex 6.54508 57.9389 0
      vertex 2.81395 59.9901 0
      vertex 6.14484 58.4227 0
    endloop
  endfacet
  facet normal 0 0 -1
    outer loop
      vertex 2.81395 -59.9901 0
      vertex 4.6289 -59.5241 0
      vertex 4.04508 -59.7553 0
    endloop
  endfacet
  facet normal 0 0 -1
    outer loop
      vertex 6.14484 58.4227 0
      vertex 2.81395 59.9901 0
      vertex 5.68712 58.8526 0
    endloop
  endfacet
  facet normal 0 0 -1
    outer loop
      vertex 2.81395 -59.9901 0
      vertex 4.04508 -59.7553 0
      vertex 3.43691 -59.9114 0
    endloop
  endfacet
  facet normal 0 0 -1
    outer loop
      vertex 5.68712 58.8526 0
      vertex 2.81395 59.9901 0
      vertex 5.17913 59.2216 0
    endloop
  endfacet
  facet normal -0 0 -1
    outer loop
      vertex 7.5 -55 0
      vertex 2.81395 -59.9901 0
      vertex -7.5 -55 0
    endloop
  endfacet
  facet normal 0 0 -1
    outer loop
      vertex 5.17913 59.2216 0
      vertex 2.81395 59.9901 0
      vertex 4.6289 59.5241 0
    endloop
  endfacet
  facet normal 0 0 -1
    outer loop
      vertex -7.5 -55 0
      vertex 2.81395 -59.9901 0
      vertex -2.81395 -59.9901 0
    endloop
  endfacet
  facet normal 0 0 -1
    outer loop
      vertex 4.6289 59.5241 0
      vertex 2.81395 59.9901 0
      vertex 4.04508 59.7553 0
    endloop
  endfacet
  facet normal 0 0 -1
    outer loop
      vertex -7.5 -55 0
      vertex -2.81395 -59.9901 0
      vertex -3.43691 -59.9114 0
    endloop
  endfacet
  facet normal 0 0 -1
    outer loop
      vertex 4.04508 59.7553 0
      vertex 2.81395 59.9901 0
      vertex 3.43691 59.9114 0
    endloop
  endfacet
  facet normal 0 0 -1
    outer loop
      vertex -7.5 -55 0
      vertex -3.43691 -59.9114 0
      vertex -4.04508 -59.7553 0
    endloop
  endfacet
  facet normal -0 0 -1
    outer loop
      vertex 2.81395 59.9901 0
      vertex -7.5 55 0
      vertex -2.81395 59.9901 0
    endloop
  endfacet
  facet normal 0 0 -1
    outer loop
      vertex -7.5 -55 0
      vertex -4.04508 -59.7553 0
      vertex -4.6289 -59.5241 0
    endloop
  endfacet
  facet normal 0 0 -1
    outer loop
      vertex -2.81395 59.9901 0
      vertex -7.5 55 0
      vertex -3.43691 59.9114 0
    endloop
  endfacet
  facet normal 0 0 -1
    outer loop
      vertex -7.5 -55 0
      vertex -4.6289 -59.5241 0
      vertex -5.17913 -59.2216 0
    endloop
  endfacet
  facet normal 0 0 -1
    outer loop
      vertex -3.43691 59.9114 0
      vertex -7.5 55 0
      vertex -4.04508 59.7553 0
    endloop
  endfacet
  facet normal 0 0 -1
    outer loop
      vertex -7.5 -55 0
      vertex -5.17913 -59.2216 0
      vertex -5.68712 -58.8526 0
    endloop
  endfacet
  facet normal 0 0 -1
    outer loop
      vertex -4.04508 59.7553 0
      vertex -7.5 55 0
      vertex -4.6289 59.5241 0
    endloop
  endfacet
  facet normal 0 0 -1
    outer loop
      vertex -7.5 -55 0
      vertex -5.68712 -58.8526 0
      vertex -6.14484 -58.4227 0
    endloop
  endfacet
  facet normal 0 0 -1
    outer loop
      vertex -4.6289 59.5241 0
      vertex -7.5 55 0
      vertex -5.17913 59.2216 0
    endloop
  endfacet
  facet normal 0 0 -1
    outer loop
      vertex -7.5 -55 0
      vertex -6.14484 -58.4227 0
      vertex -6.54508 -57.9389 0
    endloop
  endfacet
  facet normal 0 0 -1
    outer loop
      vertex -5.17913 59.2216 0
      vertex -7.5 55 0
      vertex -5.68712 58.8526 0
    endloop
  endfacet
  facet normal 0 0 -1
    outer loop
      vertex -7.5 -55 0
      vertex -6.54508 -57.9389 0
      vertex -6.88153 -57.4088 0
    endloop
  endfacet
  facet normal 0 0 -1
    outer loop
      vertex -5.68712 58.8526 0
      vertex -7.5 55 0
      vertex -6.14484 58.4227 0
    endloop
  endfacet
  facet normal 0 0 -1
    outer loop
      vertex -7.5 -55 0
      vertex -6.88153 -57.4088 0
      vertex -7.14888 -56.8406 0
    endloop
  endfacet
  facet normal 0 0 -1
    outer loop
      vertex -6.14484 58.4227 0
      vertex -7.5 55 0
      vertex -6.54508 57.9389 0
    endloop
  endfacet
  facet normal 0 0 -1
    outer loop
      vertex -7.5 -55 0
      vertex -7.14888 -56.8406 0
      vertex -7.34292 -56.2435 0
    endloop
  endfacet
  facet normal 0 0 -1
    outer loop
      vertex -6.54508 57.9389 0
      vertex -7.5 55 0
      vertex -6.88153 57.4088 0
    endloop
  endfacet
  facet normal 0 0 -1
    outer loop
      vertex -7.5 -55 0
      vertex -7.34292 -56.2435 0
      vertex -7.46057 -55.6267 0
    endloop
  endfacet
  facet normal 0 0 -1
    outer loop
      vertex -6.88153 57.4088 0
      vertex -7.5 55 0
      vertex -7.14888 56.8406 0
    endloop
  endfacet
  facet normal 0 0 -1
    outer loop
      vertex -7.14888 56.8406 0
      vertex -7.5 55 0
      vertex -7.34292 56.2435 0
    endloop
  endfacet
  facet normal 0 0 -1
    outer loop
      vertex -7.34292 56.2435 0
      vertex -7.5 55 0
      vertex -7.46057 55.6267 0
    endloop
  endfacet
  facet normal -0.770509 -0.63743 0
    outer loop
      vertex -6.14484 -58.4227 0
      vertex -6.54508 -57.9389 18
      vertex -6.54508 -57.9389 0
    endloop
  endfacet
  facet normal -0.770509 -0.63743 0
    outer loop
      vertex -6.54508 -57.9389 18
      vertex -6.14484 -58.4227 0
      vertex -6.14484 -58.4227 18
    endloop
  endfacet
  facet normal 0 1 -0
    outer loop
      vertex 2.81395 59.9901 0
      vertex -2.81395 59.9901 18
      vertex 2.81395 59.9901 18
    endloop
  endfacet
  facet normal 0 1 0
    outer loop
      vertex -2.81395 59.9901 18
      vertex 2.81395 59.9901 0
      vertex -2.81395 59.9901 0
    endloop
  endfacet
  facet normal -0.368192 0.92975 0
    outer loop
      vertex -4.04508 59.7553 0
      vertex -4.6289 59.5241 18
      vertex -4.04508 59.7553 18
    endloop
  endfacet
  facet normal -0.368192 0.92975 0
    outer loop
      vertex -4.6289 59.5241 18
      vertex -4.04508 59.7553 0
      vertex -4.6289 59.5241 0
    endloop
  endfacet
  facet normal -0.8443 0.53587 0
    outer loop
      vertex -6.88153 57.4088 0
      vertex -6.54508 57.9389 18
      vertex -6.54508 57.9389 0
    endloop
  endfacet
  facet normal -0.8443 0.53587 0
    outer loop
      vertex -6.54508 57.9389 18
      vertex -6.88153 57.4088 0
      vertex -6.88153 57.4088 18
    endloop
  endfacet
  facet normal -0.951042 0.309061 0
    outer loop
      vertex -7.34292 56.2435 0
      vertex -7.14888 56.8406 18
      vertex -7.14888 56.8406 0
    endloop
  endfacet
  facet normal -0.951042 0.309061 0
    outer loop
      vertex -7.14888 56.8406 18
      vertex -7.34292 56.2435 0
      vertex -7.34292 56.2435 18
    endloop
  endfacet
  facet normal 0.770509 0.63743 0
    outer loop
      vertex 6.54508 57.9389 18
      vertex 6.14484 58.4227 0
      vertex 6.14484 58.4227 18
    endloop
  endfacet
  facet normal 0.770509 0.63743 0
    outer loop
      vertex 6.14484 58.4227 0
      vertex 6.54508 57.9389 18
      vertex 6.54508 57.9389 0
    endloop
  endfacet
  facet normal 0.998027 -0.0627927 0
    outer loop
      vertex 7.46057 -55.6267 18
      vertex 7.5 -55 0
      vertex 7.5 -55 18
    endloop
  endfacet
  facet normal 0.998027 -0.0627927 0
    outer loop
      vertex 7.5 -55 0
      vertex 7.46057 -55.6267 18
      vertex 7.46057 -55.6267 0
    endloop
  endfacet
  facet normal -0.587706 0.809075 0
    outer loop
      vertex -5.17913 59.2216 0
      vertex -5.68712 58.8526 18
      vertex -5.17913 59.2216 18
    endloop
  endfacet
  facet normal -0.587706 0.809075 0
    outer loop
      vertex -5.68712 58.8526 18
      vertex -5.17913 59.2216 0
      vertex -5.68712 58.8526 0
    endloop
  endfacet
  facet normal -0.770509 0.63743 0
    outer loop
      vertex -6.54508 57.9389 0
      vertex -6.14484 58.4227 18
      vertex -6.14484 58.4227 0
    endloop
  endfacet
  facet normal -0.770509 0.63743 0
    outer loop
      vertex -6.14484 58.4227 18
      vertex -6.54508 57.9389 0
      vertex -6.54508 57.9389 18
    endloop
  endfacet
  facet normal 0.368192 0.92975 -0
    outer loop
      vertex 4.6289 59.5241 0
      vertex 4.04508 59.7553 18
      vertex 4.6289 59.5241 18
    endloop
  endfacet
  facet normal 0.368192 0.92975 0
    outer loop
      vertex 4.04508 59.7553 18
      vertex 4.6289 59.5241 0
      vertex 4.04508 59.7553 0
    endloop
  endfacet
  facet normal 0.951042 0.309061 0
    outer loop
      vertex 7.34292 56.2435 18
      vertex 7.14888 56.8406 0
      vertex 7.14888 56.8406 18
    endloop
  endfacet
  facet normal 0.951042 0.309061 0
    outer loop
      vertex 7.14888 56.8406 0
      vertex 7.34292 56.2435 18
      vertex 7.34292 56.2435 0
    endloop
  endfacet
  facet normal 1 -0 0
    outer loop
      vertex 7.5 -55 18
      vertex 7.5 55 0
      vertex 7.5 55 18
    endloop
  endfacet
  facet normal 1 0 0
    outer loop
      vertex 7.5 55 0
      vertex 7.5 -55 18
      vertex 7.5 -55 0
    endloop
  endfacet
  facet normal -0.998027 -0.0627927 0
    outer loop
      vertex -7.46057 -55.6267 0
      vertex -7.5 -55 18
      vertex -7.5 -55 0
    endloop
  endfacet
  facet normal -0.998027 -0.0627927 0
    outer loop
      vertex -7.5 -55 18
      vertex -7.46057 -55.6267 0
      vertex -7.46057 -55.6267 18
    endloop
  endfacet
  facet normal -0.248613 0.968603 0
    outer loop
      vertex -3.43691 59.9114 0
      vertex -4.04508 59.7553 18
      vertex -3.43691 59.9114 18
    endloop
  endfacet
  facet normal -0.248613 0.968603 0
    outer loop
      vertex -4.04508 59.7553 18
      vertex -3.43691 59.9114 0
      vertex -4.04508 59.7553 0
    endloop
  endfacet
  facet normal -0.125336 0.992114 0
    outer loop
      vertex -2.81395 59.9901 0
      vertex -3.43691 59.9114 18
      vertex -2.81395 59.9901 18
    endloop
  endfacet
  facet normal -0.125336 0.992114 0
    outer loop
      vertex -3.43691 59.9114 18
      vertex -2.81395 59.9901 0
      vertex -3.43691 59.9114 0
    endloop
  endfacet
  facet normal 0.248613 0.968603 -0
    outer loop
      vertex 4.04508 59.7553 0
      vertex 3.43691 59.9114 18
      vertex 4.04508 59.7553 18
    endloop
  endfacet
  facet normal 0.248613 0.968603 0
    outer loop
      vertex 3.43691 59.9114 18
      vertex 4.04508 59.7553 0
      vertex 3.43691 59.9114 0
    endloop
  endfacet
  facet normal 0.481764 0.876301 -0
    outer loop
      vertex 5.17913 59.2216 0
      vertex 4.6289 59.5241 18
      vertex 5.17913 59.2216 18
    endloop
  endfacet
  facet normal 0.481764 0.876301 0
    outer loop
      vertex 4.6289 59.5241 18
      vertex 5.17913 59.2216 0
      vertex 4.6289 59.5241 0
    endloop
  endfacet
  facet normal 0.684608 0.728911 -0
    outer loop
      vertex 6.14484 58.4227 0
      vertex 5.68712 58.8526 18
      vertex 6.14484 58.4227 18
    endloop
  endfacet
  facet normal 0.684608 0.728911 0
    outer loop
      vertex 5.68712 58.8526 18
      vertex 6.14484 58.4227 0
      vertex 5.68712 58.8526 0
    endloop
  endfacet
  facet normal 0.98229 0.187365 0
    outer loop
      vertex 7.46057 55.6267 18
      vertex 7.34292 56.2435 0
      vertex 7.34292 56.2435 18
    endloop
  endfacet
  facet normal 0.98229 0.187365 0
    outer loop
      vertex 7.34292 56.2435 0
      vertex 7.46057 55.6267 18
      vertex 7.46057 55.6267 0
    endloop
  endfacet
  facet normal 0.904842 0.425747 0
    outer loop
      vertex 7.14888 56.8406 18
      vertex 6.88153 57.4088 0
      vertex 6.88153 57.4088 18
    endloop
  endfacet
  facet normal 0.904842 0.425747 0
    outer loop
      vertex 6.88153 57.4088 0
      vertex 7.14888 56.8406 18
      vertex 7.14888 56.8406 0
    endloop
  endfacet
  facet normal 0.8443 0.53587 0
    outer loop
      vertex 6.88153 57.4088 18
      vertex 6.54508 57.9389 0
      vertex 6.54508 57.9389 18
    endloop
  endfacet
  facet normal 0.8443 0.53587 0
    outer loop
      vertex 6.54508 57.9389 0
      vertex 6.88153 57.4088 18
      vertex 6.88153 57.4088 0
    endloop
  endfacet
  facet normal -1 0 0
    outer loop
      vertex -7.5 -55 0
      vertex -7.5 55 18
      vertex -7.5 55 0
    endloop
  endfacet
  facet normal -1 -0 0
    outer loop
      vertex -7.5 55 18
      vertex -7.5 -55 0
      vertex -7.5 -55 18
    endloop
  endfacet
  facet normal -0.998027 0.0627927 0
    outer loop
      vertex -7.5 55 0
      vertex -7.46057 55.6267 18
      vertex -7.46057 55.6267 0
    endloop
  endfacet
  facet normal -0.998027 0.0627927 0
    outer loop
      vertex -7.46057 55.6267 18
      vertex -7.5 55 0
      vertex -7.5 55 18
    endloop
  endfacet
  facet normal 0.587706 0.809075 -0
    outer loop
      vertex 5.68712 58.8526 0
      vertex 5.17913 59.2216 18
      vertex 5.68712 58.8526 18
    endloop
  endfacet
  facet normal 0.587706 0.809075 0
    outer loop
      vertex 5.17913 59.2216 18
      vertex 5.68712 58.8526 0
      vertex 5.17913 59.2216 0
    endloop
  endfacet
  facet normal 0.368192 -0.92975 0
    outer loop
      vertex 4.04508 -59.7553 0
      vertex 4.6289 -59.5241 18
      vertex 4.04508 -59.7553 18
    endloop
  endfacet
  facet normal 0.368192 -0.92975 0
    outer loop
      vertex 4.6289 -59.5241 18
      vertex 4.04508 -59.7553 0
      vertex 4.6289 -59.5241 0
    endloop
  endfacet
  facet normal -0.248613 -0.968603 0
    outer loop
      vertex -4.04508 -59.7553 0
      vertex -3.43691 -59.9114 18
      vertex -4.04508 -59.7553 18
    endloop
  endfacet
  facet normal -0.248613 -0.968603 -0
    outer loop
      vertex -3.43691 -59.9114 18
      vertex -4.04508 -59.7553 0
      vertex -3.43691 -59.9114 0
    endloop
  endfacet
  facet normal 0.8443 -0.53587 0
    outer loop
      vertex 6.54508 -57.9389 18
      vertex 6.88153 -57.4088 0
      vertex 6.88153 -57.4088 18
    endloop
  endfacet
  facet normal 0.8443 -0.53587 0
    outer loop
      vertex 6.88153 -57.4088 0
      vertex 6.54508 -57.9389 18
      vertex 6.54508 -57.9389 0
    endloop
  endfacet
  facet normal 0 -1 0
    outer loop
      vertex -2.81395 -59.9901 0
      vertex 2.81395 -59.9901 18
      vertex -2.81395 -59.9901 18
    endloop
  endfacet
  facet normal 0 -1 -0
    outer loop
      vertex 2.81395 -59.9901 18
      vertex -2.81395 -59.9901 0
      vertex 2.81395 -59.9901 0
    endloop
  endfacet
  facet normal -0.8443 -0.53587 0
    outer loop
      vertex -6.54508 -57.9389 0
      vertex -6.88153 -57.4088 18
      vertex -6.88153 -57.4088 0
    endloop
  endfacet
  facet normal -0.8443 -0.53587 0
    outer loop
      vertex -6.88153 -57.4088 18
      vertex -6.54508 -57.9389 0
      vertex -6.54508 -57.9389 18
    endloop
  endfacet
  facet normal -0.904842 -0.425747 0
    outer loop
      vertex -6.88153 -57.4088 0
      vertex -7.14888 -56.8406 18
      vertex -7.14888 -56.8406 0
    endloop
  endfacet
  facet normal -0.904842 -0.425747 0
    outer loop
      vertex -7.14888 -56.8406 18
      vertex -6.88153 -57.4088 0
      vertex -6.88153 -57.4088 18
    endloop
  endfacet
  facet normal -0.951042 -0.309061 0
    outer loop
      vertex -7.14888 -56.8406 0
      vertex -7.34292 -56.2435 18
      vertex -7.34292 -56.2435 0
    endloop
  endfacet
  facet normal -0.951042 -0.309061 0
    outer loop
      vertex -7.34292 -56.2435 18
      vertex -7.14888 -56.8406 0
      vertex -7.14888 -56.8406 18
    endloop
  endfacet
  facet normal -0.98229 -0.187365 0
    outer loop
      vertex -7.34292 -56.2435 0
      vertex -7.46057 -55.6267 18
      vertex -7.46057 -55.6267 0
    endloop
  endfacet
  facet normal -0.98229 -0.187365 0
    outer loop
      vertex -7.46057 -55.6267 18
      vertex -7.34292 -56.2435 0
      vertex -7.34292 -56.2435 18
    endloop
  endfacet
  facet normal -0.684608 -0.728911 0
    outer loop
      vertex -6.14484 -58.4227 0
      vertex -5.68712 -58.8526 18
      vertex -6.14484 -58.4227 18
    endloop
  endfacet
  facet normal -0.684608 -0.728911 -0
    outer loop
      vertex -5.68712 -58.8526 18
      vertex -6.14484 -58.4227 0
      vertex -5.68712 -58.8526 0
    endloop
  endfacet
  facet normal -0.481764 -0.876301 0
    outer loop
      vertex -5.17913 -59.2216 0
      vertex -4.6289 -59.5241 18
      vertex -5.17913 -59.2216 18
    endloop
  endfacet
  facet normal -0.481764 -0.876301 -0
    outer loop
      vertex -4.6289 -59.5241 18
      vertex -5.17913 -59.2216 0
      vertex -4.6289 -59.5241 0
    endloop
  endfacet
  facet normal -0.368192 -0.92975 0
    outer loop
      vertex -4.6289 -59.5241 0
      vertex -4.04508 -59.7553 18
      vertex -4.6289 -59.5241 18
    endloop
  endfacet
  facet normal -0.368192 -0.92975 -0
    outer loop
      vertex -4.04508 -59.7553 18
      vertex -4.6289 -59.5241 0
      vertex -4.04508 -59.7553 0
    endloop
  endfacet
  facet normal -0.684608 0.728911 0
    outer loop
      vertex -5.68712 58.8526 0
      vertex -6.14484 58.4227 18
      vertex -5.68712 58.8526 18
    endloop
  endfacet
  facet normal -0.684608 0.728911 0
    outer loop
      vertex -6.14484 58.4227 18
      vertex -5.68712 58.8526 0
      vertex -6.14484 58.4227 0
    endloop
  endfacet
  facet normal -0.904842 0.425747 0
    outer loop
      vertex -7.14888 56.8406 0
      vertex -6.88153 57.4088 18
      vertex -6.88153 57.4088 0
    endloop
  endfacet
  facet normal -0.904842 0.425747 0
    outer loop
      vertex -6.88153 57.4088 18
      vertex -7.14888 56.8406 0
      vertex -7.14888 56.8406 18
    endloop
  endfacet
  facet normal 0.684608 -0.728911 0
    outer loop
      vertex 5.68712 -58.8526 0
      vertex 6.14484 -58.4227 18
      vertex 5.68712 -58.8526 18
    endloop
  endfacet
  facet normal 0.684608 -0.728911 0
    outer loop
      vertex 6.14484 -58.4227 18
      vertex 5.68712 -58.8526 0
      vertex 6.14484 -58.4227 0
    endloop
  endfacet
  facet normal 0.770509 -0.63743 0
    outer loop
      vertex 6.14484 -58.4227 18
      vertex 6.54508 -57.9389 0
      vertex 6.54508 -57.9389 18
    endloop
  endfacet
  facet normal 0.770509 -0.63743 0
    outer loop
      vertex 6.54508 -57.9389 0
      vertex 6.14484 -58.4227 18
      vertex 6.14484 -58.4227 0
    endloop
  endfacet
  facet normal 0.904842 -0.425747 0
    outer loop
      vertex 6.88153 -57.4088 18
      vertex 7.14888 -56.8406 0
      vertex 7.14888 -56.8406 18
    endloop
  endfacet
  facet normal 0.904842 -0.425747 0
    outer loop
      vertex 7.14888 -56.8406 0
      vertex 6.88153 -57.4088 18
      vertex 6.88153 -57.4088 0
    endloop
  endfacet
  facet normal 0.951042 -0.309061 0
    outer loop
      vertex 7.14888 -56.8406 18
      vertex 7.34292 -56.2435 0
      vertex 7.34292 -56.2435 18
    endloop
  endfacet
  facet normal 0.951042 -0.309061 0
    outer loop
      vertex 7.34292 -56.2435 0
      vertex 7.14888 -56.8406 18
      vertex 7.14888 -56.8406 0
    endloop
  endfacet
  facet normal 0.125336 -0.992114 0
    outer loop
      vertex 2.81395 -59.9901 0
      vertex 3.43691 -59.9114 18
      vertex 2.81395 -59.9901 18
    endloop
  endfacet
  facet normal 0.125336 -0.992114 0
    outer loop
      vertex 3.43691 -59.9114 18
      vertex 2.81395 -59.9901 0
      vertex 3.43691 -59.9114 0
    endloop
  endfacet
  facet normal 0.248613 -0.968603 0
    outer loop
      vertex 3.43691 -59.9114 0
      vertex 4.04508 -59.7553 18
      vertex 3.43691 -59.9114 18
    endloop
  endfacet
  facet normal 0.248613 -0.968603 0
    outer loop
      vertex 4.04508 -59.7553 18
      vertex 3.43691 -59.9114 0
      vertex 4.04508 -59.7553 0
    endloop
  endfacet
  facet normal 0.481764 -0.876301 0
    outer loop
      vertex 4.6289 -59.5241 0
      vertex 5.17913 -59.2216 18
      vertex 4.6289 -59.5241 18
    endloop
  endfacet
  facet normal 0.481764 -0.876301 0
    outer loop
      vertex 5.17913 -59.2216 18
      vertex 4.6289 -59.5241 0
      vertex 5.17913 -59.2216 0
    endloop
  endfacet
  facet normal -0.587706 -0.809075 0
    outer loop
      vertex -5.68712 -58.8526 0
      vertex -5.17913 -59.2216 18
      vertex -5.68712 -58.8526 18
    endloop
  endfacet
  facet normal -0.587706 -0.809075 -0
    outer loop
      vertex -5.17913 -59.2216 18
      vertex -5.68712 -58.8526 0
      vertex -5.17913 -59.2216 0
    endloop
  endfacet
  facet normal -0.125336 -0.992114 0
    outer loop
      vertex -3.43691 -59.9114 0
      vertex -2.81395 -59.9901 18
      vertex -3.43691 -59.9114 18
    endloop
  endfacet
  facet normal -0.125336 -0.992114 -0
    outer loop
      vertex -2.81395 -59.9901 18
      vertex -3.43691 -59.9114 0
      vertex -2.81395 -59.9901 0
    endloop
  endfacet
  facet normal -0.98229 0.187365 0
    outer loop
      vertex -7.46057 55.6267 0
      vertex -7.34292 56.2435 18
      vertex -7.34292 56.2435 0
    endloop
  endfacet
  facet normal -0.98229 0.187365 0
    outer loop
      vertex -7.34292 56.2435 18
      vertex -7.46057 55.6267 0
      vertex -7.46057 55.6267 18
    endloop
  endfacet
  facet normal 0.98229 -0.187365 0
    outer loop
      vertex 7.34292 -56.2435 18
      vertex 7.46057 -55.6267 0
      vertex 7.46057 -55.6267 18
    endloop
  endfacet
  facet normal 0.98229 -0.187365 0
    outer loop
      vertex 7.46057 -55.6267 0
      vertex 7.34292 -56.2435 18
      vertex 7.34292 -56.2435 0
    endloop
  endfacet
  facet normal 0.587706 -0.809075 0
    outer loop
      vertex 5.17913 -59.2216 0
      vertex 5.68712 -58.8526 18
      vertex 5.17913 -59.2216 18
    endloop
  endfacet
  facet normal 0.587706 -0.809075 0
    outer loop
      vertex 5.68712 -58.8526 18
      vertex 5.17913 -59.2216 0
      vertex 5.68712 -58.8526 0
    endloop
  endfacet
  facet normal -0.125414 -0.992104 0
    outer loop
      vertex 2.75116 58.9921 2
      vertex 3.24953 58.9291 18
      vertex 2.75116 58.9921 18
    endloop
  endfacet
  facet normal -0.125414 -0.992104 -0
    outer loop
      vertex 3.24953 58.9291 18
      vertex 2.75116 58.9921 2
      vertex 3.24953 58.9291 2
    endloop
  endfacet
  facet normal -0.951053 0.309028 0
    outer loop
      vertex 6.21911 -56.4725 2
      vertex 6.37433 -55.9948 18
      vertex 6.37433 -55.9948 2
    endloop
  endfacet
  facet normal -0.951053 0.309028 0
    outer loop
      vertex 6.37433 -55.9948 18
      vertex 6.21911 -56.4725 2
      vertex 6.21911 -56.4725 18
    endloop
  endfacet
  facet normal -0.998027 -0.0627923 0
    outer loop
      vertex 6.5 55 2
      vertex 6.46846 55.5013 18
      vertex 6.46846 55.5013 2
    endloop
  endfacet
  facet normal -0.998027 -0.0627923 0
    outer loop
      vertex 6.46846 55.5013 18
      vertex 6.5 55 2
      vertex 6.5 55 18
    endloop
  endfacet
  facet normal 0 0 1
    outer loop
      vertex 2.75116 58.9921 2
      vertex 6.5 55 2
      vertex 6.46846 55.5013 2
    endloop
  endfacet
  facet normal 0 0 1
    outer loop
      vertex 6.5 55 2
      vertex -6.5 55 2
      vertex 6.5 -55 2
    endloop
  endfacet
  facet normal 0 0 1
    outer loop
      vertex 2.75116 58.9921 2
      vertex 6.46846 55.5013 2
      vertex 6.37433 55.9948 2
    endloop
  endfacet
  facet normal 0 0 1
    outer loop
      vertex -6.5 -55 2
      vertex 6.5 -55 2
      vertex -6.5 55 2
    endloop
  endfacet
  facet normal 0 0 1
    outer loop
      vertex 2.75116 58.9921 2
      vertex 6.37433 55.9948 2
      vertex 6.21911 56.4725 2
    endloop
  endfacet
  facet normal 0 -0 1
    outer loop
      vertex 2.75116 -58.9921 2
      vertex 6.5 -55 2
      vertex -6.5 -55 2
    endloop
  endfacet
  facet normal 0 0 1
    outer loop
      vertex 2.75116 58.9921 2
      vertex 6.21911 56.4725 2
      vertex 6.00523 56.927 2
    endloop
  endfacet
  facet normal 0 0 1
    outer loop
      vertex 6.5 -55 2
      vertex 2.75116 -58.9921 2
      vertex 6.46846 -55.5013 2
    endloop
  endfacet
  facet normal 0 0 1
    outer loop
      vertex 2.75116 58.9921 2
      vertex 6.00523 56.927 2
      vertex 5.73607 57.3511 2
    endloop
  endfacet
  facet normal 0 0 1
    outer loop
      vertex 6.46846 -55.5013 2
      vertex 2.75116 -58.9921 2
      vertex 6.37433 -55.9948 2
    endloop
  endfacet
  facet normal 0 0 1
    outer loop
      vertex 2.75116 58.9921 2
      vertex 5.73607 57.3511 2
      vertex 5.41587 57.7382 2
    endloop
  endfacet
  facet normal 0 0 1
    outer loop
      vertex 6.37433 -55.9948 2
      vertex 2.75116 -58.9921 2
      vertex 6.21911 -56.4725 2
    endloop
  endfacet
  facet normal 0 0 1
    outer loop
      vertex 2.75116 58.9921 2
      vertex 5.41587 57.7382 2
      vertex 5.0497 58.0821 2
    endloop
  endfacet
  facet normal 0 0 1
    outer loop
      vertex 6.21911 -56.4725 2
      vertex 2.75116 -58.9921 2
      vertex 6.00523 -56.927 2
    endloop
  endfacet
  facet normal 0 0 1
    outer loop
      vertex 2.75116 58.9921 2
      vertex 5.0497 58.0821 2
      vertex 4.64331 58.3773 2
    endloop
  endfacet
  facet normal 0 0 1
    outer loop
      vertex 6.00523 -56.927 2
      vertex 2.75116 -58.9921 2
      vertex 5.73607 -57.3511 2
    endloop
  endfacet
  facet normal 0 0 1
    outer loop
      vertex 2.75116 58.9921 2
      vertex 4.64331 58.3773 2
      vertex 4.20312 58.6193 2
    endloop
  endfacet
  facet normal 0 0 1
    outer loop
      vertex 5.73607 -57.3511 2
      vertex 2.75116 -58.9921 2
      vertex 5.41587 -57.7382 2
    endloop
  endfacet
  facet normal 0 0 1
    outer loop
      vertex 2.75116 58.9921 2
      vertex 4.20312 58.6193 2
      vertex 3.73607 58.8042 2
    endloop
  endfacet
  facet normal 0 0 1
    outer loop
      vertex 5.41587 -57.7382 2
      vertex 2.75116 -58.9921 2
      vertex 5.0497 -58.0821 2
    endloop
  endfacet
  facet normal 0 0 1
    outer loop
      vertex 2.75116 58.9921 2
      vertex 3.73607 58.8042 2
      vertex 3.24953 58.9291 2
    endloop
  endfacet
  facet normal 0 0 1
    outer loop
      vertex 5.0497 -58.0821 2
      vertex 2.75116 -58.9921 2
      vertex 4.64331 -58.3773 2
    endloop
  endfacet
  facet normal 0 0 1
    outer loop
      vertex 6.5 55 2
      vertex 2.75116 58.9921 2
      vertex -6.5 55 2
    endloop
  endfacet
  facet normal 0 0 1
    outer loop
      vertex 4.64331 -58.3773 2
      vertex 2.75116 -58.9921 2
      vertex 4.20312 -58.6193 2
    endloop
  endfacet
  facet normal 0 0 1
    outer loop
      vertex -6.5 55 2
      vertex 2.75116 58.9921 2
      vertex -2.75116 58.9921 2
    endloop
  endfacet
  facet normal 0 0 1
    outer loop
      vertex 4.20312 -58.6193 2
      vertex 2.75116 -58.9921 2
      vertex 3.73607 -58.8042 2
    endloop
  endfacet
  facet normal 0 0 1
    outer loop
      vertex -6.5 55 2
      vertex -2.75116 58.9921 2
      vertex -3.24953 58.9291 2
    endloop
  endfacet
  facet normal 0 0 1
    outer loop
      vertex 3.73607 -58.8042 2
      vertex 2.75116 -58.9921 2
      vertex 3.24953 -58.9291 2
    endloop
  endfacet
  facet normal 0 0 1
    outer loop
      vertex -6.5 55 2
      vertex -3.24953 58.9291 2
      vertex -3.73607 58.8042 2
    endloop
  endfacet
  facet normal 0 0 1
    outer loop
      vertex 2.75116 -58.9921 2
      vertex -6.5 -55 2
      vertex -2.75116 -58.9921 2
    endloop
  endfacet
  facet normal 0 0 1
    outer loop
      vertex -6.5 55 2
      vertex -3.73607 58.8042 2
      vertex -4.20312 58.6193 2
    endloop
  endfacet
  facet normal 0 0 1
    outer loop
      vertex -2.75116 -58.9921 2
      vertex -6.5 -55 2
      vertex -3.24953 -58.9291 2
    endloop
  endfacet
  facet normal 0 0 1
    outer loop
      vertex -6.5 55 2
      vertex -4.20312 58.6193 2
      vertex -4.64331 58.3773 2
    endloop
  endfacet
  facet normal 0 0 1
    outer loop
      vertex -3.24953 -58.9291 2
      vertex -6.5 -55 2
      vertex -3.73607 -58.8042 2
    endloop
  endfacet
  facet normal 0 0 1
    outer loop
      vertex -6.5 55 2
      vertex -4.64331 58.3773 2
      vertex -5.0497 58.0821 2
    endloop
  endfacet
  facet normal 0 0 1
    outer loop
      vertex -3.73607 -58.8042 2
      vertex -6.5 -55 2
      vertex -4.20312 -58.6193 2
    endloop
  endfacet
  facet normal 0 0 1
    outer loop
      vertex -6.5 55 2
      vertex -5.0497 58.0821 2
      vertex -5.41587 57.7382 2
    endloop
  endfacet
  facet normal 0 0 1
    outer loop
      vertex -4.20312 -58.6193 2
      vertex -6.5 -55 2
      vertex -4.64331 -58.3773 2
    endloop
  endfacet
  facet normal 0 0 1
    outer loop
      vertex -6.5 55 2
      vertex -5.41587 57.7382 2
      vertex -5.73607 57.3511 2
    endloop
  endfacet
  facet normal 0 0 1
    outer loop
      vertex -4.64331 -58.3773 2
      vertex -6.5 -55 2
      vertex -5.0497 -58.0821 2
    endloop
  endfacet
  facet normal 0 0 1
    outer loop
      vertex -6.5 55 2
      vertex -5.73607 57.3511 2
      vertex -6.00523 56.927 2
    endloop
  endfacet
  facet normal 0 0 1
    outer loop
      vertex -5.0497 -58.0821 2
      vertex -6.5 -55 2
      vertex -5.41587 -57.7382 2
    endloop
  endfacet
  facet normal 0 0 1
    outer loop
      vertex -6.5 55 2
      vertex -6.00523 56.927 2
      vertex -6.21911 56.4725 2
    endloop
  endfacet
  facet normal 0 0 1
    outer loop
      vertex -5.41587 -57.7382 2
      vertex -6.5 -55 2
      vertex -5.73607 -57.3511 2
    endloop
  endfacet
  facet normal 0 0 1
    outer loop
      vertex -6.5 55 2
      vertex -6.21911 56.4725 2
      vertex -6.37433 55.9948 2
    endloop
  endfacet
  facet normal 0 0 1
    outer loop
      vertex -5.73607 -57.3511 2
      vertex -6.5 -55 2
      vertex -6.00523 -56.927 2
    endloop
  endfacet
  facet normal 0 0 1
    outer loop
      vertex -6.5 55 2
      vertex -6.37433 55.9948 2
      vertex -6.46846 55.5013 2
    endloop
  endfacet
  facet normal 0 0 1
    outer loop
      vertex -6.00523 -56.927 2
      vertex -6.5 -55 2
      vertex -6.21911 -56.4725 2
    endloop
  endfacet
  facet normal 0 0 1
    outer loop
      vertex -6.21911 -56.4725 2
      vertex -6.5 -55 2
      vertex -6.37433 -55.9948 2
    endloop
  endfacet
  facet normal 0 0 1
    outer loop
      vertex -6.37433 -55.9948 2
      vertex -6.5 -55 2
      vertex -6.46846 -55.5013 2
    endloop
  endfacet
  facet normal 0.368093 -0.929789 0
    outer loop
      vertex -4.20312 58.6193 2
      vertex -3.73607 58.8042 18
      vertex -4.20312 58.6193 18
    endloop
  endfacet
  facet normal 0.368093 -0.929789 0
    outer loop
      vertex -3.73607 58.8042 18
      vertex -4.20312 58.6193 2
      vertex -3.73607 58.8042 2
    endloop
  endfacet
  facet normal -1 0 0
    outer loop
      vertex 6.5 -55 2
      vertex 6.5 55 18
      vertex 6.5 55 2
    endloop
  endfacet
  facet normal -1 -0 0
    outer loop
      vertex 6.5 55 18
      vertex 6.5 -55 2
      vertex 6.5 -55 18
    endloop
  endfacet
  facet normal 0 -1 0
    outer loop
      vertex -2.75116 58.9921 2
      vertex 2.75116 58.9921 18
      vertex -2.75116 58.9921 18
    endloop
  endfacet
  facet normal 0 -1 -0
    outer loop
      vertex 2.75116 58.9921 18
      vertex -2.75116 58.9921 2
      vertex 2.75116 58.9921 2
    endloop
  endfacet
  facet normal 0.248648 -0.968594 0
    outer loop
      vertex -3.73607 58.8042 2
      vertex -3.24953 58.9291 18
      vertex -3.73607 58.8042 18
    endloop
  endfacet
  facet normal 0.248648 -0.968594 0
    outer loop
      vertex -3.24953 58.9291 18
      vertex -3.73607 58.8042 2
      vertex -3.24953 58.9291 2
    endloop
  endfacet
  facet normal 0.998027 0.0627923 0
    outer loop
      vertex -6.46846 -55.5013 18
      vertex -6.5 -55 2
      vertex -6.5 -55 18
    endloop
  endfacet
  facet normal 0.998027 0.0627923 0
    outer loop
      vertex -6.5 -55 2
      vertex -6.46846 -55.5013 18
      vertex -6.46846 -55.5013 2
    endloop
  endfacet
  facet normal 0.770549 -0.63738 0
    outer loop
      vertex -5.73607 57.3511 18
      vertex -5.41587 57.7382 2
      vertex -5.41587 57.7382 18
    endloop
  endfacet
  facet normal 0.770549 -0.63738 0
    outer loop
      vertex -5.41587 57.7382 2
      vertex -5.73607 57.3511 18
      vertex -5.73607 57.3511 2
    endloop
  endfacet
  facet normal 0.125414 -0.992104 0
    outer loop
      vertex -3.24953 58.9291 2
      vertex -2.75116 58.9921 18
      vertex -3.24953 58.9291 18
    endloop
  endfacet
  facet normal 0.125414 -0.992104 0
    outer loop
      vertex -2.75116 58.9921 18
      vertex -3.24953 58.9291 2
      vertex -2.75116 58.9921 2
    endloop
  endfacet
  facet normal 0.481759 -0.876304 0
    outer loop
      vertex -4.64331 58.3773 2
      vertex -4.20312 58.6193 18
      vertex -4.64331 58.3773 18
    endloop
  endfacet
  facet normal 0.481759 -0.876304 0
    outer loop
      vertex -4.20312 58.6193 18
      vertex -4.64331 58.3773 2
      vertex -4.20312 58.6193 2
    endloop
  endfacet
  facet normal -0.368093 -0.929789 0
    outer loop
      vertex 3.73607 58.8042 2
      vertex 4.20312 58.6193 18
      vertex 3.73607 58.8042 18
    endloop
  endfacet
  facet normal -0.368093 -0.929789 -0
    outer loop
      vertex 4.20312 58.6193 18
      vertex 3.73607 58.8042 2
      vertex 4.20312 58.6193 2
    endloop
  endfacet
  facet normal -0.481759 -0.876304 0
    outer loop
      vertex 4.20312 58.6193 2
      vertex 4.64331 58.3773 18
      vertex 4.20312 58.6193 18
    endloop
  endfacet
  facet normal -0.481759 -0.876304 -0
    outer loop
      vertex 4.64331 58.3773 18
      vertex 4.20312 58.6193 2
      vertex 4.64331 58.3773 2
    endloop
  endfacet
  facet normal -0.770549 -0.63738 0
    outer loop
      vertex 5.73607 57.3511 2
      vertex 5.41587 57.7382 18
      vertex 5.41587 57.7382 2
    endloop
  endfacet
  facet normal -0.770549 -0.63738 0
    outer loop
      vertex 5.41587 57.7382 18
      vertex 5.73607 57.3511 2
      vertex 5.73607 57.3511 18
    endloop
  endfacet
  facet normal -0.904821 0.425793 0
    outer loop
      vertex 6.00523 -56.927 2
      vertex 6.21911 -56.4725 18
      vertex 6.21911 -56.4725 2
    endloop
  endfacet
  facet normal -0.904821 0.425793 0
    outer loop
      vertex 6.21911 -56.4725 18
      vertex 6.00523 -56.927 2
      vertex 6.00523 -56.927 18
    endloop
  endfacet
  facet normal -0.998027 0.0627923 0
    outer loop
      vertex 6.46846 -55.5013 2
      vertex 6.5 -55 18
      vertex 6.5 -55 2
    endloop
  endfacet
  facet normal -0.998027 0.0627923 0
    outer loop
      vertex 6.5 -55 18
      vertex 6.46846 -55.5013 2
      vertex 6.46846 -55.5013 18
    endloop
  endfacet
  facet normal 1 -0 0
    outer loop
      vertex -6.5 -55 18
      vertex -6.5 55 2
      vertex -6.5 55 18
    endloop
  endfacet
  facet normal 1 0 0
    outer loop
      vertex -6.5 55 2
      vertex -6.5 -55 18
      vertex -6.5 -55 2
    endloop
  endfacet
  facet normal 0.998027 -0.0627923 0
    outer loop
      vertex -6.5 55 18
      vertex -6.46846 55.5013 2
      vertex -6.46846 55.5013 18
    endloop
  endfacet
  facet normal 0.998027 -0.0627923 0
    outer loop
      vertex -6.46846 55.5013 2
      vertex -6.5 55 18
      vertex -6.5 55 2
    endloop
  endfacet
  facet normal 0.982291 -0.187362 0
    outer loop
      vertex -6.46846 55.5013 18
      vertex -6.37433 55.9948 2
      vertex -6.37433 55.9948 18
    endloop
  endfacet
  facet normal 0.982291 -0.187362 0
    outer loop
      vertex -6.37433 55.9948 2
      vertex -6.46846 55.5013 18
      vertex -6.46846 55.5013 2
    endloop
  endfacet
  facet normal -0.248648 -0.968594 0
    outer loop
      vertex 3.24953 58.9291 2
      vertex 3.73607 58.8042 18
      vertex 3.24953 58.9291 18
    endloop
  endfacet
  facet normal -0.248648 -0.968594 -0
    outer loop
      vertex 3.73607 58.8042 18
      vertex 3.24953 58.9291 2
      vertex 3.73607 58.8042 2
    endloop
  endfacet
  facet normal -0.951053 -0.309028 0
    outer loop
      vertex 6.37433 55.9948 2
      vertex 6.21911 56.4725 18
      vertex 6.21911 56.4725 2
    endloop
  endfacet
  facet normal -0.951053 -0.309028 0
    outer loop
      vertex 6.21911 56.4725 18
      vertex 6.37433 55.9948 2
      vertex 6.37433 55.9948 18
    endloop
  endfacet
  facet normal -0.844312 -0.535852 0
    outer loop
      vertex 6.00523 56.927 2
      vertex 5.73607 57.3511 18
      vertex 5.73607 57.3511 2
    endloop
  endfacet
  facet normal -0.844312 -0.535852 0
    outer loop
      vertex 5.73607 57.3511 18
      vertex 6.00523 56.927 2
      vertex 6.00523 56.927 18
    endloop
  endfacet
  facet normal 0 1 -0
    outer loop
      vertex 2.75116 -58.9921 2
      vertex -2.75116 -58.9921 18
      vertex 2.75116 -58.9921 18
    endloop
  endfacet
  facet normal 0 1 0
    outer loop
      vertex -2.75116 -58.9921 18
      vertex 2.75116 -58.9921 2
      vertex -2.75116 -58.9921 2
    endloop
  endfacet
  facet normal 0.587708 -0.809073 0
    outer loop
      vertex -5.0497 58.0821 2
      vertex -4.64331 58.3773 18
      vertex -5.0497 58.0821 18
    endloop
  endfacet
  facet normal 0.587708 -0.809073 0
    outer loop
      vertex -4.64331 58.3773 18
      vertex -5.0497 58.0821 2
      vertex -4.64331 58.3773 2
    endloop
  endfacet
  facet normal 0.684593 -0.728925 0
    outer loop
      vertex -5.41587 57.7382 2
      vertex -5.0497 58.0821 18
      vertex -5.41587 57.7382 18
    endloop
  endfacet
  facet normal 0.684593 -0.728925 0
    outer loop
      vertex -5.0497 58.0821 18
      vertex -5.41587 57.7382 2
      vertex -5.0497 58.0821 2
    endloop
  endfacet
  facet normal -0.982291 -0.187362 0
    outer loop
      vertex 6.46846 55.5013 2
      vertex 6.37433 55.9948 18
      vertex 6.37433 55.9948 2
    endloop
  endfacet
  facet normal -0.982291 -0.187362 0
    outer loop
      vertex 6.37433 55.9948 18
      vertex 6.46846 55.5013 2
      vertex 6.46846 55.5013 18
    endloop
  endfacet
  facet normal -0.904821 -0.425793 0
    outer loop
      vertex 6.21911 56.4725 2
      vertex 6.00523 56.927 18
      vertex 6.00523 56.927 2
    endloop
  endfacet
  facet normal -0.904821 -0.425793 0
    outer loop
      vertex 6.00523 56.927 18
      vertex 6.21911 56.4725 2
      vertex 6.21911 56.4725 18
    endloop
  endfacet
  facet normal 0.248648 0.968594 -0
    outer loop
      vertex -3.24953 -58.9291 2
      vertex -3.73607 -58.8042 18
      vertex -3.24953 -58.9291 18
    endloop
  endfacet
  facet normal 0.248648 0.968594 0
    outer loop
      vertex -3.73607 -58.8042 18
      vertex -3.24953 -58.9291 2
      vertex -3.73607 -58.8042 2
    endloop
  endfacet
  facet normal 0.904821 0.425793 0
    outer loop
      vertex -6.00523 -56.927 18
      vertex -6.21911 -56.4725 2
      vertex -6.21911 -56.4725 18
    endloop
  endfacet
  facet normal 0.904821 0.425793 0
    outer loop
      vertex -6.21911 -56.4725 2
      vertex -6.00523 -56.927 18
      vertex -6.00523 -56.927 2
    endloop
  endfacet
  facet normal 0.684593 0.728925 -0
    outer loop
      vertex -5.0497 -58.0821 2
      vertex -5.41587 -57.7382 18
      vertex -5.0497 -58.0821 18
    endloop
  endfacet
  facet normal 0.684593 0.728925 0
    outer loop
      vertex -5.41587 -57.7382 18
      vertex -5.0497 -58.0821 2
      vertex -5.41587 -57.7382 2
    endloop
  endfacet
  facet normal 0.951053 -0.309028 0
    outer loop
      vertex -6.37433 55.9948 18
      vertex -6.21911 56.4725 2
      vertex -6.21911 56.4725 18
    endloop
  endfacet
  facet normal 0.951053 -0.309028 0
    outer loop
      vertex -6.21911 56.4725 2
      vertex -6.37433 55.9948 18
      vertex -6.37433 55.9948 2
    endloop
  endfacet
  facet normal 0.904821 -0.425793 0
    outer loop
      vertex -6.21911 56.4725 18
      vertex -6.00523 56.927 2
      vertex -6.00523 56.927 18
    endloop
  endfacet
  facet normal 0.904821 -0.425793 0
    outer loop
      vertex -6.00523 56.927 2
      vertex -6.21911 56.4725 18
      vertex -6.21911 56.4725 2
    endloop
  endfacet
  facet normal 0.844312 -0.535852 0
    outer loop
      vertex -6.00523 56.927 18
      vertex -5.73607 57.3511 2
      vertex -5.73607 57.3511 18
    endloop
  endfacet
  facet normal 0.844312 -0.535852 0
    outer loop
      vertex -5.73607 57.3511 2
      vertex -6.00523 56.927 18
      vertex -6.00523 56.927 2
    endloop
  endfacet
  facet normal -0.587708 -0.809073 0
    outer loop
      vertex 4.64331 58.3773 2
      vertex 5.0497 58.0821 18
      vertex 4.64331 58.3773 18
    endloop
  endfacet
  facet normal -0.587708 -0.809073 -0
    outer loop
      vertex 5.0497 58.0821 18
      vertex 4.64331 58.3773 2
      vertex 5.0497 58.0821 2
    endloop
  endfacet
  facet normal -0.684593 -0.728925 0
    outer loop
      vertex 5.0497 58.0821 2
      vertex 5.41587 57.7382 18
      vertex 5.0497 58.0821 18
    endloop
  endfacet
  facet normal -0.684593 -0.728925 -0
    outer loop
      vertex 5.41587 57.7382 18
      vertex 5.0497 58.0821 2
      vertex 5.41587 57.7382 2
    endloop
  endfacet
  facet normal -0.982291 0.187362 0
    outer loop
      vertex 6.37433 -55.9948 2
      vertex 6.46846 -55.5013 18
      vertex 6.46846 -55.5013 2
    endloop
  endfacet
  facet normal -0.982291 0.187362 0
    outer loop
      vertex 6.46846 -55.5013 18
      vertex 6.37433 -55.9948 2
      vertex 6.37433 -55.9948 18
    endloop
  endfacet
  facet normal -0.844312 0.535852 0
    outer loop
      vertex 5.73607 -57.3511 2
      vertex 6.00523 -56.927 18
      vertex 6.00523 -56.927 2
    endloop
  endfacet
  facet normal -0.844312 0.535852 0
    outer loop
      vertex 6.00523 -56.927 18
      vertex 5.73607 -57.3511 2
      vertex 5.73607 -57.3511 18
    endloop
  endfacet
  facet normal -0.125414 0.992104 0
    outer loop
      vertex 3.24953 -58.9291 2
      vertex 2.75116 -58.9921 18
      vertex 3.24953 -58.9291 18
    endloop
  endfacet
  facet normal -0.125414 0.992104 0
    outer loop
      vertex 2.75116 -58.9921 18
      vertex 3.24953 -58.9291 2
      vertex 2.75116 -58.9921 2
    endloop
  endfacet
  facet normal -0.248648 0.968594 0
    outer loop
      vertex 3.73607 -58.8042 2
      vertex 3.24953 -58.9291 18
      vertex 3.73607 -58.8042 18
    endloop
  endfacet
  facet normal -0.248648 0.968594 0
    outer loop
      vertex 3.24953 -58.9291 18
      vertex 3.73607 -58.8042 2
      vertex 3.24953 -58.9291 2
    endloop
  endfacet
  facet normal 0.125414 0.992104 -0
    outer loop
      vertex -2.75116 -58.9921 2
      vertex -3.24953 -58.9291 18
      vertex -2.75116 -58.9921 18
    endloop
  endfacet
  facet normal 0.125414 0.992104 0
    outer loop
      vertex -3.24953 -58.9291 18
      vertex -2.75116 -58.9921 2
      vertex -3.24953 -58.9291 2
    endloop
  endfacet
  facet normal 0.982291 0.187362 0
    outer loop
      vertex -6.37433 -55.9948 18
      vertex -6.46846 -55.5013 2
      vertex -6.46846 -55.5013 18
    endloop
  endfacet
  facet normal 0.982291 0.187362 0
    outer loop
      vertex -6.46846 -55.5013 2
      vertex -6.37433 -55.9948 18
      vertex -6.37433 -55.9948 2
    endloop
  endfacet
  facet normal 0.951053 0.309028 0
    outer loop
      vertex -6.21911 -56.4725 18
      vertex -6.37433 -55.9948 2
      vertex -6.37433 -55.9948 18
    endloop
  endfacet
  facet normal 0.951053 0.309028 0
    outer loop
      vertex -6.37433 -55.9948 2
      vertex -6.21911 -56.4725 18
      vertex -6.21911 -56.4725 2
    endloop
  endfacet
  facet normal -0.368093 0.929789 0
    outer loop
      vertex 4.20312 -58.6193 2
      vertex 3.73607 -58.8042 18
      vertex 4.20312 -58.6193 18
    endloop
  endfacet
  facet normal -0.368093 0.929789 0
    outer loop
      vertex 3.73607 -58.8042 18
      vertex 4.20312 -58.6193 2
      vertex 3.73607 -58.8042 2
    endloop
  endfacet
  facet normal -0.770549 0.63738 0
    outer loop
      vertex 5.41587 -57.7382 2
      vertex 5.73607 -57.3511 18
      vertex 5.73607 -57.3511 2
    endloop
  endfacet
  facet normal -0.770549 0.63738 0
    outer loop
      vertex 5.73607 -57.3511 18
      vertex 5.41587 -57.7382 2
      vertex 5.41587 -57.7382 18
    endloop
  endfacet
  facet normal 0.770549 0.63738 0
    outer loop
      vertex -5.41587 -57.7382 18
      vertex -5.73607 -57.3511 2
      vertex -5.73607 -57.3511 18
    endloop
  endfacet
  facet normal 0.770549 0.63738 0
    outer loop
      vertex -5.73607 -57.3511 2
      vertex -5.41587 -57.7382 18
      vertex -5.41587 -57.7382 2
    endloop
  endfacet
  facet normal 0.844312 0.535852 0
    outer loop
      vertex -5.73607 -57.3511 18
      vertex -6.00523 -56.927 2
      vertex -6.00523 -56.927 18
    endloop
  endfacet
  facet normal 0.844312 0.535852 0
    outer loop
      vertex -6.00523 -56.927 2
      vertex -5.73607 -57.3511 18
      vertex -5.73607 -57.3511 2
    endloop
  endfacet
  facet normal 0.587708 0.809073 -0
    outer loop
      vertex -4.64331 -58.3773 2
      vertex -5.0497 -58.0821 18
      vertex -4.64331 -58.3773 18
    endloop
  endfacet
  facet normal 0.587708 0.809073 0
    outer loop
      vertex -5.0497 -58.0821 18
      vertex -4.64331 -58.3773 2
      vertex -5.0497 -58.0821 2
    endloop
  endfacet
  facet normal 0.481759 0.876304 -0
    outer loop
      vertex -4.20312 -58.6193 2
      vertex -4.64331 -58.3773 18
      vertex -4.20312 -58.6193 18
    endloop
  endfacet
  facet normal 0.481759 0.876304 0
    outer loop
      vertex -4.64331 -58.3773 18
      vertex -4.20312 -58.6193 2
      vertex -4.64331 -58.3773 2
    endloop
  endfacet
  facet normal -0.481759 0.876304 0
    outer loop
      vertex 4.64331 -58.3773 2
      vertex 4.20312 -58.6193 18
      vertex 4.64331 -58.3773 18
    endloop
  endfacet
  facet normal -0.481759 0.876304 0
    outer loop
      vertex 4.20312 -58.6193 18
      vertex 4.64331 -58.3773 2
      vertex 4.20312 -58.6193 2
    endloop
  endfacet
  facet normal -0.587708 0.809073 0
    outer loop
      vertex 5.0497 -58.0821 2
      vertex 4.64331 -58.3773 18
      vertex 5.0497 -58.0821 18
    endloop
  endfacet
  facet normal -0.587708 0.809073 0
    outer loop
      vertex 4.64331 -58.3773 18
      vertex 5.0497 -58.0821 2
      vertex 4.64331 -58.3773 2
    endloop
  endfacet
  facet normal 0.368093 0.929789 -0
    outer loop
      vertex -3.73607 -58.8042 2
      vertex -4.20312 -58.6193 18
      vertex -3.73607 -58.8042 18
    endloop
  endfacet
  facet normal 0.368093 0.929789 0
    outer loop
      vertex -4.20312 -58.6193 18
      vertex -3.73607 -58.8042 2
      vertex -4.20312 -58.6193 2
    endloop
  endfacet
  facet normal -0.684593 0.728925 0
    outer loop
      vertex 5.41587 -57.7382 2
      vertex 5.0497 -58.0821 18
      vertex 5.41587 -57.7382 18
    endloop
  endfacet
  facet normal -0.684593 0.728925 0
    outer loop
      vertex 5.0497 -58.0821 18
      vertex 5.41587 -57.7382 2
      vertex 5.0497 -58.0821 2
    endloop
  endfacet
endsolid OpenSCAD_Model
