solid OpenSCAD_Model
  facet normal -1 0 0
    outer loop
      vertex -30 -10 0
      vertex -30 10 12
      vertex -30 10 0
    endloop
  endfacet
  facet normal -1 -0 0
    outer loop
      vertex -30 10 12
      vertex -30 -10 0
      vertex -30 -10 12
    endloop
  endfacet
  facet normal -0.99803 -0.0627451 0
    outer loop
      vertex -29.9606 -10.6267 0
      vertex -30 -10 12
      vertex -30 -10 0
    endloop
  endfacet
  facet normal -0.99803 -0.0627451 0
    outer loop
      vertex -30 -10 12
      vertex -29.9606 -10.6267 0
      vertex -29.9606 -10.6267 12
    endloop
  endfacet
  facet normal -0.99803 0.0627451 0
    outer loop
      vertex -30 10 0
      vertex -29.9606 10.6267 12
      vertex -29.9606 10.6267 0
    endloop
  endfacet
  facet normal -0.99803 0.0627451 0
    outer loop
      vertex -29.9606 10.6267 12
      vertex -30 10 0
      vertex -30 10 12
    endloop
  endfacet
  facet normal 0.770462 0.637486 0
    outer loop
      vertex 29.0451 12.9389 12
      vertex 28.6448 13.4227 0
      vertex 28.6448 13.4227 12
    endloop
  endfacet
  facet normal 0.770462 0.637486 0
    outer loop
      vertex 28.6448 13.4227 0
      vertex 29.0451 12.9389 12
      vertex 29.0451 12.9389 0
    endloop
  endfacet
  facet normal 0 0 1
    outer loop
      vertex 27 10 12
      vertex 30 10 12
      vertex 29.9606 10.6267 12
    endloop
  endfacet
  facet normal 0 0 1
    outer loop
      vertex 30 10 12
      vertex 27 10 12
      vertex 30 -10 12
    endloop
  endfacet
  facet normal 0 0 1
    outer loop
      vertex 26.9842 10.2507 12
      vertex 29.9606 10.6267 12
      vertex 29.8429 11.2434 12
    endloop
  endfacet
  facet normal 0 0 1
    outer loop
      vertex 27 -10 12
      vertex 30 -10 12
      vertex 27 10 12
    endloop
  endfacet
  facet normal 0 0 1
    outer loop
      vertex 26.9372 10.4974 12
      vertex 29.8429 11.2434 12
      vertex 29.6489 11.8406 12
    endloop
  endfacet
  facet normal 0 0 1
    outer loop
      vertex 30 -10 12
      vertex 27 -10 12
      vertex 29.9606 -10.6267 12
    endloop
  endfacet
  facet normal 0 0 1
    outer loop
      vertex 26.8596 10.7362 12
      vertex 29.6489 11.8406 12
      vertex 29.3815 12.4088 12
    endloop
  endfacet
  facet normal -0 0 1
    outer loop
      vertex 26.9842 -10.2507 12
      vertex 29.9606 -10.6267 12
      vertex 27 -10 12
    endloop
  endfacet
  facet normal 0 0 1
    outer loop
      vertex 26.7526 10.9635 12
      vertex 29.3815 12.4088 12
      vertex 29.0451 12.9389 12
    endloop
  endfacet
  facet normal 0 0 1
    outer loop
      vertex 29.9606 -10.6267 12
      vertex 26.9842 -10.2507 12
      vertex 29.8429 -11.2434 12
    endloop
  endfacet
  facet normal 0 0 1
    outer loop
      vertex 26.618 11.1756 12
      vertex 29.0451 12.9389 12
      vertex 28.6448 13.4227 12
    endloop
  endfacet
  facet normal -0 0 1
    outer loop
      vertex 26.9372 -10.4974 12
      vertex 29.8429 -11.2434 12
      vertex 26.9842 -10.2507 12
    endloop
  endfacet
  facet normal 0 0 1
    outer loop
      vertex 26.4579 11.3691 12
      vertex 28.6448 13.4227 12
      vertex 28.1871 13.8526 12
    endloop
  endfacet
  facet normal 0 0 1
    outer loop
      vertex 29.8429 -11.2434 12
      vertex 26.9372 -10.4974 12
      vertex 29.6489 -11.8406 12
    endloop
  endfacet
  facet normal 0 0 1
    outer loop
      vertex 26.2748 11.541 12
      vertex 28.1871 13.8526 12
      vertex 27.6791 14.2216 12
    endloop
  endfacet
  facet normal -0 0 1
    outer loop
      vertex 26.8596 -10.7362 12
      vertex 29.6489 -11.8406 12
      vertex 26.9372 -10.4974 12
    endloop
  endfacet
  facet normal 0 0 1
    outer loop
      vertex 26.0717 11.6887 12
      vertex 27.6791 14.2216 12
      vertex 27.1289 14.5241 12
    endloop
  endfacet
  facet normal 0 0 1
    outer loop
      vertex 29.6489 -11.8406 12
      vertex 26.8596 -10.7362 12
      vertex 29.3815 -12.4088 12
    endloop
  endfacet
  facet normal -0 0 1
    outer loop
      vertex 26.7526 -10.9635 12
      vertex 29.3815 -12.4088 12
      vertex 26.8596 -10.7362 12
    endloop
  endfacet
  facet normal 0 0 1
    outer loop
      vertex 29.9606 10.6267 12
      vertex 26.9842 10.2507 12
      vertex 27 10 12
    endloop
  endfacet
  facet normal 0 0 1
    outer loop
      vertex 29.8429 11.2434 12
      vertex 26.9372 10.4974 12
      vertex 26.9842 10.2507 12
    endloop
  endfacet
  facet normal 0 0 1
    outer loop
      vertex 29.6489 11.8406 12
      vertex 26.8596 10.7362 12
      vertex 26.9372 10.4974 12
    endloop
  endfacet
  facet normal 0 0 1
    outer loop
      vertex 29.3815 12.4088 12
      vertex 26.7526 10.9635 12
      vertex 26.8596 10.7362 12
    endloop
  endfacet
  facet normal 0 0 1
    outer loop
      vertex 29.0451 12.9389 12
      vertex 26.618 11.1756 12
      vertex 26.7526 10.9635 12
    endloop
  endfacet
  facet normal 0 0 1
    outer loop
      vertex 25.8516 11.8097 12
      vertex 27.1289 14.5241 12
      vertex 26.5451 14.7553 12
    endloop
  endfacet
  facet normal 0 0 1
    outer loop
      vertex 28.6448 13.4227 12
      vertex 26.4579 11.3691 12
      vertex 26.618 11.1756 12
    endloop
  endfacet
  facet normal 0 0 1
    outer loop
      vertex 28.1871 13.8526 12
      vertex 26.2748 11.541 12
      vertex 26.4579 11.3691 12
    endloop
  endfacet
  facet normal 0 0 1
    outer loop
      vertex 27.6791 14.2216 12
      vertex 26.0717 11.6887 12
      vertex 26.2748 11.541 12
    endloop
  endfacet
  facet normal 0 0 1
    outer loop
      vertex 25.618 11.9021 12
      vertex 26.5451 14.7553 12
      vertex 25.9369 14.9114 12
    endloop
  endfacet
  facet normal 0 0 1
    outer loop
      vertex 27.1289 14.5241 12
      vertex 25.8516 11.8097 12
      vertex 26.0717 11.6887 12
    endloop
  endfacet
  facet normal 0 0 1
    outer loop
      vertex 26.5451 14.7553 12
      vertex 25.618 11.9021 12
      vertex 25.8516 11.8097 12
    endloop
  endfacet
  facet normal 0 0 1
    outer loop
      vertex 25.9369 14.9114 12
      vertex 25.3748 11.9646 12
      vertex 25.618 11.9021 12
    endloop
  endfacet
  facet normal 0 0 1
    outer loop
      vertex 25.314 14.9901 12
      vertex 25.3748 11.9646 12
      vertex 25.9369 14.9114 12
    endloop
  endfacet
  facet normal 0 0 1
    outer loop
      vertex 25.314 14.9901 12
      vertex 25.1256 11.9961 12
      vertex 25.3748 11.9646 12
    endloop
  endfacet
  facet normal 0 0 1
    outer loop
      vertex 25.314 14.9901 12
      vertex -25.1256 11.9961 12
      vertex 25.1256 11.9961 12
    endloop
  endfacet
  facet normal -0 0 1
    outer loop
      vertex -25.314 14.9901 12
      vertex -25.1256 11.9961 12
      vertex 25.314 14.9901 12
    endloop
  endfacet
  facet normal 0 0 1
    outer loop
      vertex -25.314 14.9901 12
      vertex -25.3748 11.9646 12
      vertex -25.1256 11.9961 12
    endloop
  endfacet
  facet normal -0 0 1
    outer loop
      vertex -25.9369 14.9114 12
      vertex -25.3748 11.9646 12
      vertex -25.314 14.9901 12
    endloop
  endfacet
  facet normal 0 0 1
    outer loop
      vertex -25.3748 11.9646 12
      vertex -25.9369 14.9114 12
      vertex -25.618 11.9021 12
    endloop
  endfacet
  facet normal -0 0 1
    outer loop
      vertex -26.5451 14.7553 12
      vertex -25.618 11.9021 12
      vertex -25.9369 14.9114 12
    endloop
  endfacet
  facet normal 0 0 1
    outer loop
      vertex -25.618 11.9021 12
      vertex -26.5451 14.7553 12
      vertex -25.8516 11.8097 12
    endloop
  endfacet
  facet normal -0 0 1
    outer loop
      vertex -27.1289 14.5241 12
      vertex -25.8516 11.8097 12
      vertex -26.5451 14.7553 12
    endloop
  endfacet
  facet normal 0 0 1
    outer loop
      vertex -25.8516 11.8097 12
      vertex -27.1289 14.5241 12
      vertex -26.0717 11.6887 12
    endloop
  endfacet
  facet normal -0 0 1
    outer loop
      vertex -27.6791 14.2216 12
      vertex -26.0717 11.6887 12
      vertex -27.1289 14.5241 12
    endloop
  endfacet
  facet normal 0 0 1
    outer loop
      vertex -26.0717 11.6887 12
      vertex -27.6791 14.2216 12
      vertex -26.2748 11.541 12
    endloop
  endfacet
  facet normal -0 0 1
    outer loop
      vertex -28.1871 13.8526 12
      vertex -26.2748 11.541 12
      vertex -27.6791 14.2216 12
    endloop
  endfacet
  facet normal 0 0 1
    outer loop
      vertex -26.2748 11.541 12
      vertex -28.1871 13.8526 12
      vertex -26.4579 11.3691 12
    endloop
  endfacet
  facet normal -0 0 1
    outer loop
      vertex -28.6448 13.4227 12
      vertex -26.4579 11.3691 12
      vertex -28.1871 13.8526 12
    endloop
  endfacet
  facet normal 0 0 1
    outer loop
      vertex -26.4579 11.3691 12
      vertex -28.6448 13.4227 12
      vertex -26.618 11.1756 12
    endloop
  endfacet
  facet normal -0 0 1
    outer loop
      vertex -29.3815 12.4088 12
      vertex -26.7526 10.9635 12
      vertex -29.0451 12.9389 12
    endloop
  endfacet
  facet normal 0 0 1
    outer loop
      vertex -26.618 11.1756 12
      vertex -29.0451 12.9389 12
      vertex -26.7526 10.9635 12
    endloop
  endfacet
  facet normal -0 0 1
    outer loop
      vertex -29.0451 12.9389 12
      vertex -26.618 11.1756 12
      vertex -28.6448 13.4227 12
    endloop
  endfacet
  facet normal 0 0 1
    outer loop
      vertex 29.3815 -12.4088 12
      vertex 26.7526 -10.9635 12
      vertex 29.0451 -12.9389 12
    endloop
  endfacet
  facet normal -0 0 1
    outer loop
      vertex 26.618 -11.1756 12
      vertex 29.0451 -12.9389 12
      vertex 26.7526 -10.9635 12
    endloop
  endfacet
  facet normal 0 0 1
    outer loop
      vertex 29.0451 -12.9389 12
      vertex 26.618 -11.1756 12
      vertex 28.6448 -13.4227 12
    endloop
  endfacet
  facet normal -0 0 1
    outer loop
      vertex 26.4579 -11.3691 12
      vertex 28.6448 -13.4227 12
      vertex 26.618 -11.1756 12
    endloop
  endfacet
  facet normal 0 0 1
    outer loop
      vertex 28.6448 -13.4227 12
      vertex 26.4579 -11.3691 12
      vertex 28.1871 -13.8526 12
    endloop
  endfacet
  facet normal -0 0 1
    outer loop
      vertex 26.2748 -11.541 12
      vertex 28.1871 -13.8526 12
      vertex 26.4579 -11.3691 12
    endloop
  endfacet
  facet normal 0 0 1
    outer loop
      vertex 28.1871 -13.8526 12
      vertex 26.2748 -11.541 12
      vertex 27.6791 -14.2216 12
    endloop
  endfacet
  facet normal -0 0 1
    outer loop
      vertex 26.0717 -11.6887 12
      vertex 27.6791 -14.2216 12
      vertex 26.2748 -11.541 12
    endloop
  endfacet
  facet normal 0 0 1
    outer loop
      vertex 27.6791 -14.2216 12
      vertex 26.0717 -11.6887 12
      vertex 27.1289 -14.5241 12
    endloop
  endfacet
  facet normal -0 0 1
    outer loop
      vertex 25.8516 -11.8097 12
      vertex 27.1289 -14.5241 12
      vertex 26.0717 -11.6887 12
    endloop
  endfacet
  facet normal 0 0 1
    outer loop
      vertex 27.1289 -14.5241 12
      vertex 25.8516 -11.8097 12
      vertex 26.5451 -14.7553 12
    endloop
  endfacet
  facet normal -0 0 1
    outer loop
      vertex 25.618 -11.9021 12
      vertex 26.5451 -14.7553 12
      vertex 25.8516 -11.8097 12
    endloop
  endfacet
  facet normal 0 0 1
    outer loop
      vertex 26.5451 -14.7553 12
      vertex 25.618 -11.9021 12
      vertex 25.9369 -14.9114 12
    endloop
  endfacet
  facet normal -0 0 1
    outer loop
      vertex 25.3748 -11.9646 12
      vertex 25.9369 -14.9114 12
      vertex 25.618 -11.9021 12
    endloop
  endfacet
  facet normal 0 0 1
    outer loop
      vertex 25.3748 -11.9646 12
      vertex 25.314 -14.9901 12
      vertex 25.9369 -14.9114 12
    endloop
  endfacet
  facet normal -0 0 1
    outer loop
      vertex 25.1256 -11.9961 12
      vertex 25.314 -14.9901 12
      vertex 25.3748 -11.9646 12
    endloop
  endfacet
  facet normal -0 0 1
    outer loop
      vertex -25.1256 -11.9961 12
      vertex 25.314 -14.9901 12
      vertex 25.1256 -11.9961 12
    endloop
  endfacet
  facet normal 0 0 1
    outer loop
      vertex -25.1256 -11.9961 12
      vertex -25.314 -14.9901 12
      vertex 25.314 -14.9901 12
    endloop
  endfacet
  facet normal 0 0 1
    outer loop
      vertex -25.3748 -11.9646 12
      vertex -25.314 -14.9901 12
      vertex -25.1256 -11.9961 12
    endloop
  endfacet
  facet normal 0 0 1
    outer loop
      vertex -25.9369 -14.9114 12
      vertex -25.3748 -11.9646 12
      vertex -25.618 -11.9021 12
    endloop
  endfacet
  facet normal 0 0 1
    outer loop
      vertex -26.5451 -14.7553 12
      vertex -25.618 -11.9021 12
      vertex -25.8516 -11.8097 12
    endloop
  endfacet
  facet normal 0 0 1
    outer loop
      vertex -25.3748 -11.9646 12
      vertex -25.9369 -14.9114 12
      vertex -25.314 -14.9901 12
    endloop
  endfacet
  facet normal 0 0 1
    outer loop
      vertex -27.1289 -14.5241 12
      vertex -25.8516 -11.8097 12
      vertex -26.0717 -11.6887 12
    endloop
  endfacet
  facet normal 0 0 1
    outer loop
      vertex -27.6791 -14.2216 12
      vertex -26.0717 -11.6887 12
      vertex -26.2748 -11.541 12
    endloop
  endfacet
  facet normal 0 0 1
    outer loop
      vertex -28.1871 -13.8526 12
      vertex -26.2748 -11.541 12
      vertex -26.4579 -11.3691 12
    endloop
  endfacet
  facet normal 0 0 1
    outer loop
      vertex -25.618 -11.9021 12
      vertex -26.5451 -14.7553 12
      vertex -25.9369 -14.9114 12
    endloop
  endfacet
  facet normal 0 0 1
    outer loop
      vertex -28.6448 -13.4227 12
      vertex -26.4579 -11.3691 12
      vertex -26.618 -11.1756 12
    endloop
  endfacet
  facet normal 0 0 1
    outer loop
      vertex -29.0451 -12.9389 12
      vertex -26.618 -11.1756 12
      vertex -26.7526 -10.9635 12
    endloop
  endfacet
  facet normal 0 0 1
    outer loop
      vertex -29.3815 -12.4088 12
      vertex -26.7526 -10.9635 12
      vertex -26.8596 -10.7362 12
    endloop
  endfacet
  facet normal 0 0 1
    outer loop
      vertex -29.6489 -11.8406 12
      vertex -26.8596 -10.7362 12
      vertex -26.9372 -10.4974 12
    endloop
  endfacet
  facet normal 0 0 1
    outer loop
      vertex -29.8429 -11.2434 12
      vertex -26.9372 -10.4974 12
      vertex -26.9842 -10.2507 12
    endloop
  endfacet
  facet normal 0 0 1
    outer loop
      vertex -25.8516 -11.8097 12
      vertex -27.1289 -14.5241 12
      vertex -26.5451 -14.7553 12
    endloop
  endfacet
  facet normal 0 0 1
    outer loop
      vertex -29.9606 -10.6267 12
      vertex -26.9842 -10.2507 12
      vertex -27 -10 12
    endloop
  endfacet
  facet normal 0 0 1
    outer loop
      vertex -27 10 12
      vertex -30 10 12
      vertex -27 -10 12
    endloop
  endfacet
  facet normal 0 0 1
    outer loop
      vertex -26.7526 10.9635 12
      vertex -29.3815 12.4088 12
      vertex -26.8596 10.7362 12
    endloop
  endfacet
  facet normal 0 0 1
    outer loop
      vertex -30 -10 12
      vertex -27 -10 12
      vertex -30 10 12
    endloop
  endfacet
  facet normal -0 0 1
    outer loop
      vertex -29.6489 11.8406 12
      vertex -26.8596 10.7362 12
      vertex -29.3815 12.4088 12
    endloop
  endfacet
  facet normal 0 -0 1
    outer loop
      vertex -29.9606 -10.6267 12
      vertex -27 -10 12
      vertex -30 -10 12
    endloop
  endfacet
  facet normal 0 0 1
    outer loop
      vertex -26.8596 10.7362 12
      vertex -29.6489 11.8406 12
      vertex -26.9372 10.4974 12
    endloop
  endfacet
  facet normal 0 0 1
    outer loop
      vertex -26.0717 -11.6887 12
      vertex -27.6791 -14.2216 12
      vertex -27.1289 -14.5241 12
    endloop
  endfacet
  facet normal -0 0 1
    outer loop
      vertex -29.8429 11.2434 12
      vertex -26.9372 10.4974 12
      vertex -29.6489 11.8406 12
    endloop
  endfacet
  facet normal 0 0 1
    outer loop
      vertex -26.2748 -11.541 12
      vertex -28.1871 -13.8526 12
      vertex -27.6791 -14.2216 12
    endloop
  endfacet
  facet normal 0 0 1
    outer loop
      vertex -26.9372 10.4974 12
      vertex -29.8429 11.2434 12
      vertex -26.9842 10.2507 12
    endloop
  endfacet
  facet normal 0 0 1
    outer loop
      vertex -26.4579 -11.3691 12
      vertex -28.6448 -13.4227 12
      vertex -28.1871 -13.8526 12
    endloop
  endfacet
  facet normal -0 0 1
    outer loop
      vertex -29.9606 10.6267 12
      vertex -26.9842 10.2507 12
      vertex -29.8429 11.2434 12
    endloop
  endfacet
  facet normal 0 0 1
    outer loop
      vertex -26.618 -11.1756 12
      vertex -29.0451 -12.9389 12
      vertex -28.6448 -13.4227 12
    endloop
  endfacet
  facet normal 0 0 1
    outer loop
      vertex -26.9842 10.2507 12
      vertex -29.9606 10.6267 12
      vertex -27 10 12
    endloop
  endfacet
  facet normal 0 0 1
    outer loop
      vertex -26.7526 -10.9635 12
      vertex -29.3815 -12.4088 12
      vertex -29.0451 -12.9389 12
    endloop
  endfacet
  facet normal 0 0 1
    outer loop
      vertex -27 10 12
      vertex -29.9606 10.6267 12
      vertex -30 10 12
    endloop
  endfacet
  facet normal 0 0 1
    outer loop
      vertex -26.8596 -10.7362 12
      vertex -29.6489 -11.8406 12
      vertex -29.3815 -12.4088 12
    endloop
  endfacet
  facet normal 0 0 1
    outer loop
      vertex -26.9372 -10.4974 12
      vertex -29.8429 -11.2434 12
      vertex -29.6489 -11.8406 12
    endloop
  endfacet
  facet normal 0 0 1
    outer loop
      vertex -26.9842 -10.2507 12
      vertex -29.9606 -10.6267 12
      vertex -29.8429 -11.2434 12
    endloop
  endfacet
  facet normal 0 -1 0
    outer loop
      vertex -25.314 -14.9901 0
      vertex 25.314 -14.9901 12
      vertex -25.314 -14.9901 12
    endloop
  endfacet
  facet normal 0 -1 -0
    outer loop
      vertex 25.314 -14.9901 12
      vertex -25.314 -14.9901 0
      vertex 25.314 -14.9901 0
    endloop
  endfacet
  facet normal 0.99803 -0.0627451 0
    outer loop
      vertex 29.9606 -10.6267 12
      vertex 30 -10 0
      vertex 30 -10 12
    endloop
  endfacet
  facet normal 0.99803 -0.0627451 0
    outer loop
      vertex 30 -10 0
      vertex 29.9606 -10.6267 12
      vertex 29.9606 -10.6267 0
    endloop
  endfacet
  facet normal 1 -0 0
    outer loop
      vertex 30 -10 12
      vertex 30 10 0
      vertex 30 10 12
    endloop
  endfacet
  facet normal 1 0 0
    outer loop
      vertex 30 10 0
      vertex 30 -10 12
      vertex 30 -10 0
    endloop
  endfacet
  facet normal -0.368203 0.929745 0
    outer loop
      vertex -26.5451 14.7553 0
      vertex -27.1289 14.5241 12
      vertex -26.5451 14.7553 12
    endloop
  endfacet
  facet normal -0.368203 0.929745 0
    outer loop
      vertex -27.1289 14.5241 12
      vertex -26.5451 14.7553 0
      vertex -27.1289 14.5241 0
    endloop
  endfacet
  facet normal -0.248601 0.968606 0
    outer loop
      vertex -25.9369 14.9114 0
      vertex -26.5451 14.7553 12
      vertex -25.9369 14.9114 12
    endloop
  endfacet
  facet normal -0.248601 0.968606 0
    outer loop
      vertex -26.5451 14.7553 12
      vertex -25.9369 14.9114 0
      vertex -26.5451 14.7553 0
    endloop
  endfacet
  facet normal 0 1 -0
    outer loop
      vertex 25.314 14.9901 0
      vertex -25.314 14.9901 12
      vertex 25.314 14.9901 12
    endloop
  endfacet
  facet normal 0 1 0
    outer loop
      vertex -25.314 14.9901 12
      vertex 25.314 14.9901 0
      vertex -25.314 14.9901 0
    endloop
  endfacet
  facet normal -0.368203 -0.929745 0
    outer loop
      vertex -27.1289 -14.5241 0
      vertex -26.5451 -14.7553 12
      vertex -27.1289 -14.5241 12
    endloop
  endfacet
  facet normal -0.368203 -0.929745 -0
    outer loop
      vertex -26.5451 -14.7553 12
      vertex -27.1289 -14.5241 0
      vertex -26.5451 -14.7553 0
    endloop
  endfacet
  facet normal -0.684624 -0.728896 0
    outer loop
      vertex -28.6448 -13.4227 0
      vertex -28.1871 -13.8526 12
      vertex -28.6448 -13.4227 12
    endloop
  endfacet
  facet normal -0.684624 -0.728896 -0
    outer loop
      vertex -28.1871 -13.8526 12
      vertex -28.6448 -13.4227 0
      vertex -28.1871 -13.8526 0
    endloop
  endfacet
  facet normal 0.951076 0.308956 0
    outer loop
      vertex 29.8429 11.2434 12
      vertex 29.6489 11.8406 0
      vertex 29.6489 11.8406 12
    endloop
  endfacet
  facet normal 0.951076 0.308956 0
    outer loop
      vertex 29.6489 11.8406 0
      vertex 29.8429 11.2434 12
      vertex 29.8429 11.2434 0
    endloop
  endfacet
  facet normal 0.125348 0.992113 -0
    outer loop
      vertex 25.9369 14.9114 0
      vertex 25.314 14.9901 12
      vertex 25.9369 14.9114 12
    endloop
  endfacet
  facet normal 0.125348 0.992113 0
    outer loop
      vertex 25.314 14.9901 12
      vertex 25.9369 14.9114 0
      vertex 25.314 14.9901 0
    endloop
  endfacet
  facet normal -0.770462 0.637486 0
    outer loop
      vertex -29.0451 12.9389 0
      vertex -28.6448 13.4227 12
      vertex -28.6448 13.4227 0
    endloop
  endfacet
  facet normal -0.770462 0.637486 0
    outer loop
      vertex -28.6448 13.4227 12
      vertex -29.0451 12.9389 0
      vertex -29.0451 12.9389 12
    endloop
  endfacet
  facet normal 0 0 -1
    outer loop
      vertex 25.314 -14.9901 0
      vertex 30 -10 0
      vertex 29.9606 -10.6267 0
    endloop
  endfacet
  facet normal -0 0 -1
    outer loop
      vertex 30 -10 0
      vertex 25.314 -14.9901 0
      vertex 30 10 0
    endloop
  endfacet
  facet normal 0 0 -1
    outer loop
      vertex 25.314 -14.9901 0
      vertex 29.9606 -10.6267 0
      vertex 29.8429 -11.2434 0
    endloop
  endfacet
  facet normal 0 0 -1
    outer loop
      vertex 25.314 14.9901 0
      vertex 30 10 0
      vertex 25.314 -14.9901 0
    endloop
  endfacet
  facet normal 0 0 -1
    outer loop
      vertex 25.314 -14.9901 0
      vertex 29.8429 -11.2434 0
      vertex 29.6489 -11.8406 0
    endloop
  endfacet
  facet normal 0 0 -1
    outer loop
      vertex 30 10 0
      vertex 25.314 14.9901 0
      vertex 29.9606 10.6267 0
    endloop
  endfacet
  facet normal 0 0 -1
    outer loop
      vertex 25.314 -14.9901 0
      vertex 29.6489 -11.8406 0
      vertex 29.3815 -12.4088 0
    endloop
  endfacet
  facet normal 0 0 -1
    outer loop
      vertex 29.9606 10.6267 0
      vertex 25.314 14.9901 0
      vertex 29.8429 11.2434 0
    endloop
  endfacet
  facet normal 0 0 -1
    outer loop
      vertex 25.314 -14.9901 0
      vertex 29.3815 -12.4088 0
      vertex 29.0451 -12.9389 0
    endloop
  endfacet
  facet normal 0 0 -1
    outer loop
      vertex 29.8429 11.2434 0
      vertex 25.314 14.9901 0
      vertex 29.6489 11.8406 0
    endloop
  endfacet
  facet normal 0 0 -1
    outer loop
      vertex 25.314 -14.9901 0
      vertex 29.0451 -12.9389 0
      vertex 28.6448 -13.4227 0
    endloop
  endfacet
  facet normal 0 0 -1
    outer loop
      vertex 29.6489 11.8406 0
      vertex 25.314 14.9901 0
      vertex 29.3815 12.4088 0
    endloop
  endfacet
  facet normal 0 0 -1
    outer loop
      vertex 25.314 -14.9901 0
      vertex 28.6448 -13.4227 0
      vertex 28.1871 -13.8526 0
    endloop
  endfacet
  facet normal 0 0 -1
    outer loop
      vertex 29.3815 12.4088 0
      vertex 25.314 14.9901 0
      vertex 29.0451 12.9389 0
    endloop
  endfacet
  facet normal 0 0 -1
    outer loop
      vertex 25.314 -14.9901 0
      vertex 28.1871 -13.8526 0
      vertex 27.6791 -14.2216 0
    endloop
  endfacet
  facet normal 0 0 -1
    outer loop
      vertex 29.0451 12.9389 0
      vertex 25.314 14.9901 0
      vertex 28.6448 13.4227 0
    endloop
  endfacet
  facet normal 0 0 -1
    outer loop
      vertex 25.314 -14.9901 0
      vertex 27.6791 -14.2216 0
      vertex 27.1289 -14.5241 0
    endloop
  endfacet
  facet normal 0 0 -1
    outer loop
      vertex 28.6448 13.4227 0
      vertex 25.314 14.9901 0
      vertex 28.1871 13.8526 0
    endloop
  endfacet
  facet normal 0 0 -1
    outer loop
      vertex 25.314 -14.9901 0
      vertex 27.1289 -14.5241 0
      vertex 26.5451 -14.7553 0
    endloop
  endfacet
  facet normal 0 0 -1
    outer loop
      vertex 28.1871 13.8526 0
      vertex 25.314 14.9901 0
      vertex 27.6791 14.2216 0
    endloop
  endfacet
  facet normal 0 0 -1
    outer loop
      vertex 25.314 -14.9901 0
      vertex 26.5451 -14.7553 0
      vertex 25.9369 -14.9114 0
    endloop
  endfacet
  facet normal 0 0 -1
    outer loop
      vertex 27.6791 14.2216 0
      vertex 25.314 14.9901 0
      vertex 27.1289 14.5241 0
    endloop
  endfacet
  facet normal 0 0 -1
    outer loop
      vertex 27.1289 14.5241 0
      vertex 25.314 14.9901 0
      vertex 26.5451 14.7553 0
    endloop
  endfacet
  facet normal 0 0 -1
    outer loop
      vertex 26.5451 14.7553 0
      vertex 25.314 14.9901 0
      vertex 25.9369 14.9114 0
    endloop
  endfacet
  facet normal 0 0 -1
    outer loop
      vertex -25.314 -14.9901 0
      vertex 25.314 14.9901 0
      vertex 25.314 -14.9901 0
    endloop
  endfacet
  facet normal 0 0 -1
    outer loop
      vertex -25.314 -14.9901 0
      vertex -25.314 14.9901 0
      vertex 25.314 14.9901 0
    endloop
  endfacet
  facet normal 0 0 -1
    outer loop
      vertex -30 -10 0
      vertex -25.314 -14.9901 0
      vertex -25.9369 -14.9114 0
    endloop
  endfacet
  facet normal 0 0 -1
    outer loop
      vertex -25.314 -14.9901 0
      vertex -30 -10 0
      vertex -25.314 14.9901 0
    endloop
  endfacet
  facet normal 0 0 -1
    outer loop
      vertex -30 -10 0
      vertex -25.9369 -14.9114 0
      vertex -26.5451 -14.7553 0
    endloop
  endfacet
  facet normal 0 0 -1
    outer loop
      vertex -30 10 0
      vertex -25.314 14.9901 0
      vertex -30 -10 0
    endloop
  endfacet
  facet normal 0 0 -1
    outer loop
      vertex -30 -10 0
      vertex -26.5451 -14.7553 0
      vertex -27.1289 -14.5241 0
    endloop
  endfacet
  facet normal 0 0 -1
    outer loop
      vertex -25.314 14.9901 0
      vertex -30 10 0
      vertex -25.9369 14.9114 0
    endloop
  endfacet
  facet normal 0 0 -1
    outer loop
      vertex -30 -10 0
      vertex -27.1289 -14.5241 0
      vertex -27.6791 -14.2216 0
    endloop
  endfacet
  facet normal 0 0 -1
    outer loop
      vertex -25.9369 14.9114 0
      vertex -30 10 0
      vertex -26.5451 14.7553 0
    endloop
  endfacet
  facet normal 0 0 -1
    outer loop
      vertex -30 -10 0
      vertex -27.6791 -14.2216 0
      vertex -28.1871 -13.8526 0
    endloop
  endfacet
  facet normal 0 0 -1
    outer loop
      vertex -26.5451 14.7553 0
      vertex -30 10 0
      vertex -27.1289 14.5241 0
    endloop
  endfacet
  facet normal 0 0 -1
    outer loop
      vertex -30 -10 0
      vertex -28.1871 -13.8526 0
      vertex -28.6448 -13.4227 0
    endloop
  endfacet
  facet normal 0 0 -1
    outer loop
      vertex -27.1289 14.5241 0
      vertex -30 10 0
      vertex -27.6791 14.2216 0
    endloop
  endfacet
  facet normal 0 0 -1
    outer loop
      vertex -30 -10 0
      vertex -28.6448 -13.4227 0
      vertex -29.0451 -12.9389 0
    endloop
  endfacet
  facet normal 0 0 -1
    outer loop
      vertex -27.6791 14.2216 0
      vertex -30 10 0
      vertex -28.1871 13.8526 0
    endloop
  endfacet
  facet normal 0 0 -1
    outer loop
      vertex -30 -10 0
      vertex -29.0451 -12.9389 0
      vertex -29.3815 -12.4088 0
    endloop
  endfacet
  facet normal 0 0 -1
    outer loop
      vertex -28.1871 13.8526 0
      vertex -30 10 0
      vertex -28.6448 13.4227 0
    endloop
  endfacet
  facet normal 0 0 -1
    outer loop
      vertex -30 -10 0
      vertex -29.3815 -12.4088 0
      vertex -29.6489 -11.8406 0
    endloop
  endfacet
  facet normal 0 0 -1
    outer loop
      vertex -28.6448 13.4227 0
      vertex -30 10 0
      vertex -29.0451 12.9389 0
    endloop
  endfacet
  facet normal 0 0 -1
    outer loop
      vertex -30 -10 0
      vertex -29.6489 -11.8406 0
      vertex -29.8429 -11.2434 0
    endloop
  endfacet
  facet normal 0 0 -1
    outer loop
      vertex -29.0451 12.9389 0
      vertex -30 10 0
      vertex -29.3815 12.4088 0
    endloop
  endfacet
  facet normal 0 0 -1
    outer loop
      vertex -30 -10 0
      vertex -29.8429 -11.2434 0
      vertex -29.9606 -10.6267 0
    endloop
  endfacet
  facet normal 0 0 -1
    outer loop
      vertex -29.3815 12.4088 0
      vertex -30 10 0
      vertex -29.6489 11.8406 0
    endloop
  endfacet
  facet normal 0 0 -1
    outer loop
      vertex -29.6489 11.8406 0
      vertex -30 10 0
      vertex -29.8429 11.2434 0
    endloop
  endfacet
  facet normal 0 0 -1
    outer loop
      vertex -29.8429 11.2434 0
      vertex -30 10 0
      vertex -29.9606 10.6267 0
    endloop
  endfacet
  facet normal -0.951076 -0.308956 0
    outer loop
      vertex -29.6489 -11.8406 0
      vertex -29.8429 -11.2434 12
      vertex -29.8429 -11.2434 0
    endloop
  endfacet
  facet normal -0.951076 -0.308956 0
    outer loop
      vertex -29.8429 -11.2434 12
      vertex -29.6489 -11.8406 0
      vertex -29.6489 -11.8406 12
    endloop
  endfacet
  facet normal -0.770462 -0.637486 0
    outer loop
      vertex -28.6448 -13.4227 0
      vertex -29.0451 -12.9389 12
      vertex -29.0451 -12.9389 0
    endloop
  endfacet
  facet normal -0.770462 -0.637486 0
    outer loop
      vertex -29.0451 -12.9389 12
      vertex -28.6448 -13.4227 0
      vertex -28.6448 -13.4227 12
    endloop
  endfacet
  facet normal -0.904811 -0.425812 0
    outer loop
      vertex -29.3815 -12.4088 0
      vertex -29.6489 -11.8406 12
      vertex -29.6489 -11.8406 0
    endloop
  endfacet
  facet normal -0.904811 -0.425812 0
    outer loop
      vertex -29.6489 -11.8406 12
      vertex -29.3815 -12.4088 0
      vertex -29.3815 -12.4088 12
    endloop
  endfacet
  facet normal -0.248601 -0.968606 0
    outer loop
      vertex -26.5451 -14.7553 0
      vertex -25.9369 -14.9114 12
      vertex -26.5451 -14.7553 12
    endloop
  endfacet
  facet normal -0.248601 -0.968606 -0
    outer loop
      vertex -25.9369 -14.9114 12
      vertex -26.5451 -14.7553 0
      vertex -25.9369 -14.9114 0
    endloop
  endfacet
  facet normal -0.587698 -0.80908 0
    outer loop
      vertex -28.1871 -13.8526 0
      vertex -27.6791 -14.2216 12
      vertex -28.1871 -13.8526 12
    endloop
  endfacet
  facet normal -0.587698 -0.80908 -0
    outer loop
      vertex -27.6791 -14.2216 12
      vertex -28.1871 -13.8526 0
      vertex -27.6791 -14.2216 0
    endloop
  endfacet
  facet normal 0.125348 -0.992113 0
    outer loop
      vertex 25.314 -14.9901 0
      vertex 25.9369 -14.9114 12
      vertex 25.314 -14.9901 12
    endloop
  endfacet
  facet normal 0.125348 -0.992113 0
    outer loop
      vertex 25.9369 -14.9114 12
      vertex 25.314 -14.9901 0
      vertex 25.9369 -14.9114 0
    endloop
  endfacet
  facet normal 0.98227 -0.187471 0
    outer loop
      vertex 29.8429 -11.2434 12
      vertex 29.9606 -10.6267 0
      vertex 29.9606 -10.6267 12
    endloop
  endfacet
  facet normal 0.98227 -0.187471 0
    outer loop
      vertex 29.9606 -10.6267 0
      vertex 29.8429 -11.2434 12
      vertex 29.8429 -11.2434 0
    endloop
  endfacet
  facet normal 0.481784 -0.87629 0
    outer loop
      vertex 27.1289 -14.5241 0
      vertex 27.6791 -14.2216 12
      vertex 27.1289 -14.5241 12
    endloop
  endfacet
  facet normal 0.481784 -0.87629 0
    outer loop
      vertex 27.6791 -14.2216 12
      vertex 27.1289 -14.5241 0
      vertex 27.6791 -14.2216 0
    endloop
  endfacet
  facet normal 0.770462 -0.637486 0
    outer loop
      vertex 28.6448 -13.4227 12
      vertex 29.0451 -12.9389 0
      vertex 29.0451 -12.9389 12
    endloop
  endfacet
  facet normal 0.770462 -0.637486 0
    outer loop
      vertex 29.0451 -12.9389 0
      vertex 28.6448 -13.4227 12
      vertex 28.6448 -13.4227 0
    endloop
  endfacet
  facet normal 0.951076 -0.308956 0
    outer loop
      vertex 29.6489 -11.8406 12
      vertex 29.8429 -11.2434 0
      vertex 29.8429 -11.2434 12
    endloop
  endfacet
  facet normal 0.951076 -0.308956 0
    outer loop
      vertex 29.8429 -11.2434 0
      vertex 29.6489 -11.8406 12
      vertex 29.6489 -11.8406 0
    endloop
  endfacet
  facet normal 0.98227 0.187471 0
    outer loop
      vertex 29.9606 10.6267 12
      vertex 29.8429 11.2434 0
      vertex 29.8429 11.2434 12
    endloop
  endfacet
  facet normal 0.98227 0.187471 0
    outer loop
      vertex 29.8429 11.2434 0
      vertex 29.9606 10.6267 12
      vertex 29.9606 10.6267 0
    endloop
  endfacet
  facet normal 0.99803 0.0627451 0
    outer loop
      vertex 30 10 12
      vertex 29.9606 10.6267 0
      vertex 29.9606 10.6267 12
    endloop
  endfacet
  facet normal 0.99803 0.0627451 0
    outer loop
      vertex 29.9606 10.6267 0
      vertex 30 10 12
      vertex 30 10 0
    endloop
  endfacet
  facet normal 0.844336 0.535814 0
    outer loop
      vertex 29.3815 12.4088 12
      vertex 29.0451 12.9389 0
      vertex 29.0451 12.9389 12
    endloop
  endfacet
  facet normal 0.844336 0.535814 0
    outer loop
      vertex 29.0451 12.9389 0
      vertex 29.3815 12.4088 12
      vertex 29.3815 12.4088 0
    endloop
  endfacet
  facet normal 0.904811 0.425812 0
    outer loop
      vertex 29.6489 11.8406 12
      vertex 29.3815 12.4088 0
      vertex 29.3815 12.4088 12
    endloop
  endfacet
  facet normal 0.904811 0.425812 0
    outer loop
      vertex 29.3815 12.4088 0
      vertex 29.6489 11.8406 12
      vertex 29.6489 11.8406 0
    endloop
  endfacet
  facet normal 0.481784 0.87629 -0
    outer loop
      vertex 27.6791 14.2216 0
      vertex 27.1289 14.5241 12
      vertex 27.6791 14.2216 12
    endloop
  endfacet
  facet normal 0.481784 0.87629 0
    outer loop
      vertex 27.1289 14.5241 12
      vertex 27.6791 14.2216 0
      vertex 27.1289 14.5241 0
    endloop
  endfacet
  facet normal 0.684624 0.728896 -0
    outer loop
      vertex 28.6448 13.4227 0
      vertex 28.1871 13.8526 12
      vertex 28.6448 13.4227 12
    endloop
  endfacet
  facet normal 0.684624 0.728896 0
    outer loop
      vertex 28.1871 13.8526 12
      vertex 28.6448 13.4227 0
      vertex 28.1871 13.8526 0
    endloop
  endfacet
  facet normal 0.368203 0.929745 -0
    outer loop
      vertex 27.1289 14.5241 0
      vertex 26.5451 14.7553 12
      vertex 27.1289 14.5241 12
    endloop
  endfacet
  facet normal 0.368203 0.929745 0
    outer loop
      vertex 26.5451 14.7553 12
      vertex 27.1289 14.5241 0
      vertex 26.5451 14.7553 0
    endloop
  endfacet
  facet normal -0.98227 0.187471 0
    outer loop
      vertex -29.9606 10.6267 0
      vertex -29.8429 11.2434 12
      vertex -29.8429 11.2434 0
    endloop
  endfacet
  facet normal -0.98227 0.187471 0
    outer loop
      vertex -29.8429 11.2434 12
      vertex -29.9606 10.6267 0
      vertex -29.9606 10.6267 12
    endloop
  endfacet
  facet normal -0.904811 0.425812 0
    outer loop
      vertex -29.6489 11.8406 0
      vertex -29.3815 12.4088 12
      vertex -29.3815 12.4088 0
    endloop
  endfacet
  facet normal -0.904811 0.425812 0
    outer loop
      vertex -29.3815 12.4088 12
      vertex -29.6489 11.8406 0
      vertex -29.6489 11.8406 12
    endloop
  endfacet
  facet normal -0.481784 0.87629 0
    outer loop
      vertex -27.1289 14.5241 0
      vertex -27.6791 14.2216 12
      vertex -27.1289 14.5241 12
    endloop
  endfacet
  facet normal -0.481784 0.87629 0
    outer loop
      vertex -27.6791 14.2216 12
      vertex -27.1289 14.5241 0
      vertex -27.6791 14.2216 0
    endloop
  endfacet
  facet normal -0.684624 0.728896 0
    outer loop
      vertex -28.1871 13.8526 0
      vertex -28.6448 13.4227 12
      vertex -28.1871 13.8526 12
    endloop
  endfacet
  facet normal -0.684624 0.728896 0
    outer loop
      vertex -28.6448 13.4227 12
      vertex -28.1871 13.8526 0
      vertex -28.6448 13.4227 0
    endloop
  endfacet
  facet normal -0.125348 0.992113 0
    outer loop
      vertex -25.314 14.9901 0
      vertex -25.9369 14.9114 12
      vertex -25.314 14.9901 12
    endloop
  endfacet
  facet normal -0.125348 0.992113 0
    outer loop
      vertex -25.9369 14.9114 12
      vertex -25.314 14.9901 0
      vertex -25.9369 14.9114 0
    endloop
  endfacet
  facet normal -0.98227 -0.187471 0
    outer loop
      vertex -29.8429 -11.2434 0
      vertex -29.9606 -10.6267 12
      vertex -29.9606 -10.6267 0
    endloop
  endfacet
  facet normal -0.98227 -0.187471 0
    outer loop
      vertex -29.9606 -10.6267 12
      vertex -29.8429 -11.2434 0
      vertex -29.8429 -11.2434 12
    endloop
  endfacet
  facet normal -0.844336 -0.535814 0
    outer loop
      vertex -29.0451 -12.9389 0
      vertex -29.3815 -12.4088 12
      vertex -29.3815 -12.4088 0
    endloop
  endfacet
  facet normal -0.844336 -0.535814 0
    outer loop
      vertex -29.3815 -12.4088 12
      vertex -29.0451 -12.9389 0
      vertex -29.0451 -12.9389 12
    endloop
  endfacet
  facet normal -0.125348 -0.992113 0
    outer loop
      vertex -25.9369 -14.9114 0
      vertex -25.314 -14.9901 12
      vertex -25.9369 -14.9114 12
    endloop
  endfacet
  facet normal -0.125348 -0.992113 -0
    outer loop
      vertex -25.314 -14.9901 12
      vertex -25.9369 -14.9114 0
      vertex -25.314 -14.9901 0
    endloop
  endfacet
  facet normal -0.481784 -0.87629 0
    outer loop
      vertex -27.6791 -14.2216 0
      vertex -27.1289 -14.5241 12
      vertex -27.6791 -14.2216 12
    endloop
  endfacet
  facet normal -0.481784 -0.87629 -0
    outer loop
      vertex -27.1289 -14.5241 12
      vertex -27.6791 -14.2216 0
      vertex -27.1289 -14.5241 0
    endloop
  endfacet
  facet normal 0.587698 -0.80908 0
    outer loop
      vertex 27.6791 -14.2216 0
      vertex 28.1871 -13.8526 12
      vertex 27.6791 -14.2216 12
    endloop
  endfacet
  facet normal 0.587698 -0.80908 0
    outer loop
      vertex 28.1871 -13.8526 12
      vertex 27.6791 -14.2216 0
      vertex 28.1871 -13.8526 0
    endloop
  endfacet
  facet normal 0.684624 -0.728896 0
    outer loop
      vertex 28.1871 -13.8526 0
      vertex 28.6448 -13.4227 12
      vertex 28.1871 -13.8526 12
    endloop
  endfacet
  facet normal 0.684624 -0.728896 0
    outer loop
      vertex 28.6448 -13.4227 12
      vertex 28.1871 -13.8526 0
      vertex 28.6448 -13.4227 0
    endloop
  endfacet
  facet normal 0.844336 -0.535814 0
    outer loop
      vertex 29.0451 -12.9389 12
      vertex 29.3815 -12.4088 0
      vertex 29.3815 -12.4088 12
    endloop
  endfacet
  facet normal 0.844336 -0.535814 0
    outer loop
      vertex 29.3815 -12.4088 0
      vertex 29.0451 -12.9389 12
      vertex 29.0451 -12.9389 0
    endloop
  endfacet
  facet normal 0.587698 0.80908 -0
    outer loop
      vertex 28.1871 13.8526 0
      vertex 27.6791 14.2216 12
      vertex 28.1871 13.8526 12
    endloop
  endfacet
  facet normal 0.587698 0.80908 0
    outer loop
      vertex 27.6791 14.2216 12
      vertex 28.1871 13.8526 0
      vertex 27.6791 14.2216 0
    endloop
  endfacet
  facet normal 0.248601 0.968606 -0
    outer loop
      vertex 26.5451 14.7553 0
      vertex 25.9369 14.9114 12
      vertex 26.5451 14.7553 12
    endloop
  endfacet
  facet normal 0.248601 0.968606 0
    outer loop
      vertex 25.9369 14.9114 12
      vertex 26.5451 14.7553 0
      vertex 25.9369 14.9114 0
    endloop
  endfacet
  facet normal -0.951076 0.308956 0
    outer loop
      vertex -29.8429 11.2434 0
      vertex -29.6489 11.8406 12
      vertex -29.6489 11.8406 0
    endloop
  endfacet
  facet normal -0.951076 0.308956 0
    outer loop
      vertex -29.6489 11.8406 12
      vertex -29.8429 11.2434 0
      vertex -29.8429 11.2434 12
    endloop
  endfacet
  facet normal -0.844336 0.535814 0
    outer loop
      vertex -29.3815 12.4088 0
      vertex -29.0451 12.9389 12
      vertex -29.0451 12.9389 0
    endloop
  endfacet
  facet normal -0.844336 0.535814 0
    outer loop
      vertex -29.0451 12.9389 12
      vertex -29.3815 12.4088 0
      vertex -29.3815 12.4088 12
    endloop
  endfacet
  facet normal -0.587698 0.80908 0
    outer loop
      vertex -27.6791 14.2216 0
      vertex -28.1871 13.8526 12
      vertex -27.6791 14.2216 12
    endloop
  endfacet
  facet normal -0.587698 0.80908 0
    outer loop
      vertex -28.1871 13.8526 12
      vertex -27.6791 14.2216 0
      vertex -28.1871 13.8526 0
    endloop
  endfacet
  facet normal 0.368203 -0.929745 0
    outer loop
      vertex 26.5451 -14.7553 0
      vertex 27.1289 -14.5241 12
      vertex 26.5451 -14.7553 12
    endloop
  endfacet
  facet normal 0.368203 -0.929745 0
    outer loop
      vertex 27.1289 -14.5241 12
      vertex 26.5451 -14.7553 0
      vertex 27.1289 -14.5241 0
    endloop
  endfacet
  facet normal 0.248601 -0.968606 0
    outer loop
      vertex 25.9369 -14.9114 0
      vertex 26.5451 -14.7553 12
      vertex 25.9369 -14.9114 12
    endloop
  endfacet
  facet normal 0.248601 -0.968606 0
    outer loop
      vertex 26.5451 -14.7553 12
      vertex 25.9369 -14.9114 0
      vertex 26.5451 -14.7553 0
    endloop
  endfacet
  facet normal 0.904811 -0.425812 0
    outer loop
      vertex 29.3815 -12.4088 12
      vertex 29.6489 -11.8406 0
      vertex 29.6489 -11.8406 12
    endloop
  endfacet
  facet normal 0.904811 -0.425812 0
    outer loop
      vertex 29.6489 -11.8406 0
      vertex 29.3815 -12.4088 12
      vertex 29.3815 -12.4088 0
    endloop
  endfacet
  facet normal 1 -0 0
    outer loop
      vertex -27 -10 12
      vertex -27 10 2
      vertex -27 10 12
    endloop
  endfacet
  facet normal 1 0 0
    outer loop
      vertex -27 10 2
      vertex -27 -10 12
      vertex -27 -10 2
    endloop
  endfacet
  facet normal 0.99802 0.0628987 0
    outer loop
      vertex -26.9842 -10.2507 12
      vertex -27 -10 2
      vertex -27 -10 12
    endloop
  endfacet
  facet normal 0.99802 0.0628987 0
    outer loop
      vertex -27 -10 2
      vertex -26.9842 -10.2507 12
      vertex -26.9842 -10.2507 2
    endloop
  endfacet
  facet normal -0.904765 -0.425912 0
    outer loop
      vertex 26.8596 10.7362 2
      vertex 26.7526 10.9635 12
      vertex 26.7526 10.9635 2
    endloop
  endfacet
  facet normal -0.904765 -0.425912 0
    outer loop
      vertex 26.7526 10.9635 12
      vertex 26.8596 10.7362 2
      vertex 26.8596 10.7362 12
    endloop
  endfacet
  facet normal 0.99802 -0.0628987 0
    outer loop
      vertex -27 10 12
      vertex -26.9842 10.2507 2
      vertex -26.9842 10.2507 12
    endloop
  endfacet
  facet normal 0.99802 -0.0628987 0
    outer loop
      vertex -26.9842 10.2507 2
      vertex -27 10 12
      vertex -27 10 2
    endloop
  endfacet
  facet normal -0.982332 0.187149 0
    outer loop
      vertex 26.9372 -10.4974 2
      vertex 26.9842 -10.2507 12
      vertex 26.9842 -10.2507 2
    endloop
  endfacet
  facet normal -0.982332 0.187149 0
    outer loop
      vertex 26.9842 -10.2507 12
      vertex 26.9372 -10.4974 2
      vertex 26.9372 -10.4974 12
    endloop
  endfacet
  facet normal 0.481751 -0.876308 0
    outer loop
      vertex -26.0717 11.6887 2
      vertex -25.8516 11.8097 12
      vertex -26.0717 11.6887 12
    endloop
  endfacet
  facet normal 0.481751 -0.876308 0
    outer loop
      vertex -25.8516 11.8097 12
      vertex -26.0717 11.6887 2
      vertex -25.8516 11.8097 2
    endloop
  endfacet
  facet normal 0 1 -0
    outer loop
      vertex 25.1256 -11.9961 2
      vertex -25.1256 -11.9961 12
      vertex 25.1256 -11.9961 12
    endloop
  endfacet
  facet normal 0 1 0
    outer loop
      vertex -25.1256 -11.9961 12
      vertex 25.1256 -11.9961 2
      vertex -25.1256 -11.9961 2
    endloop
  endfacet
  facet normal -0.367819 0.929897 0
    outer loop
      vertex 25.8516 -11.8097 2
      vertex 25.618 -11.9021 12
      vertex 25.8516 -11.8097 12
    endloop
  endfacet
  facet normal -0.367819 0.929897 0
    outer loop
      vertex 25.618 -11.9021 12
      vertex 25.8516 -11.8097 2
      vertex 25.618 -11.9021 2
    endloop
  endfacet
  facet normal -0.99802 0.0628987 0
    outer loop
      vertex 26.9842 -10.2507 2
      vertex 27 -10 12
      vertex 27 -10 2
    endloop
  endfacet
  facet normal -0.99802 0.0628987 0
    outer loop
      vertex 27 -10 12
      vertex 26.9842 -10.2507 2
      vertex 26.9842 -10.2507 12
    endloop
  endfacet
  facet normal -1 0 0
    outer loop
      vertex 27 -10 2
      vertex 27 10 12
      vertex 27 10 2
    endloop
  endfacet
  facet normal -1 -0 0
    outer loop
      vertex 27 10 12
      vertex 27 -10 2
      vertex 27 -10 12
    endloop
  endfacet
  facet normal 0.125407 -0.992105 0
    outer loop
      vertex -25.3748 11.9646 2
      vertex -25.1256 11.9961 12
      vertex -25.3748 11.9646 12
    endloop
  endfacet
  facet normal 0.125407 -0.992105 0
    outer loop
      vertex -25.1256 11.9961 12
      vertex -25.3748 11.9646 2
      vertex -25.1256 11.9961 2
    endloop
  endfacet
  facet normal 0 -1 0
    outer loop
      vertex -25.1256 11.9961 2
      vertex 25.1256 11.9961 12
      vertex -25.1256 11.9961 12
    endloop
  endfacet
  facet normal 0 -1 -0
    outer loop
      vertex 25.1256 11.9961 12
      vertex -25.1256 11.9961 2
      vertex 25.1256 11.9961 2
    endloop
  endfacet
  facet normal 0.770468 0.637478 0
    outer loop
      vertex -26.4579 -11.3691 12
      vertex -26.618 -11.1756 2
      vertex -26.618 -11.1756 12
    endloop
  endfacet
  facet normal 0.770468 0.637478 0
    outer loop
      vertex -26.618 -11.1756 2
      vertex -26.4579 -11.3691 12
      vertex -26.4579 -11.3691 2
    endloop
  endfacet
  facet normal 0.904765 0.425912 0
    outer loop
      vertex -26.7526 -10.9635 12
      vertex -26.8596 -10.7362 2
      vertex -26.8596 -10.7362 12
    endloop
  endfacet
  facet normal 0.904765 0.425912 0
    outer loop
      vertex -26.8596 -10.7362 2
      vertex -26.7526 -10.9635 12
      vertex -26.7526 -10.9635 2
    endloop
  endfacet
  facet normal 0.367819 0.929897 -0
    outer loop
      vertex -25.618 -11.9021 2
      vertex -25.8516 -11.8097 12
      vertex -25.618 -11.9021 12
    endloop
  endfacet
  facet normal 0.367819 0.929897 0
    outer loop
      vertex -25.8516 -11.8097 12
      vertex -25.618 -11.9021 2
      vertex -25.8516 -11.8097 2
    endloop
  endfacet
  facet normal 0.125407 0.992105 -0
    outer loop
      vertex -25.1256 -11.9961 2
      vertex -25.3748 -11.9646 12
      vertex -25.1256 -11.9961 12
    endloop
  endfacet
  facet normal 0.125407 0.992105 0
    outer loop
      vertex -25.3748 -11.9646 12
      vertex -25.1256 -11.9961 2
      vertex -25.3748 -11.9646 2
    endloop
  endfacet
  facet normal 0.684458 0.729053 -0
    outer loop
      vertex -26.2748 -11.541 2
      vertex -26.4579 -11.3691 12
      vertex -26.2748 -11.541 12
    endloop
  endfacet
  facet normal 0.684458 0.729053 0
    outer loop
      vertex -26.4579 -11.3691 12
      vertex -26.2748 -11.541 2
      vertex -26.4579 -11.3691 2
    endloop
  endfacet
  facet normal -0.904765 0.425912 0
    outer loop
      vertex 26.7526 -10.9635 2
      vertex 26.8596 -10.7362 12
      vertex 26.8596 -10.7362 2
    endloop
  endfacet
  facet normal -0.904765 0.425912 0
    outer loop
      vertex 26.8596 -10.7362 12
      vertex 26.7526 -10.9635 2
      vertex 26.7526 -10.9635 12
    endloop
  endfacet
  facet normal -0.951046 -0.30905 0
    outer loop
      vertex 26.9372 10.4974 2
      vertex 26.8596 10.7362 12
      vertex 26.8596 10.7362 2
    endloop
  endfacet
  facet normal -0.951046 -0.30905 0
    outer loop
      vertex 26.8596 10.7362 12
      vertex 26.9372 10.4974 2
      vertex 26.9372 10.4974 12
    endloop
  endfacet
  facet normal -0.367819 -0.929897 0
    outer loop
      vertex 25.618 11.9021 2
      vertex 25.8516 11.8097 12
      vertex 25.618 11.9021 12
    endloop
  endfacet
  facet normal -0.367819 -0.929897 -0
    outer loop
      vertex 25.8516 11.8097 12
      vertex 25.618 11.9021 2
      vertex 25.8516 11.8097 2
    endloop
  endfacet
  facet normal -0.125407 -0.992105 0
    outer loop
      vertex 25.1256 11.9961 2
      vertex 25.3748 11.9646 12
      vertex 25.1256 11.9961 12
    endloop
  endfacet
  facet normal -0.125407 -0.992105 -0
    outer loop
      vertex 25.3748 11.9646 12
      vertex 25.1256 11.9961 2
      vertex 25.3748 11.9646 2
    endloop
  endfacet
  facet normal 0.844333 -0.535819 0
    outer loop
      vertex -26.7526 10.9635 12
      vertex -26.618 11.1756 2
      vertex -26.618 11.1756 12
    endloop
  endfacet
  facet normal 0.844333 -0.535819 0
    outer loop
      vertex -26.618 11.1756 2
      vertex -26.7526 10.9635 12
      vertex -26.7526 10.9635 2
    endloop
  endfacet
  facet normal 0.588148 -0.808753 0
    outer loop
      vertex -26.2748 11.541 2
      vertex -26.0717 11.6887 12
      vertex -26.2748 11.541 12
    endloop
  endfacet
  facet normal 0.588148 -0.808753 0
    outer loop
      vertex -26.0717 11.6887 12
      vertex -26.2748 11.541 2
      vertex -26.0717 11.6887 2
    endloop
  endfacet
  facet normal 0 0 1
    outer loop
      vertex 25.1256 11.9961 2
      vertex 27 10 2
      vertex 26.9842 10.2507 2
    endloop
  endfacet
  facet normal 0 0 1
    outer loop
      vertex 27 10 2
      vertex 25.1256 11.9961 2
      vertex 27 -10 2
    endloop
  endfacet
  facet normal 0 0 1
    outer loop
      vertex 25.1256 11.9961 2
      vertex 26.9842 10.2507 2
      vertex 26.9372 10.4974 2
    endloop
  endfacet
  facet normal 0 0 1
    outer loop
      vertex 25.1256 -11.9961 2
      vertex 27 -10 2
      vertex 25.1256 11.9961 2
    endloop
  endfacet
  facet normal 0 0 1
    outer loop
      vertex 25.1256 11.9961 2
      vertex 26.9372 10.4974 2
      vertex 26.8596 10.7362 2
    endloop
  endfacet
  facet normal 0 0 1
    outer loop
      vertex 27 -10 2
      vertex 25.1256 -11.9961 2
      vertex 26.9842 -10.2507 2
    endloop
  endfacet
  facet normal 0 0 1
    outer loop
      vertex 25.1256 11.9961 2
      vertex 26.8596 10.7362 2
      vertex 26.7526 10.9635 2
    endloop
  endfacet
  facet normal 0 0 1
    outer loop
      vertex 26.9842 -10.2507 2
      vertex 25.1256 -11.9961 2
      vertex 26.9372 -10.4974 2
    endloop
  endfacet
  facet normal 0 0 1
    outer loop
      vertex 25.1256 11.9961 2
      vertex 26.7526 10.9635 2
      vertex 26.618 11.1756 2
    endloop
  endfacet
  facet normal 0 0 1
    outer loop
      vertex 26.9372 -10.4974 2
      vertex 25.1256 -11.9961 2
      vertex 26.8596 -10.7362 2
    endloop
  endfacet
  facet normal 0 0 1
    outer loop
      vertex 25.1256 11.9961 2
      vertex 26.618 11.1756 2
      vertex 26.4579 11.3691 2
    endloop
  endfacet
  facet normal 0 0 1
    outer loop
      vertex 26.8596 -10.7362 2
      vertex 25.1256 -11.9961 2
      vertex 26.7526 -10.9635 2
    endloop
  endfacet
  facet normal 0 0 1
    outer loop
      vertex 25.1256 11.9961 2
      vertex 26.4579 11.3691 2
      vertex 26.2748 11.541 2
    endloop
  endfacet
  facet normal 0 0 1
    outer loop
      vertex 26.7526 -10.9635 2
      vertex 25.1256 -11.9961 2
      vertex 26.618 -11.1756 2
    endloop
  endfacet
  facet normal 0 0 1
    outer loop
      vertex 25.1256 11.9961 2
      vertex 26.2748 11.541 2
      vertex 26.0717 11.6887 2
    endloop
  endfacet
  facet normal 0 0 1
    outer loop
      vertex 26.618 -11.1756 2
      vertex 25.1256 -11.9961 2
      vertex 26.4579 -11.3691 2
    endloop
  endfacet
  facet normal 0 0 1
    outer loop
      vertex 25.1256 11.9961 2
      vertex 26.0717 11.6887 2
      vertex 25.8516 11.8097 2
    endloop
  endfacet
  facet normal 0 0 1
    outer loop
      vertex 26.4579 -11.3691 2
      vertex 25.1256 -11.9961 2
      vertex 26.2748 -11.541 2
    endloop
  endfacet
  facet normal 0 0 1
    outer loop
      vertex 25.1256 11.9961 2
      vertex 25.8516 11.8097 2
      vertex 25.618 11.9021 2
    endloop
  endfacet
  facet normal 0 0 1
    outer loop
      vertex 26.2748 -11.541 2
      vertex 25.1256 -11.9961 2
      vertex 26.0717 -11.6887 2
    endloop
  endfacet
  facet normal 0 0 1
    outer loop
      vertex 25.1256 11.9961 2
      vertex 25.618 11.9021 2
      vertex 25.3748 11.9646 2
    endloop
  endfacet
  facet normal 0 0 1
    outer loop
      vertex 26.0717 -11.6887 2
      vertex 25.1256 -11.9961 2
      vertex 25.8516 -11.8097 2
    endloop
  endfacet
  facet normal 0 0 1
    outer loop
      vertex 25.8516 -11.8097 2
      vertex 25.1256 -11.9961 2
      vertex 25.618 -11.9021 2
    endloop
  endfacet
  facet normal 0 0 1
    outer loop
      vertex 25.618 -11.9021 2
      vertex 25.1256 -11.9961 2
      vertex 25.3748 -11.9646 2
    endloop
  endfacet
  facet normal -0 0 1
    outer loop
      vertex -25.1256 11.9961 2
      vertex 25.1256 -11.9961 2
      vertex 25.1256 11.9961 2
    endloop
  endfacet
  facet normal 0 0 1
    outer loop
      vertex -25.1256 11.9961 2
      vertex -25.1256 -11.9961 2
      vertex 25.1256 -11.9961 2
    endloop
  endfacet
  facet normal 0 0 1
    outer loop
      vertex -27 10 2
      vertex -25.1256 11.9961 2
      vertex -25.3748 11.9646 2
    endloop
  endfacet
  facet normal 0 0 1
    outer loop
      vertex -25.1256 11.9961 2
      vertex -27 10 2
      vertex -25.1256 -11.9961 2
    endloop
  endfacet
  facet normal 0 0 1
    outer loop
      vertex -27 10 2
      vertex -25.3748 11.9646 2
      vertex -25.618 11.9021 2
    endloop
  endfacet
  facet normal -0 0 1
    outer loop
      vertex -27 -10 2
      vertex -25.1256 -11.9961 2
      vertex -27 10 2
    endloop
  endfacet
  facet normal 0 0 1
    outer loop
      vertex -27 10 2
      vertex -25.618 11.9021 2
      vertex -25.8516 11.8097 2
    endloop
  endfacet
  facet normal 0 0 1
    outer loop
      vertex -25.1256 -11.9961 2
      vertex -27 -10 2
      vertex -25.3748 -11.9646 2
    endloop
  endfacet
  facet normal 0 0 1
    outer loop
      vertex -27 10 2
      vertex -25.8516 11.8097 2
      vertex -26.0717 11.6887 2
    endloop
  endfacet
  facet normal 0 0 1
    outer loop
      vertex -25.3748 -11.9646 2
      vertex -27 -10 2
      vertex -25.618 -11.9021 2
    endloop
  endfacet
  facet normal 0 0 1
    outer loop
      vertex -27 10 2
      vertex -26.0717 11.6887 2
      vertex -26.2748 11.541 2
    endloop
  endfacet
  facet normal 0 0 1
    outer loop
      vertex -25.618 -11.9021 2
      vertex -27 -10 2
      vertex -25.8516 -11.8097 2
    endloop
  endfacet
  facet normal 0 0 1
    outer loop
      vertex -27 10 2
      vertex -26.2748 11.541 2
      vertex -26.4579 11.3691 2
    endloop
  endfacet
  facet normal 0 0 1
    outer loop
      vertex -25.8516 -11.8097 2
      vertex -27 -10 2
      vertex -26.0717 -11.6887 2
    endloop
  endfacet
  facet normal 0 0 1
    outer loop
      vertex -27 10 2
      vertex -26.4579 11.3691 2
      vertex -26.618 11.1756 2
    endloop
  endfacet
  facet normal 0 0 1
    outer loop
      vertex -26.0717 -11.6887 2
      vertex -27 -10 2
      vertex -26.2748 -11.541 2
    endloop
  endfacet
  facet normal 0 0 1
    outer loop
      vertex -27 10 2
      vertex -26.618 11.1756 2
      vertex -26.7526 10.9635 2
    endloop
  endfacet
  facet normal 0 0 1
    outer loop
      vertex -26.2748 -11.541 2
      vertex -27 -10 2
      vertex -26.4579 -11.3691 2
    endloop
  endfacet
  facet normal 0 0 1
    outer loop
      vertex -27 10 2
      vertex -26.7526 10.9635 2
      vertex -26.8596 10.7362 2
    endloop
  endfacet
  facet normal 0 0 1
    outer loop
      vertex -26.4579 -11.3691 2
      vertex -27 -10 2
      vertex -26.618 -11.1756 2
    endloop
  endfacet
  facet normal 0 0 1
    outer loop
      vertex -27 10 2
      vertex -26.8596 10.7362 2
      vertex -26.9372 10.4974 2
    endloop
  endfacet
  facet normal 0 0 1
    outer loop
      vertex -26.618 -11.1756 2
      vertex -27 -10 2
      vertex -26.7526 -10.9635 2
    endloop
  endfacet
  facet normal 0 0 1
    outer loop
      vertex -27 10 2
      vertex -26.9372 10.4974 2
      vertex -26.9842 10.2507 2
    endloop
  endfacet
  facet normal 0 0 1
    outer loop
      vertex -26.7526 -10.9635 2
      vertex -27 -10 2
      vertex -26.8596 -10.7362 2
    endloop
  endfacet
  facet normal 0 0 1
    outer loop
      vertex -26.8596 -10.7362 2
      vertex -27 -10 2
      vertex -26.9372 -10.4974 2
    endloop
  endfacet
  facet normal 0 0 1
    outer loop
      vertex -26.9372 -10.4974 2
      vertex -27 -10 2
      vertex -26.9842 -10.2507 2
    endloop
  endfacet
  facet normal 0.951046 0.30905 0
    outer loop
      vertex -26.8596 -10.7362 12
      vertex -26.9372 -10.4974 2
      vertex -26.9372 -10.4974 12
    endloop
  endfacet
  facet normal 0.951046 0.30905 0
    outer loop
      vertex -26.9372 -10.4974 2
      vertex -26.8596 -10.7362 12
      vertex -26.8596 -10.7362 2
    endloop
  endfacet
  facet normal 0.982332 0.187149 0
    outer loop
      vertex -26.9372 -10.4974 12
      vertex -26.9842 -10.2507 2
      vertex -26.9842 -10.2507 12
    endloop
  endfacet
  facet normal 0.982332 0.187149 0
    outer loop
      vertex -26.9842 -10.2507 2
      vertex -26.9372 -10.4974 12
      vertex -26.9372 -10.4974 2
    endloop
  endfacet
  facet normal 0.844333 0.535819 0
    outer loop
      vertex -26.618 -11.1756 12
      vertex -26.7526 -10.9635 2
      vertex -26.7526 -10.9635 12
    endloop
  endfacet
  facet normal 0.844333 0.535819 0
    outer loop
      vertex -26.7526 -10.9635 2
      vertex -26.618 -11.1756 12
      vertex -26.618 -11.1756 2
    endloop
  endfacet
  facet normal 0.248902 0.968529 -0
    outer loop
      vertex -25.3748 -11.9646 2
      vertex -25.618 -11.9021 12
      vertex -25.3748 -11.9646 12
    endloop
  endfacet
  facet normal 0.248902 0.968529 0
    outer loop
      vertex -25.618 -11.9021 12
      vertex -25.3748 -11.9646 2
      vertex -25.618 -11.9021 2
    endloop
  endfacet
  facet normal 0.481751 0.876308 -0
    outer loop
      vertex -25.8516 -11.8097 2
      vertex -26.0717 -11.6887 12
      vertex -25.8516 -11.8097 12
    endloop
  endfacet
  facet normal 0.481751 0.876308 0
    outer loop
      vertex -26.0717 -11.6887 12
      vertex -25.8516 -11.8097 2
      vertex -26.0717 -11.6887 2
    endloop
  endfacet
  facet normal -0.125407 0.992105 0
    outer loop
      vertex 25.3748 -11.9646 2
      vertex 25.1256 -11.9961 12
      vertex 25.3748 -11.9646 12
    endloop
  endfacet
  facet normal -0.125407 0.992105 0
    outer loop
      vertex 25.1256 -11.9961 12
      vertex 25.3748 -11.9646 2
      vertex 25.1256 -11.9961 2
    endloop
  endfacet
  facet normal -0.951046 0.30905 0
    outer loop
      vertex 26.8596 -10.7362 2
      vertex 26.9372 -10.4974 12
      vertex 26.9372 -10.4974 2
    endloop
  endfacet
  facet normal -0.951046 0.30905 0
    outer loop
      vertex 26.9372 -10.4974 12
      vertex 26.8596 -10.7362 2
      vertex 26.8596 -10.7362 12
    endloop
  endfacet
  facet normal -0.982332 -0.187149 0
    outer loop
      vertex 26.9842 10.2507 2
      vertex 26.9372 10.4974 12
      vertex 26.9372 10.4974 2
    endloop
  endfacet
  facet normal -0.982332 -0.187149 0
    outer loop
      vertex 26.9372 10.4974 12
      vertex 26.9842 10.2507 2
      vertex 26.9842 10.2507 12
    endloop
  endfacet
  facet normal -0.99802 -0.0628987 0
    outer loop
      vertex 27 10 2
      vertex 26.9842 10.2507 12
      vertex 26.9842 10.2507 2
    endloop
  endfacet
  facet normal -0.99802 -0.0628987 0
    outer loop
      vertex 26.9842 10.2507 12
      vertex 27 10 2
      vertex 27 10 12
    endloop
  endfacet
  facet normal -0.770468 -0.637478 0
    outer loop
      vertex 26.618 11.1756 2
      vertex 26.4579 11.3691 12
      vertex 26.4579 11.3691 2
    endloop
  endfacet
  facet normal -0.770468 -0.637478 0
    outer loop
      vertex 26.4579 11.3691 12
      vertex 26.618 11.1756 2
      vertex 26.618 11.1756 12
    endloop
  endfacet
  facet normal -0.844333 -0.535819 0
    outer loop
      vertex 26.7526 10.9635 2
      vertex 26.618 11.1756 12
      vertex 26.618 11.1756 2
    endloop
  endfacet
  facet normal -0.844333 -0.535819 0
    outer loop
      vertex 26.618 11.1756 12
      vertex 26.7526 10.9635 2
      vertex 26.7526 10.9635 12
    endloop
  endfacet
  facet normal -0.684458 -0.729053 0
    outer loop
      vertex 26.2748 11.541 2
      vertex 26.4579 11.3691 12
      vertex 26.2748 11.541 12
    endloop
  endfacet
  facet normal -0.684458 -0.729053 -0
    outer loop
      vertex 26.4579 11.3691 12
      vertex 26.2748 11.541 2
      vertex 26.4579 11.3691 2
    endloop
  endfacet
  facet normal -0.481751 -0.876308 0
    outer loop
      vertex 25.8516 11.8097 2
      vertex 26.0717 11.6887 12
      vertex 25.8516 11.8097 12
    endloop
  endfacet
  facet normal -0.481751 -0.876308 -0
    outer loop
      vertex 26.0717 11.6887 12
      vertex 25.8516 11.8097 2
      vertex 26.0717 11.6887 2
    endloop
  endfacet
  facet normal 0.248902 -0.968529 0
    outer loop
      vertex -25.618 11.9021 2
      vertex -25.3748 11.9646 12
      vertex -25.618 11.9021 12
    endloop
  endfacet
  facet normal 0.248902 -0.968529 0
    outer loop
      vertex -25.3748 11.9646 12
      vertex -25.618 11.9021 2
      vertex -25.3748 11.9646 2
    endloop
  endfacet
  facet normal 0.684458 -0.729053 0
    outer loop
      vertex -26.4579 11.3691 2
      vertex -26.2748 11.541 12
      vertex -26.4579 11.3691 12
    endloop
  endfacet
  facet normal 0.684458 -0.729053 0
    outer loop
      vertex -26.2748 11.541 12
      vertex -26.4579 11.3691 2
      vertex -26.2748 11.541 2
    endloop
  endfacet
  facet normal 0.367819 -0.929897 0
    outer loop
      vertex -25.8516 11.8097 2
      vertex -25.618 11.9021 12
      vertex -25.8516 11.8097 12
    endloop
  endfacet
  facet normal 0.367819 -0.929897 0
    outer loop
      vertex -25.618 11.9021 12
      vertex -25.8516 11.8097 2
      vertex -25.618 11.9021 2
    endloop
  endfacet
  facet normal 0.588148 0.808753 -0
    outer loop
      vertex -26.0717 -11.6887 2
      vertex -26.2748 -11.541 12
      vertex -26.0717 -11.6887 12
    endloop
  endfacet
  facet normal 0.588148 0.808753 0
    outer loop
      vertex -26.2748 -11.541 12
      vertex -26.0717 -11.6887 2
      vertex -26.2748 -11.541 2
    endloop
  endfacet
  facet normal -0.248902 0.968529 0
    outer loop
      vertex 25.618 -11.9021 2
      vertex 25.3748 -11.9646 12
      vertex 25.618 -11.9021 12
    endloop
  endfacet
  facet normal -0.248902 0.968529 0
    outer loop
      vertex 25.3748 -11.9646 12
      vertex 25.618 -11.9021 2
      vertex 25.3748 -11.9646 2
    endloop
  endfacet
  facet normal -0.770468 0.637478 0
    outer loop
      vertex 26.4579 -11.3691 2
      vertex 26.618 -11.1756 12
      vertex 26.618 -11.1756 2
    endloop
  endfacet
  facet normal -0.770468 0.637478 0
    outer loop
      vertex 26.618 -11.1756 12
      vertex 26.4579 -11.3691 2
      vertex 26.4579 -11.3691 12
    endloop
  endfacet
  facet normal -0.844333 0.535819 0
    outer loop
      vertex 26.618 -11.1756 2
      vertex 26.7526 -10.9635 12
      vertex 26.7526 -10.9635 2
    endloop
  endfacet
  facet normal -0.844333 0.535819 0
    outer loop
      vertex 26.7526 -10.9635 12
      vertex 26.618 -11.1756 2
      vertex 26.618 -11.1756 12
    endloop
  endfacet
  facet normal -0.588148 -0.808753 0
    outer loop
      vertex 26.0717 11.6887 2
      vertex 26.2748 11.541 12
      vertex 26.0717 11.6887 12
    endloop
  endfacet
  facet normal -0.588148 -0.808753 -0
    outer loop
      vertex 26.2748 11.541 12
      vertex 26.0717 11.6887 2
      vertex 26.2748 11.541 2
    endloop
  endfacet
  facet normal -0.248902 -0.968529 0
    outer loop
      vertex 25.3748 11.9646 2
      vertex 25.618 11.9021 12
      vertex 25.3748 11.9646 12
    endloop
  endfacet
  facet normal -0.248902 -0.968529 -0
    outer loop
      vertex 25.618 11.9021 12
      vertex 25.3748 11.9646 2
      vertex 25.618 11.9021 2
    endloop
  endfacet
  facet normal 0.982332 -0.187149 0
    outer loop
      vertex -26.9842 10.2507 12
      vertex -26.9372 10.4974 2
      vertex -26.9372 10.4974 12
    endloop
  endfacet
  facet normal 0.982332 -0.187149 0
    outer loop
      vertex -26.9372 10.4974 2
      vertex -26.9842 10.2507 12
      vertex -26.9842 10.2507 2
    endloop
  endfacet
  facet normal 0.770468 -0.637478 0
    outer loop
      vertex -26.618 11.1756 12
      vertex -26.4579 11.3691 2
      vertex -26.4579 11.3691 12
    endloop
  endfacet
  facet normal 0.770468 -0.637478 0
    outer loop
      vertex -26.4579 11.3691 2
      vertex -26.618 11.1756 12
      vertex -26.618 11.1756 2
    endloop
  endfacet
  facet normal -0.481751 0.876308 0
    outer loop
      vertex 26.0717 -11.6887 2
      vertex 25.8516 -11.8097 12
      vertex 26.0717 -11.6887 12
    endloop
  endfacet
  facet normal -0.481751 0.876308 0
    outer loop
      vertex 25.8516 -11.8097 12
      vertex 26.0717 -11.6887 2
      vertex 25.8516 -11.8097 2
    endloop
  endfacet
  facet normal -0.684458 0.729053 0
    outer loop
      vertex 26.4579 -11.3691 2
      vertex 26.2748 -11.541 12
      vertex 26.4579 -11.3691 12
    endloop
  endfacet
  facet normal -0.684458 0.729053 0
    outer loop
      vertex 26.2748 -11.541 12
      vertex 26.4579 -11.3691 2
      vertex 26.2748 -11.541 2
    endloop
  endfacet
  facet normal -0.588148 0.808753 0
    outer loop
      vertex 26.2748 -11.541 2
      vertex 26.0717 -11.6887 12
      vertex 26.2748 -11.541 12
    endloop
  endfacet
  facet normal -0.588148 0.808753 0
    outer loop
      vertex 26.0717 -11.6887 12
      vertex 26.2748 -11.541 2
      vertex 26.0717 -11.6887 2
    endloop
  endfacet
  facet normal 0.951046 -0.30905 0
    outer loop
      vertex -26.9372 10.4974 12
      vertex -26.8596 10.7362 2
      vertex -26.8596 10.7362 12
    endloop
  endfacet
  facet normal 0.951046 -0.30905 0
    outer loop
      vertex -26.8596 10.7362 2
      vertex -26.9372 10.4974 12
      vertex -26.9372 10.4974 2
    endloop
  endfacet
  facet normal 0.904765 -0.425912 0
    outer loop
      vertex -26.8596 10.7362 12
      vertex -26.7526 10.9635 2
      vertex -26.7526 10.9635 12
    endloop
  endfacet
  facet normal 0.904765 -0.425912 0
    outer loop
      vertex -26.7526 10.9635 2
      vertex -26.8596 10.7362 12
      vertex -26.8596 10.7362 2
    endloop
  endfacet
endsolid OpenSCAD_Model
