solid OpenSCAD_Model
  facet normal -1 0 0
    outer loop
      vertex -112.5 -25 0
      vertex -112.5 25 21
      vertex -112.5 25 0
    endloop
  endfacet
  facet normal -1 -0 0
    outer loop
      vertex -112.5 25 21
      vertex -112.5 -25 0
      vertex -112.5 -25 21
    endloop
  endfacet
  facet normal 0.998069 0.0621106 0
    outer loop
      vertex 112.5 25 21
      vertex 112.461 25.6267 0
      vertex 112.461 25.6267 21
    endloop
  endfacet
  facet normal 0.998069 0.0621106 0
    outer loop
      vertex 112.461 25.6267 0
      vertex 112.5 25 21
      vertex 112.5 25 0
    endloop
  endfacet
  facet normal 0 0 1
    outer loop
      vertex 111.5 25 21
      vertex 112.5 25 21
      vertex 112.461 25.6267 21
    endloop
  endfacet
  facet normal 0 0 1
    outer loop
      vertex 112.5 25 21
      vertex 111.5 25 21
      vertex 112.5 -25 21
    endloop
  endfacet
  facet normal 0 0 1
    outer loop
      vertex 111.468 25.5013 21
      vertex 112.461 25.6267 21
      vertex 112.343 26.2435 21
    endloop
  endfacet
  facet normal 0 0 1
    outer loop
      vertex 111.5 -25 21
      vertex 112.5 -25 21
      vertex 111.5 25 21
    endloop
  endfacet
  facet normal 0 0 1
    outer loop
      vertex 111.374 25.9948 21
      vertex 112.343 26.2435 21
      vertex 112.149 26.8406 21
    endloop
  endfacet
  facet normal 0 0 1
    outer loop
      vertex 112.5 -25 21
      vertex 111.5 -25 21
      vertex 112.461 -25.6267 21
    endloop
  endfacet
  facet normal 0 0 1
    outer loop
      vertex 111.219 26.4725 21
      vertex 112.149 26.8406 21
      vertex 111.882 27.4088 21
    endloop
  endfacet
  facet normal -0 0 1
    outer loop
      vertex 111.468 -25.5013 21
      vertex 112.461 -25.6267 21
      vertex 111.5 -25 21
    endloop
  endfacet
  facet normal 0 0 1
    outer loop
      vertex 111.005 26.927 21
      vertex 111.882 27.4088 21
      vertex 111.545 27.9389 21
    endloop
  endfacet
  facet normal 0 0 1
    outer loop
      vertex 112.461 -25.6267 21
      vertex 111.468 -25.5013 21
      vertex 112.343 -26.2435 21
    endloop
  endfacet
  facet normal -0 0 1
    outer loop
      vertex 111.374 -25.9948 21
      vertex 112.343 -26.2435 21
      vertex 111.468 -25.5013 21
    endloop
  endfacet
  facet normal 0 0 1
    outer loop
      vertex 112.461 25.6267 21
      vertex 111.468 25.5013 21
      vertex 111.5 25 21
    endloop
  endfacet
  facet normal 0 0 1
    outer loop
      vertex 112.343 26.2435 21
      vertex 111.374 25.9948 21
      vertex 111.468 25.5013 21
    endloop
  endfacet
  facet normal 0 0 1
    outer loop
      vertex 112.149 26.8406 21
      vertex 111.219 26.4725 21
      vertex 111.374 25.9948 21
    endloop
  endfacet
  facet normal 0 0 1
    outer loop
      vertex 110.736 27.3511 21
      vertex 111.545 27.9389 21
      vertex 111.145 28.4227 21
    endloop
  endfacet
  facet normal 0 0 1
    outer loop
      vertex 111.882 27.4088 21
      vertex 111.005 26.927 21
      vertex 111.219 26.4725 21
    endloop
  endfacet
  facet normal 0 0 1
    outer loop
      vertex 111.545 27.9389 21
      vertex 110.736 27.3511 21
      vertex 111.005 26.927 21
    endloop
  endfacet
  facet normal 0 0 1
    outer loop
      vertex 110.416 27.7382 21
      vertex 111.145 28.4227 21
      vertex 110.687 28.8526 21
    endloop
  endfacet
  facet normal 0 0 1
    outer loop
      vertex 111.145 28.4227 21
      vertex 110.416 27.7382 21
      vertex 110.736 27.3511 21
    endloop
  endfacet
  facet normal 0 0 1
    outer loop
      vertex 110.05 28.0821 21
      vertex 110.687 28.8526 21
      vertex 110.179 29.2216 21
    endloop
  endfacet
  facet normal 0 0 1
    outer loop
      vertex 110.687 28.8526 21
      vertex 110.05 28.0821 21
      vertex 110.416 27.7382 21
    endloop
  endfacet
  facet normal 0 0 1
    outer loop
      vertex 110.179 29.2216 21
      vertex 109.643 28.3773 21
      vertex 110.05 28.0821 21
    endloop
  endfacet
  facet normal 0 0 1
    outer loop
      vertex 109.629 29.5241 21
      vertex 109.643 28.3773 21
      vertex 110.179 29.2216 21
    endloop
  endfacet
  facet normal 0 0 1
    outer loop
      vertex 109.629 29.5241 21
      vertex 109.203 28.6193 21
      vertex 109.643 28.3773 21
    endloop
  endfacet
  facet normal 0 0 1
    outer loop
      vertex 109.045 29.7553 21
      vertex 109.203 28.6193 21
      vertex 109.629 29.5241 21
    endloop
  endfacet
  facet normal 0 0 1
    outer loop
      vertex 109.045 29.7553 21
      vertex 108.736 28.8042 21
      vertex 109.203 28.6193 21
    endloop
  endfacet
  facet normal 0 0 1
    outer loop
      vertex 108.437 29.9114 21
      vertex 108.736 28.8042 21
      vertex 109.045 29.7553 21
    endloop
  endfacet
  facet normal 0 0 1
    outer loop
      vertex 108.437 29.9114 21
      vertex 108.25 28.9291 21
      vertex 108.736 28.8042 21
    endloop
  endfacet
  facet normal 0 0 1
    outer loop
      vertex 107.814 29.9901 21
      vertex 108.25 28.9291 21
      vertex 108.437 29.9114 21
    endloop
  endfacet
  facet normal 0 0 1
    outer loop
      vertex 107.814 29.9901 21
      vertex 107.751 28.9921 21
      vertex 108.25 28.9291 21
    endloop
  endfacet
  facet normal 0 0 1
    outer loop
      vertex 107.814 29.9901 21
      vertex -107.751 28.9921 21
      vertex 107.751 28.9921 21
    endloop
  endfacet
  facet normal -0 0 1
    outer loop
      vertex -107.814 29.9901 21
      vertex -107.751 28.9921 21
      vertex 107.814 29.9901 21
    endloop
  endfacet
  facet normal 0 0 1
    outer loop
      vertex -107.814 29.9901 21
      vertex -108.25 28.9291 21
      vertex -107.751 28.9921 21
    endloop
  endfacet
  facet normal -0 0 1
    outer loop
      vertex -108.437 29.9114 21
      vertex -108.25 28.9291 21
      vertex -107.814 29.9901 21
    endloop
  endfacet
  facet normal 0 0 1
    outer loop
      vertex -108.437 29.9114 21
      vertex -108.736 28.8042 21
      vertex -108.25 28.9291 21
    endloop
  endfacet
  facet normal -0 0 1
    outer loop
      vertex -109.045 29.7553 21
      vertex -108.736 28.8042 21
      vertex -108.437 29.9114 21
    endloop
  endfacet
  facet normal 0 0 1
    outer loop
      vertex -109.045 29.7553 21
      vertex -109.203 28.6193 21
      vertex -108.736 28.8042 21
    endloop
  endfacet
  facet normal -0 0 1
    outer loop
      vertex -109.629 29.5241 21
      vertex -109.203 28.6193 21
      vertex -109.045 29.7553 21
    endloop
  endfacet
  facet normal 0 0 1
    outer loop
      vertex -109.629 29.5241 21
      vertex -109.643 28.3773 21
      vertex -109.203 28.6193 21
    endloop
  endfacet
  facet normal -0 0 1
    outer loop
      vertex -110.179 29.2216 21
      vertex -109.643 28.3773 21
      vertex -109.629 29.5241 21
    endloop
  endfacet
  facet normal 0 0 1
    outer loop
      vertex -109.643 28.3773 21
      vertex -110.179 29.2216 21
      vertex -110.05 28.0821 21
    endloop
  endfacet
  facet normal -0 0 1
    outer loop
      vertex -110.687 28.8526 21
      vertex -110.05 28.0821 21
      vertex -110.179 29.2216 21
    endloop
  endfacet
  facet normal 0 0 1
    outer loop
      vertex -110.05 28.0821 21
      vertex -110.687 28.8526 21
      vertex -110.416 27.7382 21
    endloop
  endfacet
  facet normal -0 0 1
    outer loop
      vertex -111.145 28.4227 21
      vertex -110.416 27.7382 21
      vertex -110.687 28.8526 21
    endloop
  endfacet
  facet normal 0 0 1
    outer loop
      vertex -110.416 27.7382 21
      vertex -111.145 28.4227 21
      vertex -110.736 27.3511 21
    endloop
  endfacet
  facet normal -0 0 1
    outer loop
      vertex -111.545 27.9389 21
      vertex -110.736 27.3511 21
      vertex -111.145 28.4227 21
    endloop
  endfacet
  facet normal 0 0 1
    outer loop
      vertex -110.736 27.3511 21
      vertex -111.545 27.9389 21
      vertex -111.005 26.927 21
    endloop
  endfacet
  facet normal -0 0 1
    outer loop
      vertex -111.882 27.4088 21
      vertex -111.005 26.927 21
      vertex -111.545 27.9389 21
    endloop
  endfacet
  facet normal 0 0 1
    outer loop
      vertex -111.005 26.927 21
      vertex -111.882 27.4088 21
      vertex -111.219 26.4725 21
    endloop
  endfacet
  facet normal -0 0 1
    outer loop
      vertex -112.343 26.2435 21
      vertex -111.374 25.9948 21
      vertex -112.149 26.8406 21
    endloop
  endfacet
  facet normal 0 0 1
    outer loop
      vertex -111.219 26.4725 21
      vertex -112.149 26.8406 21
      vertex -111.374 25.9948 21
    endloop
  endfacet
  facet normal -0 0 1
    outer loop
      vertex -112.149 26.8406 21
      vertex -111.219 26.4725 21
      vertex -111.882 27.4088 21
    endloop
  endfacet
  facet normal 0 0 1
    outer loop
      vertex 112.343 -26.2435 21
      vertex 111.374 -25.9948 21
      vertex 112.149 -26.8406 21
    endloop
  endfacet
  facet normal -0 0 1
    outer loop
      vertex 111.219 -26.4725 21
      vertex 112.149 -26.8406 21
      vertex 111.374 -25.9948 21
    endloop
  endfacet
  facet normal 0 0 1
    outer loop
      vertex 112.149 -26.8406 21
      vertex 111.219 -26.4725 21
      vertex 111.882 -27.4088 21
    endloop
  endfacet
  facet normal -0 0 1
    outer loop
      vertex 111.005 -26.927 21
      vertex 111.882 -27.4088 21
      vertex 111.219 -26.4725 21
    endloop
  endfacet
  facet normal 0 0 1
    outer loop
      vertex 111.882 -27.4088 21
      vertex 111.005 -26.927 21
      vertex 111.545 -27.9389 21
    endloop
  endfacet
  facet normal -0 0 1
    outer loop
      vertex 110.736 -27.3511 21
      vertex 111.545 -27.9389 21
      vertex 111.005 -26.927 21
    endloop
  endfacet
  facet normal 0 0 1
    outer loop
      vertex 111.545 -27.9389 21
      vertex 110.736 -27.3511 21
      vertex 111.145 -28.4227 21
    endloop
  endfacet
  facet normal -0 0 1
    outer loop
      vertex 110.416 -27.7382 21
      vertex 111.145 -28.4227 21
      vertex 110.736 -27.3511 21
    endloop
  endfacet
  facet normal 0 0 1
    outer loop
      vertex 111.145 -28.4227 21
      vertex 110.416 -27.7382 21
      vertex 110.687 -28.8526 21
    endloop
  endfacet
  facet normal -0 0 1
    outer loop
      vertex 110.05 -28.0821 21
      vertex 110.687 -28.8526 21
      vertex 110.416 -27.7382 21
    endloop
  endfacet
  facet normal 0 0 1
    outer loop
      vertex 110.687 -28.8526 21
      vertex 110.05 -28.0821 21
      vertex 110.179 -29.2216 21
    endloop
  endfacet
  facet normal -0 0 1
    outer loop
      vertex 109.643 -28.3773 21
      vertex 110.179 -29.2216 21
      vertex 110.05 -28.0821 21
    endloop
  endfacet
  facet normal 0 0 1
    outer loop
      vertex 109.643 -28.3773 21
      vertex 109.629 -29.5241 21
      vertex 110.179 -29.2216 21
    endloop
  endfacet
  facet normal -0 0 1
    outer loop
      vertex 109.203 -28.6193 21
      vertex 109.629 -29.5241 21
      vertex 109.643 -28.3773 21
    endloop
  endfacet
  facet normal 0 0 1
    outer loop
      vertex 109.203 -28.6193 21
      vertex 109.045 -29.7553 21
      vertex 109.629 -29.5241 21
    endloop
  endfacet
  facet normal -0 0 1
    outer loop
      vertex 108.736 -28.8042 21
      vertex 109.045 -29.7553 21
      vertex 109.203 -28.6193 21
    endloop
  endfacet
  facet normal 0 0 1
    outer loop
      vertex 108.736 -28.8042 21
      vertex 108.437 -29.9114 21
      vertex 109.045 -29.7553 21
    endloop
  endfacet
  facet normal -0 0 1
    outer loop
      vertex 108.25 -28.9291 21
      vertex 108.437 -29.9114 21
      vertex 108.736 -28.8042 21
    endloop
  endfacet
  facet normal 0 0 1
    outer loop
      vertex 108.25 -28.9291 21
      vertex 107.814 -29.9901 21
      vertex 108.437 -29.9114 21
    endloop
  endfacet
  facet normal -0 0 1
    outer loop
      vertex 107.751 -28.9921 21
      vertex 107.814 -29.9901 21
      vertex 108.25 -28.9291 21
    endloop
  endfacet
  facet normal -0 0 1
    outer loop
      vertex -107.751 -28.9921 21
      vertex 107.814 -29.9901 21
      vertex 107.751 -28.9921 21
    endloop
  endfacet
  facet normal 0 0 1
    outer loop
      vertex -107.751 -28.9921 21
      vertex -107.814 -29.9901 21
      vertex 107.814 -29.9901 21
    endloop
  endfacet
  facet normal 0 0 1
    outer loop
      vertex -108.25 -28.9291 21
      vertex -107.814 -29.9901 21
      vertex -107.751 -28.9921 21
    endloop
  endfacet
  facet normal 0 0 1
    outer loop
      vertex -108.25 -28.9291 21
      vertex -108.437 -29.9114 21
      vertex -107.814 -29.9901 21
    endloop
  endfacet
  facet normal 0 0 1
    outer loop
      vertex -108.736 -28.8042 21
      vertex -108.437 -29.9114 21
      vertex -108.25 -28.9291 21
    endloop
  endfacet
  facet normal 0 0 1
    outer loop
      vertex -108.736 -28.8042 21
      vertex -109.045 -29.7553 21
      vertex -108.437 -29.9114 21
    endloop
  endfacet
  facet normal 0 0 1
    outer loop
      vertex -109.203 -28.6193 21
      vertex -109.045 -29.7553 21
      vertex -108.736 -28.8042 21
    endloop
  endfacet
  facet normal 0 0 1
    outer loop
      vertex -109.203 -28.6193 21
      vertex -109.629 -29.5241 21
      vertex -109.045 -29.7553 21
    endloop
  endfacet
  facet normal 0 0 1
    outer loop
      vertex -109.643 -28.3773 21
      vertex -109.629 -29.5241 21
      vertex -109.203 -28.6193 21
    endloop
  endfacet
  facet normal 0 0 1
    outer loop
      vertex -110.179 -29.2216 21
      vertex -109.643 -28.3773 21
      vertex -110.05 -28.0821 21
    endloop
  endfacet
  facet normal 0 0 1
    outer loop
      vertex -109.643 -28.3773 21
      vertex -110.179 -29.2216 21
      vertex -109.629 -29.5241 21
    endloop
  endfacet
  facet normal 0 0 1
    outer loop
      vertex -110.687 -28.8526 21
      vertex -110.05 -28.0821 21
      vertex -110.416 -27.7382 21
    endloop
  endfacet
  facet normal 0 0 1
    outer loop
      vertex -110.05 -28.0821 21
      vertex -110.687 -28.8526 21
      vertex -110.179 -29.2216 21
    endloop
  endfacet
  facet normal 0 0 1
    outer loop
      vertex -111.145 -28.4227 21
      vertex -110.416 -27.7382 21
      vertex -110.736 -27.3511 21
    endloop
  endfacet
  facet normal 0 0 1
    outer loop
      vertex -111.545 -27.9389 21
      vertex -110.736 -27.3511 21
      vertex -111.005 -26.927 21
    endloop
  endfacet
  facet normal 0 0 1
    outer loop
      vertex -110.416 -27.7382 21
      vertex -111.145 -28.4227 21
      vertex -110.687 -28.8526 21
    endloop
  endfacet
  facet normal 0 0 1
    outer loop
      vertex -111.882 -27.4088 21
      vertex -111.005 -26.927 21
      vertex -111.219 -26.4725 21
    endloop
  endfacet
  facet normal 0 0 1
    outer loop
      vertex -112.149 -26.8406 21
      vertex -111.219 -26.4725 21
      vertex -111.374 -25.9948 21
    endloop
  endfacet
  facet normal 0 0 1
    outer loop
      vertex -112.343 -26.2435 21
      vertex -111.374 -25.9948 21
      vertex -111.468 -25.5013 21
    endloop
  endfacet
  facet normal 0 0 1
    outer loop
      vertex -110.736 -27.3511 21
      vertex -111.545 -27.9389 21
      vertex -111.145 -28.4227 21
    endloop
  endfacet
  facet normal 0 0 1
    outer loop
      vertex -112.461 -25.6267 21
      vertex -111.468 -25.5013 21
      vertex -111.5 -25 21
    endloop
  endfacet
  facet normal 0 0 1
    outer loop
      vertex -111.5 25 21
      vertex -112.5 25 21
      vertex -111.5 -25 21
    endloop
  endfacet
  facet normal 0 0 1
    outer loop
      vertex -111.374 25.9948 21
      vertex -112.343 26.2435 21
      vertex -111.468 25.5013 21
    endloop
  endfacet
  facet normal 0 0 1
    outer loop
      vertex -112.5 -25 21
      vertex -111.5 -25 21
      vertex -112.5 25 21
    endloop
  endfacet
  facet normal -0 0 1
    outer loop
      vertex -112.461 25.6267 21
      vertex -111.468 25.5013 21
      vertex -112.343 26.2435 21
    endloop
  endfacet
  facet normal 0 -0 1
    outer loop
      vertex -112.461 -25.6267 21
      vertex -111.5 -25 21
      vertex -112.5 -25 21
    endloop
  endfacet
  facet normal 0 0 1
    outer loop
      vertex -111.468 25.5013 21
      vertex -112.461 25.6267 21
      vertex -111.5 25 21
    endloop
  endfacet
  facet normal 0 0 1
    outer loop
      vertex -111.005 -26.927 21
      vertex -111.882 -27.4088 21
      vertex -111.545 -27.9389 21
    endloop
  endfacet
  facet normal 0 0 1
    outer loop
      vertex -111.5 25 21
      vertex -112.461 25.6267 21
      vertex -112.5 25 21
    endloop
  endfacet
  facet normal 0 0 1
    outer loop
      vertex -111.219 -26.4725 21
      vertex -112.149 -26.8406 21
      vertex -111.882 -27.4088 21
    endloop
  endfacet
  facet normal 0 0 1
    outer loop
      vertex -111.374 -25.9948 21
      vertex -112.343 -26.2435 21
      vertex -112.149 -26.8406 21
    endloop
  endfacet
  facet normal 0 0 1
    outer loop
      vertex -111.468 -25.5013 21
      vertex -112.461 -25.6267 21
      vertex -112.343 -26.2435 21
    endloop
  endfacet
  facet normal 0 -1 0
    outer loop
      vertex -107.814 -29.9901 0
      vertex 107.814 -29.9901 21
      vertex -107.814 -29.9901 21
    endloop
  endfacet
  facet normal 0 -1 -0
    outer loop
      vertex 107.814 -29.9901 21
      vertex -107.814 -29.9901 0
      vertex 107.814 -29.9901 0
    endloop
  endfacet
  facet normal 0 1 -0
    outer loop
      vertex 107.814 29.9901 0
      vertex -107.814 29.9901 21
      vertex 107.814 29.9901 21
    endloop
  endfacet
  facet normal 0 1 0
    outer loop
      vertex -107.814 29.9901 21
      vertex 107.814 29.9901 0
      vertex -107.814 29.9901 0
    endloop
  endfacet
  facet normal -0.684386 -0.72912 0
    outer loop
      vertex -111.145 -28.4227 0
      vertex -110.687 -28.8526 21
      vertex -111.145 -28.4227 21
    endloop
  endfacet
  facet normal -0.684386 -0.72912 -0
    outer loop
      vertex -110.687 -28.8526 21
      vertex -111.145 -28.4227 0
      vertex -110.687 -28.8526 0
    endloop
  endfacet
  facet normal 0.998069 -0.0621106 0
    outer loop
      vertex 112.461 -25.6267 21
      vertex 112.5 -25 0
      vertex 112.5 -25 21
    endloop
  endfacet
  facet normal 0.998069 -0.0621106 0
    outer loop
      vertex 112.5 -25 0
      vertex 112.461 -25.6267 21
      vertex 112.461 -25.6267 0
    endloop
  endfacet
  facet normal 0.248678 0.968586 -0
    outer loop
      vertex 109.045 29.7553 0
      vertex 108.437 29.9114 21
      vertex 109.045 29.7553 21
    endloop
  endfacet
  facet normal 0.248678 0.968586 0
    outer loop
      vertex 108.437 29.9114 21
      vertex 109.045 29.7553 0
      vertex 108.437 29.9114 0
    endloop
  endfacet
  facet normal 1 -0 0
    outer loop
      vertex 112.5 -25 21
      vertex 112.5 25 0
      vertex 112.5 25 21
    endloop
  endfacet
  facet normal 1 0 0
    outer loop
      vertex 112.5 25 0
      vertex 112.5 -25 21
      vertex 112.5 -25 0
    endloop
  endfacet
  facet normal -0.951061 -0.309003 0
    outer loop
      vertex -112.149 -26.8406 0
      vertex -112.343 -26.2435 21
      vertex -112.343 -26.2435 0
    endloop
  endfacet
  facet normal -0.951061 -0.309003 0
    outer loop
      vertex -112.343 -26.2435 21
      vertex -112.149 -26.8406 0
      vertex -112.149 -26.8406 21
    endloop
  endfacet
  facet normal -0.368094 -0.929788 0
    outer loop
      vertex -109.629 -29.5241 0
      vertex -109.045 -29.7553 21
      vertex -109.629 -29.5241 21
    endloop
  endfacet
  facet normal -0.368094 -0.929788 -0
    outer loop
      vertex -109.045 -29.7553 21
      vertex -109.629 -29.5241 0
      vertex -109.045 -29.7553 0
    endloop
  endfacet
  facet normal 0.125328 -0.992115 0
    outer loop
      vertex 107.814 -29.9901 0
      vertex 108.437 -29.9114 21
      vertex 107.814 -29.9901 21
    endloop
  endfacet
  facet normal 0.125328 -0.992115 0
    outer loop
      vertex 108.437 -29.9114 21
      vertex 107.814 -29.9901 0
      vertex 108.437 -29.9114 0
    endloop
  endfacet
  facet normal 0.951061 -0.309003 0
    outer loop
      vertex 112.149 -26.8406 21
      vertex 112.343 -26.2435 0
      vertex 112.343 -26.2435 21
    endloop
  endfacet
  facet normal 0.951061 -0.309003 0
    outer loop
      vertex 112.343 -26.2435 0
      vertex 112.149 -26.8406 21
      vertex 112.149 -26.8406 0
    endloop
  endfacet
  facet normal 0.951061 0.309003 0
    outer loop
      vertex 112.343 26.2435 21
      vertex 112.149 26.8406 0
      vertex 112.149 26.8406 21
    endloop
  endfacet
  facet normal 0.951061 0.309003 0
    outer loop
      vertex 112.149 26.8406 0
      vertex 112.343 26.2435 21
      vertex 112.343 26.2435 0
    endloop
  endfacet
  facet normal 0.770696 0.637202 0
    outer loop
      vertex 111.545 27.9389 21
      vertex 111.145 28.4227 0
      vertex 111.145 28.4227 21
    endloop
  endfacet
  facet normal 0.770696 0.637202 0
    outer loop
      vertex 111.145 28.4227 0
      vertex 111.545 27.9389 21
      vertex 111.545 27.9389 0
    endloop
  endfacet
  facet normal 0.125328 0.992115 -0
    outer loop
      vertex 108.437 29.9114 0
      vertex 107.814 29.9901 21
      vertex 108.437 29.9114 21
    endloop
  endfacet
  facet normal 0.125328 0.992115 0
    outer loop
      vertex 107.814 29.9901 21
      vertex 108.437 29.9114 0
      vertex 107.814 29.9901 0
    endloop
  endfacet
  facet normal -0.684386 0.72912 0
    outer loop
      vertex -110.687 28.8526 0
      vertex -111.145 28.4227 21
      vertex -110.687 28.8526 21
    endloop
  endfacet
  facet normal -0.684386 0.72912 0
    outer loop
      vertex -111.145 28.4227 21
      vertex -110.687 28.8526 0
      vertex -111.145 28.4227 0
    endloop
  endfacet
  facet normal -0.998069 -0.0621106 0
    outer loop
      vertex -112.461 -25.6267 0
      vertex -112.5 -25 21
      vertex -112.5 -25 0
    endloop
  endfacet
  facet normal -0.998069 -0.0621106 0
    outer loop
      vertex -112.5 -25 21
      vertex -112.461 -25.6267 0
      vertex -112.461 -25.6267 21
    endloop
  endfacet
  facet normal 0 0 -1
    outer loop
      vertex 107.814 -29.9901 0
      vertex 112.5 -25 0
      vertex 112.461 -25.6267 0
    endloop
  endfacet
  facet normal -0 0 -1
    outer loop
      vertex 112.5 -25 0
      vertex 107.814 -29.9901 0
      vertex 112.5 25 0
    endloop
  endfacet
  facet normal 0 0 -1
    outer loop
      vertex 107.814 -29.9901 0
      vertex 112.461 -25.6267 0
      vertex 112.343 -26.2435 0
    endloop
  endfacet
  facet normal 0 0 -1
    outer loop
      vertex 107.814 29.9901 0
      vertex 112.5 25 0
      vertex 107.814 -29.9901 0
    endloop
  endfacet
  facet normal 0 0 -1
    outer loop
      vertex 107.814 -29.9901 0
      vertex 112.343 -26.2435 0
      vertex 112.149 -26.8406 0
    endloop
  endfacet
  facet normal 0 0 -1
    outer loop
      vertex 112.5 25 0
      vertex 107.814 29.9901 0
      vertex 112.461 25.6267 0
    endloop
  endfacet
  facet normal 0 0 -1
    outer loop
      vertex 107.814 -29.9901 0
      vertex 112.149 -26.8406 0
      vertex 111.882 -27.4088 0
    endloop
  endfacet
  facet normal 0 0 -1
    outer loop
      vertex 112.461 25.6267 0
      vertex 107.814 29.9901 0
      vertex 112.343 26.2435 0
    endloop
  endfacet
  facet normal 0 0 -1
    outer loop
      vertex 107.814 -29.9901 0
      vertex 111.882 -27.4088 0
      vertex 111.545 -27.9389 0
    endloop
  endfacet
  facet normal 0 0 -1
    outer loop
      vertex 112.343 26.2435 0
      vertex 107.814 29.9901 0
      vertex 112.149 26.8406 0
    endloop
  endfacet
  facet normal 0 0 -1
    outer loop
      vertex 107.814 -29.9901 0
      vertex 111.545 -27.9389 0
      vertex 111.145 -28.4227 0
    endloop
  endfacet
  facet normal 0 0 -1
    outer loop
      vertex 112.149 26.8406 0
      vertex 107.814 29.9901 0
      vertex 111.882 27.4088 0
    endloop
  endfacet
  facet normal 0 0 -1
    outer loop
      vertex 107.814 -29.9901 0
      vertex 111.145 -28.4227 0
      vertex 110.687 -28.8526 0
    endloop
  endfacet
  facet normal 0 0 -1
    outer loop
      vertex 111.882 27.4088 0
      vertex 107.814 29.9901 0
      vertex 111.545 27.9389 0
    endloop
  endfacet
  facet normal 0 0 -1
    outer loop
      vertex 107.814 -29.9901 0
      vertex 110.687 -28.8526 0
      vertex 110.179 -29.2216 0
    endloop
  endfacet
  facet normal 0 0 -1
    outer loop
      vertex 111.545 27.9389 0
      vertex 107.814 29.9901 0
      vertex 111.145 28.4227 0
    endloop
  endfacet
  facet normal 0 0 -1
    outer loop
      vertex 107.814 -29.9901 0
      vertex 110.179 -29.2216 0
      vertex 109.629 -29.5241 0
    endloop
  endfacet
  facet normal 0 0 -1
    outer loop
      vertex 111.145 28.4227 0
      vertex 107.814 29.9901 0
      vertex 110.687 28.8526 0
    endloop
  endfacet
  facet normal 0 0 -1
    outer loop
      vertex 107.814 -29.9901 0
      vertex 109.629 -29.5241 0
      vertex 109.045 -29.7553 0
    endloop
  endfacet
  facet normal 0 0 -1
    outer loop
      vertex 110.687 28.8526 0
      vertex 107.814 29.9901 0
      vertex 110.179 29.2216 0
    endloop
  endfacet
  facet normal 0 0 -1
    outer loop
      vertex 107.814 -29.9901 0
      vertex 109.045 -29.7553 0
      vertex 108.437 -29.9114 0
    endloop
  endfacet
  facet normal 0 0 -1
    outer loop
      vertex 110.179 29.2216 0
      vertex 107.814 29.9901 0
      vertex 109.629 29.5241 0
    endloop
  endfacet
  facet normal 0 0 -1
    outer loop
      vertex 109.629 29.5241 0
      vertex 107.814 29.9901 0
      vertex 109.045 29.7553 0
    endloop
  endfacet
  facet normal 0 0 -1
    outer loop
      vertex 109.045 29.7553 0
      vertex 107.814 29.9901 0
      vertex 108.437 29.9114 0
    endloop
  endfacet
  facet normal 0 0 -1
    outer loop
      vertex -107.814 -29.9901 0
      vertex 107.814 29.9901 0
      vertex 107.814 -29.9901 0
    endloop
  endfacet
  facet normal 0 0 -1
    outer loop
      vertex -107.814 -29.9901 0
      vertex -107.814 29.9901 0
      vertex 107.814 29.9901 0
    endloop
  endfacet
  facet normal 0 0 -1
    outer loop
      vertex -112.5 -25 0
      vertex -107.814 -29.9901 0
      vertex -108.437 -29.9114 0
    endloop
  endfacet
  facet normal 0 0 -1
    outer loop
      vertex -107.814 -29.9901 0
      vertex -112.5 -25 0
      vertex -107.814 29.9901 0
    endloop
  endfacet
  facet normal 0 0 -1
    outer loop
      vertex -112.5 -25 0
      vertex -108.437 -29.9114 0
      vertex -109.045 -29.7553 0
    endloop
  endfacet
  facet normal 0 0 -1
    outer loop
      vertex -112.5 25 0
      vertex -107.814 29.9901 0
      vertex -112.5 -25 0
    endloop
  endfacet
  facet normal 0 0 -1
    outer loop
      vertex -112.5 -25 0
      vertex -109.045 -29.7553 0
      vertex -109.629 -29.5241 0
    endloop
  endfacet
  facet normal 0 0 -1
    outer loop
      vertex -107.814 29.9901 0
      vertex -112.5 25 0
      vertex -108.437 29.9114 0
    endloop
  endfacet
  facet normal 0 0 -1
    outer loop
      vertex -112.5 -25 0
      vertex -109.629 -29.5241 0
      vertex -110.179 -29.2216 0
    endloop
  endfacet
  facet normal 0 0 -1
    outer loop
      vertex -108.437 29.9114 0
      vertex -112.5 25 0
      vertex -109.045 29.7553 0
    endloop
  endfacet
  facet normal 0 0 -1
    outer loop
      vertex -112.5 -25 0
      vertex -110.179 -29.2216 0
      vertex -110.687 -28.8526 0
    endloop
  endfacet
  facet normal 0 0 -1
    outer loop
      vertex -109.045 29.7553 0
      vertex -112.5 25 0
      vertex -109.629 29.5241 0
    endloop
  endfacet
  facet normal 0 0 -1
    outer loop
      vertex -112.5 -25 0
      vertex -110.687 -28.8526 0
      vertex -111.145 -28.4227 0
    endloop
  endfacet
  facet normal 0 0 -1
    outer loop
      vertex -109.629 29.5241 0
      vertex -112.5 25 0
      vertex -110.179 29.2216 0
    endloop
  endfacet
  facet normal 0 0 -1
    outer loop
      vertex -112.5 -25 0
      vertex -111.145 -28.4227 0
      vertex -111.545 -27.9389 0
    endloop
  endfacet
  facet normal 0 0 -1
    outer loop
      vertex -110.179 29.2216 0
      vertex -112.5 25 0
      vertex -110.687 28.8526 0
    endloop
  endfacet
  facet normal 0 0 -1
    outer loop
      vertex -112.5 -25 0
      vertex -111.545 -27.9389 0
      vertex -111.882 -27.4088 0
    endloop
  endfacet
  facet normal 0 0 -1
    outer loop
      vertex -110.687 28.8526 0
      vertex -112.5 25 0
      vertex -111.145 28.4227 0
    endloop
  endfacet
  facet normal 0 0 -1
    outer loop
      vertex -112.5 -25 0
      vertex -111.882 -27.4088 0
      vertex -112.149 -26.8406 0
    endloop
  endfacet
  facet normal 0 0 -1
    outer loop
      vertex -111.145 28.4227 0
      vertex -112.5 25 0
      vertex -111.545 27.9389 0
    endloop
  endfacet
  facet normal 0 0 -1
    outer loop
      vertex -112.5 -25 0
      vertex -112.149 -26.8406 0
      vertex -112.343 -26.2435 0
    endloop
  endfacet
  facet normal 0 0 -1
    outer loop
      vertex -111.545 27.9389 0
      vertex -112.5 25 0
      vertex -111.882 27.4088 0
    endloop
  endfacet
  facet normal 0 0 -1
    outer loop
      vertex -112.5 -25 0
      vertex -112.343 -26.2435 0
      vertex -112.461 -25.6267 0
    endloop
  endfacet
  facet normal 0 0 -1
    outer loop
      vertex -111.882 27.4088 0
      vertex -112.5 25 0
      vertex -112.149 26.8406 0
    endloop
  endfacet
  facet normal 0 0 -1
    outer loop
      vertex -112.149 26.8406 0
      vertex -112.5 25 0
      vertex -112.343 26.2435 0
    endloop
  endfacet
  facet normal 0 0 -1
    outer loop
      vertex -112.343 26.2435 0
      vertex -112.5 25 0
      vertex -112.461 25.6267 0
    endloop
  endfacet
  facet normal -0.982188 -0.187902 0
    outer loop
      vertex -112.343 -26.2435 0
      vertex -112.461 -25.6267 21
      vertex -112.461 -25.6267 0
    endloop
  endfacet
  facet normal -0.982188 -0.187902 0
    outer loop
      vertex -112.461 -25.6267 21
      vertex -112.343 -26.2435 0
      vertex -112.343 -26.2435 21
    endloop
  endfacet
  facet normal -0.770696 -0.637202 0
    outer loop
      vertex -111.145 -28.4227 0
      vertex -111.545 -27.9389 21
      vertex -111.545 -27.9389 0
    endloop
  endfacet
  facet normal -0.770696 -0.637202 0
    outer loop
      vertex -111.545 -27.9389 21
      vertex -111.145 -28.4227 0
      vertex -111.145 -28.4227 21
    endloop
  endfacet
  facet normal -0.905057 -0.425291 0
    outer loop
      vertex -111.882 -27.4088 0
      vertex -112.149 -26.8406 21
      vertex -112.149 -26.8406 0
    endloop
  endfacet
  facet normal -0.905057 -0.425291 0
    outer loop
      vertex -112.149 -26.8406 21
      vertex -111.882 -27.4088 0
      vertex -111.882 -27.4088 21
    endloop
  endfacet
  facet normal -0.587698 -0.80908 0
    outer loop
      vertex -110.687 -28.8526 0
      vertex -110.179 -29.2216 21
      vertex -110.687 -28.8526 21
    endloop
  endfacet
  facet normal -0.587698 -0.80908 -0
    outer loop
      vertex -110.179 -29.2216 21
      vertex -110.687 -28.8526 0
      vertex -110.179 -29.2216 0
    endloop
  endfacet
  facet normal -0.248678 -0.968586 0
    outer loop
      vertex -109.045 -29.7553 0
      vertex -108.437 -29.9114 21
      vertex -109.045 -29.7553 21
    endloop
  endfacet
  facet normal -0.248678 -0.968586 -0
    outer loop
      vertex -108.437 -29.9114 21
      vertex -109.045 -29.7553 0
      vertex -108.437 -29.9114 0
    endloop
  endfacet
  facet normal -0.125328 -0.992115 0
    outer loop
      vertex -108.437 -29.9114 0
      vertex -107.814 -29.9901 21
      vertex -108.437 -29.9114 21
    endloop
  endfacet
  facet normal -0.125328 -0.992115 -0
    outer loop
      vertex -107.814 -29.9901 21
      vertex -108.437 -29.9114 0
      vertex -107.814 -29.9901 0
    endloop
  endfacet
  facet normal 0.982188 -0.187902 0
    outer loop
      vertex 112.343 -26.2435 21
      vertex 112.461 -25.6267 0
      vertex 112.461 -25.6267 21
    endloop
  endfacet
  facet normal 0.982188 -0.187902 0
    outer loop
      vertex 112.461 -25.6267 0
      vertex 112.343 -26.2435 21
      vertex 112.343 -26.2435 0
    endloop
  endfacet
  facet normal 0.770696 -0.637202 0
    outer loop
      vertex 111.145 -28.4227 21
      vertex 111.545 -27.9389 0
      vertex 111.545 -27.9389 21
    endloop
  endfacet
  facet normal 0.770696 -0.637202 0
    outer loop
      vertex 111.545 -27.9389 0
      vertex 111.145 -28.4227 21
      vertex 111.145 -28.4227 0
    endloop
  endfacet
  facet normal 0.982188 0.187902 0
    outer loop
      vertex 112.461 25.6267 21
      vertex 112.343 26.2435 0
      vertex 112.343 26.2435 21
    endloop
  endfacet
  facet normal 0.982188 0.187902 0
    outer loop
      vertex 112.343 26.2435 0
      vertex 112.461 25.6267 21
      vertex 112.461 25.6267 0
    endloop
  endfacet
  facet normal 0.843904 0.536494 0
    outer loop
      vertex 111.882 27.4088 21
      vertex 111.545 27.9389 0
      vertex 111.545 27.9389 21
    endloop
  endfacet
  facet normal 0.843904 0.536494 0
    outer loop
      vertex 111.545 27.9389 0
      vertex 111.882 27.4088 21
      vertex 111.882 27.4088 0
    endloop
  endfacet
  facet normal 0.905057 0.425291 0
    outer loop
      vertex 112.149 26.8406 21
      vertex 111.882 27.4088 0
      vertex 111.882 27.4088 21
    endloop
  endfacet
  facet normal 0.905057 0.425291 0
    outer loop
      vertex 111.882 27.4088 0
      vertex 112.149 26.8406 21
      vertex 112.149 26.8406 0
    endloop
  endfacet
  facet normal 0.684386 0.72912 -0
    outer loop
      vertex 111.145 28.4227 0
      vertex 110.687 28.8526 21
      vertex 111.145 28.4227 21
    endloop
  endfacet
  facet normal 0.684386 0.72912 0
    outer loop
      vertex 110.687 28.8526 21
      vertex 111.145 28.4227 0
      vertex 110.687 28.8526 0
    endloop
  endfacet
  facet normal -0.770696 0.637202 0
    outer loop
      vertex -111.545 27.9389 0
      vertex -111.145 28.4227 21
      vertex -111.145 28.4227 0
    endloop
  endfacet
  facet normal -0.770696 0.637202 0
    outer loop
      vertex -111.145 28.4227 21
      vertex -111.545 27.9389 0
      vertex -111.545 27.9389 21
    endloop
  endfacet
  facet normal -0.905057 0.425291 0
    outer loop
      vertex -112.149 26.8406 0
      vertex -111.882 27.4088 21
      vertex -111.882 27.4088 0
    endloop
  endfacet
  facet normal -0.905057 0.425291 0
    outer loop
      vertex -111.882 27.4088 21
      vertex -112.149 26.8406 0
      vertex -112.149 26.8406 21
    endloop
  endfacet
  facet normal -0.368094 0.929788 0
    outer loop
      vertex -109.045 29.7553 0
      vertex -109.629 29.5241 21
      vertex -109.045 29.7553 21
    endloop
  endfacet
  facet normal -0.368094 0.929788 0
    outer loop
      vertex -109.629 29.5241 21
      vertex -109.045 29.7553 0
      vertex -109.629 29.5241 0
    endloop
  endfacet
  facet normal -0.843904 -0.536494 0
    outer loop
      vertex -111.545 -27.9389 0
      vertex -111.882 -27.4088 21
      vertex -111.882 -27.4088 0
    endloop
  endfacet
  facet normal -0.843904 -0.536494 0
    outer loop
      vertex -111.882 -27.4088 21
      vertex -111.545 -27.9389 0
      vertex -111.545 -27.9389 21
    endloop
  endfacet
  facet normal -0.481919 -0.876216 0
    outer loop
      vertex -110.179 -29.2216 0
      vertex -109.629 -29.5241 21
      vertex -110.179 -29.2216 21
    endloop
  endfacet
  facet normal -0.481919 -0.876216 -0
    outer loop
      vertex -109.629 -29.5241 21
      vertex -110.179 -29.2216 0
      vertex -109.629 -29.5241 0
    endloop
  endfacet
  facet normal 0.481919 -0.876216 0
    outer loop
      vertex 109.629 -29.5241 0
      vertex 110.179 -29.2216 21
      vertex 109.629 -29.5241 21
    endloop
  endfacet
  facet normal 0.481919 -0.876216 0
    outer loop
      vertex 110.179 -29.2216 21
      vertex 109.629 -29.5241 0
      vertex 110.179 -29.2216 0
    endloop
  endfacet
  facet normal 0.684386 -0.72912 0
    outer loop
      vertex 110.687 -28.8526 0
      vertex 111.145 -28.4227 21
      vertex 110.687 -28.8526 21
    endloop
  endfacet
  facet normal 0.684386 -0.72912 0
    outer loop
      vertex 111.145 -28.4227 21
      vertex 110.687 -28.8526 0
      vertex 111.145 -28.4227 0
    endloop
  endfacet
  facet normal 0.843904 -0.536494 0
    outer loop
      vertex 111.545 -27.9389 21
      vertex 111.882 -27.4088 0
      vertex 111.882 -27.4088 21
    endloop
  endfacet
  facet normal 0.843904 -0.536494 0
    outer loop
      vertex 111.882 -27.4088 0
      vertex 111.545 -27.9389 21
      vertex 111.545 -27.9389 0
    endloop
  endfacet
  facet normal 0.368094 0.929788 -0
    outer loop
      vertex 109.629 29.5241 0
      vertex 109.045 29.7553 21
      vertex 109.629 29.5241 21
    endloop
  endfacet
  facet normal 0.368094 0.929788 0
    outer loop
      vertex 109.045 29.7553 21
      vertex 109.629 29.5241 0
      vertex 109.045 29.7553 0
    endloop
  endfacet
  facet normal 0.481919 0.876216 -0
    outer loop
      vertex 110.179 29.2216 0
      vertex 109.629 29.5241 21
      vertex 110.179 29.2216 21
    endloop
  endfacet
  facet normal 0.481919 0.876216 0
    outer loop
      vertex 109.629 29.5241 21
      vertex 110.179 29.2216 0
      vertex 109.629 29.5241 0
    endloop
  endfacet
  facet normal -0.998069 0.0621106 0
    outer loop
      vertex -112.5 25 0
      vertex -112.461 25.6267 21
      vertex -112.461 25.6267 0
    endloop
  endfacet
  facet normal -0.998069 0.0621106 0
    outer loop
      vertex -112.461 25.6267 21
      vertex -112.5 25 0
      vertex -112.5 25 21
    endloop
  endfacet
  facet normal -0.982188 0.187902 0
    outer loop
      vertex -112.461 25.6267 0
      vertex -112.343 26.2435 21
      vertex -112.343 26.2435 0
    endloop
  endfacet
  facet normal -0.982188 0.187902 0
    outer loop
      vertex -112.343 26.2435 21
      vertex -112.461 25.6267 0
      vertex -112.461 25.6267 21
    endloop
  endfacet
  facet normal -0.951061 0.309003 0
    outer loop
      vertex -112.343 26.2435 0
      vertex -112.149 26.8406 21
      vertex -112.149 26.8406 0
    endloop
  endfacet
  facet normal -0.951061 0.309003 0
    outer loop
      vertex -112.149 26.8406 21
      vertex -112.343 26.2435 0
      vertex -112.343 26.2435 21
    endloop
  endfacet
  facet normal -0.843904 0.536494 0
    outer loop
      vertex -111.882 27.4088 0
      vertex -111.545 27.9389 21
      vertex -111.545 27.9389 0
    endloop
  endfacet
  facet normal -0.843904 0.536494 0
    outer loop
      vertex -111.545 27.9389 21
      vertex -111.882 27.4088 0
      vertex -111.882 27.4088 21
    endloop
  endfacet
  facet normal -0.481919 0.876216 0
    outer loop
      vertex -109.629 29.5241 0
      vertex -110.179 29.2216 21
      vertex -109.629 29.5241 21
    endloop
  endfacet
  facet normal -0.481919 0.876216 0
    outer loop
      vertex -110.179 29.2216 21
      vertex -109.629 29.5241 0
      vertex -110.179 29.2216 0
    endloop
  endfacet
  facet normal -0.587698 0.80908 0
    outer loop
      vertex -110.179 29.2216 0
      vertex -110.687 28.8526 21
      vertex -110.179 29.2216 21
    endloop
  endfacet
  facet normal -0.587698 0.80908 0
    outer loop
      vertex -110.687 28.8526 21
      vertex -110.179 29.2216 0
      vertex -110.687 28.8526 0
    endloop
  endfacet
  facet normal -0.248678 0.968586 0
    outer loop
      vertex -108.437 29.9114 0
      vertex -109.045 29.7553 21
      vertex -108.437 29.9114 21
    endloop
  endfacet
  facet normal -0.248678 0.968586 0
    outer loop
      vertex -109.045 29.7553 21
      vertex -108.437 29.9114 0
      vertex -109.045 29.7553 0
    endloop
  endfacet
  facet normal -0.125328 0.992115 0
    outer loop
      vertex -107.814 29.9901 0
      vertex -108.437 29.9114 21
      vertex -107.814 29.9901 21
    endloop
  endfacet
  facet normal -0.125328 0.992115 0
    outer loop
      vertex -108.437 29.9114 21
      vertex -107.814 29.9901 0
      vertex -108.437 29.9114 0
    endloop
  endfacet
  facet normal 0.248678 -0.968586 0
    outer loop
      vertex 108.437 -29.9114 0
      vertex 109.045 -29.7553 21
      vertex 108.437 -29.9114 21
    endloop
  endfacet
  facet normal 0.248678 -0.968586 0
    outer loop
      vertex 109.045 -29.7553 21
      vertex 108.437 -29.9114 0
      vertex 109.045 -29.7553 0
    endloop
  endfacet
  facet normal 0.368094 -0.929788 0
    outer loop
      vertex 109.045 -29.7553 0
      vertex 109.629 -29.5241 21
      vertex 109.045 -29.7553 21
    endloop
  endfacet
  facet normal 0.368094 -0.929788 0
    outer loop
      vertex 109.629 -29.5241 21
      vertex 109.045 -29.7553 0
      vertex 109.629 -29.5241 0
    endloop
  endfacet
  facet normal 0.905057 -0.425291 0
    outer loop
      vertex 111.882 -27.4088 21
      vertex 112.149 -26.8406 0
      vertex 112.149 -26.8406 21
    endloop
  endfacet
  facet normal 0.905057 -0.425291 0
    outer loop
      vertex 112.149 -26.8406 0
      vertex 111.882 -27.4088 21
      vertex 111.882 -27.4088 0
    endloop
  endfacet
  facet normal 0.587698 0.80908 -0
    outer loop
      vertex 110.687 28.8526 0
      vertex 110.179 29.2216 21
      vertex 110.687 28.8526 21
    endloop
  endfacet
  facet normal 0.587698 0.80908 0
    outer loop
      vertex 110.179 29.2216 21
      vertex 110.687 28.8526 0
      vertex 110.179 29.2216 0
    endloop
  endfacet
  facet normal 0.587698 -0.80908 0
    outer loop
      vertex 110.179 -29.2216 0
      vertex 110.687 -28.8526 21
      vertex 110.179 -29.2216 21
    endloop
  endfacet
  facet normal 0.587698 -0.80908 0
    outer loop
      vertex 110.687 -28.8526 21
      vertex 110.179 -29.2216 0
      vertex 110.687 -28.8526 0
    endloop
  endfacet
  facet normal -0.125258 -0.992124 0
    outer loop
      vertex 107.751 28.9921 2
      vertex 108.25 28.9291 21
      vertex 107.751 28.9921 21
    endloop
  endfacet
  facet normal -0.125258 -0.992124 -0
    outer loop
      vertex 108.25 28.9291 21
      vertex 107.751 28.9921 2
      vertex 108.25 28.9291 2
    endloop
  endfacet
  facet normal 0 -1 0
    outer loop
      vertex -107.751 28.9921 2
      vertex 107.751 28.9921 21
      vertex -107.751 28.9921 21
    endloop
  endfacet
  facet normal 0 -1 -0
    outer loop
      vertex 107.751 28.9921 21
      vertex -107.751 28.9921 2
      vertex 107.751 28.9921 2
    endloop
  endfacet
  facet normal -0.587131 -0.809492 0
    outer loop
      vertex 109.643 28.3773 2
      vertex 110.05 28.0821 21
      vertex 109.643 28.3773 21
    endloop
  endfacet
  facet normal -0.587131 -0.809492 -0
    outer loop
      vertex 110.05 28.0821 21
      vertex 109.643 28.3773 2
      vertex 110.05 28.0821 2
    endloop
  endfacet
  facet normal 0.125258 -0.992124 0
    outer loop
      vertex -108.25 28.9291 2
      vertex -107.751 28.9921 21
      vertex -108.25 28.9291 21
    endloop
  endfacet
  facet normal 0.125258 -0.992124 0
    outer loop
      vertex -107.751 28.9921 21
      vertex -108.25 28.9291 2
      vertex -107.751 28.9921 2
    endloop
  endfacet
  facet normal -0.770745 -0.637144 0
    outer loop
      vertex 110.736 27.3511 2
      vertex 110.416 27.7382 21
      vertex 110.416 27.7382 2
    endloop
  endfacet
  facet normal -0.770745 -0.637144 0
    outer loop
      vertex 110.416 27.7382 21
      vertex 110.736 27.3511 2
      vertex 110.736 27.3511 21
    endloop
  endfacet
  facet normal 0 1 -0
    outer loop
      vertex 107.751 -28.9921 2
      vertex -107.751 -28.9921 21
      vertex 107.751 -28.9921 21
    endloop
  endfacet
  facet normal 0 1 0
    outer loop
      vertex -107.751 -28.9921 21
      vertex 107.751 -28.9921 2
      vertex -107.751 -28.9921 2
    endloop
  endfacet
  facet normal 1 -0 0
    outer loop
      vertex -111.5 -25 21
      vertex -111.5 25 2
      vertex -111.5 25 21
    endloop
  endfacet
  facet normal 1 0 0
    outer loop
      vertex -111.5 25 2
      vertex -111.5 -25 21
      vertex -111.5 -25 2
    endloop
  endfacet
  facet normal 0.770745 -0.637144 0
    outer loop
      vertex -110.736 27.3511 21
      vertex -110.416 27.7382 2
      vertex -110.416 27.7382 21
    endloop
  endfacet
  facet normal 0.770745 -0.637144 0
    outer loop
      vertex -110.416 27.7382 2
      vertex -110.736 27.3511 21
      vertex -110.736 27.3511 2
    endloop
  endfacet
  facet normal 0.368127 -0.929775 0
    outer loop
      vertex -109.203 28.6193 2
      vertex -108.736 28.8042 21
      vertex -109.203 28.6193 21
    endloop
  endfacet
  facet normal 0.368127 -0.929775 0
    outer loop
      vertex -108.736 28.8042 21
      vertex -109.203 28.6193 2
      vertex -108.736 28.8042 2
    endloop
  endfacet
  facet normal 0.982339 -0.187112 0
    outer loop
      vertex -111.468 25.5013 21
      vertex -111.374 25.9948 2
      vertex -111.374 25.9948 21
    endloop
  endfacet
  facet normal 0.982339 -0.187112 0
    outer loop
      vertex -111.374 25.9948 2
      vertex -111.468 25.5013 21
      vertex -111.468 25.5013 2
    endloop
  endfacet
  facet normal 0.481919 -0.876216 0
    outer loop
      vertex -109.643 28.3773 2
      vertex -109.203 28.6193 21
      vertex -109.643 28.3773 21
    endloop
  endfacet
  facet normal 0.481919 -0.876216 0
    outer loop
      vertex -109.203 28.6193 21
      vertex -109.643 28.3773 2
      vertex -109.203 28.6193 2
    endloop
  endfacet
  facet normal 0.684762 -0.728767 0
    outer loop
      vertex -110.416 27.7382 2
      vertex -110.05 28.0821 21
      vertex -110.416 27.7382 21
    endloop
  endfacet
  facet normal 0.684762 -0.728767 0
    outer loop
      vertex -110.05 28.0821 21
      vertex -110.416 27.7382 2
      vertex -110.05 28.0821 2
    endloop
  endfacet
  facet normal -0.368127 -0.929775 0
    outer loop
      vertex 108.736 28.8042 2
      vertex 109.203 28.6193 21
      vertex 108.736 28.8042 21
    endloop
  endfacet
  facet normal -0.368127 -0.929775 -0
    outer loop
      vertex 109.203 28.6193 21
      vertex 108.736 28.8042 2
      vertex 109.203 28.6193 2
    endloop
  endfacet
  facet normal -0.997969 0.0637044 0
    outer loop
      vertex 111.468 -25.5013 2
      vertex 111.5 -25 21
      vertex 111.5 -25 2
    endloop
  endfacet
  facet normal -0.997969 0.0637044 0
    outer loop
      vertex 111.5 -25 21
      vertex 111.468 -25.5013 2
      vertex 111.468 -25.5013 21
    endloop
  endfacet
  facet normal 0.997969 -0.0637044 0
    outer loop
      vertex -111.5 25 21
      vertex -111.468 25.5013 2
      vertex -111.468 25.5013 21
    endloop
  endfacet
  facet normal 0.997969 -0.0637044 0
    outer loop
      vertex -111.468 25.5013 2
      vertex -111.5 25 21
      vertex -111.5 25 2
    endloop
  endfacet
  facet normal 0.951182 -0.308631 0
    outer loop
      vertex -111.374 25.9948 21
      vertex -111.219 26.4725 2
      vertex -111.219 26.4725 21
    endloop
  endfacet
  facet normal 0.951182 -0.308631 0
    outer loop
      vertex -111.219 26.4725 2
      vertex -111.374 25.9948 21
      vertex -111.374 25.9948 2
    endloop
  endfacet
  facet normal -0.248908 -0.968527 0
    outer loop
      vertex 108.25 28.9291 2
      vertex 108.736 28.8042 21
      vertex 108.25 28.9291 21
    endloop
  endfacet
  facet normal -0.248908 -0.968527 -0
    outer loop
      vertex 108.736 28.8042 21
      vertex 108.25 28.9291 2
      vertex 108.736 28.8042 2
    endloop
  endfacet
  facet normal -0.481919 -0.876216 0
    outer loop
      vertex 109.203 28.6193 2
      vertex 109.643 28.3773 21
      vertex 109.203 28.6193 21
    endloop
  endfacet
  facet normal -0.481919 -0.876216 -0
    outer loop
      vertex 109.643 28.3773 21
      vertex 109.203 28.6193 2
      vertex 109.643 28.3773 2
    endloop
  endfacet
  facet normal -0.844456 -0.535625 0
    outer loop
      vertex 111.005 26.927 2
      vertex 110.736 27.3511 21
      vertex 110.736 27.3511 2
    endloop
  endfacet
  facet normal -0.844456 -0.535625 0
    outer loop
      vertex 110.736 27.3511 21
      vertex 111.005 26.927 2
      vertex 111.005 26.927 21
    endloop
  endfacet
  facet normal -0.982339 -0.187112 0
    outer loop
      vertex 111.468 25.5013 2
      vertex 111.374 25.9948 21
      vertex 111.374 25.9948 2
    endloop
  endfacet
  facet normal -0.982339 -0.187112 0
    outer loop
      vertex 111.374 25.9948 21
      vertex 111.468 25.5013 2
      vertex 111.468 25.5013 21
    endloop
  endfacet
  facet normal -0.951182 -0.308631 0
    outer loop
      vertex 111.374 25.9948 2
      vertex 111.219 26.4725 21
      vertex 111.219 26.4725 2
    endloop
  endfacet
  facet normal -0.951182 -0.308631 0
    outer loop
      vertex 111.219 26.4725 21
      vertex 111.374 25.9948 2
      vertex 111.374 25.9948 21
    endloop
  endfacet
  facet normal -0.951182 0.308631 0
    outer loop
      vertex 111.219 -26.4725 2
      vertex 111.374 -25.9948 21
      vertex 111.374 -25.9948 2
    endloop
  endfacet
  facet normal -0.951182 0.308631 0
    outer loop
      vertex 111.374 -25.9948 21
      vertex 111.219 -26.4725 2
      vertex 111.219 -26.4725 21
    endloop
  endfacet
  facet normal -0.684762 0.728767 0
    outer loop
      vertex 110.416 -27.7382 2
      vertex 110.05 -28.0821 21
      vertex 110.416 -27.7382 21
    endloop
  endfacet
  facet normal -0.684762 0.728767 0
    outer loop
      vertex 110.05 -28.0821 21
      vertex 110.416 -27.7382 2
      vertex 110.05 -28.0821 2
    endloop
  endfacet
  facet normal -1 0 0
    outer loop
      vertex 111.5 -25 2
      vertex 111.5 25 21
      vertex 111.5 25 2
    endloop
  endfacet
  facet normal -1 -0 0
    outer loop
      vertex 111.5 25 21
      vertex 111.5 -25 2
      vertex 111.5 -25 21
    endloop
  endfacet
  facet normal 0.368127 0.929775 -0
    outer loop
      vertex -108.736 -28.8042 2
      vertex -109.203 -28.6193 21
      vertex -108.736 -28.8042 21
    endloop
  endfacet
  facet normal 0.368127 0.929775 0
    outer loop
      vertex -109.203 -28.6193 21
      vertex -108.736 -28.8042 2
      vertex -109.203 -28.6193 2
    endloop
  endfacet
  facet normal -0.684762 -0.728767 0
    outer loop
      vertex 110.05 28.0821 2
      vertex 110.416 27.7382 21
      vertex 110.05 28.0821 21
    endloop
  endfacet
  facet normal -0.684762 -0.728767 -0
    outer loop
      vertex 110.416 27.7382 21
      vertex 110.05 28.0821 2
      vertex 110.416 27.7382 2
    endloop
  endfacet
  facet normal -0.904728 -0.425989 0
    outer loop
      vertex 111.219 26.4725 2
      vertex 111.005 26.927 21
      vertex 111.005 26.927 2
    endloop
  endfacet
  facet normal -0.904728 -0.425989 0
    outer loop
      vertex 111.005 26.927 21
      vertex 111.219 26.4725 2
      vertex 111.219 26.4725 21
    endloop
  endfacet
  facet normal -0.997969 -0.0637044 0
    outer loop
      vertex 111.5 25 2
      vertex 111.468 25.5013 21
      vertex 111.468 25.5013 2
    endloop
  endfacet
  facet normal -0.997969 -0.0637044 0
    outer loop
      vertex 111.468 25.5013 21
      vertex 111.5 25 2
      vertex 111.5 25 21
    endloop
  endfacet
  facet normal -0.770745 0.637144 0
    outer loop
      vertex 110.416 -27.7382 2
      vertex 110.736 -27.3511 21
      vertex 110.736 -27.3511 2
    endloop
  endfacet
  facet normal -0.770745 0.637144 0
    outer loop
      vertex 110.736 -27.3511 21
      vertex 110.416 -27.7382 2
      vertex 110.416 -27.7382 21
    endloop
  endfacet
  facet normal -0.481919 0.876216 0
    outer loop
      vertex 109.643 -28.3773 2
      vertex 109.203 -28.6193 21
      vertex 109.643 -28.3773 21
    endloop
  endfacet
  facet normal -0.481919 0.876216 0
    outer loop
      vertex 109.203 -28.6193 21
      vertex 109.643 -28.3773 2
      vertex 109.203 -28.6193 2
    endloop
  endfacet
  facet normal 0.997969 0.0637044 0
    outer loop
      vertex -111.468 -25.5013 21
      vertex -111.5 -25 2
      vertex -111.5 -25 21
    endloop
  endfacet
  facet normal 0.997969 0.0637044 0
    outer loop
      vertex -111.5 -25 2
      vertex -111.468 -25.5013 21
      vertex -111.468 -25.5013 2
    endloop
  endfacet
  facet normal 0.951182 0.308631 0
    outer loop
      vertex -111.219 -26.4725 21
      vertex -111.374 -25.9948 2
      vertex -111.374 -25.9948 21
    endloop
  endfacet
  facet normal 0.951182 0.308631 0
    outer loop
      vertex -111.374 -25.9948 2
      vertex -111.219 -26.4725 21
      vertex -111.219 -26.4725 2
    endloop
  endfacet
  facet normal 0.770745 0.637144 0
    outer loop
      vertex -110.416 -27.7382 21
      vertex -110.736 -27.3511 2
      vertex -110.736 -27.3511 21
    endloop
  endfacet
  facet normal 0.770745 0.637144 0
    outer loop
      vertex -110.736 -27.3511 2
      vertex -110.416 -27.7382 21
      vertex -110.416 -27.7382 2
    endloop
  endfacet
  facet normal 0.684762 0.728767 -0
    outer loop
      vertex -110.05 -28.0821 2
      vertex -110.416 -27.7382 21
      vertex -110.05 -28.0821 21
    endloop
  endfacet
  facet normal 0.684762 0.728767 0
    outer loop
      vertex -110.416 -27.7382 21
      vertex -110.05 -28.0821 2
      vertex -110.416 -27.7382 2
    endloop
  endfacet
  facet normal 0.481919 0.876216 -0
    outer loop
      vertex -109.203 -28.6193 2
      vertex -109.643 -28.3773 21
      vertex -109.203 -28.6193 21
    endloop
  endfacet
  facet normal 0.481919 0.876216 0
    outer loop
      vertex -109.643 -28.3773 21
      vertex -109.203 -28.6193 2
      vertex -109.643 -28.3773 2
    endloop
  endfacet
  facet normal 0.248908 0.968527 -0
    outer loop
      vertex -108.25 -28.9291 2
      vertex -108.736 -28.8042 21
      vertex -108.25 -28.9291 21
    endloop
  endfacet
  facet normal 0.248908 0.968527 0
    outer loop
      vertex -108.736 -28.8042 21
      vertex -108.25 -28.9291 2
      vertex -108.736 -28.8042 2
    endloop
  endfacet
  facet normal 0.125258 0.992124 -0
    outer loop
      vertex -107.751 -28.9921 2
      vertex -108.25 -28.9291 21
      vertex -107.751 -28.9921 21
    endloop
  endfacet
  facet normal 0.125258 0.992124 0
    outer loop
      vertex -108.25 -28.9291 21
      vertex -107.751 -28.9921 2
      vertex -108.25 -28.9291 2
    endloop
  endfacet
  facet normal 0.248908 -0.968527 0
    outer loop
      vertex -108.736 28.8042 2
      vertex -108.25 28.9291 21
      vertex -108.736 28.8042 21
    endloop
  endfacet
  facet normal 0.248908 -0.968527 0
    outer loop
      vertex -108.25 28.9291 21
      vertex -108.736 28.8042 2
      vertex -108.25 28.9291 2
    endloop
  endfacet
  facet normal 0.844456 -0.535625 0
    outer loop
      vertex -111.005 26.927 21
      vertex -110.736 27.3511 2
      vertex -110.736 27.3511 21
    endloop
  endfacet
  facet normal 0.844456 -0.535625 0
    outer loop
      vertex -110.736 27.3511 2
      vertex -111.005 26.927 21
      vertex -111.005 26.927 2
    endloop
  endfacet
  facet normal -0.982339 0.187112 0
    outer loop
      vertex 111.374 -25.9948 2
      vertex 111.468 -25.5013 21
      vertex 111.468 -25.5013 2
    endloop
  endfacet
  facet normal -0.982339 0.187112 0
    outer loop
      vertex 111.468 -25.5013 21
      vertex 111.374 -25.9948 2
      vertex 111.374 -25.9948 21
    endloop
  endfacet
  facet normal -0.844456 0.535625 0
    outer loop
      vertex 110.736 -27.3511 2
      vertex 111.005 -26.927 21
      vertex 111.005 -26.927 2
    endloop
  endfacet
  facet normal -0.844456 0.535625 0
    outer loop
      vertex 111.005 -26.927 21
      vertex 110.736 -27.3511 2
      vertex 110.736 -27.3511 21
    endloop
  endfacet
  facet normal -0.904728 0.425989 0
    outer loop
      vertex 111.005 -26.927 2
      vertex 111.219 -26.4725 21
      vertex 111.219 -26.4725 2
    endloop
  endfacet
  facet normal -0.904728 0.425989 0
    outer loop
      vertex 111.219 -26.4725 21
      vertex 111.005 -26.927 2
      vertex 111.005 -26.927 21
    endloop
  endfacet
  facet normal -0.587131 0.809492 0
    outer loop
      vertex 110.05 -28.0821 2
      vertex 109.643 -28.3773 21
      vertex 110.05 -28.0821 21
    endloop
  endfacet
  facet normal -0.587131 0.809492 0
    outer loop
      vertex 109.643 -28.3773 21
      vertex 110.05 -28.0821 2
      vertex 109.643 -28.3773 2
    endloop
  endfacet
  facet normal -0.125258 0.992124 0
    outer loop
      vertex 108.25 -28.9291 2
      vertex 107.751 -28.9921 21
      vertex 108.25 -28.9291 21
    endloop
  endfacet
  facet normal -0.125258 0.992124 0
    outer loop
      vertex 107.751 -28.9921 21
      vertex 108.25 -28.9291 2
      vertex 107.751 -28.9921 2
    endloop
  endfacet
  facet normal -0.368127 0.929775 0
    outer loop
      vertex 109.203 -28.6193 2
      vertex 108.736 -28.8042 21
      vertex 109.203 -28.6193 21
    endloop
  endfacet
  facet normal -0.368127 0.929775 0
    outer loop
      vertex 108.736 -28.8042 21
      vertex 109.203 -28.6193 2
      vertex 108.736 -28.8042 2
    endloop
  endfacet
  facet normal 0 0 1
    outer loop
      vertex 107.751 28.9921 2
      vertex 111.5 25 2
      vertex 111.468 25.5013 2
    endloop
  endfacet
  facet normal 0 0 1
    outer loop
      vertex 111.5 25 2
      vertex 107.751 28.9921 2
      vertex 111.5 -25 2
    endloop
  endfacet
  facet normal 0 0 1
    outer loop
      vertex 107.751 28.9921 2
      vertex 111.468 25.5013 2
      vertex 111.374 25.9948 2
    endloop
  endfacet
  facet normal 0 0 1
    outer loop
      vertex 107.751 -28.9921 2
      vertex 111.5 -25 2
      vertex 107.751 28.9921 2
    endloop
  endfacet
  facet normal 0 0 1
    outer loop
      vertex 107.751 28.9921 2
      vertex 111.374 25.9948 2
      vertex 111.219 26.4725 2
    endloop
  endfacet
  facet normal 0 0 1
    outer loop
      vertex 111.5 -25 2
      vertex 107.751 -28.9921 2
      vertex 111.468 -25.5013 2
    endloop
  endfacet
  facet normal 0 0 1
    outer loop
      vertex 107.751 28.9921 2
      vertex 111.219 26.4725 2
      vertex 111.005 26.927 2
    endloop
  endfacet
  facet normal 0 0 1
    outer loop
      vertex 111.468 -25.5013 2
      vertex 107.751 -28.9921 2
      vertex 111.374 -25.9948 2
    endloop
  endfacet
  facet normal 0 0 1
    outer loop
      vertex 107.751 28.9921 2
      vertex 111.005 26.927 2
      vertex 110.736 27.3511 2
    endloop
  endfacet
  facet normal 0 0 1
    outer loop
      vertex 111.374 -25.9948 2
      vertex 107.751 -28.9921 2
      vertex 111.219 -26.4725 2
    endloop
  endfacet
  facet normal 0 0 1
    outer loop
      vertex 107.751 28.9921 2
      vertex 110.736 27.3511 2
      vertex 110.416 27.7382 2
    endloop
  endfacet
  facet normal 0 0 1
    outer loop
      vertex 111.219 -26.4725 2
      vertex 107.751 -28.9921 2
      vertex 111.005 -26.927 2
    endloop
  endfacet
  facet normal 0 0 1
    outer loop
      vertex 107.751 28.9921 2
      vertex 110.416 27.7382 2
      vertex 110.05 28.0821 2
    endloop
  endfacet
  facet normal 0 0 1
    outer loop
      vertex 111.005 -26.927 2
      vertex 107.751 -28.9921 2
      vertex 110.736 -27.3511 2
    endloop
  endfacet
  facet normal 0 0 1
    outer loop
      vertex 107.751 28.9921 2
      vertex 110.05 28.0821 2
      vertex 109.643 28.3773 2
    endloop
  endfacet
  facet normal 0 0 1
    outer loop
      vertex 110.736 -27.3511 2
      vertex 107.751 -28.9921 2
      vertex 110.416 -27.7382 2
    endloop
  endfacet
  facet normal 0 0 1
    outer loop
      vertex 107.751 28.9921 2
      vertex 109.643 28.3773 2
      vertex 109.203 28.6193 2
    endloop
  endfacet
  facet normal 0 0 1
    outer loop
      vertex 110.416 -27.7382 2
      vertex 107.751 -28.9921 2
      vertex 110.05 -28.0821 2
    endloop
  endfacet
  facet normal 0 0 1
    outer loop
      vertex 107.751 28.9921 2
      vertex 109.203 28.6193 2
      vertex 108.736 28.8042 2
    endloop
  endfacet
  facet normal 0 0 1
    outer loop
      vertex 110.05 -28.0821 2
      vertex 107.751 -28.9921 2
      vertex 109.643 -28.3773 2
    endloop
  endfacet
  facet normal 0 0 1
    outer loop
      vertex 107.751 28.9921 2
      vertex 108.736 28.8042 2
      vertex 108.25 28.9291 2
    endloop
  endfacet
  facet normal 0 0 1
    outer loop
      vertex 109.643 -28.3773 2
      vertex 107.751 -28.9921 2
      vertex 109.203 -28.6193 2
    endloop
  endfacet
  facet normal 0 0 1
    outer loop
      vertex 109.203 -28.6193 2
      vertex 107.751 -28.9921 2
      vertex 108.736 -28.8042 2
    endloop
  endfacet
  facet normal 0 0 1
    outer loop
      vertex 108.736 -28.8042 2
      vertex 107.751 -28.9921 2
      vertex 108.25 -28.9291 2
    endloop
  endfacet
  facet normal -0 0 1
    outer loop
      vertex -107.751 28.9921 2
      vertex 107.751 -28.9921 2
      vertex 107.751 28.9921 2
    endloop
  endfacet
  facet normal 0 0 1
    outer loop
      vertex -107.751 28.9921 2
      vertex -107.751 -28.9921 2
      vertex 107.751 -28.9921 2
    endloop
  endfacet
  facet normal 0 0 1
    outer loop
      vertex -111.5 25 2
      vertex -107.751 28.9921 2
      vertex -108.25 28.9291 2
    endloop
  endfacet
  facet normal 0 0 1
    outer loop
      vertex -107.751 28.9921 2
      vertex -111.5 25 2
      vertex -107.751 -28.9921 2
    endloop
  endfacet
  facet normal 0 0 1
    outer loop
      vertex -111.5 25 2
      vertex -108.25 28.9291 2
      vertex -108.736 28.8042 2
    endloop
  endfacet
  facet normal -0 0 1
    outer loop
      vertex -111.5 -25 2
      vertex -107.751 -28.9921 2
      vertex -111.5 25 2
    endloop
  endfacet
  facet normal 0 0 1
    outer loop
      vertex -111.5 25 2
      vertex -108.736 28.8042 2
      vertex -109.203 28.6193 2
    endloop
  endfacet
  facet normal 0 0 1
    outer loop
      vertex -107.751 -28.9921 2
      vertex -111.5 -25 2
      vertex -108.25 -28.9291 2
    endloop
  endfacet
  facet normal 0 0 1
    outer loop
      vertex -111.5 25 2
      vertex -109.203 28.6193 2
      vertex -109.643 28.3773 2
    endloop
  endfacet
  facet normal 0 0 1
    outer loop
      vertex -108.25 -28.9291 2
      vertex -111.5 -25 2
      vertex -108.736 -28.8042 2
    endloop
  endfacet
  facet normal 0 0 1
    outer loop
      vertex -111.5 25 2
      vertex -109.643 28.3773 2
      vertex -110.05 28.0821 2
    endloop
  endfacet
  facet normal 0 0 1
    outer loop
      vertex -108.736 -28.8042 2
      vertex -111.5 -25 2
      vertex -109.203 -28.6193 2
    endloop
  endfacet
  facet normal 0 0 1
    outer loop
      vertex -111.5 25 2
      vertex -110.05 28.0821 2
      vertex -110.416 27.7382 2
    endloop
  endfacet
  facet normal 0 0 1
    outer loop
      vertex -109.203 -28.6193 2
      vertex -111.5 -25 2
      vertex -109.643 -28.3773 2
    endloop
  endfacet
  facet normal 0 0 1
    outer loop
      vertex -111.5 25 2
      vertex -110.416 27.7382 2
      vertex -110.736 27.3511 2
    endloop
  endfacet
  facet normal 0 0 1
    outer loop
      vertex -109.643 -28.3773 2
      vertex -111.5 -25 2
      vertex -110.05 -28.0821 2
    endloop
  endfacet
  facet normal 0 0 1
    outer loop
      vertex -111.5 25 2
      vertex -110.736 27.3511 2
      vertex -111.005 26.927 2
    endloop
  endfacet
  facet normal 0 0 1
    outer loop
      vertex -110.05 -28.0821 2
      vertex -111.5 -25 2
      vertex -110.416 -27.7382 2
    endloop
  endfacet
  facet normal 0 0 1
    outer loop
      vertex -111.5 25 2
      vertex -111.005 26.927 2
      vertex -111.219 26.4725 2
    endloop
  endfacet
  facet normal 0 0 1
    outer loop
      vertex -110.416 -27.7382 2
      vertex -111.5 -25 2
      vertex -110.736 -27.3511 2
    endloop
  endfacet
  facet normal 0 0 1
    outer loop
      vertex -111.5 25 2
      vertex -111.219 26.4725 2
      vertex -111.374 25.9948 2
    endloop
  endfacet
  facet normal 0 0 1
    outer loop
      vertex -110.736 -27.3511 2
      vertex -111.5 -25 2
      vertex -111.005 -26.927 2
    endloop
  endfacet
  facet normal 0 0 1
    outer loop
      vertex -111.5 25 2
      vertex -111.374 25.9948 2
      vertex -111.468 25.5013 2
    endloop
  endfacet
  facet normal 0 0 1
    outer loop
      vertex -111.005 -26.927 2
      vertex -111.5 -25 2
      vertex -111.219 -26.4725 2
    endloop
  endfacet
  facet normal 0 0 1
    outer loop
      vertex -111.219 -26.4725 2
      vertex -111.5 -25 2
      vertex -111.374 -25.9948 2
    endloop
  endfacet
  facet normal 0 0 1
    outer loop
      vertex -111.374 -25.9948 2
      vertex -111.5 -25 2
      vertex -111.468 -25.5013 2
    endloop
  endfacet
  facet normal 0.982339 0.187112 0
    outer loop
      vertex -111.374 -25.9948 21
      vertex -111.468 -25.5013 2
      vertex -111.468 -25.5013 21
    endloop
  endfacet
  facet normal 0.982339 0.187112 0
    outer loop
      vertex -111.468 -25.5013 2
      vertex -111.374 -25.9948 21
      vertex -111.374 -25.9948 2
    endloop
  endfacet
  facet normal 0.844456 0.535625 0
    outer loop
      vertex -110.736 -27.3511 21
      vertex -111.005 -26.927 2
      vertex -111.005 -26.927 21
    endloop
  endfacet
  facet normal 0.844456 0.535625 0
    outer loop
      vertex -111.005 -26.927 2
      vertex -110.736 -27.3511 21
      vertex -110.736 -27.3511 2
    endloop
  endfacet
  facet normal 0.904728 0.425989 0
    outer loop
      vertex -111.005 -26.927 21
      vertex -111.219 -26.4725 2
      vertex -111.219 -26.4725 21
    endloop
  endfacet
  facet normal 0.904728 0.425989 0
    outer loop
      vertex -111.219 -26.4725 2
      vertex -111.005 -26.927 21
      vertex -111.005 -26.927 2
    endloop
  endfacet
  facet normal 0.587131 0.809492 -0
    outer loop
      vertex -109.643 -28.3773 2
      vertex -110.05 -28.0821 21
      vertex -109.643 -28.3773 21
    endloop
  endfacet
  facet normal 0.587131 0.809492 0
    outer loop
      vertex -110.05 -28.0821 21
      vertex -109.643 -28.3773 2
      vertex -110.05 -28.0821 2
    endloop
  endfacet
  facet normal 0.587131 -0.809492 0
    outer loop
      vertex -110.05 28.0821 2
      vertex -109.643 28.3773 21
      vertex -110.05 28.0821 21
    endloop
  endfacet
  facet normal 0.587131 -0.809492 0
    outer loop
      vertex -109.643 28.3773 21
      vertex -110.05 28.0821 2
      vertex -109.643 28.3773 2
    endloop
  endfacet
  facet normal 0.904728 -0.425989 0
    outer loop
      vertex -111.219 26.4725 21
      vertex -111.005 26.927 2
      vertex -111.005 26.927 21
    endloop
  endfacet
  facet normal 0.904728 -0.425989 0
    outer loop
      vertex -111.005 26.927 2
      vertex -111.219 26.4725 21
      vertex -111.219 26.4725 2
    endloop
  endfacet
  facet normal -0.248908 0.968527 0
    outer loop
      vertex 108.736 -28.8042 2
      vertex 108.25 -28.9291 21
      vertex 108.736 -28.8042 21
    endloop
  endfacet
  facet normal -0.248908 0.968527 0
    outer loop
      vertex 108.25 -28.9291 21
      vertex 108.736 -28.8042 2
      vertex 108.25 -28.9291 2
    endloop
  endfacet
endsolid OpenSCAD_Model
