solid OpenSCAD_Model
  facet normal -1 0 0
    outer loop
      vertex -67.5 -2.5 0
      vertex -67.5 2.5 18
      vertex -67.5 2.5 0
    endloop
  endfacet
  facet normal -1 -0 0
    outer loop
      vertex -67.5 2.5 18
      vertex -67.5 -2.5 0
      vertex -67.5 -2.5 18
    endloop
  endfacet
  facet normal -0.998029 -0.0627481 0
    outer loop
      vertex -67.4606 -3.12667 0
      vertex -67.5 -2.5 18
      vertex -67.5 -2.5 0
    endloop
  endfacet
  facet normal -0.998029 -0.0627481 0
    outer loop
      vertex -67.5 -2.5 18
      vertex -67.4606 -3.12667 0
      vertex -67.4606 -3.12667 18
    endloop
  endfacet
  facet normal 0 1 -0
    outer loop
      vertex 62.814 7.49013 0
      vertex -62.814 7.49013 18
      vertex 62.814 7.49013 18
    endloop
  endfacet
  facet normal 0 1 0
    outer loop
      vertex -62.814 7.49013 18
      vertex 62.814 7.49013 0
      vertex -62.814 7.49013 0
    endloop
  endfacet
  facet normal 0 0 1
    outer loop
      vertex 66.5 2.5 18
      vertex 67.5 2.5 18
      vertex 67.4606 3.12667 18
    endloop
  endfacet
  facet normal 0 0 1
    outer loop
      vertex 67.5 2.5 18
      vertex 66.5 2.5 18
      vertex 67.5 -2.5 18
    endloop
  endfacet
  facet normal 0 0 1
    outer loop
      vertex 66.4685 3.00133 18
      vertex 67.4606 3.12667 18
      vertex 67.3429 3.74345 18
    endloop
  endfacet
  facet normal 0 0 1
    outer loop
      vertex 66.5 -2.5 18
      vertex 67.5 -2.5 18
      vertex 66.5 2.5 18
    endloop
  endfacet
  facet normal 0 0 1
    outer loop
      vertex 66.3743 3.49476 18
      vertex 67.3429 3.74345 18
      vertex 67.1489 4.34062 18
    endloop
  endfacet
  facet normal 0 0 1
    outer loop
      vertex 67.5 -2.5 18
      vertex 66.5 -2.5 18
      vertex 67.4606 -3.12667 18
    endloop
  endfacet
  facet normal 0 0 1
    outer loop
      vertex 66.2191 3.9725 18
      vertex 67.1489 4.34062 18
      vertex 66.8815 4.90877 18
    endloop
  endfacet
  facet normal -0 0 1
    outer loop
      vertex 66.4685 -3.00133 18
      vertex 67.4606 -3.12667 18
      vertex 66.5 -2.5 18
    endloop
  endfacet
  facet normal 0 0 1
    outer loop
      vertex 66.0052 4.42701 18
      vertex 66.8815 4.90877 18
      vertex 66.5451 5.43893 18
    endloop
  endfacet
  facet normal 0 0 1
    outer loop
      vertex 67.4606 -3.12667 18
      vertex 66.4685 -3.00133 18
      vertex 67.3429 -3.74345 18
    endloop
  endfacet
  facet normal -0 0 1
    outer loop
      vertex 66.3743 -3.49476 18
      vertex 67.3429 -3.74345 18
      vertex 66.4685 -3.00133 18
    endloop
  endfacet
  facet normal 0 0 1
    outer loop
      vertex 67.4606 3.12667 18
      vertex 66.4685 3.00133 18
      vertex 66.5 2.5 18
    endloop
  endfacet
  facet normal 0 0 1
    outer loop
      vertex 67.3429 3.74345 18
      vertex 66.3743 3.49476 18
      vertex 66.4685 3.00133 18
    endloop
  endfacet
  facet normal 0 0 1
    outer loop
      vertex 67.1489 4.34062 18
      vertex 66.2191 3.9725 18
      vertex 66.3743 3.49476 18
    endloop
  endfacet
  facet normal 0 0 1
    outer loop
      vertex 65.7361 4.85114 18
      vertex 66.5451 5.43893 18
      vertex 66.1448 5.92274 18
    endloop
  endfacet
  facet normal 0 0 1
    outer loop
      vertex 66.8815 4.90877 18
      vertex 66.0052 4.42701 18
      vertex 66.2191 3.9725 18
    endloop
  endfacet
  facet normal 0 0 1
    outer loop
      vertex 66.5451 5.43893 18
      vertex 65.7361 4.85114 18
      vertex 66.0052 4.42701 18
    endloop
  endfacet
  facet normal 0 0 1
    outer loop
      vertex 65.4159 5.23819 18
      vertex 66.1448 5.92274 18
      vertex 65.6871 6.35257 18
    endloop
  endfacet
  facet normal 0 0 1
    outer loop
      vertex 66.1448 5.92274 18
      vertex 65.4159 5.23819 18
      vertex 65.7361 4.85114 18
    endloop
  endfacet
  facet normal 0 0 1
    outer loop
      vertex 65.0497 5.58205 18
      vertex 65.6871 6.35257 18
      vertex 65.1791 6.72164 18
    endloop
  endfacet
  facet normal 0 0 1
    outer loop
      vertex 65.6871 6.35257 18
      vertex 65.0497 5.58205 18
      vertex 65.4159 5.23819 18
    endloop
  endfacet
  facet normal 0 0 1
    outer loop
      vertex 65.1791 6.72164 18
      vertex 64.6433 5.87731 18
      vertex 65.0497 5.58205 18
    endloop
  endfacet
  facet normal 0 0 1
    outer loop
      vertex 64.6289 7.02413 18
      vertex 64.6433 5.87731 18
      vertex 65.1791 6.72164 18
    endloop
  endfacet
  facet normal 0 0 1
    outer loop
      vertex 64.6289 7.02413 18
      vertex 64.2031 6.11931 18
      vertex 64.6433 5.87731 18
    endloop
  endfacet
  facet normal 0 0 1
    outer loop
      vertex 64.0451 7.25528 18
      vertex 64.2031 6.11931 18
      vertex 64.6289 7.02413 18
    endloop
  endfacet
  facet normal 0 0 1
    outer loop
      vertex 64.0451 7.25528 18
      vertex 63.7361 6.30423 18
      vertex 64.2031 6.11931 18
    endloop
  endfacet
  facet normal 0 0 1
    outer loop
      vertex 63.4369 7.41144 18
      vertex 63.7361 6.30423 18
      vertex 64.0451 7.25528 18
    endloop
  endfacet
  facet normal 0 0 1
    outer loop
      vertex 63.4369 7.41144 18
      vertex 63.2495 6.42915 18
      vertex 63.7361 6.30423 18
    endloop
  endfacet
  facet normal 0 0 1
    outer loop
      vertex 62.814 7.49013 18
      vertex 63.2495 6.42915 18
      vertex 63.4369 7.41144 18
    endloop
  endfacet
  facet normal 0 0 1
    outer loop
      vertex 62.814 7.49013 18
      vertex 62.7512 6.49211 18
      vertex 63.2495 6.42915 18
    endloop
  endfacet
  facet normal 0 0 1
    outer loop
      vertex 62.814 7.49013 18
      vertex -62.7512 6.49211 18
      vertex 62.7512 6.49211 18
    endloop
  endfacet
  facet normal -0 0 1
    outer loop
      vertex -62.814 7.49013 18
      vertex -62.7512 6.49211 18
      vertex 62.814 7.49013 18
    endloop
  endfacet
  facet normal 0 0 1
    outer loop
      vertex -62.814 7.49013 18
      vertex -63.2495 6.42915 18
      vertex -62.7512 6.49211 18
    endloop
  endfacet
  facet normal -0 0 1
    outer loop
      vertex -63.4369 7.41144 18
      vertex -63.2495 6.42915 18
      vertex -62.814 7.49013 18
    endloop
  endfacet
  facet normal 0 0 1
    outer loop
      vertex -63.4369 7.41144 18
      vertex -63.7361 6.30423 18
      vertex -63.2495 6.42915 18
    endloop
  endfacet
  facet normal -0 0 1
    outer loop
      vertex -64.0451 7.25528 18
      vertex -63.7361 6.30423 18
      vertex -63.4369 7.41144 18
    endloop
  endfacet
  facet normal 0 0 1
    outer loop
      vertex -64.0451 7.25528 18
      vertex -64.2031 6.11931 18
      vertex -63.7361 6.30423 18
    endloop
  endfacet
  facet normal -0 0 1
    outer loop
      vertex -64.6289 7.02413 18
      vertex -64.2031 6.11931 18
      vertex -64.0451 7.25528 18
    endloop
  endfacet
  facet normal 0 0 1
    outer loop
      vertex -64.6289 7.02413 18
      vertex -64.6433 5.87731 18
      vertex -64.2031 6.11931 18
    endloop
  endfacet
  facet normal -0 0 1
    outer loop
      vertex -65.1791 6.72164 18
      vertex -64.6433 5.87731 18
      vertex -64.6289 7.02413 18
    endloop
  endfacet
  facet normal 0 0 1
    outer loop
      vertex -64.6433 5.87731 18
      vertex -65.1791 6.72164 18
      vertex -65.0497 5.58205 18
    endloop
  endfacet
  facet normal -0 0 1
    outer loop
      vertex -65.6871 6.35257 18
      vertex -65.0497 5.58205 18
      vertex -65.1791 6.72164 18
    endloop
  endfacet
  facet normal 0 0 1
    outer loop
      vertex -65.0497 5.58205 18
      vertex -65.6871 6.35257 18
      vertex -65.4159 5.23819 18
    endloop
  endfacet
  facet normal -0 0 1
    outer loop
      vertex -66.1448 5.92274 18
      vertex -65.4159 5.23819 18
      vertex -65.6871 6.35257 18
    endloop
  endfacet
  facet normal 0 0 1
    outer loop
      vertex -65.4159 5.23819 18
      vertex -66.1448 5.92274 18
      vertex -65.7361 4.85114 18
    endloop
  endfacet
  facet normal -0 0 1
    outer loop
      vertex -66.5451 5.43893 18
      vertex -65.7361 4.85114 18
      vertex -66.1448 5.92274 18
    endloop
  endfacet
  facet normal 0 0 1
    outer loop
      vertex -65.7361 4.85114 18
      vertex -66.5451 5.43893 18
      vertex -66.0052 4.42701 18
    endloop
  endfacet
  facet normal -0 0 1
    outer loop
      vertex -66.8815 4.90877 18
      vertex -66.0052 4.42701 18
      vertex -66.5451 5.43893 18
    endloop
  endfacet
  facet normal 0 0 1
    outer loop
      vertex -66.0052 4.42701 18
      vertex -66.8815 4.90877 18
      vertex -66.2191 3.9725 18
    endloop
  endfacet
  facet normal -0 0 1
    outer loop
      vertex -67.3429 3.74345 18
      vertex -66.3743 3.49476 18
      vertex -67.1489 4.34062 18
    endloop
  endfacet
  facet normal 0 0 1
    outer loop
      vertex -66.2191 3.9725 18
      vertex -67.1489 4.34062 18
      vertex -66.3743 3.49476 18
    endloop
  endfacet
  facet normal -0 0 1
    outer loop
      vertex -67.1489 4.34062 18
      vertex -66.2191 3.9725 18
      vertex -66.8815 4.90877 18
    endloop
  endfacet
  facet normal 0 0 1
    outer loop
      vertex 67.3429 -3.74345 18
      vertex 66.3743 -3.49476 18
      vertex 67.1489 -4.34062 18
    endloop
  endfacet
  facet normal -0 0 1
    outer loop
      vertex 66.2191 -3.9725 18
      vertex 67.1489 -4.34062 18
      vertex 66.3743 -3.49476 18
    endloop
  endfacet
  facet normal 0 0 1
    outer loop
      vertex 67.1489 -4.34062 18
      vertex 66.2191 -3.9725 18
      vertex 66.8815 -4.90877 18
    endloop
  endfacet
  facet normal -0 0 1
    outer loop
      vertex 66.0052 -4.42701 18
      vertex 66.8815 -4.90877 18
      vertex 66.2191 -3.9725 18
    endloop
  endfacet
  facet normal 0 0 1
    outer loop
      vertex 66.8815 -4.90877 18
      vertex 66.0052 -4.42701 18
      vertex 66.5451 -5.43893 18
    endloop
  endfacet
  facet normal -0 0 1
    outer loop
      vertex 65.7361 -4.85114 18
      vertex 66.5451 -5.43893 18
      vertex 66.0052 -4.42701 18
    endloop
  endfacet
  facet normal 0 0 1
    outer loop
      vertex 66.5451 -5.43893 18
      vertex 65.7361 -4.85114 18
      vertex 66.1448 -5.92274 18
    endloop
  endfacet
  facet normal -0 0 1
    outer loop
      vertex 65.4159 -5.23819 18
      vertex 66.1448 -5.92274 18
      vertex 65.7361 -4.85114 18
    endloop
  endfacet
  facet normal 0 0 1
    outer loop
      vertex 66.1448 -5.92274 18
      vertex 65.4159 -5.23819 18
      vertex 65.6871 -6.35257 18
    endloop
  endfacet
  facet normal -0 0 1
    outer loop
      vertex 65.0497 -5.58205 18
      vertex 65.6871 -6.35257 18
      vertex 65.4159 -5.23819 18
    endloop
  endfacet
  facet normal 0 0 1
    outer loop
      vertex 65.6871 -6.35257 18
      vertex 65.0497 -5.58205 18
      vertex 65.1791 -6.72164 18
    endloop
  endfacet
  facet normal -0 0 1
    outer loop
      vertex 64.6433 -5.87731 18
      vertex 65.1791 -6.72164 18
      vertex 65.0497 -5.58205 18
    endloop
  endfacet
  facet normal 0 0 1
    outer loop
      vertex 64.6433 -5.87731 18
      vertex 64.6289 -7.02413 18
      vertex 65.1791 -6.72164 18
    endloop
  endfacet
  facet normal -0 0 1
    outer loop
      vertex 64.2031 -6.11931 18
      vertex 64.6289 -7.02413 18
      vertex 64.6433 -5.87731 18
    endloop
  endfacet
  facet normal 0 0 1
    outer loop
      vertex 64.2031 -6.11931 18
      vertex 64.0451 -7.25528 18
      vertex 64.6289 -7.02413 18
    endloop
  endfacet
  facet normal -0 0 1
    outer loop
      vertex 63.7361 -6.30423 18
      vertex 64.0451 -7.25528 18
      vertex 64.2031 -6.11931 18
    endloop
  endfacet
  facet normal 0 0 1
    outer loop
      vertex 63.7361 -6.30423 18
      vertex 63.4369 -7.41144 18
      vertex 64.0451 -7.25528 18
    endloop
  endfacet
  facet normal -0 0 1
    outer loop
      vertex 63.2495 -6.42915 18
      vertex 63.4369 -7.41144 18
      vertex 63.7361 -6.30423 18
    endloop
  endfacet
  facet normal 0 0 1
    outer loop
      vertex 63.2495 -6.42915 18
      vertex 62.814 -7.49013 18
      vertex 63.4369 -7.41144 18
    endloop
  endfacet
  facet normal -0 0 1
    outer loop
      vertex 62.7512 -6.49211 18
      vertex 62.814 -7.49013 18
      vertex 63.2495 -6.42915 18
    endloop
  endfacet
  facet normal -0 0 1
    outer loop
      vertex -62.7512 -6.49211 18
      vertex 62.814 -7.49013 18
      vertex 62.7512 -6.49211 18
    endloop
  endfacet
  facet normal 0 0 1
    outer loop
      vertex -62.7512 -6.49211 18
      vertex -62.814 -7.49013 18
      vertex 62.814 -7.49013 18
    endloop
  endfacet
  facet normal 0 0 1
    outer loop
      vertex -63.2495 -6.42915 18
      vertex -62.814 -7.49013 18
      vertex -62.7512 -6.49211 18
    endloop
  endfacet
  facet normal 0 0 1
    outer loop
      vertex -63.2495 -6.42915 18
      vertex -63.4369 -7.41144 18
      vertex -62.814 -7.49013 18
    endloop
  endfacet
  facet normal 0 0 1
    outer loop
      vertex -63.7361 -6.30423 18
      vertex -63.4369 -7.41144 18
      vertex -63.2495 -6.42915 18
    endloop
  endfacet
  facet normal 0 0 1
    outer loop
      vertex -63.7361 -6.30423 18
      vertex -64.0451 -7.25528 18
      vertex -63.4369 -7.41144 18
    endloop
  endfacet
  facet normal 0 0 1
    outer loop
      vertex -64.2031 -6.11931 18
      vertex -64.0451 -7.25528 18
      vertex -63.7361 -6.30423 18
    endloop
  endfacet
  facet normal 0 0 1
    outer loop
      vertex -64.2031 -6.11931 18
      vertex -64.6289 -7.02413 18
      vertex -64.0451 -7.25528 18
    endloop
  endfacet
  facet normal 0 0 1
    outer loop
      vertex -64.6433 -5.87731 18
      vertex -64.6289 -7.02413 18
      vertex -64.2031 -6.11931 18
    endloop
  endfacet
  facet normal 0 0 1
    outer loop
      vertex -65.1791 -6.72164 18
      vertex -64.6433 -5.87731 18
      vertex -65.0497 -5.58205 18
    endloop
  endfacet
  facet normal 0 0 1
    outer loop
      vertex -64.6433 -5.87731 18
      vertex -65.1791 -6.72164 18
      vertex -64.6289 -7.02413 18
    endloop
  endfacet
  facet normal 0 0 1
    outer loop
      vertex -65.6871 -6.35257 18
      vertex -65.0497 -5.58205 18
      vertex -65.4159 -5.23819 18
    endloop
  endfacet
  facet normal 0 0 1
    outer loop
      vertex -65.0497 -5.58205 18
      vertex -65.6871 -6.35257 18
      vertex -65.1791 -6.72164 18
    endloop
  endfacet
  facet normal 0 0 1
    outer loop
      vertex -66.1448 -5.92274 18
      vertex -65.4159 -5.23819 18
      vertex -65.7361 -4.85114 18
    endloop
  endfacet
  facet normal 0 0 1
    outer loop
      vertex -66.5451 -5.43893 18
      vertex -65.7361 -4.85114 18
      vertex -66.0052 -4.42701 18
    endloop
  endfacet
  facet normal 0 0 1
    outer loop
      vertex -65.4159 -5.23819 18
      vertex -66.1448 -5.92274 18
      vertex -65.6871 -6.35257 18
    endloop
  endfacet
  facet normal 0 0 1
    outer loop
      vertex -66.8815 -4.90877 18
      vertex -66.0052 -4.42701 18
      vertex -66.2191 -3.9725 18
    endloop
  endfacet
  facet normal 0 0 1
    outer loop
      vertex -67.1489 -4.34062 18
      vertex -66.2191 -3.9725 18
      vertex -66.3743 -3.49476 18
    endloop
  endfacet
  facet normal 0 0 1
    outer loop
      vertex -67.3429 -3.74345 18
      vertex -66.3743 -3.49476 18
      vertex -66.4685 -3.00133 18
    endloop
  endfacet
  facet normal 0 0 1
    outer loop
      vertex -65.7361 -4.85114 18
      vertex -66.5451 -5.43893 18
      vertex -66.1448 -5.92274 18
    endloop
  endfacet
  facet normal 0 0 1
    outer loop
      vertex -67.4606 -3.12667 18
      vertex -66.4685 -3.00133 18
      vertex -66.5 -2.5 18
    endloop
  endfacet
  facet normal 0 0 1
    outer loop
      vertex -66.5 2.5 18
      vertex -67.5 2.5 18
      vertex -66.5 -2.5 18
    endloop
  endfacet
  facet normal 0 0 1
    outer loop
      vertex -66.3743 3.49476 18
      vertex -67.3429 3.74345 18
      vertex -66.4685 3.00133 18
    endloop
  endfacet
  facet normal 0 0 1
    outer loop
      vertex -67.5 -2.5 18
      vertex -66.5 -2.5 18
      vertex -67.5 2.5 18
    endloop
  endfacet
  facet normal -0 0 1
    outer loop
      vertex -67.4606 3.12667 18
      vertex -66.4685 3.00133 18
      vertex -67.3429 3.74345 18
    endloop
  endfacet
  facet normal 0 -0 1
    outer loop
      vertex -67.4606 -3.12667 18
      vertex -66.5 -2.5 18
      vertex -67.5 -2.5 18
    endloop
  endfacet
  facet normal 0 0 1
    outer loop
      vertex -66.4685 3.00133 18
      vertex -67.4606 3.12667 18
      vertex -66.5 2.5 18
    endloop
  endfacet
  facet normal 0 0 1
    outer loop
      vertex -66.0052 -4.42701 18
      vertex -66.8815 -4.90877 18
      vertex -66.5451 -5.43893 18
    endloop
  endfacet
  facet normal 0 0 1
    outer loop
      vertex -66.5 2.5 18
      vertex -67.4606 3.12667 18
      vertex -67.5 2.5 18
    endloop
  endfacet
  facet normal 0 0 1
    outer loop
      vertex -66.2191 -3.9725 18
      vertex -67.1489 -4.34062 18
      vertex -66.8815 -4.90877 18
    endloop
  endfacet
  facet normal 0 0 1
    outer loop
      vertex -66.3743 -3.49476 18
      vertex -67.3429 -3.74345 18
      vertex -67.1489 -4.34062 18
    endloop
  endfacet
  facet normal 0 0 1
    outer loop
      vertex -66.4685 -3.00133 18
      vertex -67.4606 -3.12667 18
      vertex -67.3429 -3.74345 18
    endloop
  endfacet
  facet normal 0 -1 0
    outer loop
      vertex -62.814 -7.49013 0
      vertex 62.814 -7.49013 18
      vertex -62.814 -7.49013 18
    endloop
  endfacet
  facet normal 0 -1 -0
    outer loop
      vertex 62.814 -7.49013 18
      vertex -62.814 -7.49013 0
      vertex 62.814 -7.49013 0
    endloop
  endfacet
  facet normal 0.951072 -0.30897 0
    outer loop
      vertex 67.1489 -4.34062 18
      vertex 67.3429 -3.74345 0
      vertex 67.3429 -3.74345 18
    endloop
  endfacet
  facet normal 0.951072 -0.30897 0
    outer loop
      vertex 67.3429 -3.74345 0
      vertex 67.1489 -4.34062 18
      vertex 67.1489 -4.34062 0
    endloop
  endfacet
  facet normal 1 -0 0
    outer loop
      vertex 67.5 -2.5 18
      vertex 67.5 2.5 0
      vertex 67.5 2.5 18
    endloop
  endfacet
  facet normal 1 0 0
    outer loop
      vertex 67.5 2.5 0
      vertex 67.5 -2.5 18
      vertex 67.5 -2.5 0
    endloop
  endfacet
  facet normal -0.998029 0.0627481 0
    outer loop
      vertex -67.5 2.5 0
      vertex -67.4606 3.12667 18
      vertex -67.4606 3.12667 0
    endloop
  endfacet
  facet normal -0.998029 0.0627481 0
    outer loop
      vertex -67.4606 3.12667 18
      vertex -67.5 2.5 0
      vertex -67.5 2.5 18
    endloop
  endfacet
  facet normal -0.368135 -0.929773 0
    outer loop
      vertex -64.6289 -7.02413 0
      vertex -64.0451 -7.25528 18
      vertex -64.6289 -7.02413 18
    endloop
  endfacet
  facet normal -0.368135 -0.929773 -0
    outer loop
      vertex -64.0451 -7.25528 18
      vertex -64.6289 -7.02413 0
      vertex -64.0451 -7.25528 0
    endloop
  endfacet
  facet normal -0.125332 -0.992115 0
    outer loop
      vertex -63.4369 -7.41144 0
      vertex -62.814 -7.49013 18
      vertex -63.4369 -7.41144 18
    endloop
  endfacet
  facet normal -0.125332 -0.992115 -0
    outer loop
      vertex -62.814 -7.49013 18
      vertex -63.4369 -7.41144 0
      vertex -62.814 -7.49013 0
    endloop
  endfacet
  facet normal -0.481772 -0.876297 0
    outer loop
      vertex -65.1791 -6.72164 0
      vertex -64.6289 -7.02413 18
      vertex -65.1791 -6.72164 18
    endloop
  endfacet
  facet normal -0.481772 -0.876297 -0
    outer loop
      vertex -64.6289 -7.02413 18
      vertex -65.1791 -6.72164 0
      vertex -64.6289 -7.02413 0
    endloop
  endfacet
  facet normal -0.684565 -0.728952 0
    outer loop
      vertex -66.1448 -5.92274 0
      vertex -65.6871 -6.35257 18
      vertex -66.1448 -5.92274 18
    endloop
  endfacet
  facet normal -0.684565 -0.728952 -0
    outer loop
      vertex -65.6871 -6.35257 18
      vertex -66.1448 -5.92274 0
      vertex -65.6871 -6.35257 0
    endloop
  endfacet
  facet normal 0.481772 -0.876297 0
    outer loop
      vertex 64.6289 -7.02413 0
      vertex 65.1791 -6.72164 18
      vertex 64.6289 -7.02413 18
    endloop
  endfacet
  facet normal 0.481772 -0.876297 0
    outer loop
      vertex 65.1791 -6.72164 18
      vertex 64.6289 -7.02413 0
      vertex 65.1791 -6.72164 0
    endloop
  endfacet
  facet normal 0.951072 0.30897 0
    outer loop
      vertex 67.3429 3.74345 18
      vertex 67.1489 4.34062 0
      vertex 67.1489 4.34062 18
    endloop
  endfacet
  facet normal 0.951072 0.30897 0
    outer loop
      vertex 67.1489 4.34062 0
      vertex 67.3429 3.74345 18
      vertex 67.3429 3.74345 0
    endloop
  endfacet
  facet normal 0.684565 0.728952 -0
    outer loop
      vertex 66.1448 5.92274 0
      vertex 65.6871 6.35257 18
      vertex 66.1448 5.92274 18
    endloop
  endfacet
  facet normal 0.684565 0.728952 0
    outer loop
      vertex 65.6871 6.35257 18
      vertex 66.1448 5.92274 0
      vertex 65.6871 6.35257 0
    endloop
  endfacet
  facet normal 0.368135 0.929773 -0
    outer loop
      vertex 64.6289 7.02413 0
      vertex 64.0451 7.25528 18
      vertex 64.6289 7.02413 18
    endloop
  endfacet
  facet normal 0.368135 0.929773 0
    outer loop
      vertex 64.0451 7.25528 18
      vertex 64.6289 7.02413 0
      vertex 64.0451 7.25528 0
    endloop
  endfacet
  facet normal 0.248691 0.968583 -0
    outer loop
      vertex 64.0451 7.25528 0
      vertex 63.4369 7.41144 18
      vertex 64.0451 7.25528 18
    endloop
  endfacet
  facet normal 0.248691 0.968583 0
    outer loop
      vertex 63.4369 7.41144 18
      vertex 64.0451 7.25528 0
      vertex 63.4369 7.41144 0
    endloop
  endfacet
  facet normal 0.125332 0.992115 -0
    outer loop
      vertex 63.4369 7.41144 0
      vertex 62.814 7.49013 18
      vertex 63.4369 7.41144 18
    endloop
  endfacet
  facet normal 0.125332 0.992115 0
    outer loop
      vertex 62.814 7.49013 18
      vertex 63.4369 7.41144 0
      vertex 62.814 7.49013 0
    endloop
  endfacet
  facet normal -0.587771 0.809027 0
    outer loop
      vertex -65.1791 6.72164 0
      vertex -65.6871 6.35257 18
      vertex -65.1791 6.72164 18
    endloop
  endfacet
  facet normal -0.587771 0.809027 0
    outer loop
      vertex -65.6871 6.35257 18
      vertex -65.1791 6.72164 0
      vertex -65.6871 6.35257 0
    endloop
  endfacet
  facet normal -0.368135 0.929773 0
    outer loop
      vertex -64.0451 7.25528 0
      vertex -64.6289 7.02413 18
      vertex -64.0451 7.25528 18
    endloop
  endfacet
  facet normal -0.368135 0.929773 0
    outer loop
      vertex -64.6289 7.02413 18
      vertex -64.0451 7.25528 0
      vertex -64.6289 7.02413 0
    endloop
  endfacet
  facet normal -0.951072 0.30897 0
    outer loop
      vertex -67.3429 3.74345 0
      vertex -67.1489 4.34062 18
      vertex -67.1489 4.34062 0
    endloop
  endfacet
  facet normal -0.951072 0.30897 0
    outer loop
      vertex -67.1489 4.34062 18
      vertex -67.3429 3.74345 0
      vertex -67.3429 3.74345 18
    endloop
  endfacet
  facet normal 0 0 -1
    outer loop
      vertex 62.814 -7.49013 0
      vertex 67.5 -2.5 0
      vertex 67.4606 -3.12667 0
    endloop
  endfacet
  facet normal -0 0 -1
    outer loop
      vertex 67.5 -2.5 0
      vertex 62.814 -7.49013 0
      vertex 67.5 2.5 0
    endloop
  endfacet
  facet normal 0 0 -1
    outer loop
      vertex 62.814 -7.49013 0
      vertex 67.4606 -3.12667 0
      vertex 67.3429 -3.74345 0
    endloop
  endfacet
  facet normal 0 0 -1
    outer loop
      vertex 62.814 7.49013 0
      vertex 67.5 2.5 0
      vertex 62.814 -7.49013 0
    endloop
  endfacet
  facet normal 0 0 -1
    outer loop
      vertex 62.814 -7.49013 0
      vertex 67.3429 -3.74345 0
      vertex 67.1489 -4.34062 0
    endloop
  endfacet
  facet normal 0 0 -1
    outer loop
      vertex 67.5 2.5 0
      vertex 62.814 7.49013 0
      vertex 67.4606 3.12667 0
    endloop
  endfacet
  facet normal 0 0 -1
    outer loop
      vertex 62.814 -7.49013 0
      vertex 67.1489 -4.34062 0
      vertex 66.8815 -4.90877 0
    endloop
  endfacet
  facet normal 0 0 -1
    outer loop
      vertex 67.4606 3.12667 0
      vertex 62.814 7.49013 0
      vertex 67.3429 3.74345 0
    endloop
  endfacet
  facet normal 0 0 -1
    outer loop
      vertex 62.814 -7.49013 0
      vertex 66.8815 -4.90877 0
      vertex 66.5451 -5.43893 0
    endloop
  endfacet
  facet normal 0 0 -1
    outer loop
      vertex 67.3429 3.74345 0
      vertex 62.814 7.49013 0
      vertex 67.1489 4.34062 0
    endloop
  endfacet
  facet normal 0 0 -1
    outer loop
      vertex 62.814 -7.49013 0
      vertex 66.5451 -5.43893 0
      vertex 66.1448 -5.92274 0
    endloop
  endfacet
  facet normal 0 0 -1
    outer loop
      vertex 67.1489 4.34062 0
      vertex 62.814 7.49013 0
      vertex 66.8815 4.90877 0
    endloop
  endfacet
  facet normal 0 0 -1
    outer loop
      vertex 62.814 -7.49013 0
      vertex 66.1448 -5.92274 0
      vertex 65.6871 -6.35257 0
    endloop
  endfacet
  facet normal 0 0 -1
    outer loop
      vertex 66.8815 4.90877 0
      vertex 62.814 7.49013 0
      vertex 66.5451 5.43893 0
    endloop
  endfacet
  facet normal 0 0 -1
    outer loop
      vertex 62.814 -7.49013 0
      vertex 65.6871 -6.35257 0
      vertex 65.1791 -6.72164 0
    endloop
  endfacet
  facet normal 0 0 -1
    outer loop
      vertex 66.5451 5.43893 0
      vertex 62.814 7.49013 0
      vertex 66.1448 5.92274 0
    endloop
  endfacet
  facet normal 0 0 -1
    outer loop
      vertex 62.814 -7.49013 0
      vertex 65.1791 -6.72164 0
      vertex 64.6289 -7.02413 0
    endloop
  endfacet
  facet normal 0 0 -1
    outer loop
      vertex 66.1448 5.92274 0
      vertex 62.814 7.49013 0
      vertex 65.6871 6.35257 0
    endloop
  endfacet
  facet normal 0 0 -1
    outer loop
      vertex 62.814 -7.49013 0
      vertex 64.6289 -7.02413 0
      vertex 64.0451 -7.25528 0
    endloop
  endfacet
  facet normal 0 0 -1
    outer loop
      vertex 65.6871 6.35257 0
      vertex 62.814 7.49013 0
      vertex 65.1791 6.72164 0
    endloop
  endfacet
  facet normal 0 0 -1
    outer loop
      vertex 62.814 -7.49013 0
      vertex 64.0451 -7.25528 0
      vertex 63.4369 -7.41144 0
    endloop
  endfacet
  facet normal 0 0 -1
    outer loop
      vertex 65.1791 6.72164 0
      vertex 62.814 7.49013 0
      vertex 64.6289 7.02413 0
    endloop
  endfacet
  facet normal 0 0 -1
    outer loop
      vertex 64.6289 7.02413 0
      vertex 62.814 7.49013 0
      vertex 64.0451 7.25528 0
    endloop
  endfacet
  facet normal 0 0 -1
    outer loop
      vertex 64.0451 7.25528 0
      vertex 62.814 7.49013 0
      vertex 63.4369 7.41144 0
    endloop
  endfacet
  facet normal 0 0 -1
    outer loop
      vertex -62.814 -7.49013 0
      vertex 62.814 7.49013 0
      vertex 62.814 -7.49013 0
    endloop
  endfacet
  facet normal 0 0 -1
    outer loop
      vertex -62.814 -7.49013 0
      vertex -62.814 7.49013 0
      vertex 62.814 7.49013 0
    endloop
  endfacet
  facet normal 0 0 -1
    outer loop
      vertex -67.5 -2.5 0
      vertex -62.814 -7.49013 0
      vertex -63.4369 -7.41144 0
    endloop
  endfacet
  facet normal 0 0 -1
    outer loop
      vertex -62.814 -7.49013 0
      vertex -67.5 -2.5 0
      vertex -62.814 7.49013 0
    endloop
  endfacet
  facet normal 0 0 -1
    outer loop
      vertex -67.5 -2.5 0
      vertex -63.4369 -7.41144 0
      vertex -64.0451 -7.25528 0
    endloop
  endfacet
  facet normal 0 0 -1
    outer loop
      vertex -67.5 2.5 0
      vertex -62.814 7.49013 0
      vertex -67.5 -2.5 0
    endloop
  endfacet
  facet normal 0 0 -1
    outer loop
      vertex -67.5 -2.5 0
      vertex -64.0451 -7.25528 0
      vertex -64.6289 -7.02413 0
    endloop
  endfacet
  facet normal 0 0 -1
    outer loop
      vertex -62.814 7.49013 0
      vertex -67.5 2.5 0
      vertex -63.4369 7.41144 0
    endloop
  endfacet
  facet normal 0 0 -1
    outer loop
      vertex -67.5 -2.5 0
      vertex -64.6289 -7.02413 0
      vertex -65.1791 -6.72164 0
    endloop
  endfacet
  facet normal 0 0 -1
    outer loop
      vertex -63.4369 7.41144 0
      vertex -67.5 2.5 0
      vertex -64.0451 7.25528 0
    endloop
  endfacet
  facet normal 0 0 -1
    outer loop
      vertex -67.5 -2.5 0
      vertex -65.1791 -6.72164 0
      vertex -65.6871 -6.35257 0
    endloop
  endfacet
  facet normal 0 0 -1
    outer loop
      vertex -64.0451 7.25528 0
      vertex -67.5 2.5 0
      vertex -64.6289 7.02413 0
    endloop
  endfacet
  facet normal 0 0 -1
    outer loop
      vertex -67.5 -2.5 0
      vertex -65.6871 -6.35257 0
      vertex -66.1448 -5.92274 0
    endloop
  endfacet
  facet normal 0 0 -1
    outer loop
      vertex -64.6289 7.02413 0
      vertex -67.5 2.5 0
      vertex -65.1791 6.72164 0
    endloop
  endfacet
  facet normal 0 0 -1
    outer loop
      vertex -67.5 -2.5 0
      vertex -66.1448 -5.92274 0
      vertex -66.5451 -5.43893 0
    endloop
  endfacet
  facet normal 0 0 -1
    outer loop
      vertex -65.1791 6.72164 0
      vertex -67.5 2.5 0
      vertex -65.6871 6.35257 0
    endloop
  endfacet
  facet normal 0 0 -1
    outer loop
      vertex -67.5 -2.5 0
      vertex -66.5451 -5.43893 0
      vertex -66.8815 -4.90877 0
    endloop
  endfacet
  facet normal 0 0 -1
    outer loop
      vertex -65.6871 6.35257 0
      vertex -67.5 2.5 0
      vertex -66.1448 5.92274 0
    endloop
  endfacet
  facet normal 0 0 -1
    outer loop
      vertex -67.5 -2.5 0
      vertex -66.8815 -4.90877 0
      vertex -67.1489 -4.34062 0
    endloop
  endfacet
  facet normal 0 0 -1
    outer loop
      vertex -66.1448 5.92274 0
      vertex -67.5 2.5 0
      vertex -66.5451 5.43893 0
    endloop
  endfacet
  facet normal 0 0 -1
    outer loop
      vertex -67.5 -2.5 0
      vertex -67.1489 -4.34062 0
      vertex -67.3429 -3.74345 0
    endloop
  endfacet
  facet normal 0 0 -1
    outer loop
      vertex -66.5451 5.43893 0
      vertex -67.5 2.5 0
      vertex -66.8815 4.90877 0
    endloop
  endfacet
  facet normal 0 0 -1
    outer loop
      vertex -67.5 -2.5 0
      vertex -67.3429 -3.74345 0
      vertex -67.4606 -3.12667 0
    endloop
  endfacet
  facet normal 0 0 -1
    outer loop
      vertex -66.8815 4.90877 0
      vertex -67.5 2.5 0
      vertex -67.1489 4.34062 0
    endloop
  endfacet
  facet normal 0 0 -1
    outer loop
      vertex -67.1489 4.34062 0
      vertex -67.5 2.5 0
      vertex -67.3429 3.74345 0
    endloop
  endfacet
  facet normal 0 0 -1
    outer loop
      vertex -67.3429 3.74345 0
      vertex -67.5 2.5 0
      vertex -67.4606 3.12667 0
    endloop
  endfacet
  facet normal -0.951072 -0.30897 0
    outer loop
      vertex -67.1489 -4.34062 0
      vertex -67.3429 -3.74345 18
      vertex -67.3429 -3.74345 0
    endloop
  endfacet
  facet normal -0.951072 -0.30897 0
    outer loop
      vertex -67.3429 -3.74345 18
      vertex -67.1489 -4.34062 0
      vertex -67.1489 -4.34062 18
    endloop
  endfacet
  facet normal -0.904797 -0.425843 0
    outer loop
      vertex -66.8815 -4.90877 0
      vertex -67.1489 -4.34062 18
      vertex -67.1489 -4.34062 0
    endloop
  endfacet
  facet normal -0.904797 -0.425843 0
    outer loop
      vertex -67.1489 -4.34062 18
      vertex -66.8815 -4.90877 0
      vertex -66.8815 -4.90877 18
    endloop
  endfacet
  facet normal -0.770468 -0.637478 0
    outer loop
      vertex -66.1448 -5.92274 0
      vertex -66.5451 -5.43893 18
      vertex -66.5451 -5.43893 0
    endloop
  endfacet
  facet normal -0.770468 -0.637478 0
    outer loop
      vertex -66.5451 -5.43893 18
      vertex -66.1448 -5.92274 0
      vertex -66.1448 -5.92274 18
    endloop
  endfacet
  facet normal -0.844364 -0.53577 0
    outer loop
      vertex -66.5451 -5.43893 0
      vertex -66.8815 -4.90877 18
      vertex -66.8815 -4.90877 0
    endloop
  endfacet
  facet normal -0.844364 -0.53577 0
    outer loop
      vertex -66.8815 -4.90877 18
      vertex -66.5451 -5.43893 0
      vertex -66.5451 -5.43893 18
    endloop
  endfacet
  facet normal -0.248691 -0.968583 0
    outer loop
      vertex -64.0451 -7.25528 0
      vertex -63.4369 -7.41144 18
      vertex -64.0451 -7.25528 18
    endloop
  endfacet
  facet normal -0.248691 -0.968583 -0
    outer loop
      vertex -63.4369 -7.41144 18
      vertex -64.0451 -7.25528 0
      vertex -63.4369 -7.41144 0
    endloop
  endfacet
  facet normal -0.587771 -0.809027 0
    outer loop
      vertex -65.6871 -6.35257 0
      vertex -65.1791 -6.72164 18
      vertex -65.6871 -6.35257 18
    endloop
  endfacet
  facet normal -0.587771 -0.809027 -0
    outer loop
      vertex -65.1791 -6.72164 18
      vertex -65.6871 -6.35257 0
      vertex -65.1791 -6.72164 0
    endloop
  endfacet
  facet normal 0.982275 -0.187447 0
    outer loop
      vertex 67.3429 -3.74345 18
      vertex 67.4606 -3.12667 0
      vertex 67.4606 -3.12667 18
    endloop
  endfacet
  facet normal 0.982275 -0.187447 0
    outer loop
      vertex 67.4606 -3.12667 0
      vertex 67.3429 -3.74345 18
      vertex 67.3429 -3.74345 0
    endloop
  endfacet
  facet normal 0.998029 -0.0627481 0
    outer loop
      vertex 67.4606 -3.12667 18
      vertex 67.5 -2.5 0
      vertex 67.5 -2.5 18
    endloop
  endfacet
  facet normal 0.998029 -0.0627481 0
    outer loop
      vertex 67.5 -2.5 0
      vertex 67.4606 -3.12667 18
      vertex 67.4606 -3.12667 0
    endloop
  endfacet
  facet normal 0.770468 -0.637478 0
    outer loop
      vertex 66.1448 -5.92274 18
      vertex 66.5451 -5.43893 0
      vertex 66.5451 -5.43893 18
    endloop
  endfacet
  facet normal 0.770468 -0.637478 0
    outer loop
      vertex 66.5451 -5.43893 0
      vertex 66.1448 -5.92274 18
      vertex 66.1448 -5.92274 0
    endloop
  endfacet
  facet normal 0.684565 -0.728952 0
    outer loop
      vertex 65.6871 -6.35257 0
      vertex 66.1448 -5.92274 18
      vertex 65.6871 -6.35257 18
    endloop
  endfacet
  facet normal 0.684565 -0.728952 0
    outer loop
      vertex 66.1448 -5.92274 18
      vertex 65.6871 -6.35257 0
      vertex 66.1448 -5.92274 0
    endloop
  endfacet
  facet normal 0.844364 -0.53577 0
    outer loop
      vertex 66.5451 -5.43893 18
      vertex 66.8815 -4.90877 0
      vertex 66.8815 -4.90877 18
    endloop
  endfacet
  facet normal 0.844364 -0.53577 0
    outer loop
      vertex 66.8815 -4.90877 0
      vertex 66.5451 -5.43893 18
      vertex 66.5451 -5.43893 0
    endloop
  endfacet
  facet normal 0.248691 -0.968583 0
    outer loop
      vertex 63.4369 -7.41144 0
      vertex 64.0451 -7.25528 18
      vertex 63.4369 -7.41144 18
    endloop
  endfacet
  facet normal 0.248691 -0.968583 0
    outer loop
      vertex 64.0451 -7.25528 18
      vertex 63.4369 -7.41144 0
      vertex 64.0451 -7.25528 0
    endloop
  endfacet
  facet normal 0.368135 -0.929773 0
    outer loop
      vertex 64.0451 -7.25528 0
      vertex 64.6289 -7.02413 18
      vertex 64.0451 -7.25528 18
    endloop
  endfacet
  facet normal 0.368135 -0.929773 0
    outer loop
      vertex 64.6289 -7.02413 18
      vertex 64.0451 -7.25528 0
      vertex 64.6289 -7.02413 0
    endloop
  endfacet
  facet normal 0.125332 -0.992115 0
    outer loop
      vertex 62.814 -7.49013 0
      vertex 63.4369 -7.41144 18
      vertex 62.814 -7.49013 18
    endloop
  endfacet
  facet normal 0.125332 -0.992115 0
    outer loop
      vertex 63.4369 -7.41144 18
      vertex 62.814 -7.49013 0
      vertex 63.4369 -7.41144 0
    endloop
  endfacet
  facet normal 0.770468 0.637478 0
    outer loop
      vertex 66.5451 5.43893 18
      vertex 66.1448 5.92274 0
      vertex 66.1448 5.92274 18
    endloop
  endfacet
  facet normal 0.770468 0.637478 0
    outer loop
      vertex 66.1448 5.92274 0
      vertex 66.5451 5.43893 18
      vertex 66.5451 5.43893 0
    endloop
  endfacet
  facet normal 0.481772 0.876297 -0
    outer loop
      vertex 65.1791 6.72164 0
      vertex 64.6289 7.02413 18
      vertex 65.1791 6.72164 18
    endloop
  endfacet
  facet normal 0.481772 0.876297 0
    outer loop
      vertex 64.6289 7.02413 18
      vertex 65.1791 6.72164 0
      vertex 64.6289 7.02413 0
    endloop
  endfacet
  facet normal -0.684565 0.728952 0
    outer loop
      vertex -65.6871 6.35257 0
      vertex -66.1448 5.92274 18
      vertex -65.6871 6.35257 18
    endloop
  endfacet
  facet normal -0.684565 0.728952 0
    outer loop
      vertex -66.1448 5.92274 18
      vertex -65.6871 6.35257 0
      vertex -66.1448 5.92274 0
    endloop
  endfacet
  facet normal -0.770468 0.637478 0
    outer loop
      vertex -66.5451 5.43893 0
      vertex -66.1448 5.92274 18
      vertex -66.1448 5.92274 0
    endloop
  endfacet
  facet normal -0.770468 0.637478 0
    outer loop
      vertex -66.1448 5.92274 18
      vertex -66.5451 5.43893 0
      vertex -66.5451 5.43893 18
    endloop
  endfacet
  facet normal -0.844364 0.53577 0
    outer loop
      vertex -66.8815 4.90877 0
      vertex -66.5451 5.43893 18
      vertex -66.5451 5.43893 0
    endloop
  endfacet
  facet normal -0.844364 0.53577 0
    outer loop
      vertex -66.5451 5.43893 18
      vertex -66.8815 4.90877 0
      vertex -66.8815 4.90877 18
    endloop
  endfacet
  facet normal -0.125332 0.992115 0
    outer loop
      vertex -62.814 7.49013 0
      vertex -63.4369 7.41144 18
      vertex -62.814 7.49013 18
    endloop
  endfacet
  facet normal -0.125332 0.992115 0
    outer loop
      vertex -63.4369 7.41144 18
      vertex -62.814 7.49013 0
      vertex -63.4369 7.41144 0
    endloop
  endfacet
  facet normal -0.982275 0.187447 0
    outer loop
      vertex -67.4606 3.12667 0
      vertex -67.3429 3.74345 18
      vertex -67.3429 3.74345 0
    endloop
  endfacet
  facet normal -0.982275 0.187447 0
    outer loop
      vertex -67.3429 3.74345 18
      vertex -67.4606 3.12667 0
      vertex -67.4606 3.12667 18
    endloop
  endfacet
  facet normal -0.982275 -0.187447 0
    outer loop
      vertex -67.3429 -3.74345 0
      vertex -67.4606 -3.12667 18
      vertex -67.4606 -3.12667 0
    endloop
  endfacet
  facet normal -0.982275 -0.187447 0
    outer loop
      vertex -67.4606 -3.12667 18
      vertex -67.3429 -3.74345 0
      vertex -67.3429 -3.74345 18
    endloop
  endfacet
  facet normal 0.904797 -0.425843 0
    outer loop
      vertex 66.8815 -4.90877 18
      vertex 67.1489 -4.34062 0
      vertex 67.1489 -4.34062 18
    endloop
  endfacet
  facet normal 0.904797 -0.425843 0
    outer loop
      vertex 67.1489 -4.34062 0
      vertex 66.8815 -4.90877 18
      vertex 66.8815 -4.90877 0
    endloop
  endfacet
  facet normal 0.587771 -0.809027 0
    outer loop
      vertex 65.1791 -6.72164 0
      vertex 65.6871 -6.35257 18
      vertex 65.1791 -6.72164 18
    endloop
  endfacet
  facet normal 0.587771 -0.809027 0
    outer loop
      vertex 65.6871 -6.35257 18
      vertex 65.1791 -6.72164 0
      vertex 65.6871 -6.35257 0
    endloop
  endfacet
  facet normal 0.844364 0.53577 0
    outer loop
      vertex 66.8815 4.90877 18
      vertex 66.5451 5.43893 0
      vertex 66.5451 5.43893 18
    endloop
  endfacet
  facet normal 0.844364 0.53577 0
    outer loop
      vertex 66.5451 5.43893 0
      vertex 66.8815 4.90877 18
      vertex 66.8815 4.90877 0
    endloop
  endfacet
  facet normal 0.998029 0.0627481 0
    outer loop
      vertex 67.5 2.5 18
      vertex 67.4606 3.12667 0
      vertex 67.4606 3.12667 18
    endloop
  endfacet
  facet normal 0.998029 0.0627481 0
    outer loop
      vertex 67.4606 3.12667 0
      vertex 67.5 2.5 18
      vertex 67.5 2.5 0
    endloop
  endfacet
  facet normal 0.982275 0.187447 0
    outer loop
      vertex 67.4606 3.12667 18
      vertex 67.3429 3.74345 0
      vertex 67.3429 3.74345 18
    endloop
  endfacet
  facet normal 0.982275 0.187447 0
    outer loop
      vertex 67.3429 3.74345 0
      vertex 67.4606 3.12667 18
      vertex 67.4606 3.12667 0
    endloop
  endfacet
  facet normal 0.587771 0.809027 -0
    outer loop
      vertex 65.6871 6.35257 0
      vertex 65.1791 6.72164 18
      vertex 65.6871 6.35257 18
    endloop
  endfacet
  facet normal 0.587771 0.809027 0
    outer loop
      vertex 65.1791 6.72164 18
      vertex 65.6871 6.35257 0
      vertex 65.1791 6.72164 0
    endloop
  endfacet
  facet normal -0.248691 0.968583 0
    outer loop
      vertex -63.4369 7.41144 0
      vertex -64.0451 7.25528 18
      vertex -63.4369 7.41144 18
    endloop
  endfacet
  facet normal -0.248691 0.968583 0
    outer loop
      vertex -64.0451 7.25528 18
      vertex -63.4369 7.41144 0
      vertex -64.0451 7.25528 0
    endloop
  endfacet
  facet normal -0.481772 0.876297 0
    outer loop
      vertex -64.6289 7.02413 0
      vertex -65.1791 6.72164 18
      vertex -64.6289 7.02413 18
    endloop
  endfacet
  facet normal -0.481772 0.876297 0
    outer loop
      vertex -65.1791 6.72164 18
      vertex -64.6289 7.02413 0
      vertex -65.1791 6.72164 0
    endloop
  endfacet
  facet normal -0.904797 0.425843 0
    outer loop
      vertex -67.1489 4.34062 0
      vertex -66.8815 4.90877 18
      vertex -66.8815 4.90877 0
    endloop
  endfacet
  facet normal -0.904797 0.425843 0
    outer loop
      vertex -66.8815 4.90877 18
      vertex -67.1489 4.34062 0
      vertex -67.1489 4.34062 18
    endloop
  endfacet
  facet normal 0.904797 0.425843 0
    outer loop
      vertex 67.1489 4.34062 18
      vertex 66.8815 4.90877 0
      vertex 66.8815 4.90877 18
    endloop
  endfacet
  facet normal 0.904797 0.425843 0
    outer loop
      vertex 66.8815 4.90877 0
      vertex 67.1489 4.34062 18
      vertex 67.1489 4.34062 0
    endloop
  endfacet
  facet normal 1 -0 0
    outer loop
      vertex -66.5 -2.5 18
      vertex -66.5 2.5 2
      vertex -66.5 2.5 18
    endloop
  endfacet
  facet normal 1 0 0
    outer loop
      vertex -66.5 2.5 2
      vertex -66.5 -2.5 18
      vertex -66.5 -2.5 2
    endloop
  endfacet
  facet normal 0.998032 0.0627092 0
    outer loop
      vertex -66.4685 -3.00133 18
      vertex -66.5 -2.5 2
      vertex -66.5 -2.5 18
    endloop
  endfacet
  facet normal 0.998032 0.0627092 0
    outer loop
      vertex -66.5 -2.5 2
      vertex -66.4685 -3.00133 18
      vertex -66.4685 -3.00133 2
    endloop
  endfacet
  facet normal 0.998032 -0.0627092 0
    outer loop
      vertex -66.5 2.5 18
      vertex -66.4685 3.00133 2
      vertex -66.4685 3.00133 18
    endloop
  endfacet
  facet normal 0.998032 -0.0627092 0
    outer loop
      vertex -66.4685 3.00133 2
      vertex -66.5 2.5 18
      vertex -66.5 2.5 2
    endloop
  endfacet
  facet normal 0 -1 0
    outer loop
      vertex -62.7512 6.49211 2
      vertex 62.7512 6.49211 18
      vertex -62.7512 6.49211 18
    endloop
  endfacet
  facet normal 0 -1 -0
    outer loop
      vertex 62.7512 6.49211 18
      vertex -62.7512 6.49211 2
      vertex 62.7512 6.49211 2
    endloop
  endfacet
  facet normal 0 1 -0
    outer loop
      vertex 62.7512 -6.49211 2
      vertex -62.7512 -6.49211 18
      vertex 62.7512 -6.49211 18
    endloop
  endfacet
  facet normal 0 1 0
    outer loop
      vertex -62.7512 -6.49211 18
      vertex 62.7512 -6.49211 2
      vertex -62.7512 -6.49211 2
    endloop
  endfacet
  facet normal -1 0 0
    outer loop
      vertex 66.5 -2.5 2
      vertex 66.5 2.5 18
      vertex 66.5 2.5 2
    endloop
  endfacet
  facet normal -1 -0 0
    outer loop
      vertex 66.5 2.5 18
      vertex 66.5 -2.5 2
      vertex 66.5 -2.5 18
    endloop
  endfacet
  facet normal -0.770509 0.637429 0
    outer loop
      vertex 65.4159 -5.23819 2
      vertex 65.7361 -4.85114 18
      vertex 65.7361 -4.85114 2
    endloop
  endfacet
  facet normal -0.770509 0.637429 0
    outer loop
      vertex 65.7361 -4.85114 18
      vertex 65.4159 -5.23819 2
      vertex 65.4159 -5.23819 18
    endloop
  endfacet
  facet normal -0.951072 -0.308968 0
    outer loop
      vertex 66.3743 3.49476 2
      vertex 66.2191 3.9725 18
      vertex 66.2191 3.9725 2
    endloop
  endfacet
  facet normal -0.951072 -0.308968 0
    outer loop
      vertex 66.2191 3.9725 18
      vertex 66.3743 3.49476 2
      vertex 66.3743 3.49476 18
    endloop
  endfacet
  facet normal -0.770509 -0.637429 0
    outer loop
      vertex 65.7361 4.85114 2
      vertex 65.4159 5.23819 18
      vertex 65.4159 5.23819 2
    endloop
  endfacet
  facet normal -0.770509 -0.637429 0
    outer loop
      vertex 65.4159 5.23819 18
      vertex 65.7361 4.85114 2
      vertex 65.7361 4.85114 18
    endloop
  endfacet
  facet normal -0.998032 0.0627092 0
    outer loop
      vertex 66.4685 -3.00133 2
      vertex 66.5 -2.5 18
      vertex 66.5 -2.5 2
    endloop
  endfacet
  facet normal -0.998032 0.0627092 0
    outer loop
      vertex 66.5 -2.5 18
      vertex 66.4685 -3.00133 2
      vertex 66.4685 -3.00133 18
    endloop
  endfacet
  facet normal 0.368162 0.929762 -0
    outer loop
      vertex -63.7361 -6.30423 2
      vertex -64.2031 -6.11931 18
      vertex -63.7361 -6.30423 18
    endloop
  endfacet
  facet normal 0.368162 0.929762 0
    outer loop
      vertex -64.2031 -6.11931 18
      vertex -63.7361 -6.30423 2
      vertex -64.2031 -6.11931 2
    endloop
  endfacet
  facet normal -0.481751 0.876308 0
    outer loop
      vertex 64.6433 -5.87731 2
      vertex 64.2031 -6.11931 18
      vertex 64.6433 -5.87731 18
    endloop
  endfacet
  facet normal -0.481751 0.876308 0
    outer loop
      vertex 64.2031 -6.11931 18
      vertex 64.6433 -5.87731 2
      vertex 64.2031 -6.11931 2
    endloop
  endfacet
  facet normal -0.587776 0.809024 0
    outer loop
      vertex 65.0497 -5.58205 2
      vertex 64.6433 -5.87731 18
      vertex 65.0497 -5.58205 18
    endloop
  endfacet
  facet normal -0.587776 0.809024 0
    outer loop
      vertex 64.6433 -5.87731 18
      vertex 65.0497 -5.58205 2
      vertex 64.6433 -5.87731 2
    endloop
  endfacet
  facet normal -0.481751 -0.876308 0
    outer loop
      vertex 64.2031 6.11931 2
      vertex 64.6433 5.87731 18
      vertex 64.2031 6.11931 18
    endloop
  endfacet
  facet normal -0.481751 -0.876308 -0
    outer loop
      vertex 64.6433 5.87731 18
      vertex 64.2031 6.11931 2
      vertex 64.6433 5.87731 2
    endloop
  endfacet
  facet normal -0.125353 -0.992112 0
    outer loop
      vertex 62.7512 6.49211 2
      vertex 63.2495 6.42915 18
      vertex 62.7512 6.49211 18
    endloop
  endfacet
  facet normal -0.125353 -0.992112 -0
    outer loop
      vertex 63.2495 6.42915 18
      vertex 62.7512 6.49211 2
      vertex 63.2495 6.42915 2
    endloop
  endfacet
  facet normal -0.951072 0.308968 0
    outer loop
      vertex 66.2191 -3.9725 2
      vertex 66.3743 -3.49476 18
      vertex 66.3743 -3.49476 2
    endloop
  endfacet
  facet normal -0.951072 0.308968 0
    outer loop
      vertex 66.3743 -3.49476 18
      vertex 66.2191 -3.9725 2
      vertex 66.2191 -3.9725 18
    endloop
  endfacet
  facet normal 0.844383 -0.53574 0
    outer loop
      vertex -66.0052 4.42701 18
      vertex -65.7361 4.85114 2
      vertex -65.7361 4.85114 18
    endloop
  endfacet
  facet normal 0.844383 -0.53574 0
    outer loop
      vertex -65.7361 4.85114 2
      vertex -66.0052 4.42701 18
      vertex -66.0052 4.42701 2
    endloop
  endfacet
  facet normal 0.368162 -0.929762 0
    outer loop
      vertex -64.2031 6.11931 2
      vertex -63.7361 6.30423 18
      vertex -64.2031 6.11931 18
    endloop
  endfacet
  facet normal 0.368162 -0.929762 0
    outer loop
      vertex -63.7361 6.30423 18
      vertex -64.2031 6.11931 2
      vertex -63.7361 6.30423 2
    endloop
  endfacet
  facet normal 0 0 1
    outer loop
      vertex 62.7512 6.49211 2
      vertex 66.5 2.5 2
      vertex 66.4685 3.00133 2
    endloop
  endfacet
  facet normal 0 0 1
    outer loop
      vertex 66.5 2.5 2
      vertex 62.7512 6.49211 2
      vertex 66.5 -2.5 2
    endloop
  endfacet
  facet normal 0 0 1
    outer loop
      vertex 62.7512 6.49211 2
      vertex 66.4685 3.00133 2
      vertex 66.3743 3.49476 2
    endloop
  endfacet
  facet normal 0 0 1
    outer loop
      vertex 62.7512 -6.49211 2
      vertex 66.5 -2.5 2
      vertex 62.7512 6.49211 2
    endloop
  endfacet
  facet normal 0 0 1
    outer loop
      vertex 62.7512 6.49211 2
      vertex 66.3743 3.49476 2
      vertex 66.2191 3.9725 2
    endloop
  endfacet
  facet normal 0 0 1
    outer loop
      vertex 66.5 -2.5 2
      vertex 62.7512 -6.49211 2
      vertex 66.4685 -3.00133 2
    endloop
  endfacet
  facet normal 0 0 1
    outer loop
      vertex 62.7512 6.49211 2
      vertex 66.2191 3.9725 2
      vertex 66.0052 4.42701 2
    endloop
  endfacet
  facet normal 0 0 1
    outer loop
      vertex 66.4685 -3.00133 2
      vertex 62.7512 -6.49211 2
      vertex 66.3743 -3.49476 2
    endloop
  endfacet
  facet normal 0 0 1
    outer loop
      vertex 62.7512 6.49211 2
      vertex 66.0052 4.42701 2
      vertex 65.7361 4.85114 2
    endloop
  endfacet
  facet normal 0 0 1
    outer loop
      vertex 66.3743 -3.49476 2
      vertex 62.7512 -6.49211 2
      vertex 66.2191 -3.9725 2
    endloop
  endfacet
  facet normal 0 0 1
    outer loop
      vertex 62.7512 6.49211 2
      vertex 65.7361 4.85114 2
      vertex 65.4159 5.23819 2
    endloop
  endfacet
  facet normal 0 0 1
    outer loop
      vertex 66.2191 -3.9725 2
      vertex 62.7512 -6.49211 2
      vertex 66.0052 -4.42701 2
    endloop
  endfacet
  facet normal 0 0 1
    outer loop
      vertex 62.7512 6.49211 2
      vertex 65.4159 5.23819 2
      vertex 65.0497 5.58205 2
    endloop
  endfacet
  facet normal 0 0 1
    outer loop
      vertex 66.0052 -4.42701 2
      vertex 62.7512 -6.49211 2
      vertex 65.7361 -4.85114 2
    endloop
  endfacet
  facet normal 0 0 1
    outer loop
      vertex 62.7512 6.49211 2
      vertex 65.0497 5.58205 2
      vertex 64.6433 5.87731 2
    endloop
  endfacet
  facet normal 0 0 1
    outer loop
      vertex 65.7361 -4.85114 2
      vertex 62.7512 -6.49211 2
      vertex 65.4159 -5.23819 2
    endloop
  endfacet
  facet normal 0 0 1
    outer loop
      vertex 62.7512 6.49211 2
      vertex 64.6433 5.87731 2
      vertex 64.2031 6.11931 2
    endloop
  endfacet
  facet normal 0 0 1
    outer loop
      vertex 65.4159 -5.23819 2
      vertex 62.7512 -6.49211 2
      vertex 65.0497 -5.58205 2
    endloop
  endfacet
  facet normal 0 0 1
    outer loop
      vertex 62.7512 6.49211 2
      vertex 64.2031 6.11931 2
      vertex 63.7361 6.30423 2
    endloop
  endfacet
  facet normal 0 0 1
    outer loop
      vertex 65.0497 -5.58205 2
      vertex 62.7512 -6.49211 2
      vertex 64.6433 -5.87731 2
    endloop
  endfacet
  facet normal 0 0 1
    outer loop
      vertex 62.7512 6.49211 2
      vertex 63.7361 6.30423 2
      vertex 63.2495 6.42915 2
    endloop
  endfacet
  facet normal 0 0 1
    outer loop
      vertex 64.6433 -5.87731 2
      vertex 62.7512 -6.49211 2
      vertex 64.2031 -6.11931 2
    endloop
  endfacet
  facet normal 0 0 1
    outer loop
      vertex 64.2031 -6.11931 2
      vertex 62.7512 -6.49211 2
      vertex 63.7361 -6.30423 2
    endloop
  endfacet
  facet normal 0 0 1
    outer loop
      vertex 63.7361 -6.30423 2
      vertex 62.7512 -6.49211 2
      vertex 63.2495 -6.42915 2
    endloop
  endfacet
  facet normal -0 0 1
    outer loop
      vertex -62.7512 6.49211 2
      vertex 62.7512 -6.49211 2
      vertex 62.7512 6.49211 2
    endloop
  endfacet
  facet normal 0 0 1
    outer loop
      vertex -62.7512 6.49211 2
      vertex -62.7512 -6.49211 2
      vertex 62.7512 -6.49211 2
    endloop
  endfacet
  facet normal 0 0 1
    outer loop
      vertex -66.5 2.5 2
      vertex -62.7512 6.49211 2
      vertex -63.2495 6.42915 2
    endloop
  endfacet
  facet normal 0 0 1
    outer loop
      vertex -62.7512 6.49211 2
      vertex -66.5 2.5 2
      vertex -62.7512 -6.49211 2
    endloop
  endfacet
  facet normal 0 0 1
    outer loop
      vertex -66.5 2.5 2
      vertex -63.2495 6.42915 2
      vertex -63.7361 6.30423 2
    endloop
  endfacet
  facet normal -0 0 1
    outer loop
      vertex -66.5 -2.5 2
      vertex -62.7512 -6.49211 2
      vertex -66.5 2.5 2
    endloop
  endfacet
  facet normal 0 0 1
    outer loop
      vertex -66.5 2.5 2
      vertex -63.7361 6.30423 2
      vertex -64.2031 6.11931 2
    endloop
  endfacet
  facet normal 0 0 1
    outer loop
      vertex -62.7512 -6.49211 2
      vertex -66.5 -2.5 2
      vertex -63.2495 -6.42915 2
    endloop
  endfacet
  facet normal 0 0 1
    outer loop
      vertex -66.5 2.5 2
      vertex -64.2031 6.11931 2
      vertex -64.6433 5.87731 2
    endloop
  endfacet
  facet normal 0 0 1
    outer loop
      vertex -63.2495 -6.42915 2
      vertex -66.5 -2.5 2
      vertex -63.7361 -6.30423 2
    endloop
  endfacet
  facet normal 0 0 1
    outer loop
      vertex -66.5 2.5 2
      vertex -64.6433 5.87731 2
      vertex -65.0497 5.58205 2
    endloop
  endfacet
  facet normal 0 0 1
    outer loop
      vertex -63.7361 -6.30423 2
      vertex -66.5 -2.5 2
      vertex -64.2031 -6.11931 2
    endloop
  endfacet
  facet normal 0 0 1
    outer loop
      vertex -66.5 2.5 2
      vertex -65.0497 5.58205 2
      vertex -65.4159 5.23819 2
    endloop
  endfacet
  facet normal 0 0 1
    outer loop
      vertex -64.2031 -6.11931 2
      vertex -66.5 -2.5 2
      vertex -64.6433 -5.87731 2
    endloop
  endfacet
  facet normal 0 0 1
    outer loop
      vertex -66.5 2.5 2
      vertex -65.4159 5.23819 2
      vertex -65.7361 4.85114 2
    endloop
  endfacet
  facet normal 0 0 1
    outer loop
      vertex -64.6433 -5.87731 2
      vertex -66.5 -2.5 2
      vertex -65.0497 -5.58205 2
    endloop
  endfacet
  facet normal 0 0 1
    outer loop
      vertex -66.5 2.5 2
      vertex -65.7361 4.85114 2
      vertex -66.0052 4.42701 2
    endloop
  endfacet
  facet normal 0 0 1
    outer loop
      vertex -65.0497 -5.58205 2
      vertex -66.5 -2.5 2
      vertex -65.4159 -5.23819 2
    endloop
  endfacet
  facet normal 0 0 1
    outer loop
      vertex -66.5 2.5 2
      vertex -66.0052 4.42701 2
      vertex -66.2191 3.9725 2
    endloop
  endfacet
  facet normal 0 0 1
    outer loop
      vertex -65.4159 -5.23819 2
      vertex -66.5 -2.5 2
      vertex -65.7361 -4.85114 2
    endloop
  endfacet
  facet normal 0 0 1
    outer loop
      vertex -66.5 2.5 2
      vertex -66.2191 3.9725 2
      vertex -66.3743 3.49476 2
    endloop
  endfacet
  facet normal 0 0 1
    outer loop
      vertex -65.7361 -4.85114 2
      vertex -66.5 -2.5 2
      vertex -66.0052 -4.42701 2
    endloop
  endfacet
  facet normal 0 0 1
    outer loop
      vertex -66.5 2.5 2
      vertex -66.3743 3.49476 2
      vertex -66.4685 3.00133 2
    endloop
  endfacet
  facet normal 0 0 1
    outer loop
      vertex -66.0052 -4.42701 2
      vertex -66.5 -2.5 2
      vertex -66.2191 -3.9725 2
    endloop
  endfacet
  facet normal 0 0 1
    outer loop
      vertex -66.2191 -3.9725 2
      vertex -66.5 -2.5 2
      vertex -66.3743 -3.49476 2
    endloop
  endfacet
  facet normal 0 0 1
    outer loop
      vertex -66.3743 -3.49476 2
      vertex -66.5 -2.5 2
      vertex -66.4685 -3.00133 2
    endloop
  endfacet
  facet normal 0.951072 0.308968 0
    outer loop
      vertex -66.2191 -3.9725 18
      vertex -66.3743 -3.49476 2
      vertex -66.3743 -3.49476 18
    endloop
  endfacet
  facet normal 0.951072 0.308968 0
    outer loop
      vertex -66.3743 -3.49476 2
      vertex -66.2191 -3.9725 18
      vertex -66.2191 -3.9725 2
    endloop
  endfacet
  facet normal 0.248657 0.968592 -0
    outer loop
      vertex -63.2495 -6.42915 2
      vertex -63.7361 -6.30423 18
      vertex -63.2495 -6.42915 18
    endloop
  endfacet
  facet normal 0.248657 0.968592 0
    outer loop
      vertex -63.7361 -6.30423 18
      vertex -63.2495 -6.42915 2
      vertex -63.7361 -6.30423 2
    endloop
  endfacet
  facet normal -0.368162 0.929762 0
    outer loop
      vertex 64.2031 -6.11931 2
      vertex 63.7361 -6.30423 18
      vertex 64.2031 -6.11931 18
    endloop
  endfacet
  facet normal -0.368162 0.929762 0
    outer loop
      vertex 63.7361 -6.30423 18
      vertex 64.2031 -6.11931 2
      vertex 63.7361 -6.30423 2
    endloop
  endfacet
  facet normal -0.125353 0.992112 0
    outer loop
      vertex 63.2495 -6.42915 2
      vertex 62.7512 -6.49211 18
      vertex 63.2495 -6.42915 18
    endloop
  endfacet
  facet normal -0.125353 0.992112 0
    outer loop
      vertex 62.7512 -6.49211 18
      vertex 63.2495 -6.42915 2
      vertex 62.7512 -6.49211 2
    endloop
  endfacet
  facet normal -0.368162 -0.929762 0
    outer loop
      vertex 63.7361 6.30423 2
      vertex 64.2031 6.11931 18
      vertex 63.7361 6.30423 18
    endloop
  endfacet
  facet normal -0.368162 -0.929762 -0
    outer loop
      vertex 64.2031 6.11931 18
      vertex 63.7361 6.30423 2
      vertex 64.2031 6.11931 2
    endloop
  endfacet
  facet normal -0.98226 -0.187522 0
    outer loop
      vertex 66.4685 3.00133 2
      vertex 66.3743 3.49476 18
      vertex 66.3743 3.49476 2
    endloop
  endfacet
  facet normal -0.98226 -0.187522 0
    outer loop
      vertex 66.3743 3.49476 18
      vertex 66.4685 3.00133 2
      vertex 66.4685 3.00133 18
    endloop
  endfacet
  facet normal -0.844383 0.53574 0
    outer loop
      vertex 65.7361 -4.85114 2
      vertex 66.0052 -4.42701 18
      vertex 66.0052 -4.42701 2
    endloop
  endfacet
  facet normal -0.844383 0.53574 0
    outer loop
      vertex 66.0052 -4.42701 18
      vertex 65.7361 -4.85114 2
      vertex 65.7361 -4.85114 18
    endloop
  endfacet
  facet normal -0.98226 0.187522 0
    outer loop
      vertex 66.3743 -3.49476 2
      vertex 66.4685 -3.00133 18
      vertex 66.4685 -3.00133 2
    endloop
  endfacet
  facet normal -0.98226 0.187522 0
    outer loop
      vertex 66.4685 -3.00133 18
      vertex 66.3743 -3.49476 2
      vertex 66.3743 -3.49476 18
    endloop
  endfacet
  facet normal 0.951072 -0.308968 0
    outer loop
      vertex -66.3743 3.49476 18
      vertex -66.2191 3.9725 2
      vertex -66.2191 3.9725 18
    endloop
  endfacet
  facet normal 0.951072 -0.308968 0
    outer loop
      vertex -66.2191 3.9725 2
      vertex -66.3743 3.49476 18
      vertex -66.3743 3.49476 2
    endloop
  endfacet
  facet normal 0.904809 -0.425818 0
    outer loop
      vertex -66.2191 3.9725 18
      vertex -66.0052 4.42701 2
      vertex -66.0052 4.42701 18
    endloop
  endfacet
  facet normal 0.904809 -0.425818 0
    outer loop
      vertex -66.0052 4.42701 2
      vertex -66.2191 3.9725 18
      vertex -66.2191 3.9725 2
    endloop
  endfacet
  facet normal 0.770509 0.637429 0
    outer loop
      vertex -65.4159 -5.23819 18
      vertex -65.7361 -4.85114 2
      vertex -65.7361 -4.85114 18
    endloop
  endfacet
  facet normal 0.770509 0.637429 0
    outer loop
      vertex -65.7361 -4.85114 2
      vertex -65.4159 -5.23819 18
      vertex -65.4159 -5.23819 2
    endloop
  endfacet
  facet normal 0.98226 0.187522 0
    outer loop
      vertex -66.3743 -3.49476 18
      vertex -66.4685 -3.00133 2
      vertex -66.4685 -3.00133 18
    endloop
  endfacet
  facet normal 0.98226 0.187522 0
    outer loop
      vertex -66.4685 -3.00133 2
      vertex -66.3743 -3.49476 18
      vertex -66.3743 -3.49476 2
    endloop
  endfacet
  facet normal 0.125353 0.992112 -0
    outer loop
      vertex -62.7512 -6.49211 2
      vertex -63.2495 -6.42915 18
      vertex -62.7512 -6.49211 18
    endloop
  endfacet
  facet normal 0.125353 0.992112 0
    outer loop
      vertex -63.2495 -6.42915 18
      vertex -62.7512 -6.49211 2
      vertex -63.2495 -6.42915 2
    endloop
  endfacet
  facet normal -0.684521 0.728993 0
    outer loop
      vertex 65.4159 -5.23819 2
      vertex 65.0497 -5.58205 18
      vertex 65.4159 -5.23819 18
    endloop
  endfacet
  facet normal -0.684521 0.728993 0
    outer loop
      vertex 65.0497 -5.58205 18
      vertex 65.4159 -5.23819 2
      vertex 65.0497 -5.58205 2
    endloop
  endfacet
  facet normal -0.248657 0.968592 0
    outer loop
      vertex 63.7361 -6.30423 2
      vertex 63.2495 -6.42915 18
      vertex 63.7361 -6.30423 18
    endloop
  endfacet
  facet normal -0.248657 0.968592 0
    outer loop
      vertex 63.2495 -6.42915 18
      vertex 63.7361 -6.30423 2
      vertex 63.2495 -6.42915 2
    endloop
  endfacet
  facet normal -0.248657 -0.968592 0
    outer loop
      vertex 63.2495 6.42915 2
      vertex 63.7361 6.30423 18
      vertex 63.2495 6.42915 18
    endloop
  endfacet
  facet normal -0.248657 -0.968592 -0
    outer loop
      vertex 63.7361 6.30423 18
      vertex 63.2495 6.42915 2
      vertex 63.7361 6.30423 2
    endloop
  endfacet
  facet normal -0.844383 -0.53574 0
    outer loop
      vertex 66.0052 4.42701 2
      vertex 65.7361 4.85114 18
      vertex 65.7361 4.85114 2
    endloop
  endfacet
  facet normal -0.844383 -0.53574 0
    outer loop
      vertex 65.7361 4.85114 18
      vertex 66.0052 4.42701 2
      vertex 66.0052 4.42701 18
    endloop
  endfacet
  facet normal -0.904809 -0.425818 0
    outer loop
      vertex 66.2191 3.9725 2
      vertex 66.0052 4.42701 18
      vertex 66.0052 4.42701 2
    endloop
  endfacet
  facet normal -0.904809 -0.425818 0
    outer loop
      vertex 66.0052 4.42701 18
      vertex 66.2191 3.9725 2
      vertex 66.2191 3.9725 18
    endloop
  endfacet
  facet normal -0.998032 -0.0627092 0
    outer loop
      vertex 66.5 2.5 2
      vertex 66.4685 3.00133 18
      vertex 66.4685 3.00133 2
    endloop
  endfacet
  facet normal -0.998032 -0.0627092 0
    outer loop
      vertex 66.4685 3.00133 18
      vertex 66.5 2.5 2
      vertex 66.5 2.5 18
    endloop
  endfacet
  facet normal -0.904809 0.425818 0
    outer loop
      vertex 66.0052 -4.42701 2
      vertex 66.2191 -3.9725 18
      vertex 66.2191 -3.9725 2
    endloop
  endfacet
  facet normal -0.904809 0.425818 0
    outer loop
      vertex 66.2191 -3.9725 18
      vertex 66.0052 -4.42701 2
      vertex 66.0052 -4.42701 18
    endloop
  endfacet
  facet normal 0.98226 -0.187522 0
    outer loop
      vertex -66.4685 3.00133 18
      vertex -66.3743 3.49476 2
      vertex -66.3743 3.49476 18
    endloop
  endfacet
  facet normal 0.98226 -0.187522 0
    outer loop
      vertex -66.3743 3.49476 2
      vertex -66.4685 3.00133 18
      vertex -66.4685 3.00133 2
    endloop
  endfacet
  facet normal 0.587776 -0.809024 0
    outer loop
      vertex -65.0497 5.58205 2
      vertex -64.6433 5.87731 18
      vertex -65.0497 5.58205 18
    endloop
  endfacet
  facet normal 0.587776 -0.809024 0
    outer loop
      vertex -64.6433 5.87731 18
      vertex -65.0497 5.58205 2
      vertex -64.6433 5.87731 2
    endloop
  endfacet
  facet normal 0.248657 -0.968592 0
    outer loop
      vertex -63.7361 6.30423 2
      vertex -63.2495 6.42915 18
      vertex -63.7361 6.30423 18
    endloop
  endfacet
  facet normal 0.248657 -0.968592 0
    outer loop
      vertex -63.2495 6.42915 18
      vertex -63.7361 6.30423 2
      vertex -63.2495 6.42915 2
    endloop
  endfacet
  facet normal 0.125353 -0.992112 0
    outer loop
      vertex -63.2495 6.42915 2
      vertex -62.7512 6.49211 18
      vertex -63.2495 6.42915 18
    endloop
  endfacet
  facet normal 0.125353 -0.992112 0
    outer loop
      vertex -62.7512 6.49211 18
      vertex -63.2495 6.42915 2
      vertex -62.7512 6.49211 2
    endloop
  endfacet
  facet normal 0.904809 0.425818 0
    outer loop
      vertex -66.0052 -4.42701 18
      vertex -66.2191 -3.9725 2
      vertex -66.2191 -3.9725 18
    endloop
  endfacet
  facet normal 0.904809 0.425818 0
    outer loop
      vertex -66.2191 -3.9725 2
      vertex -66.0052 -4.42701 18
      vertex -66.0052 -4.42701 2
    endloop
  endfacet
  facet normal 0.684521 0.728993 -0
    outer loop
      vertex -65.0497 -5.58205 2
      vertex -65.4159 -5.23819 18
      vertex -65.0497 -5.58205 18
    endloop
  endfacet
  facet normal 0.684521 0.728993 0
    outer loop
      vertex -65.4159 -5.23819 18
      vertex -65.0497 -5.58205 2
      vertex -65.4159 -5.23819 2
    endloop
  endfacet
  facet normal 0.481751 0.876308 -0
    outer loop
      vertex -64.2031 -6.11931 2
      vertex -64.6433 -5.87731 18
      vertex -64.2031 -6.11931 18
    endloop
  endfacet
  facet normal 0.481751 0.876308 0
    outer loop
      vertex -64.6433 -5.87731 18
      vertex -64.2031 -6.11931 2
      vertex -64.6433 -5.87731 2
    endloop
  endfacet
  facet normal 0.587776 0.809024 -0
    outer loop
      vertex -64.6433 -5.87731 2
      vertex -65.0497 -5.58205 18
      vertex -64.6433 -5.87731 18
    endloop
  endfacet
  facet normal 0.587776 0.809024 0
    outer loop
      vertex -65.0497 -5.58205 18
      vertex -64.6433 -5.87731 2
      vertex -65.0497 -5.58205 2
    endloop
  endfacet
  facet normal -0.587776 -0.809024 0
    outer loop
      vertex 64.6433 5.87731 2
      vertex 65.0497 5.58205 18
      vertex 64.6433 5.87731 18
    endloop
  endfacet
  facet normal -0.587776 -0.809024 -0
    outer loop
      vertex 65.0497 5.58205 18
      vertex 64.6433 5.87731 2
      vertex 65.0497 5.58205 2
    endloop
  endfacet
  facet normal -0.684521 -0.728993 0
    outer loop
      vertex 65.0497 5.58205 2
      vertex 65.4159 5.23819 18
      vertex 65.0497 5.58205 18
    endloop
  endfacet
  facet normal -0.684521 -0.728993 -0
    outer loop
      vertex 65.4159 5.23819 18
      vertex 65.0497 5.58205 2
      vertex 65.4159 5.23819 2
    endloop
  endfacet
  facet normal 0.770509 -0.637429 0
    outer loop
      vertex -65.7361 4.85114 18
      vertex -65.4159 5.23819 2
      vertex -65.4159 5.23819 18
    endloop
  endfacet
  facet normal 0.770509 -0.637429 0
    outer loop
      vertex -65.4159 5.23819 2
      vertex -65.7361 4.85114 18
      vertex -65.7361 4.85114 2
    endloop
  endfacet
  facet normal 0.684521 -0.728993 0
    outer loop
      vertex -65.4159 5.23819 2
      vertex -65.0497 5.58205 18
      vertex -65.4159 5.23819 18
    endloop
  endfacet
  facet normal 0.684521 -0.728993 0
    outer loop
      vertex -65.0497 5.58205 18
      vertex -65.4159 5.23819 2
      vertex -65.0497 5.58205 2
    endloop
  endfacet
  facet normal 0.481751 -0.876308 0
    outer loop
      vertex -64.6433 5.87731 2
      vertex -64.2031 6.11931 18
      vertex -64.6433 5.87731 18
    endloop
  endfacet
  facet normal 0.481751 -0.876308 0
    outer loop
      vertex -64.2031 6.11931 18
      vertex -64.6433 5.87731 2
      vertex -64.2031 6.11931 2
    endloop
  endfacet
  facet normal 0.844383 0.53574 0
    outer loop
      vertex -65.7361 -4.85114 18
      vertex -66.0052 -4.42701 2
      vertex -66.0052 -4.42701 18
    endloop
  endfacet
  facet normal 0.844383 0.53574 0
    outer loop
      vertex -66.0052 -4.42701 2
      vertex -65.7361 -4.85114 18
      vertex -65.7361 -4.85114 2
    endloop
  endfacet
endsolid OpenSCAD_Model
