solid OpenSCAD_Model
  facet normal -1 0 0
    outer loop
      vertex -22.5 -10 0
      vertex -22.5 10 12
      vertex -22.5 10 0
    endloop
  endfacet
  facet normal -1 -0 0
    outer loop
      vertex -22.5 10 12
      vertex -22.5 -10 0
      vertex -22.5 -10 12
    endloop
  endfacet
  facet normal -0.99803 0.0627451 0
    outer loop
      vertex -22.5 10 0
      vertex -22.4606 10.6267 12
      vertex -22.4606 10.6267 0
    endloop
  endfacet
  facet normal -0.99803 0.0627451 0
    outer loop
      vertex -22.4606 10.6267 12
      vertex -22.5 10 0
      vertex -22.5 10 12
    endloop
  endfacet
  facet normal -0.368203 0.929745 0
    outer loop
      vertex -19.0451 14.7553 0
      vertex -19.6289 14.5241 12
      vertex -19.0451 14.7553 12
    endloop
  endfacet
  facet normal -0.368203 0.929745 0
    outer loop
      vertex -19.6289 14.5241 12
      vertex -19.0451 14.7553 0
      vertex -19.6289 14.5241 0
    endloop
  endfacet
  facet normal 0 0 1
    outer loop
      vertex 21.5 10 12
      vertex 22.5 10 12
      vertex 22.4606 10.6267 12
    endloop
  endfacet
  facet normal 0 0 1
    outer loop
      vertex 22.5 10 12
      vertex 21.5 10 12
      vertex 22.5 -10 12
    endloop
  endfacet
  facet normal 0 0 1
    outer loop
      vertex 21.4685 10.5013 12
      vertex 22.4606 10.6267 12
      vertex 22.3429 11.2434 12
    endloop
  endfacet
  facet normal 0 0 1
    outer loop
      vertex 21.5 -10 12
      vertex 22.5 -10 12
      vertex 21.5 10 12
    endloop
  endfacet
  facet normal 0 0 1
    outer loop
      vertex 21.3743 10.9948 12
      vertex 22.3429 11.2434 12
      vertex 22.1489 11.8406 12
    endloop
  endfacet
  facet normal 0 0 1
    outer loop
      vertex 22.5 -10 12
      vertex 21.5 -10 12
      vertex 22.4606 -10.6267 12
    endloop
  endfacet
  facet normal 0 0 1
    outer loop
      vertex 21.2191 11.4725 12
      vertex 22.1489 11.8406 12
      vertex 21.8815 12.4088 12
    endloop
  endfacet
  facet normal -0 0 1
    outer loop
      vertex 21.4685 -10.5013 12
      vertex 22.4606 -10.6267 12
      vertex 21.5 -10 12
    endloop
  endfacet
  facet normal 0 0 1
    outer loop
      vertex 21.0052 11.927 12
      vertex 21.8815 12.4088 12
      vertex 21.5451 12.9389 12
    endloop
  endfacet
  facet normal 0 0 1
    outer loop
      vertex 22.4606 -10.6267 12
      vertex 21.4685 -10.5013 12
      vertex 22.3429 -11.2434 12
    endloop
  endfacet
  facet normal -0 0 1
    outer loop
      vertex 21.3743 -10.9948 12
      vertex 22.3429 -11.2434 12
      vertex 21.4685 -10.5013 12
    endloop
  endfacet
  facet normal 0 0 1
    outer loop
      vertex 22.4606 10.6267 12
      vertex 21.4685 10.5013 12
      vertex 21.5 10 12
    endloop
  endfacet
  facet normal 0 0 1
    outer loop
      vertex 22.3429 11.2434 12
      vertex 21.3743 10.9948 12
      vertex 21.4685 10.5013 12
    endloop
  endfacet
  facet normal 0 0 1
    outer loop
      vertex 22.1489 11.8406 12
      vertex 21.2191 11.4725 12
      vertex 21.3743 10.9948 12
    endloop
  endfacet
  facet normal 0 0 1
    outer loop
      vertex 20.7361 12.3511 12
      vertex 21.5451 12.9389 12
      vertex 21.1448 13.4227 12
    endloop
  endfacet
  facet normal 0 0 1
    outer loop
      vertex 21.8815 12.4088 12
      vertex 21.0052 11.927 12
      vertex 21.2191 11.4725 12
    endloop
  endfacet
  facet normal 0 0 1
    outer loop
      vertex 21.5451 12.9389 12
      vertex 20.7361 12.3511 12
      vertex 21.0052 11.927 12
    endloop
  endfacet
  facet normal 0 0 1
    outer loop
      vertex 20.4159 12.7382 12
      vertex 21.1448 13.4227 12
      vertex 20.6871 13.8526 12
    endloop
  endfacet
  facet normal 0 0 1
    outer loop
      vertex 21.1448 13.4227 12
      vertex 20.4159 12.7382 12
      vertex 20.7361 12.3511 12
    endloop
  endfacet
  facet normal 0 0 1
    outer loop
      vertex 20.0497 13.0821 12
      vertex 20.6871 13.8526 12
      vertex 20.1791 14.2216 12
    endloop
  endfacet
  facet normal 0 0 1
    outer loop
      vertex 20.6871 13.8526 12
      vertex 20.0497 13.0821 12
      vertex 20.4159 12.7382 12
    endloop
  endfacet
  facet normal 0 0 1
    outer loop
      vertex 20.1791 14.2216 12
      vertex 19.6433 13.3773 12
      vertex 20.0497 13.0821 12
    endloop
  endfacet
  facet normal 0 0 1
    outer loop
      vertex 19.6289 14.5241 12
      vertex 19.6433 13.3773 12
      vertex 20.1791 14.2216 12
    endloop
  endfacet
  facet normal 0 0 1
    outer loop
      vertex 19.6289 14.5241 12
      vertex 19.2031 13.6193 12
      vertex 19.6433 13.3773 12
    endloop
  endfacet
  facet normal 0 0 1
    outer loop
      vertex 19.0451 14.7553 12
      vertex 19.2031 13.6193 12
      vertex 19.6289 14.5241 12
    endloop
  endfacet
  facet normal 0 0 1
    outer loop
      vertex 19.0451 14.7553 12
      vertex 18.7361 13.8042 12
      vertex 19.2031 13.6193 12
    endloop
  endfacet
  facet normal 0 0 1
    outer loop
      vertex 18.4369 14.9114 12
      vertex 18.7361 13.8042 12
      vertex 19.0451 14.7553 12
    endloop
  endfacet
  facet normal 0 0 1
    outer loop
      vertex 18.4369 14.9114 12
      vertex 18.2495 13.9291 12
      vertex 18.7361 13.8042 12
    endloop
  endfacet
  facet normal 0 0 1
    outer loop
      vertex 17.814 14.9901 12
      vertex 18.2495 13.9291 12
      vertex 18.4369 14.9114 12
    endloop
  endfacet
  facet normal 0 0 1
    outer loop
      vertex 17.814 14.9901 12
      vertex 17.7512 13.9921 12
      vertex 18.2495 13.9291 12
    endloop
  endfacet
  facet normal 0 0 1
    outer loop
      vertex 17.814 14.9901 12
      vertex -17.7512 13.9921 12
      vertex 17.7512 13.9921 12
    endloop
  endfacet
  facet normal -0 0 1
    outer loop
      vertex -17.814 14.9901 12
      vertex -17.7512 13.9921 12
      vertex 17.814 14.9901 12
    endloop
  endfacet
  facet normal 0 0 1
    outer loop
      vertex -17.814 14.9901 12
      vertex -18.2495 13.9291 12
      vertex -17.7512 13.9921 12
    endloop
  endfacet
  facet normal -0 0 1
    outer loop
      vertex -18.4369 14.9114 12
      vertex -18.2495 13.9291 12
      vertex -17.814 14.9901 12
    endloop
  endfacet
  facet normal 0 0 1
    outer loop
      vertex -18.4369 14.9114 12
      vertex -18.7361 13.8042 12
      vertex -18.2495 13.9291 12
    endloop
  endfacet
  facet normal -0 0 1
    outer loop
      vertex -19.0451 14.7553 12
      vertex -18.7361 13.8042 12
      vertex -18.4369 14.9114 12
    endloop
  endfacet
  facet normal 0 0 1
    outer loop
      vertex -19.0451 14.7553 12
      vertex -19.2031 13.6193 12
      vertex -18.7361 13.8042 12
    endloop
  endfacet
  facet normal -0 0 1
    outer loop
      vertex -19.6289 14.5241 12
      vertex -19.2031 13.6193 12
      vertex -19.0451 14.7553 12
    endloop
  endfacet
  facet normal 0 0 1
    outer loop
      vertex -19.6289 14.5241 12
      vertex -19.6433 13.3773 12
      vertex -19.2031 13.6193 12
    endloop
  endfacet
  facet normal -0 0 1
    outer loop
      vertex -20.1791 14.2216 12
      vertex -19.6433 13.3773 12
      vertex -19.6289 14.5241 12
    endloop
  endfacet
  facet normal 0 0 1
    outer loop
      vertex -19.6433 13.3773 12
      vertex -20.1791 14.2216 12
      vertex -20.0497 13.0821 12
    endloop
  endfacet
  facet normal -0 0 1
    outer loop
      vertex -20.6871 13.8526 12
      vertex -20.0497 13.0821 12
      vertex -20.1791 14.2216 12
    endloop
  endfacet
  facet normal 0 0 1
    outer loop
      vertex -20.0497 13.0821 12
      vertex -20.6871 13.8526 12
      vertex -20.4159 12.7382 12
    endloop
  endfacet
  facet normal -0 0 1
    outer loop
      vertex -21.1448 13.4227 12
      vertex -20.4159 12.7382 12
      vertex -20.6871 13.8526 12
    endloop
  endfacet
  facet normal 0 0 1
    outer loop
      vertex -20.4159 12.7382 12
      vertex -21.1448 13.4227 12
      vertex -20.7361 12.3511 12
    endloop
  endfacet
  facet normal -0 0 1
    outer loop
      vertex -21.5451 12.9389 12
      vertex -20.7361 12.3511 12
      vertex -21.1448 13.4227 12
    endloop
  endfacet
  facet normal 0 0 1
    outer loop
      vertex -20.7361 12.3511 12
      vertex -21.5451 12.9389 12
      vertex -21.0052 11.927 12
    endloop
  endfacet
  facet normal -0 0 1
    outer loop
      vertex -21.8815 12.4088 12
      vertex -21.0052 11.927 12
      vertex -21.5451 12.9389 12
    endloop
  endfacet
  facet normal 0 0 1
    outer loop
      vertex -21.0052 11.927 12
      vertex -21.8815 12.4088 12
      vertex -21.2191 11.4725 12
    endloop
  endfacet
  facet normal -0 0 1
    outer loop
      vertex -22.3429 11.2434 12
      vertex -21.3743 10.9948 12
      vertex -22.1489 11.8406 12
    endloop
  endfacet
  facet normal 0 0 1
    outer loop
      vertex -21.2191 11.4725 12
      vertex -22.1489 11.8406 12
      vertex -21.3743 10.9948 12
    endloop
  endfacet
  facet normal -0 0 1
    outer loop
      vertex -22.1489 11.8406 12
      vertex -21.2191 11.4725 12
      vertex -21.8815 12.4088 12
    endloop
  endfacet
  facet normal 0 0 1
    outer loop
      vertex 22.3429 -11.2434 12
      vertex 21.3743 -10.9948 12
      vertex 22.1489 -11.8406 12
    endloop
  endfacet
  facet normal -0 0 1
    outer loop
      vertex 21.2191 -11.4725 12
      vertex 22.1489 -11.8406 12
      vertex 21.3743 -10.9948 12
    endloop
  endfacet
  facet normal 0 0 1
    outer loop
      vertex 22.1489 -11.8406 12
      vertex 21.2191 -11.4725 12
      vertex 21.8815 -12.4088 12
    endloop
  endfacet
  facet normal -0 0 1
    outer loop
      vertex 21.0052 -11.927 12
      vertex 21.8815 -12.4088 12
      vertex 21.2191 -11.4725 12
    endloop
  endfacet
  facet normal 0 0 1
    outer loop
      vertex 21.8815 -12.4088 12
      vertex 21.0052 -11.927 12
      vertex 21.5451 -12.9389 12
    endloop
  endfacet
  facet normal -0 0 1
    outer loop
      vertex 20.7361 -12.3511 12
      vertex 21.5451 -12.9389 12
      vertex 21.0052 -11.927 12
    endloop
  endfacet
  facet normal 0 0 1
    outer loop
      vertex 21.5451 -12.9389 12
      vertex 20.7361 -12.3511 12
      vertex 21.1448 -13.4227 12
    endloop
  endfacet
  facet normal -0 0 1
    outer loop
      vertex 20.4159 -12.7382 12
      vertex 21.1448 -13.4227 12
      vertex 20.7361 -12.3511 12
    endloop
  endfacet
  facet normal 0 0 1
    outer loop
      vertex 21.1448 -13.4227 12
      vertex 20.4159 -12.7382 12
      vertex 20.6871 -13.8526 12
    endloop
  endfacet
  facet normal -0 0 1
    outer loop
      vertex 20.0497 -13.0821 12
      vertex 20.6871 -13.8526 12
      vertex 20.4159 -12.7382 12
    endloop
  endfacet
  facet normal 0 0 1
    outer loop
      vertex 20.6871 -13.8526 12
      vertex 20.0497 -13.0821 12
      vertex 20.1791 -14.2216 12
    endloop
  endfacet
  facet normal -0 0 1
    outer loop
      vertex 19.6433 -13.3773 12
      vertex 20.1791 -14.2216 12
      vertex 20.0497 -13.0821 12
    endloop
  endfacet
  facet normal 0 0 1
    outer loop
      vertex 19.6433 -13.3773 12
      vertex 19.6289 -14.5241 12
      vertex 20.1791 -14.2216 12
    endloop
  endfacet
  facet normal -0 0 1
    outer loop
      vertex 19.2031 -13.6193 12
      vertex 19.6289 -14.5241 12
      vertex 19.6433 -13.3773 12
    endloop
  endfacet
  facet normal 0 0 1
    outer loop
      vertex 19.2031 -13.6193 12
      vertex 19.0451 -14.7553 12
      vertex 19.6289 -14.5241 12
    endloop
  endfacet
  facet normal -0 0 1
    outer loop
      vertex 18.7361 -13.8042 12
      vertex 19.0451 -14.7553 12
      vertex 19.2031 -13.6193 12
    endloop
  endfacet
  facet normal 0 0 1
    outer loop
      vertex 18.7361 -13.8042 12
      vertex 18.4369 -14.9114 12
      vertex 19.0451 -14.7553 12
    endloop
  endfacet
  facet normal -0 0 1
    outer loop
      vertex 18.2495 -13.9291 12
      vertex 18.4369 -14.9114 12
      vertex 18.7361 -13.8042 12
    endloop
  endfacet
  facet normal 0 0 1
    outer loop
      vertex 18.2495 -13.9291 12
      vertex 17.814 -14.9901 12
      vertex 18.4369 -14.9114 12
    endloop
  endfacet
  facet normal -0 0 1
    outer loop
      vertex 17.7512 -13.9921 12
      vertex 17.814 -14.9901 12
      vertex 18.2495 -13.9291 12
    endloop
  endfacet
  facet normal -0 0 1
    outer loop
      vertex -17.7512 -13.9921 12
      vertex 17.814 -14.9901 12
      vertex 17.7512 -13.9921 12
    endloop
  endfacet
  facet normal 0 0 1
    outer loop
      vertex -17.7512 -13.9921 12
      vertex -17.814 -14.9901 12
      vertex 17.814 -14.9901 12
    endloop
  endfacet
  facet normal 0 0 1
    outer loop
      vertex -18.2495 -13.9291 12
      vertex -17.814 -14.9901 12
      vertex -17.7512 -13.9921 12
    endloop
  endfacet
  facet normal 0 0 1
    outer loop
      vertex -18.2495 -13.9291 12
      vertex -18.4369 -14.9114 12
      vertex -17.814 -14.9901 12
    endloop
  endfacet
  facet normal 0 0 1
    outer loop
      vertex -18.7361 -13.8042 12
      vertex -18.4369 -14.9114 12
      vertex -18.2495 -13.9291 12
    endloop
  endfacet
  facet normal 0 0 1
    outer loop
      vertex -18.7361 -13.8042 12
      vertex -19.0451 -14.7553 12
      vertex -18.4369 -14.9114 12
    endloop
  endfacet
  facet normal 0 0 1
    outer loop
      vertex -19.2031 -13.6193 12
      vertex -19.0451 -14.7553 12
      vertex -18.7361 -13.8042 12
    endloop
  endfacet
  facet normal 0 0 1
    outer loop
      vertex -19.2031 -13.6193 12
      vertex -19.6289 -14.5241 12
      vertex -19.0451 -14.7553 12
    endloop
  endfacet
  facet normal 0 0 1
    outer loop
      vertex -19.6433 -13.3773 12
      vertex -19.6289 -14.5241 12
      vertex -19.2031 -13.6193 12
    endloop
  endfacet
  facet normal 0 0 1
    outer loop
      vertex -20.1791 -14.2216 12
      vertex -19.6433 -13.3773 12
      vertex -20.0497 -13.0821 12
    endloop
  endfacet
  facet normal 0 0 1
    outer loop
      vertex -19.6433 -13.3773 12
      vertex -20.1791 -14.2216 12
      vertex -19.6289 -14.5241 12
    endloop
  endfacet
  facet normal 0 0 1
    outer loop
      vertex -20.6871 -13.8526 12
      vertex -20.0497 -13.0821 12
      vertex -20.4159 -12.7382 12
    endloop
  endfacet
  facet normal 0 0 1
    outer loop
      vertex -20.0497 -13.0821 12
      vertex -20.6871 -13.8526 12
      vertex -20.1791 -14.2216 12
    endloop
  endfacet
  facet normal 0 0 1
    outer loop
      vertex -21.1448 -13.4227 12
      vertex -20.4159 -12.7382 12
      vertex -20.7361 -12.3511 12
    endloop
  endfacet
  facet normal 0 0 1
    outer loop
      vertex -21.5451 -12.9389 12
      vertex -20.7361 -12.3511 12
      vertex -21.0052 -11.927 12
    endloop
  endfacet
  facet normal 0 0 1
    outer loop
      vertex -20.4159 -12.7382 12
      vertex -21.1448 -13.4227 12
      vertex -20.6871 -13.8526 12
    endloop
  endfacet
  facet normal 0 0 1
    outer loop
      vertex -21.8815 -12.4088 12
      vertex -21.0052 -11.927 12
      vertex -21.2191 -11.4725 12
    endloop
  endfacet
  facet normal 0 0 1
    outer loop
      vertex -22.1489 -11.8406 12
      vertex -21.2191 -11.4725 12
      vertex -21.3743 -10.9948 12
    endloop
  endfacet
  facet normal 0 0 1
    outer loop
      vertex -22.3429 -11.2434 12
      vertex -21.3743 -10.9948 12
      vertex -21.4685 -10.5013 12
    endloop
  endfacet
  facet normal 0 0 1
    outer loop
      vertex -20.7361 -12.3511 12
      vertex -21.5451 -12.9389 12
      vertex -21.1448 -13.4227 12
    endloop
  endfacet
  facet normal 0 0 1
    outer loop
      vertex -22.4606 -10.6267 12
      vertex -21.4685 -10.5013 12
      vertex -21.5 -10 12
    endloop
  endfacet
  facet normal 0 0 1
    outer loop
      vertex -21.5 10 12
      vertex -22.5 10 12
      vertex -21.5 -10 12
    endloop
  endfacet
  facet normal 0 0 1
    outer loop
      vertex -21.3743 10.9948 12
      vertex -22.3429 11.2434 12
      vertex -21.4685 10.5013 12
    endloop
  endfacet
  facet normal 0 0 1
    outer loop
      vertex -22.5 -10 12
      vertex -21.5 -10 12
      vertex -22.5 10 12
    endloop
  endfacet
  facet normal -0 0 1
    outer loop
      vertex -22.4606 10.6267 12
      vertex -21.4685 10.5013 12
      vertex -22.3429 11.2434 12
    endloop
  endfacet
  facet normal 0 -0 1
    outer loop
      vertex -22.4606 -10.6267 12
      vertex -21.5 -10 12
      vertex -22.5 -10 12
    endloop
  endfacet
  facet normal 0 0 1
    outer loop
      vertex -21.4685 10.5013 12
      vertex -22.4606 10.6267 12
      vertex -21.5 10 12
    endloop
  endfacet
  facet normal 0 0 1
    outer loop
      vertex -21.0052 -11.927 12
      vertex -21.8815 -12.4088 12
      vertex -21.5451 -12.9389 12
    endloop
  endfacet
  facet normal 0 0 1
    outer loop
      vertex -21.5 10 12
      vertex -22.4606 10.6267 12
      vertex -22.5 10 12
    endloop
  endfacet
  facet normal 0 0 1
    outer loop
      vertex -21.2191 -11.4725 12
      vertex -22.1489 -11.8406 12
      vertex -21.8815 -12.4088 12
    endloop
  endfacet
  facet normal 0 0 1
    outer loop
      vertex -21.3743 -10.9948 12
      vertex -22.3429 -11.2434 12
      vertex -22.1489 -11.8406 12
    endloop
  endfacet
  facet normal 0 0 1
    outer loop
      vertex -21.4685 -10.5013 12
      vertex -22.4606 -10.6267 12
      vertex -22.3429 -11.2434 12
    endloop
  endfacet
  facet normal 0 -1 0
    outer loop
      vertex -17.814 -14.9901 0
      vertex 17.814 -14.9901 12
      vertex -17.814 -14.9901 12
    endloop
  endfacet
  facet normal 0 -1 -0
    outer loop
      vertex 17.814 -14.9901 12
      vertex -17.814 -14.9901 0
      vertex 17.814 -14.9901 0
    endloop
  endfacet
  facet normal 0.98227 -0.187471 0
    outer loop
      vertex 22.3429 -11.2434 12
      vertex 22.4606 -10.6267 0
      vertex 22.4606 -10.6267 12
    endloop
  endfacet
  facet normal 0.98227 -0.187471 0
    outer loop
      vertex 22.4606 -10.6267 0
      vertex 22.3429 -11.2434 12
      vertex 22.3429 -11.2434 0
    endloop
  endfacet
  facet normal 1 -0 0
    outer loop
      vertex 22.5 -10 12
      vertex 22.5 10 0
      vertex 22.5 10 12
    endloop
  endfacet
  facet normal 1 0 0
    outer loop
      vertex 22.5 10 0
      vertex 22.5 -10 12
      vertex 22.5 -10 0
    endloop
  endfacet
  facet normal -0.904811 0.425812 0
    outer loop
      vertex -22.1489 11.8406 0
      vertex -21.8815 12.4088 12
      vertex -21.8815 12.4088 0
    endloop
  endfacet
  facet normal -0.904811 0.425812 0
    outer loop
      vertex -21.8815 12.4088 12
      vertex -22.1489 11.8406 0
      vertex -22.1489 11.8406 12
    endloop
  endfacet
  facet normal -0.770462 0.637486 0
    outer loop
      vertex -21.5451 12.9389 0
      vertex -21.1448 13.4227 12
      vertex -21.1448 13.4227 0
    endloop
  endfacet
  facet normal -0.770462 0.637486 0
    outer loop
      vertex -21.1448 13.4227 12
      vertex -21.5451 12.9389 0
      vertex -21.5451 12.9389 12
    endloop
  endfacet
  facet normal -0.951076 0.308956 0
    outer loop
      vertex -22.3429 11.2434 0
      vertex -22.1489 11.8406 12
      vertex -22.1489 11.8406 0
    endloop
  endfacet
  facet normal -0.951076 0.308956 0
    outer loop
      vertex -22.1489 11.8406 12
      vertex -22.3429 11.2434 0
      vertex -22.3429 11.2434 12
    endloop
  endfacet
  facet normal -0.248601 0.968606 0
    outer loop
      vertex -18.4369 14.9114 0
      vertex -19.0451 14.7553 12
      vertex -18.4369 14.9114 12
    endloop
  endfacet
  facet normal -0.248601 0.968606 0
    outer loop
      vertex -19.0451 14.7553 12
      vertex -18.4369 14.9114 0
      vertex -19.0451 14.7553 0
    endloop
  endfacet
  facet normal -0.904811 -0.425812 0
    outer loop
      vertex -21.8815 -12.4088 0
      vertex -22.1489 -11.8406 12
      vertex -22.1489 -11.8406 0
    endloop
  endfacet
  facet normal -0.904811 -0.425812 0
    outer loop
      vertex -22.1489 -11.8406 12
      vertex -21.8815 -12.4088 0
      vertex -21.8815 -12.4088 12
    endloop
  endfacet
  facet normal -0.248601 -0.968606 0
    outer loop
      vertex -19.0451 -14.7553 0
      vertex -18.4369 -14.9114 12
      vertex -19.0451 -14.7553 12
    endloop
  endfacet
  facet normal -0.248601 -0.968606 -0
    outer loop
      vertex -18.4369 -14.9114 12
      vertex -19.0451 -14.7553 0
      vertex -18.4369 -14.9114 0
    endloop
  endfacet
  facet normal -0.98227 0.187471 0
    outer loop
      vertex -22.4606 10.6267 0
      vertex -22.3429 11.2434 12
      vertex -22.3429 11.2434 0
    endloop
  endfacet
  facet normal -0.98227 0.187471 0
    outer loop
      vertex -22.3429 11.2434 12
      vertex -22.4606 10.6267 0
      vertex -22.4606 10.6267 12
    endloop
  endfacet
  facet normal -0.684624 0.728896 0
    outer loop
      vertex -20.6871 13.8526 0
      vertex -21.1448 13.4227 12
      vertex -20.6871 13.8526 12
    endloop
  endfacet
  facet normal -0.684624 0.728896 0
    outer loop
      vertex -21.1448 13.4227 12
      vertex -20.6871 13.8526 0
      vertex -21.1448 13.4227 0
    endloop
  endfacet
  facet normal -0.844336 0.535814 0
    outer loop
      vertex -21.8815 12.4088 0
      vertex -21.5451 12.9389 12
      vertex -21.5451 12.9389 0
    endloop
  endfacet
  facet normal -0.844336 0.535814 0
    outer loop
      vertex -21.5451 12.9389 12
      vertex -21.8815 12.4088 0
      vertex -21.8815 12.4088 12
    endloop
  endfacet
  facet normal 0.770462 0.637486 0
    outer loop
      vertex 21.5451 12.9389 12
      vertex 21.1448 13.4227 0
      vertex 21.1448 13.4227 12
    endloop
  endfacet
  facet normal 0.770462 0.637486 0
    outer loop
      vertex 21.1448 13.4227 0
      vertex 21.5451 12.9389 12
      vertex 21.5451 12.9389 0
    endloop
  endfacet
  facet normal 0.951076 0.308956 0
    outer loop
      vertex 22.3429 11.2434 12
      vertex 22.1489 11.8406 0
      vertex 22.1489 11.8406 12
    endloop
  endfacet
  facet normal 0.951076 0.308956 0
    outer loop
      vertex 22.1489 11.8406 0
      vertex 22.3429 11.2434 12
      vertex 22.3429 11.2434 0
    endloop
  endfacet
  facet normal 0.368203 0.929745 -0
    outer loop
      vertex 19.6289 14.5241 0
      vertex 19.0451 14.7553 12
      vertex 19.6289 14.5241 12
    endloop
  endfacet
  facet normal 0.368203 0.929745 0
    outer loop
      vertex 19.0451 14.7553 12
      vertex 19.6289 14.5241 0
      vertex 19.0451 14.7553 0
    endloop
  endfacet
  facet normal -0.125348 0.992113 0
    outer loop
      vertex -17.814 14.9901 0
      vertex -18.4369 14.9114 12
      vertex -17.814 14.9901 12
    endloop
  endfacet
  facet normal -0.125348 0.992113 0
    outer loop
      vertex -18.4369 14.9114 12
      vertex -17.814 14.9901 0
      vertex -18.4369 14.9114 0
    endloop
  endfacet
  facet normal 0 1 -0
    outer loop
      vertex 17.814 14.9901 0
      vertex -17.814 14.9901 12
      vertex 17.814 14.9901 12
    endloop
  endfacet
  facet normal 0 1 0
    outer loop
      vertex -17.814 14.9901 12
      vertex 17.814 14.9901 0
      vertex -17.814 14.9901 0
    endloop
  endfacet
  facet normal -0.951076 -0.308956 0
    outer loop
      vertex -22.1489 -11.8406 0
      vertex -22.3429 -11.2434 12
      vertex -22.3429 -11.2434 0
    endloop
  endfacet
  facet normal -0.951076 -0.308956 0
    outer loop
      vertex -22.3429 -11.2434 12
      vertex -22.1489 -11.8406 0
      vertex -22.1489 -11.8406 12
    endloop
  endfacet
  facet normal -0.684624 -0.728896 0
    outer loop
      vertex -21.1448 -13.4227 0
      vertex -20.6871 -13.8526 12
      vertex -21.1448 -13.4227 12
    endloop
  endfacet
  facet normal -0.684624 -0.728896 -0
    outer loop
      vertex -20.6871 -13.8526 12
      vertex -21.1448 -13.4227 0
      vertex -20.6871 -13.8526 0
    endloop
  endfacet
  facet normal -0.368203 -0.929745 0
    outer loop
      vertex -19.6289 -14.5241 0
      vertex -19.0451 -14.7553 12
      vertex -19.6289 -14.5241 12
    endloop
  endfacet
  facet normal -0.368203 -0.929745 -0
    outer loop
      vertex -19.0451 -14.7553 12
      vertex -19.6289 -14.5241 0
      vertex -19.0451 -14.7553 0
    endloop
  endfacet
  facet normal 0.587698 -0.80908 0
    outer loop
      vertex 20.1791 -14.2216 0
      vertex 20.6871 -13.8526 12
      vertex 20.1791 -14.2216 12
    endloop
  endfacet
  facet normal 0.587698 -0.80908 0
    outer loop
      vertex 20.6871 -13.8526 12
      vertex 20.1791 -14.2216 0
      vertex 20.6871 -13.8526 0
    endloop
  endfacet
  facet normal 0.770462 -0.637486 0
    outer loop
      vertex 21.1448 -13.4227 12
      vertex 21.5451 -12.9389 0
      vertex 21.5451 -12.9389 12
    endloop
  endfacet
  facet normal 0.770462 -0.637486 0
    outer loop
      vertex 21.5451 -12.9389 0
      vertex 21.1448 -13.4227 12
      vertex 21.1448 -13.4227 0
    endloop
  endfacet
  facet normal 0.951076 -0.308956 0
    outer loop
      vertex 22.1489 -11.8406 12
      vertex 22.3429 -11.2434 0
      vertex 22.3429 -11.2434 12
    endloop
  endfacet
  facet normal 0.951076 -0.308956 0
    outer loop
      vertex 22.3429 -11.2434 0
      vertex 22.1489 -11.8406 12
      vertex 22.1489 -11.8406 0
    endloop
  endfacet
  facet normal -0.481784 0.87629 0
    outer loop
      vertex -19.6289 14.5241 0
      vertex -20.1791 14.2216 12
      vertex -19.6289 14.5241 12
    endloop
  endfacet
  facet normal -0.481784 0.87629 0
    outer loop
      vertex -20.1791 14.2216 12
      vertex -19.6289 14.5241 0
      vertex -20.1791 14.2216 0
    endloop
  endfacet
  facet normal -0.587698 0.80908 0
    outer loop
      vertex -20.1791 14.2216 0
      vertex -20.6871 13.8526 12
      vertex -20.1791 14.2216 12
    endloop
  endfacet
  facet normal -0.587698 0.80908 0
    outer loop
      vertex -20.6871 13.8526 12
      vertex -20.1791 14.2216 0
      vertex -20.6871 13.8526 0
    endloop
  endfacet
  facet normal 0.684624 0.728896 -0
    outer loop
      vertex 21.1448 13.4227 0
      vertex 20.6871 13.8526 12
      vertex 21.1448 13.4227 12
    endloop
  endfacet
  facet normal 0.684624 0.728896 0
    outer loop
      vertex 20.6871 13.8526 12
      vertex 21.1448 13.4227 0
      vertex 20.6871 13.8526 0
    endloop
  endfacet
  facet normal -0.99803 -0.0627451 0
    outer loop
      vertex -22.4606 -10.6267 0
      vertex -22.5 -10 12
      vertex -22.5 -10 0
    endloop
  endfacet
  facet normal -0.99803 -0.0627451 0
    outer loop
      vertex -22.5 -10 12
      vertex -22.4606 -10.6267 0
      vertex -22.4606 -10.6267 12
    endloop
  endfacet
  facet normal 0 0 -1
    outer loop
      vertex 17.814 -14.9901 0
      vertex 22.5 -10 0
      vertex 22.4606 -10.6267 0
    endloop
  endfacet
  facet normal -0 0 -1
    outer loop
      vertex 22.5 -10 0
      vertex 17.814 -14.9901 0
      vertex 22.5 10 0
    endloop
  endfacet
  facet normal 0 0 -1
    outer loop
      vertex 17.814 -14.9901 0
      vertex 22.4606 -10.6267 0
      vertex 22.3429 -11.2434 0
    endloop
  endfacet
  facet normal 0 0 -1
    outer loop
      vertex 17.814 14.9901 0
      vertex 22.5 10 0
      vertex 17.814 -14.9901 0
    endloop
  endfacet
  facet normal 0 0 -1
    outer loop
      vertex 17.814 -14.9901 0
      vertex 22.3429 -11.2434 0
      vertex 22.1489 -11.8406 0
    endloop
  endfacet
  facet normal 0 0 -1
    outer loop
      vertex 22.5 10 0
      vertex 17.814 14.9901 0
      vertex 22.4606 10.6267 0
    endloop
  endfacet
  facet normal 0 0 -1
    outer loop
      vertex 17.814 -14.9901 0
      vertex 22.1489 -11.8406 0
      vertex 21.8815 -12.4088 0
    endloop
  endfacet
  facet normal 0 0 -1
    outer loop
      vertex 22.4606 10.6267 0
      vertex 17.814 14.9901 0
      vertex 22.3429 11.2434 0
    endloop
  endfacet
  facet normal 0 0 -1
    outer loop
      vertex 17.814 -14.9901 0
      vertex 21.8815 -12.4088 0
      vertex 21.5451 -12.9389 0
    endloop
  endfacet
  facet normal 0 0 -1
    outer loop
      vertex 22.3429 11.2434 0
      vertex 17.814 14.9901 0
      vertex 22.1489 11.8406 0
    endloop
  endfacet
  facet normal 0 0 -1
    outer loop
      vertex 17.814 -14.9901 0
      vertex 21.5451 -12.9389 0
      vertex 21.1448 -13.4227 0
    endloop
  endfacet
  facet normal 0 0 -1
    outer loop
      vertex 22.1489 11.8406 0
      vertex 17.814 14.9901 0
      vertex 21.8815 12.4088 0
    endloop
  endfacet
  facet normal 0 0 -1
    outer loop
      vertex 17.814 -14.9901 0
      vertex 21.1448 -13.4227 0
      vertex 20.6871 -13.8526 0
    endloop
  endfacet
  facet normal 0 0 -1
    outer loop
      vertex 21.8815 12.4088 0
      vertex 17.814 14.9901 0
      vertex 21.5451 12.9389 0
    endloop
  endfacet
  facet normal 0 0 -1
    outer loop
      vertex 17.814 -14.9901 0
      vertex 20.6871 -13.8526 0
      vertex 20.1791 -14.2216 0
    endloop
  endfacet
  facet normal 0 0 -1
    outer loop
      vertex 21.5451 12.9389 0
      vertex 17.814 14.9901 0
      vertex 21.1448 13.4227 0
    endloop
  endfacet
  facet normal 0 0 -1
    outer loop
      vertex 17.814 -14.9901 0
      vertex 20.1791 -14.2216 0
      vertex 19.6289 -14.5241 0
    endloop
  endfacet
  facet normal 0 0 -1
    outer loop
      vertex 21.1448 13.4227 0
      vertex 17.814 14.9901 0
      vertex 20.6871 13.8526 0
    endloop
  endfacet
  facet normal 0 0 -1
    outer loop
      vertex 17.814 -14.9901 0
      vertex 19.6289 -14.5241 0
      vertex 19.0451 -14.7553 0
    endloop
  endfacet
  facet normal 0 0 -1
    outer loop
      vertex 20.6871 13.8526 0
      vertex 17.814 14.9901 0
      vertex 20.1791 14.2216 0
    endloop
  endfacet
  facet normal 0 0 -1
    outer loop
      vertex 17.814 -14.9901 0
      vertex 19.0451 -14.7553 0
      vertex 18.4369 -14.9114 0
    endloop
  endfacet
  facet normal 0 0 -1
    outer loop
      vertex 20.1791 14.2216 0
      vertex 17.814 14.9901 0
      vertex 19.6289 14.5241 0
    endloop
  endfacet
  facet normal 0 0 -1
    outer loop
      vertex 19.6289 14.5241 0
      vertex 17.814 14.9901 0
      vertex 19.0451 14.7553 0
    endloop
  endfacet
  facet normal 0 0 -1
    outer loop
      vertex 19.0451 14.7553 0
      vertex 17.814 14.9901 0
      vertex 18.4369 14.9114 0
    endloop
  endfacet
  facet normal 0 0 -1
    outer loop
      vertex -17.814 -14.9901 0
      vertex 17.814 14.9901 0
      vertex 17.814 -14.9901 0
    endloop
  endfacet
  facet normal 0 0 -1
    outer loop
      vertex -17.814 -14.9901 0
      vertex -17.814 14.9901 0
      vertex 17.814 14.9901 0
    endloop
  endfacet
  facet normal 0 0 -1
    outer loop
      vertex -22.5 -10 0
      vertex -17.814 -14.9901 0
      vertex -18.4369 -14.9114 0
    endloop
  endfacet
  facet normal 0 0 -1
    outer loop
      vertex -17.814 -14.9901 0
      vertex -22.5 -10 0
      vertex -17.814 14.9901 0
    endloop
  endfacet
  facet normal 0 0 -1
    outer loop
      vertex -22.5 -10 0
      vertex -18.4369 -14.9114 0
      vertex -19.0451 -14.7553 0
    endloop
  endfacet
  facet normal 0 0 -1
    outer loop
      vertex -22.5 10 0
      vertex -17.814 14.9901 0
      vertex -22.5 -10 0
    endloop
  endfacet
  facet normal 0 0 -1
    outer loop
      vertex -22.5 -10 0
      vertex -19.0451 -14.7553 0
      vertex -19.6289 -14.5241 0
    endloop
  endfacet
  facet normal 0 0 -1
    outer loop
      vertex -17.814 14.9901 0
      vertex -22.5 10 0
      vertex -18.4369 14.9114 0
    endloop
  endfacet
  facet normal 0 0 -1
    outer loop
      vertex -22.5 -10 0
      vertex -19.6289 -14.5241 0
      vertex -20.1791 -14.2216 0
    endloop
  endfacet
  facet normal 0 0 -1
    outer loop
      vertex -18.4369 14.9114 0
      vertex -22.5 10 0
      vertex -19.0451 14.7553 0
    endloop
  endfacet
  facet normal 0 0 -1
    outer loop
      vertex -22.5 -10 0
      vertex -20.1791 -14.2216 0
      vertex -20.6871 -13.8526 0
    endloop
  endfacet
  facet normal 0 0 -1
    outer loop
      vertex -19.0451 14.7553 0
      vertex -22.5 10 0
      vertex -19.6289 14.5241 0
    endloop
  endfacet
  facet normal 0 0 -1
    outer loop
      vertex -22.5 -10 0
      vertex -20.6871 -13.8526 0
      vertex -21.1448 -13.4227 0
    endloop
  endfacet
  facet normal 0 0 -1
    outer loop
      vertex -19.6289 14.5241 0
      vertex -22.5 10 0
      vertex -20.1791 14.2216 0
    endloop
  endfacet
  facet normal 0 0 -1
    outer loop
      vertex -22.5 -10 0
      vertex -21.1448 -13.4227 0
      vertex -21.5451 -12.9389 0
    endloop
  endfacet
  facet normal 0 0 -1
    outer loop
      vertex -20.1791 14.2216 0
      vertex -22.5 10 0
      vertex -20.6871 13.8526 0
    endloop
  endfacet
  facet normal 0 0 -1
    outer loop
      vertex -22.5 -10 0
      vertex -21.5451 -12.9389 0
      vertex -21.8815 -12.4088 0
    endloop
  endfacet
  facet normal 0 0 -1
    outer loop
      vertex -20.6871 13.8526 0
      vertex -22.5 10 0
      vertex -21.1448 13.4227 0
    endloop
  endfacet
  facet normal 0 0 -1
    outer loop
      vertex -22.5 -10 0
      vertex -21.8815 -12.4088 0
      vertex -22.1489 -11.8406 0
    endloop
  endfacet
  facet normal 0 0 -1
    outer loop
      vertex -21.1448 13.4227 0
      vertex -22.5 10 0
      vertex -21.5451 12.9389 0
    endloop
  endfacet
  facet normal 0 0 -1
    outer loop
      vertex -22.5 -10 0
      vertex -22.1489 -11.8406 0
      vertex -22.3429 -11.2434 0
    endloop
  endfacet
  facet normal 0 0 -1
    outer loop
      vertex -21.5451 12.9389 0
      vertex -22.5 10 0
      vertex -21.8815 12.4088 0
    endloop
  endfacet
  facet normal 0 0 -1
    outer loop
      vertex -22.5 -10 0
      vertex -22.3429 -11.2434 0
      vertex -22.4606 -10.6267 0
    endloop
  endfacet
  facet normal 0 0 -1
    outer loop
      vertex -21.8815 12.4088 0
      vertex -22.5 10 0
      vertex -22.1489 11.8406 0
    endloop
  endfacet
  facet normal 0 0 -1
    outer loop
      vertex -22.1489 11.8406 0
      vertex -22.5 10 0
      vertex -22.3429 11.2434 0
    endloop
  endfacet
  facet normal 0 0 -1
    outer loop
      vertex -22.3429 11.2434 0
      vertex -22.5 10 0
      vertex -22.4606 10.6267 0
    endloop
  endfacet
  facet normal -0.98227 -0.187471 0
    outer loop
      vertex -22.3429 -11.2434 0
      vertex -22.4606 -10.6267 12
      vertex -22.4606 -10.6267 0
    endloop
  endfacet
  facet normal -0.98227 -0.187471 0
    outer loop
      vertex -22.4606 -10.6267 12
      vertex -22.3429 -11.2434 0
      vertex -22.3429 -11.2434 12
    endloop
  endfacet
  facet normal -0.770462 -0.637486 0
    outer loop
      vertex -21.1448 -13.4227 0
      vertex -21.5451 -12.9389 12
      vertex -21.5451 -12.9389 0
    endloop
  endfacet
  facet normal -0.770462 -0.637486 0
    outer loop
      vertex -21.5451 -12.9389 12
      vertex -21.1448 -13.4227 0
      vertex -21.1448 -13.4227 12
    endloop
  endfacet
  facet normal -0.125348 -0.992113 0
    outer loop
      vertex -18.4369 -14.9114 0
      vertex -17.814 -14.9901 12
      vertex -18.4369 -14.9114 12
    endloop
  endfacet
  facet normal -0.125348 -0.992113 -0
    outer loop
      vertex -17.814 -14.9901 12
      vertex -18.4369 -14.9114 0
      vertex -17.814 -14.9901 0
    endloop
  endfacet
  facet normal -0.587698 -0.80908 0
    outer loop
      vertex -20.6871 -13.8526 0
      vertex -20.1791 -14.2216 12
      vertex -20.6871 -13.8526 12
    endloop
  endfacet
  facet normal -0.587698 -0.80908 -0
    outer loop
      vertex -20.1791 -14.2216 12
      vertex -20.6871 -13.8526 0
      vertex -20.1791 -14.2216 0
    endloop
  endfacet
  facet normal -0.481784 -0.87629 0
    outer loop
      vertex -20.1791 -14.2216 0
      vertex -19.6289 -14.5241 12
      vertex -20.1791 -14.2216 12
    endloop
  endfacet
  facet normal -0.481784 -0.87629 -0
    outer loop
      vertex -19.6289 -14.5241 12
      vertex -20.1791 -14.2216 0
      vertex -19.6289 -14.5241 0
    endloop
  endfacet
  facet normal 0.481784 -0.87629 0
    outer loop
      vertex 19.6289 -14.5241 0
      vertex 20.1791 -14.2216 12
      vertex 19.6289 -14.5241 12
    endloop
  endfacet
  facet normal 0.481784 -0.87629 0
    outer loop
      vertex 20.1791 -14.2216 12
      vertex 19.6289 -14.5241 0
      vertex 20.1791 -14.2216 0
    endloop
  endfacet
  facet normal 0.125348 -0.992113 0
    outer loop
      vertex 17.814 -14.9901 0
      vertex 18.4369 -14.9114 12
      vertex 17.814 -14.9901 12
    endloop
  endfacet
  facet normal 0.125348 -0.992113 0
    outer loop
      vertex 18.4369 -14.9114 12
      vertex 17.814 -14.9901 0
      vertex 18.4369 -14.9114 0
    endloop
  endfacet
  facet normal 0.99803 -0.0627451 0
    outer loop
      vertex 22.4606 -10.6267 12
      vertex 22.5 -10 0
      vertex 22.5 -10 12
    endloop
  endfacet
  facet normal 0.99803 -0.0627451 0
    outer loop
      vertex 22.5 -10 0
      vertex 22.4606 -10.6267 12
      vertex 22.4606 -10.6267 0
    endloop
  endfacet
  facet normal 0.844336 -0.535814 0
    outer loop
      vertex 21.5451 -12.9389 12
      vertex 21.8815 -12.4088 0
      vertex 21.8815 -12.4088 12
    endloop
  endfacet
  facet normal 0.844336 -0.535814 0
    outer loop
      vertex 21.8815 -12.4088 0
      vertex 21.5451 -12.9389 12
      vertex 21.5451 -12.9389 0
    endloop
  endfacet
  facet normal 0.904811 -0.425812 0
    outer loop
      vertex 21.8815 -12.4088 12
      vertex 22.1489 -11.8406 0
      vertex 22.1489 -11.8406 12
    endloop
  endfacet
  facet normal 0.904811 -0.425812 0
    outer loop
      vertex 22.1489 -11.8406 0
      vertex 21.8815 -12.4088 12
      vertex 21.8815 -12.4088 0
    endloop
  endfacet
  facet normal 0.99803 0.0627451 0
    outer loop
      vertex 22.5 10 12
      vertex 22.4606 10.6267 0
      vertex 22.4606 10.6267 12
    endloop
  endfacet
  facet normal 0.99803 0.0627451 0
    outer loop
      vertex 22.4606 10.6267 0
      vertex 22.5 10 12
      vertex 22.5 10 0
    endloop
  endfacet
  facet normal 0.904811 0.425812 0
    outer loop
      vertex 22.1489 11.8406 12
      vertex 21.8815 12.4088 0
      vertex 21.8815 12.4088 12
    endloop
  endfacet
  facet normal 0.904811 0.425812 0
    outer loop
      vertex 21.8815 12.4088 0
      vertex 22.1489 11.8406 12
      vertex 22.1489 11.8406 0
    endloop
  endfacet
  facet normal 0.844336 0.535814 0
    outer loop
      vertex 21.8815 12.4088 12
      vertex 21.5451 12.9389 0
      vertex 21.5451 12.9389 12
    endloop
  endfacet
  facet normal 0.844336 0.535814 0
    outer loop
      vertex 21.5451 12.9389 0
      vertex 21.8815 12.4088 12
      vertex 21.8815 12.4088 0
    endloop
  endfacet
  facet normal 0.98227 0.187471 0
    outer loop
      vertex 22.4606 10.6267 12
      vertex 22.3429 11.2434 0
      vertex 22.3429 11.2434 12
    endloop
  endfacet
  facet normal 0.98227 0.187471 0
    outer loop
      vertex 22.3429 11.2434 0
      vertex 22.4606 10.6267 12
      vertex 22.4606 10.6267 0
    endloop
  endfacet
  facet normal 0.587698 0.80908 -0
    outer loop
      vertex 20.6871 13.8526 0
      vertex 20.1791 14.2216 12
      vertex 20.6871 13.8526 12
    endloop
  endfacet
  facet normal 0.587698 0.80908 0
    outer loop
      vertex 20.1791 14.2216 12
      vertex 20.6871 13.8526 0
      vertex 20.1791 14.2216 0
    endloop
  endfacet
  facet normal 0.481784 0.87629 -0
    outer loop
      vertex 20.1791 14.2216 0
      vertex 19.6289 14.5241 12
      vertex 20.1791 14.2216 12
    endloop
  endfacet
  facet normal 0.481784 0.87629 0
    outer loop
      vertex 19.6289 14.5241 12
      vertex 20.1791 14.2216 0
      vertex 19.6289 14.5241 0
    endloop
  endfacet
  facet normal 0.125348 0.992113 -0
    outer loop
      vertex 18.4369 14.9114 0
      vertex 17.814 14.9901 12
      vertex 18.4369 14.9114 12
    endloop
  endfacet
  facet normal 0.125348 0.992113 0
    outer loop
      vertex 17.814 14.9901 12
      vertex 18.4369 14.9114 0
      vertex 17.814 14.9901 0
    endloop
  endfacet
  facet normal -0.844336 -0.535814 0
    outer loop
      vertex -21.5451 -12.9389 0
      vertex -21.8815 -12.4088 12
      vertex -21.8815 -12.4088 0
    endloop
  endfacet
  facet normal -0.844336 -0.535814 0
    outer loop
      vertex -21.8815 -12.4088 12
      vertex -21.5451 -12.9389 0
      vertex -21.5451 -12.9389 12
    endloop
  endfacet
  facet normal 0.684624 -0.728896 0
    outer loop
      vertex 20.6871 -13.8526 0
      vertex 21.1448 -13.4227 12
      vertex 20.6871 -13.8526 12
    endloop
  endfacet
  facet normal 0.684624 -0.728896 0
    outer loop
      vertex 21.1448 -13.4227 12
      vertex 20.6871 -13.8526 0
      vertex 21.1448 -13.4227 0
    endloop
  endfacet
  facet normal 0.248601 -0.968606 0
    outer loop
      vertex 18.4369 -14.9114 0
      vertex 19.0451 -14.7553 12
      vertex 18.4369 -14.9114 12
    endloop
  endfacet
  facet normal 0.248601 -0.968606 0
    outer loop
      vertex 19.0451 -14.7553 12
      vertex 18.4369 -14.9114 0
      vertex 19.0451 -14.7553 0
    endloop
  endfacet
  facet normal 0.248601 0.968606 -0
    outer loop
      vertex 19.0451 14.7553 0
      vertex 18.4369 14.9114 12
      vertex 19.0451 14.7553 12
    endloop
  endfacet
  facet normal 0.248601 0.968606 0
    outer loop
      vertex 18.4369 14.9114 12
      vertex 19.0451 14.7553 0
      vertex 18.4369 14.9114 0
    endloop
  endfacet
  facet normal 0.368203 -0.929745 0
    outer loop
      vertex 19.0451 -14.7553 0
      vertex 19.6289 -14.5241 12
      vertex 19.0451 -14.7553 12
    endloop
  endfacet
  facet normal 0.368203 -0.929745 0
    outer loop
      vertex 19.6289 -14.5241 12
      vertex 19.0451 -14.7553 0
      vertex 19.6289 -14.5241 0
    endloop
  endfacet
  facet normal 1 -0 0
    outer loop
      vertex -21.5 -10 12
      vertex -21.5 10 2
      vertex -21.5 10 12
    endloop
  endfacet
  facet normal 1 0 0
    outer loop
      vertex -21.5 10 2
      vertex -21.5 -10 12
      vertex -21.5 -10 2
    endloop
  endfacet
  facet normal 0.998032 0.0627129 0
    outer loop
      vertex -21.4685 -10.5013 12
      vertex -21.5 -10 2
      vertex -21.5 -10 12
    endloop
  endfacet
  facet normal 0.998032 0.0627129 0
    outer loop
      vertex -21.5 -10 2
      vertex -21.4685 -10.5013 12
      vertex -21.4685 -10.5013 2
    endloop
  endfacet
  facet normal 0.998032 -0.0627129 0
    outer loop
      vertex -21.5 10 12
      vertex -21.4685 10.5013 2
      vertex -21.4685 10.5013 12
    endloop
  endfacet
  facet normal 0.998032 -0.0627129 0
    outer loop
      vertex -21.4685 10.5013 2
      vertex -21.5 10 12
      vertex -21.5 10 2
    endloop
  endfacet
  facet normal 0 -1 0
    outer loop
      vertex -17.7512 13.9921 2
      vertex 17.7512 13.9921 12
      vertex -17.7512 13.9921 12
    endloop
  endfacet
  facet normal 0 -1 -0
    outer loop
      vertex 17.7512 13.9921 12
      vertex -17.7512 13.9921 2
      vertex 17.7512 13.9921 2
    endloop
  endfacet
  facet normal 0 1 -0
    outer loop
      vertex 17.7512 -13.9921 2
      vertex -17.7512 -13.9921 12
      vertex 17.7512 -13.9921 12
    endloop
  endfacet
  facet normal 0 1 0
    outer loop
      vertex -17.7512 -13.9921 12
      vertex 17.7512 -13.9921 2
      vertex -17.7512 -13.9921 2
    endloop
  endfacet
  facet normal -1 0 0
    outer loop
      vertex 21.5 -10 2
      vertex 21.5 10 12
      vertex 21.5 10 2
    endloop
  endfacet
  facet normal -1 -0 0
    outer loop
      vertex 21.5 10 12
      vertex 21.5 -10 2
      vertex 21.5 -10 12
    endloop
  endfacet
  facet normal 0.904805 -0.425826 0
    outer loop
      vertex -21.2191 11.4725 12
      vertex -21.0052 11.927 2
      vertex -21.0052 11.927 12
    endloop
  endfacet
  facet normal 0.904805 -0.425826 0
    outer loop
      vertex -21.0052 11.927 2
      vertex -21.2191 11.4725 12
      vertex -21.2191 11.4725 2
    endloop
  endfacet
  facet normal 0.770549 -0.63738 0
    outer loop
      vertex -20.7361 12.3511 12
      vertex -20.4159 12.7382 2
      vertex -20.4159 12.7382 12
    endloop
  endfacet
  facet normal 0.770549 -0.63738 0
    outer loop
      vertex -20.4159 12.7382 2
      vertex -20.7361 12.3511 12
      vertex -20.7361 12.3511 2
    endloop
  endfacet
  facet normal 0.951065 -0.308992 0
    outer loop
      vertex -21.3743 10.9948 12
      vertex -21.2191 11.4725 2
      vertex -21.2191 11.4725 12
    endloop
  endfacet
  facet normal 0.951065 -0.308992 0
    outer loop
      vertex -21.2191 11.4725 2
      vertex -21.3743 10.9948 12
      vertex -21.3743 10.9948 2
    endloop
  endfacet
  facet normal 0.368127 -0.929775 0
    outer loop
      vertex -19.2031 13.6193 2
      vertex -18.7361 13.8042 12
      vertex -19.2031 13.6193 12
    endloop
  endfacet
  facet normal 0.368127 -0.929775 0
    outer loop
      vertex -18.7361 13.8042 12
      vertex -19.2031 13.6193 2
      vertex -18.7361 13.8042 2
    endloop
  endfacet
  facet normal -0.998032 -0.0627129 0
    outer loop
      vertex 21.5 10 2
      vertex 21.4685 10.5013 12
      vertex 21.4685 10.5013 2
    endloop
  endfacet
  facet normal -0.998032 -0.0627129 0
    outer loop
      vertex 21.4685 10.5013 12
      vertex 21.5 10 2
      vertex 21.5 10 12
    endloop
  endfacet
  facet normal -0.481751 -0.876308 0
    outer loop
      vertex 19.2031 13.6193 2
      vertex 19.6433 13.3773 12
      vertex 19.2031 13.6193 12
    endloop
  endfacet
  facet normal -0.481751 -0.876308 -0
    outer loop
      vertex 19.6433 13.3773 12
      vertex 19.2031 13.6193 2
      vertex 19.6433 13.3773 2
    endloop
  endfacet
  facet normal 0.904805 0.425826 0
    outer loop
      vertex -21.0052 -11.927 12
      vertex -21.2191 -11.4725 2
      vertex -21.2191 -11.4725 12
    endloop
  endfacet
  facet normal 0.904805 0.425826 0
    outer loop
      vertex -21.2191 -11.4725 2
      vertex -21.0052 -11.927 12
      vertex -21.0052 -11.927 2
    endloop
  endfacet
  facet normal 0.24862 0.968601 -0
    outer loop
      vertex -18.2495 -13.9291 2
      vertex -18.7361 -13.8042 12
      vertex -18.2495 -13.9291 12
    endloop
  endfacet
  facet normal 0.24862 0.968601 0
    outer loop
      vertex -18.7361 -13.8042 12
      vertex -18.2495 -13.9291 2
      vertex -18.7361 -13.8042 2
    endloop
  endfacet
  facet normal -0.770549 0.63738 0
    outer loop
      vertex 20.4159 -12.7382 2
      vertex 20.7361 -12.3511 12
      vertex 20.7361 -12.3511 2
    endloop
  endfacet
  facet normal -0.770549 0.63738 0
    outer loop
      vertex 20.7361 -12.3511 12
      vertex 20.4159 -12.7382 2
      vertex 20.4159 -12.7382 12
    endloop
  endfacet
  facet normal 0.982265 -0.187496 0
    outer loop
      vertex -21.4685 10.5013 12
      vertex -21.3743 10.9948 2
      vertex -21.3743 10.9948 12
    endloop
  endfacet
  facet normal 0.982265 -0.187496 0
    outer loop
      vertex -21.3743 10.9948 2
      vertex -21.4685 10.5013 12
      vertex -21.4685 10.5013 2
    endloop
  endfacet
  facet normal 0.481751 -0.876308 0
    outer loop
      vertex -19.6433 13.3773 2
      vertex -19.2031 13.6193 12
      vertex -19.6433 13.3773 12
    endloop
  endfacet
  facet normal 0.481751 -0.876308 0
    outer loop
      vertex -19.2031 13.6193 12
      vertex -19.6433 13.3773 2
      vertex -19.2031 13.6193 2
    endloop
  endfacet
  facet normal 0.684563 -0.728953 0
    outer loop
      vertex -20.4159 12.7382 2
      vertex -20.0497 13.0821 12
      vertex -20.4159 12.7382 12
    endloop
  endfacet
  facet normal 0.684563 -0.728953 0
    outer loop
      vertex -20.0497 13.0821 12
      vertex -20.4159 12.7382 2
      vertex -20.0497 13.0821 2
    endloop
  endfacet
  facet normal 0.844366 -0.535767 0
    outer loop
      vertex -21.0052 11.927 12
      vertex -20.7361 12.3511 2
      vertex -20.7361 12.3511 12
    endloop
  endfacet
  facet normal 0.844366 -0.535767 0
    outer loop
      vertex -20.7361 12.3511 2
      vertex -21.0052 11.927 12
      vertex -21.0052 11.927 2
    endloop
  endfacet
  facet normal 0.24862 -0.968601 0
    outer loop
      vertex -18.7361 13.8042 2
      vertex -18.2495 13.9291 12
      vertex -18.7361 13.8042 12
    endloop
  endfacet
  facet normal 0.24862 -0.968601 0
    outer loop
      vertex -18.2495 13.9291 12
      vertex -18.7361 13.8042 2
      vertex -18.2495 13.9291 2
    endloop
  endfacet
  facet normal 0.125431 -0.992102 0
    outer loop
      vertex -18.2495 13.9291 2
      vertex -17.7512 13.9921 12
      vertex -18.2495 13.9291 12
    endloop
  endfacet
  facet normal 0.125431 -0.992102 0
    outer loop
      vertex -17.7512 13.9921 12
      vertex -18.2495 13.9291 2
      vertex -17.7512 13.9921 2
    endloop
  endfacet
  facet normal 0.587698 0.80908 -0
    outer loop
      vertex -19.6433 -13.3773 2
      vertex -20.0497 -13.0821 12
      vertex -19.6433 -13.3773 12
    endloop
  endfacet
  facet normal 0.587698 0.80908 0
    outer loop
      vertex -20.0497 -13.0821 12
      vertex -19.6433 -13.3773 2
      vertex -20.0497 -13.0821 2
    endloop
  endfacet
  facet normal 0.368127 0.929775 -0
    outer loop
      vertex -18.7361 -13.8042 2
      vertex -19.2031 -13.6193 12
      vertex -18.7361 -13.8042 12
    endloop
  endfacet
  facet normal 0.368127 0.929775 0
    outer loop
      vertex -19.2031 -13.6193 12
      vertex -18.7361 -13.8042 2
      vertex -19.2031 -13.6193 2
    endloop
  endfacet
  facet normal 0.481751 0.876308 -0
    outer loop
      vertex -19.2031 -13.6193 2
      vertex -19.6433 -13.3773 12
      vertex -19.2031 -13.6193 12
    endloop
  endfacet
  facet normal 0.481751 0.876308 0
    outer loop
      vertex -19.6433 -13.3773 12
      vertex -19.2031 -13.6193 2
      vertex -19.6433 -13.3773 2
    endloop
  endfacet
  facet normal -0.951065 0.308992 0
    outer loop
      vertex 21.2191 -11.4725 2
      vertex 21.3743 -10.9948 12
      vertex 21.3743 -10.9948 2
    endloop
  endfacet
  facet normal -0.951065 0.308992 0
    outer loop
      vertex 21.3743 -10.9948 12
      vertex 21.2191 -11.4725 2
      vertex 21.2191 -11.4725 12
    endloop
  endfacet
  facet normal -0.982265 0.187496 0
    outer loop
      vertex 21.3743 -10.9948 2
      vertex 21.4685 -10.5013 12
      vertex 21.4685 -10.5013 2
    endloop
  endfacet
  facet normal -0.982265 0.187496 0
    outer loop
      vertex 21.4685 -10.5013 12
      vertex 21.3743 -10.9948 2
      vertex 21.3743 -10.9948 12
    endloop
  endfacet
  facet normal -0.844366 0.535767 0
    outer loop
      vertex 20.7361 -12.3511 2
      vertex 21.0052 -11.927 12
      vertex 21.0052 -11.927 2
    endloop
  endfacet
  facet normal -0.844366 0.535767 0
    outer loop
      vertex 21.0052 -11.927 12
      vertex 20.7361 -12.3511 2
      vertex 20.7361 -12.3511 12
    endloop
  endfacet
  facet normal 0.587698 -0.80908 0
    outer loop
      vertex -20.0497 13.0821 2
      vertex -19.6433 13.3773 12
      vertex -20.0497 13.0821 12
    endloop
  endfacet
  facet normal 0.587698 -0.80908 0
    outer loop
      vertex -19.6433 13.3773 12
      vertex -20.0497 13.0821 2
      vertex -19.6433 13.3773 2
    endloop
  endfacet
  facet normal -0.951065 -0.308992 0
    outer loop
      vertex 21.3743 10.9948 2
      vertex 21.2191 11.4725 12
      vertex 21.2191 11.4725 2
    endloop
  endfacet
  facet normal -0.951065 -0.308992 0
    outer loop
      vertex 21.2191 11.4725 12
      vertex 21.3743 10.9948 2
      vertex 21.3743 10.9948 12
    endloop
  endfacet
  facet normal -0.770549 -0.63738 0
    outer loop
      vertex 20.7361 12.3511 2
      vertex 20.4159 12.7382 12
      vertex 20.4159 12.7382 2
    endloop
  endfacet
  facet normal -0.770549 -0.63738 0
    outer loop
      vertex 20.4159 12.7382 12
      vertex 20.7361 12.3511 2
      vertex 20.7361 12.3511 12
    endloop
  endfacet
  facet normal -0.368127 -0.929775 0
    outer loop
      vertex 18.7361 13.8042 2
      vertex 19.2031 13.6193 12
      vertex 18.7361 13.8042 12
    endloop
  endfacet
  facet normal -0.368127 -0.929775 -0
    outer loop
      vertex 19.2031 13.6193 12
      vertex 18.7361 13.8042 2
      vertex 19.2031 13.6193 2
    endloop
  endfacet
  facet normal -0.587698 -0.80908 0
    outer loop
      vertex 19.6433 13.3773 2
      vertex 20.0497 13.0821 12
      vertex 19.6433 13.3773 12
    endloop
  endfacet
  facet normal -0.587698 -0.80908 -0
    outer loop
      vertex 20.0497 13.0821 12
      vertex 19.6433 13.3773 2
      vertex 20.0497 13.0821 2
    endloop
  endfacet
  facet normal 0 0 1
    outer loop
      vertex 17.7512 13.9921 2
      vertex 21.5 10 2
      vertex 21.4685 10.5013 2
    endloop
  endfacet
  facet normal 0 0 1
    outer loop
      vertex 21.5 10 2
      vertex 17.7512 13.9921 2
      vertex 21.5 -10 2
    endloop
  endfacet
  facet normal 0 0 1
    outer loop
      vertex 17.7512 13.9921 2
      vertex 21.4685 10.5013 2
      vertex 21.3743 10.9948 2
    endloop
  endfacet
  facet normal 0 0 1
    outer loop
      vertex 17.7512 -13.9921 2
      vertex 21.5 -10 2
      vertex 17.7512 13.9921 2
    endloop
  endfacet
  facet normal 0 0 1
    outer loop
      vertex 17.7512 13.9921 2
      vertex 21.3743 10.9948 2
      vertex 21.2191 11.4725 2
    endloop
  endfacet
  facet normal 0 0 1
    outer loop
      vertex 21.5 -10 2
      vertex 17.7512 -13.9921 2
      vertex 21.4685 -10.5013 2
    endloop
  endfacet
  facet normal 0 0 1
    outer loop
      vertex 17.7512 13.9921 2
      vertex 21.2191 11.4725 2
      vertex 21.0052 11.927 2
    endloop
  endfacet
  facet normal 0 0 1
    outer loop
      vertex 21.4685 -10.5013 2
      vertex 17.7512 -13.9921 2
      vertex 21.3743 -10.9948 2
    endloop
  endfacet
  facet normal 0 0 1
    outer loop
      vertex 17.7512 13.9921 2
      vertex 21.0052 11.927 2
      vertex 20.7361 12.3511 2
    endloop
  endfacet
  facet normal 0 0 1
    outer loop
      vertex 21.3743 -10.9948 2
      vertex 17.7512 -13.9921 2
      vertex 21.2191 -11.4725 2
    endloop
  endfacet
  facet normal 0 0 1
    outer loop
      vertex 17.7512 13.9921 2
      vertex 20.7361 12.3511 2
      vertex 20.4159 12.7382 2
    endloop
  endfacet
  facet normal 0 0 1
    outer loop
      vertex 21.2191 -11.4725 2
      vertex 17.7512 -13.9921 2
      vertex 21.0052 -11.927 2
    endloop
  endfacet
  facet normal 0 0 1
    outer loop
      vertex 17.7512 13.9921 2
      vertex 20.4159 12.7382 2
      vertex 20.0497 13.0821 2
    endloop
  endfacet
  facet normal 0 0 1
    outer loop
      vertex 21.0052 -11.927 2
      vertex 17.7512 -13.9921 2
      vertex 20.7361 -12.3511 2
    endloop
  endfacet
  facet normal 0 0 1
    outer loop
      vertex 17.7512 13.9921 2
      vertex 20.0497 13.0821 2
      vertex 19.6433 13.3773 2
    endloop
  endfacet
  facet normal 0 0 1
    outer loop
      vertex 20.7361 -12.3511 2
      vertex 17.7512 -13.9921 2
      vertex 20.4159 -12.7382 2
    endloop
  endfacet
  facet normal 0 0 1
    outer loop
      vertex 17.7512 13.9921 2
      vertex 19.6433 13.3773 2
      vertex 19.2031 13.6193 2
    endloop
  endfacet
  facet normal 0 0 1
    outer loop
      vertex 20.4159 -12.7382 2
      vertex 17.7512 -13.9921 2
      vertex 20.0497 -13.0821 2
    endloop
  endfacet
  facet normal 0 0 1
    outer loop
      vertex 17.7512 13.9921 2
      vertex 19.2031 13.6193 2
      vertex 18.7361 13.8042 2
    endloop
  endfacet
  facet normal 0 0 1
    outer loop
      vertex 20.0497 -13.0821 2
      vertex 17.7512 -13.9921 2
      vertex 19.6433 -13.3773 2
    endloop
  endfacet
  facet normal 0 0 1
    outer loop
      vertex 17.7512 13.9921 2
      vertex 18.7361 13.8042 2
      vertex 18.2495 13.9291 2
    endloop
  endfacet
  facet normal 0 0 1
    outer loop
      vertex 19.6433 -13.3773 2
      vertex 17.7512 -13.9921 2
      vertex 19.2031 -13.6193 2
    endloop
  endfacet
  facet normal 0 0 1
    outer loop
      vertex 19.2031 -13.6193 2
      vertex 17.7512 -13.9921 2
      vertex 18.7361 -13.8042 2
    endloop
  endfacet
  facet normal 0 0 1
    outer loop
      vertex 18.7361 -13.8042 2
      vertex 17.7512 -13.9921 2
      vertex 18.2495 -13.9291 2
    endloop
  endfacet
  facet normal -0 0 1
    outer loop
      vertex -17.7512 13.9921 2
      vertex 17.7512 -13.9921 2
      vertex 17.7512 13.9921 2
    endloop
  endfacet
  facet normal 0 0 1
    outer loop
      vertex -17.7512 13.9921 2
      vertex -17.7512 -13.9921 2
      vertex 17.7512 -13.9921 2
    endloop
  endfacet
  facet normal 0 0 1
    outer loop
      vertex -21.5 10 2
      vertex -17.7512 13.9921 2
      vertex -18.2495 13.9291 2
    endloop
  endfacet
  facet normal 0 0 1
    outer loop
      vertex -17.7512 13.9921 2
      vertex -21.5 10 2
      vertex -17.7512 -13.9921 2
    endloop
  endfacet
  facet normal 0 0 1
    outer loop
      vertex -21.5 10 2
      vertex -18.2495 13.9291 2
      vertex -18.7361 13.8042 2
    endloop
  endfacet
  facet normal -0 0 1
    outer loop
      vertex -21.5 -10 2
      vertex -17.7512 -13.9921 2
      vertex -21.5 10 2
    endloop
  endfacet
  facet normal 0 0 1
    outer loop
      vertex -21.5 10 2
      vertex -18.7361 13.8042 2
      vertex -19.2031 13.6193 2
    endloop
  endfacet
  facet normal 0 0 1
    outer loop
      vertex -17.7512 -13.9921 2
      vertex -21.5 -10 2
      vertex -18.2495 -13.9291 2
    endloop
  endfacet
  facet normal 0 0 1
    outer loop
      vertex -21.5 10 2
      vertex -19.2031 13.6193 2
      vertex -19.6433 13.3773 2
    endloop
  endfacet
  facet normal 0 0 1
    outer loop
      vertex -18.2495 -13.9291 2
      vertex -21.5 -10 2
      vertex -18.7361 -13.8042 2
    endloop
  endfacet
  facet normal 0 0 1
    outer loop
      vertex -21.5 10 2
      vertex -19.6433 13.3773 2
      vertex -20.0497 13.0821 2
    endloop
  endfacet
  facet normal 0 0 1
    outer loop
      vertex -18.7361 -13.8042 2
      vertex -21.5 -10 2
      vertex -19.2031 -13.6193 2
    endloop
  endfacet
  facet normal 0 0 1
    outer loop
      vertex -21.5 10 2
      vertex -20.0497 13.0821 2
      vertex -20.4159 12.7382 2
    endloop
  endfacet
  facet normal 0 0 1
    outer loop
      vertex -19.2031 -13.6193 2
      vertex -21.5 -10 2
      vertex -19.6433 -13.3773 2
    endloop
  endfacet
  facet normal 0 0 1
    outer loop
      vertex -21.5 10 2
      vertex -20.4159 12.7382 2
      vertex -20.7361 12.3511 2
    endloop
  endfacet
  facet normal 0 0 1
    outer loop
      vertex -19.6433 -13.3773 2
      vertex -21.5 -10 2
      vertex -20.0497 -13.0821 2
    endloop
  endfacet
  facet normal 0 0 1
    outer loop
      vertex -21.5 10 2
      vertex -20.7361 12.3511 2
      vertex -21.0052 11.927 2
    endloop
  endfacet
  facet normal 0 0 1
    outer loop
      vertex -20.0497 -13.0821 2
      vertex -21.5 -10 2
      vertex -20.4159 -12.7382 2
    endloop
  endfacet
  facet normal 0 0 1
    outer loop
      vertex -21.5 10 2
      vertex -21.0052 11.927 2
      vertex -21.2191 11.4725 2
    endloop
  endfacet
  facet normal 0 0 1
    outer loop
      vertex -20.4159 -12.7382 2
      vertex -21.5 -10 2
      vertex -20.7361 -12.3511 2
    endloop
  endfacet
  facet normal 0 0 1
    outer loop
      vertex -21.5 10 2
      vertex -21.2191 11.4725 2
      vertex -21.3743 10.9948 2
    endloop
  endfacet
  facet normal 0 0 1
    outer loop
      vertex -20.7361 -12.3511 2
      vertex -21.5 -10 2
      vertex -21.0052 -11.927 2
    endloop
  endfacet
  facet normal 0 0 1
    outer loop
      vertex -21.5 10 2
      vertex -21.3743 10.9948 2
      vertex -21.4685 10.5013 2
    endloop
  endfacet
  facet normal 0 0 1
    outer loop
      vertex -21.0052 -11.927 2
      vertex -21.5 -10 2
      vertex -21.2191 -11.4725 2
    endloop
  endfacet
  facet normal 0 0 1
    outer loop
      vertex -21.2191 -11.4725 2
      vertex -21.5 -10 2
      vertex -21.3743 -10.9948 2
    endloop
  endfacet
  facet normal 0 0 1
    outer loop
      vertex -21.3743 -10.9948 2
      vertex -21.5 -10 2
      vertex -21.4685 -10.5013 2
    endloop
  endfacet
  facet normal 0.951065 0.308992 0
    outer loop
      vertex -21.2191 -11.4725 12
      vertex -21.3743 -10.9948 2
      vertex -21.3743 -10.9948 12
    endloop
  endfacet
  facet normal 0.951065 0.308992 0
    outer loop
      vertex -21.3743 -10.9948 2
      vertex -21.2191 -11.4725 12
      vertex -21.2191 -11.4725 2
    endloop
  endfacet
  facet normal 0.770549 0.63738 0
    outer loop
      vertex -20.4159 -12.7382 12
      vertex -20.7361 -12.3511 2
      vertex -20.7361 -12.3511 12
    endloop
  endfacet
  facet normal 0.770549 0.63738 0
    outer loop
      vertex -20.7361 -12.3511 2
      vertex -20.4159 -12.7382 12
      vertex -20.4159 -12.7382 2
    endloop
  endfacet
  facet normal 0.125431 0.992102 -0
    outer loop
      vertex -17.7512 -13.9921 2
      vertex -18.2495 -13.9291 12
      vertex -17.7512 -13.9921 12
    endloop
  endfacet
  facet normal 0.125431 0.992102 0
    outer loop
      vertex -18.2495 -13.9291 12
      vertex -17.7512 -13.9921 2
      vertex -18.2495 -13.9291 2
    endloop
  endfacet
  facet normal 0.684563 0.728953 -0
    outer loop
      vertex -20.0497 -13.0821 2
      vertex -20.4159 -12.7382 12
      vertex -20.0497 -13.0821 12
    endloop
  endfacet
  facet normal 0.684563 0.728953 0
    outer loop
      vertex -20.4159 -12.7382 12
      vertex -20.0497 -13.0821 2
      vertex -20.4159 -12.7382 2
    endloop
  endfacet
  facet normal -0.998032 0.0627129 0
    outer loop
      vertex 21.4685 -10.5013 2
      vertex 21.5 -10 12
      vertex 21.5 -10 2
    endloop
  endfacet
  facet normal -0.998032 0.0627129 0
    outer loop
      vertex 21.5 -10 12
      vertex 21.4685 -10.5013 2
      vertex 21.4685 -10.5013 12
    endloop
  endfacet
  facet normal -0.982265 -0.187496 0
    outer loop
      vertex 21.4685 10.5013 2
      vertex 21.3743 10.9948 12
      vertex 21.3743 10.9948 2
    endloop
  endfacet
  facet normal -0.982265 -0.187496 0
    outer loop
      vertex 21.3743 10.9948 12
      vertex 21.4685 10.5013 2
      vertex 21.4685 10.5013 12
    endloop
  endfacet
  facet normal -0.904805 -0.425826 0
    outer loop
      vertex 21.2191 11.4725 2
      vertex 21.0052 11.927 12
      vertex 21.0052 11.927 2
    endloop
  endfacet
  facet normal -0.904805 -0.425826 0
    outer loop
      vertex 21.0052 11.927 12
      vertex 21.2191 11.4725 2
      vertex 21.2191 11.4725 12
    endloop
  endfacet
  facet normal -0.844366 -0.535767 0
    outer loop
      vertex 21.0052 11.927 2
      vertex 20.7361 12.3511 12
      vertex 20.7361 12.3511 2
    endloop
  endfacet
  facet normal -0.844366 -0.535767 0
    outer loop
      vertex 20.7361 12.3511 12
      vertex 21.0052 11.927 2
      vertex 21.0052 11.927 12
    endloop
  endfacet
  facet normal -0.684563 -0.728953 0
    outer loop
      vertex 20.0497 13.0821 2
      vertex 20.4159 12.7382 12
      vertex 20.0497 13.0821 12
    endloop
  endfacet
  facet normal -0.684563 -0.728953 -0
    outer loop
      vertex 20.4159 12.7382 12
      vertex 20.0497 13.0821 2
      vertex 20.4159 12.7382 2
    endloop
  endfacet
  facet normal -0.24862 -0.968601 0
    outer loop
      vertex 18.2495 13.9291 2
      vertex 18.7361 13.8042 12
      vertex 18.2495 13.9291 12
    endloop
  endfacet
  facet normal -0.24862 -0.968601 -0
    outer loop
      vertex 18.7361 13.8042 12
      vertex 18.2495 13.9291 2
      vertex 18.7361 13.8042 2
    endloop
  endfacet
  facet normal -0.125431 -0.992102 0
    outer loop
      vertex 17.7512 13.9921 2
      vertex 18.2495 13.9291 12
      vertex 17.7512 13.9921 12
    endloop
  endfacet
  facet normal -0.125431 -0.992102 -0
    outer loop
      vertex 18.2495 13.9291 12
      vertex 17.7512 13.9921 2
      vertex 18.2495 13.9291 2
    endloop
  endfacet
  facet normal 0.982265 0.187496 0
    outer loop
      vertex -21.3743 -10.9948 12
      vertex -21.4685 -10.5013 2
      vertex -21.4685 -10.5013 12
    endloop
  endfacet
  facet normal 0.982265 0.187496 0
    outer loop
      vertex -21.4685 -10.5013 2
      vertex -21.3743 -10.9948 12
      vertex -21.3743 -10.9948 2
    endloop
  endfacet
  facet normal 0.844366 0.535767 0
    outer loop
      vertex -20.7361 -12.3511 12
      vertex -21.0052 -11.927 2
      vertex -21.0052 -11.927 12
    endloop
  endfacet
  facet normal 0.844366 0.535767 0
    outer loop
      vertex -21.0052 -11.927 2
      vertex -20.7361 -12.3511 12
      vertex -20.7361 -12.3511 2
    endloop
  endfacet
  facet normal -0.24862 0.968601 0
    outer loop
      vertex 18.7361 -13.8042 2
      vertex 18.2495 -13.9291 12
      vertex 18.7361 -13.8042 12
    endloop
  endfacet
  facet normal -0.24862 0.968601 0
    outer loop
      vertex 18.2495 -13.9291 12
      vertex 18.7361 -13.8042 2
      vertex 18.2495 -13.9291 2
    endloop
  endfacet
  facet normal -0.587698 0.80908 0
    outer loop
      vertex 20.0497 -13.0821 2
      vertex 19.6433 -13.3773 12
      vertex 20.0497 -13.0821 12
    endloop
  endfacet
  facet normal -0.587698 0.80908 0
    outer loop
      vertex 19.6433 -13.3773 12
      vertex 20.0497 -13.0821 2
      vertex 19.6433 -13.3773 2
    endloop
  endfacet
  facet normal -0.684563 0.728953 0
    outer loop
      vertex 20.4159 -12.7382 2
      vertex 20.0497 -13.0821 12
      vertex 20.4159 -12.7382 12
    endloop
  endfacet
  facet normal -0.684563 0.728953 0
    outer loop
      vertex 20.0497 -13.0821 12
      vertex 20.4159 -12.7382 2
      vertex 20.0497 -13.0821 2
    endloop
  endfacet
  facet normal -0.125431 0.992102 0
    outer loop
      vertex 18.2495 -13.9291 2
      vertex 17.7512 -13.9921 12
      vertex 18.2495 -13.9291 12
    endloop
  endfacet
  facet normal -0.125431 0.992102 0
    outer loop
      vertex 17.7512 -13.9921 12
      vertex 18.2495 -13.9291 2
      vertex 17.7512 -13.9921 2
    endloop
  endfacet
  facet normal -0.904805 0.425826 0
    outer loop
      vertex 21.0052 -11.927 2
      vertex 21.2191 -11.4725 12
      vertex 21.2191 -11.4725 2
    endloop
  endfacet
  facet normal -0.904805 0.425826 0
    outer loop
      vertex 21.2191 -11.4725 12
      vertex 21.0052 -11.927 2
      vertex 21.0052 -11.927 12
    endloop
  endfacet
  facet normal -0.481751 0.876308 0
    outer loop
      vertex 19.6433 -13.3773 2
      vertex 19.2031 -13.6193 12
      vertex 19.6433 -13.3773 12
    endloop
  endfacet
  facet normal -0.481751 0.876308 0
    outer loop
      vertex 19.2031 -13.6193 12
      vertex 19.6433 -13.3773 2
      vertex 19.2031 -13.6193 2
    endloop
  endfacet
  facet normal -0.368127 0.929775 0
    outer loop
      vertex 19.2031 -13.6193 2
      vertex 18.7361 -13.8042 12
      vertex 19.2031 -13.6193 12
    endloop
  endfacet
  facet normal -0.368127 0.929775 0
    outer loop
      vertex 18.7361 -13.8042 12
      vertex 19.2031 -13.6193 2
      vertex 18.7361 -13.8042 2
    endloop
  endfacet
endsolid OpenSCAD_Model
